<svg width="58" height="57" viewBox="0 0 58 57" fill="none" xmlns="http://www.w3.org/2000/svg">
<path d="M15.5134 0H10.1301C3.92508 0 0.666748 3.25833 0.666748 9.435V14.8183C0.666748 20.995 3.92508 24.2533 10.1017 24.2533H15.4851C21.6617 24.2533 24.9201 20.995 24.9201 14.8183V9.435C24.9484 3.25833 21.6901 0 15.5134 0Z" fill="#22C55E"/>
<path d="M47.8984 0H42.5151C36.3384 0 33.0801 3.25833 33.0801 9.435V14.8183C33.0801 20.995 36.3384 24.2533 42.5151 24.2533H47.8984C54.0751 24.2533 57.3334 20.995 57.3334 14.8183V9.435C57.3334 3.25833 54.0751 0 47.8984 0Z" fill="#22C55E"/>
<path d="M47.8984 32.3848H42.5151C36.3384 32.3848 33.0801 35.6431 33.0801 41.8198V47.2031C33.0801 53.3798 36.3384 56.6381 42.5151 56.6381H47.8984C54.0751 56.6381 57.3334 53.3798 57.3334 47.2031V41.8198C57.3334 35.6431 54.0751 32.3848 47.8984 32.3848Z" fill="#22C55E"/>
<path d="M15.5134 32.3848H10.1301C3.92508 32.3848 0.666748 35.6431 0.666748 41.8198V47.2031C0.666748 53.4081 3.92508 56.6664 10.1017 56.6664H15.4851C21.6617 56.6664 24.9201 53.4081 24.9201 47.2314V41.8481C24.9484 35.6431 21.6901 32.3848 15.5134 32.3848Z" fill="#22C55E"/>
</svg>
