<svg width="242" height="91" viewBox="0 0 242 91" fill="none" xmlns="http://www.w3.org/2000/svg">
<path d="M8.11133 43.7854C8.11133 43.7854 10.2463 42.0149 18.8012 41.2264C18.8012 41.2264 15.0817 45.5484 12.0614 46.1064C9.0412 46.6643 8.11133 43.7854 8.11133 43.7854Z" fill="#22C55E"/>
<path d="M237.59 45.9353C233.99 41.8438 240.313 29.6959 236.593 25.359C232.874 21.0146 215.392 13.5756 215.392 13.5756L217.936 8.49474C140.384 -5.82535 114.162 3.84536 107.281 5.70512C100.4 7.56487 73.2474 22.2569 73.2474 22.2569C5.36641 27.2782 4.25056 41.9703 4.25056 41.9703C-0.458335 44.8194 1.27495 55.234 1.27495 55.234C1.27495 55.234 1.27495 60.8133 2.88922 67.7613C4.49604 74.7019 25.2062 75.4458 25.2062 75.4458C25.2062 75.4458 19.9989 46.0617 45.6635 45.8162C71.3281 45.5633 69.8998 74.7019 69.8998 74.7019H179.439C179.439 74.7019 175.593 47.0511 201.511 47.0511C227.421 47.0511 223.947 72.4702 223.947 72.4702L237.813 68.0068C242.998 58.5221 241.183 50.0267 237.59 45.9353ZM235.046 36.577C232.591 39.7311 224.758 37.2614 218.992 34.6875C213.227 32.1136 216.694 32.1731 216.694 32.1731C229.526 32.2996 236.534 28.4239 236.534 28.4239C236.534 28.4239 237.501 33.4229 235.046 36.577ZM209.195 17.4216L214.775 12.125L213.688 14.7881C233.313 22.2272 236.258 27.003 236.258 27.003C236.258 27.003 212.26 20.3079 210.222 19.2813C208.169 18.2547 209.195 17.4216 209.195 17.4216ZM198.037 19.564C199.807 22.3462 205.662 24.7713 200.083 24.8606C194.503 24.9498 95.8768 31.1837 95.8768 31.1837L96.6207 29.6959L193.819 23.7447C193.819 23.7447 196.051 24.0274 195.061 22.2123C194.072 20.3972 191.609 18.0836 197.419 15.9338C203.222 13.7839 197.419 13.2408 197.419 13.2408C197.419 13.2408 127.009 -8.36205 78.41 30.6109C79.1911 29.6364 112.005 -10.3706 204.36 13.2408C204.36 13.2408 196.266 16.7669 198.037 19.564ZM185.547 33.6609C185.547 34.2263 185.085 34.6875 184.52 34.6875H175.221C174.656 34.6875 174.202 34.2263 174.202 33.6609C174.202 33.0955 174.656 32.6418 175.221 32.6418H184.52C185.085 32.6418 185.547 33.0955 185.547 33.6609ZM137.587 65.7528C137.349 65.0833 131.063 47.2297 139.641 30.6258C139.641 30.6258 134.999 53.471 137.587 65.7528ZM131.026 34.6875C131.026 35.2529 130.565 35.7066 130 35.7066H120.701C120.135 35.7066 119.682 35.2529 119.682 34.6875C119.682 34.1221 120.135 33.6609 120.701 33.6609H130C130.565 33.6609 131.026 34.1221 131.026 34.6875ZM96.6802 21.1411C112.674 11.9316 138.525 9.42462 138.525 9.42462L134.522 25.6937L98.0713 28.0221C99.0979 25.6937 96.6802 21.1411 96.6802 21.1411ZM145.964 25.6937L147.541 9.23864C157.494 8.03353 178.978 10.7264 178.978 10.7264L178.413 23.5587L145.964 25.6937ZM180.369 22.9115L180.838 11.3811L187.808 12.125L192.272 22.9115H180.369ZM94.761 29.2645L86.8236 28.4239C86.8236 28.4239 93.7642 27.4642 95.1329 25.9764C95.1329 25.9764 96.4943 27.8957 94.761 29.2645ZM153.031 2.35756C184.81 2.20878 196.735 7.75084 196.735 7.75084C162.701 1.79964 124.763 5.51914 116.58 7.75084C108.397 9.98255 107.281 7.75084 107.281 7.75084C107.281 7.75084 121.251 2.50634 153.031 2.35756ZM73.4185 23.2463C76.3792 21.3865 105.919 6.88048 105.176 7.50536C104.432 8.12279 107.281 10.109 107.281 10.109C102.974 11.515 82.6056 23.7447 76.409 25.1061C70.2123 26.4748 73.4185 23.2463 73.4185 23.2463ZM74.9137 32.6715C74.7501 33.4154 71.4918 48.6059 73.2474 60.9398C73.2474 60.9398 69.3493 45.2806 74.9137 32.6715ZM65.3769 27.6204L60.5415 34.6875C60.5415 34.6875 30.6962 32.7459 20.3188 35.543C24.8194 34.2784 54.7242 26.0434 65.3769 27.6204ZM30.1978 38.5335C32.5188 38.9054 10.9457 50.3392 9.27189 48.0108C7.59811 45.6898 5.64909 44.202 5.64909 44.202C9.45786 38.8087 27.8694 38.1615 30.1978 38.5335ZM3.22397 58.7081C3.22397 58.7081 6.57153 57.4062 8.1114 59.5412C9.64384 61.6837 10.3877 64.1013 10.3877 64.1013H5.03909L3.22397 58.7081ZM236.065 66.705L225.933 69.5839C225.933 69.5839 227.666 43.9491 201.63 45.3178C175.593 46.6792 177.334 72.9686 177.334 72.9686H71.7596C71.7596 72.9686 71.5736 44.202 46.0355 44.7004C20.4899 45.1914 23.711 72.076 23.592 73.7125C23.473 75.3417 3.63312 72.0983 5.12092 65.7751L20.2444 65.9016C20.2444 65.9016 21.2338 43.7036 46.7794 42.4687C72.3175 41.2264 73.0614 70.9824 73.0614 70.9824L174.202 68.0068C174.202 68.0068 177.951 46.2477 197.293 43.2721C216.634 40.2965 224.475 52.0129 226.677 60.3818L236.348 59.5635C236.348 59.5635 237.464 52.3849 239.695 52.1022C239.695 52.1022 240.253 64.198 236.065 66.705Z" fill="#22C55E"/>
<path d="M18.8012 41.2264C18.8012 41.2264 15.0817 45.5484 12.0614 46.1064C9.0412 46.6643 8.11133 43.7854 8.11133 43.7854C8.11133 43.7854 10.2463 42.0149 18.8012 41.2264Z" fill="#22C55E"/>
<path d="M18.8012 41.2264C18.8012 41.2264 15.0817 45.5484 12.0614 46.1064C9.0412 46.6643 8.11133 43.7854 8.11133 43.7854C8.11133 43.7854 10.2463 42.0149 18.8012 41.2264Z" fill="#22C55E"/>
<path d="M202.56 54.4605C194.369 54.4605 187.726 61.0812 187.726 69.2493C187.726 77.4247 194.369 84.038 202.56 84.038C210.75 84.038 217.4 77.4173 217.4 69.2493C217.4 61.0887 210.75 54.4605 202.56 54.4605ZM207.365 57.6518L202.56 65.8348L198.572 57.6518C202.128 54.6465 207.365 57.6518 207.365 57.6518ZM204.271 69.2493C204.271 70.3354 203.37 71.2206 202.269 71.2206C201.168 71.2206 200.268 70.3428 200.268 69.2493C200.268 68.1632 201.168 67.2854 202.269 67.2854C203.37 67.2854 204.271 68.1632 204.271 69.2493ZM193.774 59.9728L198.847 67.9921L189.75 67.7987C188.701 63.2534 193.774 59.9728 193.774 59.9728ZM190.374 71.9273L199.859 71.6967L195.009 79.3961C190.575 77.9529 190.374 71.9273 190.374 71.9273ZM198.163 81.4939L202.79 73.2143L206.956 81.3005C203.46 84.3876 198.163 81.4939 198.163 81.4939ZM210.423 79.5597L205.364 71.5256L214.462 71.7562C215.489 76.294 210.423 79.5597 210.423 79.5597ZM205.773 67.754L211.643 60.7985C215.838 62.8368 215.206 68.8401 215.206 68.8401L205.773 67.754Z" fill="#22C55E"/>
<path d="M202.262 49.1193C190.88 49.1193 181.649 58.3139 181.649 69.6584C181.649 81.0103 190.88 90.2123 202.262 90.2123C213.644 90.2123 222.875 81.0177 222.875 69.6584C222.883 58.3213 213.644 49.1193 202.262 49.1193ZM202.56 85.5183C193.551 85.5183 186.238 78.2355 186.238 69.2492C186.238 60.2629 193.551 52.9801 202.56 52.9801C211.568 52.9801 218.881 60.2629 218.881 69.2492C218.881 78.2355 211.568 85.5183 202.56 85.5183Z" fill="#22C55E"/>
<path d="M202.56 54.4605C194.369 54.4605 187.726 61.0812 187.726 69.2493C187.726 77.4247 194.369 84.038 202.56 84.038C210.75 84.038 217.4 77.4173 217.4 69.2493C217.4 61.0887 210.75 54.4605 202.56 54.4605ZM207.365 57.6518L202.56 65.8348L198.572 57.6518C202.128 54.6465 207.365 57.6518 207.365 57.6518ZM204.271 69.2493C204.271 70.3354 203.37 71.2206 202.269 71.2206C201.168 71.2206 200.268 70.3428 200.268 69.2493C200.268 68.1632 201.168 67.2854 202.269 67.2854C203.37 67.2854 204.271 68.1632 204.271 69.2493ZM193.774 59.9728L198.847 67.9921L189.75 67.7987C188.701 63.2534 193.774 59.9728 193.774 59.9728ZM190.374 71.9273L199.859 71.6967L195.009 79.3961C190.575 77.9529 190.374 71.9273 190.374 71.9273ZM198.163 81.4939L202.79 73.2143L206.956 81.3005C203.46 84.3876 198.163 81.4939 198.163 81.4939ZM210.423 79.5597L205.364 71.5256L214.462 71.7562C215.489 76.294 210.423 79.5597 210.423 79.5597ZM205.773 67.754L211.643 60.7985C215.838 62.8368 215.206 68.8401 215.206 68.8401L205.773 67.754Z" fill="#22C55E"/>
<path d="M202.56 54.4605C194.369 54.4605 187.726 61.0812 187.726 69.2493C187.726 77.4247 194.369 84.038 202.56 84.038C210.75 84.038 217.4 77.4173 217.4 69.2493C217.4 61.0887 210.75 54.4605 202.56 54.4605ZM207.365 57.6518L202.56 65.8348L198.572 57.6518C202.128 54.6465 207.365 57.6518 207.365 57.6518ZM204.271 69.2493C204.271 70.3354 203.37 71.2206 202.269 71.2206C201.168 71.2206 200.268 70.3428 200.268 69.2493C200.268 68.1632 201.168 67.2854 202.269 67.2854C203.37 67.2854 204.271 68.1632 204.271 69.2493ZM193.774 59.9728L198.847 67.9921L189.75 67.7987C188.701 63.2534 193.774 59.9728 193.774 59.9728ZM190.374 71.9273L199.859 71.6967L195.009 79.3961C190.575 77.9529 190.374 71.9273 190.374 71.9273ZM198.163 81.4939L202.79 73.2143L206.956 81.3005C203.46 84.3876 198.163 81.4939 198.163 81.4939ZM210.423 79.5597L205.364 71.5256L214.462 71.7562C215.489 76.294 210.423 79.5597 210.423 79.5597ZM205.773 67.754L211.643 60.7985C215.838 62.8368 215.206 68.8401 215.206 68.8401L205.773 67.754Z" fill="#22C55E"/>
<path d="M47.8282 54.4605C39.6378 54.4605 32.9948 61.0812 32.9948 69.2493C32.9948 77.4247 39.6378 84.038 47.8282 84.038C56.0185 84.038 62.669 77.4173 62.669 69.2493C62.669 61.0887 56.0185 54.4605 47.8282 54.4605ZM52.6338 57.6518L47.8282 65.8348L43.8409 57.6518C47.3967 54.6465 52.6338 57.6518 52.6338 57.6518ZM49.5392 69.2493C49.5392 70.3354 48.639 71.2206 47.5381 71.2206C46.4371 71.2206 45.537 70.3428 45.537 69.2493C45.537 68.1632 46.4371 67.2854 47.5381 67.2854C48.639 67.2854 49.5392 68.1632 49.5392 69.2493ZM39.0427 59.9728L44.1161 67.9921L35.0182 67.7987C33.9693 63.2534 39.0427 59.9728 39.0427 59.9728ZM35.6431 71.9273L45.1278 71.6967L40.2776 79.3961C35.844 77.9529 35.6431 71.9273 35.6431 71.9273ZM43.4317 81.4939L48.0588 73.2143L52.2247 81.3005C48.7283 84.3876 43.4317 81.4939 43.4317 81.4939ZM55.6912 79.5597L50.6327 71.5256L59.7306 71.7562C60.7572 76.294 55.6912 79.5597 55.6912 79.5597ZM51.0418 67.754L56.9112 60.7985C61.1068 62.8443 60.4745 68.8401 60.4745 68.8401L51.0418 67.754Z" fill="#22C55E"/>
<path d="M47.5306 49.1193C36.1489 49.1193 26.9171 58.3139 26.9171 69.6584C26.9171 81.0103 36.1489 90.2123 47.5306 90.2123C58.9123 90.2123 68.1441 81.0177 68.1441 69.6584C68.1515 58.3213 58.9123 49.1193 47.5306 49.1193ZM47.8281 85.5183C38.8195 85.5183 31.507 78.2355 31.507 69.2492C31.507 60.2629 38.8195 52.9801 47.8281 52.9801C56.8368 52.9801 64.1493 60.2629 64.1493 69.2492C64.1493 78.2355 56.8368 85.5183 47.8281 85.5183Z" fill="#22C55E"/>
<path d="M47.8282 54.4605C39.6378 54.4605 32.9948 61.0812 32.9948 69.2493C32.9948 77.4247 39.6378 84.038 47.8282 84.038C56.0185 84.038 62.669 77.4173 62.669 69.2493C62.669 61.0887 56.0185 54.4605 47.8282 54.4605ZM52.6338 57.6518L47.8282 65.8348L43.8409 57.6518C47.3967 54.6465 52.6338 57.6518 52.6338 57.6518ZM49.5392 69.2493C49.5392 70.3354 48.639 71.2206 47.5381 71.2206C46.4371 71.2206 45.537 70.3428 45.537 69.2493C45.537 68.1632 46.4371 67.2854 47.5381 67.2854C48.639 67.2854 49.5392 68.1632 49.5392 69.2493ZM39.0427 59.9728L44.1161 67.9921L35.0182 67.7987C33.9693 63.2534 39.0427 59.9728 39.0427 59.9728ZM35.6431 71.9273L45.1278 71.6967L40.2776 79.3961C35.844 77.9529 35.6431 71.9273 35.6431 71.9273ZM43.4317 81.4939L48.0588 73.2143L52.2247 81.3005C48.7283 84.3876 43.4317 81.4939 43.4317 81.4939ZM55.6912 79.5597L50.6327 71.5256L59.7306 71.7562C60.7572 76.294 55.6912 79.5597 55.6912 79.5597ZM51.0418 67.754L56.9112 60.7985C61.1068 62.8443 60.4745 68.8401 60.4745 68.8401L51.0418 67.754Z" fill="#22C55E"/>
<path d="M47.8282 54.4605C39.6378 54.4605 32.9948 61.0812 32.9948 69.2493C32.9948 77.4247 39.6378 84.038 47.8282 84.038C56.0185 84.038 62.669 77.4173 62.669 69.2493C62.669 61.0887 56.0185 54.4605 47.8282 54.4605ZM52.6338 57.6518L47.8282 65.8348L43.8409 57.6518C47.3967 54.6465 52.6338 57.6518 52.6338 57.6518ZM49.5392 69.2493C49.5392 70.3354 48.639 71.2206 47.5381 71.2206C46.4371 71.2206 45.537 70.3428 45.537 69.2493C45.537 68.1632 46.4371 67.2854 47.5381 67.2854C48.639 67.2854 49.5392 68.1632 49.5392 69.2493ZM39.0427 59.9728L44.1161 67.9921L35.0182 67.7987C33.9693 63.2534 39.0427 59.9728 39.0427 59.9728ZM35.6431 71.9273L45.1278 71.6967L40.2776 79.3961C35.844 77.9529 35.6431 71.9273 35.6431 71.9273ZM43.4317 81.4939L48.0588 73.2143L52.2247 81.3005C48.7283 84.3876 43.4317 81.4939 43.4317 81.4939ZM55.6912 79.5597L50.6327 71.5256L59.7306 71.7562C60.7572 76.294 55.6912 79.5597 55.6912 79.5597ZM51.0418 67.754L56.9112 60.7985C61.1068 62.8443 60.4745 68.8401 60.4745 68.8401L51.0418 67.754Z" fill="#22C55E"/>
</svg>
