<svg width="248" height="77" viewBox="0 0 248 77" fill="none" xmlns="http://www.w3.org/2000/svg">
<path d="M108.334 15.9331C108.334 15.9331 111.63 13.8457 114.427 13.9182C115.072 13.9424 115.684 14.0875 116.232 14.4018C116.232 14.4018 116.248 14.3937 116.264 14.3776C116.281 14.3857 116.297 14.3937 116.313 14.4018C116.313 14.4018 117.232 13.7812 118.981 12.9108C118.972 12.8221 118.948 12.7335 118.948 12.6448C118.9 11.8792 118.964 11.1216 119.061 10.364C118.964 10.2914 118.884 10.2108 118.795 10.1302C105.384 15.2642 92.787 22.3888 92.787 22.3888C93.8348 22.2276 102.458 22.55 106.005 21.4217C106.577 21.2685 107.044 21.0106 107.262 20.6721C107.415 20.4787 107.488 20.2691 107.455 20.0515C106.803 17.2226 108.334 15.9331 108.334 15.9331Z" fill="#22C55E"/>
<path d="M180.974 8.8972C177.388 7.6641 171.488 6.71307 164.936 6.04413C164.235 7.34171 163.526 8.6393 162.816 9.94494C162.687 10.2351 162.55 10.5172 162.421 10.8073C162.284 11.1055 162.115 11.3634 161.93 11.5891C161.487 12.4112 161.051 13.2332 160.624 14.0634C160.092 15.1836 159.544 16.2878 158.948 17.3758C158.69 17.8433 158.392 18.214 158.061 18.5122C165.79 17.9319 171.891 17.4242 173.374 17.0535C178.21 15.9251 181.514 17.2952 184.497 12.2177C185.198 10.9524 183.771 9.84017 180.974 8.8972ZM173.777 14.3213C172.246 15.8526 166.524 16.4973 166.524 16.4973C166.524 16.4973 166.314 16.1508 166.298 15.4496C166.298 14.5228 166.629 13.0237 168.136 10.9363C168.297 10.6945 173.777 12.5482 173.777 12.5482C173.777 12.5482 174.438 12.6932 174.454 13.2252C174.422 13.4911 174.245 13.8458 173.777 14.3213Z" fill="#22C55E"/>
<path d="M246.716 31.0852L244.782 29.2315C244.782 29.2315 238.979 30.2792 235.03 30.1181C231.081 29.9569 226.809 24.2346 231 24.3152C231.967 24.3152 233.096 24.154 234.143 23.8316C237.69 22.8645 241.155 20.769 241.155 20.769L243.251 16.2557C243.251 16.2557 245.427 12.5483 240.994 12.79C236.481 13.1124 231.484 14.9661 231.484 14.9661C231.484 14.9661 187.559 4.24694 179.016 2.55444C176.864 2.12728 172.931 1.36163 167.749 0.700745C167.024 2.13534 166.282 3.55382 165.524 4.9723C194.426 7.36598 187.559 11.9035 187.559 11.9035L183.529 16.578L170.876 18.9959L115.749 22.4615L103.901 23.751C103.901 23.751 92.6179 23.9122 91.0866 23.751C89.5553 23.5898 90.1194 23.0257 90.1194 23.0257C90.1194 23.0257 92.9403 19.1571 112.444 10.9364C114.306 10.1546 116.095 9.4534 117.812 8.82476C117.433 8.03492 117.288 7.1242 117.538 6.14899C117.562 6.0684 117.586 5.99586 117.611 5.91526C117.119 5.42363 116.764 4.79499 116.555 4.12605C111.743 5.57676 106.932 7.43046 102.209 9.80802C102.209 9.80802 82.0599 19.2377 80.1256 19.3989C80.1256 19.3989 20.0015 22.3003 0.255594 39.9507C0.255594 39.9507 -0.0667872 46.3983 0.255594 50.5893C0.255594 50.5893 -0.630955 53.2489 0.900357 55.9086C0.900357 55.9086 -0.147383 58.004 1.62572 57.6817L2.18988 62.0338C2.18988 62.0338 4.28536 60.9861 5.25251 64.5323C5.25251 64.5323 16.2941 67.1919 19.2761 66.5472C19.2761 66.5472 15.9717 33.0195 40.0697 33.0195C64.1677 33.0195 66.505 54.2967 66.908 66.6278L67.7945 67.3531C67.7945 67.3531 174.261 64.2099 177.162 65.983C177.162 65.983 178.21 65.983 178.049 63.9681C178.049 63.9681 174.583 31.2464 203.195 31.2464C231.806 31.2464 225.278 61.8726 225.278 61.8726C225.278 61.8726 246.716 57.1175 243.492 53.8131C243.492 53.9743 250.907 43.8193 246.716 31.0852ZM145.327 26.1689H154.193C154.838 26.1689 155.321 26.6525 155.321 27.2972C155.321 27.942 154.838 28.4256 154.193 28.4256H145.327C144.682 28.4256 144.199 27.942 144.199 27.2972C144.199 26.6525 144.682 26.1689 145.327 26.1689ZM87.9434 36.7269C87.9434 36.7269 87.5404 53.7325 89.4747 57.8429L136.945 56.3116C136.945 56.3116 151.372 56.7951 156.691 46.3983C156.691 46.3983 161.285 36.8881 161.93 33.6643C161.849 34.7926 159.996 52.443 150.485 55.022C140.653 57.6817 87.9434 59.1324 87.9434 59.1324C87.9434 59.1324 85.9285 41.5626 87.9434 36.7269ZM1.8675 41.4014C7.67037 34.4702 18.6313 33.5837 18.6313 33.5837C10.4912 40.9178 1.8675 41.4014 1.8675 41.4014ZM64.8931 45.673C64.8125 45.5118 64.7319 45.4312 64.6513 45.27C64.4901 44.9476 64.2483 44.6252 64.0065 44.2222C63.9259 44.1416 63.8453 43.9805 63.7647 43.8999C63.6036 43.6581 63.4424 43.4163 63.2006 43.0939C63.12 43.0133 63.0394 42.9327 62.9588 42.7715C62.5558 42.2074 62.0722 41.6432 61.5887 40.9984C61.4275 40.8372 61.3469 40.676 61.1857 40.5149C60.138 39.3059 58.8484 38.0164 57.3171 36.8075C57.1559 36.7269 57.0753 36.6463 56.9141 36.4851C56.753 36.4045 56.6724 36.3239 56.5112 36.1627C56.1082 35.9209 55.7858 35.5985 55.3828 35.3568C55.141 35.1956 54.8187 35.0344 54.5769 34.7926C54.1739 34.5508 53.7709 34.309 53.2873 34.0672C52.965 33.906 52.6426 33.7448 52.3202 33.5837C52.159 33.5031 52.0784 33.4225 51.9172 33.4225C51.756 33.3419 51.6754 33.3419 51.5142 33.2613C51.2725 33.1001 50.9501 33.0195 50.7083 32.9389C50.3859 32.8583 50.0635 32.6971 49.7411 32.6165C49.3382 32.4553 48.8546 32.3747 48.4516 32.2135C48.2904 32.1329 48.1292 32.1329 47.9681 32.0523C47.6457 31.9717 47.2427 31.8912 46.9203 31.8106C46.5173 31.73 46.195 31.6494 45.792 31.6494C45.5502 31.6494 45.3084 31.5688 45.1472 31.5688H45.0666C44.9054 31.5688 44.6636 31.4882 44.5025 31.4882C44.1801 31.4882 43.8577 31.4076 43.4547 31.4076H41.198C24.1118 31.8912 19.1149 47.1237 19.1149 47.1237H15.0045C15.0045 47.1237 10.0076 44.2222 5.01072 44.5446C0.013808 44.9476 3.31822 42.3685 9.20168 41.3208C15.0851 40.2731 20.5656 34.1478 21.4522 32.4553C22.3387 30.7628 44.1801 25.4435 57.8007 26.0883C57.8007 26.0883 37.7324 27.0554 22.7417 33.5031C22.7417 33.5031 22.2581 35.5985 28.6252 33.5031C29.1893 33.3419 29.7535 33.1001 30.4789 32.8583C30.7206 32.7777 30.9624 32.6971 31.2042 32.6165C31.9296 32.3747 32.7355 32.0523 33.6221 31.8106C34.1862 31.6494 34.831 31.4882 35.4758 31.327C35.7176 31.2464 35.9593 31.1658 36.2011 31.1658C36.4429 31.0852 36.6847 31.0852 36.9265 31.0046C37.1683 30.924 37.4101 30.924 37.7324 30.8434C37.9742 30.7628 38.216 30.7628 38.5384 30.6822C38.8608 30.6016 39.1832 30.6016 39.5055 30.521C39.8279 30.4404 40.1503 30.4404 40.5533 30.4404C40.7145 30.4404 40.9563 30.4404 41.1174 30.3598C41.3592 30.3598 41.601 30.3598 41.8428 30.2792C41.9234 30.2792 41.9234 30.2792 42.004 30.2792H44.0995C44.4219 30.2792 44.8248 30.2792 45.1472 30.3598C45.389 30.3598 45.6308 30.4404 45.8726 30.4404C46.0338 30.4404 46.195 30.4404 46.4367 30.521C46.6785 30.521 46.9203 30.6016 47.1621 30.6822C47.2427 30.6822 47.3233 30.6822 47.4039 30.7628C47.6457 30.7628 47.8069 30.8434 48.0486 30.924C48.2904 31.0046 48.5322 31.0046 48.774 31.0852C49.0158 31.1658 49.2576 31.2464 49.4994 31.2464C49.7411 31.327 49.9829 31.4076 50.2247 31.4882C50.7083 31.6494 51.1919 31.8106 51.6754 32.0523C51.9172 32.1329 52.159 32.2941 52.4008 32.3747C52.965 32.6165 53.4485 32.9389 54.0127 33.2613C54.1739 33.3419 54.4157 33.5031 54.5769 33.5837C54.6575 33.6642 54.8187 33.7448 54.8993 33.8254C54.9799 33.906 55.141 33.9866 55.2216 34.0672C55.3022 34.1478 55.3828 34.2284 55.544 34.2284C55.7052 34.309 55.8664 34.4702 56.0276 34.5508C56.1888 34.6314 56.35 34.7926 56.5112 34.9538C56.5918 34.9538 56.5918 35.0344 56.6724 35.0344C56.8335 35.115 56.9141 35.1956 56.9947 35.3568C57.1559 35.5179 57.3977 35.6791 57.5589 35.8403C57.7201 36.0015 57.8813 36.1627 58.1231 36.3239C58.2843 36.4851 58.526 36.6463 58.6872 36.8881C58.7678 36.9687 58.7678 36.9687 58.8484 37.0493C59.0902 37.291 59.332 37.5328 59.5738 37.7746C59.9768 38.1776 60.3797 38.6612 60.7827 39.1447C60.9439 39.3059 61.1051 39.5477 61.2663 39.7089C61.8305 40.4343 62.3946 41.2402 62.9588 42.0462C63.2006 42.3685 63.3618 42.6909 63.6036 43.0939C64.0871 43.8999 64.5707 44.7058 65.0543 45.5924C65.1349 45.673 65.1349 45.8341 65.2155 45.9147C64.9737 45.8341 64.9737 45.7536 64.8931 45.673ZM63.2812 33.5837C61.6693 31.6494 84.236 31.4076 84.236 31.4076C84.236 31.4076 86.7344 33.8254 85.9285 36.0821C85.1225 38.3388 73.3556 38.0164 69.9706 37.6134C66.6662 37.2104 63.2812 33.5837 63.2812 33.5837ZM175.067 62.6786L69.8094 64.8547C65.6184 63.1622 81.6569 62.2756 81.6569 62.2756C81.6569 62.2756 154.032 59.6966 160.64 59.6966C167.249 59.6966 169.989 60.3413 173.777 60.9861C177.646 61.7114 175.067 62.6786 175.067 62.6786ZM177.888 46.3983C160.963 35.8403 168.942 31.9717 168.942 31.9717C164.993 31.327 92.3761 33.4225 88.1045 33.5837C92.2955 33.3419 159.673 30.1181 171.682 30.1986C184.013 30.2792 184.416 34.4702 184.416 34.4702C195.296 28.9897 200.535 30.3598 200.535 30.3598C183.771 31.0046 177.888 46.3983 177.888 46.3983ZM231.322 44.464C229.711 46.3983 227.051 47.3655 227.051 47.0431C226.567 40.7566 221.973 36.2433 221.973 36.2433C230.033 38.3388 245.588 31.73 245.588 31.73C247.2 34.0672 246.555 37.694 246.555 37.694C237.367 38.2582 232.934 42.6103 231.322 44.464Z" fill="#22C55E"/>
<path d="M153.08 18.3591C146.52 18.9152 125.783 20.6319 122.196 20.3659C122.196 20.3659 122.277 16.6585 119.859 16.9003C119.859 16.9003 121.874 19.2376 119.778 20.7689C119.778 20.8495 131.892 21.8408 153.226 18.488C153.177 18.4477 153.129 18.3994 153.08 18.3591Z" fill="#22C55E"/>
<path d="M84.3971 34.3089C84.3971 34.0027 84.2198 33.7447 83.9538 33.64C83.8651 33.5997 83.7684 33.5836 83.6717 33.5836H66.9885C66.8918 33.5836 66.795 33.6077 66.7064 33.64C66.4485 33.7528 66.2631 34.0027 66.2631 34.3089C66.2631 34.5104 66.3437 34.6877 66.4727 34.8247C66.6016 34.9537 66.787 35.0343 66.9885 35.0343H83.6717C84.0747 35.0343 84.3971 34.7119 84.3971 34.3089Z" fill="#22C55E"/>
<path d="M2.02861 60.2606C2.02861 60.2606 3.9629 60.4218 4.04349 62.5173L17.0999 64.8546C17.0999 64.774 -6.91748 64.2098 2.02861 60.2606Z" fill="#22C55E"/>
<path d="M65.699 47.043C65.6184 46.9624 65.5378 46.8012 65.5378 46.7206C65.5378 46.8818 65.6184 46.9624 65.699 47.043Z" fill="#22C55E"/>
<path d="M84.3971 34.3089C84.3971 34.7119 84.0747 35.0343 83.6717 35.0343H66.9885C66.5855 35.0343 66.2631 34.7119 66.2631 34.3089C66.2631 33.9059 66.5855 33.5836 66.9885 33.5836H83.6717C84.0747 33.5836 84.3971 33.9059 84.3971 34.3089Z" fill="#22C55E"/>
<path d="M84.3971 34.3089C84.3971 34.7119 84.0747 35.0343 83.6717 35.0343H66.9885C66.5855 35.0343 66.2631 34.7119 66.2631 34.3089C66.2631 33.9059 66.5855 33.5836 66.9885 33.5836H83.6717C84.0747 33.5836 84.3971 33.9059 84.3971 34.3089Z" fill="#22C55E"/>
<path d="M118.94 12.6368C118.892 11.8711 118.956 11.1135 119.053 10.3559C118.956 10.2834 118.876 10.2028 118.787 10.1222C105.376 15.2561 92.779 22.3807 92.779 22.3807C93.8267 22.2196 102.45 22.5419 105.997 21.4136C106.964 21.0912 107.528 20.6076 107.447 20.0435C106.803 17.2226 108.334 15.9331 108.334 15.9331C108.334 15.9331 113.411 12.7093 116.313 14.4018C116.313 14.4018 117.232 13.7812 118.981 12.9108C118.964 12.8141 118.948 12.7335 118.94 12.6368Z" fill="#22C55E"/>
<path d="M164.928 6.07635C164.227 7.36588 163.526 8.65541 162.824 9.94493C162.695 10.2351 162.558 10.5172 162.43 10.8073C162.292 11.1055 162.123 11.3634 161.938 11.5891C161.495 12.4112 161.059 13.2332 160.632 14.0634C160.1 15.1836 159.552 16.2878 158.956 17.3758C158.698 17.8433 158.4 18.214 158.069 18.5122C165.798 17.9319 171.899 17.4242 173.382 17.0534C178.218 15.9251 181.523 17.2952 184.505 12.2177C186.116 9.30823 176.534 7.24499 164.928 6.07635ZM173.777 14.3213C172.246 15.8526 166.524 16.4973 166.524 16.4973C166.524 16.4973 165.395 14.6436 168.136 10.8557C168.297 10.6139 173.777 12.4676 173.777 12.4676C173.777 12.4676 175.309 12.7899 173.777 14.3213Z" fill="#22C55E"/>
<path d="M118.94 12.6368C118.892 11.8711 118.956 11.1135 119.053 10.3559C118.956 10.2834 118.876 10.2028 118.787 10.1222C105.376 15.2561 92.779 22.3807 92.779 22.3807C93.8267 22.2196 102.45 22.5419 105.997 21.4136C106.964 21.0912 107.528 20.6076 107.447 20.0435C106.803 17.2226 108.334 15.9331 108.334 15.9331C108.334 15.9331 113.411 12.7093 116.313 14.4018C116.313 14.4018 117.232 13.7812 118.981 12.9108C118.964 12.8141 118.948 12.7335 118.94 12.6368Z" fill="#22C55E"/>
<path d="M164.944 6.04413C164.243 7.34171 163.534 8.64736 162.824 9.94494C162.695 10.2351 162.558 10.5172 162.43 10.8073C162.292 11.1055 162.123 11.3634 161.938 11.5891C161.495 12.4112 161.059 13.2332 160.632 14.0634C160.1 15.1836 159.552 16.2878 158.956 17.3758C158.698 17.8433 158.4 18.206 158.077 18.5042C165.766 17.9239 171.827 17.4242 173.302 17.0535C178.138 15.9251 181.442 17.2952 184.424 12.2177C186.076 9.30824 176.534 7.22082 164.944 6.04413ZM173.777 14.3213C172.246 15.8526 166.524 16.4973 166.524 16.4973C166.524 16.4973 165.395 14.6437 168.136 10.8557C168.297 10.6139 173.777 12.4676 173.777 12.4676C173.777 12.4676 175.309 12.79 173.777 14.3213Z" fill="#22C55E"/>
<path d="M116.313 14.7242C116.313 14.7242 118.328 17.3839 117.28 20.2047C116.232 23.0255 108.173 21.6554 108.173 20.8495C108.173 19.9629 106.561 17.3033 110.107 15.6914C113.653 13.9989 116.313 14.7242 116.313 14.7242Z" fill="#22C55E"/>
<path d="M53.932 45.9146C53.932 47.2042 52.9649 50.428 44.6636 55.1025C44.8247 55.4249 44.9859 55.7473 44.9859 56.1503C54.2544 55.3443 56.9947 57.5204 57.8006 58.6487C57.8812 57.9233 57.9618 57.1174 57.9618 56.392C57.9618 52.2817 56.4305 48.6549 53.932 45.9146ZM40.4726 55.4249C31.1235 51.2339 30.4788 47.9295 30.5594 46.8818C28.5445 49.4608 27.3356 52.7652 27.3356 56.3114C27.3356 57.6816 27.4967 58.8905 27.8191 60.18C28.5445 58.9711 31.0429 56.6338 40.3114 56.5532C40.3114 56.4726 40.3114 56.392 40.3114 56.3114C40.3114 55.9891 40.392 55.6667 40.4726 55.4249ZM41.9233 58.4875C41.6009 58.4069 41.2786 58.1651 41.0368 57.9233C34.1862 64.371 30.64 64.2904 29.3504 63.8874C31.6071 67.8366 35.5563 70.6574 40.2308 71.3828C39.4249 70.335 38.2965 67.1112 41.9233 58.4875ZM42.6487 40.9983C40.1502 40.9983 37.8935 41.5625 35.7981 42.6102C37.0876 43.0938 39.9084 45.1087 41.9233 54.1354C42.1651 54.0548 42.4069 53.9742 42.6487 53.9742C42.8099 53.9742 42.8905 53.9742 43.0517 53.9742C45.2277 43.8998 48.3709 42.6102 49.3381 42.449C47.3232 41.4819 45.0665 40.9983 42.6487 40.9983ZM44.4218 57.7622C44.18 58.0039 43.9382 58.2457 43.5352 58.4069C47.968 66.2247 47.4038 69.6903 46.6784 71.0604C51.1918 69.8515 54.8186 66.6276 56.6723 62.3561C55.7051 62.9203 52.3201 63.6456 44.4218 57.7622ZM53.932 45.9146C53.932 47.2042 52.9649 50.428 44.6636 55.1025C44.8247 55.4249 44.9859 55.7473 44.9859 56.1503C54.2544 55.3443 56.9947 57.5204 57.8006 58.6487C57.8812 57.9233 57.9618 57.1174 57.9618 56.392C57.9618 52.2817 56.4305 48.6549 53.932 45.9146ZM44.4218 57.7622C44.18 58.0039 43.9382 58.2457 43.5352 58.4069C47.968 66.2247 47.4038 69.6903 46.6784 71.0604C51.1918 69.8515 54.8186 66.6276 56.6723 62.3561C55.7051 62.9203 52.3201 63.6456 44.4218 57.7622ZM42.6487 40.9983C40.1502 40.9983 37.8935 41.5625 35.7981 42.6102C37.0876 43.0938 39.9084 45.1087 41.9233 54.1354C42.1651 54.0548 42.4069 53.9742 42.6487 53.9742C42.8099 53.9742 42.8905 53.9742 43.0517 53.9742C45.2277 43.8998 48.3709 42.6102 49.3381 42.449C47.3232 41.4819 45.0665 40.9983 42.6487 40.9983ZM41.9233 58.4875C41.6009 58.4069 41.2786 58.1651 41.0368 57.9233C34.1862 64.371 30.64 64.2904 29.3504 63.8874C31.6071 67.8366 35.5563 70.6574 40.2308 71.3828C39.4249 70.335 38.2965 67.1112 41.9233 58.4875ZM40.4726 55.4249C31.1235 51.2339 30.4788 47.9295 30.5594 46.8818C28.5445 49.4608 27.3356 52.7652 27.3356 56.3114C27.3356 57.6816 27.4967 58.8905 27.8191 60.18C28.5445 58.9711 31.0429 56.6338 40.3114 56.5532C40.3114 56.4726 40.3114 56.392 40.3114 56.3114C40.3114 55.9891 40.392 55.6667 40.4726 55.4249ZM53.932 45.9146C53.932 47.2042 52.9649 50.428 44.6636 55.1025C44.8247 55.4249 44.9859 55.7473 44.9859 56.1503C54.2544 55.3443 56.9947 57.5204 57.8006 58.6487C57.8812 57.9233 57.9618 57.1174 57.9618 56.392C57.9618 52.2817 56.4305 48.6549 53.932 45.9146ZM40.4726 55.4249C31.1235 51.2339 30.4788 47.9295 30.5594 46.8818C28.5445 49.4608 27.3356 52.7652 27.3356 56.3114C27.3356 57.6816 27.4967 58.8905 27.8191 60.18C28.5445 58.9711 31.0429 56.6338 40.3114 56.5532C40.3114 56.4726 40.3114 56.392 40.3114 56.3114C40.3114 55.9891 40.392 55.6667 40.4726 55.4249ZM41.9233 58.4875C41.6009 58.4069 41.2786 58.1651 41.0368 57.9233C34.1862 64.371 30.64 64.2904 29.3504 63.8874C31.6071 67.8366 35.5563 70.6574 40.2308 71.3828C39.4249 70.335 38.2965 67.1112 41.9233 58.4875ZM42.6487 40.9983C40.1502 40.9983 37.8935 41.5625 35.7981 42.6102C37.0876 43.0938 39.9084 45.1087 41.9233 54.1354C42.1651 54.0548 42.4069 53.9742 42.6487 53.9742C42.8099 53.9742 42.8905 53.9742 43.0517 53.9742C45.2277 43.8998 48.3709 42.6102 49.3381 42.449C47.3232 41.4819 45.0665 40.9983 42.6487 40.9983ZM44.4218 57.7622C44.18 58.0039 43.9382 58.2457 43.5352 58.4069C47.968 66.2247 47.4038 69.6903 46.6784 71.0604C51.1918 69.8515 54.8186 66.6276 56.6723 62.3561C55.7051 62.9203 52.3201 63.6456 44.4218 57.7622ZM53.932 45.9146C53.932 47.2042 52.9649 50.428 44.6636 55.1025C44.8247 55.4249 44.9859 55.7473 44.9859 56.1503C54.2544 55.3443 56.9947 57.5204 57.8006 58.6487C57.8812 57.9233 57.9618 57.1174 57.9618 56.392C57.9618 52.2817 56.4305 48.6549 53.932 45.9146ZM44.4218 57.7622C44.18 58.0039 43.9382 58.2457 43.5352 58.4069C47.968 66.2247 47.4038 69.6903 46.6784 71.0604C51.1918 69.8515 54.8186 66.6276 56.6723 62.3561C55.7051 62.9203 52.3201 63.6456 44.4218 57.7622ZM42.6487 40.9983C40.1502 40.9983 37.8935 41.5625 35.7981 42.6102C37.0876 43.0938 39.9084 45.1087 41.9233 54.1354C42.1651 54.0548 42.4069 53.9742 42.6487 53.9742C42.8099 53.9742 42.8905 53.9742 43.0517 53.9742C45.2277 43.8998 48.3709 42.6102 49.3381 42.449C47.3232 41.4819 45.0665 40.9983 42.6487 40.9983ZM41.9233 58.4875C41.6009 58.4069 41.2786 58.1651 41.0368 57.9233C34.1862 64.371 30.64 64.2904 29.3504 63.8874C31.6071 67.8366 35.5563 70.6574 40.2308 71.3828C39.4249 70.335 38.2965 67.1112 41.9233 58.4875ZM40.4726 55.4249C31.1235 51.2339 30.4788 47.9295 30.5594 46.8818C28.5445 49.4608 27.3356 52.7652 27.3356 56.3114C27.3356 57.6816 27.4967 58.8905 27.8191 60.18C28.5445 58.9711 31.0429 56.6338 40.3114 56.5532C40.3114 56.4726 40.3114 56.392 40.3114 56.3114C40.3114 55.9891 40.392 55.6667 40.4726 55.4249ZM53.932 45.9146C53.932 47.2042 52.9649 50.428 44.6636 55.1025C44.8247 55.4249 44.9859 55.7473 44.9859 56.1503C54.2544 55.3443 56.9947 57.5204 57.8006 58.6487C57.8812 57.9233 57.9618 57.1174 57.9618 56.392C57.9618 52.2817 56.4305 48.6549 53.932 45.9146ZM40.4726 55.4249C31.1235 51.2339 30.4788 47.9295 30.5594 46.8818C28.5445 49.4608 27.3356 52.7652 27.3356 56.3114C27.3356 57.6816 27.4967 58.8905 27.8191 60.18C28.5445 58.9711 31.0429 56.6338 40.3114 56.5532C40.3114 56.4726 40.3114 56.392 40.3114 56.3114C40.3114 55.9891 40.392 55.6667 40.4726 55.4249ZM41.9233 58.4875C41.6009 58.4069 41.2786 58.1651 41.0368 57.9233C34.1862 64.371 30.64 64.2904 29.3504 63.8874C31.6071 67.8366 35.5563 70.6574 40.2308 71.3828C39.4249 70.335 38.2965 67.1112 41.9233 58.4875ZM42.6487 40.9983C40.1502 40.9983 37.8935 41.5625 35.7981 42.6102C37.0876 43.0938 39.9084 45.1087 41.9233 54.1354C42.1651 54.0548 42.4069 53.9742 42.6487 53.9742C42.8099 53.9742 42.8905 53.9742 43.0517 53.9742C45.2277 43.8998 48.3709 42.6102 49.3381 42.449C47.3232 41.4819 45.0665 40.9983 42.6487 40.9983ZM44.4218 57.7622C44.18 58.0039 43.9382 58.2457 43.5352 58.4069C47.968 66.2247 47.4038 69.6903 46.6784 71.0604C51.1918 69.8515 54.8186 66.6276 56.6723 62.3561C55.7051 62.9203 52.3201 63.6456 44.4218 57.7622ZM53.932 45.9146C53.932 47.2042 52.9649 50.428 44.6636 55.1025C44.8247 55.4249 44.9859 55.7473 44.9859 56.1503C54.2544 55.3443 56.9947 57.5204 57.8006 58.6487C57.8812 57.9233 57.9618 57.1174 57.9618 56.392C57.9618 52.2817 56.4305 48.6549 53.932 45.9146ZM44.4218 57.7622C44.18 58.0039 43.9382 58.2457 43.5352 58.4069C47.968 66.2247 47.4038 69.6903 46.6784 71.0604C51.1918 69.8515 54.8186 66.6276 56.6723 62.3561C55.7051 62.9203 52.3201 63.6456 44.4218 57.7622ZM42.6487 40.9983C40.1502 40.9983 37.8935 41.5625 35.7981 42.6102C37.0876 43.0938 39.9084 45.1087 41.9233 54.1354C42.1651 54.0548 42.4069 53.9742 42.6487 53.9742C42.8099 53.9742 42.8905 53.9742 43.0517 53.9742C45.2277 43.8998 48.3709 42.6102 49.3381 42.449C47.3232 41.4819 45.0665 40.9983 42.6487 40.9983ZM41.9233 58.4875C41.6009 58.4069 41.2786 58.1651 41.0368 57.9233C34.1862 64.371 30.64 64.2904 29.3504 63.8874C31.6071 67.8366 35.5563 70.6574 40.2308 71.3828C39.4249 70.335 38.2965 67.1112 41.9233 58.4875ZM40.4726 55.4249C31.1235 51.2339 30.4788 47.9295 30.5594 46.8818C28.5445 49.4608 27.3356 52.7652 27.3356 56.3114C27.3356 57.6816 27.4967 58.8905 27.8191 60.18C28.5445 58.9711 31.0429 56.6338 40.3114 56.5532C40.3114 56.4726 40.3114 56.392 40.3114 56.3114C40.3114 55.9891 40.392 55.6667 40.4726 55.4249ZM53.932 45.9146C53.932 47.2042 52.9649 50.428 44.6636 55.1025C44.8247 55.4249 44.9859 55.7473 44.9859 56.1503C54.2544 55.3443 56.9947 57.5204 57.8006 58.6487C57.8812 57.9233 57.9618 57.1174 57.9618 56.392C57.9618 52.2817 56.4305 48.6549 53.932 45.9146ZM40.4726 55.4249C31.1235 51.2339 30.4788 47.9295 30.5594 46.8818C28.5445 49.4608 27.3356 52.7652 27.3356 56.3114C27.3356 57.6816 27.4967 58.8905 27.8191 60.18C28.5445 58.9711 31.0429 56.6338 40.3114 56.5532C40.3114 56.4726 40.3114 56.392 40.3114 56.3114C40.3114 55.9891 40.392 55.6667 40.4726 55.4249ZM41.9233 58.4875C41.6009 58.4069 41.2786 58.1651 41.0368 57.9233C34.1862 64.371 30.64 64.2904 29.3504 63.8874C31.6071 67.8366 35.5563 70.6574 40.2308 71.3828C39.4249 70.335 38.2965 67.1112 41.9233 58.4875ZM42.6487 40.9983C40.1502 40.9983 37.8935 41.5625 35.7981 42.6102C37.0876 43.0938 39.9084 45.1087 41.9233 54.1354C42.1651 54.0548 42.4069 53.9742 42.6487 53.9742C42.8099 53.9742 42.8905 53.9742 43.0517 53.9742C45.2277 43.8998 48.3709 42.6102 49.3381 42.449C47.3232 41.4819 45.0665 40.9983 42.6487 40.9983ZM44.4218 57.7622C44.18 58.0039 43.9382 58.2457 43.5352 58.4069C47.968 66.2247 47.4038 69.6903 46.6784 71.0604C51.1918 69.8515 54.8186 66.6276 56.6723 62.3561C55.7051 62.9203 52.3201 63.6456 44.4218 57.7622ZM53.932 45.9146C53.932 47.2042 52.9649 50.428 44.6636 55.1025C44.8247 55.4249 44.9859 55.7473 44.9859 56.1503C54.2544 55.3443 56.9947 57.5204 57.8006 58.6487C57.8812 57.9233 57.9618 57.1174 57.9618 56.392C57.9618 52.2817 56.4305 48.6549 53.932 45.9146ZM44.4218 57.7622C44.18 58.0039 43.9382 58.2457 43.5352 58.4069C47.968 66.2247 47.4038 69.6903 46.6784 71.0604C51.1918 69.8515 54.8186 66.6276 56.6723 62.3561C55.7051 62.9203 52.3201 63.6456 44.4218 57.7622ZM42.6487 40.9983C40.1502 40.9983 37.8935 41.5625 35.7981 42.6102C37.0876 43.0938 39.9084 45.1087 41.9233 54.1354C42.1651 54.0548 42.4069 53.9742 42.6487 53.9742C42.8099 53.9742 42.8905 53.9742 43.0517 53.9742C45.2277 43.8998 48.3709 42.6102 49.3381 42.449C47.3232 41.4819 45.0665 40.9983 42.6487 40.9983ZM41.9233 58.4875C41.6009 58.4069 41.2786 58.1651 41.0368 57.9233C34.1862 64.371 30.64 64.2904 29.3504 63.8874C31.6071 67.8366 35.5563 70.6574 40.2308 71.3828C39.4249 70.335 38.2965 67.1112 41.9233 58.4875ZM40.4726 55.4249C31.1235 51.2339 30.4788 47.9295 30.5594 46.8818C28.5445 49.4608 27.3356 52.7652 27.3356 56.3114C27.3356 57.6816 27.4967 58.8905 27.8191 60.18C28.5445 58.9711 31.0429 56.6338 40.3114 56.5532C40.3114 56.4726 40.3114 56.392 40.3114 56.3114C40.3114 55.9891 40.392 55.6667 40.4726 55.4249ZM53.932 45.9146C53.932 47.2042 52.9649 50.428 44.6636 55.1025C44.8247 55.4249 44.9859 55.7473 44.9859 56.1503C54.2544 55.3443 56.9947 57.5204 57.8006 58.6487C57.8812 57.9233 57.9618 57.1174 57.9618 56.392C57.9618 52.2817 56.4305 48.6549 53.932 45.9146ZM40.4726 55.4249C31.1235 51.2339 30.4788 47.9295 30.5594 46.8818C28.5445 49.4608 27.3356 52.7652 27.3356 56.3114C27.3356 57.6816 27.4967 58.8905 27.8191 60.18C28.5445 58.9711 31.0429 56.6338 40.3114 56.5532C40.3114 56.4726 40.3114 56.392 40.3114 56.3114C40.3114 55.9891 40.392 55.6667 40.4726 55.4249ZM41.9233 58.4875C41.6009 58.4069 41.2786 58.1651 41.0368 57.9233C34.1862 64.371 30.64 64.2904 29.3504 63.8874C31.6071 67.8366 35.5563 70.6574 40.2308 71.3828C39.4249 70.335 38.2965 67.1112 41.9233 58.4875ZM42.6487 40.9983C40.1502 40.9983 37.8935 41.5625 35.7981 42.6102C37.0876 43.0938 39.9084 45.1087 41.9233 54.1354C42.1651 54.0548 42.4069 53.9742 42.6487 53.9742C42.8099 53.9742 42.8905 53.9742 43.0517 53.9742C45.2277 43.8998 48.3709 42.6102 49.3381 42.449C47.3232 41.4819 45.0665 40.9983 42.6487 40.9983ZM44.4218 57.7622C44.18 58.0039 43.9382 58.2457 43.5352 58.4069C47.968 66.2247 47.4038 69.6903 46.6784 71.0604C51.1918 69.8515 54.8186 66.6276 56.6723 62.3561C55.7051 62.9203 52.3201 63.6456 44.4218 57.7622ZM53.932 45.9146C53.932 47.2042 52.9649 50.428 44.6636 55.1025C44.8247 55.4249 44.9859 55.7473 44.9859 56.1503C54.2544 55.3443 56.9947 57.5204 57.8006 58.6487C57.8812 57.9233 57.9618 57.1174 57.9618 56.392C57.9618 52.2817 56.4305 48.6549 53.932 45.9146ZM44.4218 57.7622C44.18 58.0039 43.9382 58.2457 43.5352 58.4069C47.968 66.2247 47.4038 69.6903 46.6784 71.0604C51.1918 69.8515 54.8186 66.6276 56.6723 62.3561C55.7051 62.9203 52.3201 63.6456 44.4218 57.7622ZM42.6487 40.9983C40.1502 40.9983 37.8935 41.5625 35.7981 42.6102C37.0876 43.0938 39.9084 45.1087 41.9233 54.1354C42.1651 54.0548 42.4069 53.9742 42.6487 53.9742C42.8099 53.9742 42.8905 53.9742 43.0517 53.9742C45.2277 43.8998 48.3709 42.6102 49.3381 42.449C47.3232 41.4819 45.0665 40.9983 42.6487 40.9983ZM41.9233 58.4875C41.6009 58.4069 41.2786 58.1651 41.0368 57.9233C34.1862 64.371 30.64 64.2904 29.3504 63.8874C31.6071 67.8366 35.5563 70.6574 40.2308 71.3828C39.4249 70.335 38.2965 67.1112 41.9233 58.4875ZM40.4726 55.4249C31.1235 51.2339 30.4788 47.9295 30.5594 46.8818C28.5445 49.4608 27.3356 52.7652 27.3356 56.3114C27.3356 57.6816 27.4967 58.8905 27.8191 60.18C28.5445 58.9711 31.0429 56.6338 40.3114 56.5532C40.3114 56.4726 40.3114 56.392 40.3114 56.3114C40.3114 55.9891 40.392 55.6667 40.4726 55.4249ZM53.932 45.9146C53.932 47.2042 52.9649 50.428 44.6636 55.1025C44.8247 55.4249 44.9859 55.7473 44.9859 56.1503C54.2544 55.3443 56.9947 57.5204 57.8006 58.6487C57.8812 57.9233 57.9618 57.1174 57.9618 56.392C57.9618 52.2817 56.4305 48.6549 53.932 45.9146ZM40.4726 55.4249C31.1235 51.2339 30.4788 47.9295 30.5594 46.8818C28.5445 49.4608 27.3356 52.7652 27.3356 56.3114C27.3356 57.6816 27.4967 58.8905 27.8191 60.18C28.5445 58.9711 31.0429 56.6338 40.3114 56.5532C40.3114 56.4726 40.3114 56.392 40.3114 56.3114C40.3114 55.9891 40.392 55.6667 40.4726 55.4249ZM41.9233 58.4875C41.6009 58.4069 41.2786 58.1651 41.0368 57.9233C34.1862 64.371 30.64 64.2904 29.3504 63.8874C31.6071 67.8366 35.5563 70.6574 40.2308 71.3828C39.4249 70.335 38.2965 67.1112 41.9233 58.4875ZM42.6487 40.9983C40.1502 40.9983 37.8935 41.5625 35.7981 42.6102C37.0876 43.0938 39.9084 45.1087 41.9233 54.1354C42.1651 54.0548 42.4069 53.9742 42.6487 53.9742C42.8099 53.9742 42.8905 53.9742 43.0517 53.9742C45.2277 43.8998 48.3709 42.6102 49.3381 42.449C47.3232 41.4819 45.0665 40.9983 42.6487 40.9983ZM44.4218 57.7622C44.18 58.0039 43.9382 58.2457 43.5352 58.4069C47.968 66.2247 47.4038 69.6903 46.6784 71.0604C51.1918 69.8515 54.8186 66.6276 56.6723 62.3561C55.7051 62.9203 52.3201 63.6456 44.4218 57.7622ZM53.932 45.9146C53.932 47.2042 52.9649 50.428 44.6636 55.1025C44.8247 55.4249 44.9859 55.7473 44.9859 56.1503C54.2544 55.3443 56.9947 57.5204 57.8006 58.6487C57.8812 57.9233 57.9618 57.1174 57.9618 56.392C57.9618 52.2817 56.4305 48.6549 53.932 45.9146ZM44.4218 57.7622C44.18 58.0039 43.9382 58.2457 43.5352 58.4069C47.968 66.2247 47.4038 69.6903 46.6784 71.0604C51.1918 69.8515 54.8186 66.6276 56.6723 62.3561C55.7051 62.9203 52.3201 63.6456 44.4218 57.7622ZM49.3381 42.5296C47.3232 41.5625 45.0665 40.9983 42.6487 40.9983C40.1502 40.9983 37.8935 41.5625 35.7981 42.6102C37.0876 43.0938 39.9084 45.1087 41.9233 54.1354C42.1651 54.0548 42.4069 53.9742 42.6487 53.9742C42.8099 53.9742 42.8905 53.9742 43.0517 53.9742C45.1471 43.8998 48.2904 42.6102 49.3381 42.5296ZM40.9562 57.9233C34.1056 64.371 30.5594 64.2904 29.2698 63.8874C31.5265 67.8366 35.4757 70.6574 40.1502 71.3828C39.3443 70.335 38.2159 67.1112 41.8427 58.4875C41.6009 58.4069 41.2786 58.1651 40.9562 57.9233ZM40.3114 56.3114C40.3114 55.9891 40.392 55.7473 40.4726 55.4249C31.1235 51.2339 30.4788 47.9295 30.5594 46.8818C28.5445 49.4608 27.3356 52.7652 27.3356 56.3114C27.3356 57.6816 27.4967 58.8905 27.8191 60.18C28.5445 58.9711 31.0429 56.6338 40.3114 56.5532C40.3114 56.4726 40.3114 56.392 40.3114 56.3114ZM53.932 45.9146C53.932 47.2042 52.9649 50.428 44.6636 55.1025C44.8247 55.4249 44.9859 55.7473 44.9859 56.1503C54.2544 55.3443 56.9947 57.5204 57.8006 58.6487C57.8812 57.9233 57.9618 57.1174 57.9618 56.392C57.9618 52.2817 56.4305 48.6549 53.932 45.9146ZM42.6487 36.1626C31.5265 36.1626 22.5804 45.1893 22.5804 56.2308C22.5804 67.353 31.6071 76.2991 42.6487 76.2991C53.7708 76.2991 62.7169 67.2724 62.7169 56.2308C62.7169 45.1893 53.7708 36.1626 42.6487 36.1626ZM42.6487 72.5111C33.7026 72.5111 26.3684 65.2575 26.3684 56.2308C26.3684 47.2042 33.622 39.9506 42.6487 39.9506C51.5948 39.9506 58.9289 47.2042 58.9289 56.2308C58.8483 65.2575 51.5948 72.5111 42.6487 72.5111ZM44.4218 57.7622C44.18 58.0039 43.9382 58.2457 43.5352 58.4069C47.968 66.2247 47.4038 69.6903 46.6784 71.0604C51.1918 69.8515 54.8186 66.6276 56.6723 62.3561C55.7051 62.9203 52.3201 63.6456 44.4218 57.7622ZM49.3381 42.5296C47.3232 41.5625 45.0665 40.9983 42.6487 40.9983C40.1502 40.9983 37.8935 41.5625 35.7981 42.6102C37.0876 43.0938 39.9084 45.1087 41.9233 54.1354C42.1651 54.0548 42.4069 53.9742 42.6487 53.9742C42.8099 53.9742 42.8905 53.9742 43.0517 53.9742C45.1471 43.8998 48.2904 42.6102 49.3381 42.5296ZM40.9562 57.9233C34.1056 64.371 30.5594 64.2904 29.2698 63.8874C31.5265 67.8366 35.4757 70.6574 40.1502 71.3828C39.3443 70.335 38.2159 67.1112 41.8427 58.4875C41.6009 58.4069 41.2786 58.1651 40.9562 57.9233ZM40.3114 56.3114C40.3114 55.9891 40.392 55.7473 40.4726 55.4249C31.1235 51.2339 30.4788 47.9295 30.5594 46.8818C28.5445 49.4608 27.3356 52.7652 27.3356 56.3114C27.3356 57.6816 27.4967 58.8905 27.8191 60.18C28.5445 58.9711 31.0429 56.6338 40.3114 56.5532C40.3114 56.4726 40.3114 56.392 40.3114 56.3114ZM53.932 45.9146C53.932 47.2042 52.9649 50.428 44.6636 55.1025C44.8247 55.4249 44.9859 55.7473 44.9859 56.1503C54.2544 55.3443 56.9947 57.5204 57.8006 58.6487C57.8812 57.9233 57.9618 57.1174 57.9618 56.392C57.9618 52.2817 56.4305 48.6549 53.932 45.9146ZM40.4726 55.4249C31.1235 51.2339 30.4788 47.9295 30.5594 46.8818C28.5445 49.4608 27.3356 52.7652 27.3356 56.3114C27.3356 57.6816 27.4967 58.8905 27.8191 60.18C28.5445 58.9711 31.0429 56.6338 40.3114 56.5532C40.3114 56.4726 40.3114 56.392 40.3114 56.3114C40.3114 55.9891 40.392 55.6667 40.4726 55.4249ZM41.9233 58.4875C41.6009 58.4069 41.2786 58.1651 41.0368 57.9233C34.1862 64.371 30.64 64.2904 29.3504 63.8874C31.6071 67.8366 35.5563 70.6574 40.2308 71.3828C39.4249 70.335 38.2965 67.1112 41.9233 58.4875ZM42.6487 40.9983C40.1502 40.9983 37.8935 41.5625 35.7981 42.6102C37.0876 43.0938 39.9084 45.1087 41.9233 54.1354C42.1651 54.0548 42.4069 53.9742 42.6487 53.9742C42.8099 53.9742 42.8905 53.9742 43.0517 53.9742C45.2277 43.8998 48.3709 42.6102 49.3381 42.449C47.3232 41.4819 45.0665 40.9983 42.6487 40.9983ZM44.4218 57.7622C44.18 58.0039 43.9382 58.2457 43.5352 58.4069C47.968 66.2247 47.4038 69.6903 46.6784 71.0604C51.1918 69.8515 54.8186 66.6276 56.6723 62.3561C55.7051 62.9203 52.3201 63.6456 44.4218 57.7622ZM53.932 45.9146C53.932 47.2042 52.9649 50.428 44.6636 55.1025C44.8247 55.4249 44.9859 55.7473 44.9859 56.1503C54.2544 55.3443 56.9947 57.5204 57.8006 58.6487C57.8812 57.9233 57.9618 57.1174 57.9618 56.392C57.9618 52.2817 56.4305 48.6549 53.932 45.9146ZM44.4218 57.7622C44.18 58.0039 43.9382 58.2457 43.5352 58.4069C47.968 66.2247 47.4038 69.6903 46.6784 71.0604C51.1918 69.8515 54.8186 66.6276 56.6723 62.3561C55.7051 62.9203 52.3201 63.6456 44.4218 57.7622ZM42.6487 40.9983C40.1502 40.9983 37.8935 41.5625 35.7981 42.6102C37.0876 43.0938 39.9084 45.1087 41.9233 54.1354C42.1651 54.0548 42.4069 53.9742 42.6487 53.9742C42.8099 53.9742 42.8905 53.9742 43.0517 53.9742C45.2277 43.8998 48.3709 42.6102 49.3381 42.449C47.3232 41.4819 45.0665 40.9983 42.6487 40.9983ZM41.9233 58.4875C41.6009 58.4069 41.2786 58.1651 41.0368 57.9233C34.1862 64.371 30.64 64.2904 29.3504 63.8874C31.6071 67.8366 35.5563 70.6574 40.2308 71.3828C39.4249 70.335 38.2965 67.1112 41.9233 58.4875ZM40.4726 55.4249C31.1235 51.2339 30.4788 47.9295 30.5594 46.8818C28.5445 49.4608 27.3356 52.7652 27.3356 56.3114C27.3356 57.6816 27.4967 58.8905 27.8191 60.18C28.5445 58.9711 31.0429 56.6338 40.3114 56.5532C40.3114 56.4726 40.3114 56.392 40.3114 56.3114C40.3114 55.9891 40.392 55.6667 40.4726 55.4249ZM53.932 45.9146C53.932 47.2042 52.9649 50.428 44.6636 55.1025C44.8247 55.4249 44.9859 55.7473 44.9859 56.1503C54.2544 55.3443 56.9947 57.5204 57.8006 58.6487C57.8812 57.9233 57.9618 57.1174 57.9618 56.392C57.9618 52.2817 56.4305 48.6549 53.932 45.9146ZM40.4726 55.4249C31.1235 51.2339 30.4788 47.9295 30.5594 46.8818C28.5445 49.4608 27.3356 52.7652 27.3356 56.3114C27.3356 57.6816 27.4967 58.8905 27.8191 60.18C28.5445 58.9711 31.0429 56.6338 40.3114 56.5532C40.3114 56.4726 40.3114 56.392 40.3114 56.3114C40.3114 55.9891 40.392 55.6667 40.4726 55.4249ZM41.9233 58.4875C41.6009 58.4069 41.2786 58.1651 41.0368 57.9233C34.1862 64.371 30.64 64.2904 29.3504 63.8874C31.6071 67.8366 35.5563 70.6574 40.2308 71.3828C39.4249 70.335 38.2965 67.1112 41.9233 58.4875ZM42.6487 40.9983C40.1502 40.9983 37.8935 41.5625 35.7981 42.6102C37.0876 43.0938 39.9084 45.1087 41.9233 54.1354C42.1651 54.0548 42.4069 53.9742 42.6487 53.9742C42.8099 53.9742 42.8905 53.9742 43.0517 53.9742C45.2277 43.8998 48.3709 42.6102 49.3381 42.449C47.3232 41.4819 45.0665 40.9983 42.6487 40.9983ZM44.4218 57.7622C44.18 58.0039 43.9382 58.2457 43.5352 58.4069C47.968 66.2247 47.4038 69.6903 46.6784 71.0604C51.1918 69.8515 54.8186 66.6276 56.6723 62.3561C55.7051 62.9203 52.3201 63.6456 44.4218 57.7622ZM53.932 45.9146C53.932 47.2042 52.9649 50.428 44.6636 55.1025C44.8247 55.4249 44.9859 55.7473 44.9859 56.1503C54.2544 55.3443 56.9947 57.5204 57.8006 58.6487C57.8812 57.9233 57.9618 57.1174 57.9618 56.392C57.9618 52.2817 56.4305 48.6549 53.932 45.9146ZM44.4218 57.7622C44.18 58.0039 43.9382 58.2457 43.5352 58.4069C47.968 66.2247 47.4038 69.6903 46.6784 71.0604C51.1918 69.8515 54.8186 66.6276 56.6723 62.3561C55.7051 62.9203 52.3201 63.6456 44.4218 57.7622ZM42.6487 40.9983C40.1502 40.9983 37.8935 41.5625 35.7981 42.6102C37.0876 43.0938 39.9084 45.1087 41.9233 54.1354C42.1651 54.0548 42.4069 53.9742 42.6487 53.9742C42.8099 53.9742 42.8905 53.9742 43.0517 53.9742C45.2277 43.8998 48.3709 42.6102 49.3381 42.449C47.3232 41.4819 45.0665 40.9983 42.6487 40.9983ZM41.9233 58.4875C41.6009 58.4069 41.2786 58.1651 41.0368 57.9233C34.1862 64.371 30.64 64.2904 29.3504 63.8874C31.6071 67.8366 35.5563 70.6574 40.2308 71.3828C39.4249 70.335 38.2965 67.1112 41.9233 58.4875ZM40.4726 55.4249C31.1235 51.2339 30.4788 47.9295 30.5594 46.8818C28.5445 49.4608 27.3356 52.7652 27.3356 56.3114C27.3356 57.6816 27.4967 58.8905 27.8191 60.18C28.5445 58.9711 31.0429 56.6338 40.3114 56.5532C40.3114 56.4726 40.3114 56.392 40.3114 56.3114C40.3114 55.9891 40.392 55.6667 40.4726 55.4249ZM53.932 45.9146C53.932 47.2042 52.9649 50.428 44.6636 55.1025C44.8247 55.4249 44.9859 55.7473 44.9859 56.1503C54.2544 55.3443 56.9947 57.5204 57.8006 58.6487C57.8812 57.9233 57.9618 57.1174 57.9618 56.392C57.9618 52.2817 56.4305 48.6549 53.932 45.9146ZM40.4726 55.4249C31.1235 51.2339 30.4788 47.9295 30.5594 46.8818C28.5445 49.4608 27.3356 52.7652 27.3356 56.3114C27.3356 57.6816 27.4967 58.8905 27.8191 60.18C28.5445 58.9711 31.0429 56.6338 40.3114 56.5532C40.3114 56.4726 40.3114 56.392 40.3114 56.3114C40.3114 55.9891 40.392 55.6667 40.4726 55.4249ZM41.9233 58.4875C41.6009 58.4069 41.2786 58.1651 41.0368 57.9233C34.1862 64.371 30.64 64.2904 29.3504 63.8874C31.6071 67.8366 35.5563 70.6574 40.2308 71.3828C39.4249 70.335 38.2965 67.1112 41.9233 58.4875ZM42.6487 40.9983C40.1502 40.9983 37.8935 41.5625 35.7981 42.6102C37.0876 43.0938 39.9084 45.1087 41.9233 54.1354C42.1651 54.0548 42.4069 53.9742 42.6487 53.9742C42.8099 53.9742 42.8905 53.9742 43.0517 53.9742C45.2277 43.8998 48.3709 42.6102 49.3381 42.449C47.3232 41.4819 45.0665 40.9983 42.6487 40.9983ZM44.4218 57.7622C44.18 58.0039 43.9382 58.2457 43.5352 58.4069C47.968 66.2247 47.4038 69.6903 46.6784 71.0604C51.1918 69.8515 54.8186 66.6276 56.6723 62.3561C55.7051 62.9203 52.3201 63.6456 44.4218 57.7622ZM53.932 45.9146C53.932 47.2042 52.9649 50.428 44.6636 55.1025C44.8247 55.4249 44.9859 55.7473 44.9859 56.1503C54.2544 55.3443 56.9947 57.5204 57.8006 58.6487C57.8812 57.9233 57.9618 57.1174 57.9618 56.392C57.9618 52.2817 56.4305 48.6549 53.932 45.9146ZM44.4218 57.7622C44.18 58.0039 43.9382 58.2457 43.5352 58.4069C47.968 66.2247 47.4038 69.6903 46.6784 71.0604C51.1918 69.8515 54.8186 66.6276 56.6723 62.3561C55.7051 62.9203 52.3201 63.6456 44.4218 57.7622ZM42.6487 40.9983C40.1502 40.9983 37.8935 41.5625 35.7981 42.6102C37.0876 43.0938 39.9084 45.1087 41.9233 54.1354C42.1651 54.0548 42.4069 53.9742 42.6487 53.9742C42.8099 53.9742 42.8905 53.9742 43.0517 53.9742C45.2277 43.8998 48.3709 42.6102 49.3381 42.449C47.3232 41.4819 45.0665 40.9983 42.6487 40.9983ZM41.9233 58.4875C41.6009 58.4069 41.2786 58.1651 41.0368 57.9233C34.1862 64.371 30.64 64.2904 29.3504 63.8874C31.6071 67.8366 35.5563 70.6574 40.2308 71.3828C39.4249 70.335 38.2965 67.1112 41.9233 58.4875ZM40.4726 55.4249C31.1235 51.2339 30.4788 47.9295 30.5594 46.8818C28.5445 49.4608 27.3356 52.7652 27.3356 56.3114C27.3356 57.6816 27.4967 58.8905 27.8191 60.18C28.5445 58.9711 31.0429 56.6338 40.3114 56.5532C40.3114 56.4726 40.3114 56.392 40.3114 56.3114C40.3114 55.9891 40.392 55.6667 40.4726 55.4249ZM53.932 45.9146C53.932 47.2042 52.9649 50.428 44.6636 55.1025C44.8247 55.4249 44.9859 55.7473 44.9859 56.1503C54.2544 55.3443 56.9947 57.5204 57.8006 58.6487C57.8812 57.9233 57.9618 57.1174 57.9618 56.392C57.9618 52.2817 56.4305 48.6549 53.932 45.9146ZM40.4726 55.4249C31.1235 51.2339 30.4788 47.9295 30.5594 46.8818C28.5445 49.4608 27.3356 52.7652 27.3356 56.3114C27.3356 57.6816 27.4967 58.8905 27.8191 60.18C28.5445 58.9711 31.0429 56.6338 40.3114 56.5532C40.3114 56.4726 40.3114 56.392 40.3114 56.3114C40.3114 55.9891 40.392 55.6667 40.4726 55.4249ZM41.9233 58.4875C41.6009 58.4069 41.2786 58.1651 41.0368 57.9233C34.1862 64.371 30.64 64.2904 29.3504 63.8874C31.6071 67.8366 35.5563 70.6574 40.2308 71.3828C39.4249 70.335 38.2965 67.1112 41.9233 58.4875ZM42.6487 40.9983C40.1502 40.9983 37.8935 41.5625 35.7981 42.6102C37.0876 43.0938 39.9084 45.1087 41.9233 54.1354C42.1651 54.0548 42.4069 53.9742 42.6487 53.9742C42.8099 53.9742 42.8905 53.9742 43.0517 53.9742C45.2277 43.8998 48.3709 42.6102 49.3381 42.449C47.3232 41.4819 45.0665 40.9983 42.6487 40.9983ZM44.4218 57.7622C44.18 58.0039 43.9382 58.2457 43.5352 58.4069C47.968 66.2247 47.4038 69.6903 46.6784 71.0604C51.1918 69.8515 54.8186 66.6276 56.6723 62.3561C55.7051 62.9203 52.3201 63.6456 44.4218 57.7622ZM53.932 45.9146C53.932 47.2042 52.9649 50.428 44.6636 55.1025C44.8247 55.4249 44.9859 55.7473 44.9859 56.1503C54.2544 55.3443 56.9947 57.5204 57.8006 58.6487C57.8812 57.9233 57.9618 57.1174 57.9618 56.392C57.9618 52.2817 56.4305 48.6549 53.932 45.9146ZM44.4218 57.7622C44.18 58.0039 43.9382 58.2457 43.5352 58.4069C47.968 66.2247 47.4038 69.6903 46.6784 71.0604C51.1918 69.8515 54.8186 66.6276 56.6723 62.3561C55.7051 62.9203 52.3201 63.6456 44.4218 57.7622ZM42.6487 40.9983C40.1502 40.9983 37.8935 41.5625 35.7981 42.6102C37.0876 43.0938 39.9084 45.1087 41.9233 54.1354C42.1651 54.0548 42.4069 53.9742 42.6487 53.9742C42.8099 53.9742 42.8905 53.9742 43.0517 53.9742C45.2277 43.8998 48.3709 42.6102 49.3381 42.449C47.3232 41.4819 45.0665 40.9983 42.6487 40.9983ZM41.9233 58.4875C41.6009 58.4069 41.2786 58.1651 41.0368 57.9233C34.1862 64.371 30.64 64.2904 29.3504 63.8874C31.6071 67.8366 35.5563 70.6574 40.2308 71.3828C39.4249 70.335 38.2965 67.1112 41.9233 58.4875ZM40.4726 55.4249C31.1235 51.2339 30.4788 47.9295 30.5594 46.8818C28.5445 49.4608 27.3356 52.7652 27.3356 56.3114C27.3356 57.6816 27.4967 58.8905 27.8191 60.18C28.5445 58.9711 31.0429 56.6338 40.3114 56.5532C40.3114 56.4726 40.3114 56.392 40.3114 56.3114C40.3114 55.9891 40.392 55.6667 40.4726 55.4249ZM53.932 45.9146C53.932 47.2042 52.9649 50.428 44.6636 55.1025C44.8247 55.4249 44.9859 55.7473 44.9859 56.1503C54.2544 55.3443 56.9947 57.5204 57.8006 58.6487C57.8812 57.9233 57.9618 57.1174 57.9618 56.392C57.9618 52.2817 56.4305 48.6549 53.932 45.9146ZM40.4726 55.4249C31.1235 51.2339 30.4788 47.9295 30.5594 46.8818C28.5445 49.4608 27.3356 52.7652 27.3356 56.3114C27.3356 57.6816 27.4967 58.8905 27.8191 60.18C28.5445 58.9711 31.0429 56.6338 40.3114 56.5532C40.3114 56.4726 40.3114 56.392 40.3114 56.3114C40.3114 55.9891 40.392 55.6667 40.4726 55.4249ZM41.9233 58.4875C41.6009 58.4069 41.2786 58.1651 41.0368 57.9233C34.1862 64.371 30.64 64.2904 29.3504 63.8874C31.6071 67.8366 35.5563 70.6574 40.2308 71.3828C39.4249 70.335 38.2965 67.1112 41.9233 58.4875ZM42.6487 40.9983C40.1502 40.9983 37.8935 41.5625 35.7981 42.6102C37.0876 43.0938 39.9084 45.1087 41.9233 54.1354C42.1651 54.0548 42.4069 53.9742 42.6487 53.9742C42.8099 53.9742 42.8905 53.9742 43.0517 53.9742C45.2277 43.8998 48.3709 42.6102 49.3381 42.449C47.3232 41.4819 45.0665 40.9983 42.6487 40.9983ZM44.4218 57.7622C44.18 58.0039 43.9382 58.2457 43.5352 58.4069C47.968 66.2247 47.4038 69.6903 46.6784 71.0604C51.1918 69.8515 54.8186 66.6276 56.6723 62.3561C55.7051 62.9203 52.3201 63.6456 44.4218 57.7622ZM53.932 45.9146C53.932 47.2042 52.9649 50.428 44.6636 55.1025C44.8247 55.4249 44.9859 55.7473 44.9859 56.1503C54.2544 55.3443 56.9947 57.5204 57.8006 58.6487C57.8812 57.9233 57.9618 57.1174 57.9618 56.392C57.9618 52.2817 56.4305 48.6549 53.932 45.9146ZM44.4218 57.7622C44.18 58.0039 43.9382 58.2457 43.5352 58.4069C47.968 66.2247 47.4038 69.6903 46.6784 71.0604C51.1918 69.8515 54.8186 66.6276 56.6723 62.3561C55.7051 62.9203 52.3201 63.6456 44.4218 57.7622ZM42.6487 40.9983C40.1502 40.9983 37.8935 41.5625 35.7981 42.6102C37.0876 43.0938 39.9084 45.1087 41.9233 54.1354C42.1651 54.0548 42.4069 53.9742 42.6487 53.9742C42.8099 53.9742 42.8905 53.9742 43.0517 53.9742C45.2277 43.8998 48.3709 42.6102 49.3381 42.449C47.3232 41.4819 45.0665 40.9983 42.6487 40.9983ZM41.9233 58.4875C41.6009 58.4069 41.2786 58.1651 41.0368 57.9233C34.1862 64.371 30.64 64.2904 29.3504 63.8874C31.6071 67.8366 35.5563 70.6574 40.2308 71.3828C39.4249 70.335 38.2965 67.1112 41.9233 58.4875ZM40.4726 55.4249C31.1235 51.2339 30.4788 47.9295 30.5594 46.8818C28.5445 49.4608 27.3356 52.7652 27.3356 56.3114C27.3356 57.6816 27.4967 58.8905 27.8191 60.18C28.5445 58.9711 31.0429 56.6338 40.3114 56.5532C40.3114 56.4726 40.3114 56.392 40.3114 56.3114C40.3114 55.9891 40.392 55.6667 40.4726 55.4249ZM53.932 45.9146C53.932 47.2042 52.9649 50.428 44.6636 55.1025C44.8247 55.4249 44.9859 55.7473 44.9859 56.1503C54.2544 55.3443 56.9947 57.5204 57.8006 58.6487C57.8812 57.9233 57.9618 57.1174 57.9618 56.392C57.9618 52.2817 56.4305 48.6549 53.932 45.9146ZM40.4726 55.4249C31.1235 51.2339 30.4788 47.9295 30.5594 46.8818C28.5445 49.4608 27.3356 52.7652 27.3356 56.3114C27.3356 57.6816 27.4967 58.8905 27.8191 60.18C28.5445 58.9711 31.0429 56.6338 40.3114 56.5532C40.3114 56.4726 40.3114 56.392 40.3114 56.3114C40.3114 55.9891 40.392 55.6667 40.4726 55.4249ZM41.9233 58.4875C41.6009 58.4069 41.2786 58.1651 41.0368 57.9233C34.1862 64.371 30.64 64.2904 29.3504 63.8874C31.6071 67.8366 35.5563 70.6574 40.2308 71.3828C39.4249 70.335 38.2965 67.1112 41.9233 58.4875ZM42.6487 40.9983C40.1502 40.9983 37.8935 41.5625 35.7981 42.6102C37.0876 43.0938 39.9084 45.1087 41.9233 54.1354C42.1651 54.0548 42.4069 53.9742 42.6487 53.9742C42.8099 53.9742 42.8905 53.9742 43.0517 53.9742C45.2277 43.8998 48.3709 42.6102 49.3381 42.449C47.3232 41.4819 45.0665 40.9983 42.6487 40.9983ZM44.4218 57.7622C44.18 58.0039 43.9382 58.2457 43.5352 58.4069C47.968 66.2247 47.4038 69.6903 46.6784 71.0604C51.1918 69.8515 54.8186 66.6276 56.6723 62.3561C55.7051 62.9203 52.3201 63.6456 44.4218 57.7622ZM53.932 45.9146C53.932 47.2042 52.9649 50.428 44.6636 55.1025C44.8247 55.4249 44.9859 55.7473 44.9859 56.1503C54.2544 55.3443 56.9947 57.5204 57.8006 58.6487C57.8812 57.9233 57.9618 57.1174 57.9618 56.392C57.9618 52.2817 56.4305 48.6549 53.932 45.9146ZM44.4218 57.7622C44.18 58.0039 43.9382 58.2457 43.5352 58.4069C47.968 66.2247 47.4038 69.6903 46.6784 71.0604C51.1918 69.8515 54.8186 66.6276 56.6723 62.3561C55.7051 62.9203 52.3201 63.6456 44.4218 57.7622ZM42.6487 40.9983C40.1502 40.9983 37.8935 41.5625 35.7981 42.6102C37.0876 43.0938 39.9084 45.1087 41.9233 54.1354C42.1651 54.0548 42.4069 53.9742 42.6487 53.9742C42.8099 53.9742 42.8905 53.9742 43.0517 53.9742C45.2277 43.8998 48.3709 42.6102 49.3381 42.449C47.3232 41.4819 45.0665 40.9983 42.6487 40.9983ZM41.9233 58.4875C41.6009 58.4069 41.2786 58.1651 41.0368 57.9233C34.1862 64.371 30.64 64.2904 29.3504 63.8874C31.6071 67.8366 35.5563 70.6574 40.2308 71.3828C39.4249 70.335 38.2965 67.1112 41.9233 58.4875ZM40.4726 55.4249C31.1235 51.2339 30.4788 47.9295 30.5594 46.8818C28.5445 49.4608 27.3356 52.7652 27.3356 56.3114C27.3356 57.6816 27.4967 58.8905 27.8191 60.18C28.5445 58.9711 31.0429 56.6338 40.3114 56.5532C40.3114 56.4726 40.3114 56.392 40.3114 56.3114C40.3114 55.9891 40.392 55.6667 40.4726 55.4249Z" fill="#22C55E"/>
<path d="M40.3114 56.3115C40.3114 56.3921 40.3114 56.4727 40.3114 56.5533C31.0429 56.5533 28.4639 58.9711 27.8191 60.1801C27.4967 58.9711 27.3356 57.6816 27.3356 56.3115C27.3356 52.7653 28.5445 49.5415 30.5594 46.8818C30.4788 47.9296 31.2041 51.234 40.4726 55.4249C40.392 55.6667 40.3114 55.9891 40.3114 56.3115Z" fill="#22C55E"/>
<path d="M40.2308 71.3828C35.5563 70.6574 31.6071 67.8366 29.3504 63.8874C30.64 64.2904 34.1056 64.371 41.0368 57.9233C41.2785 58.1651 41.6009 58.4069 41.9233 58.4875C38.2965 67.1112 39.4249 70.335 40.2308 71.3828Z" fill="#22C55E"/>
<path d="M49.3381 42.5296C48.3709 42.6908 45.2277 43.9803 43.0516 54.0547C42.8905 54.0547 42.8099 54.0547 42.6487 54.0547C42.4069 54.0547 42.1651 54.0547 41.9233 54.2159C39.9084 45.1893 37.0876 43.1744 35.7981 42.6908C37.8935 41.6431 40.1502 41.0789 42.6487 41.0789C45.0665 40.9983 47.3232 41.4819 49.3381 42.5296Z" fill="#22C55E"/>
<path d="M56.6723 62.3561C54.8186 66.5471 51.1918 69.7709 46.6784 71.0604C47.3232 69.7709 47.8874 66.3053 43.5352 58.407C43.8576 58.2458 44.18 58.0846 44.4218 57.7622C52.3201 63.6457 55.7051 62.9203 56.6723 62.3561Z" fill="#22C55E"/>
<path d="M57.9618 56.3114C57.9618 57.1174 57.8812 57.8428 57.8006 58.5681C56.9947 57.4398 54.2544 55.3443 44.9859 56.0697C44.9859 55.6667 44.8247 55.3443 44.6636 55.0219C52.9649 50.428 53.932 47.1236 53.932 45.834C56.4305 48.6549 57.9618 52.2817 57.9618 56.3114Z" fill="#22C55E"/>
<path d="M53.932 45.9146C53.932 47.2041 52.9649 50.4279 44.6636 55.1025C44.8248 55.4249 44.9859 55.7472 44.9859 56.1502C54.2544 55.3443 56.9947 57.5203 57.8006 58.6487C57.8812 57.9233 57.9618 57.1174 57.9618 56.392C57.9618 52.2816 56.4305 48.6549 53.932 45.9146ZM44.4218 57.7621C44.18 58.0039 43.9382 58.2457 43.5352 58.4069C47.968 66.2246 47.4038 69.6902 46.6784 71.0604C51.1918 69.8514 54.8186 66.6276 56.6723 62.3561C55.7051 62.9202 52.3201 63.6456 44.4218 57.7621ZM42.6487 40.9983C40.1502 40.9983 37.8935 41.5625 35.7981 42.6102C37.0876 43.0938 39.9084 45.1087 41.9233 54.1353C42.1651 54.0547 42.4069 53.9741 42.6487 53.9741C42.8099 53.9741 42.8905 53.9741 43.0517 53.9741C45.2277 43.8997 48.3709 42.6102 49.3381 42.449C47.3232 41.4819 45.0665 40.9983 42.6487 40.9983ZM41.9233 58.4875C41.6009 58.4069 41.2786 58.1651 41.0368 57.9233C34.1862 64.3709 30.64 64.2904 29.3504 63.8874C31.6071 67.8365 35.5563 70.6574 40.2308 71.3827C39.4249 70.335 38.2965 67.1112 41.9233 58.4875ZM40.4726 55.4249C31.1235 51.2339 30.4788 47.9295 30.5594 46.8818C28.5445 49.4608 27.3356 52.7652 27.3356 56.3114C27.3356 57.6815 27.4967 58.8905 27.8191 60.18C28.5445 58.9711 31.0429 56.6338 40.3114 56.5532C40.3114 56.4726 40.3114 56.392 40.3114 56.3114C40.3114 55.989 40.392 55.6666 40.4726 55.4249Z" fill="#22C55E"/>
<path d="M44.9859 56.3114C44.9859 56.8756 44.8247 57.3592 44.5024 57.7621C44.2606 58.0039 44.0188 58.2457 43.6158 58.4069C43.374 58.4875 43.0516 58.5681 42.7293 58.5681C42.4875 58.5681 42.2457 58.5681 42.0039 58.4875C41.6815 58.4069 41.3591 58.1651 41.1174 57.9233C40.795 57.6009 40.5532 57.1174 40.4726 56.6338C40.4726 56.6338 40.4726 56.6338 40.4726 56.5532C40.4726 56.4726 40.4726 56.392 40.4726 56.3114C40.4726 55.989 40.5532 55.7472 40.6338 55.4249V55.3443C40.8756 54.7801 41.3591 54.2965 42.0039 54.0547C42.0039 54.0547 42.0039 54.0547 42.0845 54.0547C42.3263 53.9741 42.5681 53.8936 42.8099 53.8936C42.971 53.8936 43.0516 53.8936 43.2128 53.8936H43.2934C43.9382 54.0547 44.5024 54.3771 44.8247 54.9413C44.9859 55.2637 45.1471 55.5861 45.1471 55.989C44.9859 56.2308 44.9859 56.2308 44.9859 56.3114Z" fill="#22C55E"/>
<path d="M203.598 56.1503C203.598 56.2309 203.598 56.2309 203.598 56.1503V56.1503ZM203.598 56.1503C203.598 56.2309 203.598 56.2309 203.598 56.1503V56.1503ZM203.598 56.1503C203.598 56.2309 203.598 56.2309 203.598 56.1503V56.1503ZM203.598 56.1503C203.598 56.2309 203.598 56.2309 203.598 56.1503V56.1503ZM203.598 56.1503C203.598 56.2309 203.598 56.2309 203.598 56.1503V56.1503ZM203.598 56.1503C203.598 56.2309 203.598 56.2309 203.598 56.1503V56.1503ZM203.598 56.1503C203.598 56.2309 203.598 56.2309 203.598 56.1503V56.1503ZM203.598 56.1503C203.598 56.2309 203.598 56.2309 203.598 56.1503V56.1503ZM203.598 56.1503C203.598 56.2309 203.598 56.2309 203.598 56.1503V56.1503ZM203.598 56.1503C203.598 56.2309 203.598 56.2309 203.598 56.1503V56.1503ZM213.914 43.7386C213.914 45.0281 212.947 48.252 204.645 52.9265C204.807 53.2489 204.968 53.5712 204.968 53.9742C214.236 53.1683 216.976 55.3443 217.782 56.4727C217.863 55.7473 217.944 54.9414 217.944 54.216C218.024 50.1056 216.412 46.4789 213.914 43.7386ZM200.535 53.2489C191.186 49.0579 190.541 45.7535 190.622 44.7058C188.607 47.2848 187.398 50.5892 187.398 54.1354C187.398 55.5055 187.559 56.7145 187.882 58.004C188.607 56.7951 191.105 54.4578 200.374 54.3772C200.374 54.2966 200.374 54.216 200.374 54.1354C200.374 53.813 200.374 53.4907 200.535 53.2489ZM201.905 56.3115C201.583 56.2309 201.26 55.9891 200.938 55.7473C194.087 62.195 190.541 62.1144 189.252 61.7114C191.508 65.6606 195.458 68.4814 200.132 69.2067C199.407 68.159 198.278 64.9352 201.905 56.3115ZM203.598 56.1503C203.598 56.2309 203.598 56.2309 203.598 56.1503V56.1503ZM202.63 38.7417C200.132 38.7417 197.875 39.3059 195.78 40.3536C197.069 40.8372 199.89 42.8521 201.905 51.8787C202.147 51.7981 202.389 51.7176 202.63 51.7176C202.792 51.7176 202.872 51.7176 203.033 51.7176C205.21 41.6431 208.353 40.3536 209.32 40.1924C207.305 39.3059 205.048 38.7417 202.63 38.7417ZM204.404 55.5861C204.162 55.8279 203.92 56.0697 203.517 56.2309C207.95 64.0486 207.386 67.5142 206.66 68.8844C211.174 67.6754 214.8 64.4516 216.654 60.1801C215.687 60.7442 212.383 61.4696 204.404 55.5861ZM213.914 43.7386C213.914 45.0281 212.947 48.252 204.645 52.9265C204.807 53.2489 204.968 53.5712 204.968 53.9742C214.236 53.1683 216.976 55.3443 217.782 56.4727C217.863 55.7473 217.944 54.9414 217.944 54.216C218.024 50.1056 216.412 46.4789 213.914 43.7386ZM204.404 55.5861C204.162 55.8279 203.92 56.0697 203.517 56.2309C207.95 64.0486 207.386 67.5142 206.66 68.8844C211.174 67.6754 214.8 64.4516 216.654 60.1801C215.687 60.7442 212.383 61.4696 204.404 55.5861ZM202.63 38.7417C200.132 38.7417 197.875 39.3059 195.78 40.3536C197.069 40.8372 199.89 42.8521 201.905 51.8787C202.147 51.7981 202.389 51.7176 202.63 51.7176C202.792 51.7176 202.872 51.7176 203.033 51.7176C205.21 41.6431 208.353 40.3536 209.32 40.1924C207.305 39.3059 205.048 38.7417 202.63 38.7417ZM203.598 56.1503C203.598 56.2309 203.598 56.2309 203.598 56.1503V56.1503ZM201.905 56.3115C201.583 56.2309 201.26 55.9891 200.938 55.7473C194.087 62.195 190.541 62.1144 189.252 61.7114C191.508 65.6606 195.458 68.4814 200.132 69.2067C199.407 68.159 198.278 64.9352 201.905 56.3115ZM200.535 53.2489C191.186 49.0579 190.541 45.7535 190.622 44.7058C188.607 47.2848 187.398 50.5892 187.398 54.1354C187.398 55.5055 187.559 56.7145 187.882 58.004C188.607 56.7951 191.105 54.4578 200.374 54.3772C200.374 54.2966 200.374 54.216 200.374 54.1354C200.374 53.813 200.374 53.4907 200.535 53.2489ZM213.914 43.7386C213.914 45.0281 212.947 48.252 204.645 52.9265C204.807 53.2489 204.968 53.5712 204.968 53.9742C214.236 53.1683 216.976 55.3443 217.782 56.4727C217.863 55.7473 217.944 54.9414 217.944 54.216C218.024 50.1056 216.412 46.4789 213.914 43.7386ZM200.535 53.2489C191.186 49.0579 190.541 45.7535 190.622 44.7058C188.607 47.2848 187.398 50.5892 187.398 54.1354C187.398 55.5055 187.559 56.7145 187.882 58.004C188.607 56.7951 191.105 54.4578 200.374 54.3772C200.374 54.2966 200.374 54.216 200.374 54.1354C200.374 53.813 200.374 53.4907 200.535 53.2489ZM201.905 56.3115C201.583 56.2309 201.26 55.9891 200.938 55.7473C194.087 62.195 190.541 62.1144 189.252 61.7114C191.508 65.6606 195.458 68.4814 200.132 69.2067C199.407 68.159 198.278 64.9352 201.905 56.3115ZM203.598 56.1503C203.598 56.2309 203.598 56.2309 203.598 56.1503V56.1503ZM202.63 38.7417C200.132 38.7417 197.875 39.3059 195.78 40.3536C197.069 40.8372 199.89 42.8521 201.905 51.8787C202.147 51.7981 202.389 51.7176 202.63 51.7176C202.792 51.7176 202.872 51.7176 203.033 51.7176C205.21 41.6431 208.353 40.3536 209.32 40.1924C207.305 39.3059 205.048 38.7417 202.63 38.7417ZM204.404 55.5861C204.162 55.8279 203.92 56.0697 203.517 56.2309C207.95 64.0486 207.386 67.5142 206.66 68.8844C211.174 67.6754 214.8 64.4516 216.654 60.1801C215.687 60.7442 212.383 61.4696 204.404 55.5861ZM213.914 43.7386C213.914 45.0281 212.947 48.252 204.645 52.9265C204.807 53.2489 204.968 53.5712 204.968 53.9742C214.236 53.1683 216.976 55.3443 217.782 56.4727C217.863 55.7473 217.944 54.9414 217.944 54.216C218.024 50.1056 216.412 46.4789 213.914 43.7386ZM204.404 55.5861C204.162 55.8279 203.92 56.0697 203.517 56.2309C207.95 64.0486 207.386 67.5142 206.66 68.8844C211.174 67.6754 214.8 64.4516 216.654 60.1801C215.687 60.7442 212.383 61.4696 204.404 55.5861ZM202.63 38.7417C200.132 38.7417 197.875 39.3059 195.78 40.3536C197.069 40.8372 199.89 42.8521 201.905 51.8787C202.147 51.7981 202.389 51.7176 202.63 51.7176C202.792 51.7176 202.872 51.7176 203.033 51.7176C205.21 41.6431 208.353 40.3536 209.32 40.1924C207.305 39.3059 205.048 38.7417 202.63 38.7417ZM203.598 56.1503C203.598 56.2309 203.598 56.2309 203.598 56.1503V56.1503ZM201.905 56.3115C201.583 56.2309 201.26 55.9891 200.938 55.7473C194.087 62.195 190.541 62.1144 189.252 61.7114C191.508 65.6606 195.458 68.4814 200.132 69.2067C199.407 68.159 198.278 64.9352 201.905 56.3115ZM200.535 53.2489C191.186 49.0579 190.541 45.7535 190.622 44.7058C188.607 47.2848 187.398 50.5892 187.398 54.1354C187.398 55.5055 187.559 56.7145 187.882 58.004C188.607 56.7951 191.105 54.4578 200.374 54.3772C200.374 54.2966 200.374 54.216 200.374 54.1354C200.374 53.813 200.374 53.4907 200.535 53.2489ZM213.914 43.7386C213.914 45.0281 212.947 48.252 204.645 52.9265C204.807 53.2489 204.968 53.5712 204.968 53.9742C214.236 53.1683 216.976 55.3443 217.782 56.4727C217.863 55.7473 217.944 54.9414 217.944 54.216C218.024 50.1056 216.412 46.4789 213.914 43.7386ZM200.535 53.2489C191.186 49.0579 190.541 45.7535 190.622 44.7058C188.607 47.2848 187.398 50.5892 187.398 54.1354C187.398 55.5055 187.559 56.7145 187.882 58.004C188.607 56.7951 191.105 54.4578 200.374 54.3772C200.374 54.2966 200.374 54.216 200.374 54.1354C200.374 53.813 200.374 53.4907 200.535 53.2489ZM201.905 56.3115C201.583 56.2309 201.26 55.9891 200.938 55.7473C194.087 62.195 190.541 62.1144 189.252 61.7114C191.508 65.6606 195.458 68.4814 200.132 69.2067C199.407 68.159 198.278 64.9352 201.905 56.3115ZM203.598 56.1503C203.598 56.2309 203.598 56.2309 203.598 56.1503V56.1503ZM202.63 38.7417C200.132 38.7417 197.875 39.3059 195.78 40.3536C197.069 40.8372 199.89 42.8521 201.905 51.8787C202.147 51.7981 202.389 51.7176 202.63 51.7176C202.792 51.7176 202.872 51.7176 203.033 51.7176C205.21 41.6431 208.353 40.3536 209.32 40.1924C207.305 39.3059 205.048 38.7417 202.63 38.7417ZM204.404 55.5861C204.162 55.8279 203.92 56.0697 203.517 56.2309C207.95 64.0486 207.386 67.5142 206.66 68.8844C211.174 67.6754 214.8 64.4516 216.654 60.1801C215.687 60.7442 212.383 61.4696 204.404 55.5861ZM213.914 43.7386C213.914 45.0281 212.947 48.252 204.645 52.9265C204.807 53.2489 204.968 53.5712 204.968 53.9742C214.236 53.1683 216.976 55.3443 217.782 56.4727C217.863 55.7473 217.944 54.9414 217.944 54.216C218.024 50.1056 216.412 46.4789 213.914 43.7386ZM204.404 55.5861C204.162 55.8279 203.92 56.0697 203.517 56.2309C207.95 64.0486 207.386 67.5142 206.66 68.8844C211.174 67.6754 214.8 64.4516 216.654 60.1801C215.687 60.7442 212.383 61.4696 204.404 55.5861ZM202.63 38.7417C200.132 38.7417 197.875 39.3059 195.78 40.3536C197.069 40.8372 199.89 42.8521 201.905 51.8787C202.147 51.7981 202.389 51.7176 202.63 51.7176C202.792 51.7176 202.872 51.7176 203.033 51.7176C205.21 41.6431 208.353 40.3536 209.32 40.1924C207.305 39.3059 205.048 38.7417 202.63 38.7417ZM203.598 56.1503C203.598 56.2309 203.598 56.2309 203.598 56.1503V56.1503ZM201.905 56.3115C201.583 56.2309 201.26 55.9891 200.938 55.7473C194.087 62.195 190.541 62.1144 189.252 61.7114C191.508 65.6606 195.458 68.4814 200.132 69.2067C199.407 68.159 198.278 64.9352 201.905 56.3115ZM200.535 53.2489C191.186 49.0579 190.541 45.7535 190.622 44.7058C188.607 47.2848 187.398 50.5892 187.398 54.1354C187.398 55.5055 187.559 56.7145 187.882 58.004C188.607 56.7951 191.105 54.4578 200.374 54.3772C200.374 54.2966 200.374 54.216 200.374 54.1354C200.374 53.813 200.374 53.4907 200.535 53.2489ZM213.914 43.7386C213.914 45.0281 212.947 48.252 204.645 52.9265C204.807 53.2489 204.968 53.5712 204.968 53.9742C214.236 53.1683 216.976 55.3443 217.782 56.4727C217.863 55.7473 217.944 54.9414 217.944 54.216C218.024 50.1056 216.412 46.4789 213.914 43.7386ZM200.535 53.2489C191.186 49.0579 190.541 45.7535 190.622 44.7058C188.607 47.2848 187.398 50.5892 187.398 54.1354C187.398 55.5055 187.559 56.7145 187.882 58.004C188.607 56.7951 191.105 54.4578 200.374 54.3772C200.374 54.2966 200.374 54.216 200.374 54.1354C200.374 53.813 200.374 53.4907 200.535 53.2489ZM201.905 56.3115C201.583 56.2309 201.26 55.9891 200.938 55.7473C194.087 62.195 190.541 62.1144 189.252 61.7114C191.508 65.6606 195.458 68.4814 200.132 69.2067C199.407 68.159 198.278 64.9352 201.905 56.3115ZM203.598 56.1503C203.598 56.2309 203.598 56.2309 203.598 56.1503V56.1503ZM202.63 38.7417C200.132 38.7417 197.875 39.3059 195.78 40.3536C197.069 40.8372 199.89 42.8521 201.905 51.8787C202.147 51.7981 202.389 51.7176 202.63 51.7176C202.792 51.7176 202.872 51.7176 203.033 51.7176C205.21 41.6431 208.353 40.3536 209.32 40.1924C207.305 39.3059 205.048 38.7417 202.63 38.7417ZM204.404 55.5861C204.162 55.8279 203.92 56.0697 203.517 56.2309C207.95 64.0486 207.386 67.5142 206.66 68.8844C211.174 67.6754 214.8 64.4516 216.654 60.1801C215.687 60.7442 212.383 61.4696 204.404 55.5861ZM213.914 43.7386C213.914 45.0281 212.947 48.252 204.645 52.9265C204.807 53.2489 204.968 53.5712 204.968 53.9742C214.236 53.1683 216.976 55.3443 217.782 56.4727C217.863 55.7473 217.944 54.9414 217.944 54.216C218.024 50.1056 216.412 46.4789 213.914 43.7386ZM204.404 55.5861C204.162 55.8279 203.92 56.0697 203.517 56.2309C207.95 64.0486 207.386 67.5142 206.66 68.8844C211.174 67.6754 214.8 64.4516 216.654 60.1801C215.687 60.7442 212.383 61.4696 204.404 55.5861ZM202.63 38.7417C200.132 38.7417 197.875 39.3059 195.78 40.3536C197.069 40.8372 199.89 42.8521 201.905 51.8787C202.147 51.7981 202.389 51.7176 202.63 51.7176C202.792 51.7176 202.872 51.7176 203.033 51.7176C205.21 41.6431 208.353 40.3536 209.32 40.1924C207.305 39.3059 205.048 38.7417 202.63 38.7417ZM203.598 56.1503C203.598 56.2309 203.598 56.2309 203.598 56.1503V56.1503ZM201.905 56.3115C201.583 56.2309 201.26 55.9891 200.938 55.7473C194.087 62.195 190.541 62.1144 189.252 61.7114C191.508 65.6606 195.458 68.4814 200.132 69.2067C199.407 68.159 198.278 64.9352 201.905 56.3115ZM200.535 53.2489C191.186 49.0579 190.541 45.7535 190.622 44.7058C188.607 47.2848 187.398 50.5892 187.398 54.1354C187.398 55.5055 187.559 56.7145 187.882 58.004C188.607 56.7951 191.105 54.4578 200.374 54.3772C200.374 54.2966 200.374 54.216 200.374 54.1354C200.374 53.813 200.374 53.4907 200.535 53.2489ZM213.914 43.7386C213.914 45.0281 212.947 48.252 204.645 52.9265C204.807 53.2489 204.968 53.5712 204.968 53.9742C214.236 53.1683 216.976 55.3443 217.782 56.4727C217.863 55.7473 217.944 54.9414 217.944 54.216C218.024 50.1056 216.412 46.4789 213.914 43.7386ZM200.535 53.2489C191.186 49.0579 190.541 45.7535 190.622 44.7058C188.607 47.2848 187.398 50.5892 187.398 54.1354C187.398 55.5055 187.559 56.7145 187.882 58.004C188.607 56.7951 191.105 54.4578 200.374 54.3772C200.374 54.2966 200.374 54.216 200.374 54.1354C200.374 53.813 200.374 53.4907 200.535 53.2489ZM201.905 56.3115C201.583 56.2309 201.26 55.9891 200.938 55.7473C194.087 62.195 190.541 62.1144 189.252 61.7114C191.508 65.6606 195.458 68.4814 200.132 69.2067C199.407 68.159 198.278 64.9352 201.905 56.3115ZM203.598 56.1503C203.598 56.2309 203.598 56.2309 203.598 56.1503V56.1503ZM202.63 38.7417C200.132 38.7417 197.875 39.3059 195.78 40.3536C197.069 40.8372 199.89 42.8521 201.905 51.8787C202.147 51.7981 202.389 51.7176 202.63 51.7176C202.792 51.7176 202.872 51.7176 203.033 51.7176C205.21 41.6431 208.353 40.3536 209.32 40.1924C207.305 39.3059 205.048 38.7417 202.63 38.7417ZM204.404 55.5861C204.162 55.8279 203.92 56.0697 203.517 56.2309C207.95 64.0486 207.386 67.5142 206.66 68.8844C211.174 67.6754 214.8 64.4516 216.654 60.1801C215.687 60.7442 212.383 61.4696 204.404 55.5861ZM213.914 43.7386C213.914 45.0281 212.947 48.252 204.645 52.9265C204.807 53.2489 204.968 53.5712 204.968 53.9742C214.236 53.1683 216.976 55.3443 217.782 56.4727C217.863 55.7473 217.944 54.9414 217.944 54.216C218.024 50.1056 216.412 46.4789 213.914 43.7386ZM204.404 55.5861C204.162 55.8279 203.92 56.0697 203.517 56.2309C207.95 64.0486 207.386 67.5142 206.66 68.8844C211.174 67.6754 214.8 64.4516 216.654 60.1801C215.687 60.7442 212.383 61.4696 204.404 55.5861ZM202.63 38.7417C200.132 38.7417 197.875 39.3059 195.78 40.3536C197.069 40.8372 199.89 42.8521 201.905 51.8787C202.147 51.7981 202.389 51.7176 202.63 51.7176C202.792 51.7176 202.872 51.7176 203.033 51.7176C205.21 41.6431 208.353 40.3536 209.32 40.1924C207.305 39.3059 205.048 38.7417 202.63 38.7417ZM203.598 56.1503C203.598 56.2309 203.598 56.2309 203.598 56.1503V56.1503ZM201.905 56.3115C201.583 56.2309 201.26 55.9891 200.938 55.7473C194.087 62.195 190.541 62.1144 189.252 61.7114C191.508 65.6606 195.458 68.4814 200.132 69.2067C199.407 68.159 198.278 64.9352 201.905 56.3115ZM200.535 53.2489C191.186 49.0579 190.541 45.7535 190.622 44.7058C188.607 47.2848 187.398 50.5892 187.398 54.1354C187.398 55.5055 187.559 56.7145 187.882 58.004C188.607 56.7951 191.105 54.4578 200.374 54.3772C200.374 54.2966 200.374 54.216 200.374 54.1354C200.374 53.813 200.374 53.4907 200.535 53.2489ZM213.914 43.7386C213.914 45.0281 212.947 48.252 204.645 52.9265C204.807 53.2489 204.968 53.5712 204.968 53.9742C214.236 53.1683 216.976 55.3443 217.782 56.4727C217.863 55.7473 217.944 54.9414 217.944 54.216C218.024 50.1056 216.412 46.4789 213.914 43.7386ZM200.535 53.2489C191.186 49.0579 190.541 45.7535 190.622 44.7058C188.607 47.2848 187.398 50.5892 187.398 54.1354C187.398 55.5055 187.559 56.7145 187.882 58.004C188.607 56.7951 191.105 54.4578 200.374 54.3772C200.374 54.2966 200.374 54.216 200.374 54.1354C200.374 53.813 200.374 53.4907 200.535 53.2489ZM201.905 56.3115C201.583 56.2309 201.26 55.9891 200.938 55.7473C194.087 62.195 190.541 62.1144 189.252 61.7114C191.508 65.6606 195.458 68.4814 200.132 69.2067C199.407 68.159 198.278 64.9352 201.905 56.3115ZM203.598 56.1503C203.598 56.2309 203.598 56.2309 203.598 56.1503V56.1503ZM202.63 38.7417C200.132 38.7417 197.875 39.3059 195.78 40.3536C197.069 40.8372 199.89 42.8521 201.905 51.8787C202.147 51.7981 202.389 51.7176 202.63 51.7176C202.792 51.7176 202.872 51.7176 203.033 51.7176C205.21 41.6431 208.353 40.3536 209.32 40.1924C207.305 39.3059 205.048 38.7417 202.63 38.7417ZM204.404 55.5861C204.162 55.8279 203.92 56.0697 203.517 56.2309C207.95 64.0486 207.386 67.5142 206.66 68.8844C211.174 67.6754 214.8 64.4516 216.654 60.1801C215.687 60.7442 212.383 61.4696 204.404 55.5861ZM213.914 43.7386C213.914 45.0281 212.947 48.252 204.645 52.9265C204.807 53.2489 204.968 53.5712 204.968 53.9742C214.236 53.1683 216.976 55.3443 217.782 56.4727C217.863 55.7473 217.944 54.9414 217.944 54.216C218.024 50.1056 216.412 46.4789 213.914 43.7386ZM204.404 55.5861C204.162 55.8279 203.92 56.0697 203.517 56.2309C207.95 64.0486 207.386 67.5142 206.66 68.8844C211.174 67.6754 214.8 64.4516 216.654 60.1801C215.687 60.7442 212.383 61.4696 204.404 55.5861ZM209.32 40.273C207.305 39.3059 205.048 38.7417 202.63 38.7417C200.132 38.7417 197.875 39.3059 195.78 40.3536C197.069 40.8372 199.89 42.8521 201.905 51.8787C202.147 51.7981 202.389 51.7176 202.63 51.7176C202.792 51.7176 202.872 51.7176 203.033 51.7176C205.21 41.7237 208.353 40.4342 209.32 40.273ZM201.019 55.7473C194.168 62.195 190.622 62.1144 189.332 61.7114C191.589 65.6606 195.538 68.4814 200.213 69.2067C199.407 68.159 198.278 64.9352 201.905 56.3115C201.583 56.1503 201.26 55.9891 201.019 55.7473ZM200.374 54.0548C200.374 53.7324 200.454 53.4907 200.535 53.1683C191.186 48.9773 190.541 45.6729 190.622 44.6252C188.607 47.2042 187.398 50.5086 187.398 54.0548C187.398 55.4249 187.559 56.6339 187.882 57.9234C188.607 56.7145 191.105 54.3772 200.374 54.2966C200.374 54.2966 200.374 54.1354 200.374 54.0548ZM213.914 43.7386C213.914 45.0281 212.947 48.252 204.645 52.9265C204.807 53.2489 204.968 53.5712 204.968 53.9742C214.236 53.1683 216.976 55.3443 217.782 56.4727C217.863 55.7473 217.944 54.9414 217.944 54.216C218.024 50.1056 216.412 46.4789 213.914 43.7386ZM202.63 33.9866C191.508 33.9866 182.562 43.0133 182.562 54.0548C182.562 65.0964 191.589 74.1231 202.63 74.1231C213.753 74.1231 222.699 65.0964 222.699 54.0548C222.699 43.0133 213.753 33.9866 202.63 33.9866ZM202.63 70.3351C193.684 70.3351 186.35 63.0815 186.35 54.0548C186.35 45.0281 193.604 37.7746 202.63 37.7746C211.577 37.7746 218.911 45.0281 218.911 54.0548C218.911 63.0815 211.657 70.3351 202.63 70.3351ZM204.404 55.5861C204.162 55.8279 203.92 56.0697 203.517 56.2309C207.95 64.0486 207.386 67.5142 206.66 68.8844C211.174 67.6754 214.8 64.4516 216.654 60.1801C215.687 60.7442 212.383 61.4696 204.404 55.5861ZM209.32 40.273C207.305 39.3059 205.048 38.7417 202.63 38.7417C200.132 38.7417 197.875 39.3059 195.78 40.3536C197.069 40.8372 199.89 42.8521 201.905 51.8787C202.147 51.7981 202.389 51.7176 202.63 51.7176C202.792 51.7176 202.872 51.7176 203.033 51.7176C205.21 41.7237 208.353 40.4342 209.32 40.273ZM201.019 55.7473C194.168 62.195 190.622 62.1144 189.332 61.7114C191.589 65.6606 195.538 68.4814 200.213 69.2067C199.407 68.159 198.278 64.9352 201.905 56.3115C201.583 56.1503 201.26 55.9891 201.019 55.7473ZM200.374 54.0548C200.374 53.7324 200.454 53.4907 200.535 53.1683C191.186 48.9773 190.541 45.6729 190.622 44.6252C188.607 47.2042 187.398 50.5086 187.398 54.0548C187.398 55.4249 187.559 56.6339 187.882 57.9234C188.607 56.7145 191.105 54.3772 200.374 54.2966C200.374 54.2966 200.374 54.1354 200.374 54.0548ZM213.914 43.7386C213.914 45.0281 212.947 48.252 204.645 52.9265C204.807 53.2489 204.968 53.5712 204.968 53.9742C214.236 53.1683 216.976 55.3443 217.782 56.4727C217.863 55.7473 217.944 54.9414 217.944 54.216C218.024 50.1056 216.412 46.4789 213.914 43.7386ZM200.535 53.2489C191.186 49.0579 190.541 45.7535 190.622 44.7058C188.607 47.2848 187.398 50.5892 187.398 54.1354C187.398 55.5055 187.559 56.7145 187.882 58.004C188.607 56.7951 191.105 54.4578 200.374 54.3772C200.374 54.2966 200.374 54.216 200.374 54.1354C200.374 53.813 200.374 53.4907 200.535 53.2489ZM201.905 56.3115C201.583 56.2309 201.26 55.9891 200.938 55.7473C194.087 62.195 190.541 62.1144 189.252 61.7114C191.508 65.6606 195.458 68.4814 200.132 69.2067C199.407 68.159 198.278 64.9352 201.905 56.3115ZM203.598 56.1503C203.598 56.2309 203.598 56.2309 203.598 56.1503V56.1503ZM202.63 38.7417C200.132 38.7417 197.875 39.3059 195.78 40.3536C197.069 40.8372 199.89 42.8521 201.905 51.8787C202.147 51.7981 202.389 51.7176 202.63 51.7176C202.792 51.7176 202.872 51.7176 203.033 51.7176C205.21 41.6431 208.353 40.3536 209.32 40.1924C207.305 39.3059 205.048 38.7417 202.63 38.7417ZM204.404 55.5861C204.162 55.8279 203.92 56.0697 203.517 56.2309C207.95 64.0486 207.386 67.5142 206.66 68.8844C211.174 67.6754 214.8 64.4516 216.654 60.1801C215.687 60.7442 212.383 61.4696 204.404 55.5861ZM213.914 43.7386C213.914 45.0281 212.947 48.252 204.645 52.9265C204.807 53.2489 204.968 53.5712 204.968 53.9742C214.236 53.1683 216.976 55.3443 217.782 56.4727C217.863 55.7473 217.944 54.9414 217.944 54.216C218.024 50.1056 216.412 46.4789 213.914 43.7386ZM204.404 55.5861C204.162 55.8279 203.92 56.0697 203.517 56.2309C207.95 64.0486 207.386 67.5142 206.66 68.8844C211.174 67.6754 214.8 64.4516 216.654 60.1801C215.687 60.7442 212.383 61.4696 204.404 55.5861ZM202.63 38.7417C200.132 38.7417 197.875 39.3059 195.78 40.3536C197.069 40.8372 199.89 42.8521 201.905 51.8787C202.147 51.7981 202.389 51.7176 202.63 51.7176C202.792 51.7176 202.872 51.7176 203.033 51.7176C205.21 41.6431 208.353 40.3536 209.32 40.1924C207.305 39.3059 205.048 38.7417 202.63 38.7417ZM203.598 56.1503C203.598 56.2309 203.598 56.2309 203.598 56.1503V56.1503ZM201.905 56.3115C201.583 56.2309 201.26 55.9891 200.938 55.7473C194.087 62.195 190.541 62.1144 189.252 61.7114C191.508 65.6606 195.458 68.4814 200.132 69.2067C199.407 68.159 198.278 64.9352 201.905 56.3115ZM200.535 53.2489C191.186 49.0579 190.541 45.7535 190.622 44.7058C188.607 47.2848 187.398 50.5892 187.398 54.1354C187.398 55.5055 187.559 56.7145 187.882 58.004C188.607 56.7951 191.105 54.4578 200.374 54.3772C200.374 54.2966 200.374 54.216 200.374 54.1354C200.374 53.813 200.374 53.4907 200.535 53.2489ZM213.914 43.7386C213.914 45.0281 212.947 48.252 204.645 52.9265C204.807 53.2489 204.968 53.5712 204.968 53.9742C214.236 53.1683 216.976 55.3443 217.782 56.4727C217.863 55.7473 217.944 54.9414 217.944 54.216C218.024 50.1056 216.412 46.4789 213.914 43.7386ZM200.535 53.2489C191.186 49.0579 190.541 45.7535 190.622 44.7058C188.607 47.2848 187.398 50.5892 187.398 54.1354C187.398 55.5055 187.559 56.7145 187.882 58.004C188.607 56.7951 191.105 54.4578 200.374 54.3772C200.374 54.2966 200.374 54.216 200.374 54.1354C200.374 53.813 200.374 53.4907 200.535 53.2489ZM201.905 56.3115C201.583 56.2309 201.26 55.9891 200.938 55.7473C194.087 62.195 190.541 62.1144 189.252 61.7114C191.508 65.6606 195.458 68.4814 200.132 69.2067C199.407 68.159 198.278 64.9352 201.905 56.3115ZM203.598 56.1503C203.598 56.2309 203.598 56.2309 203.598 56.1503V56.1503ZM202.63 38.7417C200.132 38.7417 197.875 39.3059 195.78 40.3536C197.069 40.8372 199.89 42.8521 201.905 51.8787C202.147 51.7981 202.389 51.7176 202.63 51.7176C202.792 51.7176 202.872 51.7176 203.033 51.7176C205.21 41.6431 208.353 40.3536 209.32 40.1924C207.305 39.3059 205.048 38.7417 202.63 38.7417ZM204.404 55.5861C204.162 55.8279 203.92 56.0697 203.517 56.2309C207.95 64.0486 207.386 67.5142 206.66 68.8844C211.174 67.6754 214.8 64.4516 216.654 60.1801C215.687 60.7442 212.383 61.4696 204.404 55.5861ZM213.914 43.7386C213.914 45.0281 212.947 48.252 204.645 52.9265C204.807 53.2489 204.968 53.5712 204.968 53.9742C214.236 53.1683 216.976 55.3443 217.782 56.4727C217.863 55.7473 217.944 54.9414 217.944 54.216C218.024 50.1056 216.412 46.4789 213.914 43.7386ZM204.404 55.5861C204.162 55.8279 203.92 56.0697 203.517 56.2309C207.95 64.0486 207.386 67.5142 206.66 68.8844C211.174 67.6754 214.8 64.4516 216.654 60.1801C215.687 60.7442 212.383 61.4696 204.404 55.5861ZM202.63 38.7417C200.132 38.7417 197.875 39.3059 195.78 40.3536C197.069 40.8372 199.89 42.8521 201.905 51.8787C202.147 51.7981 202.389 51.7176 202.63 51.7176C202.792 51.7176 202.872 51.7176 203.033 51.7176C205.21 41.6431 208.353 40.3536 209.32 40.1924C207.305 39.3059 205.048 38.7417 202.63 38.7417ZM203.598 56.1503C203.598 56.2309 203.598 56.2309 203.598 56.1503V56.1503ZM201.905 56.3115C201.583 56.2309 201.26 55.9891 200.938 55.7473C194.087 62.195 190.541 62.1144 189.252 61.7114C191.508 65.6606 195.458 68.4814 200.132 69.2067C199.407 68.159 198.278 64.9352 201.905 56.3115ZM200.535 53.2489C191.186 49.0579 190.541 45.7535 190.622 44.7058C188.607 47.2848 187.398 50.5892 187.398 54.1354C187.398 55.5055 187.559 56.7145 187.882 58.004C188.607 56.7951 191.105 54.4578 200.374 54.3772C200.374 54.2966 200.374 54.216 200.374 54.1354C200.374 53.813 200.374 53.4907 200.535 53.2489ZM213.914 43.7386C213.914 45.0281 212.947 48.252 204.645 52.9265C204.807 53.2489 204.968 53.5712 204.968 53.9742C214.236 53.1683 216.976 55.3443 217.782 56.4727C217.863 55.7473 217.944 54.9414 217.944 54.216C218.024 50.1056 216.412 46.4789 213.914 43.7386ZM200.535 53.2489C191.186 49.0579 190.541 45.7535 190.622 44.7058C188.607 47.2848 187.398 50.5892 187.398 54.1354C187.398 55.5055 187.559 56.7145 187.882 58.004C188.607 56.7951 191.105 54.4578 200.374 54.3772C200.374 54.2966 200.374 54.216 200.374 54.1354C200.374 53.813 200.374 53.4907 200.535 53.2489ZM201.905 56.3115C201.583 56.2309 201.26 55.9891 200.938 55.7473C194.087 62.195 190.541 62.1144 189.252 61.7114C191.508 65.6606 195.458 68.4814 200.132 69.2067C199.407 68.159 198.278 64.9352 201.905 56.3115ZM203.598 56.1503C203.598 56.2309 203.598 56.2309 203.598 56.1503V56.1503ZM202.63 38.7417C200.132 38.7417 197.875 39.3059 195.78 40.3536C197.069 40.8372 199.89 42.8521 201.905 51.8787C202.147 51.7981 202.389 51.7176 202.63 51.7176C202.792 51.7176 202.872 51.7176 203.033 51.7176C205.21 41.6431 208.353 40.3536 209.32 40.1924C207.305 39.3059 205.048 38.7417 202.63 38.7417ZM204.404 55.5861C204.162 55.8279 203.92 56.0697 203.517 56.2309C207.95 64.0486 207.386 67.5142 206.66 68.8844C211.174 67.6754 214.8 64.4516 216.654 60.1801C215.687 60.7442 212.383 61.4696 204.404 55.5861ZM213.914 43.7386C213.914 45.0281 212.947 48.252 204.645 52.9265C204.807 53.2489 204.968 53.5712 204.968 53.9742C214.236 53.1683 216.976 55.3443 217.782 56.4727C217.863 55.7473 217.944 54.9414 217.944 54.216C218.024 50.1056 216.412 46.4789 213.914 43.7386ZM204.404 55.5861C204.162 55.8279 203.92 56.0697 203.517 56.2309C207.95 64.0486 207.386 67.5142 206.66 68.8844C211.174 67.6754 214.8 64.4516 216.654 60.1801C215.687 60.7442 212.383 61.4696 204.404 55.5861ZM202.63 38.7417C200.132 38.7417 197.875 39.3059 195.78 40.3536C197.069 40.8372 199.89 42.8521 201.905 51.8787C202.147 51.7981 202.389 51.7176 202.63 51.7176C202.792 51.7176 202.872 51.7176 203.033 51.7176C205.21 41.6431 208.353 40.3536 209.32 40.1924C207.305 39.3059 205.048 38.7417 202.63 38.7417ZM203.598 56.1503C203.598 56.2309 203.598 56.2309 203.598 56.1503V56.1503ZM201.905 56.3115C201.583 56.2309 201.26 55.9891 200.938 55.7473C194.087 62.195 190.541 62.1144 189.252 61.7114C191.508 65.6606 195.458 68.4814 200.132 69.2067C199.407 68.159 198.278 64.9352 201.905 56.3115ZM200.535 53.2489C191.186 49.0579 190.541 45.7535 190.622 44.7058C188.607 47.2848 187.398 50.5892 187.398 54.1354C187.398 55.5055 187.559 56.7145 187.882 58.004C188.607 56.7951 191.105 54.4578 200.374 54.3772C200.374 54.2966 200.374 54.216 200.374 54.1354C200.374 53.813 200.374 53.4907 200.535 53.2489ZM213.914 43.7386C213.914 45.0281 212.947 48.252 204.645 52.9265C204.807 53.2489 204.968 53.5712 204.968 53.9742C214.236 53.1683 216.976 55.3443 217.782 56.4727C217.863 55.7473 217.944 54.9414 217.944 54.216C218.024 50.1056 216.412 46.4789 213.914 43.7386ZM200.535 53.2489C191.186 49.0579 190.541 45.7535 190.622 44.7058C188.607 47.2848 187.398 50.5892 187.398 54.1354C187.398 55.5055 187.559 56.7145 187.882 58.004C188.607 56.7951 191.105 54.4578 200.374 54.3772C200.374 54.2966 200.374 54.216 200.374 54.1354C200.374 53.813 200.374 53.4907 200.535 53.2489ZM201.905 56.3115C201.583 56.2309 201.26 55.9891 200.938 55.7473C194.087 62.195 190.541 62.1144 189.252 61.7114C191.508 65.6606 195.458 68.4814 200.132 69.2067C199.407 68.159 198.278 64.9352 201.905 56.3115ZM203.598 56.1503C203.598 56.2309 203.598 56.2309 203.598 56.1503V56.1503ZM202.63 38.7417C200.132 38.7417 197.875 39.3059 195.78 40.3536C197.069 40.8372 199.89 42.8521 201.905 51.8787C202.147 51.7981 202.389 51.7176 202.63 51.7176C202.792 51.7176 202.872 51.7176 203.033 51.7176C205.21 41.6431 208.353 40.3536 209.32 40.1924C207.305 39.3059 205.048 38.7417 202.63 38.7417ZM204.404 55.5861C204.162 55.8279 203.92 56.0697 203.517 56.2309C207.95 64.0486 207.386 67.5142 206.66 68.8844C211.174 67.6754 214.8 64.4516 216.654 60.1801C215.687 60.7442 212.383 61.4696 204.404 55.5861ZM213.914 43.7386C213.914 45.0281 212.947 48.252 204.645 52.9265C204.807 53.2489 204.968 53.5712 204.968 53.9742C214.236 53.1683 216.976 55.3443 217.782 56.4727C217.863 55.7473 217.944 54.9414 217.944 54.216C218.024 50.1056 216.412 46.4789 213.914 43.7386ZM204.404 55.5861C204.162 55.8279 203.92 56.0697 203.517 56.2309C207.95 64.0486 207.386 67.5142 206.66 68.8844C211.174 67.6754 214.8 64.4516 216.654 60.1801C215.687 60.7442 212.383 61.4696 204.404 55.5861ZM202.63 38.7417C200.132 38.7417 197.875 39.3059 195.78 40.3536C197.069 40.8372 199.89 42.8521 201.905 51.8787C202.147 51.7981 202.389 51.7176 202.63 51.7176C202.792 51.7176 202.872 51.7176 203.033 51.7176C205.21 41.6431 208.353 40.3536 209.32 40.1924C207.305 39.3059 205.048 38.7417 202.63 38.7417ZM203.598 56.1503C203.598 56.2309 203.598 56.2309 203.598 56.1503V56.1503ZM201.905 56.3115C201.583 56.2309 201.26 55.9891 200.938 55.7473C194.087 62.195 190.541 62.1144 189.252 61.7114C191.508 65.6606 195.458 68.4814 200.132 69.2067C199.407 68.159 198.278 64.9352 201.905 56.3115ZM200.535 53.2489C191.186 49.0579 190.541 45.7535 190.622 44.7058C188.607 47.2848 187.398 50.5892 187.398 54.1354C187.398 55.5055 187.559 56.7145 187.882 58.004C188.607 56.7951 191.105 54.4578 200.374 54.3772C200.374 54.2966 200.374 54.216 200.374 54.1354C200.374 53.813 200.374 53.4907 200.535 53.2489ZM213.914 43.7386C213.914 45.0281 212.947 48.252 204.645 52.9265C204.807 53.2489 204.968 53.5712 204.968 53.9742C214.236 53.1683 216.976 55.3443 217.782 56.4727C217.863 55.7473 217.944 54.9414 217.944 54.216C218.024 50.1056 216.412 46.4789 213.914 43.7386ZM200.535 53.2489C191.186 49.0579 190.541 45.7535 190.622 44.7058C188.607 47.2848 187.398 50.5892 187.398 54.1354C187.398 55.5055 187.559 56.7145 187.882 58.004C188.607 56.7951 191.105 54.4578 200.374 54.3772C200.374 54.2966 200.374 54.216 200.374 54.1354C200.374 53.813 200.374 53.4907 200.535 53.2489ZM201.905 56.3115C201.583 56.2309 201.26 55.9891 200.938 55.7473C194.087 62.195 190.541 62.1144 189.252 61.7114C191.508 65.6606 195.458 68.4814 200.132 69.2067C199.407 68.159 198.278 64.9352 201.905 56.3115ZM203.598 56.1503C203.598 56.2309 203.598 56.2309 203.598 56.1503V56.1503ZM202.63 38.7417C200.132 38.7417 197.875 39.3059 195.78 40.3536C197.069 40.8372 199.89 42.8521 201.905 51.8787C202.147 51.7981 202.389 51.7176 202.63 51.7176C202.792 51.7176 202.872 51.7176 203.033 51.7176C205.21 41.6431 208.353 40.3536 209.32 40.1924C207.305 39.3059 205.048 38.7417 202.63 38.7417ZM204.404 55.5861C204.162 55.8279 203.92 56.0697 203.517 56.2309C207.95 64.0486 207.386 67.5142 206.66 68.8844C211.174 67.6754 214.8 64.4516 216.654 60.1801C215.687 60.7442 212.383 61.4696 204.404 55.5861ZM213.914 43.7386C213.914 45.0281 212.947 48.252 204.645 52.9265C204.807 53.2489 204.968 53.5712 204.968 53.9742C214.236 53.1683 216.976 55.3443 217.782 56.4727C217.863 55.7473 217.944 54.9414 217.944 54.216C218.024 50.1056 216.412 46.4789 213.914 43.7386ZM204.404 55.5861C204.162 55.8279 203.92 56.0697 203.517 56.2309C207.95 64.0486 207.386 67.5142 206.66 68.8844C211.174 67.6754 214.8 64.4516 216.654 60.1801C215.687 60.7442 212.383 61.4696 204.404 55.5861ZM202.63 38.7417C200.132 38.7417 197.875 39.3059 195.78 40.3536C197.069 40.8372 199.89 42.8521 201.905 51.8787C202.147 51.7981 202.389 51.7176 202.63 51.7176C202.792 51.7176 202.872 51.7176 203.033 51.7176C205.21 41.6431 208.353 40.3536 209.32 40.1924C207.305 39.3059 205.048 38.7417 202.63 38.7417ZM203.598 56.1503C203.598 56.2309 203.598 56.2309 203.598 56.1503V56.1503ZM201.905 56.3115C201.583 56.2309 201.26 55.9891 200.938 55.7473C194.087 62.195 190.541 62.1144 189.252 61.7114C191.508 65.6606 195.458 68.4814 200.132 69.2067C199.407 68.159 198.278 64.9352 201.905 56.3115ZM200.535 53.2489C191.186 49.0579 190.541 45.7535 190.622 44.7058C188.607 47.2848 187.398 50.5892 187.398 54.1354C187.398 55.5055 187.559 56.7145 187.882 58.004C188.607 56.7951 191.105 54.4578 200.374 54.3772C200.374 54.2966 200.374 54.216 200.374 54.1354C200.374 53.813 200.374 53.4907 200.535 53.2489ZM213.914 43.7386C213.914 45.0281 212.947 48.252 204.645 52.9265C204.807 53.2489 204.968 53.5712 204.968 53.9742C214.236 53.1683 216.976 55.3443 217.782 56.4727C217.863 55.7473 217.944 54.9414 217.944 54.216C218.024 50.1056 216.412 46.4789 213.914 43.7386ZM200.535 53.2489C191.186 49.0579 190.541 45.7535 190.622 44.7058C188.607 47.2848 187.398 50.5892 187.398 54.1354C187.398 55.5055 187.559 56.7145 187.882 58.004C188.607 56.7951 191.105 54.4578 200.374 54.3772C200.374 54.2966 200.374 54.216 200.374 54.1354C200.374 53.813 200.374 53.4907 200.535 53.2489ZM201.905 56.3115C201.583 56.2309 201.26 55.9891 200.938 55.7473C194.087 62.195 190.541 62.1144 189.252 61.7114C191.508 65.6606 195.458 68.4814 200.132 69.2067C199.407 68.159 198.278 64.9352 201.905 56.3115ZM203.598 56.1503C203.598 56.2309 203.598 56.2309 203.598 56.1503V56.1503ZM202.63 38.7417C200.132 38.7417 197.875 39.3059 195.78 40.3536C197.069 40.8372 199.89 42.8521 201.905 51.8787C202.147 51.7981 202.389 51.7176 202.63 51.7176C202.792 51.7176 202.872 51.7176 203.033 51.7176C205.21 41.6431 208.353 40.3536 209.32 40.1924C207.305 39.3059 205.048 38.7417 202.63 38.7417ZM204.404 55.5861C204.162 55.8279 203.92 56.0697 203.517 56.2309C207.95 64.0486 207.386 67.5142 206.66 68.8844C211.174 67.6754 214.8 64.4516 216.654 60.1801C215.687 60.7442 212.383 61.4696 204.404 55.5861ZM213.914 43.7386C213.914 45.0281 212.947 48.252 204.645 52.9265C204.807 53.2489 204.968 53.5712 204.968 53.9742C214.236 53.1683 216.976 55.3443 217.782 56.4727C217.863 55.7473 217.944 54.9414 217.944 54.216C218.024 50.1056 216.412 46.4789 213.914 43.7386ZM204.404 55.5861C204.162 55.8279 203.92 56.0697 203.517 56.2309C207.95 64.0486 207.386 67.5142 206.66 68.8844C211.174 67.6754 214.8 64.4516 216.654 60.1801C215.687 60.7442 212.383 61.4696 204.404 55.5861ZM202.63 38.7417C200.132 38.7417 197.875 39.3059 195.78 40.3536C197.069 40.8372 199.89 42.8521 201.905 51.8787C202.147 51.7981 202.389 51.7176 202.63 51.7176C202.792 51.7176 202.872 51.7176 203.033 51.7176C205.21 41.6431 208.353 40.3536 209.32 40.1924C207.305 39.3059 205.048 38.7417 202.63 38.7417ZM203.598 56.1503C203.598 56.2309 203.598 56.2309 203.598 56.1503V56.1503ZM201.905 56.3115C201.583 56.2309 201.26 55.9891 200.938 55.7473C194.087 62.195 190.541 62.1144 189.252 61.7114C191.508 65.6606 195.458 68.4814 200.132 69.2067C199.407 68.159 198.278 64.9352 201.905 56.3115ZM200.535 53.2489C191.186 49.0579 190.541 45.7535 190.622 44.7058C188.607 47.2848 187.398 50.5892 187.398 54.1354C187.398 55.5055 187.559 56.7145 187.882 58.004C188.607 56.7951 191.105 54.4578 200.374 54.3772C200.374 54.2966 200.374 54.216 200.374 54.1354C200.374 53.813 200.374 53.4907 200.535 53.2489ZM203.598 56.1503C203.598 56.2309 203.598 56.2309 203.598 56.1503V56.1503ZM203.598 56.1503C203.598 56.2309 203.598 56.2309 203.598 56.1503V56.1503ZM203.598 56.1503C203.598 56.2309 203.598 56.2309 203.598 56.1503V56.1503ZM203.598 56.1503C203.598 56.2309 203.598 56.2309 203.598 56.1503V56.1503ZM203.598 56.1503C203.598 56.2309 203.598 56.2309 203.598 56.1503V56.1503ZM203.598 56.1503C203.598 56.2309 203.598 56.2309 203.598 56.1503V56.1503ZM203.598 56.1503C203.598 56.2309 203.598 56.2309 203.598 56.1503V56.1503ZM203.598 56.1503C203.598 56.2309 203.598 56.2309 203.598 56.1503V56.1503ZM203.598 56.1503C203.598 56.2309 203.598 56.2309 203.598 56.1503V56.1503ZM203.598 56.1503C203.598 56.2309 203.598 56.2309 203.598 56.1503V56.1503Z" fill="#22C55E"/>
<path d="M200.374 54.0548C200.374 54.1354 200.374 54.216 200.374 54.2966C191.105 54.2966 188.526 56.7144 187.882 57.9234C187.559 56.7144 187.398 55.4249 187.398 54.0548C187.398 50.5086 188.607 47.2848 190.622 44.6251C190.541 45.6729 191.267 48.9773 200.535 53.1682C200.374 53.4906 200.374 53.813 200.374 54.0548Z" fill="#22C55E"/>
<path d="M200.213 69.2067C195.538 68.4814 191.589 65.6605 189.332 61.7114C190.622 62.1143 194.087 62.1949 201.019 55.7473C201.26 55.9891 201.583 56.2309 201.986 56.3115C198.278 64.9352 199.407 68.159 200.213 69.2067Z" fill="#22C55E"/>
<path d="M209.32 40.2729C208.353 40.4341 205.21 41.7236 203.033 51.798C202.872 51.798 202.792 51.798 202.63 51.798C202.389 51.798 202.147 51.798 201.905 51.9592C199.89 42.9326 197.069 40.9177 195.78 40.4341C197.875 39.3864 200.132 38.8222 202.63 38.8222C205.048 38.7416 207.305 39.3058 209.32 40.2729Z" fill="#22C55E"/>
<path d="M216.735 60.18C214.881 64.371 211.254 67.5948 206.741 68.8843C207.386 67.5948 207.95 64.1292 203.598 56.2308C203.92 56.0696 204.242 55.9084 204.484 55.5861C212.383 61.4695 215.687 60.7442 216.735 60.18Z" fill="#22C55E"/>
<path d="M218.024 54.0547C218.024 54.8607 217.944 55.586 217.863 56.3114C217.057 55.1831 214.317 53.0876 205.048 53.8129C205.048 53.41 204.887 53.0876 204.726 52.7652C213.027 48.1713 213.994 44.8669 213.994 43.5773C216.412 46.4788 218.024 50.1056 218.024 54.0547Z" fill="#22C55E"/>
<path d="M203.598 56.1502C203.598 56.2308 203.598 56.2308 203.598 56.1502V56.1502ZM203.598 56.1502C203.598 56.2308 203.598 56.2308 203.598 56.1502V56.1502ZM203.598 56.1502C203.598 56.2308 203.598 56.2308 203.598 56.1502V56.1502ZM203.598 56.1502C203.598 56.2308 203.598 56.2308 203.598 56.1502V56.1502ZM203.598 56.1502C203.598 56.2308 203.598 56.2308 203.598 56.1502V56.1502ZM203.598 56.1502C203.598 56.2308 203.598 56.2308 203.598 56.1502V56.1502ZM203.598 56.1502C203.598 56.2308 203.598 56.2308 203.598 56.1502V56.1502ZM203.598 56.1502C203.598 56.2308 203.598 56.2308 203.598 56.1502V56.1502ZM203.598 56.1502C203.598 56.2308 203.598 56.2308 203.598 56.1502V56.1502ZM203.598 56.1502C203.598 56.2308 203.598 56.2308 203.598 56.1502V56.1502ZM213.914 43.7385C213.914 45.028 212.947 48.2518 204.645 52.9264C204.807 53.2487 204.968 53.5711 204.968 53.9741C214.236 53.1681 216.976 55.3442 217.782 56.4726C217.863 55.7472 217.944 54.9412 217.944 54.2159C218.024 50.1055 216.412 46.4787 213.914 43.7385ZM204.404 55.586C204.162 55.8278 203.92 56.0696 203.517 56.2308C207.95 64.0485 207.386 67.5141 206.66 68.8842C211.174 67.6753 214.8 64.4515 216.654 60.1799C215.687 60.7441 212.383 61.4695 204.404 55.586ZM202.63 38.7416C200.132 38.7416 197.875 39.3057 195.78 40.3535C197.069 40.8371 199.89 42.8519 201.905 51.8786C202.147 51.798 202.389 51.7174 202.63 51.7174C202.792 51.7174 202.872 51.7174 203.033 51.7174C205.21 41.643 208.353 40.3535 209.32 40.1923C207.305 39.3057 205.048 38.7416 202.63 38.7416ZM203.598 56.1502C203.598 56.2308 203.598 56.2308 203.598 56.1502V56.1502ZM201.905 56.3114C201.583 56.2308 201.26 55.989 200.938 55.7472C194.087 62.1948 190.541 62.1142 189.252 61.7113C191.508 65.6604 195.457 68.4813 200.132 69.2066C199.407 68.1589 198.278 64.9351 201.905 56.3114ZM200.535 53.2487C191.186 49.0578 190.541 45.7534 190.622 44.7056C188.607 47.2847 187.398 50.5891 187.398 54.1353C187.398 55.5054 187.559 56.7143 187.882 58.0039C188.607 56.7949 191.105 54.4577 200.374 54.3771C200.374 54.2965 200.374 54.2159 200.374 54.1353C200.374 53.8129 200.374 53.4905 200.535 53.2487ZM203.598 56.1502C203.598 56.2308 203.598 56.2308 203.598 56.1502V56.1502ZM203.598 56.1502C203.598 56.2308 203.598 56.2308 203.598 56.1502V56.1502ZM203.598 56.1502C203.598 56.2308 203.598 56.2308 203.598 56.1502V56.1502ZM203.598 56.1502C203.598 56.2308 203.598 56.2308 203.598 56.1502V56.1502ZM203.598 56.1502C203.598 56.2308 203.598 56.2308 203.598 56.1502V56.1502ZM203.598 56.1502C203.598 56.2308 203.598 56.2308 203.598 56.1502V56.1502ZM203.598 56.1502C203.598 56.2308 203.598 56.2308 203.598 56.1502V56.1502ZM203.598 56.1502C203.598 56.2308 203.598 56.2308 203.598 56.1502V56.1502ZM203.598 56.1502C203.598 56.2308 203.598 56.2308 203.598 56.1502V56.1502ZM203.598 56.1502C203.598 56.2308 203.598 56.2308 203.598 56.1502V56.1502Z" fill="#22C55E"/>
<path d="M204.968 54.0547C204.968 54.6189 204.807 55.1024 204.484 55.5054C204.242 55.7472 204.001 55.989 203.598 56.1502C203.356 56.2308 203.033 56.3114 202.711 56.3114C202.469 56.3114 202.228 56.3114 201.986 56.2308C201.663 56.1502 201.341 55.9084 201.019 55.6666C200.696 55.3442 200.454 54.8607 200.374 54.3771C200.374 54.3771 200.374 54.3771 200.374 54.2965C200.374 54.2159 200.374 54.1353 200.374 54.0547C200.374 53.7323 200.454 53.4905 200.535 53.1682V53.0876C200.777 52.5234 201.26 52.0398 201.905 51.798C201.905 51.798 201.905 51.798 201.986 51.798C202.228 51.7174 202.469 51.6368 202.711 51.6368C202.872 51.6368 202.953 51.6368 203.114 51.6368H203.195C203.839 51.798 204.404 52.1204 204.726 52.6846C204.887 53.007 205.048 53.3293 205.048 53.7323C204.968 53.9741 204.968 54.0547 204.968 54.0547Z" fill="#22C55E"/>
</svg>
