<svg width="216" height="77" viewBox="0 0 216 77" fill="none" xmlns="http://www.w3.org/2000/svg">
<path d="M164.81 18.097C164.81 18.097 160.802 13.5051 155.396 11.2921L154.805 21.795L164.133 21.4778C164.133 21.4778 166.879 20.1659 164.81 18.097ZM164.81 18.097C164.81 18.097 160.802 13.5051 155.396 11.2921L154.805 21.795L164.133 21.4778C164.133 21.4778 166.879 20.1659 164.81 18.097ZM164.81 18.097C164.81 18.097 160.802 13.5051 155.396 11.2921L154.805 21.795L164.133 21.4778C164.133 21.4778 166.879 20.1659 164.81 18.097ZM164.81 18.097C164.81 18.097 160.802 13.5051 155.396 11.2921L154.805 21.795L164.133 21.4778C164.133 21.4778 166.879 20.1659 164.81 18.097ZM164.81 18.097C164.81 18.097 160.802 13.5051 155.396 11.2921L154.805 21.795L164.133 21.4778C164.133 21.4778 166.879 20.1659 164.81 18.097ZM164.81 18.097C164.81 18.097 160.802 13.5051 155.396 11.2921L154.805 21.795L164.133 21.4778C164.133 21.4778 166.879 20.1659 164.81 18.097ZM164.81 18.097C164.81 18.097 160.802 13.5051 155.396 11.2921L154.805 21.795L164.133 21.4778C164.133 21.4778 166.879 20.1659 164.81 18.097ZM164.81 18.097C164.81 18.097 160.802 13.5051 155.396 11.2921L154.805 21.795L164.133 21.4778C164.133 21.4778 166.879 20.1659 164.81 18.097ZM164.81 18.097C164.81 18.097 160.802 13.5051 155.396 11.2921L154.805 21.795L164.133 21.4778C164.133 21.4778 166.879 20.1659 164.81 18.097ZM164.81 18.097C164.81 18.097 160.802 13.5051 155.396 11.2921L154.805 21.795L164.133 21.4778C164.133 21.4778 166.879 20.1659 164.81 18.097ZM164.81 18.097C164.81 18.097 160.802 13.5051 155.396 11.2921L154.805 21.795L164.133 21.4778C164.133 21.4778 166.879 20.1659 164.81 18.097ZM164.81 18.097C164.81 18.097 160.802 13.5051 155.396 11.2921L154.805 21.795L164.133 21.4778C164.133 21.4778 166.879 20.1659 164.81 18.097ZM164.81 18.097C164.81 18.097 160.802 13.5051 155.396 11.2921L154.805 21.795L164.133 21.4778C164.133 21.4778 166.879 20.1659 164.81 18.097ZM164.81 18.097C164.81 18.097 160.802 13.5051 155.396 11.2921L154.805 21.795L164.133 21.4778C164.133 21.4778 166.879 20.1659 164.81 18.097ZM164.81 18.097C164.81 18.097 160.802 13.5051 155.396 11.2921L154.805 21.795L164.133 21.4778C164.133 21.4778 166.879 20.1659 164.81 18.097ZM164.81 18.097C164.81 18.097 160.802 13.5051 155.396 11.2921L154.805 21.795L164.133 21.4778C164.133 21.4778 166.879 20.1659 164.81 18.097ZM164.81 18.097C164.81 18.097 160.802 13.5051 155.396 11.2921L154.805 21.795L164.133 21.4778C164.133 21.4778 166.879 20.1659 164.81 18.097ZM164.81 18.097C164.81 18.097 160.802 13.5051 155.396 11.2921L154.805 21.795L164.133 21.4778C164.133 21.4778 166.879 20.1659 164.81 18.097ZM215.631 50.2184L215.962 41.287C215.962 41.287 213.872 39.7227 213.331 38.2234C212.863 36.9258 212.935 32.9683 212.617 31.5843C210.217 32.1393 206.526 31.9303 206.526 31.9303L203.463 27.2014C205.207 26.668 211.024 22.6312 211.392 22.3789C211.399 22.3717 211.406 22.3645 211.406 22.3645L210.628 20.3533L197.415 17.614C197.415 17.614 170.858 4.58092 154.884 2.5409C138.903 0.49366 97.8136 -1.00572 85.3788 6.38307C72.944 13.7719 50.5974 23.8639 50.5974 23.8639C50.5974 23.8639 14.1941 27.8286 4.64273 36.8393C4.64273 36.8393 0.980775 41.1068 1.70163 43.6298C1.70163 43.6298 0.223875 45.0355 0.223875 45.7131C0.223875 46.3907 -0.345603 53.6569 0.497801 53.8371C1.3412 54.0174 5.24105 54.3201 5.84657 55.5167C6.44488 56.7206 12.6947 61.9468 10.1717 62.2495C7.64871 62.5451 0.497801 60.8078 0.497801 60.8078C0.497801 60.8078 1.70163 62.1342 2.53783 62.2856C3.38123 62.4298 10.9502 64.2319 18.9373 64.65C18.9373 64.65 17.2001 44.1056 34.7385 42.0655C52.277 40.0255 56.2417 61.4062 55.0451 64.65L152.779 63.6913C152.779 63.6913 153.32 43.5073 170.534 41.3447C187.741 39.1821 190.624 57.0233 190.17 61.0818C190.17 61.0818 208.465 59.0922 212.517 56.6629L215.854 52.8784C215.854 52.8784 216.215 51.033 215.631 50.2184ZM162.568 5.12157L196.268 18.3998L194.048 19.1206L161.552 6.14519L162.568 5.12157ZM41.9471 30.8057C48.9899 30.2146 50.8858 25.8823 51.1164 25.284C50.9362 25.9904 49.2278 31.6491 42.0336 31.6996C35.1927 31.7501 24.041 33.6099 21.7415 33.9991C24.041 33.5306 35.1855 31.368 41.9471 30.8057ZM8.78767 42.6638L13.8337 37.5602C12.4424 36.4789 6.44488 36.8393 6.44488 36.8393C12.2694 35.1597 17.2001 36.4212 17.2001 36.4212C17.2001 36.4212 9.63107 45.4319 7.76405 44.0479C5.96911 42.7143 3.4389 43.4496 3.26589 43.5C4.23905 42.1232 8.78767 42.6638 8.78767 42.6638ZM35.4594 38.4612C20.5016 38.5477 16.1765 53.5993 16.1765 53.5993C16.1765 53.5993 0.0436602 54.3778 1.11053 52.518L15.0375 53.1812C15.0375 53.1812 19.1176 36.7168 35.2792 37.1997C51.4408 37.6827 54.4756 48.9137 54.4756 48.9137C54.4756 48.9137 50.4172 38.3747 35.4594 38.4612ZM54.8505 36.7816H54.2738C53.8052 36.7816 53.4232 36.3996 53.4232 35.9238C53.4232 35.4481 53.8052 35.066 54.2738 35.066H54.8505C55.319 35.066 55.7011 35.4481 55.7011 35.9238C55.7011 36.3996 55.319 36.7816 54.8505 36.7816ZM60.0335 29.0468C59.7451 29.674 56.5589 37.1132 59.3631 54.6589C59.154 54.0678 54.0359 39.0812 60.0335 29.0468ZM142.269 53.5993C142.269 53.5993 150.436 55.2716 148.757 56.7134C147.07 58.1623 59.3703 58.8831 59.3703 58.8831C59.3703 58.8831 61.6482 56.2448 65.4976 56.1223C69.3397 55.9997 142.269 53.5993 142.269 53.5993ZM100.214 33.2927C100.214 32.8674 100.567 32.5142 101 32.5142H109.946C110.378 32.5142 110.731 32.8674 110.731 33.2927C110.731 33.7252 110.378 34.0784 109.946 34.0784H101C100.567 34.0784 100.214 33.7252 100.214 33.2927ZM112.411 52.4891C112.411 52.4891 109.261 37.5602 113.399 28.4557C113.399 28.4557 111.957 44.4588 112.411 52.4891ZM150.162 31.8726C150.162 31.3824 150.566 30.9787 151.056 30.9787H159.728C160.218 30.9787 160.615 31.3824 160.615 31.8726C160.615 32.3628 160.218 32.7593 159.728 32.7593H151.056C150.566 32.7593 150.162 32.3628 150.162 31.8726ZM166.893 25.1182C166.829 25.2479 166.756 25.3921 166.677 25.5507C166.533 25.8318 166.374 26.1418 166.201 26.4878C166.021 26.8482 165.819 27.2519 165.596 27.6772C165.423 28.0232 165.243 28.3836 165.055 28.7585C164.954 28.9459 164.861 29.1406 164.76 29.3352C164.608 29.6379 164.45 29.9479 164.284 30.2723C164.024 30.7913 163.75 31.3248 163.469 31.887C163.354 32.1105 163.239 32.3412 163.123 32.5718C163.008 32.7953 162.9 33.0188 162.785 33.2422C161.537 35.722 160.139 38.4901 158.755 41.2582C158.553 41.6618 158.351 42.0583 158.149 42.462C158.099 42.5701 158.041 42.6783 157.991 42.7864C157.868 43.0243 157.753 43.2549 157.638 43.4928C157.443 43.8821 157.248 44.2714 157.054 44.6606C156.859 45.0499 156.664 45.4391 156.477 45.8212C156.095 46.5853 155.72 47.335 155.36 48.0631C155.143 48.51 154.927 48.9497 154.711 49.375C154.495 49.8003 154.293 50.2256 154.091 50.6293C153.889 51.0402 153.695 51.4439 153.5 51.8259C153.031 52.7919 152.599 53.6786 152.217 54.4643C152.08 54.7454 151.957 55.0193 151.835 55.2716C151.748 55.4447 151.669 55.6104 151.597 55.7762C151.532 55.906 151.474 56.0358 151.417 56.1583C151.359 56.2808 151.301 56.3962 151.251 56.5115C151.15 56.735 151.056 56.944 150.97 57.1243C150.847 57.3982 150.746 57.6289 150.674 57.8019C149.117 61.6512 144.186 61.7666 144.186 61.7666H57.4456C57.4456 61.7666 141.663 59.8491 144.431 59.8491C147.192 59.8491 148.98 58.1623 148.98 58.1623L167.124 24.664C167.059 24.7938 166.98 24.9452 166.893 25.1182ZM168.097 23.6837L114.119 25.5723L60.0551 27.4105C80.6932 7.22647 98.621 3.94657 127.282 4.04028C155.929 4.13399 165.034 14.7594 168.097 17.2824C171.161 19.8054 168.097 23.6837 168.097 23.6837ZM189.449 50.1752C185.124 38.281 169.813 37.6539 169.813 37.6539C185.311 36.5726 190.53 46.3907 190.53 46.3907C192.606 47.198 193.327 46.3907 193.327 46.3907C195.043 43.5938 200.896 43.5938 206.75 43.7812C212.61 43.9542 214.232 42.3395 214.232 42.3395C213.958 44.7039 206.123 45.9437 200.896 45.9437C195.67 45.9437 193.774 50.1752 193.774 50.1752C191.251 50.9897 189.449 50.1752 189.449 50.1752ZM211.651 55.942C211.651 55.942 194.589 60.3249 191.648 59.7842C191.648 59.7842 192.095 58.0325 191.222 55.9276C191.222 55.9276 209.128 55.7042 214.232 53.5993L211.651 55.942ZM214.593 52.4603C207.564 54.6229 194.106 54.0822 194.106 54.0822C202.698 54.0174 214.593 50.8384 214.593 50.8384C216.157 51.0763 214.593 52.4603 214.593 52.4603ZM155.396 11.2921L154.805 21.795L164.133 21.4778C164.133 21.4778 166.879 20.1659 164.81 18.097C164.81 18.097 160.802 13.5051 155.396 11.2921ZM164.81 18.097C164.81 18.097 160.802 13.5051 155.396 11.2921L154.805 21.795L164.133 21.4778C164.133 21.4778 166.879 20.1659 164.81 18.097ZM164.81 18.097C164.81 18.097 160.802 13.5051 155.396 11.2921L154.805 21.795L164.133 21.4778C164.133 21.4778 166.879 20.1659 164.81 18.097ZM164.81 18.097C164.81 18.097 160.802 13.5051 155.396 11.2921L154.805 21.795L164.133 21.4778C164.133 21.4778 166.879 20.1659 164.81 18.097ZM164.81 18.097C164.81 18.097 160.802 13.5051 155.396 11.2921L154.805 21.795L164.133 21.4778C164.133 21.4778 166.879 20.1659 164.81 18.097ZM164.81 18.097C164.81 18.097 160.802 13.5051 155.396 11.2921L154.805 21.795L164.133 21.4778C164.133 21.4778 166.879 20.1659 164.81 18.097ZM164.81 18.097C164.81 18.097 160.802 13.5051 155.396 11.2921L154.805 21.795L164.133 21.4778C164.133 21.4778 166.879 20.1659 164.81 18.097ZM164.81 18.097C164.81 18.097 160.802 13.5051 155.396 11.2921L154.805 21.795L164.133 21.4778C164.133 21.4778 166.879 20.1659 164.81 18.097ZM164.81 18.097C164.81 18.097 160.802 13.5051 155.396 11.2921L154.805 21.795L164.133 21.4778C164.133 21.4778 166.879 20.1659 164.81 18.097ZM164.81 18.097C164.81 18.097 160.802 13.5051 155.396 11.2921L154.805 21.795L164.133 21.4778C164.133 21.4778 166.879 20.1659 164.81 18.097ZM164.81 18.097C164.81 18.097 160.802 13.5051 155.396 11.2921L154.805 21.795L164.133 21.4778C164.133 21.4778 166.879 20.1659 164.81 18.097ZM164.81 18.097C164.81 18.097 160.802 13.5051 155.396 11.2921L154.805 21.795L164.133 21.4778C164.133 21.4778 166.879 20.1659 164.81 18.097ZM164.81 18.097C164.81 18.097 160.802 13.5051 155.396 11.2921L154.805 21.795L164.133 21.4778C164.133 21.4778 166.879 20.1659 164.81 18.097ZM164.81 18.097C164.81 18.097 160.802 13.5051 155.396 11.2921L154.805 21.795L164.133 21.4778C164.133 21.4778 166.879 20.1659 164.81 18.097ZM164.81 18.097C164.81 18.097 160.802 13.5051 155.396 11.2921L154.805 21.795L164.133 21.4778C164.133 21.4778 166.879 20.1659 164.81 18.097ZM164.81 18.097C164.81 18.097 160.802 13.5051 155.396 11.2921L154.805 21.795L164.133 21.4778C164.133 21.4778 166.879 20.1659 164.81 18.097ZM164.81 18.097C164.81 18.097 160.802 13.5051 155.396 11.2921L154.805 21.795L164.133 21.4778C164.133 21.4778 166.879 20.1659 164.81 18.097Z" fill="#22C55E"/>
<path d="M212.329 30.5465L211.961 28.4633C212.113 29.2706 212.25 30.0419 212.329 30.5465Z" fill="#22C55E"/>
<path d="M211.406 22.3647C211.406 22.3647 211.399 22.372 211.392 22.3792C211.169 22.5738 211.082 22.9919 211.075 23.4605C211.075 23.4605 206.44 27.3747 205.582 27.6919L207.161 30.806H212.372C212.408 31.015 212.43 31.1376 212.43 31.1376C212.509 31.2025 212.567 31.3611 212.617 31.5845C212.704 31.5701 212.79 31.5485 212.877 31.5268L211.406 22.3647ZM212.12 29.3427C212.171 29.6238 212.221 29.8905 212.257 30.1212L212.12 29.3427Z" fill="#22C55E"/>
<path d="M1.12499 55.0916C1.12499 55.0916 0.851066 58.0183 2.42975 60.0943C2.42975 60.0943 7.56225 61.5216 8.96072 61.1324C8.96072 61.1324 6.01241 57.4848 5.03204 56.6703C4.05888 55.8557 3.33803 54.9979 1.12499 55.0916Z" fill="#22C55E"/>
<path d="M164.81 18.0971C164.81 18.0971 160.802 13.5053 155.396 11.2922L154.805 21.7951L164.133 21.478C164.133 21.478 166.879 20.166 164.81 18.0971ZM164.81 18.0971C164.81 18.0971 160.802 13.5053 155.396 11.2922L154.805 21.7951L164.133 21.478C164.133 21.478 166.879 20.166 164.81 18.0971ZM164.81 18.0971C164.81 18.0971 160.802 13.5053 155.396 11.2922L154.805 21.7951L164.133 21.478C164.133 21.478 166.879 20.166 164.81 18.0971Z" fill="#22C55E"/>
<path d="M164.81 18.0971C164.81 18.0971 160.802 13.5053 155.396 11.2922L154.805 21.7951L164.133 21.478C164.133 21.478 166.879 20.166 164.81 18.0971Z" fill="#22C55E"/>
<path d="M166.656 17.9171C164.327 14.0605 150.379 3.8604 117.875 5.1219C85.3789 6.3834 74.6237 17.3188 63.6955 25.724L165.452 22.3648C165.452 22.3648 168.991 21.7737 166.656 17.9171ZM109.83 22.8406L72.3458 24.167C72.3458 24.167 77.7522 15.4302 90.2447 10.9464C102.737 6.46269 113.91 6.26085 113.91 6.26085L109.83 22.8406ZM153.442 21.7593L119.202 22.4802L120.968 6.26085C134.52 4.7038 154.041 10.7085 154.041 10.7085L153.442 21.7593ZM164.133 21.4782L154.805 21.7953L155.396 11.2924C160.802 13.5055 164.81 18.0973 164.81 18.0973C166.879 20.1662 164.133 21.4782 164.133 21.4782Z" fill="#22C55E"/>
<path d="M164.133 21.478L154.805 21.7951L155.396 11.2922C160.802 13.5053 164.81 18.0971 164.81 18.0971C166.879 20.166 164.133 21.478 164.133 21.478Z" fill="#22C55E"/>
<path d="M37.6653 61.9398L37.6725 61.9686L37.6797 61.9614C37.6797 61.9542 37.6725 61.9398 37.6653 61.9398ZM37.6653 61.9398L37.6725 61.9686L37.6797 61.9614C37.6797 61.9542 37.6725 61.9398 37.6653 61.9398ZM37.6653 61.9398L37.6725 61.9686L37.6797 61.9614C37.6797 61.9542 37.6725 61.9398 37.6653 61.9398ZM37.6653 61.9398L37.6725 61.9686L37.6797 61.9614C37.6797 61.9542 37.6725 61.9398 37.6653 61.9398ZM37.6653 61.9398L37.6725 61.9686L37.6797 61.9614C37.6797 61.9542 37.6725 61.9398 37.6653 61.9398ZM37.6653 61.9398L37.6725 61.9686L37.6797 61.9614C37.6797 61.9542 37.6725 61.9398 37.6653 61.9398ZM37.6653 61.9398L37.6725 61.9686L37.6797 61.9614C37.6797 61.9542 37.6725 61.9398 37.6653 61.9398ZM37.6653 61.9398L37.6725 61.9686L37.6797 61.9614C37.6797 61.9542 37.6725 61.9398 37.6653 61.9398ZM37.6653 61.9398L37.6725 61.9686L37.6797 61.9614C37.6797 61.9542 37.6725 61.9398 37.6653 61.9398ZM37.6653 61.9398L37.6725 61.9686L37.6797 61.9614C37.6797 61.9542 37.6725 61.9398 37.6653 61.9398ZM45.8542 52.1073C45.8542 53.1093 45.0901 55.6899 38.5159 59.3303C38.6673 59.5681 38.7538 59.8421 38.7754 60.1376C46.0921 59.5249 48.2763 61.2045 48.9107 62.0911C48.99 61.5 49.0404 60.9017 49.0404 60.2818C49.0404 57.1316 47.8294 54.2554 45.8542 52.1073ZM35.2504 59.6114C27.8976 56.3099 27.3714 53.6715 27.4147 52.8714C25.8072 54.9186 24.8556 57.4849 24.8556 60.2818C24.8556 61.3342 24.9854 62.3434 25.2449 63.3166C25.7927 62.3723 27.8184 60.5125 35.1279 60.4836C35.1206 60.4187 35.1134 60.3539 35.1134 60.289C35.1206 60.0439 35.1567 59.8132 35.2504 59.6114ZM36.3894 62.0191C36.1082 61.9326 35.8631 61.7812 35.6541 61.5793C30.226 66.6325 27.4723 66.5965 26.4559 66.2865C28.2365 69.4006 31.3578 71.6353 35.0341 72.2264C34.4142 71.383 33.4987 68.8456 36.3894 62.0191ZM37.6653 61.9398L37.6725 61.9686L37.6797 61.9614C37.6797 61.9542 37.6725 61.9398 37.6653 61.9398ZM36.9516 48.193C35.0053 48.193 33.1743 48.6543 31.5452 49.4689C32.5832 49.8221 34.8107 51.4224 36.3749 58.5445C36.5552 58.4796 36.7498 58.4508 36.9516 58.4508C37.0525 58.4508 37.1607 58.458 37.2544 58.4724C38.9484 50.5286 41.4426 49.5122 42.2067 49.3968C40.6208 48.6255 38.8403 48.193 36.9516 48.193ZM38.3501 61.4568C38.1699 61.673 37.9392 61.846 37.6797 61.9542C41.1614 68.1463 40.7145 70.8784 40.1883 71.9236C43.7205 70.9433 46.6039 68.3986 48.0456 65.0899C47.2311 65.5224 44.5999 66.0919 38.3501 61.4568ZM45.8542 52.1073C45.8542 53.1093 45.0901 55.6899 38.5159 59.3303C38.6673 59.5681 38.7538 59.8421 38.7754 60.1376C46.0921 59.5249 48.2763 61.2045 48.9107 62.0911C48.99 61.5 49.0404 60.9017 49.0404 60.2818C49.0404 57.1316 47.8294 54.2554 45.8542 52.1073ZM38.3501 61.4568C38.1699 61.673 37.9392 61.846 37.6797 61.9542C41.1614 68.1463 40.7145 70.8784 40.1883 71.9236C43.7205 70.9433 46.6039 68.3986 48.0456 65.0899C47.2311 65.5224 44.5999 66.0919 38.3501 61.4568ZM36.9516 48.193C35.0053 48.193 33.1743 48.6543 31.5452 49.4689C32.5832 49.8221 34.8107 51.4224 36.3749 58.5445C36.5552 58.4796 36.7498 58.4508 36.9516 58.4508C37.0525 58.4508 37.1607 58.458 37.2544 58.4724C38.9484 50.5286 41.4426 49.5122 42.2067 49.3968C40.6208 48.6255 38.8403 48.193 36.9516 48.193ZM37.6653 61.9398L37.6725 61.9686L37.6797 61.9614C37.6797 61.9542 37.6725 61.9398 37.6653 61.9398ZM36.3894 62.0191C36.1082 61.9326 35.8631 61.7812 35.6541 61.5793C30.226 66.6325 27.4723 66.5965 26.4559 66.2865C28.2365 69.4006 31.3578 71.6353 35.0341 72.2264C34.4142 71.383 33.4987 68.8456 36.3894 62.0191ZM35.2504 59.6114C27.8976 56.3099 27.3714 53.6715 27.4147 52.8714C25.8072 54.9186 24.8556 57.4849 24.8556 60.2818C24.8556 61.3342 24.9854 62.3434 25.2449 63.3166C25.7927 62.3723 27.8184 60.5125 35.1279 60.4836C35.1206 60.4187 35.1134 60.3539 35.1134 60.289C35.1206 60.0439 35.1567 59.8132 35.2504 59.6114ZM45.8542 52.1073C45.8542 53.1093 45.0901 55.6899 38.5159 59.3303C38.6673 59.5681 38.7538 59.8421 38.7754 60.1376C46.0921 59.5249 48.2763 61.2045 48.9107 62.0911C48.99 61.5 49.0404 60.9017 49.0404 60.2818C49.0404 57.1316 47.8294 54.2554 45.8542 52.1073ZM35.2504 59.6114C27.8976 56.3099 27.3714 53.6715 27.4147 52.8714C25.8072 54.9186 24.8556 57.4849 24.8556 60.2818C24.8556 61.3342 24.9854 62.3434 25.2449 63.3166C25.7927 62.3723 27.8184 60.5125 35.1279 60.4836C35.1206 60.4187 35.1134 60.3539 35.1134 60.289C35.1206 60.0439 35.1567 59.8132 35.2504 59.6114ZM36.3894 62.0191C36.1082 61.9326 35.8631 61.7812 35.6541 61.5793C30.226 66.6325 27.4723 66.5965 26.4559 66.2865C28.2365 69.4006 31.3578 71.6353 35.0341 72.2264C34.4142 71.383 33.4987 68.8456 36.3894 62.0191ZM37.6653 61.9398L37.6725 61.9686L37.6797 61.9614C37.6797 61.9542 37.6725 61.9398 37.6653 61.9398ZM36.9516 48.193C35.0053 48.193 33.1743 48.6543 31.5452 49.4689C32.5832 49.8221 34.8107 51.4224 36.3749 58.5445C36.5552 58.4796 36.7498 58.4508 36.9516 58.4508C37.0525 58.4508 37.1607 58.458 37.2544 58.4724C38.9484 50.5286 41.4426 49.5122 42.2067 49.3968C40.6208 48.6255 38.8403 48.193 36.9516 48.193ZM38.3501 61.4568C38.1699 61.673 37.9392 61.846 37.6797 61.9542C41.1614 68.1463 40.7145 70.8784 40.1883 71.9236C43.7205 70.9433 46.6039 68.3986 48.0456 65.0899C47.2311 65.5224 44.5999 66.0919 38.3501 61.4568ZM45.8542 52.1073C45.8542 53.1093 45.0901 55.6899 38.5159 59.3303C38.6673 59.5681 38.7538 59.8421 38.7754 60.1376C46.0921 59.5249 48.2763 61.2045 48.9107 62.0911C48.99 61.5 49.0404 60.9017 49.0404 60.2818C49.0404 57.1316 47.8294 54.2554 45.8542 52.1073ZM38.3501 61.4568C38.1699 61.673 37.9392 61.846 37.6797 61.9542C41.1614 68.1463 40.7145 70.8784 40.1883 71.9236C43.7205 70.9433 46.6039 68.3986 48.0456 65.0899C47.2311 65.5224 44.5999 66.0919 38.3501 61.4568ZM36.9516 48.193C35.0053 48.193 33.1743 48.6543 31.5452 49.4689C32.5832 49.8221 34.8107 51.4224 36.3749 58.5445C36.5552 58.4796 36.7498 58.4508 36.9516 58.4508C37.0525 58.4508 37.1607 58.458 37.2544 58.4724C38.9484 50.5286 41.4426 49.5122 42.2067 49.3968C40.6208 48.6255 38.8403 48.193 36.9516 48.193ZM37.6653 61.9398L37.6725 61.9686L37.6797 61.9614C37.6797 61.9542 37.6725 61.9398 37.6653 61.9398ZM36.3894 62.0191C36.1082 61.9326 35.8631 61.7812 35.6541 61.5793C30.226 66.6325 27.4723 66.5965 26.4559 66.2865C28.2365 69.4006 31.3578 71.6353 35.0341 72.2264C34.4142 71.383 33.4987 68.8456 36.3894 62.0191ZM35.2504 59.6114C27.8976 56.3099 27.3714 53.6715 27.4147 52.8714C25.8072 54.9186 24.8556 57.4849 24.8556 60.2818C24.8556 61.3342 24.9854 62.3434 25.2449 63.3166C25.7927 62.3723 27.8184 60.5125 35.1279 60.4836C35.1206 60.4187 35.1134 60.3539 35.1134 60.289C35.1206 60.0439 35.1567 59.8132 35.2504 59.6114ZM45.8542 52.1073C45.8542 53.1093 45.0901 55.6899 38.5159 59.3303C38.6673 59.5681 38.7538 59.8421 38.7754 60.1376C46.0921 59.5249 48.2763 61.2045 48.9107 62.0911C48.99 61.5 49.0404 60.9017 49.0404 60.2818C49.0404 57.1316 47.8294 54.2554 45.8542 52.1073ZM35.2504 59.6114C27.8976 56.3099 27.3714 53.6715 27.4147 52.8714C25.8072 54.9186 24.8556 57.4849 24.8556 60.2818C24.8556 61.3342 24.9854 62.3434 25.2449 63.3166C25.7927 62.3723 27.8184 60.5125 35.1279 60.4836C35.1206 60.4187 35.1134 60.3539 35.1134 60.289C35.1206 60.0439 35.1567 59.8132 35.2504 59.6114ZM36.3894 62.0191C36.1082 61.9326 35.8631 61.7812 35.6541 61.5793C30.226 66.6325 27.4723 66.5965 26.4559 66.2865C28.2365 69.4006 31.3578 71.6353 35.0341 72.2264C34.4142 71.383 33.4987 68.8456 36.3894 62.0191ZM37.6653 61.9398L37.6725 61.9686L37.6797 61.9614C37.6797 61.9542 37.6725 61.9398 37.6653 61.9398ZM36.9516 48.193C35.0053 48.193 33.1743 48.6543 31.5452 49.4689C32.5832 49.8221 34.8107 51.4224 36.3749 58.5445C36.5552 58.4796 36.7498 58.4508 36.9516 58.4508C37.0525 58.4508 37.1607 58.458 37.2544 58.4724C38.9484 50.5286 41.4426 49.5122 42.2067 49.3968C40.6208 48.6255 38.8403 48.193 36.9516 48.193ZM38.3501 61.4568C38.1699 61.673 37.9392 61.846 37.6797 61.9542C41.1614 68.1463 40.7145 70.8784 40.1883 71.9236C43.7205 70.9433 46.6039 68.3986 48.0456 65.0899C47.2311 65.5224 44.5999 66.0919 38.3501 61.4568ZM45.8542 52.1073C45.8542 53.1093 45.0901 55.6899 38.5159 59.3303C38.6673 59.5681 38.7538 59.8421 38.7754 60.1376C46.0921 59.5249 48.2763 61.2045 48.9107 62.0911C48.99 61.5 49.0404 60.9017 49.0404 60.2818C49.0404 57.1316 47.8294 54.2554 45.8542 52.1073ZM38.3501 61.4568C38.1699 61.673 37.9392 61.846 37.6797 61.9542C41.1614 68.1463 40.7145 70.8784 40.1883 71.9236C43.7205 70.9433 46.6039 68.3986 48.0456 65.0899C47.2311 65.5224 44.5999 66.0919 38.3501 61.4568ZM36.9516 48.193C35.0053 48.193 33.1743 48.6543 31.5452 49.4689C32.5832 49.8221 34.8107 51.4224 36.3749 58.5445C36.5552 58.4796 36.7498 58.4508 36.9516 58.4508C37.0525 58.4508 37.1607 58.458 37.2544 58.4724C38.9484 50.5286 41.4426 49.5122 42.2067 49.3968C40.6208 48.6255 38.8403 48.193 36.9516 48.193ZM37.6653 61.9398L37.6725 61.9686L37.6797 61.9614C37.6797 61.9542 37.6725 61.9398 37.6653 61.9398ZM36.3894 62.0191C36.1082 61.9326 35.8631 61.7812 35.6541 61.5793C30.226 66.6325 27.4723 66.5965 26.4559 66.2865C28.2365 69.4006 31.3578 71.6353 35.0341 72.2264C34.4142 71.383 33.4987 68.8456 36.3894 62.0191ZM35.2504 59.6114C27.8976 56.3099 27.3714 53.6715 27.4147 52.8714C25.8072 54.9186 24.8556 57.4849 24.8556 60.2818C24.8556 61.3342 24.9854 62.3434 25.2449 63.3166C25.7927 62.3723 27.8184 60.5125 35.1279 60.4836C35.1206 60.4187 35.1134 60.3539 35.1134 60.289C35.1206 60.0439 35.1567 59.8132 35.2504 59.6114ZM45.8542 52.1073C45.8542 53.1093 45.0901 55.6899 38.5159 59.3303C38.6673 59.5681 38.7538 59.8421 38.7754 60.1376C46.0921 59.5249 48.2763 61.2045 48.9107 62.0911C48.99 61.5 49.0404 60.9017 49.0404 60.2818C49.0404 57.1316 47.8294 54.2554 45.8542 52.1073ZM35.2504 59.6114C27.8976 56.3099 27.3714 53.6715 27.4147 52.8714C25.8072 54.9186 24.8556 57.4849 24.8556 60.2818C24.8556 61.3342 24.9854 62.3434 25.2449 63.3166C25.7927 62.3723 27.8184 60.5125 35.1279 60.4836C35.1206 60.4187 35.1134 60.3539 35.1134 60.289C35.1206 60.0439 35.1567 59.8132 35.2504 59.6114ZM36.3894 62.0191C36.1082 61.9326 35.8631 61.7812 35.6541 61.5793C30.226 66.6325 27.4723 66.5965 26.4559 66.2865C28.2365 69.4006 31.3578 71.6353 35.0341 72.2264C34.4142 71.383 33.4987 68.8456 36.3894 62.0191ZM37.6653 61.9398L37.6725 61.9686L37.6797 61.9614C37.6797 61.9542 37.6725 61.9398 37.6653 61.9398ZM36.9516 48.193C35.0053 48.193 33.1743 48.6543 31.5452 49.4689C32.5832 49.8221 34.8107 51.4224 36.3749 58.5445C36.5552 58.4796 36.7498 58.4508 36.9516 58.4508C37.0525 58.4508 37.1607 58.458 37.2544 58.4724C38.9484 50.5286 41.4426 49.5122 42.2067 49.3968C40.6208 48.6255 38.8403 48.193 36.9516 48.193ZM38.3501 61.4568C38.1699 61.673 37.9392 61.846 37.6797 61.9542C41.1614 68.1463 40.7145 70.8784 40.1883 71.9236C43.7205 70.9433 46.6039 68.3986 48.0456 65.0899C47.2311 65.5224 44.5999 66.0919 38.3501 61.4568ZM45.8542 52.1073C45.8542 53.1093 45.0901 55.6899 38.5159 59.3303C38.6673 59.5681 38.7538 59.8421 38.7754 60.1376C46.0921 59.5249 48.2763 61.2045 48.9107 62.0911C48.99 61.5 49.0404 60.9017 49.0404 60.2818C49.0404 57.1316 47.8294 54.2554 45.8542 52.1073ZM38.3501 61.4568C38.1699 61.673 37.9392 61.846 37.6797 61.9542C41.1614 68.1463 40.7145 70.8784 40.1883 71.9236C43.7205 70.9433 46.6039 68.3986 48.0456 65.0899C47.2311 65.5224 44.5999 66.0919 38.3501 61.4568ZM36.9516 48.193C35.0053 48.193 33.1743 48.6543 31.5452 49.4689C32.5832 49.8221 34.8107 51.4224 36.3749 58.5445C36.5552 58.4796 36.7498 58.4508 36.9516 58.4508C37.0525 58.4508 37.1607 58.458 37.2544 58.4724C38.9484 50.5286 41.4426 49.5122 42.2067 49.3968C40.6208 48.6255 38.8403 48.193 36.9516 48.193ZM37.6653 61.9398L37.6725 61.9686L37.6797 61.9614C37.6797 61.9542 37.6725 61.9398 37.6653 61.9398ZM36.3894 62.0191C36.1082 61.9326 35.8631 61.7812 35.6541 61.5793C30.226 66.6325 27.4723 66.5965 26.4559 66.2865C28.2365 69.4006 31.3578 71.6353 35.0341 72.2264C34.4142 71.383 33.4987 68.8456 36.3894 62.0191ZM35.2504 59.6114C27.8976 56.3099 27.3714 53.6715 27.4147 52.8714C25.8072 54.9186 24.8556 57.4849 24.8556 60.2818C24.8556 61.3342 24.9854 62.3434 25.2449 63.3166C25.7927 62.3723 27.8184 60.5125 35.1279 60.4836C35.1206 60.4187 35.1134 60.3539 35.1134 60.289C35.1206 60.0439 35.1567 59.8132 35.2504 59.6114ZM45.8542 52.1073C45.8542 53.1093 45.0901 55.6899 38.5159 59.3303C38.6673 59.5681 38.7538 59.8421 38.7754 60.1376C46.0921 59.5249 48.2763 61.2045 48.9107 62.0911C48.99 61.5 49.0404 60.9017 49.0404 60.2818C49.0404 57.1316 47.8294 54.2554 45.8542 52.1073ZM35.2504 59.6114C27.8976 56.3099 27.3714 53.6715 27.4147 52.8714C25.8072 54.9186 24.8556 57.4849 24.8556 60.2818C24.8556 61.3342 24.9854 62.3434 25.2449 63.3166C25.7927 62.3723 27.8184 60.5125 35.1279 60.4836C35.1206 60.4187 35.1134 60.3539 35.1134 60.289C35.1206 60.0439 35.1567 59.8132 35.2504 59.6114ZM36.3894 62.0191C36.1082 61.9326 35.8631 61.7812 35.6541 61.5793C30.226 66.6325 27.4723 66.5965 26.4559 66.2865C28.2365 69.4006 31.3578 71.6353 35.0341 72.2264C34.4142 71.383 33.4987 68.8456 36.3894 62.0191ZM37.6653 61.9398L37.6725 61.9686L37.6797 61.9614C37.6797 61.9542 37.6725 61.9398 37.6653 61.9398ZM36.9516 48.193C35.0053 48.193 33.1743 48.6543 31.5452 49.4689C32.5832 49.8221 34.8107 51.4224 36.3749 58.5445C36.5552 58.4796 36.7498 58.4508 36.9516 58.4508C37.0525 58.4508 37.1607 58.458 37.2544 58.4724C38.9484 50.5286 41.4426 49.5122 42.2067 49.3968C40.6208 48.6255 38.8403 48.193 36.9516 48.193ZM38.3501 61.4568C38.1699 61.673 37.9392 61.846 37.6797 61.9542C41.1614 68.1463 40.7145 70.8784 40.1883 71.9236C43.7205 70.9433 46.6039 68.3986 48.0456 65.0899C47.2311 65.5224 44.5999 66.0919 38.3501 61.4568ZM45.8542 52.1073C45.8542 53.1093 45.0901 55.6899 38.5159 59.3303C38.6673 59.5681 38.7538 59.8421 38.7754 60.1376C46.0921 59.5249 48.2763 61.2045 48.9107 62.0911C48.99 61.5 49.0404 60.9017 49.0404 60.2818C49.0404 57.1316 47.8294 54.2554 45.8542 52.1073ZM38.3501 61.4568C38.1699 61.673 37.9392 61.846 37.6797 61.9542C41.1614 68.1463 40.7145 70.8784 40.1883 71.9236C43.7205 70.9433 46.6039 68.3986 48.0456 65.0899C47.2311 65.5224 44.5999 66.0919 38.3501 61.4568ZM36.9516 48.193C35.0053 48.193 33.1743 48.6543 31.5452 49.4689C32.5832 49.8221 34.8107 51.4224 36.3749 58.5445C36.5552 58.4796 36.7498 58.4508 36.9516 58.4508C37.0525 58.4508 37.1607 58.458 37.2544 58.4724C38.9484 50.5286 41.4426 49.5122 42.2067 49.3968C40.6208 48.6255 38.8403 48.193 36.9516 48.193ZM37.6653 61.9398L37.6725 61.9686L37.6797 61.9614C37.6797 61.9542 37.6725 61.9398 37.6653 61.9398ZM36.3894 62.0191C36.1082 61.9326 35.8631 61.7812 35.6541 61.5793C30.226 66.6325 27.4723 66.5965 26.4559 66.2865C28.2365 69.4006 31.3578 71.6353 35.0341 72.2264C34.4142 71.383 33.4987 68.8456 36.3894 62.0191ZM35.2504 59.6114C27.8976 56.3099 27.3714 53.6715 27.4147 52.8714C25.8072 54.9186 24.8556 57.4849 24.8556 60.2818C24.8556 61.3342 24.9854 62.3434 25.2449 63.3166C25.7927 62.3723 27.8184 60.5125 35.1279 60.4836C35.1206 60.4187 35.1134 60.3539 35.1134 60.289C35.1206 60.0439 35.1567 59.8132 35.2504 59.6114ZM45.8542 52.1073C45.8542 53.1093 45.0901 55.6899 38.5159 59.3303C38.6673 59.5681 38.7538 59.8421 38.7754 60.1376C46.0921 59.5249 48.2763 61.2045 48.9107 62.0911C48.99 61.5 49.0404 60.9017 49.0404 60.2818C49.0404 57.1316 47.8294 54.2554 45.8542 52.1073ZM35.2504 59.6114C27.8976 56.3099 27.3714 53.6715 27.4147 52.8714C25.8072 54.9186 24.8556 57.4849 24.8556 60.2818C24.8556 61.3342 24.9854 62.3434 25.2449 63.3166C25.7927 62.3723 27.8184 60.5125 35.1279 60.4836C35.1206 60.4187 35.1134 60.3539 35.1134 60.289C35.1206 60.0439 35.1567 59.8132 35.2504 59.6114ZM36.3894 62.0191C36.1082 61.9326 35.8631 61.7812 35.6541 61.5793C30.226 66.6325 27.4723 66.5965 26.4559 66.2865C28.2365 69.4006 31.3578 71.6353 35.0341 72.2264C34.4142 71.383 33.4987 68.8456 36.3894 62.0191ZM37.6653 61.9398L37.6725 61.9686L37.6797 61.9614C37.6797 61.9542 37.6725 61.9398 37.6653 61.9398ZM36.9516 48.193C35.0053 48.193 33.1743 48.6543 31.5452 49.4689C32.5832 49.8221 34.8107 51.4224 36.3749 58.5445C36.5552 58.4796 36.7498 58.4508 36.9516 58.4508C37.0525 58.4508 37.1607 58.458 37.2544 58.4724C38.9484 50.5286 41.4426 49.5122 42.2067 49.3968C40.6208 48.6255 38.8403 48.193 36.9516 48.193ZM38.3501 61.4568C38.1699 61.673 37.9392 61.846 37.6797 61.9542C41.1614 68.1463 40.7145 70.8784 40.1883 71.9236C43.7205 70.9433 46.6039 68.3986 48.0456 65.0899C47.2311 65.5224 44.5999 66.0919 38.3501 61.4568ZM45.8542 52.1073C45.8542 53.1093 45.0901 55.6899 38.5159 59.3303C38.6673 59.5681 38.7538 59.8421 38.7754 60.1376C46.0921 59.5249 48.2763 61.2045 48.9107 62.0911C48.99 61.5 49.0404 60.9017 49.0404 60.2818C49.0404 57.1316 47.8294 54.2554 45.8542 52.1073ZM38.3501 61.4568C38.1699 61.673 37.9392 61.846 37.6797 61.9542C41.1614 68.1463 40.7145 70.8784 40.1883 71.9236C43.7205 70.9433 46.6039 68.3986 48.0456 65.0899C47.2311 65.5224 44.5999 66.0919 38.3501 61.4568ZM42.2067 49.3968C40.6208 48.6255 38.8403 48.193 36.9516 48.193C35.0053 48.193 33.1743 48.6543 31.5452 49.4689C32.5832 49.8221 34.8107 51.4224 36.3749 58.5445C36.5552 58.4796 36.7498 58.4508 36.9516 58.4508C37.0525 58.4508 37.1607 58.458 37.2544 58.4724C38.9484 50.5358 41.4426 49.5194 42.2067 49.3968ZM37.6725 61.9686C37.6797 61.9542 37.6725 61.947 37.6653 61.9398L37.6725 61.9686ZM35.6541 61.5721C30.226 66.6253 27.4723 66.5893 26.4559 66.2793C28.2365 69.3934 31.3578 71.6281 35.0341 72.2192C34.4142 71.383 33.4987 68.8456 36.3894 62.0191C36.1082 61.9326 35.8631 61.7812 35.6541 61.5721ZM35.1206 60.2818C35.1206 60.0439 35.1639 59.8132 35.2504 59.6114C27.8976 56.3099 27.3714 53.6715 27.4147 52.8714C25.8072 54.9186 24.8556 57.4849 24.8556 60.2818C24.8556 61.3342 24.9854 62.3434 25.2449 63.3166C25.7927 62.3723 27.8184 60.5125 35.1279 60.4836C35.1279 60.4115 35.1206 60.3467 35.1206 60.2818ZM45.8542 52.1073C45.8542 53.1093 45.0901 55.6899 38.5159 59.3303C38.6673 59.5681 38.7538 59.8421 38.7754 60.1376C46.0921 59.5249 48.2763 61.2045 48.9107 62.0911C48.99 61.5 49.0404 60.9017 49.0404 60.2818C49.0404 57.1316 47.8294 54.2554 45.8542 52.1073ZM36.9516 44.4229C28.1932 44.4229 21.1 51.5234 21.1 60.2818C21.1 69.0402 28.2004 76.1335 36.9516 76.1335C45.7028 76.1335 52.8105 69.033 52.8105 60.2818C52.8105 51.5234 45.7028 44.4229 36.9516 44.4229ZM36.9516 73.0986C29.8728 73.0986 24.1276 67.3606 24.1276 60.2818C24.1276 53.203 29.8728 47.4577 36.9516 47.4577C44.0304 47.4577 49.7685 53.203 49.7685 60.2818C49.7685 67.3606 44.0304 73.0986 36.9516 73.0986ZM38.3501 61.4568C38.1699 61.673 37.9392 61.846 37.6797 61.9542C41.1614 68.1463 40.7145 70.8784 40.1883 71.9236C43.7205 70.9433 46.6039 68.3986 48.0456 65.0899C47.2311 65.5224 44.5999 66.0919 38.3501 61.4568ZM42.2067 49.3968C40.6208 48.6255 38.8403 48.193 36.9516 48.193C35.0053 48.193 33.1743 48.6543 31.5452 49.4689C32.5832 49.8221 34.8107 51.4224 36.3749 58.5445C36.5552 58.4796 36.7498 58.4508 36.9516 58.4508C37.0525 58.4508 37.1607 58.458 37.2544 58.4724C38.9484 50.5358 41.4426 49.5194 42.2067 49.3968ZM37.6725 61.9686C37.6797 61.9542 37.6725 61.947 37.6653 61.9398L37.6725 61.9686ZM35.6541 61.5721C30.226 66.6253 27.4723 66.5893 26.4559 66.2793C28.2365 69.3934 31.3578 71.6281 35.0341 72.2192C34.4142 71.383 33.4987 68.8456 36.3894 62.0191C36.1082 61.9326 35.8631 61.7812 35.6541 61.5721ZM35.1206 60.2818C35.1206 60.0439 35.1639 59.8132 35.2504 59.6114C27.8976 56.3099 27.3714 53.6715 27.4147 52.8714C25.8072 54.9186 24.8556 57.4849 24.8556 60.2818C24.8556 61.3342 24.9854 62.3434 25.2449 63.3166C25.7927 62.3723 27.8184 60.5125 35.1279 60.4836C35.1279 60.4115 35.1206 60.3467 35.1206 60.2818ZM45.8542 52.1073C45.8542 53.1093 45.0901 55.6899 38.5159 59.3303C38.6673 59.5681 38.7538 59.8421 38.7754 60.1376C46.0921 59.5249 48.2763 61.2045 48.9107 62.0911C48.99 61.5 49.0404 60.9017 49.0404 60.2818C49.0404 57.1316 47.8294 54.2554 45.8542 52.1073ZM35.2504 59.6114C27.8976 56.3099 27.3714 53.6715 27.4147 52.8714C25.8072 54.9186 24.8556 57.4849 24.8556 60.2818C24.8556 61.3342 24.9854 62.3434 25.2449 63.3166C25.7927 62.3723 27.8184 60.5125 35.1279 60.4836C35.1206 60.4187 35.1134 60.3539 35.1134 60.289C35.1206 60.0439 35.1567 59.8132 35.2504 59.6114ZM36.3894 62.0191C36.1082 61.9326 35.8631 61.7812 35.6541 61.5793C30.226 66.6325 27.4723 66.5965 26.4559 66.2865C28.2365 69.4006 31.3578 71.6353 35.0341 72.2264C34.4142 71.383 33.4987 68.8456 36.3894 62.0191ZM37.6653 61.9398L37.6725 61.9686L37.6797 61.9614C37.6797 61.9542 37.6725 61.9398 37.6653 61.9398ZM36.9516 48.193C35.0053 48.193 33.1743 48.6543 31.5452 49.4689C32.5832 49.8221 34.8107 51.4224 36.3749 58.5445C36.5552 58.4796 36.7498 58.4508 36.9516 58.4508C37.0525 58.4508 37.1607 58.458 37.2544 58.4724C38.9484 50.5286 41.4426 49.5122 42.2067 49.3968C40.6208 48.6255 38.8403 48.193 36.9516 48.193ZM38.3501 61.4568C38.1699 61.673 37.9392 61.846 37.6797 61.9542C41.1614 68.1463 40.7145 70.8784 40.1883 71.9236C43.7205 70.9433 46.6039 68.3986 48.0456 65.0899C47.2311 65.5224 44.5999 66.0919 38.3501 61.4568ZM45.8542 52.1073C45.8542 53.1093 45.0901 55.6899 38.5159 59.3303C38.6673 59.5681 38.7538 59.8421 38.7754 60.1376C46.0921 59.5249 48.2763 61.2045 48.9107 62.0911C48.99 61.5 49.0404 60.9017 49.0404 60.2818C49.0404 57.1316 47.8294 54.2554 45.8542 52.1073ZM38.3501 61.4568C38.1699 61.673 37.9392 61.846 37.6797 61.9542C41.1614 68.1463 40.7145 70.8784 40.1883 71.9236C43.7205 70.9433 46.6039 68.3986 48.0456 65.0899C47.2311 65.5224 44.5999 66.0919 38.3501 61.4568ZM36.9516 48.193C35.0053 48.193 33.1743 48.6543 31.5452 49.4689C32.5832 49.8221 34.8107 51.4224 36.3749 58.5445C36.5552 58.4796 36.7498 58.4508 36.9516 58.4508C37.0525 58.4508 37.1607 58.458 37.2544 58.4724C38.9484 50.5286 41.4426 49.5122 42.2067 49.3968C40.6208 48.6255 38.8403 48.193 36.9516 48.193ZM37.6653 61.9398L37.6725 61.9686L37.6797 61.9614C37.6797 61.9542 37.6725 61.9398 37.6653 61.9398ZM36.3894 62.0191C36.1082 61.9326 35.8631 61.7812 35.6541 61.5793C30.226 66.6325 27.4723 66.5965 26.4559 66.2865C28.2365 69.4006 31.3578 71.6353 35.0341 72.2264C34.4142 71.383 33.4987 68.8456 36.3894 62.0191ZM35.2504 59.6114C27.8976 56.3099 27.3714 53.6715 27.4147 52.8714C25.8072 54.9186 24.8556 57.4849 24.8556 60.2818C24.8556 61.3342 24.9854 62.3434 25.2449 63.3166C25.7927 62.3723 27.8184 60.5125 35.1279 60.4836C35.1206 60.4187 35.1134 60.3539 35.1134 60.289C35.1206 60.0439 35.1567 59.8132 35.2504 59.6114ZM45.8542 52.1073C45.8542 53.1093 45.0901 55.6899 38.5159 59.3303C38.6673 59.5681 38.7538 59.8421 38.7754 60.1376C46.0921 59.5249 48.2763 61.2045 48.9107 62.0911C48.99 61.5 49.0404 60.9017 49.0404 60.2818C49.0404 57.1316 47.8294 54.2554 45.8542 52.1073ZM35.2504 59.6114C27.8976 56.3099 27.3714 53.6715 27.4147 52.8714C25.8072 54.9186 24.8556 57.4849 24.8556 60.2818C24.8556 61.3342 24.9854 62.3434 25.2449 63.3166C25.7927 62.3723 27.8184 60.5125 35.1279 60.4836C35.1206 60.4187 35.1134 60.3539 35.1134 60.289C35.1206 60.0439 35.1567 59.8132 35.2504 59.6114ZM36.3894 62.0191C36.1082 61.9326 35.8631 61.7812 35.6541 61.5793C30.226 66.6325 27.4723 66.5965 26.4559 66.2865C28.2365 69.4006 31.3578 71.6353 35.0341 72.2264C34.4142 71.383 33.4987 68.8456 36.3894 62.0191ZM37.6653 61.9398L37.6725 61.9686L37.6797 61.9614C37.6797 61.9542 37.6725 61.9398 37.6653 61.9398ZM36.9516 48.193C35.0053 48.193 33.1743 48.6543 31.5452 49.4689C32.5832 49.8221 34.8107 51.4224 36.3749 58.5445C36.5552 58.4796 36.7498 58.4508 36.9516 58.4508C37.0525 58.4508 37.1607 58.458 37.2544 58.4724C38.9484 50.5286 41.4426 49.5122 42.2067 49.3968C40.6208 48.6255 38.8403 48.193 36.9516 48.193ZM38.3501 61.4568C38.1699 61.673 37.9392 61.846 37.6797 61.9542C41.1614 68.1463 40.7145 70.8784 40.1883 71.9236C43.7205 70.9433 46.6039 68.3986 48.0456 65.0899C47.2311 65.5224 44.5999 66.0919 38.3501 61.4568ZM45.8542 52.1073C45.8542 53.1093 45.0901 55.6899 38.5159 59.3303C38.6673 59.5681 38.7538 59.8421 38.7754 60.1376C46.0921 59.5249 48.2763 61.2045 48.9107 62.0911C48.99 61.5 49.0404 60.9017 49.0404 60.2818C49.0404 57.1316 47.8294 54.2554 45.8542 52.1073ZM38.3501 61.4568C38.1699 61.673 37.9392 61.846 37.6797 61.9542C41.1614 68.1463 40.7145 70.8784 40.1883 71.9236C43.7205 70.9433 46.6039 68.3986 48.0456 65.0899C47.2311 65.5224 44.5999 66.0919 38.3501 61.4568ZM36.9516 48.193C35.0053 48.193 33.1743 48.6543 31.5452 49.4689C32.5832 49.8221 34.8107 51.4224 36.3749 58.5445C36.5552 58.4796 36.7498 58.4508 36.9516 58.4508C37.0525 58.4508 37.1607 58.458 37.2544 58.4724C38.9484 50.5286 41.4426 49.5122 42.2067 49.3968C40.6208 48.6255 38.8403 48.193 36.9516 48.193ZM37.6653 61.9398L37.6725 61.9686L37.6797 61.9614C37.6797 61.9542 37.6725 61.9398 37.6653 61.9398ZM36.3894 62.0191C36.1082 61.9326 35.8631 61.7812 35.6541 61.5793C30.226 66.6325 27.4723 66.5965 26.4559 66.2865C28.2365 69.4006 31.3578 71.6353 35.0341 72.2264C34.4142 71.383 33.4987 68.8456 36.3894 62.0191ZM35.2504 59.6114C27.8976 56.3099 27.3714 53.6715 27.4147 52.8714C25.8072 54.9186 24.8556 57.4849 24.8556 60.2818C24.8556 61.3342 24.9854 62.3434 25.2449 63.3166C25.7927 62.3723 27.8184 60.5125 35.1279 60.4836C35.1206 60.4187 35.1134 60.3539 35.1134 60.289C35.1206 60.0439 35.1567 59.8132 35.2504 59.6114ZM45.8542 52.1073C45.8542 53.1093 45.0901 55.6899 38.5159 59.3303C38.6673 59.5681 38.7538 59.8421 38.7754 60.1376C46.0921 59.5249 48.2763 61.2045 48.9107 62.0911C48.99 61.5 49.0404 60.9017 49.0404 60.2818C49.0404 57.1316 47.8294 54.2554 45.8542 52.1073ZM35.2504 59.6114C27.8976 56.3099 27.3714 53.6715 27.4147 52.8714C25.8072 54.9186 24.8556 57.4849 24.8556 60.2818C24.8556 61.3342 24.9854 62.3434 25.2449 63.3166C25.7927 62.3723 27.8184 60.5125 35.1279 60.4836C35.1206 60.4187 35.1134 60.3539 35.1134 60.289C35.1206 60.0439 35.1567 59.8132 35.2504 59.6114ZM36.3894 62.0191C36.1082 61.9326 35.8631 61.7812 35.6541 61.5793C30.226 66.6325 27.4723 66.5965 26.4559 66.2865C28.2365 69.4006 31.3578 71.6353 35.0341 72.2264C34.4142 71.383 33.4987 68.8456 36.3894 62.0191ZM37.6653 61.9398L37.6725 61.9686L37.6797 61.9614C37.6797 61.9542 37.6725 61.9398 37.6653 61.9398ZM36.9516 48.193C35.0053 48.193 33.1743 48.6543 31.5452 49.4689C32.5832 49.8221 34.8107 51.4224 36.3749 58.5445C36.5552 58.4796 36.7498 58.4508 36.9516 58.4508C37.0525 58.4508 37.1607 58.458 37.2544 58.4724C38.9484 50.5286 41.4426 49.5122 42.2067 49.3968C40.6208 48.6255 38.8403 48.193 36.9516 48.193ZM38.3501 61.4568C38.1699 61.673 37.9392 61.846 37.6797 61.9542C41.1614 68.1463 40.7145 70.8784 40.1883 71.9236C43.7205 70.9433 46.6039 68.3986 48.0456 65.0899C47.2311 65.5224 44.5999 66.0919 38.3501 61.4568ZM45.8542 52.1073C45.8542 53.1093 45.0901 55.6899 38.5159 59.3303C38.6673 59.5681 38.7538 59.8421 38.7754 60.1376C46.0921 59.5249 48.2763 61.2045 48.9107 62.0911C48.99 61.5 49.0404 60.9017 49.0404 60.2818C49.0404 57.1316 47.8294 54.2554 45.8542 52.1073ZM38.3501 61.4568C38.1699 61.673 37.9392 61.846 37.6797 61.9542C41.1614 68.1463 40.7145 70.8784 40.1883 71.9236C43.7205 70.9433 46.6039 68.3986 48.0456 65.0899C47.2311 65.5224 44.5999 66.0919 38.3501 61.4568ZM36.9516 48.193C35.0053 48.193 33.1743 48.6543 31.5452 49.4689C32.5832 49.8221 34.8107 51.4224 36.3749 58.5445C36.5552 58.4796 36.7498 58.4508 36.9516 58.4508C37.0525 58.4508 37.1607 58.458 37.2544 58.4724C38.9484 50.5286 41.4426 49.5122 42.2067 49.3968C40.6208 48.6255 38.8403 48.193 36.9516 48.193ZM37.6653 61.9398L37.6725 61.9686L37.6797 61.9614C37.6797 61.9542 37.6725 61.9398 37.6653 61.9398ZM36.3894 62.0191C36.1082 61.9326 35.8631 61.7812 35.6541 61.5793C30.226 66.6325 27.4723 66.5965 26.4559 66.2865C28.2365 69.4006 31.3578 71.6353 35.0341 72.2264C34.4142 71.383 33.4987 68.8456 36.3894 62.0191ZM35.2504 59.6114C27.8976 56.3099 27.3714 53.6715 27.4147 52.8714C25.8072 54.9186 24.8556 57.4849 24.8556 60.2818C24.8556 61.3342 24.9854 62.3434 25.2449 63.3166C25.7927 62.3723 27.8184 60.5125 35.1279 60.4836C35.1206 60.4187 35.1134 60.3539 35.1134 60.289C35.1206 60.0439 35.1567 59.8132 35.2504 59.6114ZM45.8542 52.1073C45.8542 53.1093 45.0901 55.6899 38.5159 59.3303C38.6673 59.5681 38.7538 59.8421 38.7754 60.1376C46.0921 59.5249 48.2763 61.2045 48.9107 62.0911C48.99 61.5 49.0404 60.9017 49.0404 60.2818C49.0404 57.1316 47.8294 54.2554 45.8542 52.1073ZM35.2504 59.6114C27.8976 56.3099 27.3714 53.6715 27.4147 52.8714C25.8072 54.9186 24.8556 57.4849 24.8556 60.2818C24.8556 61.3342 24.9854 62.3434 25.2449 63.3166C25.7927 62.3723 27.8184 60.5125 35.1279 60.4836C35.1206 60.4187 35.1134 60.3539 35.1134 60.289C35.1206 60.0439 35.1567 59.8132 35.2504 59.6114ZM36.3894 62.0191C36.1082 61.9326 35.8631 61.7812 35.6541 61.5793C30.226 66.6325 27.4723 66.5965 26.4559 66.2865C28.2365 69.4006 31.3578 71.6353 35.0341 72.2264C34.4142 71.383 33.4987 68.8456 36.3894 62.0191ZM37.6653 61.9398L37.6725 61.9686L37.6797 61.9614C37.6797 61.9542 37.6725 61.9398 37.6653 61.9398ZM36.9516 48.193C35.0053 48.193 33.1743 48.6543 31.5452 49.4689C32.5832 49.8221 34.8107 51.4224 36.3749 58.5445C36.5552 58.4796 36.7498 58.4508 36.9516 58.4508C37.0525 58.4508 37.1607 58.458 37.2544 58.4724C38.9484 50.5286 41.4426 49.5122 42.2067 49.3968C40.6208 48.6255 38.8403 48.193 36.9516 48.193ZM38.3501 61.4568C38.1699 61.673 37.9392 61.846 37.6797 61.9542C41.1614 68.1463 40.7145 70.8784 40.1883 71.9236C43.7205 70.9433 46.6039 68.3986 48.0456 65.0899C47.2311 65.5224 44.5999 66.0919 38.3501 61.4568ZM45.8542 52.1073C45.8542 53.1093 45.0901 55.6899 38.5159 59.3303C38.6673 59.5681 38.7538 59.8421 38.7754 60.1376C46.0921 59.5249 48.2763 61.2045 48.9107 62.0911C48.99 61.5 49.0404 60.9017 49.0404 60.2818C49.0404 57.1316 47.8294 54.2554 45.8542 52.1073ZM38.3501 61.4568C38.1699 61.673 37.9392 61.846 37.6797 61.9542C41.1614 68.1463 40.7145 70.8784 40.1883 71.9236C43.7205 70.9433 46.6039 68.3986 48.0456 65.0899C47.2311 65.5224 44.5999 66.0919 38.3501 61.4568ZM36.9516 48.193C35.0053 48.193 33.1743 48.6543 31.5452 49.4689C32.5832 49.8221 34.8107 51.4224 36.3749 58.5445C36.5552 58.4796 36.7498 58.4508 36.9516 58.4508C37.0525 58.4508 37.1607 58.458 37.2544 58.4724C38.9484 50.5286 41.4426 49.5122 42.2067 49.3968C40.6208 48.6255 38.8403 48.193 36.9516 48.193ZM37.6653 61.9398L37.6725 61.9686L37.6797 61.9614C37.6797 61.9542 37.6725 61.9398 37.6653 61.9398ZM36.3894 62.0191C36.1082 61.9326 35.8631 61.7812 35.6541 61.5793C30.226 66.6325 27.4723 66.5965 26.4559 66.2865C28.2365 69.4006 31.3578 71.6353 35.0341 72.2264C34.4142 71.383 33.4987 68.8456 36.3894 62.0191ZM35.2504 59.6114C27.8976 56.3099 27.3714 53.6715 27.4147 52.8714C25.8072 54.9186 24.8556 57.4849 24.8556 60.2818C24.8556 61.3342 24.9854 62.3434 25.2449 63.3166C25.7927 62.3723 27.8184 60.5125 35.1279 60.4836C35.1206 60.4187 35.1134 60.3539 35.1134 60.289C35.1206 60.0439 35.1567 59.8132 35.2504 59.6114ZM45.8542 52.1073C45.8542 53.1093 45.0901 55.6899 38.5159 59.3303C38.6673 59.5681 38.7538 59.8421 38.7754 60.1376C46.0921 59.5249 48.2763 61.2045 48.9107 62.0911C48.99 61.5 49.0404 60.9017 49.0404 60.2818C49.0404 57.1316 47.8294 54.2554 45.8542 52.1073ZM35.2504 59.6114C27.8976 56.3099 27.3714 53.6715 27.4147 52.8714C25.8072 54.9186 24.8556 57.4849 24.8556 60.2818C24.8556 61.3342 24.9854 62.3434 25.2449 63.3166C25.7927 62.3723 27.8184 60.5125 35.1279 60.4836C35.1206 60.4187 35.1134 60.3539 35.1134 60.289C35.1206 60.0439 35.1567 59.8132 35.2504 59.6114ZM36.3894 62.0191C36.1082 61.9326 35.8631 61.7812 35.6541 61.5793C30.226 66.6325 27.4723 66.5965 26.4559 66.2865C28.2365 69.4006 31.3578 71.6353 35.0341 72.2264C34.4142 71.383 33.4987 68.8456 36.3894 62.0191ZM37.6653 61.9398L37.6725 61.9686L37.6797 61.9614C37.6797 61.9542 37.6725 61.9398 37.6653 61.9398ZM36.9516 48.193C35.0053 48.193 33.1743 48.6543 31.5452 49.4689C32.5832 49.8221 34.8107 51.4224 36.3749 58.5445C36.5552 58.4796 36.7498 58.4508 36.9516 58.4508C37.0525 58.4508 37.1607 58.458 37.2544 58.4724C38.9484 50.5286 41.4426 49.5122 42.2067 49.3968C40.6208 48.6255 38.8403 48.193 36.9516 48.193ZM38.3501 61.4568C38.1699 61.673 37.9392 61.846 37.6797 61.9542C41.1614 68.1463 40.7145 70.8784 40.1883 71.9236C43.7205 70.9433 46.6039 68.3986 48.0456 65.0899C47.2311 65.5224 44.5999 66.0919 38.3501 61.4568ZM45.8542 52.1073C45.8542 53.1093 45.0901 55.6899 38.5159 59.3303C38.6673 59.5681 38.7538 59.8421 38.7754 60.1376C46.0921 59.5249 48.2763 61.2045 48.9107 62.0911C48.99 61.5 49.0404 60.9017 49.0404 60.2818C49.0404 57.1316 47.8294 54.2554 45.8542 52.1073ZM38.3501 61.4568C38.1699 61.673 37.9392 61.846 37.6797 61.9542C41.1614 68.1463 40.7145 70.8784 40.1883 71.9236C43.7205 70.9433 46.6039 68.3986 48.0456 65.0899C47.2311 65.5224 44.5999 66.0919 38.3501 61.4568ZM36.9516 48.193C35.0053 48.193 33.1743 48.6543 31.5452 49.4689C32.5832 49.8221 34.8107 51.4224 36.3749 58.5445C36.5552 58.4796 36.7498 58.4508 36.9516 58.4508C37.0525 58.4508 37.1607 58.458 37.2544 58.4724C38.9484 50.5286 41.4426 49.5122 42.2067 49.3968C40.6208 48.6255 38.8403 48.193 36.9516 48.193ZM37.6653 61.9398L37.6725 61.9686L37.6797 61.9614C37.6797 61.9542 37.6725 61.9398 37.6653 61.9398ZM36.3894 62.0191C36.1082 61.9326 35.8631 61.7812 35.6541 61.5793C30.226 66.6325 27.4723 66.5965 26.4559 66.2865C28.2365 69.4006 31.3578 71.6353 35.0341 72.2264C34.4142 71.383 33.4987 68.8456 36.3894 62.0191ZM35.2504 59.6114C27.8976 56.3099 27.3714 53.6715 27.4147 52.8714C25.8072 54.9186 24.8556 57.4849 24.8556 60.2818C24.8556 61.3342 24.9854 62.3434 25.2449 63.3166C25.7927 62.3723 27.8184 60.5125 35.1279 60.4836C35.1206 60.4187 35.1134 60.3539 35.1134 60.289C35.1206 60.0439 35.1567 59.8132 35.2504 59.6114ZM45.8542 52.1073C45.8542 53.1093 45.0901 55.6899 38.5159 59.3303C38.6673 59.5681 38.7538 59.8421 38.7754 60.1376C46.0921 59.5249 48.2763 61.2045 48.9107 62.0911C48.99 61.5 49.0404 60.9017 49.0404 60.2818C49.0404 57.1316 47.8294 54.2554 45.8542 52.1073ZM35.2504 59.6114C27.8976 56.3099 27.3714 53.6715 27.4147 52.8714C25.8072 54.9186 24.8556 57.4849 24.8556 60.2818C24.8556 61.3342 24.9854 62.3434 25.2449 63.3166C25.7927 62.3723 27.8184 60.5125 35.1279 60.4836C35.1206 60.4187 35.1134 60.3539 35.1134 60.289C35.1206 60.0439 35.1567 59.8132 35.2504 59.6114ZM36.3894 62.0191C36.1082 61.9326 35.8631 61.7812 35.6541 61.5793C30.226 66.6325 27.4723 66.5965 26.4559 66.2865C28.2365 69.4006 31.3578 71.6353 35.0341 72.2264C34.4142 71.383 33.4987 68.8456 36.3894 62.0191ZM37.6653 61.9398L37.6725 61.9686L37.6797 61.9614C37.6797 61.9542 37.6725 61.9398 37.6653 61.9398ZM36.9516 48.193C35.0053 48.193 33.1743 48.6543 31.5452 49.4689C32.5832 49.8221 34.8107 51.4224 36.3749 58.5445C36.5552 58.4796 36.7498 58.4508 36.9516 58.4508C37.0525 58.4508 37.1607 58.458 37.2544 58.4724C38.9484 50.5286 41.4426 49.5122 42.2067 49.3968C40.6208 48.6255 38.8403 48.193 36.9516 48.193ZM38.3501 61.4568C38.1699 61.673 37.9392 61.846 37.6797 61.9542C41.1614 68.1463 40.7145 70.8784 40.1883 71.9236C43.7205 70.9433 46.6039 68.3986 48.0456 65.0899C47.2311 65.5224 44.5999 66.0919 38.3501 61.4568ZM45.8542 52.1073C45.8542 53.1093 45.0901 55.6899 38.5159 59.3303C38.6673 59.5681 38.7538 59.8421 38.7754 60.1376C46.0921 59.5249 48.2763 61.2045 48.9107 62.0911C48.99 61.5 49.0404 60.9017 49.0404 60.2818C49.0404 57.1316 47.8294 54.2554 45.8542 52.1073ZM38.3501 61.4568C38.1699 61.673 37.9392 61.846 37.6797 61.9542C41.1614 68.1463 40.7145 70.8784 40.1883 71.9236C43.7205 70.9433 46.6039 68.3986 48.0456 65.0899C47.2311 65.5224 44.5999 66.0919 38.3501 61.4568ZM36.9516 48.193C35.0053 48.193 33.1743 48.6543 31.5452 49.4689C32.5832 49.8221 34.8107 51.4224 36.3749 58.5445C36.5552 58.4796 36.7498 58.4508 36.9516 58.4508C37.0525 58.4508 37.1607 58.458 37.2544 58.4724C38.9484 50.5286 41.4426 49.5122 42.2067 49.3968C40.6208 48.6255 38.8403 48.193 36.9516 48.193ZM37.6653 61.9398L37.6725 61.9686L37.6797 61.9614C37.6797 61.9542 37.6725 61.9398 37.6653 61.9398ZM36.3894 62.0191C36.1082 61.9326 35.8631 61.7812 35.6541 61.5793C30.226 66.6325 27.4723 66.5965 26.4559 66.2865C28.2365 69.4006 31.3578 71.6353 35.0341 72.2264C34.4142 71.383 33.4987 68.8456 36.3894 62.0191ZM35.2504 59.6114C27.8976 56.3099 27.3714 53.6715 27.4147 52.8714C25.8072 54.9186 24.8556 57.4849 24.8556 60.2818C24.8556 61.3342 24.9854 62.3434 25.2449 63.3166C25.7927 62.3723 27.8184 60.5125 35.1279 60.4836C35.1206 60.4187 35.1134 60.3539 35.1134 60.289C35.1206 60.0439 35.1567 59.8132 35.2504 59.6114ZM37.6653 61.9398L37.6725 61.9686L37.6797 61.9614C37.6797 61.9542 37.6725 61.9398 37.6653 61.9398ZM37.6653 61.9398L37.6725 61.9686L37.6797 61.9614C37.6797 61.9542 37.6725 61.9398 37.6653 61.9398ZM37.6653 61.9398L37.6725 61.9686L37.6797 61.9614C37.6797 61.9542 37.6725 61.9398 37.6653 61.9398ZM37.6653 61.9398L37.6725 61.9686L37.6797 61.9614C37.6797 61.9542 37.6725 61.9398 37.6653 61.9398ZM37.6653 61.9398L37.6725 61.9686L37.6797 61.9614C37.6797 61.9542 37.6725 61.9398 37.6653 61.9398ZM37.6653 61.9398L37.6725 61.9686L37.6797 61.9614C37.6797 61.9542 37.6725 61.9398 37.6653 61.9398ZM37.6653 61.9398L37.6725 61.9686L37.6797 61.9614C37.6797 61.9542 37.6725 61.9398 37.6653 61.9398ZM37.6653 61.9398L37.6725 61.9686L37.6797 61.9614C37.6797 61.9542 37.6725 61.9398 37.6653 61.9398ZM37.6653 61.9398L37.6725 61.9686L37.6797 61.9614C37.6797 61.9542 37.6725 61.9398 37.6653 61.9398ZM37.6653 61.9398L37.6725 61.9686L37.6797 61.9614C37.6797 61.9542 37.6725 61.9398 37.6653 61.9398Z" fill="#22C55E"/>
<path d="M35.1206 60.2818C35.1206 60.3466 35.1279 60.4115 35.1351 60.4764C27.8256 60.5052 25.8 62.365 25.2521 63.3094C24.9998 62.3434 24.8628 61.327 24.8628 60.2746C24.8628 57.4776 25.8144 54.9114 27.4219 52.8641C27.3786 53.6643 27.9049 56.3098 35.2576 59.6042C35.1567 59.8132 35.1206 60.0439 35.1206 60.2818Z" fill="#22C55E"/>
<path d="M35.0342 72.2193C31.365 71.6354 28.2365 69.3935 26.4559 66.2794C27.4724 66.5966 30.226 66.6326 35.6541 61.5722C35.8631 61.774 36.1082 61.9254 36.3894 62.0119C33.4987 68.8457 34.4142 71.3831 35.0342 72.2193Z" fill="#22C55E"/>
<path d="M37.6805 61.9627L37.6653 61.9398C37.6729 61.9398 37.6805 61.9551 37.6805 61.9627Z" fill="#22C55E"/>
<path d="M42.2067 49.3967C41.4426 49.5192 38.9484 50.5357 37.2544 58.4723C37.1607 58.4579 37.0598 58.4507 36.9516 58.4507C36.757 58.4507 36.5552 58.4795 36.3749 58.5444C34.8107 51.4151 32.5832 49.822 31.5452 49.4688C33.1671 48.6542 35.0053 48.1929 36.9516 48.1929C38.8403 48.1929 40.6208 48.6254 42.2067 49.3967Z" fill="#22C55E"/>
<path d="M48.0456 65.09C46.6111 68.4059 43.7205 70.9505 40.1883 71.9237C40.7145 70.8785 41.1614 68.1464 37.6797 61.9542C37.9392 61.8461 38.1699 61.6731 38.3501 61.4568C44.5999 66.092 47.2311 65.5225 48.0456 65.09Z" fill="#22C55E"/>
<path d="M49.0404 60.2819C49.0404 60.8947 48.99 61.493 48.9107 62.0913C48.2763 61.2046 46.0921 59.525 38.7754 60.1378C38.7538 59.8422 38.6673 59.5611 38.5159 59.3304C45.0901 55.6901 45.8542 53.1094 45.8542 52.1074C47.8294 54.2556 49.0404 57.1318 49.0404 60.2819Z" fill="#22C55E"/>
<path d="M37.6653 61.9396L37.6725 61.9685L37.6797 61.9613C37.6797 61.954 37.6725 61.9396 37.6653 61.9396ZM37.6653 61.9396L37.6725 61.9685L37.6797 61.9613C37.6797 61.954 37.6725 61.9396 37.6653 61.9396ZM37.6653 61.9396L37.6725 61.9685L37.6797 61.9613C37.6797 61.954 37.6725 61.9396 37.6653 61.9396ZM37.6653 61.9396L37.6725 61.9685L37.6797 61.9613C37.6797 61.954 37.6725 61.9396 37.6653 61.9396ZM37.6653 61.9396L37.6725 61.9685L37.6797 61.9613C37.6797 61.954 37.6725 61.9396 37.6653 61.9396ZM37.6653 61.9396L37.6725 61.9685L37.6797 61.9613C37.6797 61.954 37.6725 61.9396 37.6653 61.9396ZM37.6653 61.9396L37.6725 61.9685L37.6797 61.9613C37.6797 61.954 37.6725 61.9396 37.6653 61.9396ZM37.6653 61.9396L37.6725 61.9685L37.6797 61.9613C37.6797 61.954 37.6725 61.9396 37.6653 61.9396ZM37.6653 61.9396L37.6725 61.9685L37.6797 61.9613C37.6797 61.954 37.6725 61.9396 37.6653 61.9396ZM37.6653 61.9396L37.6725 61.9685L37.6797 61.9613C37.6797 61.954 37.6725 61.9396 37.6653 61.9396ZM45.8542 52.1071C45.8542 53.1091 45.0901 55.6898 38.5159 59.3301C38.6673 59.568 38.7538 59.8419 38.7754 60.1375C46.0921 59.5248 48.2763 61.2044 48.9107 62.091C48.99 61.4999 49.0404 60.9016 49.0404 60.2817C49.0404 57.1315 47.8294 54.2553 45.8542 52.1071ZM38.3501 61.4567C38.1699 61.6729 37.9392 61.8459 37.6797 61.954C41.1614 68.1462 40.7145 70.8783 40.1883 71.9235C43.7205 70.9431 46.6039 68.3985 48.0456 65.0898C47.2311 65.5223 44.5999 66.0918 38.3501 61.4567ZM36.9516 48.1929C35.0053 48.1929 33.1743 48.6542 31.5452 49.4688C32.5832 49.822 34.8107 51.4223 36.3749 58.5444C36.5552 58.4795 36.7498 58.4507 36.9516 58.4507C37.0526 58.4507 37.1607 58.4579 37.2544 58.4723C38.9484 50.5285 41.4426 49.512 42.2067 49.3967C40.6208 48.6254 38.8403 48.1929 36.9516 48.1929ZM37.6653 61.9396L37.6725 61.9685L37.6797 61.9613C37.6797 61.954 37.6725 61.9396 37.6653 61.9396ZM36.3894 62.0189C36.1082 61.9324 35.8631 61.781 35.6541 61.5792C30.226 66.6324 27.4724 66.5964 26.4559 66.2864C28.2365 69.4005 31.3578 71.6352 35.0341 72.2263C34.4142 71.3829 33.4987 68.8454 36.3894 62.0189ZM35.2504 59.6113C27.8977 56.3097 27.3714 53.6714 27.4147 52.8712C25.8072 54.9185 24.8556 57.4847 24.8556 60.2817C24.8556 61.3341 24.9854 62.3433 25.2449 63.3165C25.7928 62.3721 27.8184 60.5123 35.1279 60.4835C35.1207 60.4186 35.1134 60.3537 35.1134 60.2889C35.1207 60.0438 35.1567 59.8131 35.2504 59.6113ZM37.6653 61.9396L37.6725 61.9685L37.6797 61.9613C37.6797 61.954 37.6725 61.9396 37.6653 61.9396ZM37.6653 61.9396L37.6725 61.9685L37.6797 61.9613C37.6797 61.954 37.6725 61.9396 37.6653 61.9396ZM37.6653 61.9396L37.6725 61.9685L37.6797 61.9613C37.6797 61.954 37.6725 61.9396 37.6653 61.9396ZM37.6653 61.9396L37.6725 61.9685L37.6797 61.9613C37.6797 61.954 37.6725 61.9396 37.6653 61.9396ZM37.6653 61.9396L37.6725 61.9685L37.6797 61.9613C37.6797 61.954 37.6725 61.9396 37.6653 61.9396ZM37.6653 61.9396L37.6725 61.9685L37.6797 61.9613C37.6797 61.954 37.6725 61.9396 37.6653 61.9396ZM37.6653 61.9396L37.6725 61.9685L37.6797 61.9613C37.6797 61.954 37.6725 61.9396 37.6653 61.9396ZM37.6653 61.9396L37.6725 61.9685L37.6797 61.9613C37.6797 61.954 37.6725 61.9396 37.6653 61.9396ZM37.6653 61.9396L37.6725 61.9685L37.6797 61.9613C37.6797 61.954 37.6725 61.9396 37.6653 61.9396ZM37.6653 61.9396L37.6725 61.9685L37.6797 61.9613C37.6797 61.954 37.6725 61.9396 37.6653 61.9396Z" fill="#22C55E"/>
<path d="M38.7826 60.2817C38.7826 60.7142 38.624 61.1178 38.3717 61.435C38.3573 61.4494 38.3573 61.4494 38.3501 61.4567C38.1699 61.6729 37.9392 61.8459 37.6797 61.954C37.6797 61.9468 37.6725 61.9396 37.6653 61.9324L37.6725 61.9613C37.4562 62.055 37.2111 62.1054 36.9516 62.1054C36.757 62.1054 36.5696 62.0766 36.3966 62.0117C36.3894 62.0189 36.3894 62.0117 36.3821 62.0045C36.101 61.918 35.8559 61.7666 35.6469 61.5648C35.6397 61.5576 35.6325 61.5504 35.6252 61.5432C35.3585 61.2692 35.1783 60.9088 35.1279 60.5195C35.1206 60.5051 35.1206 60.4907 35.1206 60.4763C35.1134 60.4114 35.1062 60.3465 35.1062 60.2817C35.1062 60.0438 35.1495 59.8131 35.236 59.6113C35.236 59.5896 35.2504 59.568 35.2504 59.5536C35.4522 59.0922 35.8415 58.7246 36.3245 58.566C36.3389 58.5516 36.3461 58.5516 36.3605 58.5516C36.5407 58.4867 36.7354 58.4579 36.9372 58.4579C37.0381 58.4579 37.1463 58.4651 37.24 58.4795C37.2544 58.4867 37.276 58.4867 37.2976 58.4939C37.8022 58.5876 38.2275 58.8904 38.4871 59.3085C38.4943 59.3157 38.5015 59.3229 38.5015 59.3301C38.6529 59.568 38.7394 59.8419 38.761 60.1375C38.7682 60.1447 38.7682 60.1591 38.7682 60.1591V60.1663C38.7826 60.2096 38.7826 60.2384 38.7826 60.2817Z" fill="#22C55E"/>
<path d="M37.6805 61.9627L37.6653 61.9398C37.6729 61.9398 37.6805 61.9551 37.6805 61.9627Z" fill="#22C55E"/>
<path d="M37.6805 61.9627L37.6653 61.9398C37.6729 61.9398 37.6805 61.9551 37.6805 61.9627Z" fill="#22C55E"/>
<path d="M172.646 61.8605L172.653 61.8893L172.66 61.8821C172.66 61.8821 172.653 61.8677 172.646 61.8605ZM172.646 61.8605L172.653 61.8893L172.66 61.8821C172.66 61.8821 172.653 61.8677 172.646 61.8605ZM172.646 61.8605L172.653 61.8893L172.66 61.8821C172.66 61.8821 172.653 61.8677 172.646 61.8605ZM172.646 61.8605L172.653 61.8893L172.66 61.8821C172.66 61.8821 172.653 61.8677 172.646 61.8605ZM172.646 61.8605L172.653 61.8893L172.66 61.8821C172.66 61.8821 172.653 61.8677 172.646 61.8605ZM172.646 61.8605L172.653 61.8893L172.66 61.8821C172.66 61.8821 172.653 61.8677 172.646 61.8605ZM172.646 61.8605L172.653 61.8893L172.66 61.8821C172.66 61.8821 172.653 61.8677 172.646 61.8605ZM172.646 61.8605L172.653 61.8893L172.66 61.8821C172.66 61.8821 172.653 61.8677 172.646 61.8605ZM172.646 61.8605L172.653 61.8893L172.66 61.8821C172.66 61.8821 172.653 61.8677 172.646 61.8605ZM172.646 61.8605L172.653 61.8893L172.66 61.8821C172.66 61.8821 172.653 61.8677 172.646 61.8605ZM180.835 52.028C180.835 53.03 180.064 55.6106 173.497 59.251C173.648 59.4888 173.734 59.7628 173.756 60.0583C181.073 59.4456 183.257 61.1252 183.891 62.0118C183.971 61.4207 184.021 60.8224 184.021 60.2025C184.021 57.0523 182.81 54.1761 180.835 52.028ZM170.231 59.5393C162.878 56.2378 162.352 53.5994 162.395 52.7993C160.788 54.8465 159.843 57.4128 159.843 60.2097C159.843 61.2622 159.973 62.2714 160.233 63.2445C160.781 62.3002 162.806 60.4404 170.116 60.4115C170.108 60.3467 170.101 60.2818 170.101 60.2169C170.101 59.9718 170.137 59.7411 170.231 59.5393ZM171.37 61.9398C171.089 61.8533 170.844 61.7019 170.635 61.5C165.207 66.5533 162.453 66.5172 161.437 66.2072C163.217 69.3213 166.338 71.556 170.015 72.1471C169.395 71.3109 168.479 68.7735 171.37 61.9398ZM172.646 61.8605L172.653 61.8893L172.66 61.8821C172.66 61.8821 172.653 61.8677 172.646 61.8605ZM171.932 48.1209C169.986 48.1209 168.155 48.5823 166.526 49.3968C167.564 49.7501 169.791 51.3504 171.356 58.4724C171.536 58.4076 171.73 58.3787 171.932 58.3787C172.033 58.3787 172.141 58.3859 172.235 58.4003C173.929 50.4565 176.423 49.4401 177.187 49.3248C175.601 48.5462 173.821 48.1209 171.932 48.1209ZM173.331 61.3847C173.151 61.601 172.92 61.774 172.66 61.8821C176.142 68.0743 175.695 70.8063 175.169 71.8516C178.701 70.8712 181.592 68.3266 183.026 65.0178C182.212 65.4503 179.581 66.0198 173.331 61.3847ZM180.835 52.028C180.835 53.03 180.064 55.6106 173.497 59.251C173.648 59.4888 173.734 59.7628 173.756 60.0583C181.073 59.4456 183.257 61.1252 183.891 62.0118C183.971 61.4207 184.021 60.8224 184.021 60.2025C184.021 57.0523 182.81 54.1761 180.835 52.028ZM173.331 61.3847C173.151 61.601 172.92 61.774 172.66 61.8821C176.142 68.0743 175.695 70.8063 175.169 71.8516C178.701 70.8712 181.592 68.3266 183.026 65.0178C182.212 65.4503 179.581 66.0198 173.331 61.3847ZM171.932 48.1209C169.986 48.1209 168.155 48.5823 166.526 49.3968C167.564 49.7501 169.791 51.3504 171.356 58.4724C171.536 58.4076 171.73 58.3787 171.932 58.3787C172.033 58.3787 172.141 58.3859 172.235 58.4003C173.929 50.4565 176.423 49.4401 177.187 49.3248C175.601 48.5462 173.821 48.1209 171.932 48.1209ZM172.646 61.8605L172.653 61.8893L172.66 61.8821C172.66 61.8821 172.653 61.8677 172.646 61.8605ZM171.37 61.9398C171.089 61.8533 170.844 61.7019 170.635 61.5C165.207 66.5533 162.453 66.5172 161.437 66.2072C163.217 69.3213 166.338 71.556 170.015 72.1471C169.395 71.3109 168.479 68.7735 171.37 61.9398ZM170.231 59.5393C162.878 56.2378 162.352 53.5994 162.395 52.7993C160.788 54.8465 159.843 57.4128 159.843 60.2097C159.843 61.2622 159.973 62.2714 160.233 63.2445C160.781 62.3002 162.806 60.4404 170.116 60.4115C170.108 60.3467 170.101 60.2818 170.101 60.2169C170.101 59.9718 170.137 59.7411 170.231 59.5393ZM180.835 52.028C180.835 53.03 180.064 55.6106 173.497 59.251C173.648 59.4888 173.734 59.7628 173.756 60.0583C181.073 59.4456 183.257 61.1252 183.891 62.0118C183.971 61.4207 184.021 60.8224 184.021 60.2025C184.021 57.0523 182.81 54.1761 180.835 52.028ZM170.231 59.5393C162.878 56.2378 162.352 53.5994 162.395 52.7993C160.788 54.8465 159.843 57.4128 159.843 60.2097C159.843 61.2622 159.973 62.2714 160.233 63.2445C160.781 62.3002 162.806 60.4404 170.116 60.4115C170.108 60.3467 170.101 60.2818 170.101 60.2169C170.101 59.9718 170.137 59.7411 170.231 59.5393ZM171.37 61.9398C171.089 61.8533 170.844 61.7019 170.635 61.5C165.207 66.5533 162.453 66.5172 161.437 66.2072C163.217 69.3213 166.338 71.556 170.015 72.1471C169.395 71.3109 168.479 68.7735 171.37 61.9398ZM172.646 61.8605L172.653 61.8893L172.66 61.8821C172.66 61.8821 172.653 61.8677 172.646 61.8605ZM171.932 48.1209C169.986 48.1209 168.155 48.5823 166.526 49.3968C167.564 49.7501 169.791 51.3504 171.356 58.4724C171.536 58.4076 171.73 58.3787 171.932 58.3787C172.033 58.3787 172.141 58.3859 172.235 58.4003C173.929 50.4565 176.423 49.4401 177.187 49.3248C175.601 48.5462 173.821 48.1209 171.932 48.1209ZM173.331 61.3847C173.151 61.601 172.92 61.774 172.66 61.8821C176.142 68.0743 175.695 70.8063 175.169 71.8516C178.701 70.8712 181.592 68.3266 183.026 65.0178C182.212 65.4503 179.581 66.0198 173.331 61.3847ZM180.835 52.028C180.835 53.03 180.064 55.6106 173.497 59.251C173.648 59.4888 173.734 59.7628 173.756 60.0583C181.073 59.4456 183.257 61.1252 183.891 62.0118C183.971 61.4207 184.021 60.8224 184.021 60.2025C184.021 57.0523 182.81 54.1761 180.835 52.028ZM173.331 61.3847C173.151 61.601 172.92 61.774 172.66 61.8821C176.142 68.0743 175.695 70.8063 175.169 71.8516C178.701 70.8712 181.592 68.3266 183.026 65.0178C182.212 65.4503 179.581 66.0198 173.331 61.3847ZM171.932 48.1209C169.986 48.1209 168.155 48.5823 166.526 49.3968C167.564 49.7501 169.791 51.3504 171.356 58.4724C171.536 58.4076 171.73 58.3787 171.932 58.3787C172.033 58.3787 172.141 58.3859 172.235 58.4003C173.929 50.4565 176.423 49.4401 177.187 49.3248C175.601 48.5462 173.821 48.1209 171.932 48.1209ZM172.646 61.8605L172.653 61.8893L172.66 61.8821C172.66 61.8821 172.653 61.8677 172.646 61.8605ZM171.37 61.9398C171.089 61.8533 170.844 61.7019 170.635 61.5C165.207 66.5533 162.453 66.5172 161.437 66.2072C163.217 69.3213 166.338 71.556 170.015 72.1471C169.395 71.3109 168.479 68.7735 171.37 61.9398ZM170.231 59.5393C162.878 56.2378 162.352 53.5994 162.395 52.7993C160.788 54.8465 159.843 57.4128 159.843 60.2097C159.843 61.2622 159.973 62.2714 160.233 63.2445C160.781 62.3002 162.806 60.4404 170.116 60.4115C170.108 60.3467 170.101 60.2818 170.101 60.2169C170.101 59.9718 170.137 59.7411 170.231 59.5393ZM180.835 52.028C180.835 53.03 180.064 55.6106 173.497 59.251C173.648 59.4888 173.734 59.7628 173.756 60.0583C181.073 59.4456 183.257 61.1252 183.891 62.0118C183.971 61.4207 184.021 60.8224 184.021 60.2025C184.021 57.0523 182.81 54.1761 180.835 52.028ZM170.231 59.5393C162.878 56.2378 162.352 53.5994 162.395 52.7993C160.788 54.8465 159.843 57.4128 159.843 60.2097C159.843 61.2622 159.973 62.2714 160.233 63.2445C160.781 62.3002 162.806 60.4404 170.116 60.4115C170.108 60.3467 170.101 60.2818 170.101 60.2169C170.101 59.9718 170.137 59.7411 170.231 59.5393ZM171.37 61.9398C171.089 61.8533 170.844 61.7019 170.635 61.5C165.207 66.5533 162.453 66.5172 161.437 66.2072C163.217 69.3213 166.338 71.556 170.015 72.1471C169.395 71.3109 168.479 68.7735 171.37 61.9398ZM172.646 61.8605L172.653 61.8893L172.66 61.8821C172.66 61.8821 172.653 61.8677 172.646 61.8605ZM171.932 48.1209C169.986 48.1209 168.155 48.5823 166.526 49.3968C167.564 49.7501 169.791 51.3504 171.356 58.4724C171.536 58.4076 171.73 58.3787 171.932 58.3787C172.033 58.3787 172.141 58.3859 172.235 58.4003C173.929 50.4565 176.423 49.4401 177.187 49.3248C175.601 48.5462 173.821 48.1209 171.932 48.1209ZM173.331 61.3847C173.151 61.601 172.92 61.774 172.66 61.8821C176.142 68.0743 175.695 70.8063 175.169 71.8516C178.701 70.8712 181.592 68.3266 183.026 65.0178C182.212 65.4503 179.581 66.0198 173.331 61.3847ZM180.835 52.028C180.835 53.03 180.064 55.6106 173.497 59.251C173.648 59.4888 173.734 59.7628 173.756 60.0583C181.073 59.4456 183.257 61.1252 183.891 62.0118C183.971 61.4207 184.021 60.8224 184.021 60.2025C184.021 57.0523 182.81 54.1761 180.835 52.028ZM173.331 61.3847C173.151 61.601 172.92 61.774 172.66 61.8821C176.142 68.0743 175.695 70.8063 175.169 71.8516C178.701 70.8712 181.592 68.3266 183.026 65.0178C182.212 65.4503 179.581 66.0198 173.331 61.3847ZM171.932 48.1209C169.986 48.1209 168.155 48.5823 166.526 49.3968C167.564 49.7501 169.791 51.3504 171.356 58.4724C171.536 58.4076 171.73 58.3787 171.932 58.3787C172.033 58.3787 172.141 58.3859 172.235 58.4003C173.929 50.4565 176.423 49.4401 177.187 49.3248C175.601 48.5462 173.821 48.1209 171.932 48.1209ZM172.646 61.8605L172.653 61.8893L172.66 61.8821C172.66 61.8821 172.653 61.8677 172.646 61.8605ZM171.37 61.9398C171.089 61.8533 170.844 61.7019 170.635 61.5C165.207 66.5533 162.453 66.5172 161.437 66.2072C163.217 69.3213 166.338 71.556 170.015 72.1471C169.395 71.3109 168.479 68.7735 171.37 61.9398ZM170.231 59.5393C162.878 56.2378 162.352 53.5994 162.395 52.7993C160.788 54.8465 159.843 57.4128 159.843 60.2097C159.843 61.2622 159.973 62.2714 160.233 63.2445C160.781 62.3002 162.806 60.4404 170.116 60.4115C170.108 60.3467 170.101 60.2818 170.101 60.2169C170.101 59.9718 170.137 59.7411 170.231 59.5393ZM180.835 52.028C180.835 53.03 180.064 55.6106 173.497 59.251C173.648 59.4888 173.734 59.7628 173.756 60.0583C181.073 59.4456 183.257 61.1252 183.891 62.0118C183.971 61.4207 184.021 60.8224 184.021 60.2025C184.021 57.0523 182.81 54.1761 180.835 52.028ZM170.231 59.5393C162.878 56.2378 162.352 53.5994 162.395 52.7993C160.788 54.8465 159.843 57.4128 159.843 60.2097C159.843 61.2622 159.973 62.2714 160.233 63.2445C160.781 62.3002 162.806 60.4404 170.116 60.4115C170.108 60.3467 170.101 60.2818 170.101 60.2169C170.101 59.9718 170.137 59.7411 170.231 59.5393ZM171.37 61.9398C171.089 61.8533 170.844 61.7019 170.635 61.5C165.207 66.5533 162.453 66.5172 161.437 66.2072C163.217 69.3213 166.338 71.556 170.015 72.1471C169.395 71.3109 168.479 68.7735 171.37 61.9398ZM172.646 61.8605L172.653 61.8893L172.66 61.8821C172.66 61.8821 172.653 61.8677 172.646 61.8605ZM171.932 48.1209C169.986 48.1209 168.155 48.5823 166.526 49.3968C167.564 49.7501 169.791 51.3504 171.356 58.4724C171.536 58.4076 171.73 58.3787 171.932 58.3787C172.033 58.3787 172.141 58.3859 172.235 58.4003C173.929 50.4565 176.423 49.4401 177.187 49.3248C175.601 48.5462 173.821 48.1209 171.932 48.1209ZM173.331 61.3847C173.151 61.601 172.92 61.774 172.66 61.8821C176.142 68.0743 175.695 70.8063 175.169 71.8516C178.701 70.8712 181.592 68.3266 183.026 65.0178C182.212 65.4503 179.581 66.0198 173.331 61.3847ZM180.835 52.028C180.835 53.03 180.064 55.6106 173.497 59.251C173.648 59.4888 173.734 59.7628 173.756 60.0583C181.073 59.4456 183.257 61.1252 183.891 62.0118C183.971 61.4207 184.021 60.8224 184.021 60.2025C184.021 57.0523 182.81 54.1761 180.835 52.028ZM173.331 61.3847C173.151 61.601 172.92 61.774 172.66 61.8821C176.142 68.0743 175.695 70.8063 175.169 71.8516C178.701 70.8712 181.592 68.3266 183.026 65.0178C182.212 65.4503 179.581 66.0198 173.331 61.3847ZM171.932 48.1209C169.986 48.1209 168.155 48.5823 166.526 49.3968C167.564 49.7501 169.791 51.3504 171.356 58.4724C171.536 58.4076 171.73 58.3787 171.932 58.3787C172.033 58.3787 172.141 58.3859 172.235 58.4003C173.929 50.4565 176.423 49.4401 177.187 49.3248C175.601 48.5462 173.821 48.1209 171.932 48.1209ZM172.646 61.8605L172.653 61.8893L172.66 61.8821C172.66 61.8821 172.653 61.8677 172.646 61.8605ZM171.37 61.9398C171.089 61.8533 170.844 61.7019 170.635 61.5C165.207 66.5533 162.453 66.5172 161.437 66.2072C163.217 69.3213 166.338 71.556 170.015 72.1471C169.395 71.3109 168.479 68.7735 171.37 61.9398ZM170.231 59.5393C162.878 56.2378 162.352 53.5994 162.395 52.7993C160.788 54.8465 159.843 57.4128 159.843 60.2097C159.843 61.2622 159.973 62.2714 160.233 63.2445C160.781 62.3002 162.806 60.4404 170.116 60.4115C170.108 60.3467 170.101 60.2818 170.101 60.2169C170.101 59.9718 170.137 59.7411 170.231 59.5393ZM180.835 52.028C180.835 53.03 180.064 55.6106 173.497 59.251C173.648 59.4888 173.734 59.7628 173.756 60.0583C181.073 59.4456 183.257 61.1252 183.891 62.0118C183.971 61.4207 184.021 60.8224 184.021 60.2025C184.021 57.0523 182.81 54.1761 180.835 52.028ZM170.231 59.5393C162.878 56.2378 162.352 53.5994 162.395 52.7993C160.788 54.8465 159.843 57.4128 159.843 60.2097C159.843 61.2622 159.973 62.2714 160.233 63.2445C160.781 62.3002 162.806 60.4404 170.116 60.4115C170.108 60.3467 170.101 60.2818 170.101 60.2169C170.101 59.9718 170.137 59.7411 170.231 59.5393ZM171.37 61.9398C171.089 61.8533 170.844 61.7019 170.635 61.5C165.207 66.5533 162.453 66.5172 161.437 66.2072C163.217 69.3213 166.338 71.556 170.015 72.1471C169.395 71.3109 168.479 68.7735 171.37 61.9398ZM172.646 61.8605L172.653 61.8893L172.66 61.8821C172.66 61.8821 172.653 61.8677 172.646 61.8605ZM171.932 48.1209C169.986 48.1209 168.155 48.5823 166.526 49.3968C167.564 49.7501 169.791 51.3504 171.356 58.4724C171.536 58.4076 171.73 58.3787 171.932 58.3787C172.033 58.3787 172.141 58.3859 172.235 58.4003C173.929 50.4565 176.423 49.4401 177.187 49.3248C175.601 48.5462 173.821 48.1209 171.932 48.1209ZM173.331 61.3847C173.151 61.601 172.92 61.774 172.66 61.8821C176.142 68.0743 175.695 70.8063 175.169 71.8516C178.701 70.8712 181.592 68.3266 183.026 65.0178C182.212 65.4503 179.581 66.0198 173.331 61.3847ZM180.835 52.028C180.835 53.03 180.064 55.6106 173.497 59.251C173.648 59.4888 173.734 59.7628 173.756 60.0583C181.073 59.4456 183.257 61.1252 183.891 62.0118C183.971 61.4207 184.021 60.8224 184.021 60.2025C184.021 57.0523 182.81 54.1761 180.835 52.028ZM173.331 61.3847C173.151 61.601 172.92 61.774 172.66 61.8821C176.142 68.0743 175.695 70.8063 175.169 71.8516C178.701 70.8712 181.592 68.3266 183.026 65.0178C182.212 65.4503 179.581 66.0198 173.331 61.3847ZM171.932 48.1209C169.986 48.1209 168.155 48.5823 166.526 49.3968C167.564 49.7501 169.791 51.3504 171.356 58.4724C171.536 58.4076 171.73 58.3787 171.932 58.3787C172.033 58.3787 172.141 58.3859 172.235 58.4003C173.929 50.4565 176.423 49.4401 177.187 49.3248C175.601 48.5462 173.821 48.1209 171.932 48.1209ZM172.646 61.8605L172.653 61.8893L172.66 61.8821C172.66 61.8821 172.653 61.8677 172.646 61.8605ZM171.37 61.9398C171.089 61.8533 170.844 61.7019 170.635 61.5C165.207 66.5533 162.453 66.5172 161.437 66.2072C163.217 69.3213 166.338 71.556 170.015 72.1471C169.395 71.3109 168.479 68.7735 171.37 61.9398ZM170.231 59.5393C162.878 56.2378 162.352 53.5994 162.395 52.7993C160.788 54.8465 159.843 57.4128 159.843 60.2097C159.843 61.2622 159.973 62.2714 160.233 63.2445C160.781 62.3002 162.806 60.4404 170.116 60.4115C170.108 60.3467 170.101 60.2818 170.101 60.2169C170.101 59.9718 170.137 59.7411 170.231 59.5393ZM180.835 52.028C180.835 53.03 180.064 55.6106 173.497 59.251C173.648 59.4888 173.734 59.7628 173.756 60.0583C181.073 59.4456 183.257 61.1252 183.891 62.0118C183.971 61.4207 184.021 60.8224 184.021 60.2025C184.021 57.0523 182.81 54.1761 180.835 52.028ZM170.231 59.5393C162.878 56.2378 162.352 53.5994 162.395 52.7993C160.788 54.8465 159.843 57.4128 159.843 60.2097C159.843 61.2622 159.973 62.2714 160.233 63.2445C160.781 62.3002 162.806 60.4404 170.116 60.4115C170.108 60.3467 170.101 60.2818 170.101 60.2169C170.101 59.9718 170.137 59.7411 170.231 59.5393ZM171.37 61.9398C171.089 61.8533 170.844 61.7019 170.635 61.5C165.207 66.5533 162.453 66.5172 161.437 66.2072C163.217 69.3213 166.338 71.556 170.015 72.1471C169.395 71.3109 168.479 68.7735 171.37 61.9398ZM172.646 61.8605L172.653 61.8893L172.66 61.8821C172.66 61.8821 172.653 61.8677 172.646 61.8605ZM171.932 48.1209C169.986 48.1209 168.155 48.5823 166.526 49.3968C167.564 49.7501 169.791 51.3504 171.356 58.4724C171.536 58.4076 171.73 58.3787 171.932 58.3787C172.033 58.3787 172.141 58.3859 172.235 58.4003C173.929 50.4565 176.423 49.4401 177.187 49.3248C175.601 48.5462 173.821 48.1209 171.932 48.1209ZM173.331 61.3847C173.151 61.601 172.92 61.774 172.66 61.8821C176.142 68.0743 175.695 70.8063 175.169 71.8516C178.701 70.8712 181.592 68.3266 183.026 65.0178C182.212 65.4503 179.581 66.0198 173.331 61.3847ZM180.835 52.028C180.835 53.03 180.064 55.6106 173.497 59.251C173.648 59.4888 173.734 59.7628 173.756 60.0583C181.073 59.4456 183.257 61.1252 183.891 62.0118C183.971 61.4207 184.021 60.8224 184.021 60.2025C184.021 57.0523 182.81 54.1761 180.835 52.028ZM173.331 61.3847C173.151 61.601 172.92 61.774 172.66 61.8821C176.142 68.0743 175.695 70.8063 175.169 71.8516C178.701 70.8712 181.592 68.3266 183.026 65.0178C182.212 65.4503 179.581 66.0198 173.331 61.3847ZM177.187 49.3248C175.601 48.5534 173.821 48.1209 171.932 48.1209C169.986 48.1209 168.155 48.5823 166.526 49.3968C167.564 49.7501 169.791 51.3504 171.356 58.4724C171.536 58.4076 171.73 58.3787 171.932 58.3787C172.033 58.3787 172.141 58.3859 172.235 58.4003C173.929 50.4565 176.423 49.4401 177.187 49.3248ZM172.653 61.8893C172.66 61.8749 172.653 61.8677 172.646 61.8605L172.653 61.8893ZM170.635 61.5C165.207 66.5533 162.453 66.5172 161.437 66.2072C163.217 69.3213 166.338 71.556 170.015 72.1471C169.395 71.3109 168.479 68.7735 171.37 61.947C171.089 61.8533 170.844 61.7019 170.635 61.5ZM170.101 60.2097C170.101 59.9718 170.145 59.7411 170.231 59.5393C162.878 56.2378 162.352 53.5994 162.395 52.7993C160.788 54.8465 159.843 57.4128 159.843 60.2097C159.843 61.2622 159.973 62.2714 160.233 63.2445C160.781 62.3002 162.806 60.4404 170.116 60.4115C170.108 60.3395 170.101 60.2746 170.101 60.2097ZM180.835 52.028C180.835 53.03 180.064 55.6106 173.497 59.251C173.648 59.4888 173.734 59.7628 173.756 60.0583C181.073 59.4456 183.257 61.1252 183.891 62.0118C183.971 61.4207 184.021 60.8224 184.021 60.2025C184.021 57.0523 182.81 54.1761 180.835 52.028ZM171.932 44.3508C163.174 44.3508 156.081 51.4513 156.081 60.2097C156.081 68.9681 163.174 76.0614 171.932 76.0614C180.683 76.0614 187.791 68.9609 187.791 60.2097C187.791 51.4513 180.683 44.3508 171.932 44.3508ZM171.932 73.0266C164.853 73.0266 159.108 67.2885 159.108 60.2097C159.108 53.1309 164.853 47.3856 171.932 47.3856C179.011 47.3856 184.749 53.1309 184.749 60.2097C184.749 67.2885 179.011 73.0266 171.932 73.0266ZM173.331 61.3847C173.151 61.601 172.92 61.774 172.66 61.8821C176.142 68.0743 175.695 70.8063 175.169 71.8516C178.701 70.8712 181.592 68.3266 183.026 65.0178C182.212 65.4503 179.581 66.0198 173.331 61.3847ZM177.187 49.3248C175.601 48.5534 173.821 48.1209 171.932 48.1209C169.986 48.1209 168.155 48.5823 166.526 49.3968C167.564 49.7501 169.791 51.3504 171.356 58.4724C171.536 58.4076 171.73 58.3787 171.932 58.3787C172.033 58.3787 172.141 58.3859 172.235 58.4003C173.929 50.4565 176.423 49.4401 177.187 49.3248ZM172.653 61.8893C172.66 61.8749 172.653 61.8677 172.646 61.8605L172.653 61.8893ZM170.635 61.5C165.207 66.5533 162.453 66.5172 161.437 66.2072C163.217 69.3213 166.338 71.556 170.015 72.1471C169.395 71.3109 168.479 68.7735 171.37 61.947C171.089 61.8533 170.844 61.7019 170.635 61.5ZM170.101 60.2097C170.101 59.9718 170.145 59.7411 170.231 59.5393C162.878 56.2378 162.352 53.5994 162.395 52.7993C160.788 54.8465 159.843 57.4128 159.843 60.2097C159.843 61.2622 159.973 62.2714 160.233 63.2445C160.781 62.3002 162.806 60.4404 170.116 60.4115C170.108 60.3395 170.101 60.2746 170.101 60.2097ZM180.835 52.028C180.835 53.03 180.064 55.6106 173.497 59.251C173.648 59.4888 173.734 59.7628 173.756 60.0583C181.073 59.4456 183.257 61.1252 183.891 62.0118C183.971 61.4207 184.021 60.8224 184.021 60.2025C184.021 57.0523 182.81 54.1761 180.835 52.028ZM170.231 59.5393C162.878 56.2378 162.352 53.5994 162.395 52.7993C160.788 54.8465 159.843 57.4128 159.843 60.2097C159.843 61.2622 159.973 62.2714 160.233 63.2445C160.781 62.3002 162.806 60.4404 170.116 60.4115C170.108 60.3467 170.101 60.2818 170.101 60.2169C170.101 59.9718 170.137 59.7411 170.231 59.5393ZM171.37 61.9398C171.089 61.8533 170.844 61.7019 170.635 61.5C165.207 66.5533 162.453 66.5172 161.437 66.2072C163.217 69.3213 166.338 71.556 170.015 72.1471C169.395 71.3109 168.479 68.7735 171.37 61.9398ZM172.646 61.8605L172.653 61.8893L172.66 61.8821C172.66 61.8821 172.653 61.8677 172.646 61.8605ZM171.932 48.1209C169.986 48.1209 168.155 48.5823 166.526 49.3968C167.564 49.7501 169.791 51.3504 171.356 58.4724C171.536 58.4076 171.73 58.3787 171.932 58.3787C172.033 58.3787 172.141 58.3859 172.235 58.4003C173.929 50.4565 176.423 49.4401 177.187 49.3248C175.601 48.5462 173.821 48.1209 171.932 48.1209ZM173.331 61.3847C173.151 61.601 172.92 61.774 172.66 61.8821C176.142 68.0743 175.695 70.8063 175.169 71.8516C178.701 70.8712 181.592 68.3266 183.026 65.0178C182.212 65.4503 179.581 66.0198 173.331 61.3847ZM180.835 52.028C180.835 53.03 180.064 55.6106 173.497 59.251C173.648 59.4888 173.734 59.7628 173.756 60.0583C181.073 59.4456 183.257 61.1252 183.891 62.0118C183.971 61.4207 184.021 60.8224 184.021 60.2025C184.021 57.0523 182.81 54.1761 180.835 52.028ZM173.331 61.3847C173.151 61.601 172.92 61.774 172.66 61.8821C176.142 68.0743 175.695 70.8063 175.169 71.8516C178.701 70.8712 181.592 68.3266 183.026 65.0178C182.212 65.4503 179.581 66.0198 173.331 61.3847ZM171.932 48.1209C169.986 48.1209 168.155 48.5823 166.526 49.3968C167.564 49.7501 169.791 51.3504 171.356 58.4724C171.536 58.4076 171.73 58.3787 171.932 58.3787C172.033 58.3787 172.141 58.3859 172.235 58.4003C173.929 50.4565 176.423 49.4401 177.187 49.3248C175.601 48.5462 173.821 48.1209 171.932 48.1209ZM172.646 61.8605L172.653 61.8893L172.66 61.8821C172.66 61.8821 172.653 61.8677 172.646 61.8605ZM171.37 61.9398C171.089 61.8533 170.844 61.7019 170.635 61.5C165.207 66.5533 162.453 66.5172 161.437 66.2072C163.217 69.3213 166.338 71.556 170.015 72.1471C169.395 71.3109 168.479 68.7735 171.37 61.9398ZM170.231 59.5393C162.878 56.2378 162.352 53.5994 162.395 52.7993C160.788 54.8465 159.843 57.4128 159.843 60.2097C159.843 61.2622 159.973 62.2714 160.233 63.2445C160.781 62.3002 162.806 60.4404 170.116 60.4115C170.108 60.3467 170.101 60.2818 170.101 60.2169C170.101 59.9718 170.137 59.7411 170.231 59.5393ZM180.835 52.028C180.835 53.03 180.064 55.6106 173.497 59.251C173.648 59.4888 173.734 59.7628 173.756 60.0583C181.073 59.4456 183.257 61.1252 183.891 62.0118C183.971 61.4207 184.021 60.8224 184.021 60.2025C184.021 57.0523 182.81 54.1761 180.835 52.028ZM170.231 59.5393C162.878 56.2378 162.352 53.5994 162.395 52.7993C160.788 54.8465 159.843 57.4128 159.843 60.2097C159.843 61.2622 159.973 62.2714 160.233 63.2445C160.781 62.3002 162.806 60.4404 170.116 60.4115C170.108 60.3467 170.101 60.2818 170.101 60.2169C170.101 59.9718 170.137 59.7411 170.231 59.5393ZM171.37 61.9398C171.089 61.8533 170.844 61.7019 170.635 61.5C165.207 66.5533 162.453 66.5172 161.437 66.2072C163.217 69.3213 166.338 71.556 170.015 72.1471C169.395 71.3109 168.479 68.7735 171.37 61.9398ZM172.646 61.8605L172.653 61.8893L172.66 61.8821C172.66 61.8821 172.653 61.8677 172.646 61.8605ZM171.932 48.1209C169.986 48.1209 168.155 48.5823 166.526 49.3968C167.564 49.7501 169.791 51.3504 171.356 58.4724C171.536 58.4076 171.73 58.3787 171.932 58.3787C172.033 58.3787 172.141 58.3859 172.235 58.4003C173.929 50.4565 176.423 49.4401 177.187 49.3248C175.601 48.5462 173.821 48.1209 171.932 48.1209ZM173.331 61.3847C173.151 61.601 172.92 61.774 172.66 61.8821C176.142 68.0743 175.695 70.8063 175.169 71.8516C178.701 70.8712 181.592 68.3266 183.026 65.0178C182.212 65.4503 179.581 66.0198 173.331 61.3847ZM180.835 52.028C180.835 53.03 180.064 55.6106 173.497 59.251C173.648 59.4888 173.734 59.7628 173.756 60.0583C181.073 59.4456 183.257 61.1252 183.891 62.0118C183.971 61.4207 184.021 60.8224 184.021 60.2025C184.021 57.0523 182.81 54.1761 180.835 52.028ZM173.331 61.3847C173.151 61.601 172.92 61.774 172.66 61.8821C176.142 68.0743 175.695 70.8063 175.169 71.8516C178.701 70.8712 181.592 68.3266 183.026 65.0178C182.212 65.4503 179.581 66.0198 173.331 61.3847ZM171.932 48.1209C169.986 48.1209 168.155 48.5823 166.526 49.3968C167.564 49.7501 169.791 51.3504 171.356 58.4724C171.536 58.4076 171.73 58.3787 171.932 58.3787C172.033 58.3787 172.141 58.3859 172.235 58.4003C173.929 50.4565 176.423 49.4401 177.187 49.3248C175.601 48.5462 173.821 48.1209 171.932 48.1209ZM172.646 61.8605L172.653 61.8893L172.66 61.8821C172.66 61.8821 172.653 61.8677 172.646 61.8605ZM171.37 61.9398C171.089 61.8533 170.844 61.7019 170.635 61.5C165.207 66.5533 162.453 66.5172 161.437 66.2072C163.217 69.3213 166.338 71.556 170.015 72.1471C169.395 71.3109 168.479 68.7735 171.37 61.9398ZM170.231 59.5393C162.878 56.2378 162.352 53.5994 162.395 52.7993C160.788 54.8465 159.843 57.4128 159.843 60.2097C159.843 61.2622 159.973 62.2714 160.233 63.2445C160.781 62.3002 162.806 60.4404 170.116 60.4115C170.108 60.3467 170.101 60.2818 170.101 60.2169C170.101 59.9718 170.137 59.7411 170.231 59.5393ZM180.835 52.028C180.835 53.03 180.064 55.6106 173.497 59.251C173.648 59.4888 173.734 59.7628 173.756 60.0583C181.073 59.4456 183.257 61.1252 183.891 62.0118C183.971 61.4207 184.021 60.8224 184.021 60.2025C184.021 57.0523 182.81 54.1761 180.835 52.028ZM170.231 59.5393C162.878 56.2378 162.352 53.5994 162.395 52.7993C160.788 54.8465 159.843 57.4128 159.843 60.2097C159.843 61.2622 159.973 62.2714 160.233 63.2445C160.781 62.3002 162.806 60.4404 170.116 60.4115C170.108 60.3467 170.101 60.2818 170.101 60.2169C170.101 59.9718 170.137 59.7411 170.231 59.5393ZM171.37 61.9398C171.089 61.8533 170.844 61.7019 170.635 61.5C165.207 66.5533 162.453 66.5172 161.437 66.2072C163.217 69.3213 166.338 71.556 170.015 72.1471C169.395 71.3109 168.479 68.7735 171.37 61.9398ZM172.646 61.8605L172.653 61.8893L172.66 61.8821C172.66 61.8821 172.653 61.8677 172.646 61.8605ZM171.932 48.1209C169.986 48.1209 168.155 48.5823 166.526 49.3968C167.564 49.7501 169.791 51.3504 171.356 58.4724C171.536 58.4076 171.73 58.3787 171.932 58.3787C172.033 58.3787 172.141 58.3859 172.235 58.4003C173.929 50.4565 176.423 49.4401 177.187 49.3248C175.601 48.5462 173.821 48.1209 171.932 48.1209ZM173.331 61.3847C173.151 61.601 172.92 61.774 172.66 61.8821C176.142 68.0743 175.695 70.8063 175.169 71.8516C178.701 70.8712 181.592 68.3266 183.026 65.0178C182.212 65.4503 179.581 66.0198 173.331 61.3847ZM180.835 52.028C180.835 53.03 180.064 55.6106 173.497 59.251C173.648 59.4888 173.734 59.7628 173.756 60.0583C181.073 59.4456 183.257 61.1252 183.891 62.0118C183.971 61.4207 184.021 60.8224 184.021 60.2025C184.021 57.0523 182.81 54.1761 180.835 52.028ZM173.331 61.3847C173.151 61.601 172.92 61.774 172.66 61.8821C176.142 68.0743 175.695 70.8063 175.169 71.8516C178.701 70.8712 181.592 68.3266 183.026 65.0178C182.212 65.4503 179.581 66.0198 173.331 61.3847ZM171.932 48.1209C169.986 48.1209 168.155 48.5823 166.526 49.3968C167.564 49.7501 169.791 51.3504 171.356 58.4724C171.536 58.4076 171.73 58.3787 171.932 58.3787C172.033 58.3787 172.141 58.3859 172.235 58.4003C173.929 50.4565 176.423 49.4401 177.187 49.3248C175.601 48.5462 173.821 48.1209 171.932 48.1209ZM172.646 61.8605L172.653 61.8893L172.66 61.8821C172.66 61.8821 172.653 61.8677 172.646 61.8605ZM171.37 61.9398C171.089 61.8533 170.844 61.7019 170.635 61.5C165.207 66.5533 162.453 66.5172 161.437 66.2072C163.217 69.3213 166.338 71.556 170.015 72.1471C169.395 71.3109 168.479 68.7735 171.37 61.9398ZM170.231 59.5393C162.878 56.2378 162.352 53.5994 162.395 52.7993C160.788 54.8465 159.843 57.4128 159.843 60.2097C159.843 61.2622 159.973 62.2714 160.233 63.2445C160.781 62.3002 162.806 60.4404 170.116 60.4115C170.108 60.3467 170.101 60.2818 170.101 60.2169C170.101 59.9718 170.137 59.7411 170.231 59.5393ZM180.835 52.028C180.835 53.03 180.064 55.6106 173.497 59.251C173.648 59.4888 173.734 59.7628 173.756 60.0583C181.073 59.4456 183.257 61.1252 183.891 62.0118C183.971 61.4207 184.021 60.8224 184.021 60.2025C184.021 57.0523 182.81 54.1761 180.835 52.028ZM170.231 59.5393C162.878 56.2378 162.352 53.5994 162.395 52.7993C160.788 54.8465 159.843 57.4128 159.843 60.2097C159.843 61.2622 159.973 62.2714 160.233 63.2445C160.781 62.3002 162.806 60.4404 170.116 60.4115C170.108 60.3467 170.101 60.2818 170.101 60.2169C170.101 59.9718 170.137 59.7411 170.231 59.5393ZM171.37 61.9398C171.089 61.8533 170.844 61.7019 170.635 61.5C165.207 66.5533 162.453 66.5172 161.437 66.2072C163.217 69.3213 166.338 71.556 170.015 72.1471C169.395 71.3109 168.479 68.7735 171.37 61.9398ZM172.646 61.8605L172.653 61.8893L172.66 61.8821C172.66 61.8821 172.653 61.8677 172.646 61.8605ZM171.932 48.1209C169.986 48.1209 168.155 48.5823 166.526 49.3968C167.564 49.7501 169.791 51.3504 171.356 58.4724C171.536 58.4076 171.73 58.3787 171.932 58.3787C172.033 58.3787 172.141 58.3859 172.235 58.4003C173.929 50.4565 176.423 49.4401 177.187 49.3248C175.601 48.5462 173.821 48.1209 171.932 48.1209ZM173.331 61.3847C173.151 61.601 172.92 61.774 172.66 61.8821C176.142 68.0743 175.695 70.8063 175.169 71.8516C178.701 70.8712 181.592 68.3266 183.026 65.0178C182.212 65.4503 179.581 66.0198 173.331 61.3847ZM180.835 52.028C180.835 53.03 180.064 55.6106 173.497 59.251C173.648 59.4888 173.734 59.7628 173.756 60.0583C181.073 59.4456 183.257 61.1252 183.891 62.0118C183.971 61.4207 184.021 60.8224 184.021 60.2025C184.021 57.0523 182.81 54.1761 180.835 52.028ZM173.331 61.3847C173.151 61.601 172.92 61.774 172.66 61.8821C176.142 68.0743 175.695 70.8063 175.169 71.8516C178.701 70.8712 181.592 68.3266 183.026 65.0178C182.212 65.4503 179.581 66.0198 173.331 61.3847ZM171.932 48.1209C169.986 48.1209 168.155 48.5823 166.526 49.3968C167.564 49.7501 169.791 51.3504 171.356 58.4724C171.536 58.4076 171.73 58.3787 171.932 58.3787C172.033 58.3787 172.141 58.3859 172.235 58.4003C173.929 50.4565 176.423 49.4401 177.187 49.3248C175.601 48.5462 173.821 48.1209 171.932 48.1209ZM172.646 61.8605L172.653 61.8893L172.66 61.8821C172.66 61.8821 172.653 61.8677 172.646 61.8605ZM171.37 61.9398C171.089 61.8533 170.844 61.7019 170.635 61.5C165.207 66.5533 162.453 66.5172 161.437 66.2072C163.217 69.3213 166.338 71.556 170.015 72.1471C169.395 71.3109 168.479 68.7735 171.37 61.9398ZM170.231 59.5393C162.878 56.2378 162.352 53.5994 162.395 52.7993C160.788 54.8465 159.843 57.4128 159.843 60.2097C159.843 61.2622 159.973 62.2714 160.233 63.2445C160.781 62.3002 162.806 60.4404 170.116 60.4115C170.108 60.3467 170.101 60.2818 170.101 60.2169C170.101 59.9718 170.137 59.7411 170.231 59.5393ZM180.835 52.028C180.835 53.03 180.064 55.6106 173.497 59.251C173.648 59.4888 173.734 59.7628 173.756 60.0583C181.073 59.4456 183.257 61.1252 183.891 62.0118C183.971 61.4207 184.021 60.8224 184.021 60.2025C184.021 57.0523 182.81 54.1761 180.835 52.028ZM170.231 59.5393C162.878 56.2378 162.352 53.5994 162.395 52.7993C160.788 54.8465 159.843 57.4128 159.843 60.2097C159.843 61.2622 159.973 62.2714 160.233 63.2445C160.781 62.3002 162.806 60.4404 170.116 60.4115C170.108 60.3467 170.101 60.2818 170.101 60.2169C170.101 59.9718 170.137 59.7411 170.231 59.5393ZM171.37 61.9398C171.089 61.8533 170.844 61.7019 170.635 61.5C165.207 66.5533 162.453 66.5172 161.437 66.2072C163.217 69.3213 166.338 71.556 170.015 72.1471C169.395 71.3109 168.479 68.7735 171.37 61.9398ZM172.646 61.8605L172.653 61.8893L172.66 61.8821C172.66 61.8821 172.653 61.8677 172.646 61.8605ZM171.932 48.1209C169.986 48.1209 168.155 48.5823 166.526 49.3968C167.564 49.7501 169.791 51.3504 171.356 58.4724C171.536 58.4076 171.73 58.3787 171.932 58.3787C172.033 58.3787 172.141 58.3859 172.235 58.4003C173.929 50.4565 176.423 49.4401 177.187 49.3248C175.601 48.5462 173.821 48.1209 171.932 48.1209ZM173.331 61.3847C173.151 61.601 172.92 61.774 172.66 61.8821C176.142 68.0743 175.695 70.8063 175.169 71.8516C178.701 70.8712 181.592 68.3266 183.026 65.0178C182.212 65.4503 179.581 66.0198 173.331 61.3847ZM180.835 52.028C180.835 53.03 180.064 55.6106 173.497 59.251C173.648 59.4888 173.734 59.7628 173.756 60.0583C181.073 59.4456 183.257 61.1252 183.891 62.0118C183.971 61.4207 184.021 60.8224 184.021 60.2025C184.021 57.0523 182.81 54.1761 180.835 52.028ZM173.331 61.3847C173.151 61.601 172.92 61.774 172.66 61.8821C176.142 68.0743 175.695 70.8063 175.169 71.8516C178.701 70.8712 181.592 68.3266 183.026 65.0178C182.212 65.4503 179.581 66.0198 173.331 61.3847ZM171.932 48.1209C169.986 48.1209 168.155 48.5823 166.526 49.3968C167.564 49.7501 169.791 51.3504 171.356 58.4724C171.536 58.4076 171.73 58.3787 171.932 58.3787C172.033 58.3787 172.141 58.3859 172.235 58.4003C173.929 50.4565 176.423 49.4401 177.187 49.3248C175.601 48.5462 173.821 48.1209 171.932 48.1209ZM172.646 61.8605L172.653 61.8893L172.66 61.8821C172.66 61.8821 172.653 61.8677 172.646 61.8605ZM171.37 61.9398C171.089 61.8533 170.844 61.7019 170.635 61.5C165.207 66.5533 162.453 66.5172 161.437 66.2072C163.217 69.3213 166.338 71.556 170.015 72.1471C169.395 71.3109 168.479 68.7735 171.37 61.9398ZM170.231 59.5393C162.878 56.2378 162.352 53.5994 162.395 52.7993C160.788 54.8465 159.843 57.4128 159.843 60.2097C159.843 61.2622 159.973 62.2714 160.233 63.2445C160.781 62.3002 162.806 60.4404 170.116 60.4115C170.108 60.3467 170.101 60.2818 170.101 60.2169C170.101 59.9718 170.137 59.7411 170.231 59.5393ZM180.835 52.028C180.835 53.03 180.064 55.6106 173.497 59.251C173.648 59.4888 173.734 59.7628 173.756 60.0583C181.073 59.4456 183.257 61.1252 183.891 62.0118C183.971 61.4207 184.021 60.8224 184.021 60.2025C184.021 57.0523 182.81 54.1761 180.835 52.028ZM170.231 59.5393C162.878 56.2378 162.352 53.5994 162.395 52.7993C160.788 54.8465 159.843 57.4128 159.843 60.2097C159.843 61.2622 159.973 62.2714 160.233 63.2445C160.781 62.3002 162.806 60.4404 170.116 60.4115C170.108 60.3467 170.101 60.2818 170.101 60.2169C170.101 59.9718 170.137 59.7411 170.231 59.5393ZM171.37 61.9398C171.089 61.8533 170.844 61.7019 170.635 61.5C165.207 66.5533 162.453 66.5172 161.437 66.2072C163.217 69.3213 166.338 71.556 170.015 72.1471C169.395 71.3109 168.479 68.7735 171.37 61.9398ZM172.646 61.8605L172.653 61.8893L172.66 61.8821C172.66 61.8821 172.653 61.8677 172.646 61.8605ZM171.932 48.1209C169.986 48.1209 168.155 48.5823 166.526 49.3968C167.564 49.7501 169.791 51.3504 171.356 58.4724C171.536 58.4076 171.73 58.3787 171.932 58.3787C172.033 58.3787 172.141 58.3859 172.235 58.4003C173.929 50.4565 176.423 49.4401 177.187 49.3248C175.601 48.5462 173.821 48.1209 171.932 48.1209ZM173.331 61.3847C173.151 61.601 172.92 61.774 172.66 61.8821C176.142 68.0743 175.695 70.8063 175.169 71.8516C178.701 70.8712 181.592 68.3266 183.026 65.0178C182.212 65.4503 179.581 66.0198 173.331 61.3847ZM180.835 52.028C180.835 53.03 180.064 55.6106 173.497 59.251C173.648 59.4888 173.734 59.7628 173.756 60.0583C181.073 59.4456 183.257 61.1252 183.891 62.0118C183.971 61.4207 184.021 60.8224 184.021 60.2025C184.021 57.0523 182.81 54.1761 180.835 52.028ZM173.331 61.3847C173.151 61.601 172.92 61.774 172.66 61.8821C176.142 68.0743 175.695 70.8063 175.169 71.8516C178.701 70.8712 181.592 68.3266 183.026 65.0178C182.212 65.4503 179.581 66.0198 173.331 61.3847ZM171.932 48.1209C169.986 48.1209 168.155 48.5823 166.526 49.3968C167.564 49.7501 169.791 51.3504 171.356 58.4724C171.536 58.4076 171.73 58.3787 171.932 58.3787C172.033 58.3787 172.141 58.3859 172.235 58.4003C173.929 50.4565 176.423 49.4401 177.187 49.3248C175.601 48.5462 173.821 48.1209 171.932 48.1209ZM172.646 61.8605L172.653 61.8893L172.66 61.8821C172.66 61.8821 172.653 61.8677 172.646 61.8605ZM171.37 61.9398C171.089 61.8533 170.844 61.7019 170.635 61.5C165.207 66.5533 162.453 66.5172 161.437 66.2072C163.217 69.3213 166.338 71.556 170.015 72.1471C169.395 71.3109 168.479 68.7735 171.37 61.9398ZM170.231 59.5393C162.878 56.2378 162.352 53.5994 162.395 52.7993C160.788 54.8465 159.843 57.4128 159.843 60.2097C159.843 61.2622 159.973 62.2714 160.233 63.2445C160.781 62.3002 162.806 60.4404 170.116 60.4115C170.108 60.3467 170.101 60.2818 170.101 60.2169C170.101 59.9718 170.137 59.7411 170.231 59.5393ZM172.646 61.8605L172.653 61.8893L172.66 61.8821C172.66 61.8821 172.653 61.8677 172.646 61.8605ZM172.646 61.8605L172.653 61.8893L172.66 61.8821C172.66 61.8821 172.653 61.8677 172.646 61.8605ZM172.646 61.8605L172.653 61.8893L172.66 61.8821C172.66 61.8821 172.653 61.8677 172.646 61.8605ZM172.646 61.8605L172.653 61.8893L172.66 61.8821C172.66 61.8821 172.653 61.8677 172.646 61.8605ZM172.646 61.8605L172.653 61.8893L172.66 61.8821C172.66 61.8821 172.653 61.8677 172.646 61.8605ZM172.646 61.8605L172.653 61.8893L172.66 61.8821C172.66 61.8821 172.653 61.8677 172.646 61.8605ZM172.646 61.8605L172.653 61.8893L172.66 61.8821C172.66 61.8821 172.653 61.8677 172.646 61.8605ZM172.646 61.8605L172.653 61.8893L172.66 61.8821C172.66 61.8821 172.653 61.8677 172.646 61.8605ZM172.646 61.8605L172.653 61.8893L172.66 61.8821C172.66 61.8821 172.653 61.8677 172.646 61.8605ZM172.646 61.8605L172.653 61.8893L172.66 61.8821C172.66 61.8821 172.653 61.8677 172.646 61.8605Z" fill="#22C55E"/>
<path d="M170.101 60.2097C170.101 60.2746 170.108 60.3395 170.116 60.4044C162.806 60.4332 160.781 62.293 160.233 63.2373C159.98 62.2714 159.843 61.255 159.843 60.2025C159.843 57.4056 160.795 54.8394 162.395 52.7921C162.352 53.5923 162.878 56.2378 170.231 59.5321C170.137 59.7412 170.101 59.9719 170.101 60.2097Z" fill="#22C55E"/>
<path d="M170.015 72.1399C166.346 71.556 163.217 69.3142 161.437 66.2001C162.453 66.51 165.207 66.5533 170.635 61.4929C170.844 61.6947 171.089 61.8461 171.37 61.9326C168.479 68.7735 169.395 71.3109 170.015 72.1399Z" fill="#22C55E"/>
<path d="M172.661 61.8833L172.646 61.8605C172.654 61.8681 172.661 61.8833 172.661 61.8833Z" fill="#22C55E"/>
<path d="M177.187 49.3248C176.423 49.4473 173.929 50.4638 172.235 58.4004C172.141 58.386 172.033 58.3788 171.932 58.3788C171.738 58.3788 171.543 58.4076 171.356 58.4725C169.791 51.3432 167.564 49.7501 166.526 49.3969C168.148 48.5823 169.986 48.121 171.932 48.121C173.821 48.121 175.601 48.5463 177.187 49.3248Z" fill="#22C55E"/>
<path d="M183.026 65.0179C181.592 68.3338 178.701 70.8785 175.169 71.8516C175.695 70.8064 176.142 68.0743 172.66 61.8822C172.92 61.774 173.151 61.601 173.331 61.3848C179.581 66.0199 182.212 65.4504 183.026 65.0179Z" fill="#22C55E"/>
<path d="M184.021 60.2096C184.021 60.8223 183.971 61.4207 183.891 62.019C183.257 61.1323 181.073 59.4527 173.756 60.0655C173.734 59.7699 173.648 59.4888 173.497 59.2581C180.071 55.6178 180.835 53.0371 180.835 52.0351C182.81 54.176 184.021 57.0523 184.021 60.2096Z" fill="#22C55E"/>
<path d="M172.646 61.8605L172.653 61.8894L172.66 61.8821C172.66 61.8821 172.653 61.8677 172.646 61.8605ZM172.646 61.8605L172.653 61.8894L172.66 61.8821C172.66 61.8821 172.653 61.8677 172.646 61.8605ZM172.646 61.8605L172.653 61.8894L172.66 61.8821C172.66 61.8821 172.653 61.8677 172.646 61.8605ZM172.646 61.8605L172.653 61.8894L172.66 61.8821C172.66 61.8821 172.653 61.8677 172.646 61.8605ZM172.646 61.8605L172.653 61.8894L172.66 61.8821C172.66 61.8821 172.653 61.8677 172.646 61.8605ZM172.646 61.8605L172.653 61.8894L172.66 61.8821C172.66 61.8821 172.653 61.8677 172.646 61.8605ZM172.646 61.8605L172.653 61.8894L172.66 61.8821C172.66 61.8821 172.653 61.8677 172.646 61.8605ZM172.646 61.8605L172.653 61.8894L172.66 61.8821C172.66 61.8821 172.653 61.8677 172.646 61.8605ZM172.646 61.8605L172.653 61.8894L172.66 61.8821C172.66 61.8821 172.653 61.8677 172.646 61.8605ZM172.646 61.8605L172.653 61.8894L172.66 61.8821C172.66 61.8821 172.653 61.8677 172.646 61.8605ZM180.835 52.028C180.835 53.03 180.064 55.6107 173.497 59.251C173.648 59.4889 173.734 59.7628 173.756 60.0584C181.073 59.4456 183.257 61.1252 183.891 62.0119C183.971 61.4208 184.021 60.8225 184.021 60.2025C184.021 57.0524 182.81 54.1762 180.835 52.028ZM173.331 61.3848C173.151 61.601 172.92 61.774 172.66 61.8821C176.142 68.0743 175.695 70.8064 175.169 71.8516C178.701 70.8712 181.592 68.3266 183.026 65.0179C182.212 65.4504 179.581 66.0199 173.331 61.3848ZM171.932 48.121C169.986 48.121 168.155 48.5823 166.526 49.3969C167.564 49.7501 169.791 51.3504 171.356 58.4725C171.536 58.4076 171.73 58.3788 171.932 58.3788C172.033 58.3788 172.141 58.386 172.235 58.4004C173.929 50.4565 176.423 49.4401 177.187 49.3248C175.601 48.5463 173.821 48.121 171.932 48.121ZM172.646 61.8605L172.653 61.8894L172.66 61.8821C172.66 61.8821 172.653 61.8677 172.646 61.8605ZM171.37 61.9398C171.089 61.8533 170.844 61.7019 170.635 61.5001C165.207 66.5533 162.453 66.5173 161.437 66.2073C163.217 69.3214 166.338 71.5561 170.015 72.1472C169.395 71.311 168.479 68.7735 171.37 61.9398ZM170.231 59.5394C162.878 56.2378 162.352 53.5995 162.395 52.7993C160.788 54.8466 159.843 57.4128 159.843 60.2098C159.843 61.2622 159.973 62.2714 160.233 63.2446C160.781 62.3002 162.806 60.4404 170.116 60.4116C170.108 60.3467 170.101 60.2818 170.101 60.217C170.101 59.9719 170.137 59.7412 170.231 59.5394ZM172.646 61.8605L172.653 61.8894L172.66 61.8821C172.66 61.8821 172.653 61.8677 172.646 61.8605ZM172.646 61.8605L172.653 61.8894L172.66 61.8821C172.66 61.8821 172.653 61.8677 172.646 61.8605ZM172.646 61.8605L172.653 61.8894L172.66 61.8821C172.66 61.8821 172.653 61.8677 172.646 61.8605ZM172.646 61.8605L172.653 61.8894L172.66 61.8821C172.66 61.8821 172.653 61.8677 172.646 61.8605ZM172.646 61.8605L172.653 61.8894L172.66 61.8821C172.66 61.8821 172.653 61.8677 172.646 61.8605ZM172.646 61.8605L172.653 61.8894L172.66 61.8821C172.66 61.8821 172.653 61.8677 172.646 61.8605ZM172.646 61.8605L172.653 61.8894L172.66 61.8821C172.66 61.8821 172.653 61.8677 172.646 61.8605ZM172.646 61.8605L172.653 61.8894L172.66 61.8821C172.66 61.8821 172.653 61.8677 172.646 61.8605ZM172.646 61.8605L172.653 61.8894L172.66 61.8821C172.66 61.8821 172.653 61.8677 172.646 61.8605ZM172.646 61.8605L172.653 61.8894L172.66 61.8821C172.66 61.8821 172.653 61.8677 172.646 61.8605Z" fill="#22C55E"/>
<path d="M173.763 60.2098C173.763 60.6423 173.605 61.046 173.352 61.3632C173.338 61.3776 173.331 61.3776 173.331 61.3848C173.15 61.6011 172.92 61.7741 172.66 61.8822C172.66 61.875 172.653 61.8678 172.646 61.8606L172.653 61.8894C172.437 61.9831 172.192 62.0336 171.932 62.0336C171.738 62.0336 171.55 62.0048 171.377 61.9399C171.37 61.9471 171.37 61.9399 171.363 61.9327C171.082 61.8462 170.837 61.6948 170.627 61.4929C170.62 61.4857 170.613 61.4785 170.606 61.4713C170.339 61.1974 170.159 60.837 170.108 60.4477C170.101 60.4333 170.101 60.4189 170.101 60.4044C170.094 60.3396 170.087 60.2747 170.087 60.2098C170.087 59.9719 170.13 59.7413 170.217 59.5394C170.217 59.5178 170.231 59.4962 170.238 59.4817C170.44 59.0204 170.829 58.6528 171.312 58.4942C171.327 58.4798 171.334 58.4798 171.348 58.4798C171.529 58.4149 171.723 58.386 171.925 58.386C172.026 58.386 172.134 58.3933 172.228 58.4077C172.249 58.4149 172.264 58.4149 172.285 58.4221C172.79 58.5158 173.215 58.8186 173.475 59.2367C173.482 59.2439 173.489 59.2511 173.489 59.2583C173.641 59.4962 173.727 59.7701 173.749 60.0656C173.756 60.0729 173.756 60.0873 173.756 60.0873V60.0945C173.763 60.1377 173.763 60.1666 173.763 60.2098Z" fill="#22C55E"/>
<path d="M172.661 61.8833L172.646 61.8605C172.654 61.8681 172.661 61.8833 172.661 61.8833Z" fill="#22C55E"/>
<path d="M172.661 61.8833L172.646 61.8605C172.654 61.8681 172.661 61.8833 172.661 61.8833Z" fill="#22C55E"/>
</svg>
