<svg width="150" height="100" viewBox="0 0 150 100" fill="none" xmlns="http://www.w3.org/2000/svg">
<path d="M97.4785 86.6041C93.7985 86.527 90.0367 86.6041 90.0163 86.6041C85.5185 86.6041 81.8386 89.5525 81.8386 93.1562C81.8386 96.837 85.4981 99.824 90.0163 99.824C90.0367 99.824 93.7985 99.9011 97.4785 99.824C101.997 99.824 105.656 96.837 105.656 93.1562C105.656 89.5911 102.058 86.7004 97.4785 86.6041ZM94.9434 98.0125C94.9434 98.0125 93.594 98.0511 92.5718 98.0125C89.9754 98.0125 87.1745 96.1625 87.1745 93.1948C87.1745 90.2463 89.9141 88.4734 92.5514 88.4734C92.5923 88.4734 93.8598 88.4155 94.9229 88.4734C97.5807 88.4734 100.32 90.2463 100.32 93.1948C100.341 96.1625 97.5398 98.0125 94.9434 98.0125Z" fill="#D7172F"/>
<path d="M145.4 99.6698H150V93.3682C150 89.6874 146.504 86.7968 142.047 86.7968H130.435C130.251 86.7968 129.801 86.8353 129.801 87.2786V99.1688C129.801 99.4964 130.046 99.6506 130.292 99.6506H135.157V89.7067C135.157 89.2635 135.505 89.0515 135.853 89.0515H141.209C142.681 89.0515 144.868 90.3041 144.868 93.0406V99.1688C144.848 99.1688 144.869 99.6698 145.4 99.6698Z" fill="#D7172F"/>
<path d="M48.4735 89.3406H55.6495V87.2978C55.6495 87.0087 55.4246 86.7968 55.1384 86.7968H35.1643C34.8372 86.7968 34.6532 87.0473 34.6532 87.2978V89.3598H39.4167C41.2158 89.3598 42.4016 90.8052 42.4016 92.1541V99.1881C42.4016 99.4193 42.6265 99.6698 42.9331 99.6698H47.7784V90.015C47.7784 89.6489 48.0851 89.3406 48.4735 89.3406Z" fill="#D7172F"/>
<path d="M26.3936 99.1688C26.3936 99.4578 26.6798 99.6506 26.9252 99.6506C26.9661 99.6506 31.7705 99.6506 31.7705 99.6506V87.2786C31.7705 87.0088 31.5251 86.7968 31.2389 86.7968H26.9252C26.639 86.7968 26.3936 87.028 26.3936 87.2786V99.1688Z" fill="#D7172F"/>
<path d="M74.2947 99.6698H79.6307C79.4876 96.3359 75.6645 94.9677 75.6645 94.9677C78.0565 94.4474 79.6102 92.8286 79.6102 90.9593C79.6102 88.9744 77.5454 86.816 74.1925 86.816H61.3126C59.7588 86.816 58.5321 87.9723 58.5321 89.4369V99.1881C58.5321 99.4771 58.7366 99.6698 59.0432 99.6698H63.8885V95.1026H68.4476C72.4956 95.1026 74.172 97.8584 74.2947 99.6698ZM63.8681 92.8093V90.2463C63.8681 89.5525 64.3997 89.0515 65.1561 89.0515H72.2912C73.3747 89.0515 74.2947 89.8994 74.2947 90.9208C74.2947 91.9614 73.3952 92.8093 72.2707 92.8093H63.8681Z" fill="#D7172F"/>
<path d="M18.2568 91.1135C18.2568 91.1135 23.2043 91.1135 23.4701 91.1135C22.3456 88.4155 19.0745 86.527 15.6195 86.5077C13.7386 86.5077 10.3653 86.4113 8.15728 86.5077C5.5813 86.6233 3.9662 87.1822 2.39199 88.4733C0.838217 89.7452 0 91.4218 0 93.1948C0 96.8755 3.47553 99.7662 8.07551 99.9203C11.2239 100.017 11.5715 100.036 15.7012 99.9203C19.5448 99.8047 22.2843 98.1667 23.4701 95.3146C23.2043 95.3146 18.2568 95.3146 18.2568 95.3146C18.0523 95.3146 17.9092 95.3916 17.807 95.5651C16.8666 97.1068 15.0879 98.0125 13.1457 98.0511C12.471 98.0511 11.551 98.0703 10.7333 98.0511C8.03462 98.0318 5.33597 96.2396 5.33597 93.1948C5.33597 90.227 8.09595 88.3963 10.7333 88.3963C11.0399 88.377 12.103 88.3577 13.0844 88.3963C15.0266 88.3963 16.8666 89.3598 17.807 90.863C17.8479 90.94 17.991 91.1135 18.2568 91.1135Z" fill="#D7172F"/>
<path d="M126.918 97.3573C126.918 97.3573 126.244 97.3573 114.284 97.3573C113.854 97.3573 113.568 97.0875 113.568 96.7021V94.2547H124.506V92H113.568V89.7645C113.568 89.7452 113.568 89.1093 114.386 89.1093H126.918V87.2978C126.918 86.7775 126.325 86.7968 126.305 86.7968H108.743C108.682 86.7968 108.212 86.816 108.212 87.2978V97.049C108.212 98.3401 109.254 99.6698 111.013 99.6698H126.387C126.796 99.6698 126.918 99.323 126.918 99.1881V97.3573Z" fill="#D7172F"/>
<path d="M122.973 82.1332C122.462 81.8441 121.848 81.6899 121.112 81.6899C120.397 81.6899 119.742 81.8441 119.252 82.1332C118.761 82.4222 118.373 82.8077 117.78 82.8077C117.207 82.8077 116.86 82.4222 116.328 82.1332C115.797 81.8441 115.183 81.6899 114.468 81.6899C113.752 81.6899 113.118 81.8441 112.607 82.1332C112.096 82.4222 111.831 82.7884 111.831 83.1931C111.831 83.6171 112.096 83.9639 112.607 84.2723C113.118 84.5613 113.732 84.7155 114.468 84.7155C115.183 84.7155 115.817 84.5806 116.287 84.3108C116.758 84.041 117.248 83.6171 117.78 83.6171C118.311 83.6171 118.782 84.0025 119.252 84.2915C119.722 84.5613 120.397 84.7348 121.112 84.7348C121.869 84.7348 122.482 84.5806 122.993 84.2915C123.504 84.0025 123.75 83.6363 123.75 83.2124C123.75 82.7884 123.504 82.4222 122.973 82.1332Z" fill="#D7172F"/>
<path d="M74.9899 19.9263C86.1933 19.9263 113.241 41.8182 116.635 44.5932C116.86 44.7859 117.187 45.0172 117.78 44.9593C118.618 44.863 118.638 43.6489 118.638 43.6489C118.638 43.6489 118.843 40.8739 118.843 38.0603C118.843 34.5337 115.919 31.4503 115.919 31.4503C115.919 31.4503 85.6005 0 74.9899 0C64.3792 0 34.0808 31.4696 34.0808 31.4696C34.0808 31.4696 31.1572 34.553 31.1572 38.0796C31.1572 40.8739 31.3617 43.6682 31.3617 43.6682C31.3617 43.6682 31.3821 44.8823 32.2408 44.9786C32.8337 45.0364 33.1403 44.8052 33.3652 44.6125C36.7385 41.8182 63.7864 19.9263 74.9899 19.9263Z" fill="black"/>
<path d="M74.9899 48.8907C86.1933 48.8907 113.241 70.7826 116.635 73.5576C116.86 73.7503 117.187 73.9816 117.78 73.9237C118.618 73.8274 118.638 72.6133 118.638 72.6133C118.638 72.6133 118.843 69.8383 118.843 67.0247C118.843 63.4981 115.919 60.4147 115.919 60.4147C115.919 60.4147 85.6005 28.9644 74.9899 28.9644C64.3792 28.9644 34.0808 60.434 34.0808 60.434C34.0808 60.434 31.1572 63.5174 31.1572 67.044C31.1572 69.8383 31.3617 72.6326 31.3617 72.6326C31.3617 72.6326 31.3821 73.8467 32.2408 73.943C32.8337 74.0008 33.1403 73.7696 33.3652 73.5769C36.7385 70.7826 63.7864 48.8907 74.9899 48.8907Z" fill="black"/>
<path d="M44.2415 26.7097C38.1082 31.4696 33.3652 35.9598 31.7296 37.5207C31.6478 39.4478 31.9136 43.5911 31.9136 43.6297C31.9136 43.6297 31.9341 45.1328 33.0789 44.1693L34.2034 43.225C46.4291 32.6837 58.9819 23.4529 69.0405 19.3481C69.7561 19.0591 70.9214 18.8664 70.3285 18.1341C69.981 17.7294 68.7952 17.6716 68.0387 17.7294C57.5917 18.2882 44.7118 26.3821 44.2415 26.7097Z" fill="url(#paint0_linear_629_2102)"/>
<path d="M105.738 26.7097C111.871 31.4696 116.614 35.9598 118.25 37.5207C118.332 39.4478 118.066 43.5911 118.066 43.6297C118.066 43.6297 118.046 45.1328 116.901 44.1693L115.776 43.225C103.55 32.6837 90.9977 23.4529 80.9391 19.3481C80.2235 19.0591 79.0582 18.8664 79.6715 18.1341C80.0191 17.7294 81.2048 17.6716 81.9613 17.7294C92.3879 18.2882 105.268 26.3821 105.738 26.7097Z" fill="url(#paint1_linear_629_2102)"/>
<path d="M44.2415 55.674C38.1082 60.434 33.3652 64.9241 31.7296 66.4851C31.6478 68.4122 31.9136 72.5555 31.9136 72.594C31.9136 72.594 31.9341 74.0971 33.0789 73.1336L34.2034 72.1893C46.4291 61.6481 58.9819 52.4172 69.0405 48.3125C69.7561 48.0234 70.9214 47.8307 70.3285 47.0984C69.981 46.6937 68.7952 46.6359 68.0387 46.6937C57.5917 47.2526 44.7118 55.3464 44.2415 55.674Z" fill="url(#paint2_linear_629_2102)"/>
<path d="M105.738 55.674C111.871 60.434 116.614 64.9241 118.25 66.4851C118.332 68.4122 118.066 72.5555 118.066 72.594C118.066 72.594 118.046 74.0971 116.901 73.1336L115.776 72.1893C103.55 61.6481 90.9977 52.4172 80.9391 48.3125C80.2235 48.0234 79.0582 47.8307 79.6511 47.0984C79.9986 46.6937 81.1844 46.6359 81.9408 46.6937C92.3879 47.2526 105.268 55.3464 105.738 55.674Z" fill="url(#paint3_linear_629_2102)"/>
<path d="M115.49 31.8165C115.122 31.4311 85.2119 0.52033 74.9897 0.52033C64.7471 0.52033 34.8575 31.4311 34.4895 31.8165C34.4487 31.855 32.0158 34.4759 31.7296 37.5207C33.3447 35.9405 38.0877 31.4696 44.2415 26.7097C44.2415 26.7097 46.0815 25.2451 48.8823 23.2794C55.0361 18.9049 65.9329 12.0637 75.0102 12.0637C84.0875 12.0637 94.9638 18.9049 101.138 23.2794C103.918 25.2451 105.779 26.7289 105.779 26.7097C111.912 31.4696 116.655 35.9598 118.291 37.5207C117.964 34.4759 115.531 31.855 115.49 31.8165Z" fill="url(#paint4_linear_629_2102)"/>
<path d="M115.49 60.7809C115.122 60.3954 85.2119 29.4847 74.9897 29.4847C64.7471 29.4847 34.8575 60.3954 34.4895 60.7809C34.4487 60.8194 32.0158 63.4403 31.7296 66.4851C33.3447 64.9049 38.0877 60.434 44.2415 55.674C44.2415 55.674 46.0815 54.2094 48.8823 52.2438C55.0361 47.8693 65.9329 41.028 75.0102 41.028C84.0875 41.028 94.9638 47.8693 101.138 52.2438C103.918 54.2094 105.779 55.6933 105.779 55.674C111.912 60.434 116.655 64.9241 118.291 66.4851C117.964 63.4403 115.531 60.8001 115.49 60.7809Z" fill="url(#paint5_linear_629_2102)"/>
<path d="M115.96 33.7821C99.1755 15.6288 80.8778 1.69585 75.6236 1.44533C74.8672 1.40679 74.8467 2.10055 74.8467 2.10055C74.8467 8.0553 75.2147 9.1152 79.5693 10.7147C80.1622 10.9267 96.4768 15.5517 115.94 34.2639L116.226 34.5337L115.96 33.7821Z" fill="url(#paint6_linear_629_2102)"/>
<path d="M115.96 62.7273C99.1755 44.5932 80.8778 30.641 75.6236 30.3905C74.8672 30.3519 74.8467 31.065 74.8467 31.065C74.8467 37.0197 75.2147 38.0796 79.5693 39.6791C80.1622 39.8911 96.4768 44.5161 115.94 63.2283L116.226 63.4981L115.96 62.7273Z" fill="url(#paint7_linear_629_2102)"/>
<defs>
<linearGradient id="paint0_linear_629_2102" x1="31.712" y1="31.1014" x2="117.989" y2="31.1014" gradientUnits="userSpaceOnUse">
<stop stop-color="#B1ACB1"/>
<stop offset="0.0914" stop-color="#AAA5AA"/>
<stop offset="0.2391" stop-color="#979297"/>
<stop offset="0.4237" stop-color="#7B747A"/>
<stop offset="0.5" stop-color="#6D666C"/>
<stop offset="0.6585" stop-color="#958F95"/>
<stop offset="0.809" stop-color="#B7B3B8"/>
<stop offset="0.9257" stop-color="#CECACE"/>
<stop offset="0.9944" stop-color="#D6D3D6"/>
</linearGradient>
<linearGradient id="paint1_linear_629_2102" x1="31.675" y1="31.1014" x2="117.951" y2="31.1014" gradientUnits="userSpaceOnUse">
<stop stop-color="#B1ACB1"/>
<stop offset="0.0914" stop-color="#AAA5AA"/>
<stop offset="0.2391" stop-color="#979297"/>
<stop offset="0.4237" stop-color="#7B747A"/>
<stop offset="0.5" stop-color="#6D666C"/>
<stop offset="0.6585" stop-color="#958F95"/>
<stop offset="0.809" stop-color="#B7B3B8"/>
<stop offset="0.9257" stop-color="#CECACE"/>
<stop offset="0.9944" stop-color="#D6D3D6"/>
</linearGradient>
<linearGradient id="paint2_linear_629_2102" x1="31.712" y1="60.0555" x2="117.989" y2="60.0555" gradientUnits="userSpaceOnUse">
<stop stop-color="#B1ACB1"/>
<stop offset="0.0914" stop-color="#AAA5AA"/>
<stop offset="0.2391" stop-color="#979297"/>
<stop offset="0.4237" stop-color="#7B747A"/>
<stop offset="0.5" stop-color="#6D666C"/>
<stop offset="0.6585" stop-color="#958F95"/>
<stop offset="0.809" stop-color="#B7B3B8"/>
<stop offset="0.9257" stop-color="#CECACE"/>
<stop offset="0.9944" stop-color="#D6D3D6"/>
</linearGradient>
<linearGradient id="paint3_linear_629_2102" x1="31.675" y1="60.0555" x2="117.951" y2="60.0555" gradientUnits="userSpaceOnUse">
<stop stop-color="#B1ACB1"/>
<stop offset="0.0914" stop-color="#AAA5AA"/>
<stop offset="0.2391" stop-color="#979297"/>
<stop offset="0.4237" stop-color="#7B747A"/>
<stop offset="0.5" stop-color="#6D666C"/>
<stop offset="0.6585" stop-color="#958F95"/>
<stop offset="0.809" stop-color="#B7B3B8"/>
<stop offset="0.9257" stop-color="#CECACE"/>
<stop offset="0.9944" stop-color="#D6D3D6"/>
</linearGradient>
<linearGradient id="paint4_linear_629_2102" x1="31.7312" y1="19.0255" x2="117.747" y2="19.0255" gradientUnits="userSpaceOnUse">
<stop stop-color="#6D666C"/>
<stop offset="0.0294" stop-color="#7B757B"/>
<stop offset="0.1133" stop-color="#9F9AA0"/>
<stop offset="0.1967" stop-color="#C0BCC0"/>
<stop offset="0.2781" stop-color="#DAD7DA"/>
<stop offset="0.357" stop-color="#EDEBEC"/>
<stop offset="0.4323" stop-color="#F9F8F9"/>
<stop offset="0.5" stop-color="white"/>
<stop offset="0.5637" stop-color="#F8F7F8"/>
<stop offset="0.6396" stop-color="#EBE9EB"/>
<stop offset="0.7217" stop-color="#D7D4D7"/>
<stop offset="0.8083" stop-color="#BBB7BB"/>
<stop offset="0.8984" stop-color="#989399"/>
<stop offset="0.9902" stop-color="#716B71"/>
<stop offset="1" stop-color="#6D666C"/>
</linearGradient>
<linearGradient id="paint5_linear_629_2102" x1="31.7312" y1="47.9795" x2="117.747" y2="47.9795" gradientUnits="userSpaceOnUse">
<stop stop-color="#6D666C"/>
<stop offset="0.0294" stop-color="#7B757B"/>
<stop offset="0.1133" stop-color="#9F9AA0"/>
<stop offset="0.1967" stop-color="#C0BCC0"/>
<stop offset="0.2781" stop-color="#DAD7DA"/>
<stop offset="0.357" stop-color="#EDEBEC"/>
<stop offset="0.4323" stop-color="#F9F8F9"/>
<stop offset="0.5" stop-color="white"/>
<stop offset="0.5637" stop-color="#F8F7F8"/>
<stop offset="0.6396" stop-color="#EBE9EB"/>
<stop offset="0.7217" stop-color="#D7D4D7"/>
<stop offset="0.8083" stop-color="#BBB7BB"/>
<stop offset="0.8984" stop-color="#989399"/>
<stop offset="0.9902" stop-color="#716B71"/>
<stop offset="1" stop-color="#6D666C"/>
</linearGradient>
<linearGradient id="paint6_linear_629_2102" x1="75.1834" y1="18.3888" x2="115.857" y2="17.515" gradientUnits="userSpaceOnUse">
<stop stop-color="#EDEBEC"/>
<stop offset="0.0307" stop-color="#D6D2D6"/>
<stop offset="0.09" stop-color="#AEAAAF"/>
<stop offset="0.1465" stop-color="#918C91"/>
<stop offset="0.1987" stop-color="#7D777D"/>
<stop offset="0.2451" stop-color="#716B70"/>
<stop offset="0.2809" stop-color="#6D666C"/>
<stop offset="0.3717" stop-color="#736D72"/>
<stop offset="0.5118" stop-color="#837D83"/>
<stop offset="0.5899" stop-color="#8E888E"/>
<stop offset="1" stop-color="#6D666C"/>
</linearGradient>
<linearGradient id="paint7_linear_629_2102" x1="75.1834" y1="47.3424" x2="115.857" y2="46.4688" gradientUnits="userSpaceOnUse">
<stop stop-color="#EDEBEC"/>
<stop offset="0.0307" stop-color="#D6D2D6"/>
<stop offset="0.09" stop-color="#AEAAAF"/>
<stop offset="0.1465" stop-color="#918C91"/>
<stop offset="0.1987" stop-color="#7D777D"/>
<stop offset="0.2451" stop-color="#716B70"/>
<stop offset="0.2809" stop-color="#6D666C"/>
<stop offset="0.3717" stop-color="#736D72"/>
<stop offset="0.5118" stop-color="#837D83"/>
<stop offset="0.5899" stop-color="#8E888E"/>
<stop offset="1" stop-color="#6D666C"/>
</linearGradient>
</defs>
</svg>
