<svg width="170" height="107" viewBox="0 0 170 107" fill="none" xmlns="http://www.w3.org/2000/svg">
<g clip-path="url(#clip0_629_2007)">
<path d="M16.4853 82.1199V91.601H5.85556V82.1199H0V107H5.85556V96.9983H16.4853V107H22.3408V82.1199H22.0433H16.4853Z" fill="#002D73"/>
<path d="M43.8128 82.1199L37.688 91.9736L31.568 82.1199H24.65L34.765 98.3882V107H40.6158V98.3882L50.7261 82.1199H50.1878H43.8128Z" fill="#002D73"/>
<path d="M69.5631 82.1199V100.366C69.5631 101.058 69.0483 101.617 68.3164 101.617H58.9333V82.1199H53.0778V107.005H70.38C71.9242 107.005 73.1614 106.541 74.0633 105.639C74.9606 104.726 75.4139 103.475 75.4139 101.923V82.1199H75.1164H69.5631Z" fill="#002D73"/>
<path d="M98.1514 82.1199H80.8397V107.005H86.6953V87.5124H96.0925C96.8481 87.5124 97.3344 88.1095 97.3344 88.7543V107.005H103.185V87.2115C103.185 85.6544 102.727 84.403 101.835 83.4955C100.923 82.5785 99.6908 82.1199 98.1514 82.1199Z" fill="#002D73"/>
<path d="M125.918 82.1199H108.611V107.005H125.918C127.453 107.005 128.685 106.541 129.587 105.639C130.484 104.726 130.943 103.475 130.943 101.923V87.2115C130.943 85.6544 130.489 84.403 129.587 83.4908C128.685 82.5785 127.448 82.1199 125.918 82.1199ZM125.092 88.7925V100.323C125.092 100.996 124.605 101.612 123.84 101.612H114.457V87.5029H123.807C124.577 87.5077 125.092 88.0522 125.092 88.7925Z" fill="#002D73"/>
<path d="M141.142 82.1199C139.608 82.1199 138.366 82.5832 137.473 83.4955C136.571 84.4078 136.118 85.6544 136.118 87.2115V107.005H141.959V99.3101H152.594V107.005H158.445V82.1199H141.142ZM152.599 87.5077V93.9175H141.964V88.7686C141.964 88.1573 142.432 87.5029 143.211 87.5029H152.599V87.5077Z" fill="#002D73"/>
<path d="M170 82.1199H164.144V107.005H170V82.1199Z" fill="#002D73"/>
<path d="M78.5542 31.1084C79.8622 31.1084 81.345 30.9413 82.8561 30.6212C88.3197 29.451 93.6275 27.4975 98.5481 25.5583C111.818 20.4524 118.325 15.3942 119.992 13.9756C120.318 13.7177 120.521 13.541 120.634 13.4072C120.96 13.0872 121.338 12.6335 121.338 11.9648C121.338 10.7277 119.916 10.336 119.066 10.102C118.967 10.0733 118.877 10.0495 118.797 10.0256C108.989 7.05946 97.6367 5.49281 85.9633 5.49281H85.2692C83.5361 5.55968 81.8975 5.94179 80.6508 6.56272C76.5331 8.63088 74.5592 13.4263 73.3833 16.2922C73.2606 16.5883 73.1472 16.8605 73.0433 17.1089C70.8569 22.234 70.5217 26.0264 72.0564 28.3859C73.2322 30.1961 75.4139 31.1084 78.5542 31.1084ZM73.9217 17.5006C74.0303 17.2522 74.1436 16.9752 74.2664 16.6743C75.395 13.9326 77.2792 9.34733 81.0758 7.43679C82.2044 6.87318 83.7014 6.52451 85.2975 6.46241H85.9681C97.5469 6.46241 108.809 8.01473 118.528 10.957C118.618 10.9808 118.712 11.0095 118.816 11.0382C119.401 11.2006 120.379 11.4728 120.379 11.9696C120.379 12.2132 120.266 12.4233 119.944 12.7433C119.845 12.8532 119.68 12.9965 119.387 13.2257C117.739 14.63 111.331 19.607 98.1986 24.6556C93.3158 26.5804 88.0506 28.5196 82.6531 29.6755C81.2081 29.9812 79.7867 30.1436 78.5447 30.1436C75.7492 30.1436 73.8319 29.3746 72.8497 27.8605C71.5133 25.7923 71.8722 22.3056 73.9217 17.5006Z" fill="url(#paint0_radial_629_2007)"/>
<path d="M85.765 0C48.8561 0 18.8275 15.6282 18.8275 34.8388C18.8275 54.0493 48.8561 69.6775 85.765 69.6775C122.674 69.6775 152.702 54.0493 152.702 34.8388C152.707 15.6282 122.679 0 85.765 0ZM85.765 68.6267C49.4275 68.6267 19.8664 53.4713 19.8664 34.8388C19.8664 16.2062 49.4275 1.0508 85.765 1.0508C122.098 1.0508 151.664 16.2062 151.664 34.8388C151.668 53.4713 122.102 68.6267 85.765 68.6267Z" fill="url(#paint1_radial_629_2007)"/>
<path d="M64.6614 9.82019C65.0958 9.11329 64.9164 8.50669 64.6189 8.20101C64.175 7.67083 63.0795 7.60396 61.3842 7.95264C38.9017 12.5666 24.3761 23.1176 24.3761 34.8388C24.3761 41.2868 28.8103 47.4483 37.2064 52.6689C37.8014 53.0224 38.3256 53.1943 38.8497 53.1943H38.8544C39.6478 53.137 40.0539 52.6498 40.3608 52.1531C40.4789 51.9381 40.6347 51.6181 40.7906 51.279L40.9181 51.0211C48.2139 33.9313 56.2133 19.9795 64.0569 10.6656C64.345 10.3169 64.5056 10.0829 64.6614 9.82019ZM63.8444 9.31868C63.7075 9.54316 63.5611 9.75332 63.325 10.059C55.4295 19.4302 47.3781 33.4679 40.0539 50.6246L39.9358 50.8682C39.7847 51.1882 39.6431 51.4892 39.5486 51.6659C39.2936 52.0719 39.1 52.2152 38.8214 52.2343C38.505 52.2343 38.1367 52.1053 37.7022 51.8474C29.6083 46.8131 25.33 40.9382 25.33 34.8435C25.33 23.6 39.5581 13.4216 61.5731 8.90313C62.2011 8.77417 62.7536 8.7073 63.1739 8.7073C63.75 8.7073 63.8869 8.83149 63.9058 8.85059C63.9956 8.93657 63.9719 9.11329 63.8444 9.31868Z" fill="url(#paint2_radial_629_2007)"/>
<path d="M93.1978 38.5118C91.8897 38.5118 90.4022 38.679 88.8958 38.999C83.1678 40.2217 77.7136 42.3138 73.3267 43.9998L73.2086 44.0476C59.8825 49.1822 53.3942 54.2308 51.7131 55.6685C51.6092 55.764 51.5147 55.8452 51.425 55.9168C51.2928 56.0315 51.1842 56.127 51.0992 56.213C50.8064 56.5043 50.4145 56.9676 50.4145 57.6363C50.4145 58.883 51.987 59.3415 52.8275 59.5851L52.9833 59.6328C62.7678 62.5607 74.1106 64.1083 85.7839 64.1083H85.8595C85.9303 64.1083 86.0295 64.1178 86.1428 64.1178C86.242 64.1178 86.3506 64.1131 86.4403 64.1083C88.0883 64.0749 89.7789 63.688 91.0917 63.0479C95.2378 60.9559 97.2022 56.127 98.3828 53.2373C98.4914 52.9698 98.5953 52.7215 98.6897 52.497C100.881 47.3719 101.216 43.5747 99.6861 41.22C98.515 39.4288 96.3333 38.5118 93.1978 38.5118ZM97.8114 52.1244C97.717 52.3537 97.6131 52.6068 97.5045 52.8791C96.3806 55.6398 94.4917 60.2585 90.6761 62.1834C89.0375 62.9858 87.5595 63.1435 85.7886 63.1435C74.2097 63.1435 62.9614 61.6055 53.2667 58.7062L53.0967 58.6585C52.582 58.5104 51.3731 58.1569 51.3731 57.6363C51.3731 57.3927 51.4864 57.1826 51.7745 56.9008C51.85 56.8243 51.9397 56.7479 52.0483 56.6524C52.1381 56.5712 52.242 56.4852 52.3411 56.3945C53.9845 54.995 60.3595 50.0228 73.5486 44.9503L73.662 44.9073C78.0158 43.2356 83.4322 41.1531 89.0895 39.9495C90.5345 39.6438 91.9511 39.4814 93.1931 39.4814C95.9886 39.4814 97.9011 40.2504 98.8833 41.7645C100.229 43.8326 99.8703 47.3146 97.8114 52.1244Z" fill="url(#paint3_radial_629_2007)"/>
<path d="M134.536 16.9991C133.96 16.6361 133.497 16.4689 133.067 16.4689C132.992 16.4689 132.921 16.4737 132.893 16.4784C132.241 16.5119 131.731 16.8701 131.41 17.5054C131.193 17.8493 130.952 18.346 130.824 18.6278C126.74 28.2808 118.311 46.3546 107.686 58.9928C107.397 59.3319 107.227 59.5612 107.076 59.8478C106.722 60.4448 106.746 61.0562 107.128 61.4813C107.388 61.7822 107.832 61.9303 108.479 61.9303C108.927 61.9303 109.489 61.8634 110.193 61.7249C132.666 57.087 147.187 46.5265 147.187 34.8244C147.182 28.3095 142.809 22.1432 134.536 16.9991ZM109.999 60.7792C109.371 60.9034 108.857 60.9607 108.474 60.9607C107.95 60.9607 107.841 60.846 107.832 60.8413C107.714 60.7027 107.818 60.4687 107.903 60.3254C108.011 60.1153 108.129 59.9481 108.408 59.6185C119.118 46.8847 127.594 28.7059 131.689 19.0242C131.882 18.6087 132.071 18.2457 132.232 17.9925C132.425 17.62 132.628 17.4624 132.978 17.4433C133.006 17.4385 133.039 17.4385 133.067 17.4385C133.308 17.4385 133.625 17.5627 134.036 17.8206C142.016 22.7785 146.233 28.6629 146.233 34.8244C146.228 46.0489 132.01 56.2369 109.999 60.7792Z" fill="url(#paint4_radial_629_2007)"/>
<mask id="mask0_629_2007" style="mask-type:luminance" maskUnits="userSpaceOnUse" x="19" y="0" width="134" height="70">
<path d="M85.765 69.1091C122.428 69.1091 152.141 53.7675 152.141 34.8388C152.141 15.9101 122.428 0.56839 85.765 0.56839C49.1206 0.56839 19.3895 15.9148 19.3895 34.8388C19.3895 53.7675 49.1253 69.1091 85.765 69.1091ZM98.2553 52.3155C97.1692 54.8899 95.2519 60.4162 90.8839 62.6181C89.5617 63.2629 87.923 63.5972 86.4356 63.6259C86.1144 63.6545 85.8878 63.6259 85.7886 63.6259C73.7753 63.6259 62.5553 61.9924 53.125 59.1648C52.4308 58.9594 50.8961 58.5821 50.8961 57.6316C50.8961 57.2017 51.1181 56.8721 51.4392 56.5521C51.5808 56.4088 51.7839 56.2512 52.0389 56.0171C54.23 54.1448 60.8978 49.2968 73.3833 44.4918C77.7703 42.8057 83.2481 40.6898 88.995 39.4671C92.3808 38.7554 104.871 36.8448 98.2553 52.3155ZM131.807 17.7728C132.029 17.3382 132.35 16.9943 132.916 16.9656C133.237 16.9226 133.644 17.0086 134.286 17.4098C142.087 22.2626 146.71 28.276 146.71 34.8292C146.71 46.6603 131.651 56.81 110.099 61.252C108.706 61.5243 107.799 61.5243 107.487 61.1661C107.279 60.932 107.218 60.5595 107.487 60.1009C107.624 59.843 107.771 59.6424 108.049 59.3081C119.784 45.3515 128.742 24.7845 131.259 18.8236C131.438 18.432 131.646 18.026 131.807 17.7728ZM73.4872 17.3095C74.5828 14.7446 76.4858 9.20405 80.8681 7.00215C82.195 6.33823 83.8383 6.03732 85.2928 5.98478C85.6422 5.98478 85.8642 5.98478 85.9681 5.98478C98.005 5.98478 109.211 7.6374 118.665 10.4984C119.354 10.7038 120.861 10.9856 120.861 11.9696C120.861 12.4138 120.624 12.7481 120.303 13.0586C120.176 13.2066 119.977 13.3786 119.699 13.5935C117.498 15.4659 110.864 20.3043 98.3781 25.1045C93.9864 26.8336 88.4803 28.9209 82.7569 30.1436C79.3664 30.8696 66.8808 32.7802 73.4872 17.3095ZM61.4833 8.4255C62.8811 8.13892 63.9436 8.13892 64.2553 8.51147C64.4583 8.72641 64.5386 9.10374 64.2553 9.56705C64.1089 9.81065 63.9625 10.0256 63.6886 10.3695C51.9444 24.3164 43.0194 44.9026 40.4836 50.83C40.2853 51.2456 40.0917 51.6659 39.95 51.9238C39.6856 52.3393 39.3881 52.6737 38.8214 52.7167C38.5286 52.7167 38.0989 52.645 37.4519 52.2581C29.6744 47.4197 24.8531 41.3776 24.8531 34.8388C24.8531 23.0221 39.9453 12.8484 61.4833 8.4255Z" fill="white"/>
</mask>
<g mask="url(#mask0_629_2007)">
<mask id="mask1_629_2007" style="mask-type:luminance" maskUnits="userSpaceOnUse" x="20" y="1" width="132" height="68">
<path d="M85.765 68.4261C49.5408 68.4261 20.0647 53.3567 20.0647 34.8435C20.0647 16.3256 49.5361 1.25618 85.765 1.25618C121.994 1.25618 151.461 16.3208 151.461 34.8435C151.465 53.3567 121.994 68.4261 85.765 68.4261ZM93.1978 38.3112C91.8756 38.3112 90.3739 38.4831 88.8533 38.8031C83.1064 40.0259 77.6428 42.1227 73.2558 43.8135L73.1425 43.8565C59.7833 48.9959 53.2761 54.0684 51.5997 55.5013L51.3022 55.7592C51.17 55.8786 51.0567 55.9741 50.9622 56.0697C50.6506 56.3801 50.2208 56.8864 50.2208 57.6315C50.2208 59.031 51.8831 59.5134 52.7803 59.7761L52.9361 59.8239C62.7394 62.7566 74.1058 64.3089 85.7933 64.3089C85.935 64.3137 86.0342 64.3184 86.1522 64.3184C86.2561 64.3184 86.3694 64.3137 86.4969 64.3041C88.1261 64.2755 89.8497 63.879 91.1814 63.2294C95.3983 61.0992 97.3864 56.2273 98.5717 53.3137L98.8739 52.5734C101.093 47.3863 101.424 43.5317 99.8561 41.1149C98.6425 39.2569 96.3994 38.3112 93.1978 38.3112ZM133.063 16.2683C132.978 16.2683 132.897 16.2731 132.822 16.2826C132.142 16.3113 131.585 16.7077 131.202 17.4528C131.009 17.7489 130.768 18.2552 130.64 18.5275C126.556 28.1901 118.136 46.2447 107.53 58.8638C107.242 59.2077 107.053 59.4561 106.883 59.7761C106.429 60.5451 106.632 61.2377 106.977 61.6246C107.27 61.9637 107.766 62.1309 108.469 62.1309C108.932 62.1309 109.504 62.064 110.221 61.9255C132.798 57.2685 147.381 46.6316 147.381 34.8244C147.381 28.2331 142.975 22.0095 134.631 16.8223C134.031 16.445 133.53 16.2683 133.063 16.2683ZM63.1739 7.53709C62.6686 7.53709 62.05 7.60874 61.3417 7.7568C38.7647 12.3899 24.1778 23.0173 24.1778 34.8388C24.1778 41.3585 28.645 47.5821 37.0978 52.8361C37.7306 53.2182 38.2925 53.3997 38.8214 53.3997C39.7564 53.328 40.2145 52.774 40.5167 52.2916C40.6583 52.0337 40.8142 51.7136 40.9794 51.3697L41.0928 51.1261C48.3981 34.0316 56.3833 20.0989 64.2033 10.8137C64.515 10.4172 64.6756 10.1832 64.8314 9.91572C65.3225 9.11807 65.1053 8.42072 64.7417 8.03383C64.4678 7.70904 63.9483 7.53709 63.1739 7.53709ZM85.2644 5.29698C83.5031 5.36385 81.8361 5.75551 80.5658 6.39077C76.3819 8.49236 74.3939 13.3308 73.2039 16.2253L72.8639 17.042C70.6492 22.2292 70.3233 26.0885 71.8911 28.5053C73.1047 30.3729 75.3431 31.3138 78.5494 31.3138C79.8717 31.3138 81.3733 31.1419 82.8939 30.8218C88.3717 29.6516 93.6889 27.6933 98.6236 25.7493C111.917 20.6339 118.448 15.5566 120.138 14.1189C120.454 13.8705 120.662 13.6843 120.809 13.5171C121.13 13.2066 121.536 12.7099 121.536 11.9696C121.536 10.5796 119.963 10.145 119.118 9.91572L118.858 9.84407C109.031 6.8684 97.6603 5.30176 85.9681 5.30176H85.2739H85.2644V5.29698Z" fill="white"/>
</mask>
<g mask="url(#mask1_629_2007)">
<mask id="mask2_629_2007" style="mask-type:luminance" maskUnits="userSpaceOnUse" x="20" y="1" width="132" height="68">
<path d="M85.765 68.3831C49.5833 68.3831 20.1497 53.3328 20.1497 34.8388C20.1497 16.3447 49.5833 1.29439 85.765 1.29439C121.947 1.29439 151.38 16.3399 151.38 34.8388C151.385 53.3328 121.951 68.3831 85.765 68.3831ZM93.1836 38.3064C91.8661 38.3064 90.3644 38.4736 88.8486 38.7984C83.1111 40.0211 77.6522 42.1179 73.27 43.804L73.1567 43.847C59.8164 48.9816 53.3139 54.0445 51.6422 55.4774L51.3447 55.7401C51.2078 55.8547 51.0944 55.955 51.0047 56.0506C50.6931 56.361 50.2633 56.8626 50.2633 57.6124C50.2633 59.0071 51.9256 59.4895 52.8228 59.7522L52.9786 59.8C62.7725 62.7279 74.1153 64.2802 85.7933 64.2802C85.935 64.285 86.0342 64.2898 86.1522 64.2898C86.2561 64.2898 86.3694 64.285 86.4969 64.2755C88.1261 64.2468 89.8497 63.8551 91.1767 63.2056C95.3889 61.0801 97.3769 56.213 98.5622 53.2994L98.8644 52.5591C101.079 47.3815 101.41 43.527 99.8419 41.1149C98.6283 39.2521 96.39 38.3064 93.1836 38.3064ZM133.006 16.2922C132.921 16.2922 132.841 16.2969 132.765 16.3065C132.09 16.3351 131.528 16.7316 131.146 17.4767C130.952 17.7728 130.711 18.2791 130.584 18.5466C126.504 28.1948 118.093 46.2304 107.497 58.8304C107.209 59.1743 107.024 59.4227 106.85 59.7427C106.401 60.5069 106.604 61.2043 106.949 61.5864C107.242 61.9255 107.733 62.0927 108.441 62.0927C108.904 62.0927 109.475 62.0258 110.188 61.8873C132.732 57.2351 147.3 46.6125 147.3 34.8244C147.3 28.2426 142.899 22.0238 134.569 16.8462C133.969 16.4689 133.474 16.2922 133.006 16.2922ZM63.2069 7.57052C62.7017 7.57052 62.0878 7.64217 61.3794 7.79024C38.8261 12.4138 24.2581 23.0364 24.2581 34.8388C24.2581 41.3537 28.7206 47.5678 37.1639 52.817C37.8014 53.1991 38.3586 53.3806 38.8875 53.3806C39.8178 53.3137 40.2806 52.7501 40.5828 52.2725C40.7244 52.0145 40.8756 51.6945 41.0408 51.3506L41.1542 51.1118C48.45 34.0363 56.4258 20.1228 64.2364 10.8423C64.548 10.4459 64.7086 10.2119 64.8644 9.94915C65.3556 9.1515 65.1383 8.45415 64.77 8.06727C64.4961 7.74725 63.9767 7.57052 63.2069 7.57052ZM85.2644 5.33519C83.5078 5.40206 81.8408 5.78894 80.5705 6.4242C76.3914 8.52102 74.4033 13.3547 73.2133 16.2444L72.8781 17.0612C70.6633 22.2435 70.3375 26.0932 71.9053 28.5101C73.1142 30.3729 75.3525 31.3138 78.5542 31.3138C79.8764 31.3138 81.378 31.1466 82.8939 30.8218C88.3622 29.6516 93.6794 27.6933 98.6 25.7589C111.874 20.6482 118.405 15.5757 120.086 14.1476C120.402 13.8992 120.615 13.7129 120.761 13.5457C121.078 13.2353 121.489 12.7385 121.489 12.003C121.489 10.6131 119.916 10.1784 119.071 9.94915L118.811 9.87751C108.998 6.90661 97.6367 5.33996 85.9633 5.33996H85.2739L85.2644 5.33519Z" fill="white"/>
</mask>
<g mask="url(#mask2_629_2007)">
<path d="M85.7697 69.0662C122.386 69.0662 152.06 53.7388 152.06 34.8388C152.06 15.9339 122.386 0.611374 85.7697 0.611374C49.1725 0.611374 19.4744 15.9387 19.4744 34.8388C19.4744 53.7436 49.1725 69.0662 85.7697 69.0662ZM98.2411 52.2916C97.155 54.866 95.2425 60.3827 90.8792 62.5846C89.5617 63.2294 87.9183 63.5638 86.4403 63.5924C86.1192 63.6211 85.8878 63.5924 85.7933 63.5924C73.5628 63.5924 62.1586 61.8968 52.6292 58.9785C52.5536 58.9498 52.3458 58.8495 52.3458 58.8495C51.3967 58.5486 50.9433 58.1331 50.9433 57.6172C50.9433 57.1826 51.1653 56.8578 51.4864 56.5378C51.6281 56.3945 51.8264 56.2369 52.0861 56.0076C54.2725 54.1353 60.9308 49.292 73.4022 44.4966C77.7844 42.8105 83.2575 40.6994 88.995 39.4814C92.3714 38.7554 104.847 36.8401 98.2411 52.2916ZM131.75 17.7919C131.972 17.3573 132.293 17.0134 132.855 16.9847C133.176 16.9417 133.577 17.0277 134.224 17.4289C142.011 22.2769 146.63 28.2808 146.63 34.8244C146.63 46.6411 131.585 56.7718 110.061 61.2138C108.668 61.4861 107.766 61.4861 107.449 61.1278C107.242 60.8986 107.18 60.5212 107.449 60.0627C107.586 59.8048 107.737 59.6042 108.011 59.2746C119.737 45.3276 128.676 24.7893 131.193 18.838C131.382 18.4559 131.585 18.0499 131.75 17.7919ZM73.5014 17.3286C74.5922 14.7685 76.4953 9.23748 80.8728 7.03558C82.195 6.37644 83.8383 6.07075 85.2928 6.01344C85.6422 6.01344 85.8642 6.01344 85.9728 6.01344C98.2033 6.01344 109.565 7.72337 119.109 10.6704C119.208 10.6704 119.406 10.7611 119.472 10.785C120.365 11.0859 120.799 11.4871 120.823 11.9887C120.823 12.4376 120.587 12.7672 120.266 13.0824C120.138 13.2257 119.94 13.3977 119.661 13.6126C117.465 15.4802 110.835 20.3139 98.3686 25.1141C93.9817 26.8384 88.4803 28.9256 82.7664 30.1484C79.3758 30.8696 66.9044 32.7849 73.5014 17.3286ZM61.5117 8.45893C62.9094 8.17235 63.9719 8.17235 64.2836 8.54491C64.4914 8.75984 64.5717 9.13717 64.2836 9.59571C64.1372 9.8393 63.9908 10.0542 63.7217 10.4029C51.9917 24.3308 43.0761 44.893 40.5403 50.8157C40.3419 51.2312 40.1483 51.6468 40.0067 51.9095C39.7422 52.325 39.4447 52.6594 38.8828 52.6976C38.59 52.6976 38.165 52.6259 37.5133 52.239C29.7453 47.4054 24.9286 41.368 24.9286 34.8388C24.9286 23.0364 40.0067 12.8723 61.5117 8.45893Z" fill="white"/>
</g>
<mask id="mask3_629_2007" style="mask-type:luminance" maskUnits="userSpaceOnUse" x="20" y="1" width="132" height="68">
<path d="M85.765 68.3831C49.5833 68.3831 20.1497 53.3328 20.1497 34.8388C20.1497 16.3447 49.5833 1.29439 85.765 1.29439C121.947 1.29439 151.38 16.3399 151.38 34.8388C151.385 53.3328 121.951 68.3831 85.765 68.3831ZM93.1836 38.3064C91.8661 38.3064 90.3644 38.4736 88.8486 38.7984C83.1111 40.0211 77.6522 42.1179 73.27 43.804L73.1567 43.847C59.8164 48.9816 53.3139 54.0445 51.6422 55.4774L51.3447 55.7401C51.2078 55.8547 51.0944 55.955 51.0047 56.0506C50.6931 56.361 50.2633 56.8626 50.2633 57.6124C50.2633 59.0071 51.9256 59.4895 52.8228 59.7522L52.9786 59.8C62.7725 62.7279 74.1153 64.2802 85.7933 64.2802C85.935 64.285 86.0342 64.2898 86.1522 64.2898C86.2561 64.2898 86.3694 64.285 86.4969 64.2755C88.1261 64.2468 89.8497 63.8551 91.1767 63.2056C95.3889 61.0801 97.3769 56.213 98.5622 53.2994L98.8644 52.5591C101.079 47.3815 101.41 43.527 99.8419 41.1149C98.6283 39.2521 96.39 38.3064 93.1836 38.3064ZM133.006 16.2922C132.921 16.2922 132.841 16.2969 132.765 16.3065C132.09 16.3351 131.528 16.7316 131.146 17.4767C130.952 17.7728 130.711 18.2791 130.584 18.5466C126.504 28.1948 118.093 46.2304 107.497 58.8304C107.209 59.1743 107.024 59.4227 106.85 59.7427C106.401 60.5069 106.604 61.2043 106.949 61.5864C107.242 61.9255 107.733 62.0927 108.441 62.0927C108.904 62.0927 109.475 62.0258 110.188 61.8873C132.732 57.2351 147.3 46.6125 147.3 34.8244C147.3 28.2426 142.899 22.0238 134.569 16.8462C133.969 16.4689 133.474 16.2922 133.006 16.2922ZM63.2069 7.57052C62.7017 7.57052 62.0878 7.64217 61.3794 7.79024C38.8261 12.4138 24.2581 23.0364 24.2581 34.8388C24.2581 41.3537 28.7206 47.5678 37.1639 52.817C37.8014 53.1991 38.3586 53.3806 38.8875 53.3806C39.8178 53.3137 40.2806 52.7501 40.5828 52.2725C40.7244 52.0145 40.8756 51.6945 41.0408 51.3506L41.1542 51.1118C48.45 34.0363 56.4258 20.1228 64.2364 10.8423C64.548 10.4459 64.7086 10.2119 64.8644 9.94915C65.3556 9.1515 65.1383 8.45415 64.77 8.06727C64.4961 7.74725 63.9767 7.57052 63.2069 7.57052ZM85.2644 5.33519C83.5078 5.40206 81.8408 5.78894 80.5705 6.4242C76.3914 8.52102 74.4033 13.3547 73.2133 16.2444L72.8781 17.0612C70.6633 22.2435 70.3375 26.0932 71.9053 28.5101C73.1142 30.3729 75.3525 31.3138 78.5542 31.3138C79.8764 31.3138 81.378 31.1466 82.8939 30.8218C88.3622 29.6516 93.6794 27.6933 98.6 25.7589C111.874 20.6482 118.405 15.5757 120.086 14.1476C120.402 13.8992 120.615 13.7129 120.761 13.5457C121.078 13.2353 121.489 12.7385 121.489 12.003C121.489 10.6131 119.916 10.1784 119.071 9.94915L118.811 9.87751C108.998 6.90661 97.6367 5.33996 85.9633 5.33996H85.2739L85.2644 5.33519Z" fill="white"/>
</mask>
<g mask="url(#mask3_629_2007)">
<path d="M85.7697 69.0662C122.386 69.0662 152.06 53.7388 152.06 34.8388C152.06 15.9339 122.386 0.611374 85.7697 0.611374C49.1725 0.611374 19.4744 15.9387 19.4744 34.8388C19.4744 53.7436 49.1725 69.0662 85.7697 69.0662ZM98.2411 52.2916C97.155 54.866 95.2425 60.3827 90.8792 62.5846C89.5617 63.2294 87.9183 63.5638 86.4403 63.5924C86.1192 63.6211 85.8878 63.5924 85.7933 63.5924C73.5628 63.5924 62.1586 61.8968 52.6292 58.9785C52.5536 58.9498 52.3458 58.8495 52.3458 58.8495C51.3967 58.5486 50.9433 58.1331 50.9433 57.6172C50.9433 57.1826 51.1653 56.8578 51.4864 56.5378C51.6281 56.3945 51.8264 56.2369 52.0861 56.0076C54.2725 54.1353 60.9308 49.292 73.4022 44.4966C77.7844 42.8105 83.2575 40.6994 88.995 39.4814C92.3714 38.7554 104.847 36.8401 98.2411 52.2916ZM131.75 17.7919C131.972 17.3573 132.293 17.0134 132.855 16.9847C133.176 16.9417 133.577 17.0277 134.224 17.4289C142.011 22.2769 146.63 28.2808 146.63 34.8244C146.63 46.6411 131.585 56.7718 110.061 61.2138C108.668 61.4861 107.766 61.4861 107.449 61.1278C107.242 60.8986 107.18 60.5212 107.449 60.0627C107.586 59.8048 107.737 59.6042 108.011 59.2746C119.737 45.3276 128.676 24.7893 131.193 18.838C131.382 18.4559 131.585 18.0499 131.75 17.7919ZM73.5014 17.3286C74.5922 14.7685 76.4953 9.23748 80.8728 7.03558C82.195 6.37644 83.8383 6.07075 85.2928 6.01344C85.6422 6.01344 85.8642 6.01344 85.9728 6.01344C98.2033 6.01344 109.565 7.72337 119.109 10.6704C119.208 10.6704 119.406 10.7611 119.472 10.785C120.365 11.0859 120.799 11.4871 120.823 11.9887C120.823 12.4376 120.587 12.7672 120.266 13.0824C120.138 13.2257 119.94 13.3977 119.661 13.6126C117.465 15.4802 110.835 20.3139 98.3686 25.1141C93.9817 26.8384 88.4803 28.9256 82.7664 30.1484C79.3758 30.8696 66.9044 32.7849 73.5014 17.3286ZM61.5117 8.45893C62.9094 8.17235 63.9719 8.17235 64.2836 8.54491C64.4914 8.75984 64.5717 9.13717 64.2836 9.59571C64.1372 9.8393 63.9908 10.0542 63.7217 10.4029C51.9917 24.3308 43.0761 44.893 40.5403 50.8157C40.3419 51.2312 40.1483 51.6468 40.0067 51.9095C39.7422 52.325 39.4447 52.6594 38.8828 52.6976C38.59 52.6976 38.165 52.6259 37.5133 52.239C29.7453 47.4054 24.9286 41.368 24.9286 34.8388C24.9286 23.0364 40.0067 12.8723 61.5117 8.45893Z" fill="url(#paint5_linear_629_2007)"/>
</g>
</g>
<path d="M105.329 59.4179C111.133 52.282 117.772 39.8635 119.963 35.6412L102.864 41.4588C102.949 46.2256 101.967 56.7623 92.5744 64.0414C92.5744 64.0414 89.2217 65.1639 83.0403 65.1973L81.4489 67.7336C85.6092 68.0775 97.3581 68.5217 114.164 64.8057V64.8152L115.676 61.3094C111.029 63.1435 99.6294 66.4248 105.329 59.4179Z" fill="url(#paint6_linear_629_2007)"/>
<path d="M83.9517 29.8809C83.555 29.9764 83.1536 30.0624 82.757 30.1484C80.9389 30.5353 76.5095 31.2613 73.8083 29.4701C71.4661 27.9226 70.4225 24.4836 73.4872 17.3048C74.5119 14.9022 76.2545 9.87274 80.0889 7.44157L75.8767 3.84497C75.5981 3.99304 75.3667 4.16976 75.1919 4.3847C73.3503 6.77766 71.7589 9.40465 70.3045 12.0508C68.9256 14.5583 67.6836 17.1519 66.6683 19.8362C65.8561 21.9617 64.6992 25.138 64.4158 28.1328C64.09 31.5144 64.8739 34.662 68.5336 35.7797C68.7839 35.8514 69.0625 35.9421 69.3931 36.0233C71.5275 36.5487 75.6028 36.969 84.7733 34.4662L83.9517 29.8809Z" fill="url(#paint7_linear_629_2007)"/>
<path d="M127.415 11.2197L120.851 11.917C120.851 11.9361 120.861 11.9552 120.861 11.9696C120.861 12.4185 120.624 12.7481 120.303 13.0633C120.176 13.2066 119.977 13.3786 119.699 13.5935C117.498 15.4658 110.864 20.3043 98.3781 25.1093C95.3558 26.2986 91.8 27.6599 88.008 28.7919V28.7871C86.6811 29.1835 85.3258 29.5561 83.9517 29.8761C83.555 29.9716 83.1536 30.0576 82.7569 30.1436C81.0569 30.5018 77.0808 31.161 74.3608 29.7854L68.6281 35.8084C68.85 35.8752 69.0956 35.9469 69.3789 36.0185C71.5133 36.5439 75.5886 36.9642 84.7592 34.4614C88.9242 33.3247 94.1422 31.5813 100.706 28.9782C111.936 24.5457 125.087 16.9274 127.363 11.6113C127.429 11.468 127.439 11.3391 127.415 11.2197Z" fill="url(#paint8_linear_629_2007)"/>
<path d="M38.8261 52.7167C38.5333 52.7167 38.1036 52.6403 37.452 52.2581C29.6745 47.4197 24.8531 41.3776 24.8531 34.8388C24.8531 23.0221 39.9453 12.8436 61.4786 8.4255C62.8764 8.13891 63.9389 8.13891 64.2506 8.51147C64.2931 8.55923 64.3308 8.61177 64.3592 8.66909L73.7186 3.91184C73.6525 3.74466 73.44 3.65391 73.1095 3.66347C60.6097 4.9292 49.1395 8.04816 39.9689 12.7577C28.2342 18.7806 21.7695 26.6282 21.7695 34.8388C21.7695 43.0541 28.2342 50.8969 39.9736 56.9246C40.4883 57.1873 41.0172 57.45 41.5414 57.7032C41.8814 57.8608 42.1978 57.8656 42.4481 57.7653L39.2558 52.6116C39.1331 52.6641 38.9914 52.7023 38.8261 52.7167Z" fill="url(#paint9_linear_629_2007)"/>
<path d="M103.096 33.8883C100.513 33.0954 94.1469 31.4571 70.9136 40.6898C59.6842 45.1223 46.5328 52.7358 44.2567 58.0567C44.1764 58.2525 44.1858 58.4244 44.252 58.5821L50.9197 57.8083C50.9056 57.751 50.9008 57.6936 50.9008 57.6363C50.9008 57.2065 51.1228 56.8769 51.4439 56.5569C51.5856 56.4136 51.7839 56.256 52.0436 56.0219C54.2347 54.1496 60.9025 49.3016 73.3881 44.4966C77.775 42.8105 83.2528 40.6946 89.0044 39.4718C92.3903 38.7554 104.881 36.8401 98.2647 52.3107C97.1975 54.8517 95.3086 60.2538 91.0681 62.5178L95.7619 65.8135C96.0406 65.6606 96.2625 65.4887 96.4419 65.2785C98.2836 62.8856 99.875 60.2586 101.334 57.6125C102.708 55.1001 103.95 52.5113 104.97 49.827C105.778 47.7063 106.939 44.5252 107.223 41.5352C107.539 38.1536 106.751 35.0059 103.096 33.8883Z" fill="url(#paint10_linear_629_2007)"/>
<path d="M90.8839 62.6181C89.5617 63.2629 87.9231 63.5972 86.4356 63.6259C86.1144 63.6545 85.8878 63.6259 85.7886 63.6259C73.5439 63.6259 62.1256 61.9255 52.5819 59.0024C52.5111 58.9737 52.2986 58.8734 52.2986 58.8734C51.4581 58.6059 51.0094 58.2477 50.915 57.8083L44.2472 58.582C44.3842 58.8734 44.7383 59.1122 45.1822 59.3176C56.6336 64.0558 70.8239 66.635 85.8075 66.635C88.1875 66.635 90.5439 66.5729 92.8767 66.4439C94.1753 66.3675 95.1056 66.1669 95.7478 65.8182L91.0539 62.5225C90.9972 62.5512 90.9406 62.5846 90.8839 62.6181Z" fill="url(#paint11_linear_629_2007)"/>
<path d="M107.482 60.0962C107.615 59.8382 107.766 59.6376 108.044 59.3081C119.784 45.3468 128.737 24.7798 131.254 18.8189C131.434 18.432 131.641 18.026 131.802 17.7681C131.977 17.4289 132.213 17.1424 132.581 17.023L129.167 11.9075C128.969 11.9887 128.813 12.132 128.728 12.3278C121.701 27.55 114.179 41.4445 104.885 55.2577C102.628 58.6107 100.191 61.873 98.0003 65.2737C97.8303 65.5364 97.8303 65.737 97.9578 65.8612L107.412 61.0801C107.265 60.846 107.242 60.5069 107.482 60.0962Z" fill="url(#paint12_linear_629_2007)"/>
<path d="M80.8634 7.00214C82.1903 6.33823 83.8336 6.03732 85.2881 5.98478C85.6375 5.98478 85.8595 5.98478 85.9681 5.98478C98.2128 5.98478 109.589 7.69472 119.146 10.6465C119.246 10.6465 119.444 10.7373 119.505 10.7659C120.369 11.0525 120.799 11.4394 120.846 11.917L127.41 11.2197C127.335 10.8662 126.938 10.5892 126.433 10.3551C114.981 5.617 100.791 3.03299 85.8028 3.03299C83.4228 3.03299 81.0664 3.09986 78.7336 3.22882C77.4397 3.30047 76.5142 3.4963 75.8672 3.84497L80.0795 7.44157C80.3392 7.28872 80.5989 7.13588 80.8634 7.00214Z" fill="url(#paint13_linear_629_2007)"/>
<path d="M149.846 34.8388C149.846 26.6187 143.386 18.7759 131.646 12.7481C131.136 12.4854 130.607 12.2227 130.074 11.9696C129.743 11.8167 129.427 11.8072 129.172 11.9075L132.586 17.023C132.69 16.9895 132.794 16.9704 132.916 16.9609C133.237 16.9179 133.644 17.0038 134.286 17.4051C142.082 22.2578 146.71 28.2713 146.71 34.8244C146.71 35.0537 146.705 35.283 146.696 35.5122H149.841C149.841 35.2925 149.846 35.0633 149.846 34.8388Z" fill="url(#paint14_linear_629_2007)"/>
<path d="M146.691 35.4693C146.115 47.0042 131.226 56.896 110.099 61.252C108.706 61.5243 107.799 61.5243 107.487 61.1661C107.459 61.1422 107.445 61.1135 107.421 61.0801L97.9672 65.8612C98.0711 65.9615 98.2553 66.0141 98.5103 66.0045C111.005 64.7436 122.476 61.6246 131.646 56.9151C143.06 51.0545 149.487 43.4267 149.831 35.4645H146.691V35.4693Z" fill="url(#paint15_linear_629_2007)"/>
<path d="M127.415 11.2197C127.339 10.8662 126.943 10.5892 126.438 10.3551C124.889 9.71511 123.293 9.11807 121.654 8.55923L118.825 10.551C118.934 10.5796 119.043 10.6131 119.151 10.6465C119.25 10.6465 119.449 10.7373 119.51 10.7659C120.374 11.0525 120.804 11.4394 120.851 11.917C120.851 11.9361 120.861 11.9552 120.861 11.9696C120.861 12.4185 120.624 12.7481 120.303 13.0633C120.176 13.2066 119.978 13.3786 119.699 13.5935C119.529 13.7368 119.331 13.904 119.109 14.0759L124.723 15.0981C125.979 13.8753 126.9 12.6956 127.363 11.6161C127.429 11.468 127.439 11.3391 127.415 11.2197Z" fill="url(#paint16_linear_629_2007)"/>
<path d="M52.5819 59.0071C52.0106 58.7874 51.0661 58.5295 50.915 57.813C50.9008 57.7557 50.8961 57.6984 50.8961 57.6411C50.8961 57.2112 51.1181 56.8817 51.4392 56.5616C51.5808 56.4184 51.7792 56.2607 52.0389 56.0267C52.2372 55.8595 52.4733 55.6685 52.7425 55.4535L47.3261 54.1591C45.8433 55.5299 44.7714 56.8482 44.2567 58.0566C44.1764 58.2525 44.1858 58.4244 44.252 58.582C44.3889 58.8734 44.7431 59.1122 45.187 59.3176C46.6225 59.9146 48.1006 60.4735 49.6164 60.9989L53.0731 59.1504C52.9078 59.0979 52.7425 59.0549 52.5819 59.0071Z" fill="url(#paint17_linear_629_2007)"/>
<path d="M131.646 12.7481C131.136 12.4854 130.607 12.2227 130.074 11.9696C129.743 11.8167 129.427 11.8072 129.172 11.9075C128.973 11.9887 128.817 12.132 128.732 12.3278C128.166 13.5553 127.594 14.7685 127.018 15.9722L131.009 19.392C131.098 19.1914 131.174 19.0004 131.249 18.8189C131.429 18.432 131.637 18.026 131.797 17.7681C131.972 17.4289 132.208 17.1424 132.576 17.023C132.68 16.9895 132.784 16.9704 132.907 16.9609C133.228 16.9179 133.634 17.0038 134.276 17.4051C134.522 17.5627 134.772 17.7203 135.022 17.8779L135.344 14.8115C134.177 14.1094 132.945 13.4168 131.646 12.7481Z" fill="url(#paint18_linear_629_2007)"/>
<path d="M78.7431 3.22882C77.4492 3.30046 76.5236 3.4963 75.8767 3.84497C75.5981 3.99304 75.3667 4.16976 75.192 4.3847C74.3986 5.41162 73.6525 6.4863 72.9442 7.58963L76.9722 10.4555C77.8222 9.29957 78.8422 8.22967 80.0842 7.44157C80.3345 7.28395 80.5942 7.13588 80.8634 6.99737C81.6992 6.58182 82.6578 6.30479 83.6164 6.14717V3.05209C81.9825 3.08075 80.3533 3.14284 78.7431 3.22882Z" fill="url(#paint19_linear_629_2007)"/>
<path d="M91.0586 62.5225C90.9972 62.5512 90.9453 62.5894 90.8839 62.6228C89.5617 63.2677 87.9231 63.602 86.4356 63.6307C86.1145 63.6593 85.8878 63.6307 85.7886 63.6307C83.5125 63.6307 81.2742 63.5495 79.0642 63.4348L78.507 66.4248C80.9153 66.5633 83.352 66.635 85.8122 66.635C88.1922 66.635 90.5486 66.5729 92.8814 66.4439C94.18 66.3675 95.1103 66.1669 95.7525 65.8182C96.0311 65.6654 96.2531 65.4934 96.4325 65.2833C98.2742 62.8903 99.8656 60.2633 101.325 57.6172C101.452 57.3784 101.575 57.1348 101.707 56.896L97.4147 54.3502C96.2342 57.087 94.3642 60.7601 91.0586 62.5225Z" fill="url(#paint20_linear_629_2007)"/>
<path d="M64.3639 8.67386C64.4772 8.89358 64.482 9.20404 64.2553 9.56704C64.1089 9.81064 63.9625 10.0256 63.6933 10.3695C51.9492 24.3117 43.0194 44.8978 40.4836 50.83C40.2853 51.2456 40.0917 51.6659 39.95 51.9238C39.7658 52.2199 39.5581 52.4683 39.2606 52.6068L42.4528 57.7605C42.6511 57.6793 42.8069 57.536 42.8919 57.3402C49.9186 42.1227 57.4411 28.2235 66.7345 14.415C68.9917 11.0573 71.4331 7.79979 73.6194 4.39902C73.7517 4.19842 73.78 4.0408 73.7281 3.91661L64.3639 8.67386Z" fill="url(#paint21_linear_629_2007)"/>
<path d="M41.2061 49.1535C40.9228 49.7983 40.6867 50.3572 40.4836 50.83C40.2853 51.2456 40.0917 51.6659 39.95 51.9238C39.7658 52.2199 39.5581 52.4683 39.2606 52.6068C39.1331 52.6641 38.9914 52.7024 38.8261 52.7167C38.5333 52.7167 38.1036 52.6403 37.4519 52.2582C36.8239 51.8665 36.2194 51.4701 35.6292 51.0641L35.8936 54.6272C37.1686 55.4201 38.5286 56.1891 39.9689 56.9247C40.4836 57.1874 41.0125 57.4501 41.5367 57.7032C41.8767 57.8608 42.1931 57.8656 42.4433 57.7653C42.6417 57.6841 42.7975 57.5408 42.8825 57.345C43.7231 55.53 44.5731 53.734 45.4278 51.9525L41.2061 49.1535Z" fill="url(#paint22_linear_629_2007)"/>
<path d="M73.7233 3.91184C73.6572 3.74466 73.4447 3.65391 73.1142 3.66347C69.5158 4.02647 66.0072 4.55187 62.612 5.21101L60.2792 8.67864C60.6806 8.59745 61.082 8.50669 61.4833 8.4255C62.8811 8.13891 63.9436 8.13891 64.2553 8.51147C64.2978 8.55923 64.3356 8.61177 64.3639 8.66909C64.4772 8.8888 64.482 9.19927 64.2553 9.56227C64.1089 9.80586 63.9625 10.0208 63.6933 10.3647C63.6225 10.4459 63.5517 10.5271 63.4856 10.6131H69.3553C70.8003 8.55446 72.2547 6.50062 73.6147 4.38947C73.747 4.19842 73.7753 4.03602 73.7233 3.91184Z" fill="url(#paint23_linear_629_2007)"/>
<path d="M85.765 0.56839C49.1064 0.56839 19.3895 15.9101 19.3895 34.8388C19.3895 53.7675 49.1064 69.1091 85.765 69.1091C122.424 69.1091 152.141 53.7675 152.141 34.8388C152.145 15.9101 122.424 0.56839 85.765 0.56839ZM131.717 57.0775C119.501 63.3871 103.199 66.8643 85.8217 66.8643C68.4486 66.8643 52.1475 63.3871 39.9217 57.0775C28.1728 51.0115 21.6986 43.1162 21.6986 34.8483C21.6986 26.5852 28.1728 18.6899 39.9217 12.6239C52.1475 6.31435 68.4439 2.83716 85.8217 2.83716C103.19 2.83716 119.496 6.31435 131.717 12.6239C143.471 18.6851 149.94 26.5852 149.94 34.8483C149.94 43.1162 143.466 51.0115 131.717 57.0775Z" fill="url(#paint24_linear_629_2007)"/>
<path d="M83.9517 29.8809C83.555 29.9764 83.1583 30.0672 82.7569 30.1532C80.9389 30.5353 76.5094 31.2661 73.8083 29.4749C72.2075 28.4193 71.2158 26.4706 71.7258 23.0555L64.8456 25.5679C64.6519 26.4181 64.4914 27.2826 64.4158 28.1375C64.0853 31.5192 64.8739 34.6668 68.5289 35.7845C68.7744 35.8609 69.0578 35.9469 69.3836 36.0233C71.5181 36.5487 75.5933 36.969 84.7592 34.4662C85.7083 34.2035 86.7236 33.9122 87.7861 33.5874L88.0081 28.7871C86.6811 29.1883 85.3258 29.5609 83.9517 29.8809Z" fill="url(#paint25_linear_629_2007)"/>
<path d="M107.213 41.54C107.539 38.1536 106.751 35.0059 103.1 33.8883C100.834 33.1957 95.6675 31.8535 78.7856 37.7428L79.2956 42.2994C82.3272 41.2295 85.6139 40.1978 89.0044 39.4766C92.1967 38.7984 103.469 37.0646 99.2139 49.8174L105.442 48.5374C106.17 46.5265 106.977 43.9807 107.213 41.54Z" fill="url(#paint26_linear_629_2007)"/>
<path d="M104.678 34.6047L97.5422 39.9208C98.5858 40.4892 99.4264 41.3728 99.8467 42.715L106.869 37.4323C106.481 36.286 105.783 35.3068 104.678 34.6047Z" fill="url(#paint27_linear_629_2007)"/>
<path d="M110.094 61.252C108.701 61.5243 107.794 61.5243 107.483 61.1661C107.454 61.1422 107.44 61.1135 107.416 61.0801C107.261 60.846 107.237 60.5117 107.483 60.1009C107.615 59.843 107.766 59.6424 108.044 59.3128C108.488 58.7874 108.923 58.2525 109.357 57.708L103.724 56.9676C101.811 59.7284 99.8231 62.4604 98.0097 65.2833C97.8397 65.546 97.8397 65.7466 97.9672 65.8708C98.0711 65.9711 98.2553 66.0236 98.5103 66.0141C102.907 65.5699 107.166 64.8868 111.256 63.9937V61.0084C110.868 61.0849 110.486 61.1708 110.094 61.252Z" fill="url(#paint28_linear_629_2007)"/>
<path d="M73.0244 36.6203C70.5878 36.6203 69.2089 36.2 68.4675 35.9708C65.2422 34.9821 63.8067 32.3407 64.2128 28.1137C64.4867 25.2908 65.5161 22.3104 66.4842 19.7694C67.4569 17.214 68.6517 14.6586 70.1344 11.96C71.8722 8.80283 73.4306 6.35733 75.0408 4.27007C75.6547 3.52973 76.7928 3.1524 78.7336 3.03777C81.1089 2.90403 83.4936 2.84193 85.8122 2.84193C100.848 2.84193 114.925 5.37818 126.513 10.1784C126.862 10.3408 127.916 10.828 127.547 11.6973C125.233 17.0946 112.03 24.7272 100.782 29.1692C88.3292 34.1128 78.9886 36.6203 73.0244 36.6203ZM85.8122 3.22882C83.4983 3.22882 81.1231 3.29091 78.7525 3.41987C76.9297 3.52973 75.8767 3.86407 75.3431 4.50888C73.7517 6.57705 72.2028 9.00344 70.4744 12.1463C69.0011 14.8258 67.8158 17.3668 66.8478 19.9079C66.2197 21.5557 64.9069 24.9995 64.6047 28.1519C64.2222 32.164 65.5586 34.6716 68.5856 35.5982C69.3081 35.8179 70.6492 36.2287 73.0292 36.2287C78.9461 36.2287 88.2347 33.7306 100.64 28.8014C111.817 24.3881 124.926 16.8367 127.193 11.5397C127.302 11.2818 127.287 10.9617 126.362 10.5366C114.821 5.75551 100.796 3.22882 85.8122 3.22882Z" fill="url(#paint29_linear_629_2007)"/>
<path d="M69.4639 10.1307C68.5053 11.4919 67.5136 12.901 66.5692 14.3052C58.1683 26.8002 50.8489 39.8683 43.6381 55.2816L43.9922 55.444C51.1936 40.0546 58.4989 27.0008 66.8903 14.5249C67.83 13.1254 68.8264 11.7212 69.7803 10.3552C70.7247 9.013 71.6928 7.63741 72.6325 6.24749L72.2075 6.18062C71.3008 7.51322 70.3753 8.83627 69.4639 10.1307Z" fill="url(#paint30_linear_629_2007)"/>
<path d="M102.156 59.5803C103.119 58.219 104.111 56.81 105.055 55.401C113.381 43.0207 120.643 30.0672 127.802 14.8258L127.396 14.7781C120.266 29.9478 113.036 42.8487 104.739 55.1813C103.799 56.5855 102.808 57.9898 101.844 59.351C100.985 60.5738 100.106 61.8252 99.2517 63.0862H99.7192C100.522 61.9064 101.344 60.7314 102.156 59.5803Z" fill="url(#paint31_linear_629_2007)"/>
<path d="M85.8122 66.8643C70.7767 66.8643 56.7092 64.328 45.1114 59.5325C44.7572 59.3702 43.7089 58.883 44.082 58.0137C46.3959 52.6164 59.5992 44.9838 70.8475 40.5417C83.3 35.5934 92.6359 33.0858 98.6 33.0858C101.037 33.0858 102.42 33.5109 103.157 33.7307C106.387 34.7194 107.813 37.3607 107.412 41.5878C107.138 44.4154 106.113 47.391 105.145 49.9321C104.186 52.4588 102.959 55.0858 101.499 57.7366C99.757 60.9034 98.1986 63.3489 96.5931 65.4314C95.9745 66.1717 94.8411 66.549 92.9003 66.6637C90.5439 66.8022 88.1592 66.8643 85.8122 66.8643ZM98.5953 33.4775C92.6831 33.4775 83.3897 35.9755 70.9845 40.9047C59.807 45.3181 46.7028 52.8695 44.4314 58.1665C44.3228 58.4244 44.337 58.7397 45.2625 59.1743C56.7989 63.9507 70.8286 66.4774 85.8075 66.4774C88.1497 66.4774 90.525 66.4105 92.8672 66.2863C94.69 66.1812 95.7431 65.8469 96.2814 65.1973C97.8681 63.1339 99.417 60.7075 101.15 57.5599C102.6 54.9234 103.823 52.3107 104.777 49.8031C105.735 47.286 106.751 44.339 107.02 41.5591C107.407 37.5422 106.066 35.0394 103.039 34.1128C102.316 33.8931 100.975 33.4775 98.5953 33.4775Z" fill="url(#paint32_linear_629_2007)"/>
<path d="M73.8839 3.78288C73.8036 3.63958 73.6147 3.46764 73.1614 3.46764H73.0906C60.4917 4.74292 49.0072 7.89054 39.8839 12.5809C28.0783 18.6421 21.5758 26.5422 21.5758 34.834C21.5758 43.1257 28.0736 51.0354 39.8839 57.0918C40.3986 57.3545 40.9275 57.6172 41.4611 57.8751C41.6736 57.9754 41.8814 58.0232 42.0892 58.0232C42.5283 58.0232 42.9014 57.7892 43.062 57.4214C43.3689 56.7527 43.6806 56.0936 43.9875 55.4344L43.6333 55.272C43.3217 55.9312 43.0147 56.5903 42.7078 57.259C42.552 57.6172 42.0797 57.7366 41.6264 57.5217C41.0928 57.2685 40.5686 57.0106 40.0586 56.7431C28.39 50.7536 21.9631 42.9729 21.9631 34.834C21.9631 26.6951 28.39 18.9144 40.0586 12.9296C49.1442 8.25832 60.5767 5.12503 73.1614 3.8593C73.3975 3.8593 73.5156 3.92139 73.5439 3.97393C73.5722 4.03602 73.5392 4.15543 73.4494 4.29395C73.0433 4.92443 72.6231 5.55013 72.2028 6.18061L72.6278 6.24748C73.015 5.66954 73.4022 5.08682 73.7753 4.50411C74.0019 4.15543 73.9547 3.92139 73.8839 3.78288Z" fill="url(#paint33_linear_629_2007)"/>
<path d="M131.736 12.6096C131.221 12.3421 130.692 12.0842 130.159 11.8263C129.507 11.5206 128.794 11.7355 128.558 12.2848C128.171 13.1254 127.783 13.9565 127.391 14.7828L127.798 14.8306C128.166 14.0425 128.539 13.2496 128.912 12.4472C129.011 12.2132 129.242 12.0746 129.531 12.0746C129.682 12.0746 129.838 12.1128 129.993 12.1845C130.527 12.4376 131.046 12.6956 131.566 12.9583C143.23 18.9526 149.657 26.7333 149.657 34.8722C149.657 43.0111 143.23 50.787 131.566 56.7766C122.513 61.4288 111.133 64.5573 98.6614 65.8326C98.3544 65.866 97.8964 65.8421 98.1703 65.417C98.6756 64.6385 99.195 63.8647 99.7192 63.0909H99.2517C98.7747 63.7883 98.3025 64.4952 97.8492 65.2021C97.6272 65.5507 97.6697 65.7848 97.7406 65.9233C97.9294 66.2815 98.4253 66.2529 98.7606 66.2147C111.26 64.9298 122.664 61.7918 131.741 57.13C143.546 51.0688 150.044 43.164 150.044 34.877C150.039 26.5804 143.541 18.6708 131.736 12.6096Z" fill="url(#paint34_linear_629_2007)"/>
</g>
</g>
<defs>
<radialGradient id="paint0_radial_629_2007" cx="0" cy="0" r="1" gradientUnits="userSpaceOnUse" gradientTransform="translate(89.5415 12.7601) scale(63.0836 63.8068)">
<stop stop-color="#8B9394"/>
<stop offset="1" stop-color="#727A79"/>
</radialGradient>
<radialGradient id="paint1_radial_629_2007" cx="0" cy="0" r="1" gradientUnits="userSpaceOnUse" gradientTransform="translate(85.9558 0.394557) scale(78.3593 79.3551)">
<stop stop-color="#969D9D"/>
<stop offset="0.6135" stop-color="#7A8182"/>
<stop offset="1" stop-color="#4B5050"/>
</radialGradient>
<radialGradient id="paint2_radial_629_2007" cx="0" cy="0" r="1" gradientUnits="userSpaceOnUse" gradientTransform="translate(60.8293 10.0464) scale(64.6852 65.4268)">
<stop stop-color="#969D9D"/>
<stop offset="0.4601" stop-color="#828B8A"/>
<stop offset="1" stop-color="#C2C9C8"/>
</radialGradient>
<radialGradient id="paint3_radial_629_2007" cx="0" cy="0" r="1" gradientUnits="userSpaceOnUse" gradientTransform="translate(88.7365 41.2582) scale(35.9865 36.399)">
<stop stop-color="#969D9D"/>
<stop offset="0.6135" stop-color="#828B8A"/>
<stop offset="1" stop-color="#727A79"/>
</radialGradient>
<radialGradient id="paint4_radial_629_2007" cx="0" cy="0" r="1" gradientUnits="userSpaceOnUse" gradientTransform="translate(133.281 24.9749) scale(51.7902 52.3839)">
<stop stop-color="#969D9D"/>
<stop offset="0.6135" stop-color="#828B8A"/>
<stop offset="1" stop-color="#727A79"/>
</radialGradient>
<linearGradient id="paint5_linear_629_2007" x1="84.1379" y1="3.41839" x2="87.4936" y2="66.7241" gradientUnits="userSpaceOnUse">
<stop stop-color="white"/>
<stop offset="0.4" stop-color="white"/>
<stop offset="0.5706" stop-color="#A4AAAA"/>
<stop offset="0.6257" stop-color="#8F9697"/>
<stop offset="0.6626" stop-color="#878F90"/>
<stop offset="0.75" stop-color="#969D9D"/>
<stop offset="0.81" stop-color="white"/>
</linearGradient>
<linearGradient id="paint6_linear_629_2007" x1="98.2773" y1="65.6441" x2="104.483" y2="41.6612" gradientUnits="userSpaceOnUse">
<stop stop-color="white"/>
<stop offset="0.6258" stop-color="white"/>
<stop offset="0.6768" stop-color="#F1F2F2"/>
<stop offset="0.8952" stop-color="#B7BDBE"/>
<stop offset="1" stop-color="#A0A8AA"/>
</linearGradient>
<linearGradient id="paint7_linear_629_2007" x1="79.4101" y1="32.5471" x2="66.9766" y2="10.6416" gradientUnits="userSpaceOnUse">
<stop stop-color="#E5EEED"/>
<stop offset="0.2776" stop-color="#CFD7D7"/>
<stop offset="0.5521" stop-color="#B6BCBD"/>
<stop offset="1" stop-color="#A0A8AA"/>
</linearGradient>
<linearGradient id="paint8_linear_629_2007" x1="90.0705" y1="11.9812" x2="100.543" y2="26.8282" gradientUnits="userSpaceOnUse">
<stop stop-color="#E5EEED"/>
<stop offset="0.2776" stop-color="#CFD7D7"/>
<stop offset="0.5521" stop-color="#B6BCBD"/>
<stop offset="1" stop-color="#A0A8AA"/>
</linearGradient>
<linearGradient id="paint9_linear_629_2007" x1="47.7471" y1="47.0377" x2="47.7471" y2="12.9208" gradientUnits="userSpaceOnUse">
<stop stop-color="white"/>
<stop offset="0.0629" stop-color="#F6F7F7"/>
<stop offset="0.1635" stop-color="#DFE1E1"/>
<stop offset="0.2891" stop-color="#B9BCBC"/>
<stop offset="0.4336" stop-color="#858A8A"/>
<stop offset="0.5276" stop-color="#5F6666"/>
<stop offset="0.773" stop-color="#4B5050"/>
<stop offset="1" stop-color="#404444"/>
</linearGradient>
<linearGradient id="paint10_linear_629_2007" x1="104.816" y1="54.2851" x2="67.4904" y2="44.845" gradientUnits="userSpaceOnUse">
<stop stop-color="#8B9394"/>
<stop offset="0.1758" stop-color="#7A8182"/>
<stop offset="0.3399" stop-color="#646A6B"/>
<stop offset="0.5698" stop-color="#404444"/>
<stop offset="1" stop-color="#333737"/>
</linearGradient>
<linearGradient id="paint11_linear_629_2007" x1="44.2487" y1="62.2233" x2="95.7524" y2="62.2233" gradientUnits="userSpaceOnUse">
<stop stop-color="white"/>
<stop offset="0.9331" stop-color="white"/>
<stop offset="1" stop-color="white"/>
</linearGradient>
<linearGradient id="paint12_linear_629_2007" x1="130.152" y1="18.1473" x2="103.043" y2="59.6216" gradientUnits="userSpaceOnUse">
<stop stop-color="#ABB3B3"/>
<stop offset="0.3804" stop-color="#727A79"/>
<stop offset="0.4174" stop-color="#575D5C"/>
<stop offset="0.4495" stop-color="#464A4A"/>
<stop offset="0.4724" stop-color="#404444"/>
<stop offset="1" stop-color="#333737"/>
</linearGradient>
<linearGradient id="paint13_linear_629_2007" x1="121.149" y1="9.86003" x2="80.887" y2="4.49527" gradientUnits="userSpaceOnUse">
<stop stop-color="#4B5050"/>
<stop offset="0.1082" stop-color="#434747"/>
<stop offset="0.3852" stop-color="#323534"/>
<stop offset="0.6758" stop-color="#282A2A"/>
<stop offset="1" stop-color="#252726"/>
</linearGradient>
<linearGradient id="paint14_linear_629_2007" x1="133.743" y1="11.411" x2="146.71" y2="32.7181" gradientUnits="userSpaceOnUse">
<stop stop-color="#252726"/>
<stop offset="0.0676" stop-color="#2B2E2D"/>
<stop offset="0.3252" stop-color="#404444"/>
<stop offset="0.4324" stop-color="#4A4F4F"/>
<stop offset="0.6933" stop-color="#5F6666"/>
<stop offset="0.7433" stop-color="#666D6D"/>
<stop offset="0.8172" stop-color="#798181"/>
<stop offset="0.8712" stop-color="#8B9394"/>
<stop offset="1" stop-color="#A0A8AA"/>
</linearGradient>
<linearGradient id="paint15_linear_629_2007" x1="108.561" y1="65.4753" x2="148.626" y2="40.7295" gradientUnits="userSpaceOnUse">
<stop stop-color="white"/>
<stop offset="0.7669" stop-color="white"/>
<stop offset="0.8338" stop-color="#E8EBEB"/>
<stop offset="0.9018" stop-color="#CCD4D3"/>
<stop offset="0.9599" stop-color="#AFB7B8"/>
<stop offset="1" stop-color="#A0A8AA"/>
</linearGradient>
<linearGradient id="paint16_linear_629_2007" x1="123.057" y1="10.8468" x2="123.29" y2="12.8326" gradientUnits="userSpaceOnUse">
<stop stop-color="#4B5050"/>
<stop offset="0.0835" stop-color="#6D7373"/>
<stop offset="0.1678" stop-color="#888F8F"/>
<stop offset="0.2527" stop-color="#9CA3A3"/>
<stop offset="0.3378" stop-color="#A7AFAF"/>
<stop offset="0.4233" stop-color="#ABB3B3"/>
<stop offset="0.5767" stop-color="#ABB3B3"/>
<stop offset="0.919" stop-color="#A3ABAC"/>
<stop offset="1" stop-color="#A0A8AA"/>
</linearGradient>
<linearGradient id="paint17_linear_629_2007" x1="48.4048" y1="56.3382" x2="48.839" y2="60.1804" gradientUnits="userSpaceOnUse">
<stop stop-color="#333737"/>
<stop offset="0.0158" stop-color="#494E4E"/>
<stop offset="0.0411" stop-color="#676E6D"/>
<stop offset="0.0552" stop-color="#727A79"/>
<stop offset="0.2185" stop-color="#808888"/>
<stop offset="0.3988" stop-color="#8B9394"/>
<stop offset="0.4757" stop-color="#9BA3A4"/>
<stop offset="0.4969" stop-color="#A0A8AA"/>
<stop offset="0.7853" stop-color="#ABB3B3"/>
<stop offset="0.8536" stop-color="#C2C8C8"/>
<stop offset="0.9966" stop-color="#FDFEFE"/>
<stop offset="1" stop-color="white"/>
</linearGradient>
<linearGradient id="paint18_linear_629_2007" x1="130.038" y1="16.1945" x2="132.703" y2="14.5427" gradientUnits="userSpaceOnUse">
<stop stop-color="#ABB3B3"/>
<stop offset="0.4172" stop-color="#A0A8AA"/>
<stop offset="0.5215" stop-color="#A0A8AA"/>
<stop offset="0.5931" stop-color="#9BA3A5"/>
<stop offset="0.68" stop-color="#8D9496"/>
<stop offset="0.7748" stop-color="#777D7D"/>
<stop offset="0.8753" stop-color="#575B5B"/>
<stop offset="0.9792" stop-color="#2E3030"/>
<stop offset="1" stop-color="#252726"/>
</linearGradient>
<linearGradient id="paint19_linear_629_2007" x1="80.2192" y1="4.38537" x2="76.1167" y2="8.72661" gradientUnits="userSpaceOnUse">
<stop stop-color="#252726"/>
<stop offset="0.0228" stop-color="#2D302F"/>
<stop offset="0.1422" stop-color="#565B5B"/>
<stop offset="0.2495" stop-color="#73797A"/>
<stop offset="0.3399" stop-color="#858C8D"/>
<stop offset="0.4026" stop-color="#8B9394"/>
<stop offset="0.8123" stop-color="#98A0A2"/>
<stop offset="1" stop-color="#A0A8AA"/>
</linearGradient>
<linearGradient id="paint20_linear_629_2007" x1="94.4947" y1="55.0283" x2="86.0648" y2="66.4426" gradientUnits="userSpaceOnUse">
<stop stop-color="#828B8A"/>
<stop offset="0.515" stop-color="#F4FAFC"/>
<stop offset="0.8083" stop-color="#F8FCFD"/>
<stop offset="1" stop-color="white"/>
</linearGradient>
<linearGradient id="paint21_linear_629_2007" x1="46.0779" y1="53.2594" x2="62.1878" y2="15.6581" gradientUnits="userSpaceOnUse">
<stop stop-color="#697070"/>
<stop offset="0.5276" stop-color="#828B8A"/>
<stop offset="1" stop-color="#B2BCBC"/>
</linearGradient>
<linearGradient id="paint22_linear_629_2007" x1="41.9969" y1="52.2257" x2="37.325" y2="55.63" gradientUnits="userSpaceOnUse">
<stop stop-color="#697070"/>
<stop offset="0.0762" stop-color="#8B9191"/>
<stop offset="0.2002" stop-color="#BDC0C0"/>
<stop offset="0.3091" stop-color="#E1E2E2"/>
<stop offset="0.3974" stop-color="#F7F7F7"/>
<stop offset="0.454" stop-color="white"/>
<stop offset="0.6348" stop-color="white"/>
<stop offset="0.6442" stop-color="white"/>
<stop offset="0.9824" stop-color="white"/>
<stop offset="1" stop-color="white"/>
</linearGradient>
<linearGradient id="paint23_linear_629_2007" x1="66.6954" y1="5.68821" x2="68.2313" y2="8.67146" gradientUnits="userSpaceOnUse">
<stop stop-color="#404444"/>
<stop offset="0.1607" stop-color="#444848"/>
<stop offset="0.3258" stop-color="#4F5454"/>
<stop offset="0.4724" stop-color="#5F6666"/>
<stop offset="0.522" stop-color="#737B7A"/>
<stop offset="0.5706" stop-color="#828B8A"/>
<stop offset="0.7786" stop-color="#A3ACAC"/>
<stop offset="0.908" stop-color="#B2BCBC"/>
</linearGradient>
<linearGradient id="paint24_linear_629_2007" x1="83.4917" y1="3.18875" x2="88.3655" y2="69.4384" gradientUnits="userSpaceOnUse">
<stop stop-color="white"/>
<stop offset="0.0755" stop-color="#F8FAFA"/>
<stop offset="0.1828" stop-color="#E6ECED"/>
<stop offset="0.2638" stop-color="#D3DEE0"/>
<stop offset="0.2946" stop-color="#C9D4D6"/>
<stop offset="0.3474" stop-color="#AFB9BA"/>
<stop offset="0.4159" stop-color="#858D8E"/>
<stop offset="0.4969" stop-color="#4B5050"/>
<stop offset="0.6871" stop-color="#3E4344"/>
<stop offset="0.7344" stop-color="#2F3435"/>
<stop offset="0.816" stop-color="#0D1112"/>
<stop offset="1" stop-color="#0D1112"/>
</linearGradient>
<linearGradient id="paint25_linear_629_2007" x1="68.8711" y1="24.1516" x2="81.2508" y2="35.172" gradientUnits="userSpaceOnUse">
<stop offset="0.07" stop-color="#B6BCBD"/>
<stop offset="0.1214" stop-color="#C9CECE"/>
<stop offset="0.2023" stop-color="#E1E3E4"/>
<stop offset="0.2885" stop-color="#F2F3F3"/>
<stop offset="0.3827" stop-color="#FCFCFC"/>
<stop offset="0.5" stop-color="white"/>
<stop offset="0.6129" stop-color="#FCFCFC"/>
<stop offset="0.7036" stop-color="#F2F3F3"/>
<stop offset="0.7865" stop-color="#E1E4E4"/>
<stop offset="0.8644" stop-color="#C9CECE"/>
<stop offset="0.9386" stop-color="#ABB3B3"/>
</linearGradient>
<linearGradient id="paint26_linear_629_2007" x1="99.5611" y1="47.9988" x2="88.1091" y2="33.5055" gradientUnits="userSpaceOnUse">
<stop stop-color="#828B8A"/>
<stop offset="0.1227" stop-color="#7A8182"/>
<stop offset="0.1742" stop-color="#6B7272"/>
<stop offset="0.2759" stop-color="#545959"/>
<stop offset="0.3681" stop-color="#454949"/>
<stop offset="0.4417" stop-color="#404444"/>
<stop offset="0.7117" stop-color="#404444"/>
<stop offset="1" stop-color="#333737"/>
</linearGradient>
<linearGradient id="paint27_linear_629_2007" x1="101.288" y1="37.1848" x2="103.376" y2="40.0232" gradientUnits="userSpaceOnUse">
<stop stop-color="#3E4344"/>
<stop offset="0.017" stop-color="#555A5A"/>
<stop offset="0.0507" stop-color="#7D8081"/>
<stop offset="0.0877" stop-color="#A0A3A3"/>
<stop offset="0.1278" stop-color="#BEBFC0"/>
<stop offset="0.1719" stop-color="#D6D7D7"/>
<stop offset="0.2217" stop-color="#E8E9E9"/>
<stop offset="0.2804" stop-color="#F5F6F6"/>
<stop offset="0.3568" stop-color="#FDFDFD"/>
<stop offset="0.5153" stop-color="white"/>
<stop offset="0.6539" stop-color="#FDFDFD"/>
<stop offset="0.732" stop-color="#F4F5F5"/>
<stop offset="0.7951" stop-color="#E7E8E8"/>
<stop offset="0.8502" stop-color="#D3D5D5"/>
<stop offset="0.9001" stop-color="#B9BDBD"/>
<stop offset="0.9462" stop-color="#9A9F9F"/>
<stop offset="0.9885" stop-color="#757C7C"/>
<stop offset="1" stop-color="#6A7171"/>
</linearGradient>
<linearGradient id="paint28_linear_629_2007" x1="103.765" y1="61.7062" x2="105.016" y2="64.2383" gradientUnits="userSpaceOnUse">
<stop stop-color="#333737"/>
<stop offset="0.057" stop-color="#5A5F5E"/>
<stop offset="0.1393" stop-color="#8B9191"/>
<stop offset="0.2168" stop-color="#B2BAB9"/>
<stop offset="0.2872" stop-color="#CED6D5"/>
<stop offset="0.3482" stop-color="#DFE8E7"/>
<stop offset="0.3929" stop-color="#E5EEED"/>
<stop offset="0.5373" stop-color="#E9F1F0"/>
<stop offset="0.6811" stop-color="#F5F8F8"/>
<stop offset="0.7607" stop-color="white"/>
</linearGradient>
<linearGradient id="paint29_linear_629_2007" x1="94.9688" y1="27.0922" x2="98.3227" y2="1.61804" gradientUnits="userSpaceOnUse">
<stop stop-color="white"/>
<stop offset="0.248" stop-color="#F2F6F6"/>
<stop offset="0.572" stop-color="#E8F0EF"/>
<stop offset="1" stop-color="#E5EEED"/>
</linearGradient>
<linearGradient id="paint30_linear_629_2007" x1="73.6293" y1="4.53922" x2="44.6213" y2="51.0121" gradientUnits="userSpaceOnUse">
<stop stop-color="white"/>
<stop offset="0.1338" stop-color="#FCFCFC"/>
<stop offset="0.2307" stop-color="#F3F4F4"/>
<stop offset="0.316" stop-color="#E3E5E5"/>
<stop offset="0.3947" stop-color="#CDD0D0"/>
<stop offset="0.4681" stop-color="#B0B5B5"/>
<stop offset="0.5215" stop-color="#969D9D"/>
<stop offset="1" stop-color="#8B9394"/>
</linearGradient>
<linearGradient id="paint31_linear_629_2007" x1="128.217" y1="15.0801" x2="99.6094" y2="63.0464" gradientUnits="userSpaceOnUse">
<stop stop-color="#D7E0E0"/>
<stop offset="0.0435" stop-color="#C5CDCE"/>
<stop offset="0.101" stop-color="#B4BCBE"/>
<stop offset="0.1727" stop-color="#A9B1B2"/>
<stop offset="0.2732" stop-color="#A2AAAC"/>
<stop offset="0.5521" stop-color="#A0A8AA"/>
<stop offset="0.9367" stop-color="#A0A8AA"/>
<stop offset="1" stop-color="#A0A8AA"/>
</linearGradient>
<linearGradient id="paint32_linear_629_2007" x1="43.9993" y1="49.9771" x2="104.768" y2="49.9771" gradientUnits="userSpaceOnUse">
<stop stop-color="#8B9394"/>
<stop offset="0.2393" stop-color="#8B9394"/>
<stop offset="0.3579" stop-color="#858C8D"/>
<stop offset="0.5264" stop-color="#737A7B"/>
<stop offset="0.5951" stop-color="#6A7171"/>
<stop offset="1" stop-color="#A0A8AA"/>
</linearGradient>
<linearGradient id="paint33_linear_629_2007" x1="51.658" y1="8.26148" x2="34.1322" y2="50.7417" gradientUnits="userSpaceOnUse">
<stop stop-color="white"/>
<stop offset="0.2377" stop-color="#F8FAFA"/>
<stop offset="0.5752" stop-color="#E6EBEB"/>
<stop offset="0.7791" stop-color="#D7E0E0"/>
<stop offset="1" stop-color="#8B9394"/>
</linearGradient>
<linearGradient id="paint34_linear_629_2007" x1="141.148" y1="19.3172" x2="116.022" y2="66.059" gradientUnits="userSpaceOnUse">
<stop stop-color="#D7E0E0"/>
<stop offset="0.1641" stop-color="#D1DAD9"/>
<stop offset="0.2552" stop-color="#CCD4D3"/>
<stop offset="1" stop-color="#A0A8AA"/>
</linearGradient>
<clipPath id="clip0_629_2007">
<rect width="170" height="107" fill="white"/>
</clipPath>
</defs>
</svg>
