<svg width="162" height="126" viewBox="0 0 162 126" fill="none" xmlns="http://www.w3.org/2000/svg">
<g clip-path="url(#clip0_629_2085)">
<path fill-rule="evenodd" clip-rule="evenodd" d="M162 62.9974C162 97.7947 125.705 125.995 81.0034 125.995C36.2946 126 0 97.7947 0 62.9974C0 28.2 36.2946 0 80.9966 0C125.699 0 162 28.2 162 62.9974Z" fill="#9F9792"/>
<path fill-rule="evenodd" clip-rule="evenodd" d="M0.890686 62.9974C0.890686 97.2334 36.8345 125.158 80.9967 125.158C125.159 125.158 161.103 97.2387 161.103 62.9974C161.103 28.6236 125.159 0.698912 80.9967 0.698912C36.8345 0.698912 0.890686 28.6236 0.890686 62.9974Z" fill="url(#paint0_linear_629_2085)"/>
<path fill-rule="evenodd" clip-rule="evenodd" d="M139.113 25.8174C120.159 8.41871 81.361 9.11762 81.361 9.11762H81.1788C81.1788 9.11762 42.1987 8.41871 23.245 25.8174C15.3775 33.3942 12.8741 44.8998 12.8741 60.7524C14.1292 77.1715 20.0265 91.9016 32.9006 103.825C42.7317 112.943 59.8973 117.295 80.9966 117.295H81.172C81.3542 117.295 81.3542 117.295 81.3542 117.295C102.629 117.295 119.619 112.943 129.45 103.825C142.324 91.9016 148.222 77.1662 149.477 60.7524C149.483 44.8998 147.156 33.3942 139.113 25.8174Z" fill="url(#paint1_linear_629_2085)"/>
<path d="M81.1788 16.5568C59.904 16.6945 45.4172 18.9394 34.1557 23.71C26.4703 27.2152 24.6823 35.9198 24.6823 45.1751C24.8644 59.0633 32.0167 86.988 37.5564 97.2281C40.2419 102.279 42.7385 103.82 45.424 104.943H45.2485C50.9704 107.611 55.6194 108.448 59.5532 109.295C65.8081 110.417 71.1791 110.555 77.7916 110.555H81.1923H84.593C91.2056 110.555 96.5765 110.417 102.831 109.295C106.765 108.453 111.414 107.611 117.136 104.943H116.954C119.639 103.82 122.318 102.274 124.821 97.2281C130.368 86.5644 136.447 64.9564 136.805 44.4709C136.987 35.2103 135.914 27.2152 128.222 23.7048C116.94 18.9394 102.454 16.6945 81.1788 16.5568Z" fill="url(#paint2_linear_629_2085)"/>
<path d="M81.1788 18.0976C60.2617 18.2352 46.1325 20.3426 35.0464 25.1132C29.5 27.6388 26.639 34.0931 26.639 44.4762C26.639 44.6192 26.639 44.8998 26.639 45.1804C26.8212 59.3545 34.149 86.9933 39.331 96.6722C41.6589 101.305 43.98 102.565 46.3079 103.545C51.6721 106.07 56.139 107.055 60.0728 107.754C65.97 108.877 71.341 109.02 77.7714 109.02C77.7714 109.02 80.9899 109.163 81.1721 109.163C81.5297 109.163 82.2449 109.163 84.5728 109.02C91.1853 109.02 96.3741 108.877 102.271 107.754C106.205 107.055 110.679 106.07 116.036 103.545C118.357 102.56 120.685 101.3 123.013 96.6722C128.735 85.7279 134.632 64.2628 134.814 44.4762C134.814 43.9149 134.99 43.3537 134.99 42.9301C134.99 35.2156 133.742 28.0571 127.305 25.1132C116.225 20.3426 102.103 18.2405 81.1788 18.0976Z" fill="url(#paint3_radial_629_2085)"/>
<path d="M111.934 20.6232C113.182 48.9662 113.182 77.1662 111.752 105.509C111.934 105.366 112.109 105.366 112.291 105.229C113.546 77.1662 113.722 48.9609 112.291 20.7609C112.109 20.6232 111.934 20.6232 111.934 20.6232ZM95.4834 18.6588C96.1987 48.6855 96.0165 78.7123 95.3013 108.739C95.4835 108.739 95.6589 108.739 95.8411 108.739C96.5563 78.7123 96.5563 48.6855 95.8411 18.6588C95.8411 18.6588 95.6589 18.6588 95.4834 18.6588ZM98.8774 18.9394C99.5927 48.6855 99.5927 78.5693 98.6952 108.458C98.8774 108.458 99.0529 108.458 99.235 108.321C100.126 78.5746 100.126 48.8285 99.235 18.9394C99.0596 18.9394 98.8774 18.9394 98.8774 18.9394ZM105.315 19.6437C106.387 48.8285 106.387 78.0134 105.132 107.341C105.315 107.198 105.49 107.198 105.672 107.198C106.927 78.0134 106.927 48.8285 105.672 19.6437C105.672 19.6437 105.497 19.6437 105.315 19.6437ZM125.341 24.4143C126.589 46.4406 126.771 68.4722 125.699 90.4985C125.874 90.0802 126.056 89.6566 126.232 89.233C127.305 67.625 127.129 46.017 125.699 24.5519C125.523 24.4143 125.523 24.4143 125.341 24.4143ZM121.947 23.1488C123.377 48.2673 123.377 73.3804 122.129 98.4936C122.129 98.213 122.305 97.9323 122.487 97.6517C123.917 72.8139 123.735 48.1243 122.305 23.2865C122.122 23.2918 122.122 23.1488 121.947 23.1488ZM115.152 21.3274C116.583 48.9662 116.583 76.6102 115.152 104.111C115.328 104.111 115.51 103.968 115.51 103.968C116.94 76.4673 116.94 48.9662 115.685 21.4651C115.51 21.3274 115.328 21.3274 115.152 21.3274ZM108.533 20.0619C109.788 48.8232 109.788 77.7274 108.351 106.494C108.533 106.494 108.708 106.351 108.884 106.351C110.132 77.5898 110.132 48.8232 108.884 20.0619C108.891 20.0619 108.715 20.0619 108.533 20.0619ZM102.103 19.2201C102.993 48.8232 102.993 78.4317 101.921 107.897C102.103 107.897 102.103 107.897 102.278 107.897H102.454C103.526 78.294 103.526 48.8285 102.454 19.2201C102.278 19.2201 102.278 19.2201 102.103 19.2201ZM128.384 25.8174C129.639 43.9149 129.815 62.0178 129.275 80.1154C129.457 79.5541 129.632 78.8499 129.808 78.294C130.341 60.8953 129.99 43.4967 128.91 26.098C128.735 25.955 128.56 25.8174 128.384 25.8174ZM92.2649 18.5212C92.6225 48.6855 92.6225 78.8552 92.0827 109.02C92.2649 109.02 92.4403 109.02 92.6225 109.02C93.1556 78.8499 93.1556 48.6855 92.6225 18.5212C92.4403 18.5212 92.2649 18.5212 92.2649 18.5212ZM133.209 62.9974C133.209 51.7724 132.851 40.5475 132.136 29.4655C131.954 29.1849 131.954 28.9042 131.778 28.7613C132.493 40.971 132.851 53.3132 132.675 65.6606C132.851 64.8241 133.033 63.8392 133.209 62.9974ZM88.8709 18.3835C89.2285 48.5479 89.2285 78.8552 88.8709 109.163C89.0464 109.163 89.2285 109.02 89.404 109.02C89.7616 78.8499 89.7616 48.5479 89.404 18.3782C89.2218 18.3835 89.0464 18.3835 88.8709 18.3835ZM81.894 18.2405C81.894 48.5479 81.894 78.8552 81.894 109.163C82.0762 109.163 82.2517 109.163 82.4271 109.163C82.4271 78.8552 82.4271 48.5479 82.4271 18.2405C82.2517 18.2405 82.0695 18.2405 81.894 18.2405ZM85.4702 18.2405C85.6524 48.5479 85.6524 78.8552 85.4702 109.163C85.4702 109.163 85.6524 109.163 85.8278 109.163C86.01 78.8552 86.1854 48.5479 85.8278 18.2405C85.6456 18.2405 85.6456 18.2405 85.4702 18.2405ZM118.546 22.1693C119.977 48.8285 119.977 75.6254 118.546 102.428C118.546 102.285 118.728 102.147 118.904 102.004C120.334 75.4877 120.334 48.8232 118.904 22.3069C118.728 22.1693 118.546 22.1693 118.546 22.1693ZM27.894 57.5278C28.0762 58.3697 28.2517 59.2116 28.4338 60.0535C28.4338 50.3746 28.7915 40.5528 29.3245 30.8686C29.1423 31.1492 28.9669 31.5728 28.7915 31.8481C28.2517 40.4098 28.0695 48.9662 27.894 57.5278ZM35.404 25.1132C34.1557 44.8998 33.7981 64.8241 34.6887 84.743C34.8642 85.3043 34.8642 85.7226 35.0464 86.2891C34.3311 65.8036 34.5066 45.3181 35.7616 24.8325C35.5794 24.9755 35.404 24.9755 35.404 25.1132ZM65.6191 18.8018C65.6191 18.8018 65.437 18.8018 65.2615 18.8018C64.5463 48.6855 64.5463 78.7123 65.2615 108.601C65.437 108.601 65.6191 108.739 65.7946 108.739C64.9039 78.7123 64.9039 48.6855 65.6191 18.8018ZM32.1854 27.0775C31.1126 42.2312 30.9372 57.3849 31.1126 72.6762C31.2948 73.2375 31.4702 73.9417 31.6524 74.5029C31.2948 58.5074 31.6524 42.6548 32.543 26.6592C32.3609 26.7969 32.3609 26.9399 32.1854 27.0775ZM79.0331 18.2405C78.8509 18.2405 78.6755 18.2405 78.4933 18.2405C78.3179 48.5479 78.3179 78.8552 78.4933 109.163C78.6755 109.163 78.8509 109.163 79.0331 109.163C78.8509 78.8552 78.8509 48.5479 79.0331 18.2405ZM75.6324 18.2405C75.457 18.2405 75.2748 18.2405 75.0993 18.2405C74.9172 48.5479 74.9172 78.8552 75.0993 109.163C75.2748 109.163 75.457 109.163 75.6324 109.163C75.2748 78.8552 75.2748 48.5479 75.6324 18.2405ZM72.2384 18.3835C72.063 18.3835 71.8808 18.3835 71.7054 18.3835C71.3477 48.6908 71.3477 78.8552 71.8808 109.025C71.8808 109.025 72.063 109.025 72.2384 109.025C71.8808 78.8552 71.6986 48.5479 72.2384 18.3835ZM69.0199 18.5212C68.8444 18.5212 68.6623 18.5212 68.4868 18.5212C67.947 48.6855 67.947 78.8552 68.4868 108.882C68.6623 108.882 68.8444 108.882 69.0199 108.882C68.3046 78.8552 68.3046 48.6855 69.0199 18.5212ZM59.0066 19.363C58.8244 19.363 58.649 19.363 58.4668 19.363C57.394 48.8285 57.394 78.151 58.649 107.617C58.8244 107.617 59.0066 107.617 59.0066 107.617C57.9338 78.294 57.9338 48.8285 59.0066 19.363ZM52.5695 20.3426C52.3941 20.3426 52.2119 20.3426 52.0365 20.3426C50.7815 48.8232 50.7815 77.4468 52.2119 105.933C52.3941 106.076 52.3941 106.076 52.5695 106.076C51.3145 77.4521 51.3145 48.8285 52.5695 20.3426ZM55.7881 19.7813C55.6126 19.7813 55.4305 19.7813 55.255 19.7813C54.1822 48.8232 54.1822 77.8704 55.4305 106.912C55.6126 106.912 55.6126 106.912 55.7881 106.912C54.5331 77.8704 54.5331 48.8285 55.7881 19.7813ZM62.4006 19.0824C62.2252 19.0824 62.043 19.0824 61.8676 19.0824C60.9769 48.8285 60.9769 78.4369 62.043 108.178C62.043 108.178 62.2252 108.178 62.4006 108.321C61.5099 78.5746 61.5099 48.8285 62.4006 19.0824ZM41.8411 22.7305C40.4106 48.6855 40.4106 74.6459 41.8411 100.601C42.0165 100.744 42.1987 100.882 42.3741 101.025C40.9436 74.9265 40.9436 48.6908 42.3741 22.5928C42.1987 22.5876 42.0165 22.7305 41.8411 22.7305ZM48.9934 20.9038C48.9934 20.9038 48.8179 21.0415 48.6358 21.0415C47.2053 48.9662 47.2053 76.8856 48.6358 104.667C48.8179 104.81 48.9934 104.81 49.1756 104.948C47.7383 76.8909 47.7383 48.9662 48.9934 20.9038ZM38.6225 23.853C37.1921 47.2824 37.0099 70.9978 38.2649 94.4272C38.4403 94.8508 38.6225 95.2691 38.798 95.5497C37.5497 71.5537 37.7251 47.5631 38.9801 23.5724C38.9801 23.71 38.798 23.71 38.6225 23.853ZM45.5927 21.7457C45.4172 21.7457 45.4172 21.7457 45.235 21.7457C43.8046 48.9662 43.8046 76.0437 45.235 103.127C45.4105 103.264 45.5927 103.407 45.7681 103.407C44.1622 76.1867 44.1622 48.9662 45.5927 21.7457Z" fill="#992B27"/>
<path fill-rule="evenodd" clip-rule="evenodd" d="M72.9537 39.425V88.1158H65.4437L63.6556 39.425H72.9537Z" fill="#444B4A"/>
<path d="M60.7947 45.1804V39.425H42.5563L44.5265 88.1158H52.0297V66.0895H58.8244V60.0534H51.8543V45.1804H60.7947Z" fill="#444B4A"/>
<path fill-rule="evenodd" clip-rule="evenodd" d="M125.166 39.425H102.636V45.1804H109.073V88.1158H116.758L118.546 45.1804H125.166V39.425Z" fill="#444B4A"/>
<path fill-rule="evenodd" clip-rule="evenodd" d="M96.1987 39.425H90.3014V45.4557H91.0166C92.2649 48.1243 93.8775 52.7519 94.9504 60.0482H90.3014V66.2219H95.6656C96.0232 69.87 96.1987 74.0793 96.1987 78.8499C96.1987 79.5541 96.1987 84.6054 96.1987 88.2535C100.315 88.2535 103.709 88.2535 103.709 88.2535C103.884 85.7279 103.884 83.2022 103.884 80.6766V76.6049C103.526 47.9866 96.1987 39.425 96.1987 39.425ZM90.2946 39.425H77.9603L78.8509 88.1105C78.8509 88.1105 82.2517 88.1105 86.543 88.1105C86.3609 83.2023 86.1854 74.5029 86.1854 66.2219H90.2946V60.0482H86.0032C85.8211 52.7519 85.8211 46.5782 85.8211 45.4557H90.2879V39.425H90.2946Z" fill="#444B4A"/>
<path fill-rule="evenodd" clip-rule="evenodd" d="M72.596 39.0067V87.8352H64.9039L63.1158 39.0067H72.596Z" fill="url(#paint4_linear_629_2085)"/>
<path d="M60.4371 44.8998V39.0067H42.1987L43.9868 87.8352H51.4967V65.6659H58.2914V59.6299H51.4967V44.8998H60.4371Z" fill="url(#paint5_linear_629_2085)"/>
<path fill-rule="evenodd" clip-rule="evenodd" d="M124.626 39.0067H102.278V44.7568H108.715V87.8352H116.225L118.013 44.7568H124.626V39.0067Z" fill="url(#paint6_linear_629_2085)"/>
<path fill-rule="evenodd" clip-rule="evenodd" d="M95.6589 39.0067H89.937V45.0374H90.6523C91.7251 47.706 93.331 52.3337 94.4106 59.7675H89.9438V65.8036H95.1258C95.4834 69.4517 95.6589 73.661 95.6589 78.4317C95.6589 79.1306 95.6589 84.1818 95.6589 87.8299C99.9503 87.9729 103.169 87.9728 103.169 87.9728C103.351 85.3043 103.526 82.784 103.526 80.396V76.3243C103.176 47.706 95.6589 39.0067 95.6589 39.0067ZM89.937 39.0067H77.4205L78.3111 87.6922C78.3111 87.6922 81.7119 87.6922 86.0033 87.8299C86.0033 82.9163 85.8211 74.0793 85.6456 65.8036H89.937V59.7675H85.6456C85.4635 52.3337 85.288 46.2976 85.288 45.0374H89.937V39.0067Z" fill="url(#paint7_linear_629_2085)"/>
</g>
<defs>
<linearGradient id="paint0_linear_629_2085" x1="21.4834" y1="108.037" x2="113.689" y2="-5.43443" gradientUnits="userSpaceOnUse">
<stop stop-color="#C2C3C0"/>
<stop offset="0.5" stop-color="#F6F6F6"/>
<stop offset="1" stop-color="#C2C3C0"/>
</linearGradient>
<linearGradient id="paint1_linear_629_2085" x1="115.506" y1="116.003" x2="73.5912" y2="1.45519" gradientUnits="userSpaceOnUse">
<stop stop-color="#C2C3C0"/>
<stop offset="0.5" stop-color="#F6F6F6"/>
<stop offset="1" stop-color="#C2C3C0"/>
</linearGradient>
<linearGradient id="paint2_linear_629_2085" x1="80.7389" y1="110.564" x2="80.7389" y2="16.5568" gradientUnits="userSpaceOnUse">
<stop stop-color="#F6F6F6"/>
<stop offset="0.5" stop-color="#C2C3C0"/>
<stop offset="1" stop-color="#F6F6F6"/>
</linearGradient>
<radialGradient id="paint3_radial_629_2085" cx="0" cy="0" r="1" gradientUnits="userSpaceOnUse" gradientTransform="translate(81.8929 63.8723) scale(57.1084 44.8134)">
<stop stop-color="#C4483F"/>
<stop offset="0.01" stop-color="#C4483F"/>
<stop offset="0.58" stop-color="#C4483F"/>
<stop offset="1" stop-color="#992B27"/>
</radialGradient>
<linearGradient id="paint4_linear_629_2085" x1="67.8567" y1="87.2571" x2="67.8567" y2="38.4968" gradientUnits="userSpaceOnUse">
<stop stop-color="#E4E4E7"/>
<stop offset="0.5" stop-color="#F6F6F6"/>
<stop offset="1" stop-color="#E4E4E7"/>
</linearGradient>
<linearGradient id="paint5_linear_629_2085" x1="51.3171" y1="87.2571" x2="51.3171" y2="38.4968" gradientUnits="userSpaceOnUse">
<stop stop-color="#E4E4E7"/>
<stop offset="0.5" stop-color="#F6F6F6"/>
<stop offset="1" stop-color="#E4E4E7"/>
</linearGradient>
<linearGradient id="paint6_linear_629_2085" x1="113.452" y1="87.2571" x2="113.452" y2="38.4968" gradientUnits="userSpaceOnUse">
<stop stop-color="#E4E4E7"/>
<stop offset="0.5" stop-color="#F6F6F6"/>
<stop offset="1" stop-color="#E4E4E7"/>
</linearGradient>
<linearGradient id="paint7_linear_629_2085" x1="90.4761" y1="79.462" x2="90.4761" y2="49.1233" gradientUnits="userSpaceOnUse">
<stop stop-color="#E4E4E7"/>
<stop offset="0.5" stop-color="#F6F6F6"/>
<stop offset="1" stop-color="#E4E4E7"/>
</linearGradient>
<clipPath id="clip0_629_2085">
<rect width="162" height="126" fill="white"/>
</clipPath>
</defs>
</svg>
