<svg width="193" height="193" viewBox="0 0 193 193" fill="none" xmlns="http://www.w3.org/2000/svg">
<path fill-rule="evenodd" clip-rule="evenodd" d="M125.35 85.52C127.88 88.14 131.83 88.34 131.83 88.34L135.6 88.59C138.38 88.78 138.96 90.12 138.96 90.12C141.37 94.35 147.4 96.64 147.4 96.64C143.57 94.43 140.78 89.55 140.78 89.55C138.96 86.87 134.55 86.87 134.55 86.87H131.96C128.61 86.86 125.35 85.52 125.35 85.52Z" fill="black"/>
<path fill-rule="evenodd" clip-rule="evenodd" d="M153.11 98.23C151.16 97.34 148.68 97.14 148.68 97.14C151.04 97.97 151.88 98.67 151.88 98.67C153.67 99.76 152.46 101.67 152.46 101.67C150.95 104.35 145 103.01 145 103.01C151.33 107.23 153.98 104.06 153.98 104.06C155.61 102.11 155.23 101.15 154.78 99.94C154.78 99.94 160.53 101.79 166.48 96.3C166.46 96.31 160.07 101.42 153.11 98.23Z" fill="black"/>
<path fill-rule="evenodd" clip-rule="evenodd" d="M44.64 53.22C44.64 53.22 40.9 53.67 39.11 53.64C39.11 53.64 38.73 53.7 38.73 53.96C38.73 53.96 38.86 54.41 39.66 54.41C39.65 54.4 42.97 54.3 44.64 53.22Z" fill="black"/>
<path fill-rule="evenodd" clip-rule="evenodd" d="M83.61 80.61C83.61 80.61 88.66 81.04 96.97 80.65C99.02 80.55 100.04 80.87 100.04 80.87C103.77 81.42 104.35 83.17 104.35 83.17C104.35 83.17 110.96 96.78 124 96.45L130.16 96.49C135.72 96.49 143.14 101.95 143.14 101.95C141.61 100.8 138.48 97.8 138.48 97.8C134.52 94.28 128.12 94.26 128.12 94.26L121.65 94.22C109.32 94.11 106.09 82.99 106.09 82.99C104.48 79.52 100.82 79.73 100.82 79.73C100.54 79.73 100.26 79.72 99.99 79.73C87.85 80.34 83.87 79.37 83.87 79.37C81.41 78.68 78.57 77.67 75.87 76.18C75.87 76.18 76.45 73.43 75.29 71.13C75.29 71.13 79.76 72.92 83.85 71.96C83.85 71.96 77.27 70.3 72.6 66.98C72.6 66.98 74.84 73.44 72.98 75.86C72.98 75.86 71.77 80.33 60.65 76.69C60.65 76.69 56.05 74.9 52.47 74.9C52.47 74.9 49.59 75.03 49.59 76.5C49.59 76.5 49.59 77.2 50.29 77.52C50.29 77.52 51.12 78.09 50.61 79.37C50.61 79.37 51.76 78.54 51.44 77.33C51.44 77.33 51.31 76.69 51.89 76.56C51.89 76.56 53.42 75.92 57.77 77.52C57.77 77.52 64.8 80.71 68.83 80.71C68.83 80.71 73.18 80.45 74.77 78.54C74.77 78.52 78.46 80.02 83.61 80.61Z" fill="black"/>
<path fill-rule="evenodd" clip-rule="evenodd" d="M33.44 69.41C34.88 69.46 36.08 68.09 36.08 68.09C39.17 64.76 43.56 64.5 43.56 64.5C49.19 64.12 56.05 69.58 56.05 69.58C51.21 63.13 46.1 62.7 46.1 62.7C44.83 62.48 44.33 61.17 44.33 61.17C42.7 58.17 40.86 58.03 40.86 58.03C41.77 59.28 41.67 60.98 41.67 60.98C41.67 64.12 36.97 64.57 36.97 64.57C35.1 68.26 33.53 68.05 33.53 68.05C32.7 68.05 32.48 67.57 32.48 67.57C32.29 67.28 32.61 67.03 32.61 67.03C33.12 66.71 33.6 66.3 33.6 66.3C36.8 63.84 36.83 61.06 36.83 61.06C36.41 57.83 33.7 57.77 33.7 57.77C32.45 57.77 31.91 58.54 31.91 58.54C31.43 59.11 30.18 61.35 30.18 61.35C29.25 62.88 28.42 62.66 28.42 62.66C27.4 62.72 26.63 61.77 26.63 61.77C26.59 61.73 26.56 61.69 26.52 61.66C26.13 61.17 26.43 60.62 26.43 60.62C27.64 58.67 30.2 58.19 30.2 58.19C30.29 58.17 30.38 58.14 30.46 58.11C30.46 58.11 30.69 58.06 30.94 57.97L30.93 57.95C34.24 56.78 34.52 55.05 34.52 55.05C33.4 54.41 32.35 54.44 32.35 54.44C30.34 54.57 29.67 56.55 29.67 56.55L29.19 56.05C29.19 56.05 28.97 55.79 29.31 55.47C29.31 55.47 30.82 53.61 36.35 52.78C36.35 52.78 40.89 52.01 46.77 52.75C46.77 52.75 43.13 56.55 38.75 54.96C38.75 54.96 38.69 56.37 42.52 57.07C42.52 57.07 46.55 57.49 51.63 62.34C51.63 62.34 50.29 59.4 45.94 56.08C45.94 56.08 45.59 55.86 45.91 55.54C45.91 55.54 47.8 53.37 50.32 53.4C50.32 53.4 63.39 54.07 70.74 61.74C70.74 61.74 70.48 60.46 69.37 58.61C69.37 58.61 69.15 58.39 69.27 58.23C69.27 58.23 69.37 57.91 70.64 58.17C70.64 58.17 75.31 58.94 86.14 62.9L97.87 67.09C97.87 67.09 101.96 68.59 104.23 69.61C104.23 69.61 99.66 69.45 97.23 70.7C97.23 70.7 97.13 70.76 97.18 70.85C97.18 70.85 97.2 70.93 97.41 70.9C97.41 70.9 101.26 69.85 104.97 71.48C104.97 71.48 108.77 73.03 111.76 75.42C111.76 75.42 113.8 77.19 115.09 78.63C115.09 78.63 118.11 81.46 121.61 83.47C121.61 83.47 118.78 80.79 116.43 78.29C116.43 78.29 113.07 74.26 111.54 72.92C111.54 72.92 123.11 78.35 133.54 84.23C135.41 85.29 141.45 88.78 141.45 88.78C147.31 92.41 153.04 94.73 153.04 94.73C158.28 97.09 162.63 94.6 162.63 94.6L162.84 94.51C165.65 93.05 166.3 93.51 166.3 93.51C167.69 94.04 167.29 95.47 167.29 95.47C168.5 94.22 168.39 93.55 168.39 93.55C168.35 91.41 166.01 91.59 166.01 91.59C165.4 91.66 163.39 92.78 162.11 93.53L161.73 93.77C158.34 95.53 153.61 93.9 153.61 93.9C147.35 91.41 141.87 88.01 141.87 88.01C141.87 88.01 131.13 81.64 121.88 76.99C121.88 76.99 110.33 71 94.85 64.29C94.85 64.29 65.32 50.63 43.56 50.63C43.56 50.63 32.28 50.49 28.46 54.82C28.46 54.82 28.03 55.49 28.12 56.07C28.12 56.07 28.17 56.26 28.02 56.38C28.02 56.38 26.34 57.48 24.98 59.06C24.98 59.06 24.17 59.85 24.84 60.93C24.84 60.93 25.32 61.7 25.75 62.27L25.76 62.26C25.96 62.53 27.1 63.95 28.8 63.82C28.8 63.82 29.28 63.8 29.52 63.94C29.52 63.94 29.95 64.32 30.48 64.51H31.27C31.27 64.51 31.44 64.49 31.46 64.34C31.46 64.34 31.41 63.91 31.32 63.62C31.32 63.62 30.86 63.02 31.06 62.3C31.06 62.3 31.25 61.1 32 60.24C32 60.24 32.81 59.47 33.77 60.17C33.77 60.17 35.59 61.75 34.66 63.65C34.66 63.65 33.89 65.09 33.05 65.09C33.05 65.09 32.64 65.21 32.21 64.8L31.66 64.73C31.66 64.73 31.49 64.73 31.49 64.87L31.51 65.28C31.51 65.28 31.51 65.52 31.63 65.64C31.63 65.64 31.85 65.9 31.61 66.24C31.61 66.24 31.08 66.72 31.35 67.41C31.33 67.4 31.81 69.41 33.44 69.41ZM32.81 55.55C32.81 55.55 32.01 56.8 30.57 56.64C30.58 56.64 30.93 55.1 32.81 55.55ZM28.52 56.99C29.07 56.77 29.14 57.09 29.14 57.09C29.16 57.35 28.85 57.45 28.85 57.45C27.34 58.36 26.09 59.78 26.09 59.78C25.87 60.02 25.73 59.9 25.73 59.9C25.47 59.66 25.73 59.35 25.73 59.35C26.92 58.05 28.52 56.99 28.52 56.99Z" fill="black"/>
<path fill-rule="evenodd" clip-rule="evenodd" d="M58.09 63.12C55.02 67.47 57.45 70.53 57.45 70.53C49.21 70.27 46.84 72.57 46.84 72.57C42.81 75.7 44.28 79.34 44.28 79.34C46.58 82.98 49.27 80.43 49.27 80.43C45.44 81.2 45.5 77.81 45.5 77.81C46.33 71.93 54 72.19 54 72.19C60.58 72.19 70.81 74.04 70.81 74.04C63.08 72.25 60.71 70.33 60.71 70.33C57.45 68.36 58.09 63.12 58.09 63.12Z" fill="black"/>
<path fill-rule="evenodd" clip-rule="evenodd" d="M118.98 126.18C119.24 125.1 119.36 123.92 119.36 121.81V110.55H116.87V122.65C116.87 124.11 116.75 125.06 116.59 125.83C115.9 129.18 113.36 130.42 109.55 130.42C107.75 130.42 105.61 130 104.37 128.56C103.28 127.33 103.05 125.67 103.05 122.88V110.54H99.01V123.09C99.01 125.65 99.28 128.05 101.05 129.79C102.68 131.42 105.86 132.15 109.47 132.15C114.78 132.17 117.96 130.39 118.98 126.18Z" fill="black"/>
<path fill-rule="evenodd" clip-rule="evenodd" d="M147.23 131.7H152.04L141.72 110.56H139.21L128.66 131.7H131.22L134.07 125.76H144.56L147.23 131.7ZM139.45 114.57L143.9 124.33H134.77L139.45 114.57Z" fill="black"/>
<path fill-rule="evenodd" clip-rule="evenodd" d="M50.98 131.7H55.79L45.47 110.56H42.96L32.41 131.7H34.97L37.83 125.76H48.32L50.98 131.7ZM43.2 114.57L47.65 124.33H38.52L43.2 114.57Z" fill="black"/>
<path fill-rule="evenodd" clip-rule="evenodd" d="M77.8 132.17C80.4 132.17 83.77 131.67 86.14 130.6V121.98H82.1V129.7C80.8 130.2 78.9 130.44 77.54 130.44C72.16 130.44 68.67 126.76 68.67 121.38C68.67 115.44 72.63 111.84 78.37 111.84C80.89 111.84 83.48 112.85 85.44 114.31V111.8C83.27 110.7 80.49 110.16 78.08 110.16C74.11 110.16 69.9 111.36 67.12 114.37C65.35 116.31 64.18 119.01 64.18 121.65C64.19 129.76 70.82 132.17 77.8 132.17Z" fill="black"/>
<path fill-rule="evenodd" clip-rule="evenodd" d="M176.2 131.7H180.86L174.65 123.12C176.84 122.34 179.31 120.36 179.31 117.09C179.31 115.3 178.82 113.92 177.91 112.92C176.18 111.01 173.08 110.56 169.98 110.56H162.33V131.7H166.37V123.58H170.61L176.2 131.7ZM169.34 112.02C172.58 112.02 175.18 113.37 175.18 116.95C175.18 118.73 174.54 120.05 173.47 120.91C172.45 121.73 171.15 122.13 168.97 122.13H166.37V112.02H169.34Z" fill="black"/>
<path fill-rule="evenodd" clip-rule="evenodd" d="M15.34 136.04C19.01 134.24 20.52 130.46 20.52 126.55V110.55H16.48V123.85C16.48 125.72 16.48 127.59 16.25 129.46C15.85 132.83 14.68 134.87 11.91 136.87C13.1 136.88 14.27 136.54 15.34 136.04Z" fill="black"/>
</svg>
