<svg width="140" height="149" viewBox="0 0 140 149" fill="none" xmlns="http://www.w3.org/2000/svg">
<g clip-path="url(#clip0_629_2123)">
<path d="M69.9095 76.1787L46.6048 38.1788L69.9095 0L93.3863 38.1788L69.9095 76.1787Z" fill="#ED1C24"/>
<path d="M93.3863 114.204L69.9095 76.1787H116.713L140 114.204H93.3863Z" fill="#ED1C24"/>
<path d="M46.6048 114.204H0L23.309 76.1787H69.9095L46.6048 114.204Z" fill="#ED1C24"/>
<path d="M21.5911 148.517V136.586L17.2455 145.252L13.0898 136.586V148.517H9.62746V130.216H13.4475L17.2455 138.554L21.2511 130.216H25.0623V148.517H21.5911Z" fill="black"/>
<path d="M31.6425 130.216H28.1802V148.517H31.6425V130.216Z" fill="black"/>
<path d="M40.8416 133V148.517H37.3704V133H33.2147V130.216H44.9973V133H40.8416Z" fill="black"/>
<path d="M51.4053 149C46.9007 149 45.3462 146.225 45.1696 142.801H48.4685C48.4685 144.432 49.3385 146.059 51.4053 146.059C53.1542 146.059 54.1876 145.256 54.1876 143.941C54.1876 142.801 53.3264 142.306 49.6786 140.342C47.0818 138.882 45.3506 137.405 45.3506 134.797C45.3506 132.014 47.254 130.054 51.2508 130.054C55.5875 130.054 57.1509 132.671 57.3231 135.779H53.8563C53.8563 134.302 52.9863 132.833 51.2508 132.833C49.683 132.833 48.8218 133.478 48.8218 134.635C48.8218 135.933 49.864 136.59 52.633 137.896C55.7509 139.531 57.6632 140.842 57.6632 143.779C57.6543 147.215 54.7131 149 51.4053 149Z" fill="black"/>
<path d="M65.8774 148.838C62.7551 148.838 59.1161 147.694 59.1161 142.793V130.216H62.5785V142.793C62.5785 144.757 63.6163 145.892 65.8774 145.892C67.7764 145.892 68.8186 144.757 68.8186 142.793V130.216H72.2942V142.793C72.2942 147.536 68.8186 148.838 65.8774 148.838Z" fill="black"/>
<path d="M80.6145 140.505H79.2278V137.568H80.6145C82.3457 137.568 83.3879 136.923 83.3879 135.279C83.3879 133.644 82.1823 132.995 80.6145 132.995H78.0001V145.73H80.7823C82.6857 145.73 83.9046 144.915 83.9046 142.951C83.909 141.17 82.6901 140.505 80.6145 140.505ZM81.6523 148.517H74.5554V130.216H80.959C84.5935 130.216 86.8591 131.856 86.8591 134.797C86.8591 137.243 84.938 138.712 84.0768 138.882C85.2957 139.211 87.5569 140.509 87.5569 143.45C87.5569 146.392 85.1191 148.517 81.6523 148.517Z" fill="black"/>
<path d="M120.153 148.517V140.505H113.034V148.517H109.404V130.216H113.034V137.401H119.977V130.216H123.611V148.517H120.153Z" fill="black"/>
<path d="M92.927 130.216H89.4647V148.517H92.927V130.216Z" fill="black"/>
<path d="M130.377 130.216H126.915V148.517H130.377V130.216Z" fill="black"/>
<path d="M101.415 148.675C96.9105 148.675 95.3471 146.055 95.1749 142.468H98.4739C98.4739 144.095 99.3439 145.892 101.415 145.892C103.16 145.892 104.189 145.077 104.189 143.775C104.189 142.631 103.332 141.977 99.6927 140.022C97.0872 138.707 95.3516 137.239 95.3516 134.63C95.3516 131.851 97.2638 129.884 101.252 129.884C105.588 129.884 107.156 132.505 107.32 135.6H104.034C103.853 133.969 102.992 132.667 101.252 132.667C99.865 132.667 98.8272 133.32 98.8272 134.464C98.8272 135.6 99.865 136.257 102.652 137.722C105.756 139.365 107.673 140.501 107.673 143.608C107.669 146.878 104.718 148.675 101.415 148.675Z" fill="black"/>
</g>
<defs>
<clipPath id="clip0_629_2123">
<rect width="140" height="149" fill="white"/>
</clipPath>
</defs>
</svg>
