<svg width="114" height="114" viewBox="0 0 114 114" fill="none" xmlns="http://www.w3.org/2000/svg">
<g clip-path="url(#clip0_629_2121)">
<path d="M55.3005 0H59.4412C67.9636 0.41939 76.4072 2.65073 83.9378 6.68244C96.9902 13.5711 107.095 25.7821 111.488 39.8652C112.661 43.6305 113.465 47.5185 113.803 51.4483C114.139 54.523 113.94 57.6349 113.961 60.7235C113.435 69.4218 110.858 77.9973 106.467 85.5301C102.22 92.8776 96.3228 99.2657 89.3205 104.064C80.5386 110.1 70.0351 113.518 59.4018 114H54.6911C52.2975 113.833 49.8993 113.634 47.5335 113.219C35.6861 111.24 24.4944 105.42 16.1644 96.7517C6.45563 86.8207 0.516851 73.2242 0.127574 59.3194C-0.0971862 57.6256 0.0186698 55.9202 0.150746 54.2241C0.113672 52.6601 0.417214 51.1239 0.470508 49.5668L0.586364 49.4255C2.42152 34.0239 11.1849 19.7067 23.7506 10.6863C32.894 4.08963 44.037 0.354512 55.3005 0ZM51.9245 5.51463C51.3197 5.65366 50.701 5.69537 50.0847 5.75098C49.1671 5.93634 48.2333 6.03366 47.3181 6.23061C46.9404 6.32329 46.5557 6.39512 46.1757 6.46927C45.8652 6.55268 45.5501 6.61988 45.235 6.68939C44.3197 6.92805 43.3952 7.14354 42.5031 7.46793C42.3756 7.50037 42.1184 7.56061 41.9887 7.59073C41.757 7.67878 41.5252 7.76683 41.2935 7.85024C41.0595 7.91976 40.8255 7.98927 40.5914 8.05878C40.471 8.13988 40.3505 8.21866 40.2323 8.29976C40.4362 8.70061 40.6285 9.10841 40.8046 9.52317C41.0688 10.1279 41.3445 10.7304 41.6179 11.3305C41.9562 12.1206 42.32 12.9015 42.6467 13.6962C42.9642 14.3844 43.2793 15.0772 43.569 15.7793C44.1691 17.0699 44.7206 18.3837 45.3137 19.6766C48.1986 26.1876 51.1297 32.6777 54.0215 39.1863C54.3273 39.8815 54.6494 40.5696 54.946 41.2694C55.2519 41.9645 55.5693 42.655 55.8775 43.3501C56.2112 44.0707 56.4267 44.8933 57.0731 45.4123C57.6524 44.9327 57.8957 44.2121 58.1645 43.5401C58.5144 42.7871 58.8457 42.0271 59.1794 41.2671C62.3191 34.2209 65.4889 27.1839 68.6193 20.133C68.9252 19.4379 69.2403 18.7474 69.5439 18.0523C69.8497 17.3572 70.1649 16.6644 70.4684 15.9693C70.7766 15.2741 71.0871 14.5813 71.3929 13.8839C71.7266 13.1262 72.0626 12.3685 72.3962 11.6109C72.7021 10.9134 73.0195 10.2229 73.3161 9.52317C73.5108 9.09915 73.7031 8.6728 73.9209 8.25805C73.5618 8.12134 73.2142 7.96378 72.8573 7.82939C72.6187 7.75524 72.3847 7.67646 72.1506 7.59537C72.0232 7.56293 71.766 7.49805 71.6362 7.46561C70.7441 7.14817 69.8196 6.94427 68.909 6.68707C68.2138 6.55268 67.521 6.39281 66.8352 6.21671C65.9083 6.0661 64.9768 5.93866 64.0569 5.74866C63.4359 5.69537 62.8103 5.65366 62.2032 5.51232C61.047 5.40573 59.8792 5.46829 58.7322 5.27134C56.4568 5.15317 54.1929 5.42427 51.9245 5.51463ZM31.4736 12.1415C24.3716 16.296 18.317 22.1628 13.7592 29.0028C13.882 29.5635 14.1485 30.0733 14.4126 30.5761C14.7625 31.255 15.0869 31.9478 15.4206 32.6337C15.8029 33.4052 16.1852 34.1768 16.5791 34.9438C20.6179 43.1509 24.7493 51.3162 28.7718 59.5326C28.8854 59.748 28.9966 59.9635 29.1078 60.1813C29.5689 61.1105 30.03 62.0443 30.4819 62.9804C33.6494 69.3662 36.8354 75.7428 40.0029 82.1287C40.1373 82.5179 40.4733 82.6917 40.8718 82.6848C41.2287 82.0267 41.5461 81.3455 41.8404 80.6573C42.0953 80.0178 42.3826 79.3922 42.656 78.7596C42.9202 78.1572 43.1727 77.5501 43.4392 76.9477C43.7103 76.3128 43.9999 75.6872 44.2594 75.0477C44.5306 74.4499 44.7901 73.8451 45.0519 73.2404C47.0724 68.5993 49.1069 63.9628 51.1506 59.331C51.3661 58.8259 51.8735 58.4505 52.4412 58.5223C55.5322 58.5177 58.6256 58.5154 61.7189 58.5246C62.3237 58.4505 62.8265 58.8931 63.0328 59.4283C65.051 64.0323 67.0831 68.6294 69.0804 73.2427C69.3446 73.8474 69.6064 74.4522 69.8798 75.0523C70.1394 75.6895 70.4244 76.3174 70.6978 76.9477C70.9619 77.5501 71.2145 78.1595 71.4763 78.7643C72.0742 80.0502 72.5422 81.3988 73.2489 82.6315L73.8143 82.65C76.3794 77.7216 78.7938 72.7098 81.2894 67.742C86.8389 56.4856 92.4463 45.2571 98.0236 34.0146C98.4569 33.1944 98.8207 32.3417 99.2609 31.5261C99.6548 30.7313 99.9792 29.8926 100.512 29.1743C100.044 28.602 99.6502 27.981 99.2331 27.3762C94.863 21.2151 89.1838 15.9878 82.6819 12.1484C82.4386 11.9978 82.1768 11.8843 81.8988 11.8287C79.0255 18.1589 76.1662 24.5007 73.3231 30.8449C72.957 31.6952 72.5538 32.5271 72.1947 33.3774C71.9259 33.9845 71.6525 34.5893 71.3698 35.1894C71.0315 35.9818 70.67 36.765 70.3386 37.5598C69.9888 38.3128 69.6458 39.0682 69.3122 39.8282C67.3542 44.2051 65.3846 48.5751 63.4104 52.9428C63.1926 53.4085 63.0235 53.9067 62.7107 54.3191C62.3446 54.72 61.7398 54.6991 61.2439 54.7223C58.3777 54.7131 55.5114 54.7293 52.6474 54.7154C52.045 54.7293 51.3661 54.5207 51.1575 53.8928C49.035 49.2077 46.9195 44.5202 44.8202 39.8282C44.4842 39.0682 44.1436 38.3128 43.8007 37.5574C43.4624 36.765 43.0986 35.9865 42.7487 35.201C42.4104 34.441 42.0767 33.681 41.7384 32.921C38.6103 25.8585 35.3687 18.8424 32.2521 11.7754C31.9903 11.8889 31.7261 12.0024 31.4736 12.1415ZM105.341 38.9616C104.308 41.2254 103.135 43.4243 102.058 45.6672C101.743 46.2835 101.432 46.8999 101.133 47.5232C100.832 48.1418 100.524 48.7582 100.225 49.3791C100.107 49.5993 99.9885 49.8217 99.8703 50.0418C99.7614 50.2805 99.6502 50.5191 99.5367 50.7555C99.4764 50.876 99.3583 51.1146 99.298 51.2351C99.1822 51.4529 99.0686 51.6754 98.9551 51.8955C98.7767 52.3033 98.5797 52.7018 98.3874 53.1027C94.6105 60.749 90.7548 68.3583 86.9848 76.0093C86.9269 76.1251 86.8134 76.3545 86.7554 76.4704C86.5932 76.7762 86.4449 77.089 86.292 77.4018C86.1345 77.7077 85.9838 78.0182 85.8379 78.3333C85.6849 78.6392 85.5274 78.945 85.3814 79.2578C85.3258 79.3737 85.2122 79.6077 85.1543 79.7235C85.0431 79.939 84.9295 80.1545 84.8183 80.37C84.4453 81.1485 84.0514 81.9155 83.6737 82.6917C80.8445 88.4751 77.9457 94.2238 75.0609 99.9794C74.6624 100.964 73.3949 101.485 72.4704 100.878C71.5181 100.209 71.2887 98.9784 70.8021 97.9913C70.4545 97.2383 70.1162 96.4783 69.7849 95.7183C66.3532 87.97 62.8729 80.2426 59.4296 72.4989C59.1261 71.8015 58.8017 71.1133 58.5074 70.4112C58.1969 69.7138 57.8679 69.0233 57.613 68.3027C57.4137 68.0177 57.05 67.8138 56.7256 68.0478C56.2366 68.8866 55.9169 69.8111 55.516 70.6939C52.038 78.5001 48.5253 86.2901 45.0728 94.1079C44.8017 94.7057 44.5282 95.3059 44.2571 95.906C43.9281 96.6984 43.562 97.4746 43.226 98.2671C42.8993 98.9552 42.6537 99.6898 42.2366 100.336C41.7871 100.992 40.895 101.33 40.1396 101.027C39.5812 100.844 39.2475 100.318 38.9834 99.8288C36.1171 94.0477 33.2022 88.2898 30.3544 82.5017C30.2084 82.1912 30.0555 81.883 29.9049 81.5772C29.6083 80.9539 29.2978 80.3376 28.985 79.7235C28.9271 79.6077 28.8135 79.3737 28.7556 79.2555C28.6096 78.945 28.4497 78.6415 28.2945 78.3356C28.1439 78.0251 27.9909 77.7169 27.8334 77.4111C27.7198 77.1585 27.604 76.9106 27.4858 76.6627C27.2935 76.2919 27.1081 75.9212 26.9204 75.5505C26.691 75.0848 26.4663 74.619 26.2253 74.1602C22.4646 66.4954 18.5765 58.893 14.8274 51.2212C14.7718 51.1031 14.6559 50.869 14.598 50.7532C14.3362 50.2017 14.0604 49.6572 13.7916 49.1081C13.5136 48.5821 13.2587 48.0445 12.9806 47.5185C12.8741 47.2729 12.7628 47.0273 12.6539 46.784C12.5358 46.5685 12.4222 46.353 12.3087 46.1376C11.1478 43.7811 9.98924 41.4246 8.80751 39.0798C8.3603 39.7934 8.17725 40.6229 7.90151 41.4084C3.73533 54.2357 5.0028 68.6966 11.2822 80.6272C11.3054 80.6898 11.3517 80.8172 11.3772 80.8798C11.975 81.9109 12.5288 82.9674 13.1637 83.9777C18.7688 93.1371 27.2935 100.48 37.1691 104.695C37.556 104.85 37.9407 105.01 38.3299 105.16C38.6149 105.279 38.9023 105.387 39.1896 105.506C39.5186 105.617 39.85 105.737 40.1813 105.851C40.413 105.934 40.6447 106.018 40.8765 106.103C41.1082 106.178 41.3399 106.252 41.5739 106.324C42.1694 106.511 42.7742 106.669 43.3674 106.856C44.2896 107.104 45.2187 107.327 46.1479 107.549C46.5325 107.616 46.9195 107.688 47.3018 107.776C47.6888 107.85 48.0804 107.925 48.4673 108.02C50.3303 108.247 52.184 108.59 54.0701 108.599C55.9841 108.796 57.9258 108.826 59.8421 108.613C61.7977 108.576 63.7372 108.302 65.665 108.003C66.052 107.911 66.4436 107.846 66.8352 107.779C67.2175 107.686 67.6044 107.619 67.9937 107.549C68.9206 107.325 69.8497 107.104 70.7719 106.856C71.3651 106.669 71.9653 106.507 72.5584 106.319C72.7948 106.233 73.0288 106.152 73.2675 106.071C73.388 106.039 73.629 105.971 73.7518 105.939C74.4376 105.677 75.1304 105.431 75.814 105.163C76.1986 105.005 76.5856 104.845 76.9726 104.688C82.6564 102.283 87.87 98.8046 92.3536 94.569C98.6515 88.679 103.369 81.1509 106.087 72.9762C109.7 62.0026 109.551 49.7452 105.341 38.9616Z" fill="#001E50"/>
</g>
<defs>
<clipPath id="clip0_629_2121">
<rect width="114" height="114" fill="white"/>
</clipPath>
</defs>
</svg>
