<svg width="133" height="138" viewBox="0 0 133 138" fill="none" xmlns="http://www.w3.org/2000/svg">
<g clip-path="url(#clip0_629_2139)">
<path d="M60.291 129.305V134.717C60.291 134.717 65.8353 134.717 67.6964 134.717C71.794 134.717 73.3346 133.095 73.3346 130.826C73.3346 129.352 72.5995 126.958 67.7512 126.958C66.0465 126.958 55.2629 126.958 55.2629 126.958V123.901C55.2629 123.901 63.7318 123.901 68.2986 123.901C76.5954 123.901 78.5269 127.418 78.5269 130.826C78.5269 134.943 75.7431 137.782 68.2908 137.782C63.6849 137.782 55.2707 137.782 55.2707 137.782V129.313H60.291" fill="black"/>
<path d="M5.02816 129.305V134.717C5.02816 134.717 10.5724 134.717 12.4336 134.717C16.5312 134.717 18.0717 133.095 18.0717 130.826C18.0717 129.352 17.3444 126.958 12.4883 126.958C10.7992 126.958 0 126.958 0 126.958V123.901C0 123.901 8.4689 123.901 13.0357 123.901C21.3325 123.901 23.2641 127.418 23.2641 130.826C23.2641 134.943 20.488 137.782 13.0279 137.782C8.43762 137.782 0.00781985 137.782 0.00781985 137.782V129.313H5.02816" fill="black"/>
<path d="M93.4081 129.29V132.354H100.774V134.717C100.774 134.717 95.3083 134.717 93.4472 134.717C89.287 134.717 87.7309 133.095 87.7309 130.826C87.7309 128.315 89.8344 126.958 93.1735 126.958C94.8626 126.958 105.81 126.958 105.81 126.958V123.901C105.81 123.901 97.5526 123.901 92.978 123.901C86.3781 123.901 82.5463 125.983 82.5463 130.826C82.5463 135.59 86.2451 137.782 92.7747 137.782C97.3728 137.782 105.81 137.782 105.81 137.782V129.29H93.4081Z" fill="black"/>
<path d="M116.985 126.95H132.828V123.901H111.644V137.782H133V134.717H116.985V132.354H131.991V129.305H116.985V126.95Z" fill="black"/>
<path d="M45.7539 130.841C45.7539 128.463 43.4393 126.724 39.0914 126.724C34.7045 126.724 32.4289 128.463 32.4289 130.841C32.4289 133.103 34.4777 134.951 39.0914 134.951C43.7677 134.951 45.7539 133.103 45.7539 130.841ZM39.0914 138C30.5131 138 27.2365 135.185 27.2365 130.841C27.2365 126.506 30.6147 123.691 39.0914 123.691C47.576 123.691 50.9385 126.506 50.9385 130.841C50.9385 135.185 47.576 138 39.0914 138Z" fill="black"/>
<path d="M66.4609 0C83.4769 0 101.509 1.00593 108.344 1.69995C116.14 2.47194 119.769 6.4177 119.769 14.1221C119.769 28.712 119.221 51.4508 118.228 64.8944C117.337 76.8174 116.633 86.2295 101.752 95.2595C91.1403 101.669 80.5288 107.222 66.7111 114.341L66.4687 114.466L66.2185 114.341C52.4243 107.229 41.844 101.701 31.1856 95.2595C16.2887 86.2217 15.585 76.8096 14.6935 64.8866C13.6926 51.5131 13.153 28.7432 13.153 14.1143C13.153 6.4099 16.7814 2.46415 24.5778 1.69215C31.4123 1.00593 49.4449 0 66.4609 0Z" fill="#ED1C2E"/>
<path d="M33.5002 91.0642C43.8068 97.3182 53.089 102.176 66.4687 109.093C79.7546 102.223 89.0368 97.3728 99.4294 91.0642C112.066 83.4223 112.582 76.3418 113.458 64.6215C114.475 51.1388 115.03 28.1349 115.03 13.3423C115.03 8.44516 113.568 6.86998 108.54 6.37091C101.689 5.68469 83.5785 4.66316 66.4687 4.66316C49.3511 4.66316 31.2403 5.68469 24.3901 6.37091C19.3463 6.86998 17.8996 8.44516 17.8996 13.3423C17.8996 28.1349 18.4548 51.1388 19.4558 64.6215C20.3394 76.3418 20.8634 83.4223 33.5002 91.0642Z" fill="white"/>
<path d="M65.7571 34.1783L64.1462 39.5745C58.3361 27.7216 51.3999 21.5145 43.0092 21.5145C33.9225 21.5145 29.4808 27.5579 28.1749 29.4762C30.5052 23.6355 36.6595 18.5201 44.8547 18.5201C56.084 18.5201 62.4259 27.3551 65.7571 34.1783Z" fill="#ED1C2E"/>
<path d="M23.6707 46.3275C23.7332 66.0641 29.4965 75.5386 38.0905 75.5386C42.0708 75.5386 44.925 73.0432 44.925 68.9883C44.925 65.5104 43.408 62.7811 42.798 61.6582C43.0404 62.7889 43.2359 64.0834 43.2359 65.5338C43.2359 68.9259 40.9369 70.0332 39.0601 70.0332C33.3438 70.0332 27.6197 58.9524 26.0088 46.3275C25.2972 46.3275 23.6629 46.3275 23.6707 46.3275Z" fill="#ED1C2E"/>
<path d="M88.0828 18.5201C96.278 18.5201 102.424 23.6433 104.763 29.4762C103.441 27.5579 98.9993 21.5145 89.9361 21.5145C81.5454 21.5145 74.6092 27.7216 68.799 39.5823L67.1881 34.1861C70.5194 27.3551 76.8613 18.5201 88.0828 18.5201Z" fill="#ED1C2E"/>
<path d="M106.929 46.3275C105.318 58.9524 99.6014 70.0332 93.8851 70.0332C92.0005 70.0332 89.7015 68.9259 89.7015 65.5338C89.7015 64.0834 89.9126 62.7889 90.1394 61.6582C89.5216 62.7733 88.0202 65.5104 88.0202 68.9883C88.0202 73.051 90.8667 75.5386 94.8548 75.5386C103.433 75.5386 109.204 66.0641 109.275 46.3275C109.282 46.3275 107.648 46.3275 106.929 46.3275Z" fill="#ED1C2E"/>
<path d="M66.4687 89.2863C69.1118 89.2863 71.4734 89.2863 72.1225 86.0034C72.3649 84.7947 73.5066 79.0632 73.5066 79.0632C73.5066 79.0632 76.8691 73.324 77.3539 72.513C77.6746 71.9203 78.1125 70.9534 78.2689 70.236C78.4565 69.464 81.0215 58.6404 81.0215 58.6404C81.0215 58.6404 83.43 57.5799 85.424 56.6988C89.4513 54.9052 89.678 50.6944 88.247 45.6413C89.0368 43.8166 90.3349 42.14 91.9301 42.14C94.2683 42.14 95.2849 44.0817 95.2849 47.2009C95.2849 53.9383 92.8764 57.6345 92.8764 61.1826C92.8764 62.633 93.4863 63.5142 94.6593 63.5142C98.5066 63.5142 103.613 55.0378 105.435 45.0487H107.617C108.109 37.9525 104.34 29.367 95.277 29.367C87.9186 29.367 80.7556 35.1921 76.4703 48.6747L79.2385 50.593L77.9092 57.2134L72.7246 59.3657L71.7784 65.8769L74.3042 62.7889L77.0177 61.6582L76.181 65.8691L71.4969 67.803L69.8625 79.0632L71.0042 82.6503L66.4687 84.4282L61.9488 82.6425L63.0905 79.0554L61.4562 67.7952L56.7721 65.8613L55.9197 61.6504L58.6332 62.7812L61.1747 65.8691L60.2207 59.3579L55.0361 57.2056L53.7067 50.5852L56.4828 48.6669C52.1975 35.1843 45.0189 29.3592 37.676 29.3592C28.605 29.3592 24.8437 37.9447 25.3285 45.0409H27.5102C29.3323 55.03 34.4386 63.5064 38.2703 63.5064C39.4511 63.5064 40.0689 62.6252 40.0689 61.1748C40.0689 57.6267 37.6448 53.9305 37.6448 47.1931C37.6448 44.0739 38.6535 42.1322 41.0073 42.1322C42.6025 42.1322 43.9085 43.8166 44.6748 45.6335C43.2594 50.6866 43.4862 54.8974 47.5212 56.691C49.5153 57.5721 51.9238 58.6327 51.9238 58.6327C51.9238 58.6327 54.4731 69.4484 54.6608 70.2282C54.8328 70.9456 55.2707 71.9125 55.5913 72.5052C56.0683 73.3162 59.423 79.0554 59.423 79.0554C59.423 79.0554 60.5647 84.7869 60.8228 85.9956C61.4718 89.2863 63.8256 89.2863 66.4687 89.2863Z" fill="#ED1C2E"/>
<path d="M46.9113 45.6647L50.0392 50.5774L51.1965 55.6538C51.1965 55.6538 50.0627 55.1548 49.1086 54.7415C46.2466 53.5328 45.9494 50.1641 46.9113 45.6647Z" fill="white"/>
<path d="M83.8444 54.7415C82.8748 55.1548 81.7409 55.6538 81.7409 55.6538L82.8982 50.5774L86.034 45.6647C86.9958 50.1641 86.6987 53.5328 83.8444 54.7415Z" fill="white"/>
</g>
<defs>
<clipPath id="clip0_629_2139">
<rect width="133" height="138" fill="white"/>
</clipPath>
</defs>
</svg>
