<svg width="172" height="145" viewBox="0 0 172 145" fill="none" xmlns="http://www.w3.org/2000/svg">
<mask id="mask0_636_18207" style="mask-type:luminance" maskUnits="userSpaceOnUse" x="46" y="2" width="75" height="93">
<path d="M82.8791 71.3081C79.0013 63.8634 76.3936 58.729 72.7185 50.4871C72.4078 49.7845 72.1781 49.2575 72.1781 48.5955C72.1916 47.9469 72.4078 47.42 72.7185 46.7309C76.3936 38.489 79.0013 33.3546 82.8791 25.9099C83.0953 25.4775 83.2845 25.2073 83.5277 25.1938C83.7844 25.1938 83.96 25.4775 84.1897 25.9099C88.0675 33.3546 90.6752 38.489 94.3503 46.7309C94.661 47.4335 94.8772 47.9604 94.8772 48.6225C94.8772 49.2846 94.6475 49.798 94.3368 50.4871C90.6617 58.729 88.054 63.8634 84.1762 71.3081C83.96 71.7405 83.7709 72.0242 83.5141 72.0242C83.2845 72.0242 83.1088 71.7405 82.8791 71.3081ZM73.0023 2.52164C72.6375 2.56218 72.5024 2.62974 72.3672 2.69729C72.1916 2.79187 72.0024 2.88645 71.7187 3.31882C70.881 4.56186 62.2472 18.7623 56.7616 28.7473C52.8703 35.8272 49.0196 43.3396 47.3847 46.812C46.9523 47.7308 46.8848 48.3388 46.8848 48.6225C46.8848 49.1224 47.0469 49.7304 47.3847 50.433C49.0196 53.8919 52.8703 61.4043 56.7616 68.4842C62.2472 78.4692 70.854 92.6967 71.7322 93.9127C71.8673 94.1018 71.9889 94.2505 72.1105 94.3721C72.3132 94.5882 72.4889 94.7099 72.705 94.7774C72.9212 94.845 73.3536 94.8044 73.7184 94.7639C73.9075 94.7369 74.1508 94.7504 74.3399 94.7639C76.5558 94.845 79.9471 94.9125 83.5547 94.9125C88.0134 94.9125 93.2423 94.8044 94.026 94.7099L94.1476 94.6963C94.4449 94.6558 94.6205 94.6153 94.7016 94.5747C94.8772 94.4937 95.0394 94.3586 95.4042 93.8451C96.2959 92.6291 104.849 78.4827 110.334 68.4842C114.226 61.4043 118.076 53.8919 119.711 50.433C120.144 49.5143 120.211 48.7982 120.211 48.5144C120.211 48.0145 120.049 47.5281 119.711 46.8255C118.076 43.3531 114.226 35.8542 110.334 28.7608C104.835 18.7758 96.2419 4.56186 95.3636 3.33233C95.1204 3.00805 94.9313 2.77836 94.7286 2.64325C94.6205 2.56218 94.5124 2.50813 94.3908 2.4676C94.1746 2.40004 93.6882 2.44058 93.3234 2.48111C93.1343 2.49462 92.8911 2.49462 92.7019 2.48111C90.8643 2.40004 87.1757 2.33249 83.5412 2.33249C79.0824 2.31897 73.7049 2.45409 73.0023 2.52164Z" fill="white"/>
</mask>
<g mask="url(#mask0_636_18207)">
<path d="M120.225 2.31897H46.8848V94.899H120.225V2.31897Z" fill="url(#paint0_linear_636_18207)"/>
</g>
<mask id="mask1_636_18207" style="mask-type:luminance" maskUnits="userSpaceOnUse" x="46" y="2" width="75" height="93">
<path d="M120.211 2.31897H46.8711V94.899H120.211V2.31897Z" fill="white"/>
</mask>
<g mask="url(#mask1_636_18207)">
<mask id="mask2_636_18207" style="mask-type:luminance" maskUnits="userSpaceOnUse" x="46" y="2" width="75" height="93">
<path d="M83.5412 25.1936C83.7979 25.1936 83.9735 25.4774 84.2032 25.9097C88.081 33.3545 90.6887 38.4888 94.3638 46.7308C94.6745 47.4334 94.8907 47.9603 94.8907 48.6224C94.8907 49.2844 94.661 49.7979 94.3503 50.487C90.6752 58.7289 88.0675 63.8632 84.1897 71.308C83.9735 71.7404 83.7844 72.0241 83.5277 72.0241C83.2709 72.0241 83.0953 71.7404 82.8656 71.308C78.9878 63.8632 76.3801 58.7289 72.705 50.487C72.3943 49.7844 72.1646 49.2574 72.1646 48.5954C72.1781 47.9468 72.3943 47.4199 72.705 46.7308C76.3801 38.4888 78.9878 33.3545 82.8656 25.9097C83.1088 25.4774 83.2845 25.1936 83.5412 25.1936ZM73.0023 2.52152C72.6375 2.56206 72.5024 2.62961 72.3672 2.69717C72.1916 2.79175 72.0024 2.88633 71.7187 3.31869C70.881 4.56174 62.2472 18.7622 56.7616 28.7471C52.8703 35.8271 49.0196 43.3394 47.3847 46.8119C46.9523 47.7306 46.8848 48.3386 46.8848 48.6224C46.8848 49.1223 47.0469 49.7303 47.3847 50.4329C49.0196 53.8918 52.8703 61.4042 56.7616 68.4841C62.2472 78.469 70.854 92.6965 71.7322 93.9126C71.8673 94.1017 71.9889 94.2504 72.1105 94.3855C72.3132 94.6016 72.4889 94.7233 72.705 94.7773C72.9212 94.8448 73.3536 94.8043 73.7184 94.7638C73.9075 94.7368 74.1508 94.7503 74.3399 94.7638C76.5152 94.8313 79.8526 94.9124 83.4061 94.9124H83.5547C88.0134 94.9124 93.2423 94.8043 94.026 94.7097L94.1476 94.6962C94.4449 94.6557 94.6205 94.6152 94.7016 94.5746C94.8772 94.4936 95.0394 94.3584 95.4042 93.845C96.2959 92.629 104.849 78.4826 110.334 68.4841C114.226 61.4042 118.076 53.8918 119.711 50.4329C120.144 49.5141 120.211 48.798 120.211 48.5143C120.211 48.0144 120.049 47.528 119.711 46.8254C118.076 43.3529 114.226 35.8541 110.334 28.7606C104.835 18.7757 96.2419 4.56174 95.3636 3.33221C95.1204 3.00793 94.9313 2.77824 94.7286 2.64312C94.6205 2.56206 94.5124 2.50801 94.3908 2.46748C94.1746 2.39992 93.6882 2.44045 93.3234 2.48099C93.1343 2.4945 92.8911 2.4945 92.7019 2.48099C90.8643 2.39992 87.1757 2.33236 83.5412 2.33236C79.0824 2.31885 73.7049 2.45397 73.0023 2.52152Z" fill="white"/>
</mask>
<g mask="url(#mask2_636_18207)">
<path d="M120.225 2.31921H46.8848V94.8993H120.225V2.31921Z" fill="url(#paint1_radial_636_18207)"/>
</g>
</g>
<mask id="mask3_636_18207" style="mask-type:luminance" maskUnits="userSpaceOnUse" x="48" y="48" width="35" height="47">
<path d="M68.5573 48.5819C68.2465 48.8792 67.679 49.1764 66.3279 49.1764C65.1254 49.1764 54.8702 49.1629 49.9791 49.1629C49.263 49.1629 48.3037 49.1089 48.3037 50.2438C48.3037 50.9059 48.8847 52.257 50.0602 54.5675C56.5457 67.2547 63.7472 79.9148 71.4757 92.3048C71.4757 92.3048 72.6512 94.2099 72.7728 94.3585C72.8944 94.5071 73.0296 94.5747 73.3268 94.5747C73.3268 94.5747 78.2314 85.6031 82.1768 75.8209C77.7721 67.7006 73.7186 59.6748 69.9084 51.6085C69.9084 51.6085 68.8275 49.5953 68.787 48.7846C68.787 48.6765 68.7735 48.6495 68.787 48.5414C68.8005 48.4603 68.787 48.4198 68.76 48.4198C68.7329 48.4198 68.6519 48.4874 68.5573 48.5819Z" fill="white"/>
</mask>
<g mask="url(#mask3_636_18207)">
<path d="M82.1768 48.4198H48.3037V94.5747H82.1768V48.4198Z" fill="url(#paint2_linear_636_18207)"/>
</g>
<mask id="mask4_636_18207" style="mask-type:luminance" maskUnits="userSpaceOnUse" x="73" y="48" width="47" height="47">
<path d="M119.306 48.7305C119.13 48.9061 118.63 49.1764 117.536 49.1764H104.065C97.8902 49.1764 98.5117 49.0142 96.9173 52.2705C96.2012 53.7297 95.4716 55.4321 94.715 56.8373C89.3239 68.1058 76.1638 90.805 74.3938 93.6153C73.7183 94.6692 73.6237 94.7233 74.1101 94.7233C74.1101 94.7233 78.5689 94.8854 83.5411 94.8854C91.2966 94.8854 94.0799 94.6692 94.0799 94.6692C98.5792 87.6703 109.307 69.9163 116.968 54.5269C118.738 50.9869 119.616 49.4466 119.535 48.69C119.522 48.6359 119.508 48.6089 119.468 48.6089C119.414 48.6224 119.346 48.6764 119.306 48.7305Z" fill="white"/>
</mask>
<g mask="url(#mask4_636_18207)">
<path d="M119.617 48.6224H73.624V94.8854H119.617V48.6224Z" fill="url(#paint3_linear_636_18207)"/>
</g>
<mask id="mask5_636_18207" style="mask-type:luminance" maskUnits="userSpaceOnUse" x="69" y="2" width="25" height="47">
<path d="M93.6878 2.65674C93.3771 2.65674 93.1339 2.91345 92.688 3.60254C88.8778 9.4935 75.7312 34.2599 70.3672 45.8121C69.7051 47.2308 69.3809 47.9199 69.3809 48.609H72.1777C72.1912 47.9604 72.4074 47.4335 72.7182 46.7444C76.3933 38.5025 79.001 33.3681 82.8787 25.9233C83.0949 25.491 83.2841 25.2208 83.5273 25.2072L84.6217 22.0456C88.4049 12.6011 93.7149 2.67025 93.7149 2.67025C93.7149 2.65674 93.7014 2.65674 93.6878 2.65674Z" fill="white"/>
</mask>
<g mask="url(#mask5_636_18207)">
<path d="M93.7285 2.65674H69.3945V48.5955H93.7285V2.65674Z" fill="url(#paint4_linear_636_18207)"/>
</g>
<mask id="mask6_636_18207" style="mask-type:luminance" maskUnits="userSpaceOnUse" x="83" y="22" width="15" height="27">
<path d="M83.541 25.1936C83.7977 25.1936 83.9869 25.4774 84.2166 25.9098C88.0944 33.3545 90.702 38.4889 94.3771 46.7308C94.6879 47.4334 94.9041 47.9603 94.9041 48.6224H97.6874C97.6874 47.9333 97.3632 47.2578 96.7146 45.8661C92.999 37.9889 89.1212 30.301 84.6354 22.032L83.541 25.1936Z" fill="white"/>
</mask>
<g mask="url(#mask6_636_18207)">
<path d="M97.6874 22.032H83.541V48.6359H97.6874V22.032Z" fill="url(#paint5_linear_636_18207)"/>
</g>
<mask id="mask7_636_18207" style="mask-type:luminance" maskUnits="userSpaceOnUse" x="69" y="48" width="15" height="28">
<path d="M70.3672 51.3788C74.0828 59.2559 77.9336 66.9169 82.4329 75.1994L83.5408 72.0242C83.2841 72.0242 83.1084 71.7405 82.8787 71.3081C79.001 63.8633 76.3933 58.729 72.7182 50.4871C72.4074 49.7845 72.1777 49.2575 72.1777 48.5955H69.3809C69.3809 49.2845 69.7051 49.9736 70.3672 51.3788Z" fill="white"/>
</mask>
<g mask="url(#mask7_636_18207)">
<path d="M83.5408 48.5955H69.3809V75.1994H83.5408V48.5955Z" fill="url(#paint6_linear_636_18207)"/>
</g>
<mask id="mask8_636_18207" style="mask-type:luminance" maskUnits="userSpaceOnUse" x="69" y="48" width="15" height="28">
<path d="M70.3672 51.3788C74.0828 59.2559 77.9336 66.9169 82.4329 75.1994L83.5408 72.0242C83.2841 72.0242 83.1084 71.7405 82.8787 71.3081C79.001 63.8633 76.3933 58.729 72.7182 50.4871C72.4074 49.7845 72.1777 49.2575 72.1777 48.5955H69.3809C69.3809 49.2845 69.7051 49.9736 70.3672 51.3788Z" fill="white"/>
</mask>
<g mask="url(#mask8_636_18207)">
<path d="M81.149 80.5094L59.4092 70.7001L71.7721 43.2855L93.5119 53.0813L81.149 80.5094Z" fill="url(#paint7_linear_636_18207)"/>
</g>
<mask id="mask9_636_18207" style="mask-type:luminance" maskUnits="userSpaceOnUse" x="73" y="48" width="25" height="47">
<path d="M94.9039 48.6224C94.9039 49.2845 94.6742 49.7979 94.3634 50.487C90.6883 58.729 88.0806 63.8633 84.2028 71.3081C83.9867 71.7404 83.7975 72.0242 83.5408 72.0242L82.4328 75.1993C78.4335 85.2113 73.3262 94.5747 73.3262 94.5747C73.6369 94.5882 74.0017 94.2099 74.4341 93.5613C74.5422 93.3857 74.6908 93.129 74.88 92.8317C77.7444 87.9541 91.5801 62.4311 96.6874 51.4328C97.3494 50.0141 97.6872 49.3115 97.6872 48.6224H94.9039Z" fill="white"/>
</mask>
<g mask="url(#mask9_636_18207)">
<path d="M97.6872 48.6224H73.3262V94.5882H97.6872V48.6224Z" fill="url(#paint8_linear_636_18207)"/>
</g>
<mask id="mask10_636_18207" style="mask-type:luminance" maskUnits="userSpaceOnUse" x="45" y="48" width="28" height="49">
<path d="M45.0742 48.6089C45.0742 49.2304 45.2093 50.0141 45.7498 51.1896C47.0199 53.9594 50.6004 61.0123 55.1807 69.3489C60.18 78.4555 69.2596 93.5883 70.2865 94.9665C70.7053 95.5339 71.0566 95.8852 71.3944 96.1014L72.124 94.372C72.0024 94.2504 71.8808 94.1017 71.7457 93.9126C70.8539 92.6966 62.2607 78.4691 56.7751 68.4841C52.8703 61.4042 49.0331 53.8918 47.3982 50.4329C47.0604 49.7303 46.8983 49.1223 46.8983 48.6224L45.0742 48.6089Z" fill="white"/>
</mask>
<g mask="url(#mask10_636_18207)">
<path d="M72.124 48.6089H45.0742V96.1014H72.124V48.6089Z" fill="url(#paint9_linear_636_18207)"/>
</g>
<mask id="mask11_636_18207" style="mask-type:luminance" maskUnits="userSpaceOnUse" x="71" y="94" width="25" height="3">
<path d="M71.3809 96.1014C71.8673 96.4122 72.3131 96.4527 72.8671 96.4933C74.2182 96.6149 80.1362 96.7095 83.5411 96.7095C86.946 96.7095 93.3369 96.5743 94.2151 96.4933C94.634 96.4527 95.0123 96.4122 95.4041 96.2366L94.688 94.5476C94.6069 94.5882 94.4313 94.6422 94.134 94.6692L94.0124 94.6828C93.2288 94.7773 88.0134 94.8854 83.5411 94.8854C79.9471 94.8854 76.5422 94.8044 74.3263 94.7368C74.1372 94.7368 73.894 94.7233 73.7048 94.7368C73.34 94.7773 72.9076 94.8179 72.6915 94.7503C72.4888 94.6827 72.2996 94.5612 72.097 94.345L71.3809 96.1014Z" fill="white"/>
</mask>
<g mask="url(#mask11_636_18207)">
<path d="M77.3931 83.9547L96.4307 94.953L89.4047 107.113L70.3672 96.1285L77.3931 83.9547Z" fill="url(#paint10_linear_636_18207)"/>
</g>
<mask id="mask12_636_18207" style="mask-type:luminance" maskUnits="userSpaceOnUse" x="94" y="0" width="29" height="49">
<path d="M94.7285 2.62971C94.9312 2.77834 95.1203 2.99452 95.3636 3.31879C96.2553 4.53482 104.849 18.7623 110.334 28.7472C114.225 35.8272 118.076 43.3395 119.711 46.812C120.049 47.5145 120.211 48.001 120.211 48.5009L122.022 48.6225C122.022 48.1226 121.913 47.2173 121.346 46.0418C119.981 43.1909 115.604 34.5841 111.915 27.8825C106.983 18.9244 97.8767 3.6836 96.8093 2.2649C96.2553 1.52178 95.8365 1.17048 95.4176 0.981323L94.7285 2.62971Z" fill="white"/>
</mask>
<g mask="url(#mask12_636_18207)">
<path d="M101.025 -10.5304L142.086 11.9526L115.725 60.1071L74.6641 37.6242L101.025 -10.5304Z" fill="url(#paint11_linear_636_18207)"/>
</g>
<mask id="mask13_636_18207" style="mask-type:luminance" maskUnits="userSpaceOnUse" x="71" y="0" width="25" height="3">
<path d="M72.7593 0.724567C72.2864 0.765101 71.9486 0.84617 71.6514 0.967772L72.3675 2.68372C72.5026 2.61616 72.6377 2.5486 73.0025 2.50807C73.7051 2.44051 79.0826 2.3054 83.5414 2.3054C87.176 2.3054 90.8646 2.38647 92.7021 2.45402C92.8913 2.46754 93.1345 2.46754 93.3236 2.45402C93.6884 2.41349 94.1749 2.37296 94.391 2.44051C94.5126 2.48105 94.6207 2.53509 94.7288 2.61616L95.4179 0.954261C95.0126 0.765101 94.6207 0.751589 94.1613 0.711055C92.7562 0.575941 86.7031 0.494873 83.5414 0.494873C80.758 0.494873 74.2861 0.575941 72.7593 0.724567Z" fill="white"/>
</mask>
<g mask="url(#mask13_636_18207)">
<path d="M93.6208 8.99358L71.0703 2.52162L73.4618 -5.80139L95.9988 0.670564L93.6208 8.99358Z" fill="url(#paint12_linear_636_18207)"/>
</g>
<mask id="mask14_636_18207" style="mask-type:luminance" maskUnits="userSpaceOnUse" x="45" y="0" width="28" height="49">
<path d="M70.2189 2.31891C69.1785 3.68356 60.0719 19.046 55.1807 27.8689C51.7353 34.0842 46.2632 44.8393 45.7498 46.0283C45.2364 47.2173 45.0742 48.0009 45.0742 48.6089H46.8847C46.8847 48.3252 46.9523 47.7172 47.3847 46.7984C49.0195 43.326 52.8703 35.8272 56.7616 28.7337C62.2472 18.7488 70.881 4.5618 71.7187 3.30524C72.0024 2.87288 72.1916 2.7783 72.3672 2.68372L71.6511 0.967773C71.0836 1.22449 70.7459 1.62983 70.2189 2.31891Z" fill="white"/>
</mask>
<g mask="url(#mask14_636_18207)">
<path d="M29.1309 7.08838L68.8679 -8.15247L88.3108 42.4882L48.5738 57.7426L29.1309 7.08838Z" fill="url(#paint13_linear_636_18207)"/>
</g>
<mask id="mask15_636_18207" style="mask-type:luminance" maskUnits="userSpaceOnUse" x="94" y="48" width="29" height="49">
<path d="M94.6885 94.5611C94.702 94.5476 94.702 94.5476 94.6885 94.5611C94.702 94.5476 94.702 94.5476 94.6885 94.5611ZM119.712 50.4194C118.077 53.8919 114.226 61.3907 110.335 68.4707C104.836 78.4556 96.2828 92.602 95.4046 93.8315C95.0398 94.345 94.8911 94.4801 94.702 94.5611L95.4181 96.2501C95.8505 96.0609 96.3098 95.6961 96.8233 94.9665C97.8096 93.6018 107.592 77.2666 111.929 69.3489C116.266 61.4312 120.86 52.311 121.36 51.1896C121.981 49.7844 122.036 49.1088 122.036 48.6089L120.225 48.4873C120.211 48.771 120.144 49.5007 119.712 50.4194Z" fill="white"/>
</mask>
<g mask="url(#mask15_636_18207)">
<path d="M122.022 48.4873H94.6885V96.2366H122.022V48.4873Z" fill="url(#paint14_linear_636_18207)"/>
</g>
<mask id="mask16_636_18207" style="mask-type:luminance" maskUnits="userSpaceOnUse" x="70" y="22" width="53" height="54">
<path d="M83.7847 26.2205C84.1225 26.8691 86.8383 32.0439 89.3109 37.1242C91.6348 41.8802 93.6615 46.4471 93.8912 46.947C94.1885 47.6226 94.3776 48.082 94.3776 48.6224C94.3776 49.1494 94.202 49.5682 93.9047 50.2438L93.8912 50.2708C93.8777 50.3113 91.7564 55.0944 89.2974 60.1206C87.1085 64.6199 84.717 69.2138 83.7847 70.9838L83.7442 71.0648C83.6631 71.2405 83.582 71.3621 83.5415 71.3621C83.501 71.3621 83.4334 71.2405 83.3388 71.0648C83.3253 71.0378 83.2848 70.9567 83.2037 70.8081C80.6095 65.8494 78.826 62.2554 77.7857 60.1206C75.4347 55.3106 73.3539 50.6221 73.2053 50.2708L73.1783 50.2168C72.908 49.5952 72.7054 49.1088 72.7054 48.5819C72.7054 48.0549 72.9486 47.4739 73.1918 46.9335C73.2053 46.893 73.2458 46.7984 73.3134 46.6633C74.7996 43.2989 76.2994 40.0832 77.7586 37.1107C79.8799 32.8006 82.2714 28.1797 83.0686 26.6529C75.759 31.3819 70.9219 39.6238 70.9219 49.0007C70.9219 63.6741 82.7714 75.5641 97.3907 75.5641C102.106 75.5641 106.524 74.3211 110.348 72.1593C110.929 71.1459 111.456 70.1866 111.929 69.3354C116.144 61.6339 120.819 52.3921 121.36 51.1761C121.954 49.8519 122.035 49.1494 122.035 48.5819C122.035 48.136 121.954 47.2172 121.36 45.9877C119.955 43.0692 115.618 34.5165 111.929 27.8284C111.645 27.315 111.348 26.7745 111.037 26.2205C107.051 23.8155 102.39 22.4238 97.3907 22.4238C92.4185 22.4509 87.7706 23.829 83.7847 26.2205Z" fill="white"/>
</mask>
<g mask="url(#mask16_636_18207)">
<mask id="mask17_636_18207" style="mask-type:luminance" maskUnits="userSpaceOnUse" x="71" y="22" width="54" height="54">
<path d="M124.143 22.4508H71.0166V75.5776H124.143V22.4508Z" fill="white"/>
</mask>
<g mask="url(#mask17_636_18207)">
<mask id="mask18_636_18207" style="mask-type:luminance" maskUnits="userSpaceOnUse" x="71" y="22" width="54" height="54">
<path d="M71.0029 49.0142C71.0029 63.6876 82.893 75.5776 97.5663 75.5776C112.24 75.5776 124.13 63.6876 124.13 49.0142C124.13 34.3408 112.24 22.4508 97.5663 22.4508C82.9065 22.4508 71.0029 34.3408 71.0029 49.0142Z" fill="white"/>
</mask>
<g mask="url(#mask18_636_18207)">
<path d="M124.13 22.4508H71.0029V75.5776H124.13V22.4508Z" fill="url(#paint15_radial_636_18207)"/>
</g>
</g>
</g>
<path d="M94.3636 46.7309C94.215 46.3931 92.1477 41.7317 89.7832 36.8946C87.2161 31.6251 84.3246 26.1395 84.203 25.9098C83.9733 25.4775 83.7977 25.1937 83.541 25.1937C83.2843 25.1937 83.1221 25.4504 82.8789 25.9098C82.7573 26.1395 79.8118 31.7873 77.2987 36.8946C74.7856 41.9884 72.8535 46.4607 72.7319 46.7309C72.4751 47.2984 72.1914 47.9469 72.1914 48.5954C72.1914 49.2305 72.4346 49.798 72.7319 50.487C72.867 50.8113 74.9612 55.5133 77.3257 60.3639C79.9064 65.6333 82.7843 71.1054 82.8924 71.3216C83.1086 71.754 83.2978 72.0377 83.5545 72.0377C83.8112 72.0377 83.9869 71.754 84.2165 71.3216C84.3381 71.0919 87.2026 65.6468 89.7697 60.3639C92.1342 55.5268 94.215 50.8383 94.3771 50.487C94.7014 49.7574 94.9176 49.271 94.9176 48.6225C94.8905 47.9739 94.6879 47.447 94.3636 46.7309ZM93.9042 50.2303L93.8907 50.2709C93.8772 50.3114 91.7559 55.0944 89.2968 60.1207C87.108 64.62 84.7165 69.2138 83.7842 70.9838L83.7436 71.0649C83.6491 71.2405 83.5815 71.3621 83.541 71.3621C83.5004 71.3621 83.4329 71.2405 83.3383 71.0649C83.3248 71.0379 83.2843 70.9568 83.2032 70.8082C80.609 65.8495 78.8255 62.269 77.7851 60.1207C75.4341 55.3106 73.3534 50.6222 73.2048 50.2709L73.1912 50.2303C72.921 49.6088 72.7183 49.1089 72.7183 48.5954C72.7183 48.0685 72.9616 47.4875 73.2048 46.9471C73.2183 46.92 73.2588 46.8255 73.3264 46.6768C74.8126 43.3125 76.3124 40.0968 77.7716 37.1243C80.3523 31.8819 83.3248 26.1936 83.3518 26.153C83.4329 25.9909 83.514 25.8423 83.5545 25.8423C83.6085 25.8423 83.6761 25.9909 83.7707 26.153C83.7977 26.1936 86.7026 31.7197 89.3374 37.1243C91.6613 41.8803 93.688 46.4471 93.9177 46.9471C94.215 47.6226 94.4041 48.082 94.4041 48.6225C94.3771 49.1494 94.2015 49.5548 93.9042 50.2303Z" fill="black"/>
<path d="M121.36 46.0147C119.968 43.0963 115.617 34.5436 111.929 27.8554C106.875 18.6947 97.8497 3.616 96.8228 2.23784C95.8095 0.873192 95.242 0.819146 94.3097 0.724567L94.1746 0.711055C92.81 0.56243 87.0271 0.494873 83.5547 0.494873C80.5686 0.494873 74.2453 0.575941 72.7726 0.724567C71.3809 0.859681 71.0026 1.29205 70.2189 2.31891C69.1245 3.73761 59.9503 19.2487 55.1807 27.8689C51.7218 34.0977 46.2497 44.8663 45.7498 46.0283C45.2904 47.0686 45.0742 47.8928 45.0742 48.6224C45.0742 49.3926 45.2904 50.2168 45.7498 51.2166C46.8983 53.7027 50.3572 60.5935 55.1807 69.3759C60.2205 78.5367 69.3136 93.6694 70.273 94.9935C71.2998 96.3852 71.9619 96.4393 72.8807 96.5338C74.2858 96.6554 80.3254 96.75 83.5547 96.75C87.0406 96.75 93.3504 96.6149 94.2286 96.5338C95.0934 96.4528 95.8365 96.3852 96.8363 94.9935C97.7551 93.7235 107.537 77.4152 111.942 69.3759C116.158 61.6744 120.833 52.4327 121.373 51.2166C121.968 49.8925 122.049 49.1899 122.049 48.6224C122.035 48.1631 121.941 47.2443 121.36 46.0147ZM120.873 50.9869C120.333 52.1894 115.671 61.4177 111.456 69.1057C107.064 77.1315 97.2957 93.3992 96.3905 94.6693C95.5393 95.8583 94.9853 95.9123 94.1611 95.9799C93.2964 96.0609 87.0136 96.196 83.5411 96.196C80.3119 96.196 74.2994 96.1015 72.9077 95.9799C72.0429 95.8988 71.5565 95.8583 70.6783 94.6557C69.719 93.3451 60.6393 78.2394 55.6131 69.0922C50.7895 60.3233 47.3441 53.446 46.1957 50.9599C45.7633 50.0276 45.5741 49.2845 45.5741 48.5954C45.5741 47.9469 45.7768 47.1902 46.1957 46.2174C46.7091 45.0689 52.1542 34.3274 55.6131 28.0986C60.3826 19.4919 69.5298 4.02135 70.6107 2.61616C71.3674 1.62983 71.6376 1.33258 72.7996 1.22449C74.2588 1.07586 80.5551 1.00831 83.5276 1.00831C86.9865 1.00831 92.7559 1.07586 94.0935 1.22449L94.2286 1.238C95.1069 1.33258 95.4987 1.37311 96.377 2.5486C97.4173 3.92677 106.416 18.9649 111.469 28.1122C115.144 34.7868 119.495 43.3395 120.887 46.2444C121.427 47.3794 121.508 48.2171 121.508 48.6089C121.508 49.1089 121.427 49.7439 120.873 50.9869Z" fill="black"/>
<path d="M172 123.327V127.245H163.839V144.486H158.326V127.245H150.179V123.327H172Z" fill="black"/>
<path d="M152.517 140.567V144.486H135.033V123.327H140.532V140.567H152.517Z" fill="black"/>
<path d="M46.5737 140.567V144.486H28.1982V123.327H46.2359V127.245H33.7109V131.893H45.155V135.69H33.7109V140.567H46.5737Z" fill="black"/>
<path d="M18.3485 136.622C20.6994 135.339 22.1587 132.825 22.1587 130.191C22.1587 127.988 21.5236 126.286 20.1725 125.164C18.6052 123.867 16.4704 123.327 12.8493 123.327H0.229694L0 124.61C0 124.61 0.229694 124.989 0.48641 125.448C0.87824 126.124 0.851218 126.326 0.851218 126.772V144.499H6.35035V137.73H13.1871L16.8487 144.499H22.9153L18.3485 136.622ZM15.5651 133.19C15.1463 133.609 14.6463 133.798 13.8627 133.798H6.35035V127.353H12.2819C14.0518 127.353 14.9841 127.556 15.6192 128.069C16.2407 128.569 16.5379 129.326 16.5379 130.447C16.5515 131.609 16.2407 132.542 15.5651 133.19Z" fill="black"/>
<path d="M69.6243 123.327V137.365C68.3407 135.744 66.9896 134.19 64.7197 131.69C62.8686 129.65 59.0044 125.475 57.0182 123.34H51.7082L51.4785 124.61C51.4785 124.61 51.7082 124.989 51.9649 125.448C52.2622 125.948 52.3162 126.191 52.3297 126.462V144.486L57.2749 144.472V130.461C58.2612 131.785 60.0177 133.798 61.1932 135.068C63.5307 137.595 67.0572 141.527 69.8 144.486H74.556V123.327H69.6243Z" fill="black"/>
<path d="M123.508 123.327V136.271C123.508 137.717 123.224 138.568 122.521 139.23C121.63 140.054 120.157 140.459 118.036 140.459C115.874 140.459 114.374 140.068 113.482 139.23C112.78 138.568 112.496 137.703 112.496 136.271V123.327H106.375L106.146 124.597C106.146 124.597 106.375 124.975 106.632 125.435C106.916 125.921 106.97 126.151 106.983 126.421V136.46C106.983 141.986 110.726 144.81 117.954 144.81H118.103C125.332 144.81 128.885 142.067 128.885 136.46V123.327H123.508Z" fill="black"/>
<path d="M94.7281 123.327H87.8508C85.7701 127.637 82.1355 135.582 78.7441 144.486H84.2703C84.7027 143.283 85.1756 142.054 85.6485 140.824H96.944C97.4169 142.054 97.8898 143.283 98.3221 144.486H103.848C100.443 135.582 96.8224 127.637 94.7281 123.327ZM87.2293 136.838C88.675 133.231 90.1207 129.826 91.2962 127.178C92.4717 129.826 93.9174 133.231 95.3632 136.838H87.2293Z" fill="black"/>
<defs>
<linearGradient id="paint0_linear_636_18207" x1="83.5453" y1="94.8976" x2="83.5453" y2="2.31584" gradientUnits="userSpaceOnUse">
<stop stop-color="#E5E5E8"/>
<stop offset="0.6866" stop-color="white"/>
<stop offset="0.9733" stop-color="#A9ACB2"/>
<stop offset="1" stop-color="#A2A5AC"/>
</linearGradient>
<radialGradient id="paint1_radial_636_18207" cx="0" cy="0" r="1" gradientUnits="userSpaceOnUse" gradientTransform="translate(78.7595 26.193) scale(46.1626 46.3342)">
<stop stop-color="white"/>
<stop offset="0.401" stop-color="white"/>
<stop offset="0.949" stop-color="#A9ACB2"/>
<stop offset="1" stop-color="#A2A5AC"/>
</radialGradient>
<linearGradient id="paint2_linear_636_18207" x1="65.2417" y1="94.4432" x2="65.2417" y2="48.8394" gradientUnits="userSpaceOnUse">
<stop stop-color="#E5E5E8"/>
<stop offset="0.0104" stop-color="#E5E5E8"/>
<stop offset="0.3385" stop-color="#B1B5BB"/>
<stop offset="0.5508" stop-color="#77797E"/>
<stop offset="0.6941" stop-color="#55585E"/>
<stop offset="0.8452" stop-color="#3C3E42"/>
<stop offset="0.8758" stop-color="#37383D"/>
<stop offset="0.9296" stop-color="#2A2B2E"/>
<stop offset="0.948" stop-color="#242529"/>
<stop offset="0.9568" stop-color="#26272B"/>
<stop offset="0.9649" stop-color="#2C2D31"/>
<stop offset="0.9728" stop-color="#36373B"/>
<stop offset="0.9806" stop-color="#444649"/>
<stop offset="0.9882" stop-color="#58595D"/>
<stop offset="0.9956" stop-color="#707377"/>
<stop offset="1" stop-color="#81858B"/>
</linearGradient>
<linearGradient id="paint3_linear_636_18207" x1="96.6218" y1="94.4425" x2="96.6218" y2="48.7958" gradientUnits="userSpaceOnUse">
<stop stop-color="#E5E5E8"/>
<stop offset="0.0104" stop-color="#E5E5E8"/>
<stop offset="0.3385" stop-color="#B1B5BB"/>
<stop offset="0.5508" stop-color="#77797E"/>
<stop offset="0.6941" stop-color="#55585E"/>
<stop offset="0.8452" stop-color="#3C3E42"/>
<stop offset="0.8776" stop-color="#37383D"/>
<stop offset="0.9343" stop-color="#2A2B2E"/>
<stop offset="0.9538" stop-color="#242529"/>
<stop offset="0.9616" stop-color="#26272B"/>
<stop offset="0.9688" stop-color="#2C2D31"/>
<stop offset="0.9758" stop-color="#36373B"/>
<stop offset="0.9827" stop-color="#444649"/>
<stop offset="0.9895" stop-color="#58595D"/>
<stop offset="0.9961" stop-color="#707377"/>
<stop offset="1" stop-color="#81858B"/>
</linearGradient>
<linearGradient id="paint4_linear_636_18207" x1="81.5564" y1="48.3028" x2="81.5564" y2="2.35791" gradientUnits="userSpaceOnUse">
<stop stop-color="#55585E"/>
<stop offset="0.00727683" stop-color="#4C4F53"/>
<stop offset="0.0175" stop-color="#43454A"/>
<stop offset="0.0282" stop-color="#3E3F44"/>
<stop offset="0.04" stop-color="#3C3E42"/>
<stop offset="0.0955" stop-color="#3B3C41"/>
<stop offset="0.1313" stop-color="#36373C"/>
<stop offset="0.1615" stop-color="#2F3034"/>
<stop offset="0.1885" stop-color="#242428"/>
<stop offset="0.2136" stop-color="#151417"/>
<stop offset="0.2367"/>
<stop offset="0.2521"/>
<stop offset="1"/>
</linearGradient>
<linearGradient id="paint5_linear_636_18207" x1="90.6147" y1="48.6241" x2="90.6147" y2="22.0272" gradientUnits="userSpaceOnUse">
<stop stop-color="#8B8E94"/>
<stop offset="0.1305" stop-color="#878990"/>
<stop offset="0.283" stop-color="#7D7F85"/>
<stop offset="0.4466" stop-color="#6C6E73"/>
<stop offset="0.6181" stop-color="#56585C"/>
<stop offset="0.794" stop-color="#3C3E42"/>
<stop offset="0.7954" stop-color="#3C3E42"/>
<stop offset="0.8164" stop-color="#3A3B40"/>
<stop offset="0.8383" stop-color="#343539"/>
<stop offset="0.8604" stop-color="#292A2D"/>
<stop offset="0.8828" stop-color="#1A191D"/>
<stop offset="0.9052"/>
<stop offset="0.9207"/>
<stop offset="1"/>
</linearGradient>
<linearGradient id="paint6_linear_636_18207" x1="76.4623" y1="75.2466" x2="76.4623" y2="48.6362" gradientUnits="userSpaceOnUse">
<stop stop-color="#C6C8CC"/>
<stop offset="0.3571" stop-color="#C6C8CC"/>
<stop offset="0.4839" stop-color="#C1C3C8"/>
<stop offset="0.6277" stop-color="#B4B6BB"/>
<stop offset="0.7797" stop-color="#9FA2A7"/>
<stop offset="0.9366" stop-color="#86898F"/>
<stop offset="0.9631" stop-color="#81858B"/>
<stop offset="1" stop-color="#55585E"/>
</linearGradient>
<linearGradient id="paint7_linear_636_18207" x1="86.7693" y1="66.5425" x2="62.5634" y2="55.6239" gradientUnits="userSpaceOnUse">
<stop stop-color="#F1F2F1"/>
<stop offset="0.0132" stop-color="#F1F2F1"/>
<stop offset="0.1096" stop-color="#EEEDEE"/>
<stop offset="1" stop-color="#EEEDEE"/>
</linearGradient>
<linearGradient id="paint8_linear_636_18207" x1="85.5079" y1="94.2799" x2="85.5079" y2="48.3088" gradientUnits="userSpaceOnUse">
<stop stop-color="white"/>
<stop offset="0.2364" stop-color="#F6F6F6"/>
<stop offset="0.5545" stop-color="#E4E4E6"/>
<stop offset="0.9178" stop-color="#CACCD0"/>
<stop offset="0.9693" stop-color="#C6C8CC"/>
<stop offset="0.9913" stop-color="#8B8E94"/>
<stop offset="1" stop-color="#8B8E94"/>
</linearGradient>
<linearGradient id="paint9_linear_636_18207" x1="58.5906" y1="96.0985" x2="58.5906" y2="48.6091" gradientUnits="userSpaceOnUse">
<stop stop-color="#81858B"/>
<stop offset="0.1522" stop-color="#7B7F84"/>
<stop offset="0.5767" stop-color="#707379"/>
<stop offset="0.9698" stop-color="#6C6F75"/>
<stop offset="0.9879" stop-color="#8A8E94"/>
<stop offset="1" stop-color="#9EA2A8"/>
</linearGradient>
<linearGradient id="paint10_linear_636_18207" x1="74.4249" y1="90.3583" x2="92.713" y2="100.917" gradientUnits="userSpaceOnUse">
<stop stop-color="#81858B"/>
<stop offset="0.0193" stop-color="#81858B"/>
<stop offset="0.0278" stop-color="#777A7F"/>
<stop offset="0.0485" stop-color="#626469"/>
<stop offset="0.0687" stop-color="#53565A"/>
<stop offset="0.0879" stop-color="#4B4D52"/>
<stop offset="0.105" stop-color="#484A4F"/>
<stop offset="1" stop-color="#484A4F"/>
</linearGradient>
<linearGradient id="paint11_linear_636_18207" x1="88.3737" y1="13.8385" x2="128.908" y2="36.0302" gradientUnits="userSpaceOnUse">
<stop stop-color="#787A80"/>
<stop offset="1" stop-color="#8B8E94"/>
</linearGradient>
<linearGradient id="paint12_linear_636_18207" x1="94.3499" y1="4.69846" x2="72.3924" y2="-1.5978" gradientUnits="userSpaceOnUse">
<stop stop-color="#787A80"/>
<stop offset="0.00955204" stop-color="#787A80"/>
<stop offset="0.0209" stop-color="#86888E"/>
<stop offset="0.0408" stop-color="#9C9FA5"/>
<stop offset="0.059" stop-color="#ABAFB5"/>
<stop offset="0.0738" stop-color="#B1B5BB"/>
<stop offset="0.5011" stop-color="#C4C8CB"/>
<stop offset="1" stop-color="#C6C8CC"/>
</linearGradient>
<linearGradient id="paint13_linear_636_18207" x1="38.8528" y1="32.4182" x2="78.0094" y2="17.3874" gradientUnits="userSpaceOnUse">
<stop stop-color="#9EA2A8"/>
<stop offset="0.9868" stop-color="#8B8E94"/>
<stop offset="1" stop-color="#C6C8CC"/>
</linearGradient>
<linearGradient id="paint14_linear_636_18207" x1="108.359" y1="96.2458" x2="108.359" y2="48.492" gradientUnits="userSpaceOnUse">
<stop stop-color="#484A4F"/>
<stop offset="0.019" stop-color="#484A4F"/>
<stop offset="0.1296" stop-color="#4E5055"/>
<stop offset="0.4079" stop-color="#595C60"/>
<stop offset="0.6879" stop-color="#5F6267"/>
<stop offset="0.9698" stop-color="#616569"/>
<stop offset="0.9869" stop-color="#7B7D83"/>
<stop offset="1" stop-color="#8B8E94"/>
</linearGradient>
<radialGradient id="paint15_radial_636_18207" cx="0" cy="0" r="1" gradientUnits="userSpaceOnUse" gradientTransform="translate(97.5712 49.0155) scale(26.5621 26.5621)">
<stop stop-color="white"/>
<stop offset="0.5897" stop-color="white"/>
<stop offset="1" stop-color="white"/>
</radialGradient>
</defs>
</svg>
