<svg width="138" height="160" viewBox="0 0 138 160" fill="none" xmlns="http://www.w3.org/2000/svg">
<g clip-path="url(#clip0_636_20323)">
<path d="M117.897 150.254V159.98H121.377V153.505H134.042V159.98H137.519V150.271L117.897 150.254ZM120.99 147.107H134.371C136.229 146.776 137.611 145.305 138.001 143.883H117.36C117.746 145.306 119.147 146.776 120.99 147.107Z" fill="#FF0101"/>
<path d="M107.358 159.987C109.113 159.32 110.057 158.166 110.418 156.817H94.8107L94.8206 143.892L91.3219 143.9V159.987H107.358ZM65.3052 147.063H77.6627C79.526 146.579 81.0901 145.306 81.4715 143.896H61.8401V153.403H77.9064V156.739L65.3042 156.747C63.329 157.241 61.6549 158.43 60.8188 160L61.8401 159.983H81.3586V150.242H65.3042L65.3052 147.063Z" fill="#FF0101"/>
<path d="M34.799 147.094H48.1748C50.0361 146.762 51.419 145.293 51.8063 143.869H31.1665C31.5518 145.293 32.9555 146.761 34.799 147.094ZM34.799 153.452H48.1748C50.0361 153.124 51.419 151.652 51.8063 150.228H31.1665C31.5518 151.653 32.9555 153.123 34.799 153.452ZM34.799 159.985H48.1748C50.0361 159.654 51.419 158.183 51.8063 156.761H31.1665C31.5518 158.184 32.9555 159.653 34.799 159.985Z" fill="#FF0101"/>
<path d="M0 143.908C0.402176 145.314 1.76026 146.751 3.62256 147.111H9.25303L9.5403 147.212V159.948H13.0559V147.212L13.3758 147.111H19.0113C20.8953 146.676 22.2227 145.314 22.618 143.908V143.877H0V143.908Z" fill="#FF0101"/>
<path d="M71.6183 112.086L89.1863 23.5193C105.931 23.5193 111.213 25.1655 111.977 31.8838C111.977 31.8838 123.211 28.1295 128.876 20.5038C106.767 11.3205 84.5524 10.9058 84.5524 10.9058L71.5896 25.059L71.6183 25.0572L58.6556 10.9041C58.6556 10.9041 36.4408 11.3187 14.335 20.502C19.9961 28.1277 31.2333 31.882 31.2333 31.882C32 25.1629 37.2759 23.5175 53.9087 23.5068L71.6183 112.086Z" fill="#FF0101"/>
<path d="M71.6113 6.81862C89.4834 6.69608 109.939 9.2969 130.881 17.4785C133.68 12.9624 134.399 10.9672 134.399 10.9672C111.507 2.84768 90.0688 0.0692606 71.6083 0C53.1488 0.0692606 31.7117 2.84856 8.82227 10.9663C8.82227 10.9663 9.84356 13.425 12.3378 17.4776C33.2758 9.29691 53.7363 6.69608 71.6093 6.81862H71.6113Z" fill="#FF0101"/>
</g>
<defs>
<clipPath id="clip0_636_20323">
<rect width="138" height="160" fill="white"/>
</clipPath>
</defs>
</svg>
