<svg width="158" height="158" viewBox="0 0 158 158" fill="none" xmlns="http://www.w3.org/2000/svg">
<g clip-path="url(#clip0_636_20333)">
<path d="M79 0C35.3711 0 0 35.3687 0 78.9997C0 122.63 35.3711 157.999 79 157.999C122.632 157.999 158 122.63 158 78.9997C158 35.3687 122.632 0 79 0ZM79 154.049C37.5503 154.049 3.95316 120.449 3.95316 78.9997C3.95316 37.551 37.5503 3.94882 79 3.94882C120.45 3.94882 154.049 37.551 154.049 78.9997C154.049 120.449 120.45 154.049 79 154.049Z" fill="url(#paint0_linear_636_20333)"/>
<path d="M154.616 78.9996C154.616 120.758 120.758 154.615 79.0007 154.615C37.2425 154.615 3.38818 120.758 3.38818 78.9996C3.38818 37.2388 37.2419 3.3844 79 3.3844C120.758 3.3844 154.616 37.2388 154.616 78.9996Z" fill="#333333"/>
<path d="M154.049 78.9997C154.049 120.449 120.45 154.049 79 154.049C37.5502 154.049 3.95312 120.449 3.95312 78.9997C3.95313 37.5511 37.5502 3.94885 79 3.94885C120.45 3.94885 154.049 37.5511 154.049 78.9997Z" fill="url(#paint1_radial_636_20333)"/>
<path d="M129.315 78.9996C129.315 106.787 106.788 129.314 79 129.314C51.2116 129.314 28.6846 106.787 28.6846 78.9996C28.6846 51.2107 51.2116 28.6838 79 28.6838C106.788 28.6838 129.315 51.2107 129.315 78.9996Z" fill="url(#paint2_linear_636_20333)"/>
<path d="M81.0155 27.3245L86.2422 13.4714V27.3245H90.2118V7.48499H84.2463L78.82 21.6901H78.8718L73.4461 7.48499H67.48V27.3245H71.4496V13.4714L76.6762 27.3245H81.0155ZM135.493 36.2207L128.71 46.1098L139.363 40.8704L142.253 44.3357L125.487 52.7542L122.099 48.6524L128.598 38.853L128.56 38.805L117.749 43.432L114.323 39.358L125.628 24.3882L128.518 27.8548L121.439 37.3874L132.394 32.5013L135.493 36.2207Z" fill="black"/>
<path d="M43.8639 32.4305C42.2662 30.8795 39.8008 30.4118 37.4833 31.8484C37.9269 30.7007 37.7468 29.5327 37.5123 28.8849C36.5125 27.0672 36.1624 26.8372 35.3458 26.1476C32.6813 23.9147 29.8778 25.8215 27.8756 28.208L18.1934 39.7467L33.4138 52.5158L43.6225 40.3509C45.9559 37.5706 46.3161 34.8144 43.8639 32.4305ZM24.1752 37.9947L29.9909 31.0641C30.6659 30.262 32.1896 30.2943 33.1667 31.1172C34.2436 32.0203 34.2468 33.2995 33.5238 34.1628L27.7732 41.0132L24.1752 37.9947ZM40.2186 39.1475L34.1564 46.372L30.3606 43.1816L36.4683 35.9009C37.159 35.078 38.6992 34.8384 39.7376 35.7094C40.9062 36.6934 41.0218 38.1894 40.2186 39.1475Z" fill="#333333"/>
<path d="M81.058 26.5578L86.2846 12.7053V26.5578H90.2549V6.71826H84.2888L78.8631 20.9227H78.9143L73.4885 6.71826H67.5225V26.5578H71.4927V12.7053L76.7193 26.5578H81.058Z" fill="url(#paint3_radial_636_20333)"/>
<path d="M135.532 34.8897L128.752 44.7794L139.404 39.5381L142.291 43.0047L125.528 51.4231L122.14 47.3201L128.64 37.522L128.602 37.4721L117.788 42.1009L114.365 38.0251L125.67 23.0571L128.56 26.5225L121.482 36.0551L132.433 31.1709L135.532 34.8897Z" fill="url(#paint4_radial_636_20333)"/>
<path d="M43.1529 32.0399C41.5583 30.4889 39.0897 30.0212 36.7753 31.4565C37.2152 30.3088 37.0357 29.1402 36.8013 28.4955C35.8014 26.6747 35.4545 26.4478 34.631 25.757C31.9665 23.5229 29.1667 25.4303 27.167 27.8193L17.4829 39.3561L32.7034 52.1252L42.9121 39.9584C45.2422 37.1781 45.6056 34.4238 43.1529 32.0399ZM23.4648 37.6041L29.2798 30.6754C29.9516 29.8721 31.4754 29.9037 32.4556 30.7253C33.5325 31.6303 33.5357 32.9108 32.8089 33.771L27.0621 40.6226L23.4648 37.6041ZM39.5113 38.7563L33.4491 45.9808L29.6464 42.7904L35.7572 35.5084C36.448 34.6874 37.9844 34.4478 39.0227 35.3188C40.1989 36.3041 40.3152 37.7969 39.5113 38.7563Z" fill="url(#paint5_radial_636_20333)"/>
<path d="M30.3599 79.0003C30.3599 52.1359 52.1373 30.3574 78.9998 30.3574C105.866 30.3574 127.64 52.1353 127.64 79.0003C127.64 105.864 105.865 127.641 78.9998 127.641C52.1373 127.641 30.3599 105.864 30.3599 79.0003Z" fill="url(#paint6_radial_636_20333)"/>
<path d="M31.7578 79.0003C31.7578 52.909 52.9083 31.7555 78.9998 31.7555C105.091 31.7555 126.245 52.9083 126.245 79.0003C126.245 105.092 105.091 126.245 78.9998 126.245C52.9083 126.245 31.7578 105.092 31.7578 79.0003Z" fill="url(#paint7_radial_636_20333)"/>
<path d="M31.6841 79.0003H79V31.6841C52.8668 31.6841 31.6841 52.8672 31.6841 79.0003Z" fill="url(#paint8_radial_636_20333)"/>
<path d="M79 79.0004V126.318C105.133 126.318 126.316 105.131 126.316 79.0004H79Z" fill="url(#paint9_radial_636_20333)"/>
<path d="M126.708 78.1597H79.8386V31.2897H78.1606V78.1597H31.2915V79.8377H78.1606V126.709H79.8386V79.8377H126.708V78.1597Z" fill="url(#paint10_radial_636_20333)"/>
<path d="M79.8394 32.6176C104.799 33.0612 124.941 53.2016 125.387 78.1598H126.222C125.776 52.7383 105.262 32.2207 79.8394 31.777V32.6176Z" fill="url(#paint11_linear_636_20333)"/>
<path d="M32.5327 78.1535C32.9763 53.1612 53.1466 32.9917 78.1384 32.5468V31.7081C52.6808 32.1531 32.1402 52.6985 31.6934 78.1535H32.5327Z" fill="#C2D7E8"/>
<path d="M78.1609 125.383C53.2014 124.94 33.0602 104.798 32.6165 79.8384H31.7778C32.2247 105.261 52.7387 125.779 78.1609 126.223V125.383Z" fill="url(#paint12_linear_636_20333)"/>
<path d="M125.387 79.8378C124.94 104.798 104.799 124.939 79.8394 125.383V126.222C105.262 125.779 125.779 105.261 126.222 79.8372H125.387V79.8378Z" fill="#12404F"/>
<path d="M77.2645 31.7081V77.2389H31.7358V78.1377H78.1613V31.7081H77.2645Z" fill="url(#paint13_linear_636_20333)"/>
<path d="M77.1873 125.783V80.7991H32.1118V79.9124H78.074V125.783H77.1873Z" fill="url(#paint14_linear_636_20333)"/>
<path d="M80.8 125.783V80.7991H125.782V79.9124H79.9165V125.783H80.8Z" fill="url(#paint15_linear_636_20333)"/>
<path d="M80.8 32.11V77.0929H125.782V77.9783H79.9165V32.11H80.8Z" fill="url(#paint16_linear_636_20333)"/>
</g>
<defs>
<linearGradient id="paint0_linear_636_20333" x1="-11.5642" y1="-8.52192" x2="156.062" y2="153.457" gradientUnits="userSpaceOnUse">
<stop stop-color="#DFF4FF"/>
<stop offset="0.098" stop-color="#D6EAF5"/>
<stop offset="0.268" stop-color="#BFD0D9"/>
<stop offset="0.488" stop-color="#98A5AC"/>
<stop offset="0.747" stop-color="#646B6E"/>
<stop offset="1" stop-color="#2B2B2B"/>
</linearGradient>
<radialGradient id="paint1_radial_636_20333" cx="0" cy="0" r="1" gradientUnits="userSpaceOnUse" gradientTransform="translate(-0.984302 5.22096) scale(112.239 112.241)">
<stop stop-color="white"/>
<stop offset="0.306" stop-color="#A8A8A8"/>
<stop offset="0.646" stop-color="#4F4F4F"/>
<stop offset="0.885" stop-color="#161616"/>
<stop offset="1"/>
</radialGradient>
<linearGradient id="paint2_linear_636_20333" x1="136.68" y1="134.741" x2="29.9192" y2="31.5772" gradientUnits="userSpaceOnUse">
<stop stop-color="#DFF4FF"/>
<stop offset="0.086" stop-color="#D6EAF5"/>
<stop offset="0.233" stop-color="#BED0D9"/>
<stop offset="0.424" stop-color="#96A4AC"/>
<stop offset="0.652" stop-color="#5F686D"/>
<stop offset="0.907" stop-color="#1A1D1E"/>
<stop offset="1"/>
</linearGradient>
<radialGradient id="paint3_radial_636_20333" cx="0" cy="0" r="1" gradientUnits="userSpaceOnUse" gradientTransform="translate(-21.1419 -6.20947) scale(269.693 269.699)">
<stop stop-color="white"/>
<stop offset="0.31" stop-color="#FDFDFD"/>
<stop offset="0.451" stop-color="#F6F6F6"/>
<stop offset="0.557" stop-color="#E9E9E9"/>
<stop offset="0.646" stop-color="#D7D7D7"/>
<stop offset="0.724" stop-color="#BFBFBF"/>
<stop offset="0.794" stop-color="#A2A2A2"/>
<stop offset="0.859" stop-color="#808080"/>
<stop offset="0.92" stop-color="#575757"/>
<stop offset="0.975" stop-color="#2B2B2B"/>
<stop offset="1" stop-color="#141414"/>
</radialGradient>
<radialGradient id="paint4_radial_636_20333" cx="0" cy="0" r="1" gradientUnits="userSpaceOnUse" gradientTransform="translate(-21.1542 -6.2094) scale(269.716 269.722)">
<stop stop-color="white"/>
<stop offset="0.31" stop-color="#FDFDFD"/>
<stop offset="0.451" stop-color="#F6F6F6"/>
<stop offset="0.557" stop-color="#E9E9E9"/>
<stop offset="0.646" stop-color="#D7D7D7"/>
<stop offset="0.724" stop-color="#BFBFBF"/>
<stop offset="0.794" stop-color="#A2A2A2"/>
<stop offset="0.859" stop-color="#808080"/>
<stop offset="0.92" stop-color="#575757"/>
<stop offset="0.975" stop-color="#2B2B2B"/>
<stop offset="1" stop-color="#141414"/>
</radialGradient>
<radialGradient id="paint5_radial_636_20333" cx="0" cy="0" r="1" gradientUnits="userSpaceOnUse" gradientTransform="translate(-21.1687 -6.28859) scale(269.923 269.928)">
<stop stop-color="white"/>
<stop offset="0.31" stop-color="#FDFDFD"/>
<stop offset="0.451" stop-color="#F6F6F6"/>
<stop offset="0.557" stop-color="#E9E9E9"/>
<stop offset="0.646" stop-color="#D7D7D7"/>
<stop offset="0.724" stop-color="#BFBFBF"/>
<stop offset="0.794" stop-color="#A2A2A2"/>
<stop offset="0.859" stop-color="#808080"/>
<stop offset="0.92" stop-color="#575757"/>
<stop offset="0.975" stop-color="#2B2B2B"/>
<stop offset="1" stop-color="#141414"/>
</radialGradient>
<radialGradient id="paint6_radial_636_20333" cx="0" cy="0" r="1" gradientUnits="userSpaceOnUse" gradientTransform="translate(27.1599 31.181) scale(72.7445 72.7459)">
<stop stop-color="#E6E6E6"/>
<stop offset="0.104" stop-color="#D6D6D6"/>
<stop offset="0.307" stop-color="#ADADAD"/>
<stop offset="0.588" stop-color="#6C6C6C"/>
<stop offset="0.933" stop-color="#121212"/>
<stop offset="1"/>
</radialGradient>
<radialGradient id="paint7_radial_636_20333" cx="0" cy="0" r="1" gradientUnits="userSpaceOnUse" gradientTransform="translate(47.0564 40.9653) scale(105.791 105.793)">
<stop stop-color="white"/>
<stop offset="0.344" stop-color="#FDFDFD"/>
<stop offset="0.481" stop-color="#F6F6F6"/>
<stop offset="0.582" stop-color="#EAEAEA"/>
<stop offset="0.665" stop-color="#D8D8D8"/>
<stop offset="0.737" stop-color="#C2C2C2"/>
<stop offset="0.802" stop-color="#A6A6A6"/>
<stop offset="0.86" stop-color="#848484"/>
<stop offset="0.913" stop-color="#5F5F5F"/>
<stop offset="0.949" stop-color="#404040"/>
<stop offset="0.957" stop-color="#404040"/>
<stop offset="1"/>
</radialGradient>
<radialGradient id="paint8_radial_636_20333" cx="0" cy="0" r="1" gradientUnits="userSpaceOnUse" gradientTransform="translate(15.9948 0.8626) scale(187.358 187.361)">
<stop offset="0.169" stop-color="white"/>
<stop offset="0.196" stop-color="#E0EFF7"/>
<stop offset="0.241" stop-color="#B2D9EC"/>
<stop offset="0.287" stop-color="#8BC5E2"/>
<stop offset="0.335" stop-color="#6BB5DA"/>
<stop offset="0.384" stop-color="#52A9D4"/>
<stop offset="0.436" stop-color="#41A0CF"/>
<stop offset="0.491" stop-color="#369BCD"/>
<stop offset="0.556" stop-color="#3399CC"/>
<stop offset="0.606" stop-color="#3396C8"/>
<stop offset="0.655" stop-color="#328EBC"/>
<stop offset="0.705" stop-color="#3180A8"/>
<stop offset="0.754" stop-color="#2F6D8C"/>
<stop offset="0.803" stop-color="#2D5468"/>
<stop offset="0.851" stop-color="#2A373D"/>
<stop offset="0.871" stop-color="#292929"/>
</radialGradient>
<radialGradient id="paint9_radial_636_20333" cx="0" cy="0" r="1" gradientUnits="userSpaceOnUse" gradientTransform="translate(15.9948 0.86119) scale(187.354 187.358)">
<stop offset="0.169" stop-color="white"/>
<stop offset="0.196" stop-color="#E0EFF7"/>
<stop offset="0.241" stop-color="#B2D9EC"/>
<stop offset="0.287" stop-color="#8BC5E2"/>
<stop offset="0.335" stop-color="#6BB5DA"/>
<stop offset="0.384" stop-color="#52A9D4"/>
<stop offset="0.436" stop-color="#41A0CF"/>
<stop offset="0.491" stop-color="#369BCD"/>
<stop offset="0.556" stop-color="#3399CC"/>
<stop offset="0.606" stop-color="#3396C8"/>
<stop offset="0.655" stop-color="#328EBC"/>
<stop offset="0.705" stop-color="#3180A8"/>
<stop offset="0.754" stop-color="#2F6D8C"/>
<stop offset="0.803" stop-color="#2D5468"/>
<stop offset="0.851" stop-color="#2A373D"/>
<stop offset="0.871" stop-color="#292929"/>
</radialGradient>
<radialGradient id="paint10_radial_636_20333" cx="0" cy="0" r="1" gradientUnits="userSpaceOnUse" gradientTransform="translate(28.1535 32.0974) scale(71.3503 71.3517)">
<stop stop-color="#E6E6E6"/>
<stop offset="0.104" stop-color="#D6D6D6"/>
<stop offset="0.307" stop-color="#ADADAD"/>
<stop offset="0.588" stop-color="#6C6C6C"/>
<stop offset="0.933" stop-color="#121212"/>
<stop offset="1"/>
</radialGradient>
<linearGradient id="paint11_linear_636_20333" x1="69.6457" y1="14.282" x2="139.228" y2="81.5196" gradientUnits="userSpaceOnUse">
<stop stop-color="#F0F4FF"/>
<stop offset="0.109" stop-color="#EBEFF9"/>
<stop offset="0.247" stop-color="#DCE0EA"/>
<stop offset="0.403" stop-color="#C4C7CF"/>
<stop offset="0.57" stop-color="#A2A4AB"/>
<stop offset="0.747" stop-color="#76777C"/>
<stop offset="0.929" stop-color="#414243"/>
<stop offset="1" stop-color="#2B2B2B"/>
</linearGradient>
<linearGradient id="paint12_linear_636_20333" x1="13.1693" y1="71.0509" x2="82.7523" y2="138.29" gradientUnits="userSpaceOnUse">
<stop stop-color="#F0F4FF"/>
<stop offset="0.109" stop-color="#EBEFF9"/>
<stop offset="0.247" stop-color="#DCE0EA"/>
<stop offset="0.403" stop-color="#C4C7CF"/>
<stop offset="0.57" stop-color="#A2A4AB"/>
<stop offset="0.747" stop-color="#76777C"/>
<stop offset="0.929" stop-color="#414243"/>
<stop offset="1" stop-color="#2B2B2B"/>
</linearGradient>
<linearGradient id="paint13_linear_636_20333" x1="46.831" y1="47.0742" x2="82.9124" y2="81.9402" gradientUnits="userSpaceOnUse">
<stop stop-color="#C2D7E8"/>
<stop offset="0.134" stop-color="#BACFE1"/>
<stop offset="0.343" stop-color="#A4BACD"/>
<stop offset="0.6" stop-color="#8098AC"/>
<stop offset="0.894" stop-color="#4E697F"/>
<stop offset="1" stop-color="#3A566D"/>
</linearGradient>
<linearGradient id="paint14_linear_636_20333" x1="28.7609" y1="55.6177" x2="97.6436" y2="122.18" gradientUnits="userSpaceOnUse">
<stop stop-color="#F0F4FF"/>
<stop offset="0.097" stop-color="#E8EBF6"/>
<stop offset="0.257" stop-color="#D1D4DD"/>
<stop offset="0.459" stop-color="#ABAEB5"/>
<stop offset="0.695" stop-color="#78797D"/>
<stop offset="0.958" stop-color="#363637"/>
<stop offset="1" stop-color="#2B2B2B"/>
</linearGradient>
<linearGradient id="paint15_linear_636_20333" x1="79.5309" y1="80.3091" x2="103.693" y2="103.657" gradientUnits="userSpaceOnUse">
<stop stop-color="#D9DEF0"/>
<stop offset="0.123" stop-color="#D4DAEC"/>
<stop offset="0.263" stop-color="#C7CFE2"/>
<stop offset="0.411" stop-color="#B0BCD1"/>
<stop offset="0.566" stop-color="#90A1B8"/>
<stop offset="0.725" stop-color="#677F99"/>
<stop offset="0.885" stop-color="#355674"/>
<stop offset="0.972" stop-color="#173D5D"/>
</linearGradient>
<linearGradient id="paint16_linear_636_20333" x1="54.8143" y1="30.3551" x2="123.622" y2="96.845" gradientUnits="userSpaceOnUse">
<stop stop-color="#F0F4FF"/>
<stop offset="0.109" stop-color="#EBEFF9"/>
<stop offset="0.247" stop-color="#DCE0EA"/>
<stop offset="0.403" stop-color="#C4C7CF"/>
<stop offset="0.57" stop-color="#A2A4AB"/>
<stop offset="0.747" stop-color="#76777C"/>
<stop offset="0.929" stop-color="#414243"/>
<stop offset="1" stop-color="#2B2B2B"/>
</linearGradient>
<clipPath id="clip0_636_20333">
<rect width="158" height="158" fill="white"/>
</clipPath>
</defs>
</svg>
