<svg width="150" height="130" viewBox="0 0 150 130" fill="none" xmlns="http://www.w3.org/2000/svg">
<path d="M74.8254 115.97C74.8042 108.212 80.7521 101.956 88.1765 101.945C95.4262 101.956 101.374 108.212 101.522 115.97C101.379 123.638 95.4262 129.894 88.1765 130C80.7469 129.894 74.7989 123.638 74.8254 115.97ZM88.1765 124.828C92.1876 124.762 95.5055 120.802 95.5479 115.964C95.5055 111.031 92.1876 107.072 88.1765 107.1C83.9907 107.072 80.6622 111.031 80.7945 115.964C80.6675 120.808 83.9907 124.767 88.1765 124.828Z" fill="#AB002F"/>
<path d="M116.625 107.845V129.26H111.01V107.845H102.925V103.051H124.356V107.845H116.625Z" fill="#AB002F"/>
<path d="M131.029 123.349L128.928 129.266H122.255L132.791 103.057H139.813L150.005 129.266H143.332L141.226 123.349H131.029ZM136.305 118.922H139.813L136.305 109.319L132.791 118.922H136.305Z" fill="#AB002F"/>
<path d="M13.3458 107.845V129.26H7.72596V107.845H0V103.051H21.077V107.845H13.3458Z" fill="#AB002F"/>
<path d="M22.4846 115.97C22.4952 108.212 28.4379 101.956 35.8252 101.945C43.1172 101.956 49.0704 108.212 49.1762 115.97C49.0704 123.638 43.1172 129.894 35.8252 130C28.4379 129.894 22.4952 123.638 22.4846 115.97ZM35.8252 124.828C39.8839 124.762 43.2019 120.802 43.2019 115.964C43.1966 111.031 39.8786 107.072 35.8252 107.1C31.6817 107.072 28.3585 111.031 28.459 115.964C28.3585 120.808 31.6817 124.767 35.8252 124.828Z" fill="#AB002F"/>
<path d="M61.8235 129.26H64.6335V119.289L74.4708 103.051H68.1525L61.8235 114.123L55.8492 103.051H49.1815L59.0189 119.289V129.26H61.8235Z" fill="#AB002F"/>
<path d="M4.52444 45.3557C4.52444 70.3636 35.4706 90.7114 73.5024 90.7114C111.534 90.7114 142.48 70.3636 142.48 45.3557C142.48 20.3422 111.534 0 73.5024 0C35.4653 0 4.52444 20.3422 4.52444 45.3557ZM6.64115 45.3557C6.64115 21.5768 36.6348 2.22997 73.5024 2.22997C110.37 2.22997 140.364 21.5768 140.364 45.3557C140.364 69.1402 110.37 88.487 73.5024 88.487C36.6348 88.487 6.64115 69.1402 6.64115 45.3557Z" fill="black"/>
<path d="M66.983 8.247C50.8379 9.28135 39.1113 13.7802 37.1163 19.7027C36.91 20.32 36.8041 20.9428 36.8041 21.5601C36.8041 22.5611 37.074 23.5565 37.6085 24.513C39.8469 28.5225 46.8055 31.8313 56.7011 33.6108L57.7489 33.7888L57.9235 32.6877C59.5481 22.2719 63.1147 14.0861 67.7133 10.2156L70.3168 8.019L66.983 8.247ZM39.4341 23.3952C39.0902 22.7779 38.9208 22.1718 38.9208 21.5712C38.9208 21.1931 38.9843 20.826 39.1113 20.4479C40.6354 15.9212 51.0019 11.9673 64.2419 10.6938C60.4636 15.1816 57.5637 22.4165 56.045 31.2085C47.4406 29.5346 41.2545 26.654 39.4341 23.3952Z" fill="black"/>
<path d="M64.0302 33.355L63.8238 34.5673L64.9933 34.6618C67.7609 34.8787 70.6237 34.9955 73.4971 34.9955C76.3706 34.9955 79.2387 34.8787 82.0063 34.6618L83.1705 34.5673L82.9641 33.355C81.3713 23.9569 77.8311 18.3458 73.4971 18.3458C69.1632 18.3458 65.623 23.9569 64.0302 33.355ZM73.5024 20.5702C76.4658 20.5702 79.2017 25.2303 80.641 32.5097C78.2968 32.671 75.9155 32.7711 73.5024 32.7711C71.0947 32.7711 68.7081 32.671 66.3692 32.5097C67.7979 25.2303 70.5391 20.5702 73.5024 20.5702Z" fill="black"/>
<path d="M79.2863 10.2212C83.8796 14.0861 87.4515 22.2775 89.0761 32.6933L89.2507 33.7943L90.2985 33.6164C100.199 31.8424 107.158 28.5336 109.391 24.5186C110.259 22.9781 110.423 21.3098 109.889 19.7027C107.888 13.7802 96.1617 9.28135 80.0219 8.247L76.6934 8.03012L79.2863 10.2212ZM82.7683 10.6939C96.003 11.9673 106.37 15.9268 107.888 20.4479C108.021 20.826 108.084 21.1931 108.084 21.5712C108.084 22.1718 107.909 22.778 107.576 23.3952C105.75 26.654 99.5643 29.5346 90.9652 31.2085C89.4465 22.4165 86.5413 15.1816 82.7683 10.6939Z" fill="black"/>
<path d="M26.898 24.0681C19.643 30.4521 15.8118 38.0429 15.8118 46.0119C15.8118 64.7637 37.5715 80.6181 66.4221 82.8759L69.6448 83.1317L67.1894 80.9295C60.8657 75.2462 56.9446 61.7663 56.9446 45.7394L57.0081 41.9523L56.1243 41.7633C40.9476 38.9049 30.1524 32.1983 28.6125 24.6909L28.2421 22.8892L26.898 24.0681ZM17.9285 46.0119C17.9285 39.1774 21.1035 32.6154 27.0567 26.9153C29.8349 34.5006 40.2015 40.8235 54.8596 43.7652C54.8384 44.6328 54.8226 45.7338 54.8226 45.7338C54.8226 60.5929 58.1775 73.4222 63.7127 80.3456C37.4286 77.4039 17.9285 62.973 17.9285 46.0119Z" fill="black"/>
<path d="M63.1676 44.0099L63.1624 44.4159C63.1624 59.3083 67.6074 70.5471 73.5024 70.5471C79.3922 70.5471 83.8372 59.3083 83.8372 44.4159L83.8214 42.8087L82.6836 42.9088C79.6885 43.1869 76.5981 43.3203 73.4971 43.3203C70.3962 43.3203 67.3058 43.1813 64.316 42.9088L63.1729 42.7976L63.1676 44.0099ZM81.7046 45.2055C81.5459 59.0636 77.3919 68.3227 73.4971 68.3227C69.6024 68.3227 65.4484 59.0636 65.2896 45.2055C67.9831 45.4168 70.7296 45.5448 73.4971 45.5448C76.27 45.5448 79.0111 45.4113 81.7046 45.2055Z" fill="black"/>
<path d="M118.382 24.6909C116.847 32.1983 106.047 38.9049 90.8753 41.7633L89.9862 41.9357L90.055 45.7338C90.055 61.7607 86.1286 75.2406 79.8102 80.924L77.3548 83.1261L80.5722 82.8703C109.428 80.6126 131.188 64.7581 131.188 46.0063C131.188 38.0318 127.351 30.4466 120.096 24.0625L118.752 22.8836L118.382 24.6909ZM119.938 26.9209C125.901 32.6209 129.076 39.1774 129.076 46.0174C129.076 62.9786 109.576 77.4038 83.2869 80.3567C88.8221 73.4333 92.177 60.604 92.177 45.745C92.177 45.745 92.1559 44.6439 92.14 43.7763C106.793 40.829 117.165 34.5061 119.938 26.9209Z" fill="black"/>
<path d="M119.133 18.9631C119.228 19.2467 119.318 19.5359 119.387 19.825C119.784 21.4933 119.705 23.1283 119.186 24.7187C126.071 30.6857 130.129 38.0429 130.129 46.0119C130.129 65.9092 104.777 82.0417 73.5024 82.0417C42.2282 82.0417 16.8754 65.9092 16.8754 46.0119C16.8754 38.0485 20.9395 30.6802 27.8135 24.7187C27.3002 23.1227 27.2208 21.4878 27.6177 19.825C27.6917 19.5303 27.8082 19.2189 27.9457 18.9075C18.5476 25.9366 12.8537 35.1512 12.8537 45.25C12.8537 67.2884 40.0056 85.1559 73.5024 85.1559C106.994 85.1559 134.151 67.2884 134.151 45.25C134.146 35.1735 128.478 25.9811 119.133 18.9631Z" fill="url(#paint0_linear_629_1354)"/>
<path d="M81.9269 33.5496C79.2546 33.761 76.4341 33.8777 73.4972 33.8777C70.5602 33.8777 67.745 33.761 65.0727 33.5496H65.0621L63.3158 34.8843C66.5385 35.179 69.9411 35.3458 73.4972 35.3458C77.0532 35.3458 80.4558 35.179 83.6785 34.8843L81.9269 33.5496ZM112.905 19.5692C110.778 12.1731 93.2248 6.74551 73.5025 6.74551C53.7801 6.74551 36.2326 12.1786 34.1001 19.5692C32.2532 25.9866 42.3393 31.9203 58.2516 34.2781L56.8705 32.5097C43.9956 30.2075 36.3438 25.2971 38.1112 20.0753C40.2491 13.7413 55.791 9.14788 73.4972 9.14788C91.2034 9.14788 106.751 13.7357 108.888 20.0753C110.651 25.2971 103.004 30.2019 90.1238 32.5097L88.7427 34.2781C104.655 31.9258 114.752 25.9866 112.905 19.5692Z" fill="url(#paint1_linear_629_1354)"/>
<path d="M65.0939 33.5496C66.5703 24.9189 69.7771 19.5247 73.4972 19.5247C77.2226 19.5247 80.4241 24.9189 81.9058 33.5496H81.9322L83.6626 34.8676C82.2021 23.4675 78.2068 16.1881 73.5024 16.1881C68.7928 16.1881 64.7975 23.4731 63.3423 34.8676L65.0727 33.5496H65.0939Z" fill="url(#paint2_linear_629_1354)"/>
<path d="M84.1865 41.3295L82.7736 44.0155C82.7736 44.2101 82.7842 44.4103 82.7842 44.6161C82.7842 58.9246 78.6196 69.7686 73.5024 69.7686C68.38 69.7686 64.2207 58.919 64.2207 44.6161C64.2207 44.3881 64.226 44.1656 64.2313 43.9488L62.8131 41.3295C62.7708 42.4028 62.7496 43.4872 62.7496 44.605C62.7496 60.8265 67.5598 73.1108 73.5024 73.1108C79.4398 73.1108 84.2553 60.8265 84.2553 44.605C84.2553 43.4872 84.2288 42.4028 84.1865 41.3295Z" fill="url(#paint3_linear_629_1354)"/>
<path d="M58.2781 34.2837C60.3101 18.4403 66.3586 6.74551 73.5024 6.74551C65.8453 6.74551 59.3153 17.1057 56.8916 32.5375L58.2569 34.2837H58.2781Z" fill="url(#paint4_linear_629_1354)"/>
<path d="M88.7268 34.2837H88.7427L90.108 32.5375C87.6896 17.1057 81.1596 6.74551 73.5024 6.74551C80.6463 6.74551 86.6948 18.4403 88.7268 34.2837Z" fill="url(#paint5_linear_629_1354)"/>
<path d="M91.0552 42.8477L89.3195 40.6678H89.3036C89.3989 42.3972 89.4571 44.1601 89.4571 45.9452C89.4571 67.5942 82.3132 85.1504 73.4972 85.1504C83.3769 85.1504 91.1081 68.8733 91.1081 45.9452C91.1134 44.8997 91.0922 43.8709 91.0552 42.8477Z" fill="url(#paint6_linear_629_1354)"/>
<path d="M57.5478 45.9507C57.5478 44.1656 57.606 42.4028 57.7013 40.6733H57.6907L55.9497 42.8477C55.9126 43.8765 55.8915 44.9052 55.8915 45.9507C55.8915 68.8732 63.628 85.1559 73.5077 85.1559C64.6917 85.1504 57.5478 67.5998 57.5478 45.9507Z" fill="url(#paint7_linear_629_1354)"/>
<path d="M119.186 24.7187C121.816 26.9988 124.039 29.4901 125.774 32.1316C125.161 27.8329 123.525 23.879 121.144 20.5535C120.488 20.0086 119.821 19.4747 119.133 18.9631C119.228 19.2467 119.318 19.5359 119.387 19.825C119.789 21.4878 119.705 23.1227 119.186 24.7187Z" fill="#2D2F34"/>
<path d="M27.8082 24.7187C27.2949 23.1227 27.2155 21.4878 27.6124 19.825C27.6864 19.5303 27.8029 19.2189 27.9405 18.9075C27.2208 19.4525 26.5328 19.9974 25.8555 20.5591C23.4742 23.8846 21.8444 27.8385 21.2252 32.1371C22.9609 29.4901 25.1782 26.9988 27.8082 24.7187Z" fill="#2D2F34"/>
<path d="M5.58279 45.3557C5.58279 20.9261 35.9892 1.1122 73.5024 1.1122C111.01 1.1122 141.417 20.9206 141.417 45.3557C141.417 69.7908 111.01 89.5936 73.5024 89.5936C35.9892 89.5936 5.58279 69.7908 5.58279 45.3557ZM73.5024 85.1504C106.994 85.1504 134.151 67.2828 134.151 45.2445C134.151 23.2006 106.994 5.33301 73.5024 5.33301C40.0056 5.33301 12.8537 23.2061 12.8537 45.2445C12.8537 67.2884 40.0056 85.1504 73.5024 85.1504Z" fill="url(#paint8_linear_629_1354)"/>
<path d="M57.5478 45.9507C57.5478 24.5241 64.6917 6.74551 73.5024 6.74551C82.3132 6.74551 89.4623 24.5241 89.4623 45.9507C89.4623 67.5998 82.3185 85.1559 73.5024 85.1559C64.6864 85.1504 57.5478 67.5998 57.5478 45.9507ZM73.5024 73.1107C79.4398 73.1107 84.2553 60.8265 84.2553 44.6105C84.2553 27.7829 79.4398 16.1937 73.5024 16.1937C67.5651 16.1937 62.7496 27.7884 62.7496 44.6105C62.7496 60.8209 67.5598 73.1107 73.5024 73.1107Z" fill="url(#paint9_linear_629_1354)"/>
<path d="M27.6123 19.825C29.3639 12.5401 50.5309 1.94078 73.5024 1.94078C96.4686 1.94078 116.911 9.51489 119.392 19.825C122.171 31.3808 101.766 41.8411 73.5024 41.8411C45.2339 41.8355 24.8342 31.3808 27.6123 19.825ZM73.5024 6.7455C53.78 6.7455 36.2326 12.1786 34.1 19.5692C31.7134 27.8496 49.2291 35.3458 73.5024 35.3458C97.7757 35.3458 115.291 27.8496 112.905 19.5692C110.778 12.1786 93.2248 6.7455 73.5024 6.7455Z" fill="url(#paint10_linear_629_1354)"/>
<path d="M62.7919 41.3073L62.8025 41.3184L64.2577 44.0211C67.2264 44.288 70.3062 44.4381 73.4971 44.4381C76.6986 44.4381 79.7943 44.288 82.7789 44.0155L84.1971 41.324L84.2076 41.3128C80.7945 41.6521 77.2225 41.8411 73.5024 41.8411C69.7823 41.8356 66.1998 41.6465 62.7919 41.3073ZM119.631 22.3219C119.265 30.5856 107.179 37.9039 89.3142 40.6622L89.3195 40.6678L91.0605 42.8532C108.544 39.5555 120.043 31.4476 119.631 22.3219ZM27.3742 22.3219C26.9615 31.4531 38.4604 39.5556 55.9338 42.8588L57.6801 40.6733L57.6854 40.6678C39.8204 37.9039 27.7394 30.5856 27.3742 22.3219Z" fill="url(#paint11_linear_629_1354)"/>
<defs>
<linearGradient id="paint0_linear_629_1354" x1="73.5006" y1="80.2227" x2="73.5006" y2="29.809" gradientUnits="userSpaceOnUse">
<stop stop-color="#F0F3F5"/>
<stop offset="0.0561" stop-color="#E2E5E8"/>
<stop offset="0.1383" stop-color="#D4D8DD"/>
<stop offset="0.2425" stop-color="#CCD0D6"/>
<stop offset="0.44" stop-color="#CACED4"/>
<stop offset="0.568" stop-color="#B3B7BD"/>
<stop offset="0.8354" stop-color="#797C83"/>
<stop offset="1" stop-color="#52545C"/>
</linearGradient>
<linearGradient id="paint1_linear_629_1354" x1="73.5021" y1="41.8101" x2="73.5021" y2="14.4921" gradientUnits="userSpaceOnUse">
<stop stop-color="#F0F3F5"/>
<stop offset="0.0561" stop-color="#E2E5E8"/>
<stop offset="0.1383" stop-color="#D4D8DD"/>
<stop offset="0.2425" stop-color="#CCD0D6"/>
<stop offset="0.44" stop-color="#CACED4"/>
<stop offset="0.568" stop-color="#B3B7BD"/>
<stop offset="0.8354" stop-color="#797C83"/>
<stop offset="1" stop-color="#52545C"/>
</linearGradient>
<linearGradient id="paint2_linear_629_1354" x1="82.1305" y1="36.7895" x2="65.2396" y2="23.3027" gradientUnits="userSpaceOnUse">
<stop stop-color="#F0F3F5"/>
<stop offset="0.0561" stop-color="#E2E5E8"/>
<stop offset="0.1383" stop-color="#D4D8DD"/>
<stop offset="0.2425" stop-color="#CCD0D6"/>
<stop offset="0.44" stop-color="#CACED4"/>
<stop offset="0.568" stop-color="#B3B7BD"/>
<stop offset="0.8354" stop-color="#797C83"/>
<stop offset="1" stop-color="#52545C"/>
</linearGradient>
<linearGradient id="paint3_linear_629_1354" x1="83.7827" y1="60.5992" x2="59.5416" y2="47.2813" gradientUnits="userSpaceOnUse">
<stop stop-color="#F0F3F5"/>
<stop offset="0.0561" stop-color="#E2E5E8"/>
<stop offset="0.1383" stop-color="#D4D8DD"/>
<stop offset="0.2425" stop-color="#CCD0D6"/>
<stop offset="0.44" stop-color="#CACED4"/>
<stop offset="0.568" stop-color="#B3B7BD"/>
<stop offset="0.8354" stop-color="#797C83"/>
<stop offset="1" stop-color="#52545C"/>
</linearGradient>
<linearGradient id="paint4_linear_629_1354" x1="65.196" y1="1.10959" x2="65.196" y2="44.4377" gradientUnits="userSpaceOnUse">
<stop stop-color="#F0F3F5"/>
<stop offset="0.0561" stop-color="#E2E5E8"/>
<stop offset="0.1383" stop-color="#D4D8DD"/>
<stop offset="0.2425" stop-color="#CCD0D6"/>
<stop offset="0.44" stop-color="#CACED4"/>
<stop offset="0.568" stop-color="#B3B7BD"/>
<stop offset="0.8354" stop-color="#797C83"/>
<stop offset="1" stop-color="#52545C"/>
</linearGradient>
<linearGradient id="paint5_linear_629_1354" x1="81.803" y1="1.10959" x2="81.803" y2="44.4377" gradientUnits="userSpaceOnUse">
<stop stop-color="#F0F3F5"/>
<stop offset="0.0561" stop-color="#E2E5E8"/>
<stop offset="0.1383" stop-color="#D4D8DD"/>
<stop offset="0.2425" stop-color="#CCD0D6"/>
<stop offset="0.44" stop-color="#CACED4"/>
<stop offset="0.568" stop-color="#B3B7BD"/>
<stop offset="0.8354" stop-color="#797C83"/>
<stop offset="1" stop-color="#52545C"/>
</linearGradient>
<linearGradient id="paint6_linear_629_1354" x1="82.3063" y1="0.745237" x2="82.3063" y2="73.0573" gradientUnits="userSpaceOnUse">
<stop stop-color="#F0F3F5"/>
<stop offset="0.0561" stop-color="#E2E5E8"/>
<stop offset="0.1383" stop-color="#D4D8DD"/>
<stop offset="0.2425" stop-color="#CCD0D6"/>
<stop offset="0.44" stop-color="#CACED4"/>
<stop offset="0.568" stop-color="#B3B7BD"/>
<stop offset="0.8354" stop-color="#797C83"/>
<stop offset="1" stop-color="#52545C"/>
</linearGradient>
<linearGradient id="paint7_linear_629_1354" x1="64.6937" y1="0.745227" x2="64.6937" y2="73.0573" gradientUnits="userSpaceOnUse">
<stop stop-color="#F0F3F5"/>
<stop offset="0.0561" stop-color="#E2E5E8"/>
<stop offset="0.1383" stop-color="#D4D8DD"/>
<stop offset="0.2425" stop-color="#CCD0D6"/>
<stop offset="0.44" stop-color="#CACED4"/>
<stop offset="0.568" stop-color="#B3B7BD"/>
<stop offset="0.8354" stop-color="#797C83"/>
<stop offset="1" stop-color="#52545C"/>
</linearGradient>
<linearGradient id="paint8_linear_629_1354" x1="73.4985" y1="1.11437" x2="73.4985" y2="89.596" gradientUnits="userSpaceOnUse">
<stop stop-color="#F0F3F5"/>
<stop offset="0.2533" stop-color="#EDF0F3"/>
<stop offset="0.4056" stop-color="#E5E8EA"/>
<stop offset="0.5313" stop-color="#D7DADC"/>
<stop offset="0.6424" stop-color="#C3C5C9"/>
<stop offset="0.7439" stop-color="#A9ABAF"/>
<stop offset="0.8385" stop-color="#888B90"/>
<stop offset="0.9259" stop-color="#63656B"/>
<stop offset="1" stop-color="#3D3F46"/>
</linearGradient>
<linearGradient id="paint9_linear_629_1354" x1="73.5026" y1="1.10925" x2="73.5026" y2="89.5971" gradientUnits="userSpaceOnUse">
<stop stop-color="#F0F3F5"/>
<stop offset="0.2533" stop-color="#EDF0F3"/>
<stop offset="0.4056" stop-color="#E5E8EA"/>
<stop offset="0.5313" stop-color="#D7DADC"/>
<stop offset="0.6424" stop-color="#C3C5C9"/>
<stop offset="0.7439" stop-color="#A9ABAF"/>
<stop offset="0.8385" stop-color="#888B90"/>
<stop offset="0.9259" stop-color="#63656B"/>
<stop offset="1" stop-color="#3D3F46"/>
</linearGradient>
<linearGradient id="paint10_linear_629_1354" x1="73.5001" y1="1.11797" x2="73.5001" y2="89.6028" gradientUnits="userSpaceOnUse">
<stop stop-color="#F0F3F5"/>
<stop offset="0.2533" stop-color="#EDF0F3"/>
<stop offset="0.4056" stop-color="#E5E8EA"/>
<stop offset="0.5313" stop-color="#D7DADC"/>
<stop offset="0.6424" stop-color="#C3C5C9"/>
<stop offset="0.7439" stop-color="#A9ABAF"/>
<stop offset="0.8385" stop-color="#888B90"/>
<stop offset="0.9259" stop-color="#63656B"/>
<stop offset="1" stop-color="#3D3F46"/>
</linearGradient>
<linearGradient id="paint11_linear_629_1354" x1="73.5005" y1="19.4647" x2="73.5005" y2="44.6826" gradientUnits="userSpaceOnUse">
<stop stop-color="#CACED4"/>
<stop offset="1" stop-color="#52545C"/>
</linearGradient>
</defs>
</svg>
