<svg width="14" height="12" viewBox="0 0 14 12" fill="none" xmlns="http://www.w3.org/2000/svg">
<path d="M9.39174 6.24029C9.39174 7.43666 8.41064 8.40343 7.19654 8.40343C5.98244 8.40343 5.00134 7.43666 5.00134 6.24029C5.00134 5.04392 5.98244 4.07715 7.19654 4.07715C8.41064 4.07715 9.39174 5.04392 9.39174 6.24029Z" stroke="#22C55E" stroke-linecap="round" stroke-linejoin="round"/>
<path d="M7.19653 11.2378C9.36107 11.2378 11.3784 9.98099 12.7826 7.80577C13.3345 6.9538 13.3345 5.52178 12.7826 4.66982C11.3784 2.49459 9.36107 1.23779 7.19653 1.23779C5.032 1.23779 3.01462 2.49459 1.61043 4.66982C1.05857 5.52178 1.05857 6.9538 1.61043 7.80577C3.01462 9.98099 5.032 11.2378 7.19653 11.2378Z" stroke="#22C55E" stroke-linecap="round" stroke-linejoin="round"/>
</svg>
