<svg width="15" height="15" viewBox="0 0 15 15" fill="none" xmlns="http://www.w3.org/2000/svg">
<path d="M9.53814 1.88867H5.44314C3.99064 1.88867 3.66981 2.61201 3.48314 3.49867L2.82397 6.65451H12.1573L11.4981 3.49867C11.3115 2.61201 10.9906 1.88867 9.53814 1.88867Z" stroke="#22C55E" stroke-width="1.17529" stroke-linecap="round" stroke-linejoin="round"/>
<path d="M13.3182 11.7995C13.3824 12.482 12.834 13.0712 12.134 13.0712H11.0374C10.4074 13.0712 10.3199 12.8029 10.209 12.4704L10.0924 12.1204C9.92902 11.642 9.82402 11.3212 8.98402 11.3212H5.99736C5.15736 11.3212 5.03486 11.6829 4.88902 12.1204L4.77236 12.4704C4.66152 12.8029 4.57402 13.0712 3.94402 13.0712H2.84736C2.14736 13.0712 1.59902 12.482 1.66319 11.7995L1.98986 8.24704C2.07152 7.37204 2.24069 6.65454 3.76902 6.65454H11.2124C12.7407 6.65454 12.9099 7.37204 12.9915 8.24704L13.3182 11.7995Z" stroke="#22C55E" stroke-width="1.17529" stroke-linecap="round" stroke-linejoin="round"/>
<path d="M2.82381 4.90454H2.24048" stroke="#22C55E" stroke-width="1.17529" stroke-linecap="round" stroke-linejoin="round"/>
<path d="M12.7406 4.90454H12.1572" stroke="#22C55E" stroke-width="1.17529" stroke-linecap="round" stroke-linejoin="round"/>
<path d="M7.49048 1.98779V3.15446" stroke="#22C55E" stroke-width="1.17529" stroke-linecap="round" stroke-linejoin="round"/>
<path d="M6.6156 3.15454H8.3656" stroke="#22C55E" stroke-width="1.17529" stroke-linecap="round" stroke-linejoin="round"/>
<path d="M3.9906 8.98779H5.7406" stroke="#22C55E" stroke-width="1.17529" stroke-linecap="round" stroke-linejoin="round"/>
<path d="M9.2406 8.98779H10.9906" stroke="#22C55E" stroke-width="1.17529" stroke-linecap="round" stroke-linejoin="round"/>
</svg>
