<svg width="77" height="72" viewBox="0 0 77 72" fill="none" xmlns="http://www.w3.org/2000/svg">
<g clip-path="url(#clip0_163_366)">
<path d="M74.3124 2.59692C55.0978 13.7672 38.1817 2.59692 38.1817 2.59692C38.1817 2.59692 21.2809 13.7672 2.05106 2.59692C2.05106 2.59692 -0.247332 53.8716 38.1817 70.3001C76.6107 53.8716 74.3124 2.59692 74.3124 2.59692Z" fill="#22C55E"/>
<path d="M73.3926 1.17815C62.866 6.82588 49.4587 7.81353 39.0853 1.17815C38.6103 0.872116 37.7369 0.872116 37.2619 1.17815C26.8886 7.81353 13.4813 6.82588 2.95469 1.17815C1.7442 0.52435 0.28856 1.3729 0.242592 2.59704C-0.171118 12.6266 1.62162 22.9762 4.51759 32.6162C6.98453 40.8513 10.9071 48.7387 16.3466 55.7079C19.2732 59.4499 22.7974 62.7606 26.674 65.6819C29.3402 67.685 34.6111 71.9556 38.1813 71.9556C41.2918 71.9556 45.9958 68.2693 48.3555 66.6139C52.37 63.79 56.0015 60.5767 59.0507 56.8764C64.7507 49.9489 68.6579 42.159 71.4313 33.9099C74.7563 23.9916 76.549 13.0161 76.12 2.61095C76.0281 0.496529 72.4119 0.496529 72.5039 2.61095C73.5152 27.0381 63.8773 56.014 38.8708 68.1858C36.1587 69.5073 28.4515 62.7885 26.72 61.3974C23.2111 58.5735 20.2692 55.1932 17.6644 51.6738C12.6539 44.8994 9.49743 37.0955 7.27566 29.2359C4.83937 20.667 3.49098 11.472 3.85872 2.59704C2.95469 3.07 2.05066 3.54296 1.1313 4.01593C12.8224 10.2896 27.4095 11.1799 39.0087 4.07157C38.0128 4.66973 36.6337 3.65425 38.0281 4.47498C39.0394 5.07314 40.1273 5.56001 41.2152 6.03297C44.0805 7.31275 47.145 8.10566 50.2555 8.68991C59.0353 10.3314 67.6619 8.07784 75.216 4.01593C77.2232 2.9448 75.4152 0.10703 73.3926 1.17815Z" fill="white"/>
<path d="M52.8761 41.6998C52.8761 45.0801 49.8422 47.8344 46.1188 47.8344H30.2446C26.5365 47.8344 23.4873 45.0801 23.4873 41.6998V34.7027C23.4873 31.3363 26.5212 28.5681 30.2446 28.5681H46.1188C49.8422 28.5681 52.8761 31.3224 52.8761 34.7027V41.6998Z" fill="white"/>
<path d="M41.3688 36.8171C41.3688 35.2174 39.9438 33.9237 38.1817 33.9237C36.4196 33.9237 34.9946 35.2174 34.9946 36.8171C34.9946 37.6379 35.3777 38.3751 35.9906 38.9037L34.7035 42.8683H41.6446L40.3575 38.9037C40.9857 38.3751 41.3688 37.6379 41.3688 36.8171Z" fill="#25AD96"/>
<path d="M47.1301 29.8062H44.4333V22.4475C44.4333 19.7349 42.0123 17.537 39.0244 17.537H37.339C34.3511 17.537 31.9301 19.7349 31.9301 22.4475V29.8062H29.2333V22.4475C29.2333 18.3856 32.8648 15.0887 37.339 15.0887H39.0244C43.4986 15.0887 47.1301 18.3856 47.1301 22.4475V29.8062Z" fill="white"/>
</g>
<defs>
<clipPath id="clip0_163_366">
<rect width="76" height="71" fill="white" transform="translate(0.181702 0.941528)"/>
</clipPath>
</defs>
</svg>
