<svg width="71" height="71" viewBox="0 0 71 71" fill="none" xmlns="http://www.w3.org/2000/svg">
<path d="M35.8094 0.177124C16.4435 0.177124 0.809357 15.8113 0.809357 35.0742C0.809357 54.5429 16.4435 70.1771 35.8094 70.1771C55.0722 70.1771 70.8094 54.5429 70.8094 35.0742C70.8094 15.8113 55.0594 0.177124 35.8094 0.177124ZM35.8094 67.4106C18.0391 67.4106 3.5759 53.0503 3.5759 35.0742C3.5759 17.4198 18.052 2.94367 35.8094 2.94367C53.5796 2.94367 67.9399 17.4198 67.9399 35.0742C67.9399 53.0503 53.5796 67.4106 35.8094 67.4106ZM42.4105 29.1165L40.0685 26.8775L46.5538 20.2893H46.6568L53.2579 26.8775L50.916 29.1165L46.5538 24.8573L42.4105 29.1165ZM22.5171 29.1165L20.1752 26.8775L26.6605 20.2893H26.7634L33.3645 26.8775L31.0226 29.1165L26.7634 24.8573L22.5171 29.1165ZM55.0594 40.3885C52.7174 48.4694 45.3829 54.3242 36.5428 54.3242C27.9215 54.3242 20.484 48.3665 18.0391 40.3885C22.1825 46.2433 28.8866 50.1679 36.5428 50.1679C44.2119 50.1808 51.1347 46.3462 55.0594 40.3885Z" fill="#22C55E"/>
</svg>
