<svg width="73" height="71" viewBox="0 0 73 71" fill="none" xmlns="http://www.w3.org/2000/svg">
<g clip-path="url(#clip0_161_355)">
<path d="M18.554 46.8826C13.649 46.8826 8.74405 46.1146 6.20155 44.602C5.41405 44.1366 5.05405 43.6944 5.05405 43.6246C5.81905 33.4318 7.77655 31.733 11.6915 28.2888L12.704 27.4045C14.4815 28.2656 16.439 28.7543 18.509 28.7543C19.319 28.7543 20.039 28.6612 20.804 28.5215V23.7509C20.0615 23.9604 19.319 24.1 18.509 24.1C13.379 24.1 9.19405 19.7715 9.19405 14.4657C9.19405 9.15984 13.379 4.83138 18.509 4.83138C23.639 4.83138 27.824 9.15984 27.824 14.4657C27.824 15.2802 27.734 15.8852 27.554 16.6299H32.144C32.2565 15.9085 32.324 15.2104 32.324 14.4657C32.324 6.57672 26.1365 0.177124 18.509 0.177124C10.8815 0.177124 4.69405 6.57672 4.69405 14.4657C4.69405 18.4683 6.29155 22.0987 8.85655 24.6818L8.78905 24.7516C4.10905 28.8473 1.43155 31.7097 0.554047 43.4617C0.554047 44.9045 1.13905 46.9757 3.95155 48.6512C7.14655 50.5594 13.0415 51.5136 18.554 51.5601V46.8826Z" fill="#22C55E"/>
<path d="M18.554 9.50889C21.1865 9.50889 23.3015 11.7197 23.3015 14.4191C23.3015 15.0707 23.7965 15.5827 24.4265 15.5827C25.0565 15.5827 25.5515 15.0707 25.5515 14.4191C25.5515 10.4165 22.4015 7.18176 18.554 7.18176C17.924 7.18176 17.429 7.69373 17.429 8.34533C17.429 8.99692 17.9465 9.50889 18.554 9.50889Z" fill="#22C55E"/>
<path d="M45.4416 16.63C45.2841 15.9318 45.1941 15.2104 45.1941 14.4657C45.1941 9.15988 49.3791 4.83142 54.5091 4.83142C59.6391 4.83142 63.8241 9.15988 63.8241 14.4657C63.8241 19.7716 59.6391 24.1 54.5091 24.1C53.7441 24.1 53.0016 24.007 52.3041 23.8208V28.5681C53.0241 28.6845 53.7666 28.7543 54.5091 28.7543C56.6016 28.7543 58.6041 28.2656 60.3816 27.3813L61.4165 28.2889C65.3316 31.7097 67.2891 33.4318 68.0541 43.4385C68.0541 43.6712 67.6941 44.1133 66.9066 44.602C64.3641 46.1147 59.4591 46.8826 54.5541 46.8826V51.5601C60.0666 51.5136 65.9616 50.5595 69.1566 48.6512C71.9691 46.9524 72.5541 44.8813 72.5541 43.2756C71.6766 31.733 68.9991 28.8474 64.3416 24.7516L64.229 24.6586C66.7715 22.0754 68.3465 18.4684 68.3465 14.489C68.3465 6.60004 62.1591 0.200439 54.5316 0.200439C46.9041 0.200439 40.7166 6.60004 40.7166 14.489C40.7166 15.2337 40.7841 15.9551 40.8741 16.6532L45.4416 16.63Z" fill="#22C55E"/>
<path d="M61.574 14.4191C61.574 10.4165 58.424 7.18176 54.5765 7.18176C53.9465 7.18176 53.4515 7.69373 53.4515 8.34533C53.4515 8.99692 53.9465 9.50889 54.5765 9.50889C57.1865 9.50889 59.324 11.7197 59.324 14.4191C59.324 15.0707 59.819 15.5827 60.449 15.5827C61.079 15.5827 61.574 15.0707 61.574 14.4191Z" fill="#22C55E"/>
<path d="M59.9316 33.8739C63.2616 35.596 63.2616 41.2044 63.2616 43.0428C63.2616 43.6944 63.7566 44.2064 64.3866 44.2064C65.0166 44.2064 65.5116 43.6944 65.5116 43.0428C65.5116 40.8553 65.5116 34.1532 60.9441 31.8028C60.3816 31.5235 59.7066 31.7562 59.4366 32.3147C59.1441 32.8965 59.3691 33.5947 59.9316 33.8739Z" fill="#22C55E"/>
<path d="M36.554 28.126C39.164 28.126 41.3015 30.3367 41.3015 33.0362C41.3015 33.6878 41.7965 34.1998 42.4265 34.1998C43.0565 34.1998 43.5515 33.6878 43.5515 33.0362C43.5515 29.0335 40.4015 25.7988 36.554 25.7988C35.924 25.7988 35.429 26.3108 35.429 26.9624C35.429 27.614 35.9465 28.126 36.554 28.126Z" fill="#22C55E"/>
<path d="M42.9441 50.4198C42.4041 50.1406 41.7066 50.3733 41.4366 50.9318C41.1666 51.5136 41.3916 52.2117 41.9316 52.491C45.2616 54.2131 45.2616 59.8214 45.2616 61.6599C45.2616 62.3115 45.7566 62.8234 46.3866 62.8234C47.0166 62.8234 47.5116 62.3115 47.5116 61.6599C47.5116 59.4724 47.5116 52.7935 42.9441 50.4198Z" fill="#22C55E"/>
<path d="M46.319 43.3686L46.2065 43.2755C48.749 40.6924 50.324 37.0853 50.324 33.1059C50.324 25.217 44.1365 18.8174 36.509 18.8174C28.8815 18.8174 22.694 25.217 22.694 33.1059C22.694 37.1086 24.2915 40.7389 26.8565 43.322L26.789 43.3918C22.1315 47.4643 19.4315 50.3267 18.554 62.0787C18.554 63.5215 19.139 65.5926 21.9515 67.2682C25.2365 69.223 30.884 70.2004 36.554 70.2004C42.224 70.2004 47.894 69.223 51.1565 67.2682C53.969 65.5694 54.554 63.4982 54.554 61.8925C53.6765 50.3267 50.999 47.4643 46.319 43.3686ZM45.824 33.0827C45.824 38.3885 41.639 42.717 36.509 42.717C31.379 42.717 27.194 38.3885 27.194 33.0827C27.194 27.7768 31.379 23.4484 36.509 23.4484C41.6615 23.4484 45.824 27.7768 45.824 33.0827ZM24.2015 63.219C23.414 62.7536 23.054 62.2881 23.054 62.2416C23.819 52.0488 25.7765 50.35 29.6915 46.9058L30.704 46.0215C30.9065 46.1146 31.0865 46.2077 31.289 46.3008L34.5515 50.955L30.5915 60.3101L34.664 65.453C30.434 65.2901 26.429 64.5454 24.2015 63.219ZM48.9065 63.219C46.679 64.5454 42.629 65.2901 38.354 65.453L42.4265 60.2868L38.4665 50.9317L41.729 46.2775C41.954 46.1844 42.1565 46.0913 42.359 45.975L43.394 46.8825C47.309 50.3034 49.2665 52.0255 50.0315 62.0321C50.054 62.3114 49.694 62.7536 48.9065 63.219Z" fill="#22C55E"/>
</g>
<defs>
<clipPath id="clip0_161_355">
<rect width="72" height="70" fill="white" transform="translate(0.554047 0.177124)"/>
</clipPath>
</defs>
</svg>
