<svg width="126" height="192" viewBox="0 0 126 192" fill="none" xmlns="http://www.w3.org/2000/svg">
<mask id="mask0_396_5683" style="mask-type:luminance" maskUnits="userSpaceOnUse" x="-1" y="-1" width="128" height="193">
<path d="M-0.00119781 192H126.465V-0.000320435H-0.00119781V192Z" fill="white"/>
</mask>
<g mask="url(#mask0_396_5683)">
<path d="M39.8329 40.3879L48.0312 46.1912L18.5358 64.0078L18.6741 25.4058L39.8329 40.3879Z" fill="#71C98E"/>
<path d="M2.93224 33.051L-1.71815 36.3429L15.0137 46.4492L14.9352 24.5531L2.93224 33.051Z" fill="#41AB8A"/>
</g>
<mask id="mask1_396_5683" style="mask-type:luminance" maskUnits="userSpaceOnUse" x="-1" y="-1" width="128" height="193">
<path d="M-0.00119781 192H126.465V-0.000320435H-0.00119781V192Z" fill="white"/>
</mask>
<g mask="url(#mask1_396_5683)">
<path d="M118.106 40.9805L118.256 -1.19036L118.253 -1.1918L86.0303 18.2708V18.2751L86.0276 18.2736L53.8047 37.7362V37.7406V37.7362L86.0276 18.2736L86.0303 18.2751V18.2708L118.253 -1.1918L118.256 -1.19036L118.106 40.9805Z" fill="#86EFAC"/>
<path opacity="0.5" d="M118.103 40.9825L118.105 40.984L117.954 83.1548L117.951 83.1562L85.8799 60.4494V60.4465L118.103 40.9825Z" fill="#86EFAC"/>
<path d="M53.958 -4.43305L86.0293 18.2737L53.8064 37.7363L53.958 -4.43305Z" fill="#86EFAC"/>
<path opacity="0.3" d="M86.032 18.2705L86.0293 18.2734L53.958 -4.43336V-4.4377L86.1809 -23.9017L86.1836 -23.8988L86.032 18.2705Z" fill="#86EFAC"/>
<path d="M117.955 83.1545L118.106 40.9837L150.178 63.6905L117.955 83.1545Z" fill="#86EFAC"/>
<path d="M118.253 -1.19046L118.256 -1.18901L118.106 40.9818V40.9847L118.103 40.9833L85.88 60.4473L86.0303 18.2764V18.2721L118.253 -1.19046Z" fill="#75CC92"/>
<path d="M86.1826 -23.8979L118.254 -1.19108L86.031 18.2715L86.1826 -23.8979Z" fill="#86EFAC"/>
<path opacity="0.5" d="M53.8054 37.7373L53.8028 37.7402L21.7315 15.0334V15.0291L53.9544 -4.43493L53.957 -4.43203L53.8054 37.7373Z" fill="#86EFAC"/>
<path d="M117.952 83.1548L117.955 83.1531V83.1582L117.952 83.1548Z" fill="#86EFAC"/>
<path d="M21.729 15.0298L21.7324 15.0281V15.0332L21.729 15.0298Z" fill="#86EFAC"/>
<path d="M86.0278 18.2737L86.0312 18.2703V18.2754L86.0278 18.2737Z" fill="#86EFAC"/>
<path d="M53.8047 37.7402L53.8013 37.7385L53.8047 37.7351V37.7402Z" fill="#86EFAC"/>
<path d="M42.8193 84.649V84.6446L75.0423 65.1821L75.0449 65.1835L74.8947 107.347L42.826 84.6432L42.6757 126.813L74.8947 107.351V107.353L74.8907 107.356L42.6691 126.818L42.8193 84.649Z" fill="#86EFAC"/>
<path d="M42.8252 84.6431L74.8938 107.347L74.8965 107.35L74.8938 107.351L42.6749 126.812L42.8252 84.6431Z" fill="#86EFAC"/>
</g>
<mask id="mask2_396_5683" style="mask-type:luminance" maskUnits="userSpaceOnUse" x="-1" y="-1" width="128" height="193">
<path d="M-0.00119781 192H126.465V-0.000320435H-0.00119781V192Z" fill="white"/>
</mask>
<g mask="url(#mask2_396_5683)">
<path d="M19.3969 195.338L19.3929 195.34L-16.0588 170.241V170.234L-16.0628 170.231L19.5605 148.713L19.5645 148.716L19.3969 195.338Z" fill="#9FF4BC"/>
</g>
</svg>
