<svg width="127" height="192" viewBox="0 0 127 192" fill="none" xmlns="http://www.w3.org/2000/svg">
<mask id="mask0_396_5794" style="mask-type:luminance" maskUnits="userSpaceOnUse" x="0" y="-1" width="127" height="193">
<path d="M126.466 192H0V-0.000320435H126.466V192Z" fill="white"/>
</mask>
<g mask="url(#mask0_396_5794)">
<path d="M86.6319 40.3879L78.4336 46.1912L107.929 64.0078L107.791 25.4058L86.6319 40.3879Z" fill="#71C98E"/>
<path d="M123.533 33.051L128.183 36.3429L111.451 46.4492L111.53 24.5531L123.533 33.051Z" fill="#41AB8A"/>
</g>
<mask id="mask1_396_5794" style="mask-type:luminance" maskUnits="userSpaceOnUse" x="0" y="-1" width="127" height="193">
<path d="M126.466 192H0V-0.000320435H126.466V192Z" fill="white"/>
</mask>
<g mask="url(#mask1_396_5794)">
<path d="M8.35925 40.9805L8.20898 -1.19036L8.21164 -1.1918L40.4346 18.2708V18.2751L40.4372 18.2736L72.6601 37.7362V37.7406V37.7362L40.4372 18.2736L40.4346 18.2751V18.2708L8.21164 -1.1918L8.20898 -1.19036L8.35925 40.9805Z" fill="#86EFAC"/>
<path opacity="0.5" d="M8.36204 40.9825L8.35938 40.984L8.51097 83.1548L8.51363 83.1562L40.5849 60.4494V60.4465L8.36204 40.9825Z" fill="#86EFAC"/>
<path d="M72.5069 -4.43305L40.4355 18.2737L72.6585 37.7363L72.5069 -4.43305Z" fill="#86EFAC"/>
<path opacity="0.3" d="M40.4328 18.2705L40.4355 18.2734L72.5068 -4.43336V-4.4377L40.2839 -23.9017L40.2812 -23.8988L40.4328 18.2705Z" fill="#86EFAC"/>
<path d="M8.51003 83.1545L8.35843 40.9837L-23.7129 63.6905L8.51003 83.1545Z" fill="#86EFAC"/>
<path d="M8.21164 -1.19046L8.20898 -1.18901L8.35925 40.9818V40.9847L8.36192 40.9833L40.5848 60.4473L40.4346 18.2764V18.2721L8.21164 -1.19046Z" fill="#75CC92"/>
<path d="M40.2823 -23.8979L8.21094 -1.19108L40.4339 18.2715L40.2823 -23.8979Z" fill="#86EFAC"/>
<path opacity="0.5" d="M72.6594 37.7373L72.6621 37.7402L104.733 15.0334V15.0291L72.5105 -4.43493L72.5078 -4.43203L72.6594 37.7373Z" fill="#86EFAC"/>
<path d="M8.51318 83.1548L8.50977 83.1531V83.1582L8.51318 83.1548Z" fill="#86EFAC"/>
<path d="M104.736 15.0298L104.732 15.0281V15.0332L104.736 15.0298Z" fill="#86EFAC"/>
<path d="M40.437 18.2737L40.4336 18.2703V18.2754L40.437 18.2737Z" fill="#86EFAC"/>
<path d="M72.6602 37.7402L72.6636 37.7385L72.6602 37.7351V37.7402Z" fill="#86EFAC"/>
<path d="M83.6455 84.649V84.6446L51.4226 65.1821L51.4199 65.1835L51.5702 107.347L83.6388 84.6432L83.7891 126.813L51.5702 107.351V107.353L51.5742 107.356L83.7958 126.818L83.6455 84.649Z" fill="#86EFAC"/>
<path d="M83.6397 84.6431L51.571 107.347L51.5684 107.35L51.571 107.351L83.7899 126.812L83.6397 84.6431Z" fill="#86EFAC"/>
</g>
<mask id="mask2_396_5794" style="mask-type:luminance" maskUnits="userSpaceOnUse" x="0" y="-1" width="127" height="193">
<path d="M126.466 192H0V-0.000320435H126.466V192Z" fill="white"/>
</mask>
<g mask="url(#mask2_396_5794)">
<path d="M107.068 195.338L107.072 195.34L142.524 170.241V170.234L142.528 170.231L106.904 148.713L106.9 148.716L107.068 195.338Z" fill="#9FF4BC"/>
</g>
</svg>
