<svg width="190" height="289" viewBox="0 0 190 289" fill="none" xmlns="http://www.w3.org/2000/svg">
<mask id="mask0_139_3007" style="mask-type:luminance" maskUnits="userSpaceOnUse" x="0" y="0" width="190" height="289">
<path d="M0 288.528H190V0.0707092H0V288.528Z" fill="white"/>
</mask>
<g mask="url(#mask0_139_3007)">
<path d="M59.847 60.7485L72.164 69.4672L27.8506 96.2346L28.0584 38.2397L59.847 60.7485Z" fill="#71C98E"/>
<path d="M4.40739 49.7261L-2.57925 54.6716L22.5583 69.8552L22.4404 36.9589L4.40739 49.7261Z" fill="#41AB8A"/>
</g>
<mask id="mask1_139_3007" style="mask-type:luminance" maskUnits="userSpaceOnUse" x="0" y="0" width="190" height="289">
<path d="M0 288.528H190V0.0707092H0V288.528Z" fill="white"/>
</mask>
<g mask="url(#mask1_139_3007)">
<path d="M177.443 61.6392L177.669 -1.71743L177.665 -1.7196L129.254 27.5206V27.5271L129.25 27.5249L80.8389 56.7651V56.7716V56.7651L129.25 27.5249L129.254 27.5271V27.5206L177.665 -1.7196L177.669 -1.71743L177.443 61.6392Z" fill="#86EFAC"/>
<path opacity="0.5" d="M177.439 61.6415L177.443 61.6437L177.215 125L177.211 125.002L129.028 90.8882V90.8838L177.439 61.6415Z" fill="#86EFAC"/>
<path d="M81.0667 -6.58928L129.25 27.525L80.8389 56.7651L81.0667 -6.58928Z" fill="#86EFAC"/>
<path opacity="0.3" d="M129.254 27.5208L129.25 27.5251L81.0667 -6.58909V-6.5956L129.478 -35.838L129.482 -35.8336L129.254 27.5208Z" fill="#86EFAC"/>
<path d="M177.215 125L177.443 61.6437L225.626 95.7579L177.215 125Z" fill="#86EFAC"/>
<path d="M177.665 -1.71971L177.669 -1.71754L177.443 61.639V61.6434L177.439 61.6412L129.028 90.8835L129.254 27.527V27.5204L177.665 -1.71971Z" fill="#75CC92"/>
<path d="M129.482 -35.8337L177.665 -1.7194L129.254 27.5208L129.482 -35.8337Z" fill="#86EFAC"/>
<path opacity="0.5" d="M80.8389 56.7649L80.8349 56.7693L32.6516 22.655V22.6485L81.0627 -6.59381L81.0667 -6.58947L80.8389 56.7649Z" fill="#86EFAC"/>
<path d="M177.211 125.002L177.215 124.999V125.007L177.211 125.002Z" fill="#86EFAC"/>
<path d="M32.6468 22.6505L32.6516 22.6481V22.6553L32.6468 22.6505Z" fill="#86EFAC"/>
<path d="M129.249 27.5247L129.254 27.5199V27.5271L129.249 27.5247Z" fill="#86EFAC"/>
<path d="M80.8389 56.7717L80.8341 56.7693L80.8389 56.7645V56.7717Z" fill="#86EFAC"/>
<path d="M64.3343 127.245V127.239L112.745 97.9988L112.749 98.0009L112.524 161.347L64.3443 127.237L64.1185 190.591L112.524 161.353V161.355L112.518 161.36L64.1085 190.6L64.3343 127.245Z" fill="#86EFAC"/>
<path d="M64.3442 127.237L112.524 161.347L112.528 161.351L112.524 161.353L64.1185 190.591L64.3442 127.237Z" fill="#86EFAC"/>
</g>
<mask id="mask2_139_3007" style="mask-type:luminance" maskUnits="userSpaceOnUse" x="0" y="0" width="190" height="289">
<path d="M0 288.528H190V0.0707092H0V288.528Z" fill="white"/>
</mask>
<g mask="url(#mask2_139_3007)">
<path d="M29.1433 293.543L29.1374 293.545L-24.1246 255.838V255.827L-24.1306 255.823L29.3891 223.494L29.3951 223.499L29.1433 293.543Z" fill="#9FF4BC"/>
</g>
</svg>
