<svg width="251" height="390" viewBox="0 0 251 390" fill="none" xmlns="http://www.w3.org/2000/svg">
<mask id="mask0_139_2968" style="mask-type:luminance" maskUnits="userSpaceOnUse" x="-1" y="0" width="252" height="390">
<path d="M251 0.562744H-1V389.383H251V0.562744Z" fill="white"/>
</mask>
<g mask="url(#mask0_139_2968)">
<path d="M171.624 307.594L155.288 295.842L214.061 259.761L213.786 337.934L171.624 307.594Z" fill="#71C98E"/>
<path d="M245.154 322.452L254.421 315.785L221.081 295.319L221.237 339.661L245.154 322.452Z" fill="#41AB8A"/>
</g>
<mask id="mask1_139_2968" style="mask-type:luminance" maskUnits="userSpaceOnUse" x="-1" y="0" width="252" height="390">
<path d="M251 0.562744H-1V389.383H251V0.562744Z" fill="white"/>
</mask>
<g mask="url(#mask1_139_2968)">
<path d="M15.6543 306.393L15.3549 391.793L15.3602 391.796L79.5685 352.383V352.374L79.5738 352.377L143.782 312.963V312.954V312.963L79.5738 352.377L79.5685 352.374V352.383L15.3602 391.796L15.3549 391.793L15.6543 306.393Z" fill="#86EFAC"/>
<path opacity="0.5" d="M15.6596 306.39L15.6543 306.387L15.9564 220.987L15.9617 220.984L79.8679 266.968V266.973L15.6596 306.39Z" fill="#86EFAC"/>
<path d="M143.48 398.361L79.5738 352.377L143.782 312.963L143.48 398.361Z" fill="#86EFAC"/>
<path opacity="0.3" d="M79.5685 352.383L79.5738 352.377L143.48 398.36V398.369L79.2717 437.786L79.2664 437.78L79.5685 352.383Z" fill="#86EFAC"/>
<path d="M15.9564 220.987L15.6543 306.387L-48.252 260.404L15.9564 220.987Z" fill="#86EFAC"/>
<path d="M15.3602 391.796L15.3549 391.794L15.6543 306.393V306.387L15.6596 306.39L79.8679 266.974L79.5685 352.374V352.383L15.3602 391.796Z" fill="#75CC92"/>
<path d="M79.2664 437.78L15.3602 391.797L79.5685 352.383L79.2664 437.78Z" fill="#86EFAC"/>
<path opacity="0.5" d="M143.782 312.963L143.787 312.958L207.694 358.941V358.95L143.485 398.367L143.48 398.361L143.782 312.963Z" fill="#86EFAC"/>
<path d="M15.9622 220.984L15.9564 220.987V220.979L15.9622 220.984Z" fill="#86EFAC"/>
<path d="M207.699 358.947L207.694 358.95V358.941L207.699 358.947Z" fill="#86EFAC"/>
<path d="M79.5743 352.377L79.5685 352.383V352.374L79.5743 352.377Z" fill="#86EFAC"/>
<path d="M143.782 312.954L143.788 312.957L143.782 312.963V312.954Z" fill="#86EFAC"/>
<path d="M165.672 217.961V217.969L101.464 257.383L101.459 257.38L101.758 171.994L165.659 217.972L165.959 132.575L101.758 171.986V171.983L101.766 171.977L165.972 132.563L165.672 217.961Z" fill="#86EFAC"/>
<path d="M165.659 217.972L101.758 171.995L101.753 171.989L101.758 171.986L165.959 132.575L165.659 217.972Z" fill="#86EFAC"/>
</g>
<mask id="mask2_139_2968" style="mask-type:luminance" maskUnits="userSpaceOnUse" x="-1" y="0" width="252" height="390">
<path d="M251 0.562744H-1V389.383H251V0.562744Z" fill="white"/>
</mask>
<g mask="url(#mask2_139_2968)">
<path d="M212.347 -6.19679L212.355 -6.19971L282.997 44.6274V44.642L283.005 44.6479L212.021 88.2244L212.013 88.2186L212.347 -6.19679Z" fill="#9FF4BC"/>
</g>
</svg>
