<svg width="126" height="192" viewBox="0 0 126 192" fill="none" xmlns="http://www.w3.org/2000/svg">
<g opacity="0.85">
<mask id="mask0_396_5719" style="mask-type:luminance" maskUnits="userSpaceOnUse" x="-1" y="0" width="128" height="193">
<path d="M-0.00119781 0H126.465V192H-0.00119781V0Z" fill="white"/>
</mask>
<g mask="url(#mask0_396_5719)">
<path d="M39.8329 151.612L48.0312 145.809L18.5358 127.992L18.6741 166.594L39.8329 151.612Z" fill="#71C98E"/>
<path d="M2.93224 158.949L-1.71815 155.657L15.0137 145.551L14.9352 167.447L2.93224 158.949Z" fill="#41AB8A"/>
</g>
<mask id="mask1_396_5719" style="mask-type:luminance" maskUnits="userSpaceOnUse" x="-1" y="0" width="128" height="193">
<path d="M-0.00119781 0H126.465V192H-0.00119781V0Z" fill="white"/>
</mask>
<g mask="url(#mask1_396_5719)">
<path d="M118.106 151.02L118.256 193.19L118.253 193.192L86.0303 173.729V173.725L86.0276 173.726L53.8047 154.264V154.259V154.264L86.0276 173.726L86.0303 173.725V173.729L118.253 193.192L118.256 193.19L118.106 151.02Z" fill="#86EFAC"/>
<path opacity="0.5" d="M118.103 151.017L118.105 151.016L117.954 108.845L117.951 108.844L85.8799 131.551V131.553L118.103 151.017Z" fill="#86EFAC"/>
<path d="M53.958 196.433L86.0293 173.726L53.8064 154.264L53.958 196.433Z" fill="#86EFAC"/>
<path opacity="0.3" d="M86.032 173.729L86.0293 173.727L53.958 196.433V196.438L86.1809 215.902L86.1836 215.899L86.032 173.729Z" fill="#86EFAC"/>
<path d="M117.955 108.845L118.106 151.016L150.178 128.309L117.955 108.845Z" fill="#86EFAC"/>
<path d="M118.253 193.19L118.256 193.189L118.106 151.018V151.015L118.103 151.017L85.88 131.553L86.0303 173.724V173.728L118.253 193.19Z" fill="#75CC92"/>
<path d="M86.1826 215.898L118.254 193.191L86.031 173.729L86.1826 215.898Z" fill="#86EFAC"/>
<path opacity="0.5" d="M53.8054 154.263L53.8028 154.26L21.7315 176.967V176.971L53.9544 196.435L53.957 196.432L53.8054 154.263Z" fill="#86EFAC"/>
<path d="M117.952 108.845L117.955 108.847V108.842L117.952 108.845Z" fill="#86EFAC"/>
<path d="M21.729 176.97L21.7324 176.972V176.967L21.729 176.97Z" fill="#86EFAC"/>
<path d="M86.0278 173.726L86.0312 173.73V173.725L86.0278 173.726Z" fill="#86EFAC"/>
<path d="M53.8047 154.26L53.8013 154.261L53.8047 154.265V154.26Z" fill="#86EFAC"/>
<path d="M42.8193 107.351V107.355L75.0423 126.818L75.0449 126.816L74.8947 84.6529L42.826 107.357L42.6757 65.1874L74.8947 84.6485V84.6471L74.8907 84.6442L42.6691 65.1816L42.8193 107.351Z" fill="#86EFAC"/>
<path d="M42.8252 107.357L74.8938 84.653L74.8965 84.6501L74.8938 84.6486L42.6749 65.1875L42.8252 107.357Z" fill="#86EFAC"/>
</g>
<mask id="mask2_396_5719" style="mask-type:luminance" maskUnits="userSpaceOnUse" x="-1" y="0" width="128" height="193">
<path d="M-0.00119781 0H126.465V192H-0.00119781V0Z" fill="white"/>
</mask>
<g mask="url(#mask2_396_5719)">
<path d="M19.3969 -3.3384L19.3929 -3.33984L-16.0588 21.7587V21.7659L-16.0628 21.7688L19.5605 43.287L19.5645 43.2841L19.3969 -3.3384Z" fill="#9FF4BC"/>
</g>
</g>
</svg>
