<svg width="281" height="281" viewBox="0 0 281 281" fill="none" xmlns="http://www.w3.org/2000/svg">
<path d="M190.798 7.64965C169.782 2.96782 147.932 0.72307 126.568 2.15346C107.633 3.42158 86.1694 6.88237 70.9316 19.2781C63.6697 25.185 55.0106 35.8007 52.6345 45.1644C52.6345 45.1654 40.1318 94.4548 15.1265 105.017C-9.87874 115.58 -27.243 295.843 162.379 278.238C162.379 278.238 273.752 273.625 280.458 140.755C282.078 108.658 281.174 73.3716 261.766 46.5337C246.894 25.9673 226.059 16.823 202.116 10.4243C198.376 9.42362 194.601 8.49707 190.798 7.64965Z" fill="#F4F7FA"/>
<path d="M199.194 4.17586C194.97 1.23193 188.823 -0.0562199 183.722 0.00187728C147.558 0.407556 148.486 75.8898 155.375 92.2101C162.266 108.53 159.148 114.332 131.554 125.43C103.96 136.527 118.934 152.31 123.198 161.908C127.462 171.506 134.983 179.292 115.148 190.803C95.3137 202.314 102.988 207.808 102.988 207.808C102.988 207.808 144.255 243.572 141.128 231.295C138 219.017 140.264 199.905 174.277 195.677C188.928 193.856 210.865 185.005 214.556 168.876C215.415 165.12 215.763 159.463 214.569 155.746C212.912 150.591 209.116 146.733 206.791 141.943C201.373 130.783 211.889 121.42 217.707 113.186C220.744 108.887 223.771 104.486 225.974 99.6876C230.546 89.7259 227.701 79.6781 221.148 71.3793C218.005 67.3996 213.751 63.2527 212.119 58.3324C210.366 53.0466 210.902 45.5851 210.756 40.0108C210.643 35.6395 210.701 31.2712 210.097 26.9289C208.974 18.8544 206.257 9.09709 199.194 4.17586Z" fill="#39802E"/>
<mask id="mask0_396_5550" style="mask-type:luminance" maskUnits="userSpaceOnUse" x="101" y="0" width="128" height="234">
<path d="M199.194 4.17586C194.97 1.23193 188.823 -0.0562199 183.722 0.00187728C147.558 0.407556 148.486 75.8898 155.375 92.2101C162.266 108.53 159.148 114.332 131.554 125.43C103.96 136.527 118.934 152.31 123.198 161.908C127.462 171.506 134.983 179.292 115.148 190.803C95.3137 202.314 102.988 207.808 102.988 207.808C102.988 207.808 144.255 243.572 141.128 231.295C138 219.017 140.264 199.905 174.277 195.677C188.928 193.856 210.865 185.005 214.556 168.876C215.415 165.12 215.763 159.463 214.569 155.746C212.912 150.591 209.116 146.733 206.791 141.943C201.373 130.783 211.889 121.42 217.707 113.186C220.744 108.887 223.771 104.486 225.974 99.6876C230.546 89.7259 227.701 79.6781 221.148 71.3793C218.005 67.3996 213.751 63.2527 212.119 58.3324C210.366 53.0466 210.902 45.5851 210.756 40.0108C210.643 35.6395 210.701 31.2712 210.097 26.9289C208.974 18.8544 206.257 9.09709 199.194 4.17586Z" fill="white"/>
</mask>
<g mask="url(#mask0_396_5550)">
<g opacity="0.8">
<path d="M101.789 229.88C101.55 229.988 101.261 229.907 101.118 229.68C100.96 229.431 101.035 229.102 101.283 228.944C101.436 228.848 116.77 219.114 133.507 203.782C148.93 189.655 168.733 167.749 175.496 143.618C181.144 123.463 185.103 90.5869 186.356 53.4177C187.481 20.088 186.079 -4.37896 184.074 -8.77831C183.951 -9.04576 184.07 -9.36229 184.338 -9.48349C184.607 -9.6047 184.923 -9.4875 185.045 -9.21905C187.39 -4.07345 188.435 23.4556 187.423 53.4538C186.166 90.7041 182.193 123.672 176.523 143.905C169.69 168.284 149.744 190.357 134.213 204.581C117.407 219.973 102.005 229.748 101.852 229.845C101.832 229.858 101.811 229.87 101.789 229.88Z" fill="white"/>
<path d="M186.825 59.8218C186.558 59.943 186.272 59.8899 186.149 59.6235C185.985 59.2709 169.621 24.3595 151.668 17.6463C151.392 17.5431 151.26 17.2516 151.363 16.9762C151.466 16.7007 151.777 16.5685 152.053 16.6717C170.416 23.5372 186.442 57.7173 187.116 59.1707C187.239 59.4382 187.097 59.6976 186.829 59.8188C186.827 59.8208 186.826 59.8218 186.825 59.8218Z" fill="white"/>
<path d="M183.724 102.122C183.524 102.212 183.281 102.174 183.12 102.008C182.914 101.796 182.919 101.46 183.131 101.254C183.222 101.165 192.426 92.2713 204.044 84.4893C219.741 73.9737 232.139 70.3807 240.892 73.8104C241.166 73.9176 241.301 74.2271 241.194 74.5006C241.085 74.7741 240.776 74.9093 240.503 74.8021C220.364 66.9119 184.237 101.667 183.875 102.019C183.829 102.063 183.778 102.097 183.724 102.122Z" fill="white"/>
<path d="M147.785 191.009C147.733 191.033 147.676 191.048 147.615 191.054C147.322 191.083 147.061 190.869 147.033 190.575C147.018 190.421 145.473 174.992 140.895 158.978C136.698 144.296 129.029 126.101 116.329 122.806C116.044 122.732 115.873 122.441 115.947 122.157C116.021 121.872 116.312 121.701 116.597 121.775C127.187 124.523 135.708 136.946 141.924 158.7C146.526 174.805 148.079 190.317 148.094 190.472C148.117 190.704 147.986 190.917 147.785 191.009Z" fill="white"/>
<path d="M167.697 164.244C167.488 164.339 167.233 164.291 167.074 164.11C166.879 163.889 166.902 163.552 167.124 163.359C168.732 161.954 206.678 128.991 222.659 130.531C222.952 130.559 223.168 130.819 223.138 131.112C223.11 131.404 222.85 131.62 222.557 131.591C207.028 130.095 168.216 163.819 167.826 164.16C167.787 164.195 167.743 164.223 167.697 164.244Z" fill="white"/>
</g>
</g>
<path d="M267.843 46.0852C265.219 41.6578 260.16 37.9426 255.493 35.8842C222.41 21.2918 191.942 90.3753 191.442 108.08C190.943 125.785 185.699 129.775 155.98 128.459C126.262 127.144 133.343 147.702 133.243 158.202C133.143 168.701 136.757 178.899 113.93 181.17C91.102 183.441 95.8072 191.617 95.8072 191.617C95.8072 191.617 118.53 241.241 120.777 228.772C123.025 216.303 133.012 199.845 165.724 210.07C179.813 214.473 203.45 215.494 213.502 202.342C215.842 199.279 218.506 194.274 218.96 190.397C219.59 185.019 217.736 179.937 217.607 174.616C217.306 162.216 230.76 158.047 239.472 152.959C244.019 150.303 248.6 147.549 252.595 144.093C260.889 136.918 262.468 126.597 259.946 116.332C258.737 111.41 256.586 105.875 257.142 100.722C257.739 95.1854 261.321 88.6154 263.502 83.4828C265.212 79.4571 267.077 75.5054 268.329 71.3034C270.655 63.4914 272.229 53.4866 267.843 46.0852Z" fill="#39802E"/>
<mask id="mask1_396_5550" style="mask-type:luminance" maskUnits="userSpaceOnUse" x="95" y="33" width="176" height="198">
<path d="M267.843 46.0852C265.219 41.6578 260.16 37.9426 255.493 35.8842C222.41 21.2918 191.942 90.3753 191.442 108.08C190.943 125.785 185.699 129.775 155.98 128.459C126.262 127.144 133.343 147.702 133.243 158.202C133.143 168.701 136.757 178.899 113.93 181.17C91.102 183.441 95.8072 191.617 95.8072 191.617C95.8072 191.617 118.53 241.241 120.777 228.772C123.025 216.303 133.012 199.845 165.724 210.07C179.813 214.473 203.45 215.494 213.502 202.342C215.842 199.279 218.506 194.274 218.96 190.397C219.59 185.019 217.736 179.937 217.607 174.616C217.306 162.216 230.76 158.047 239.472 152.959C244.019 150.303 248.6 147.549 252.595 144.093C260.889 136.918 262.468 126.597 259.946 116.332C258.737 111.41 256.586 105.875 257.142 100.722C257.739 95.1854 261.321 88.6154 263.502 83.4828C265.212 79.4571 267.077 75.5054 268.329 71.3034C270.655 63.4914 272.229 53.4866 267.843 46.0852Z" fill="white"/>
</mask>
<g mask="url(#mask1_396_5550)">
<g opacity="0.8">
<path d="M85.56 211.21C85.2972 211.21 85.0685 211.017 85.0324 210.75C84.9923 210.459 85.1959 210.19 85.4888 210.15C85.6683 210.125 103.661 207.611 125.255 200.581C145.152 194.104 172.264 182.36 188.43 163.195C201.931 147.188 219.172 118.903 235.733 85.593C250.583 55.723 259.457 32.8748 259.457 28.0407C259.457 27.7462 259.695 27.5078 259.99 27.5078C260.285 27.5078 260.524 27.7462 260.524 28.0407C260.524 33.6942 250.054 59.1828 236.689 86.0667C220.092 119.451 202.8 147.812 189.246 163.881C172.915 183.242 145.604 195.079 125.568 201.6C103.887 208.657 85.8137 211.181 85.6342 211.206C85.6091 211.209 85.584 211.21 85.56 211.21Z" fill="white"/>
<path d="M233.503 91.7939C233.21 91.7939 232.971 91.5375 232.969 91.244C232.966 90.8553 232.555 52.2658 219 38.7282C218.792 38.5198 218.792 38.1772 219 37.9699C219.209 37.7615 219.546 37.7595 219.754 37.9669C233.62 51.813 234.025 89.6353 234.036 91.238C234.038 91.5325 233.801 91.7939 233.507 91.7939C233.506 91.7939 233.505 91.7939 233.503 91.7939Z" fill="white"/>
<path d="M213.132 128.829C212.913 128.829 212.707 128.694 212.629 128.476C212.53 128.198 212.674 127.894 212.951 127.795C213.071 127.752 225.137 123.464 238.939 121.188C257.588 118.111 270.363 119.971 276.907 126.714C277.111 126.925 277.106 127.263 276.894 127.467C276.683 127.671 276.345 127.666 276.14 127.455C261.084 111.942 213.785 128.627 213.31 128.798C213.252 128.819 213.192 128.829 213.132 128.829Z" fill="white"/>
<path d="M143.549 194.861C143.492 194.861 143.434 194.852 143.376 194.832C143.098 194.737 142.949 194.433 143.044 194.156C143.095 194.01 148.09 179.328 150.566 162.859C152.837 147.758 153.405 128.026 143.213 119.773C142.984 119.587 142.949 119.252 143.135 119.023C143.32 118.795 143.656 118.76 143.885 118.945C152.384 125.828 154.985 140.66 151.619 163.031C149.127 179.594 144.105 194.353 144.054 194.5C143.977 194.722 143.771 194.861 143.549 194.861Z" fill="white"/>
<path d="M172.775 178.74C172.546 178.74 172.334 178.591 172.265 178.36C172.18 178.079 172.34 177.781 172.622 177.697C174.667 177.084 222.878 162.782 236.786 170.796C237.041 170.943 237.129 171.268 236.982 171.523C236.834 171.777 236.508 171.865 236.253 171.718C222.74 163.932 173.425 178.569 172.929 178.718C172.878 178.733 172.825 178.74 172.775 178.74Z" fill="white"/>
</g>
</g>
<path d="M196.995 250.582C196.995 254.906 193.924 258.602 190.137 258.822L44.038 267.338C39.6989 267.591 36.1562 264.015 36.1562 259.365V50.067C36.1562 45.4172 39.6989 41.7771 44.038 41.9534L190.137 47.8663C193.924 48.0196 196.995 51.6616 196.995 55.9839V250.582Z" fill="#2A2E2B"/>
<path d="M201.285 250.582C201.285 254.906 198.213 258.602 194.426 258.822L48.327 267.338C43.988 267.591 40.4453 264.015 40.4453 259.365V50.067C40.4453 45.4172 43.988 41.7771 48.327 41.9534L194.427 47.8663C198.214 48.0196 201.286 51.6616 201.286 55.9839L201.285 250.582Z" fill="#2A2E2B"/>
<path d="M44.1211 50.2016V259.164C44.1211 261.649 46.0058 263.557 48.3268 263.426L163.876 256.889L194.426 255.161C196.455 255.046 198.097 253.075 198.097 250.757V55.8661C198.097 53.5482 196.455 51.6059 194.426 51.5268L162.772 50.2998L48.3268 45.8643C46.0058 45.7742 44.1211 47.7164 44.1211 50.2016Z" fill="#434744"/>
<path d="M196.074 241.744C196.074 242.606 195.382 243.343 194.531 243.387L48.2096 250.858C47.2377 250.908 46.4453 250.198 46.4453 249.276V50.2057C46.4453 49.2832 47.2377 48.562 48.2096 48.599L194.531 54.0942C195.382 54.1263 196.074 54.8535 196.074 55.7159V241.744Z" fill="#22C55E"/>
<path d="M138.546 254.7L108.835 256.331C107.246 256.418 105.957 255.319 105.957 253.874V253.766C105.957 252.322 107.246 251.084 108.835 251L138.546 249.44C140.09 249.359 141.341 250.445 141.341 251.867V251.973C141.341 253.394 140.091 254.614 138.546 254.7Z" fill="url(#paint0_linear_396_5550)"/>
<path d="M125.313 48.8492C125.313 49.6175 124.632 50.2145 123.792 50.1824C122.952 50.1504 122.27 49.5003 122.27 48.731C122.27 47.9617 122.952 47.3647 123.792 47.3978C124.633 47.4308 125.313 48.0809 125.313 48.8492Z" fill="white"/>
<path d="M122.218 164.613C147.211 164.088 167.019 143.465 167.019 118.541C167.019 93.6159 147.211 72.9123 122.218 72.2842C96.5834 71.6401 75.3164 92.2586 75.3164 118.351C75.3164 144.444 96.5844 165.151 122.218 164.613Z" fill="url(#paint1_linear_396_5550)"/>
<path d="M168.104 174.54L73.8312 177.044C72.2685 177.086 70.9023 178.366 70.9023 179.904V202.971C70.9023 204.508 72.2564 205.704 73.8191 205.641L168.061 201.823C169.481 201.766 170.697 200.532 170.697 199.069V177.122C170.698 175.658 169.524 174.502 168.104 174.54Z" fill="url(#paint2_linear_396_5550)"/>
<path d="M168.104 210.217L73.8312 214.44C72.2685 214.511 70.9023 215.815 70.9023 217.352V220.594C70.9023 222.131 72.2564 223.316 73.8191 223.239L168.061 218.611C169.481 218.541 170.697 217.299 170.697 215.836V212.752C170.698 211.288 169.524 210.153 168.104 210.217Z" fill="url(#paint3_linear_396_5550)"/>
<path d="M168.796 118.542C168.796 143.466 148.988 164.088 123.995 164.614C98.3608 165.152 77.0938 144.447 77.0938 118.353C77.0938 92.2596 98.3608 71.6421 123.995 72.2862C148.988 72.9132 168.796 93.6168 168.796 118.542Z" fill="white"/>
<path d="M129.857 119.721L127.54 110.094C126.879 107.255 124.319 105.237 121.399 105.212L113.275 105.142L105.088 105.071C102.112 105.045 99.553 107.046 98.8729 109.914L96.7164 119.66C93.6943 120.325 91.5469 122.707 91.5469 125.536V136.049C91.5469 137.054 92.4907 138.051 93.6432 138.043L96.3654 138.024V142.885C96.3654 144.405 97.4537 145.631 98.9813 145.614L100.854 145.593C102.376 145.576 103.592 144.326 103.592 142.811V137.968L123.207 137.815V142.611C123.207 144.112 124.215 145.325 125.703 145.308L127.403 145.287C128.885 145.27 130.09 144.035 130.09 142.54V137.761L132.677 137.742C133.783 137.734 134.908 136.746 134.908 135.762V125.473C134.907 122.711 132.715 120.387 129.857 119.721ZM103.347 111.072C103.534 110.28 104.25 109.764 105.087 109.769L113.271 109.822L121.391 109.873C122.213 109.878 122.915 110.397 123.1 111.185L125.066 119.556L101.339 119.52L103.347 111.072ZM100.131 132.598C97.905 132.609 96.0976 130.82 96.0976 128.602C96.0976 126.384 97.905 124.585 100.131 124.582C102.351 124.58 104.149 126.369 104.149 128.578C104.149 130.787 102.351 132.587 100.131 132.598ZM126.243 132.468C124.075 132.479 122.314 130.713 122.314 128.525C122.314 126.336 124.075 124.559 126.243 124.557C128.407 124.555 130.158 126.321 130.158 128.501C130.158 130.68 128.407 132.457 126.243 132.468Z" fill="#075A29"/>
<path d="M155.575 110.301C154.695 105.123 153.814 99.9868 152.933 94.8001C152.835 94.2192 152.341 93.8355 151.766 93.8275C147.343 93.7634 142.901 93.6983 138.439 93.6332C137.856 93.6252 137.356 93.9988 137.256 94.5808C136.359 99.7875 135.463 104.977 134.565 110.193C134.49 110.633 134.611 111.148 134.895 111.492C135.179 111.836 135.596 112.099 136.037 112.101C142.107 112.133 148.138 112.165 154.134 112.196C154.566 112.198 154.976 111.931 155.255 111.594C155.532 111.258 155.649 110.737 155.575 110.301Z" fill="#075A29"/>
<path d="M145.125 100.356C142.393 100.325 140.164 97.758 140.164 94.6328C140.164 91.5076 142.393 89.0024 145.125 89.0495C147.85 89.0956 150.061 91.6629 150.061 94.7721C150.061 97.8813 147.849 100.386 145.125 100.356ZM145.125 90.3917C143.122 90.3597 141.49 92.2699 141.49 94.6508C141.49 97.0318 143.123 98.9881 145.125 99.0121C147.124 99.0362 148.747 97.125 148.747 94.753C148.747 92.3811 147.124 90.4248 145.125 90.3917Z" fill="#22C55E"/>
<path d="M172.416 199.069C172.416 200.533 171.272 201.766 169.852 201.823L75.7362 205.641C74.1735 205.704 72.9648 204.509 72.9648 202.971V179.904C72.9648 178.367 74.1755 177.085 75.7382 177.044L169.88 174.54C171.3 174.502 172.415 175.658 172.415 177.122L172.416 199.069Z" fill="white"/>
<path d="M172.416 215.836C172.416 217.3 171.272 218.543 169.852 218.612L75.7362 223.24C74.1735 223.317 72.9648 222.132 72.9648 220.594V217.353C72.9648 215.815 74.1755 214.511 75.7382 214.441L169.88 210.218C171.3 210.154 172.415 211.289 172.415 212.752L172.416 215.836Z" fill="white"/>
<g opacity="0.3">
<path d="M162.614 236.885C162.018 224.132 176.217 216.652 174.853 198.661C174.73 197.038 173.461 183.115 162.241 173.679C152.166 165.204 143.696 168.393 125.048 161.633C111.978 156.897 97.2844 151.571 91.3415 140.885C79.54 119.664 113.264 98.4688 106.362 70.9979C104.384 63.1257 98.799 53.4766 84.0496 43.4007L48.327 41.9553C43.988 41.78 40.4453 45.4191 40.4453 50.0689V259.367C40.4453 264.017 43.988 267.593 48.327 267.34L181.444 259.581C167.264 251.395 162.924 243.53 162.614 236.885Z" fill="#22C55E"/>
</g>
<path d="M54.846 208.981C54.4287 209.004 54.0716 208.673 54.0315 208.207C53.3154 199.939 50.87 192.21 47.1628 186.462C43.896 181.396 40.0274 178.537 36.8137 178.787C36.8097 178.787 36.8067 178.787 36.8027 178.788C25.2268 179.717 22.8316 209.607 22.8095 209.909C22.7724 210.397 22.3963 210.777 21.966 210.759C21.5377 210.74 21.2197 210.331 21.2569 209.844C21.3541 208.549 23.8005 178.065 36.8006 177.004C36.8057 177.004 36.8097 177.003 36.8147 177.003C40.6141 176.701 44.874 179.733 48.5019 185.349C52.3705 191.338 54.9202 199.37 55.6644 207.947C55.7076 208.443 55.3766 208.902 54.9262 208.974C54.8981 208.977 54.8721 208.98 54.846 208.981Z" fill="#10622F"/>
<path d="M6.65741 271.956L21.4991 280.47L30.6617 248.613L15.6334 206.768L11.4358 208.181L5.11777 268.668C4.97635 270.03 5.5902 271.344 6.65741 271.956Z" fill="#31914A"/>
<path opacity="0.3" d="M30.6604 248.613L15.6322 206.768L13.1527 207.602C12.8097 213.245 12.9601 217.866 13.1938 221.226C14.1868 235.536 17.4948 239.425 15.8899 249.505C14.5589 257.867 11.6612 259.046 11.914 264.635C12.1898 270.725 15.923 275.813 20.3915 279.835L21.4988 280.47L30.6604 248.613Z" fill="url(#paint4_linear_396_5550)"/>
<path d="M15.6328 206.768L74.2262 206.776L93.9867 273.852L21.4995 280.47L15.6328 206.768Z" fill="#22C55E"/>
<g opacity="0.3">
<path d="M74.2278 206.775L43.0178 206.771C42.5033 207.639 41.8232 209.043 41.6969 210.792C40.9486 221.131 61.7221 223.574 63.6148 236.353C65.0602 246.106 56.2166 257.569 48.4261 262.68C40.3157 268 34.8773 265.425 29.4941 271.222C27.143 273.755 25.7147 276.905 24.8672 280.162L93.9883 273.852L74.2278 206.775Z" fill="url(#paint5_linear_396_5550)"/>
</g>
<path d="M33.0538 211.624C32.6937 211.643 32.3687 211.383 32.2835 210.978C32.122 210.212 28.3927 192.155 33.6566 182.8C35.1732 180.104 37.2976 178.361 39.9776 177.622C53.9206 173.779 62.6539 206.745 63.021 208.159C63.1444 208.637 62.8876 209.154 62.4473 209.313C62.0059 209.473 61.5496 209.215 61.4252 208.738C61.3389 208.408 52.7581 175.929 40.2565 179.363C37.9936 179.984 36.2705 181.396 34.9836 183.681C30.0798 192.387 33.79 210.308 33.8281 210.488C33.9284 210.962 33.6636 211.455 33.2373 211.59C33.1751 211.61 33.114 211.621 33.0538 211.624Z" fill="#10622F"/>
<path d="M35.279 211.642C35.279 213.018 34.284 214.185 33.0593 214.247C31.8366 214.309 30.8477 213.247 30.8477 211.876C30.8477 210.504 31.8366 209.338 33.0593 209.271C34.284 209.203 35.279 210.265 35.279 211.642Z" fill="#10622F"/>
<path d="M64.9328 209.836C64.9328 211.244 63.8927 212.439 62.6108 212.505C61.332 212.57 60.2969 211.486 60.2969 210.083C60.2969 208.68 61.332 207.486 62.6108 207.415C63.8927 207.344 64.9328 208.428 64.9328 209.836Z" fill="#10622F"/>
<path d="M81.1669 48.5821C81.1669 67.5538 65.8588 83.9552 46.9178 85.2194C27.9116 86.4885 12.457 72.0463 12.457 52.9574C12.457 33.8685 27.9126 17.458 46.9178 16.3061C65.8588 15.1582 81.1669 29.6114 81.1669 48.5821Z" fill="#434744"/>
<path d="M85.2333 49.7978C85.2333 68.7696 69.9252 85.171 50.9842 86.4351C31.978 87.7042 16.5234 73.2611 16.5234 54.1721C16.5234 35.0832 31.979 18.6728 50.9842 17.5208C69.9252 16.3739 85.2333 30.8261 85.2333 49.7978Z" fill="#39802E"/>
<path d="M49.7733 70.6236C48.2838 70.7208 46.8977 70.0286 46.1263 68.7925L33.1764 48.0238C31.9627 46.0775 32.6167 43.4121 34.6368 42.0698C36.6548 40.7286 39.2737 41.2184 40.4864 43.1637L49.4674 57.5798L61.3181 33.4755C62.3813 31.3118 64.937 30.3202 67.0243 31.2578C69.1105 32.1953 69.941 34.7085 68.8788 36.8701L53.5637 68.0463C52.8626 69.4737 51.4684 70.4563 49.9238 70.6106C49.8736 70.6166 49.8235 70.6206 49.7733 70.6236Z" fill="white"/>
<path d="M214.106 265.184C214.106 265.184 214.352 267.138 214.187 267.792C214.022 268.447 208.333 268.92 206.402 268.692C204.471 268.465 207.552 266.495 208.783 266.125C210.012 265.756 214.106 265.184 214.106 265.184Z" fill="url(#paint6_linear_396_5550)"/>
<path d="M280.503 131.226C280.148 123.445 275.194 118.461 273.959 117.255C266.574 110.051 256.149 110.33 252.812 110.419C240.972 110.737 238.299 116.605 230.039 114.421C223.045 112.572 222.508 107.717 216.488 107.388C210.195 107.045 203.595 111.958 200.952 117.541C195.858 128.305 203.806 145.08 215.15 150.143C226.936 155.403 233.311 143.967 254.92 147.344C262.801 148.575 267.42 150.95 272.527 148.068C278.123 144.911 280.787 137.43 280.503 131.226Z" fill="#878C88"/>
<path d="M211.242 261.923L211.842 265.844C211.842 265.844 213.371 266.53 214.106 265.852L214.187 261.748L211.242 261.923Z" fill="url(#paint7_linear_396_5550)"/>
<path d="M243.311 261.748C243.311 261.748 242.104 262.643 242.425 263.713C242.747 264.785 245.564 269.077 247.571 270.295C249.578 271.513 248.949 268.975 248.365 267.395C247.782 265.814 246.288 262.331 245.706 261.747C245.124 261.164 243.311 261.748 243.311 261.748Z" fill="url(#paint8_linear_396_5550)"/>
<path d="M241.141 257.441C241.724 259.066 242.285 260.401 242.724 261.386C243.695 263.565 244.227 264.383 244.828 265.092C245.352 265.709 246.593 267.027 246.927 266.808C247.266 266.586 246.357 264.984 244.608 260.292C244.354 259.611 243.551 257.441 243.551 257.441H241.141Z" fill="url(#paint9_linear_396_5550)"/>
<path d="M199.326 189.569C198.91 193.652 198.511 199.989 199.108 207.68C199.886 217.7 201.892 224.04 204.409 234.724C205.946 241.253 208.019 250.863 209.893 262.881C210.329 263.13 211.608 263.784 213.256 263.539C214.179 263.402 214.869 263.036 215.276 262.773C220.195 247.761 218.743 238.458 216.369 232.663C215.357 230.191 214.13 228.243 213.474 224.445C212.606 219.42 213.679 216.612 215.209 204.973C216.299 196.678 216.111 195.395 215.386 194.151C212.485 189.177 203.612 189.275 199.326 189.569Z" fill="url(#paint10_linear_396_5550)"/>
<path d="M216.262 191.316C219.275 206.858 222.233 215.022 224.471 219.639C225.023 220.778 226.865 224.451 228.606 229.718C230.148 234.379 230.789 237.809 231.118 239.319C232.158 244.083 234.725 251.039 241.634 260.163C241.72 260.213 242.898 260.879 244.024 260.286C244.594 259.985 244.879 259.506 244.991 259.283C244.088 250.56 243.051 243.23 242.151 237.573C241.962 236.387 241.13 231.195 239.826 224.337C239.315 221.652 238.567 217.72 237.671 213.681C236.556 208.65 234.846 201.808 232.209 193.607C226.895 192.843 221.578 192.08 216.262 191.316Z" fill="url(#paint11_linear_396_5550)"/>
<path d="M184.688 134.748C184.64 129.812 195.867 125.867 201.005 124.596C208.997 122.619 215.396 123.861 216.95 124.188C226.916 126.297 233.123 132.27 235.46 134.78C233.547 136.024 228.267 139.819 225.653 147.02C224.84 149.261 222.436 156.92 225.874 164.094C227.854 168.228 231.357 171.331 234.018 173.689C238.009 177.225 240.075 177.768 241.413 180.935C242.871 184.385 241.402 186.067 243.212 188.428C245.155 190.964 247.432 189.785 250.725 192.349C254.1 194.976 252.899 197.137 255.969 200.04C260.431 204.257 266.345 202.888 266.62 204.786C266.857 206.419 262.654 208.633 259.083 209.532C252.01 211.311 245.842 208.325 244.007 207.404C238.928 204.856 239.806 203.207 235.934 201.264C229.45 198.012 225.019 201.631 210.252 202.003C202.255 202.206 198.211 202.251 195.996 199.548C193.973 197.08 195.036 194.373 196.25 182.705C196.828 177.152 197.037 171.566 197.462 166C198.667 150.254 198.704 148.868 197.635 146.691C193.802 138.896 184.731 139.178 184.688 134.748Z" fill="#29302C"/>
<g opacity="0.7">
<path d="M255.97 200.042C252.9 197.139 254.1 194.978 250.726 192.351C247.432 189.787 245.155 190.965 243.213 188.43C241.403 186.069 242.872 184.387 241.414 180.937C240.076 177.77 238.01 177.226 234.019 173.691C231.359 171.333 227.855 168.23 225.874 164.096C222.437 156.922 224.84 149.262 225.654 147.023C228.269 139.822 233.547 136.026 235.46 134.782C235.276 134.584 235.059 134.358 234.826 134.121C222.222 135.851 214.873 143.124 213.964 145.278C211.863 150.256 215.189 152.085 215.275 166.443C215.317 173.306 214.575 176.016 216.805 178.88C219.356 182.156 222.294 181.142 225.982 185.426C228.815 188.716 228.362 190.803 231.007 192.189C233.851 193.68 235.664 191.943 238.872 192.626C244.233 193.768 245.379 199.94 248.923 203.317C251.603 205.87 256.557 207.656 266.329 205.74C266.555 205.411 266.664 205.091 266.621 204.79C266.346 202.891 260.431 204.26 255.97 200.042Z" fill="#697F70"/>
</g>
<path d="M217.79 149.149C216.45 151.991 222.607 158.609 229.45 161.751C230.845 162.392 240.857 166.989 245.319 162.569C249.006 158.915 246.627 151.361 245.777 148.664C241.605 135.422 228.792 128.686 223.423 126.256C219.416 136.262 221.776 140.721 222.705 142.112C223.676 143.567 226.383 146.622 229.26 149.312C231.283 151.206 232.543 152.126 232.373 152.422C232.163 152.789 229.791 152.095 220.58 147.618C219.513 147.791 218.249 148.179 217.79 149.149Z" fill="#29302C"/>
<path d="M179.248 132.824L183.768 155.301C183.912 156.021 184.472 156.587 185.191 156.741L218.889 163.963C220.097 164.222 221.213 163.247 221.118 162.017L219.34 139.157C219.279 138.364 218.715 137.7 217.941 137.509C212.596 136.192 192.02 131.258 181.169 130.617C179.956 130.545 179.009 131.635 179.248 132.824Z" fill="#22C55E"/>
<path d="M212.864 116.408C212.864 116.408 213.5 121.483 215.375 122.646C217.251 123.808 220.283 125.327 220.617 125.739C220.951 126.15 208.998 127.434 203.074 124.449C205.026 124.042 205.557 123.893 205.557 123.893C206.086 123.743 207.075 123.465 208.065 122.901C208.739 122.517 209.827 121.768 210.824 120.354L210.801 117.544L212.864 116.408Z" fill="#AFC6B6"/>
<path d="M214.461 118.112C214.461 118.112 212.909 120.241 210.473 119.353C208.293 118.559 209.595 112.936 211.324 112.293C211.901 112.079 212.96 112.174 213.668 112.615C214.166 112.926 215.496 114.575 214.733 116.424C215.284 116.265 215.769 116.409 215.891 116.682C216.045 117.027 215.579 117.498 215.472 117.604C215.106 117.975 214.665 118.079 214.461 118.112Z" fill="#AFC6B6"/>
<path opacity="0.7" d="M209.595 152.259C205.976 151.24 202.974 153.77 200.091 151.768C197.137 149.716 199.065 146.213 195.994 142.768C192.711 139.084 188.546 140.889 185.507 137.531C184.378 136.285 183.364 134.254 183.348 130.791C182.587 130.718 181.858 130.66 181.169 130.619C179.957 130.547 179.009 131.637 179.248 132.825L183.768 155.302C183.912 156.022 184.472 156.588 185.191 156.742L217.576 163.683C215.289 155.671 212.238 153.003 209.595 152.259Z" fill="#0F612E"/>
<path d="M181.394 144.782C181.394 144.782 179.245 142.798 179.011 140.493C178.777 138.188 180.399 136.343 181.971 135.873C183.543 135.404 184.381 136.097 183.326 138.367C182.271 140.636 180.598 142.109 181.394 144.782Z" fill="#29302C"/>
<path d="M209.328 115.766C209.328 115.766 212.335 117.349 214.928 116.15C214.705 116.639 212.646 117.808 213.357 118.089C214.068 118.369 214.46 118.112 214.46 118.112C214.46 118.112 213.594 120.133 211.015 119.569C208.438 119.007 209.174 117.032 209.328 115.766Z" fill="white"/>
<path d="M195.722 109.456C195.722 111.371 194.168 112.924 192.25 112.924C190.332 112.924 188.777 111.371 188.777 109.456C188.777 107.541 190.332 105.988 192.25 105.988C194.168 105.988 195.722 107.541 195.722 109.456Z" fill="white"/>
<path d="M192.248 80.3906C184.993 80.3906 178.359 83.0431 173.263 87.4284C172.217 88.3279 172.141 89.9196 173.118 90.8942L173.217 90.9924C174.085 91.8598 175.48 91.9229 176.409 91.1216C180.658 87.4564 186.193 85.2357 192.248 85.2357C198.303 85.2357 203.838 87.4554 208.087 91.1216C209.016 91.9229 210.412 91.8598 211.279 90.9924L211.378 90.8942C212.353 89.9196 212.279 88.3289 211.233 87.4284C206.137 83.0431 199.503 80.3906 192.248 80.3906Z" fill="white"/>
<path d="M192.246 88.4648C187.234 88.4648 182.634 90.2198 179.023 93.1447C177.943 94.0201 177.874 95.6458 178.858 96.6285L178.875 96.6455C179.738 97.507 181.102 97.554 182.052 96.7898C184.841 94.546 188.386 93.2018 192.246 93.2018C196.107 93.2018 199.651 94.546 202.441 96.7898C203.391 97.553 204.755 97.506 205.617 96.6455L205.635 96.6285C206.618 95.6458 206.549 94.0201 205.469 93.1447C201.857 90.2198 197.258 88.4648 192.246 88.4648Z" fill="white"/>
<path d="M184.643 102.404C185.497 103.256 186.821 103.352 187.832 102.693C189.102 101.865 190.618 101.383 192.248 101.383C193.878 101.383 195.395 101.865 196.664 102.693C197.674 103.352 198.999 103.256 199.853 102.404L199.864 102.393C200.91 101.348 200.746 99.6102 199.523 98.7778C197.451 97.3654 194.946 96.5391 192.248 96.5391C189.55 96.5391 187.046 97.3654 184.973 98.7778C183.751 99.6102 183.586 101.348 184.632 102.393L184.643 102.404Z" fill="white"/>
<defs>
<linearGradient id="paint0_linear_396_5550" x1="125.092" y1="241.897" x2="122.156" y2="264.282" gradientUnits="userSpaceOnUse">
<stop stop-color="#444B8C"/>
<stop offset="0.9964" stop-color="#26264F"/>
</linearGradient>
<linearGradient id="paint1_linear_396_5550" x1="75.3168" y1="118.446" x2="167.019" y2="118.446" gradientUnits="userSpaceOnUse">
<stop stop-color="#AA80F9"/>
<stop offset="0.9964" stop-color="#6165D7"/>
</linearGradient>
<linearGradient id="paint2_linear_396_5550" x1="70.9026" y1="190.091" x2="170.698" y2="190.091" gradientUnits="userSpaceOnUse">
<stop stop-color="#AA80F9"/>
<stop offset="0.9964" stop-color="#6165D7"/>
</linearGradient>
<linearGradient id="paint3_linear_396_5550" x1="70.9026" y1="216.729" x2="170.698" y2="216.729" gradientUnits="userSpaceOnUse">
<stop stop-color="#AA80F9"/>
<stop offset="0.9964" stop-color="#6165D7"/>
</linearGradient>
<linearGradient id="paint4_linear_396_5550" x1="11.8984" y1="243.619" x2="30.6608" y2="243.619" gradientUnits="userSpaceOnUse">
<stop stop-color="#FFC444"/>
<stop offset="0.9964" stop-color="#F36F56"/>
</linearGradient>
<linearGradient id="paint5_linear_396_5550" x1="44.097" y1="230.685" x2="82.9387" y2="322.027" gradientUnits="userSpaceOnUse">
<stop stop-color="#FFC444"/>
<stop offset="0.9964" stop-color="#F36F56"/>
</linearGradient>
<linearGradient id="paint6_linear_396_5550" x1="209.18" y1="252.614" x2="211.141" y2="287.963" gradientUnits="userSpaceOnUse">
<stop stop-color="#444B8C"/>
<stop offset="0.9964" stop-color="#26264F"/>
</linearGradient>
<linearGradient id="paint7_linear_396_5550" x1="212.526" y1="267.23" x2="213.695" y2="240.775" gradientUnits="userSpaceOnUse">
<stop stop-color="#FFC444"/>
<stop offset="0.9964" stop-color="#F36F56"/>
</linearGradient>
<linearGradient id="paint8_linear_396_5550" x1="244.77" y1="250.639" x2="246.731" y2="285.987" gradientUnits="userSpaceOnUse">
<stop stop-color="#444B8C"/>
<stop offset="0.9964" stop-color="#26264F"/>
</linearGradient>
<linearGradient id="paint9_linear_396_5550" x1="243.778" y1="268.612" x2="244.947" y2="242.156" gradientUnits="userSpaceOnUse">
<stop stop-color="#FFC444"/>
<stop offset="0.9964" stop-color="#F36F56"/>
</linearGradient>
<linearGradient id="paint10_linear_396_5550" x1="208.841" y1="226.156" x2="231.346" y2="222.635" gradientUnits="userSpaceOnUse">
<stop stop-color="#444B8C"/>
<stop offset="0.9964" stop-color="#26264F"/>
</linearGradient>
<linearGradient id="paint11_linear_396_5550" x1="210.685" y1="202.534" x2="275.308" y2="262.672" gradientUnits="userSpaceOnUse">
<stop stop-color="#444B8C"/>
<stop offset="0.9964" stop-color="#26264F"/>
</linearGradient>
</defs>
</svg>
