<svg width="224" height="85" viewBox="0 0 224 85" fill="none" xmlns="http://www.w3.org/2000/svg">
<path d="M222.474 46.522C221.839 45.347 219.857 42.1968 219.857 42.1968C222.38 28.5005 216.613 25.8838 214.544 22.2795C212.468 18.6752 202.823 11.5604 205.173 9.49149C207.509 7.41542 207.422 6.87478 207.422 6.87478C201.439 5.67815 194.339 4.77708 186.633 4.13552C185.436 3.16236 182.639 1.15117 179.907 0.942118C176.303 0.668192 124.163 0.942118 124.163 0.942118C124.163 0.942118 117.445 1.67018 115.866 3.86159C104.7 4.61128 96.2874 5.69257 93.1661 6.87478C82.7137 10.8395 56.4024 25.2567 56.4024 25.2567C12.5526 27.3616 8.82573 36.9706 8.82573 36.9706C4.73847 41.4111 3.4193 47.0626 3.4193 47.0626C3.4193 47.0626 -0.905848 49.3477 1.01884 56.0733C2.93632 62.7989 7.50656 67.8449 7.50656 67.8449C9.18616 68.6883 9.90702 72.5305 9.90702 72.5305C12.43 74.2173 20.2369 73.136 20.2369 73.136C20.2369 73.136 15.9118 45.4983 40.0605 45.0226C64.2092 44.5396 61.6286 69.0488 61.6286 69.0488H156.724C156.724 69.0488 154.079 44.5396 178.227 45.1379C202.376 45.7434 198.498 69.0488 198.498 69.0488C198.498 69.0488 218.148 65.1705 221.479 62.4745C224.816 59.7641 223.101 47.697 222.474 46.522ZM10.9595 37.331L23.4808 36.9706L22.9762 37.9293L16.4885 38.2898L13.0644 41.8364C13.0644 41.8364 8.60948 42.0815 5.79092 44.7198C5.79813 44.7198 8.34997 38.8953 10.9595 37.331ZM22.3418 38.8016L15.8253 42.9465L14.6503 43.0979L17.6562 38.9818L22.3418 38.8016ZM10.2674 63.6423C9.36638 63.8658 6.48294 63.3684 6.48294 63.3684C6.48294 63.3684 5.35841 63.2819 4.86102 62.0637C4.36362 60.8454 2.47498 56.7942 2.47498 56.7942C2.47498 56.7942 1.89108 55.6696 2.8354 55.6696H6.30273C6.30273 55.6696 7.88141 55.8499 8.73923 57.652C9.58984 59.4541 10.7648 61.66 10.7648 61.66C10.7648 61.66 11.1685 63.4189 10.2674 63.6423ZM26.7102 37.7347L14.6863 45.4407C12.2786 44.4747 5.31516 46.2913 4.96914 46.3778C6.57666 44.9361 14.2826 44.1792 14.2826 44.1792C14.2826 44.1792 24.1944 38.6358 24.872 37.6049C25.5496 36.5669 24.2449 36.5237 24.2449 36.5237L9.73401 36.8336C9.73401 36.8336 18.1608 35.6154 23.3366 35.7523C28.5124 35.8893 26.7102 37.7347 26.7102 37.7347ZM219.078 34.9306V36.3723H213.549L211.625 34.9306H219.078ZM218.595 32.1048L208.446 32.4076L206.463 30.7208H218.595V32.1048ZM215.957 28.0824L202.203 28.5582C202.203 28.5582 201.36 29.0412 202.441 29.6395C203.522 30.245 212.533 37.0283 212.533 37.0283L219.086 38.124L212.475 38.5925L200.704 29.7043C200.704 29.7043 199.262 28.2626 201.244 27.6571C203.219 27.0588 215.957 28.0824 215.957 28.0824ZM204.539 7.53797C204.539 7.53797 202.974 9.45545 203.335 10.6593C203.681 11.8271 212.49 21.3352 213.038 21.9263L198.772 8.85714L204.539 7.53797ZM125.605 2.03061C129.569 2.03061 178.71 2.03061 178.71 2.03061C178.71 2.03061 181.716 2.65055 182.531 3.81834C161.648 2.33337 137.239 2.57126 119.002 3.65975C120.27 3.04702 122.815 2.03061 125.605 2.03061ZM122 6.33414C129.404 5.7142 170.702 6.94686 183.893 7.71097H183.915C184.621 7.75423 185.241 7.79748 185.775 7.83352H185.811C185.904 7.84073 185.998 7.84794 186.085 7.85515C186.193 7.86235 186.301 7.86956 186.402 7.88398C186.438 7.89119 186.474 7.89119 186.503 7.89119C186.856 7.92002 187.144 7.94165 187.368 7.97048C187.447 7.97769 187.526 7.9849 187.591 7.99932C187.62 7.99932 187.642 8.00653 187.663 8.00653C187.757 8.02094 187.822 8.03536 187.872 8.04978C187.988 8.08582 188.11 8.12907 188.218 8.17953C188.327 8.22278 188.435 8.27324 188.557 8.33812C188.665 8.39579 188.781 8.45346 188.882 8.51113V8.51833C188.918 8.53275 188.961 8.55438 189.004 8.58321C189.523 8.87876 190.136 9.28244 190.799 9.751C191.174 10.0249 191.578 10.3133 191.989 10.6304C195.377 13.2111 199.377 16.9524 199.312 18.3148C199.219 20.3909 194 24.2691 194 24.2691L124.076 28.1978L68.21 29.0844L73.9264 23.7717C72.7586 27.7364 75.5483 27.376 76.6729 27.239C77.8046 27.1021 79.8735 26.9218 80.0105 24.2691C80.1474 21.6091 78.5687 20.7513 78.5687 20.7513C98.3995 5.79349 113.35 7.05499 122 6.33414ZM169.433 26.9074C169.721 27.1021 172.259 28.9547 171.747 32.0111C171.221 35.154 169.008 41.1804 168.871 41.548L170.219 35.9758C170.219 35.9758 170.219 35.9758 170.939 32.4076C171.603 29.07 169.692 27.1525 169.433 26.9074ZM167.234 34.8513C167.234 35.2766 166.888 35.6154 166.47 35.6154H157.546C157.128 35.6154 156.782 35.2766 156.782 34.8513C156.782 34.4332 157.128 34.0872 157.546 34.0872H166.47C166.888 34.0872 167.234 34.4332 167.234 34.8513ZM119.6 61.7032C119.369 61.1121 113.732 46.3634 120.328 29.8846C120.321 29.8846 117.315 51.3661 119.6 61.7032ZM115.556 36.9273C115.556 37.3959 115.174 37.778 114.705 37.778H105.06C104.584 37.778 104.202 37.3959 104.202 36.9273C104.202 36.4516 104.584 36.0695 105.06 36.0695H114.705C115.181 36.0695 115.556 36.4516 115.556 36.9273ZM56.4961 26.8786C56.4961 26.8786 86.0512 10.9332 90.9242 8.85714H93.2598L64.2525 25.7973C64.2453 25.7973 58.9326 26.9651 56.4961 26.8786ZM197.69 52.6493C197.69 52.6493 189.761 43.6962 178.588 43.2204C167.414 42.7375 159.002 48.0213 154.799 63.044L154.562 65.0841H66.3718C66.3718 65.0841 55.8112 52.9592 66.9701 30.5045C66.7034 31.1605 60.3815 47.0338 66.9773 62.561H151.433C151.433 62.561 155.52 42.1968 176.786 41.8364C176.786 41.8364 188.86 42.7375 192.825 46.522C192.825 46.522 206.218 45.1379 211.517 41.8652C209.664 43.3574 206.406 45.8299 203.097 47.6032C198.483 50.0758 214.818 49.6865 220.542 48.3529C216.649 49.5063 204.841 52.8006 197.69 52.6493Z" fill="#22C55E"/>
<path d="M184.024 7.72553C183.916 7.71831 183.807 7.71108 183.692 7.70386C183.757 7.70386 183.829 7.70386 183.901 7.71108C183.937 7.71108 183.973 7.71831 184.024 7.72553Z" fill="#22C55E"/>
<path d="M194.001 24.197L193.964 24.2119C193.971 24.2045 193.971 24.2045 193.979 24.197H194.001Z" fill="#22C55E"/>
<path d="M199.046 17.5867C198.577 16.7289 197.9 15.9864 197.222 15.2728C195.852 13.8455 194.36 12.5335 192.818 11.3009C192.046 10.6809 191.261 10.0826 190.446 9.51313C190.035 9.232 189.624 8.95807 189.199 8.70577C189.091 8.6409 188.983 8.58323 188.882 8.51835V8.51114C188.781 8.45347 188.665 8.3958 188.557 8.33814C188.449 8.28047 188.334 8.23001 188.219 8.17955C188.11 8.12909 187.988 8.08584 187.873 8.04979C187.822 8.03538 187.757 8.02096 187.663 8.00654C187.642 8.00654 187.62 7.99933 187.591 7.99933C187.527 7.98492 187.447 7.97771 187.368 7.9705C187.144 7.94166 186.856 7.92004 186.503 7.8912C186.669 7.91283 186.834 7.93446 187 7.94887C184.96 7.74703 182.899 7.68936 180.859 7.57403L173.823 7.28568C169.137 7.11989 164.452 6.96851 159.759 6.83875C150.388 6.56483 141.002 6.42065 131.631 6.42065C129.281 6.43507 126.938 6.44949 124.603 6.52157C122.282 6.60808 119.932 6.83154 117.589 6.94688C115.246 7.09105 112.918 7.24964 110.611 7.56682C109.45 7.68936 108.304 7.92725 107.158 8.10746C106.019 8.35976 104.866 8.53998 103.748 8.85715L102.054 9.29688C101.492 9.44826 100.944 9.63568 100.389 9.80869C99.8342 9.9889 99.2791 10.1475 98.7313 10.3421L97.0949 10.9549C95.9992 11.3369 94.9396 11.8199 93.8727 12.2884C92.7986 12.7282 91.7678 13.276 90.7297 13.795C89.6845 14.2996 88.6753 14.8835 87.6733 15.4674L86.1595 16.3397L84.6889 17.284C82.9301 18.3653 81.2577 19.5907 79.5853 20.7946C79.6357 20.8594 79.6934 20.9315 79.7439 20.9964C79.8664 21.1406 79.9529 21.2992 80.0466 21.4577C80.1403 21.6163 80.2268 21.7749 80.2773 21.9479C80.3422 22.1137 80.4143 22.2867 80.4647 22.4525L80.5656 22.9715C80.6594 23.3176 80.6305 23.6636 80.6449 24.0024L80.6521 24.2619C80.6449 24.4133 80.6377 24.4349 80.6305 24.5286C80.6161 24.68 80.6089 24.8314 80.5584 25.0332C80.4936 25.4297 80.3566 25.7613 80.1764 26.1073C79.9817 26.4389 79.7294 26.7633 79.4195 27.0011C79.1095 27.239 78.7707 27.4192 78.4247 27.549C78.0859 27.6715 77.7399 27.7508 77.4083 27.8013C77.0767 27.859 76.7739 27.8878 76.4568 27.9311C75.8008 27.9815 75.0727 28.0536 74.2798 27.7004C73.8977 27.5274 73.5084 27.2102 73.3138 26.8137C73.0831 26.4245 73.0183 26.0136 72.9822 25.6387V25.5811L70.0195 28.3491C74.6618 28.2554 79.2969 28.1906 83.932 28.1401L99.6756 27.9311L115.412 27.7364L123.276 27.6715C125.857 27.6067 128.51 27.4337 131.119 27.3255L162.556 25.7973L178.278 25.026L193.971 24.197C194.75 23.6131 195.521 22.986 196.249 22.33C196.977 21.6668 197.691 20.9748 198.303 20.2107C198.606 19.8214 198.902 19.4177 199.089 18.9636C199.197 18.7473 199.24 18.5022 199.262 18.2716C199.262 18.0193 199.161 17.8174 199.046 17.5867ZM117.675 11.1999C117.228 13.8167 115.21 27.1814 115.21 27.1814L83.586 27.686C83.586 27.686 83.7086 26.6047 81.1856 24.4421C81.1856 24.4421 81.0919 21.1117 80.371 21.1117C80.371 21.1117 96.9507 7.86237 117.675 8.85715C117.675 8.85715 118.13 8.58323 117.675 11.1999ZM155.701 24.8962L124.077 26.8858L125.879 8.04979H155.16C155.16 8.04979 159.211 13.7229 159.211 16.4262C159.211 19.1294 155.701 24.8962 155.701 24.8962ZM179.972 21.292L172.698 21.5947L166.636 10.3565L177.326 10.7818L183.576 18.1706L179.972 21.292Z" fill="#22C55E"/>
<path d="M188.889 8.51122C188.788 8.45355 188.673 8.39588 188.565 8.33821C188.673 8.39588 188.781 8.45355 188.889 8.51843C188.925 8.53284 188.968 8.55447 189.011 8.5833C188.975 8.56168 188.925 8.53284 188.889 8.51122ZM183.901 7.71107C183.829 7.70386 183.756 7.70386 183.692 7.70386C183.807 7.71107 183.915 7.71827 184.023 7.72548C183.973 7.71827 183.937 7.71107 183.901 7.71107Z" fill="#22C55E"/>
<path d="M192.839 11.272C192.774 11.2216 192.702 11.1639 192.637 11.1207C192.839 11.2865 193.048 11.4523 193.257 11.6181C193.128 11.4955 192.976 11.3802 192.839 11.272Z" fill="#22C55E"/>
<path d="M184.024 7.72553C183.916 7.71831 183.807 7.71108 183.692 7.70386C183.757 7.70386 183.829 7.70386 183.901 7.71108C183.937 7.71108 183.973 7.71831 184.024 7.72553Z" fill="#22C55E"/>
<path d="M192.327 10.8828C191.801 10.4792 191.282 10.0971 190.799 9.7511C191.325 10.1043 191.83 10.4864 192.327 10.8828Z" fill="#22C55E"/>
<path d="M211.517 41.8655C212.396 41.1591 212.958 40.6689 213.052 40.5896C212.684 41.0437 212.173 41.469 211.517 41.8655Z" fill="#22C55E"/>
<path d="M7.14627 61.898C6.50471 62.0494 5.71176 61.0762 5.38017 59.7066C5.04857 58.3442 5.29366 57.1043 5.93523 56.9529C6.584 56.7943 7.36973 57.7747 7.70854 59.1371C8.04734 60.5068 7.78783 61.7394 7.14627 61.898Z" fill="#22C55E"/>
<path d="M41.1059 67.535L41.1131 67.571L41.1203 67.5638C41.1131 67.5566 41.1131 67.5422 41.1059 67.535ZM41.1059 67.535L41.1131 67.571L41.1203 67.5638C41.1131 67.5566 41.1131 67.5422 41.1059 67.535ZM41.1059 67.535L41.1131 67.571L41.1203 67.5638C41.1131 67.5566 41.1131 67.5422 41.1059 67.535ZM41.1059 67.535L41.1131 67.571L41.1203 67.5638C41.1131 67.5566 41.1131 67.5422 41.1059 67.535ZM41.1059 67.535L41.1131 67.571L41.1203 67.5638C41.1131 67.5566 41.1131 67.5422 41.1059 67.535ZM41.1059 67.535L41.1131 67.571L41.1203 67.5638C41.1131 67.5566 41.1131 67.5422 41.1059 67.535ZM41.1059 67.535L41.1131 67.571L41.1203 67.5638C41.1131 67.5566 41.1131 67.5422 41.1059 67.535ZM41.1059 67.535L41.1131 67.571L41.1203 67.5638C41.1131 67.5566 41.1131 67.5422 41.1059 67.535ZM41.1059 67.535L41.1131 67.571L41.1203 67.5638C41.1131 67.5566 41.1131 67.5422 41.1059 67.535ZM41.1059 67.535L41.1131 67.571L41.1203 67.5638C41.1131 67.5566 41.1131 67.5422 41.1059 67.535ZM50.3833 56.3833C50.3833 57.5223 49.5111 60.4417 42.0646 64.5723C42.2377 64.839 42.3386 65.1561 42.3602 65.4877C50.6645 64.7885 53.1298 66.6916 53.8507 67.7008C53.9444 67.0304 54.0021 66.3528 54.0021 65.6535C53.9948 62.0853 52.6252 58.8198 50.3833 56.3833ZM38.3666 64.8966C30.0335 61.1554 29.4352 58.1638 29.4857 57.2555C27.6619 59.5767 26.5878 62.489 26.5878 65.6607C26.5878 66.8502 26.7392 68.0035 27.0276 69.0992C27.6475 68.0324 29.947 65.9203 38.2297 65.8842C38.2225 65.8121 38.2153 65.7328 38.2153 65.6607C38.2153 65.394 38.2585 65.1273 38.3666 64.8966ZM39.6498 67.6215C39.3326 67.5278 39.0515 67.3548 38.8208 67.1241C32.6647 72.8549 29.5433 72.8117 28.39 72.4584C30.4084 75.9834 33.9478 78.5281 38.1143 79.1913C37.4151 78.2469 36.3771 75.3707 39.6498 67.6215ZM41.1059 67.535L41.1131 67.571L41.1203 67.5638C41.1131 67.5566 41.1131 67.5422 41.1059 67.535ZM40.2913 51.9572C38.0855 51.9572 36.0022 52.4763 34.164 53.399C35.339 53.8026 37.8693 55.612 39.6426 63.6928C39.8516 63.6207 40.0679 63.5847 40.2913 63.5847C40.4067 63.5847 40.522 63.5919 40.6373 63.6135C42.5548 54.61 45.3806 53.4566 46.2528 53.3197C44.4507 52.4402 42.4323 51.9572 40.2913 51.9572ZM41.8772 66.9943C41.6754 67.2394 41.4087 67.4413 41.1203 67.5638C45.0634 74.585 44.5588 77.6774 43.9605 78.8669C47.9685 77.7567 51.2412 74.8733 52.8703 71.1104C51.9404 71.6006 48.9633 72.2422 41.8772 66.9943ZM50.3833 56.3833C50.3833 57.5223 49.5111 60.4417 42.0646 64.5723C42.2377 64.839 42.3386 65.1561 42.3602 65.4877C50.6645 64.7885 53.1298 66.6916 53.8507 67.7008C53.9444 67.0304 54.0021 66.3528 54.0021 65.6535C53.9948 62.0853 52.6252 58.8198 50.3833 56.3833ZM41.8772 66.9943C41.6754 67.2394 41.4087 67.4413 41.1203 67.5638C45.0634 74.585 44.5588 77.6774 43.9605 78.8669C47.9685 77.7567 51.2412 74.8733 52.8703 71.1104C51.9404 71.6006 48.9633 72.2422 41.8772 66.9943ZM40.2913 51.9572C38.0855 51.9572 36.0022 52.4763 34.164 53.399C35.339 53.8026 37.8693 55.612 39.6426 63.6928C39.8516 63.6207 40.0679 63.5847 40.2913 63.5847C40.4067 63.5847 40.522 63.5919 40.6373 63.6135C42.5548 54.61 45.3806 53.4566 46.2528 53.3197C44.4507 52.4402 42.4323 51.9572 40.2913 51.9572ZM41.1059 67.535L41.1131 67.571L41.1203 67.5638C41.1131 67.5566 41.1131 67.5422 41.1059 67.535ZM39.6498 67.6215C39.3326 67.5278 39.0515 67.3548 38.8208 67.1241C32.6647 72.8549 29.5433 72.8117 28.39 72.4584C30.4084 75.9834 33.9478 78.5281 38.1143 79.1913C37.4151 78.2469 36.3771 75.3707 39.6498 67.6215ZM38.3666 64.8966C30.0335 61.1554 29.4352 58.1638 29.4857 57.2555C27.6619 59.5767 26.5878 62.489 26.5878 65.6607C26.5878 66.8502 26.7392 68.0035 27.0276 69.0992C27.6475 68.0324 29.947 65.9203 38.2297 65.8842C38.2225 65.8121 38.2153 65.7328 38.2153 65.6607C38.2153 65.394 38.2585 65.1273 38.3666 64.8966ZM50.3833 56.3833C50.3833 57.5223 49.5111 60.4417 42.0646 64.5723C42.2377 64.839 42.3386 65.1561 42.3602 65.4877C50.6645 64.7885 53.1298 66.6916 53.8507 67.7008C53.9444 67.0304 54.0021 66.3528 54.0021 65.6535C53.9948 62.0853 52.6252 58.8198 50.3833 56.3833ZM38.3666 64.8966C30.0335 61.1554 29.4352 58.1638 29.4857 57.2555C27.6619 59.5767 26.5878 62.489 26.5878 65.6607C26.5878 66.8502 26.7392 68.0035 27.0276 69.0992C27.6475 68.0324 29.947 65.9203 38.2297 65.8842C38.2225 65.8121 38.2153 65.7328 38.2153 65.6607C38.2153 65.394 38.2585 65.1273 38.3666 64.8966ZM39.6498 67.6215C39.3326 67.5278 39.0515 67.3548 38.8208 67.1241C32.6647 72.8549 29.5433 72.8117 28.39 72.4584C30.4084 75.9834 33.9478 78.5281 38.1143 79.1913C37.4151 78.2469 36.3771 75.3707 39.6498 67.6215ZM41.1059 67.535L41.1131 67.571L41.1203 67.5638C41.1131 67.5566 41.1131 67.5422 41.1059 67.535ZM40.2913 51.9572C38.0855 51.9572 36.0022 52.4763 34.164 53.399C35.339 53.8026 37.8693 55.612 39.6426 63.6928C39.8516 63.6207 40.0679 63.5847 40.2913 63.5847C40.4067 63.5847 40.522 63.5919 40.6373 63.6135C42.5548 54.61 45.3806 53.4566 46.2528 53.3197C44.4507 52.4402 42.4323 51.9572 40.2913 51.9572ZM41.8772 66.9943C41.6754 67.2394 41.4087 67.4413 41.1203 67.5638C45.0634 74.585 44.5588 77.6774 43.9605 78.8669C47.9685 77.7567 51.2412 74.8733 52.8703 71.1104C51.9404 71.6006 48.9633 72.2422 41.8772 66.9943ZM50.3833 56.3833C50.3833 57.5223 49.5111 60.4417 42.0646 64.5723C42.2377 64.839 42.3386 65.1561 42.3602 65.4877C50.6645 64.7885 53.1298 66.6916 53.8507 67.7008C53.9444 67.0304 54.0021 66.3528 54.0021 65.6535C53.9948 62.0853 52.6252 58.8198 50.3833 56.3833ZM41.8772 66.9943C41.6754 67.2394 41.4087 67.4413 41.1203 67.5638C45.0634 74.585 44.5588 77.6774 43.9605 78.8669C47.9685 77.7567 51.2412 74.8733 52.8703 71.1104C51.9404 71.6006 48.9633 72.2422 41.8772 66.9943ZM40.2913 51.9572C38.0855 51.9572 36.0022 52.4763 34.164 53.399C35.339 53.8026 37.8693 55.612 39.6426 63.6928C39.8516 63.6207 40.0679 63.5847 40.2913 63.5847C40.4067 63.5847 40.522 63.5919 40.6373 63.6135C42.5548 54.61 45.3806 53.4566 46.2528 53.3197C44.4507 52.4402 42.4323 51.9572 40.2913 51.9572ZM41.1059 67.535L41.1131 67.571L41.1203 67.5638C41.1131 67.5566 41.1131 67.5422 41.1059 67.535ZM39.6498 67.6215C39.3326 67.5278 39.0515 67.3548 38.8208 67.1241C32.6647 72.8549 29.5433 72.8117 28.39 72.4584C30.4084 75.9834 33.9478 78.5281 38.1143 79.1913C37.4151 78.2469 36.3771 75.3707 39.6498 67.6215ZM38.3666 64.8966C30.0335 61.1554 29.4352 58.1638 29.4857 57.2555C27.6619 59.5767 26.5878 62.489 26.5878 65.6607C26.5878 66.8502 26.7392 68.0035 27.0276 69.0992C27.6475 68.0324 29.947 65.9203 38.2297 65.8842C38.2225 65.8121 38.2153 65.7328 38.2153 65.6607C38.2153 65.394 38.2585 65.1273 38.3666 64.8966ZM50.3833 56.3833C50.3833 57.5223 49.5111 60.4417 42.0646 64.5723C42.2377 64.839 42.3386 65.1561 42.3602 65.4877C50.6645 64.7885 53.1298 66.6916 53.8507 67.7008C53.9444 67.0304 54.0021 66.3528 54.0021 65.6535C53.9948 62.0853 52.6252 58.8198 50.3833 56.3833ZM38.3666 64.8966C30.0335 61.1554 29.4352 58.1638 29.4857 57.2555C27.6619 59.5767 26.5878 62.489 26.5878 65.6607C26.5878 66.8502 26.7392 68.0035 27.0276 69.0992C27.6475 68.0324 29.947 65.9203 38.2297 65.8842C38.2225 65.8121 38.2153 65.7328 38.2153 65.6607C38.2153 65.394 38.2585 65.1273 38.3666 64.8966ZM39.6498 67.6215C39.3326 67.5278 39.0515 67.3548 38.8208 67.1241C32.6647 72.8549 29.5433 72.8117 28.39 72.4584C30.4084 75.9834 33.9478 78.5281 38.1143 79.1913C37.4151 78.2469 36.3771 75.3707 39.6498 67.6215ZM41.1059 67.535L41.1131 67.571L41.1203 67.5638C41.1131 67.5566 41.1131 67.5422 41.1059 67.535ZM40.2913 51.9572C38.0855 51.9572 36.0022 52.4763 34.164 53.399C35.339 53.8026 37.8693 55.612 39.6426 63.6928C39.8516 63.6207 40.0679 63.5847 40.2913 63.5847C40.4067 63.5847 40.522 63.5919 40.6373 63.6135C42.5548 54.61 45.3806 53.4566 46.2528 53.3197C44.4507 52.4402 42.4323 51.9572 40.2913 51.9572ZM41.8772 66.9943C41.6754 67.2394 41.4087 67.4413 41.1203 67.5638C45.0634 74.585 44.5588 77.6774 43.9605 78.8669C47.9685 77.7567 51.2412 74.8733 52.8703 71.1104C51.9404 71.6006 48.9633 72.2422 41.8772 66.9943ZM50.3833 56.3833C50.3833 57.5223 49.5111 60.4417 42.0646 64.5723C42.2377 64.839 42.3386 65.1561 42.3602 65.4877C50.6645 64.7885 53.1298 66.6916 53.8507 67.7008C53.9444 67.0304 54.0021 66.3528 54.0021 65.6535C53.9948 62.0853 52.6252 58.8198 50.3833 56.3833ZM41.8772 66.9943C41.6754 67.2394 41.4087 67.4413 41.1203 67.5638C45.0634 74.585 44.5588 77.6774 43.9605 78.8669C47.9685 77.7567 51.2412 74.8733 52.8703 71.1104C51.9404 71.6006 48.9633 72.2422 41.8772 66.9943ZM40.2913 51.9572C38.0855 51.9572 36.0022 52.4763 34.164 53.399C35.339 53.8026 37.8693 55.612 39.6426 63.6928C39.8516 63.6207 40.0679 63.5847 40.2913 63.5847C40.4067 63.5847 40.522 63.5919 40.6373 63.6135C42.5548 54.61 45.3806 53.4566 46.2528 53.3197C44.4507 52.4402 42.4323 51.9572 40.2913 51.9572ZM41.1059 67.535L41.1131 67.571L41.1203 67.5638C41.1131 67.5566 41.1131 67.5422 41.1059 67.535ZM39.6498 67.6215C39.3326 67.5278 39.0515 67.3548 38.8208 67.1241C32.6647 72.8549 29.5433 72.8117 28.39 72.4584C30.4084 75.9834 33.9478 78.5281 38.1143 79.1913C37.4151 78.2469 36.3771 75.3707 39.6498 67.6215ZM38.3666 64.8966C30.0335 61.1554 29.4352 58.1638 29.4857 57.2555C27.6619 59.5767 26.5878 62.489 26.5878 65.6607C26.5878 66.8502 26.7392 68.0035 27.0276 69.0992C27.6475 68.0324 29.947 65.9203 38.2297 65.8842C38.2225 65.8121 38.2153 65.7328 38.2153 65.6607C38.2153 65.394 38.2585 65.1273 38.3666 64.8966ZM50.3833 56.3833C50.3833 57.5223 49.5111 60.4417 42.0646 64.5723C42.2377 64.839 42.3386 65.1561 42.3602 65.4877C50.6645 64.7885 53.1298 66.6916 53.8507 67.7008C53.9444 67.0304 54.0021 66.3528 54.0021 65.6535C53.9948 62.0853 52.6252 58.8198 50.3833 56.3833ZM38.3666 64.8966C30.0335 61.1554 29.4352 58.1638 29.4857 57.2555C27.6619 59.5767 26.5878 62.489 26.5878 65.6607C26.5878 66.8502 26.7392 68.0035 27.0276 69.0992C27.6475 68.0324 29.947 65.9203 38.2297 65.8842C38.2225 65.8121 38.2153 65.7328 38.2153 65.6607C38.2153 65.394 38.2585 65.1273 38.3666 64.8966ZM39.6498 67.6215C39.3326 67.5278 39.0515 67.3548 38.8208 67.1241C32.6647 72.8549 29.5433 72.8117 28.39 72.4584C30.4084 75.9834 33.9478 78.5281 38.1143 79.1913C37.4151 78.2469 36.3771 75.3707 39.6498 67.6215ZM41.1059 67.535L41.1131 67.571L41.1203 67.5638C41.1131 67.5566 41.1131 67.5422 41.1059 67.535ZM40.2913 51.9572C38.0855 51.9572 36.0022 52.4763 34.164 53.399C35.339 53.8026 37.8693 55.612 39.6426 63.6928C39.8516 63.6207 40.0679 63.5847 40.2913 63.5847C40.4067 63.5847 40.522 63.5919 40.6373 63.6135C42.5548 54.61 45.3806 53.4566 46.2528 53.3197C44.4507 52.4402 42.4323 51.9572 40.2913 51.9572ZM41.8772 66.9943C41.6754 67.2394 41.4087 67.4413 41.1203 67.5638C45.0634 74.585 44.5588 77.6774 43.9605 78.8669C47.9685 77.7567 51.2412 74.8733 52.8703 71.1104C51.9404 71.6006 48.9633 72.2422 41.8772 66.9943ZM50.3833 56.3833C50.3833 57.5223 49.5111 60.4417 42.0646 64.5723C42.2377 64.839 42.3386 65.1561 42.3602 65.4877C50.6645 64.7885 53.1298 66.6916 53.8507 67.7008C53.9444 67.0304 54.0021 66.3528 54.0021 65.6535C53.9948 62.0853 52.6252 58.8198 50.3833 56.3833ZM41.8772 66.9943C41.6754 67.2394 41.4087 67.4413 41.1203 67.5638C45.0634 74.585 44.5588 77.6774 43.9605 78.8669C47.9685 77.7567 51.2412 74.8733 52.8703 71.1104C51.9404 71.6006 48.9633 72.2422 41.8772 66.9943ZM40.2913 51.9572C38.0855 51.9572 36.0022 52.4763 34.164 53.399C35.339 53.8026 37.8693 55.612 39.6426 63.6928C39.8516 63.6207 40.0679 63.5847 40.2913 63.5847C40.4067 63.5847 40.522 63.5919 40.6373 63.6135C42.5548 54.61 45.3806 53.4566 46.2528 53.3197C44.4507 52.4402 42.4323 51.9572 40.2913 51.9572ZM41.1059 67.535L41.1131 67.571L41.1203 67.5638C41.1131 67.5566 41.1131 67.5422 41.1059 67.535ZM39.6498 67.6215C39.3326 67.5278 39.0515 67.3548 38.8208 67.1241C32.6647 72.8549 29.5433 72.8117 28.39 72.4584C30.4084 75.9834 33.9478 78.5281 38.1143 79.1913C37.4151 78.2469 36.3771 75.3707 39.6498 67.6215ZM38.3666 64.8966C30.0335 61.1554 29.4352 58.1638 29.4857 57.2555C27.6619 59.5767 26.5878 62.489 26.5878 65.6607C26.5878 66.8502 26.7392 68.0035 27.0276 69.0992C27.6475 68.0324 29.947 65.9203 38.2297 65.8842C38.2225 65.8121 38.2153 65.7328 38.2153 65.6607C38.2153 65.394 38.2585 65.1273 38.3666 64.8966ZM50.3833 56.3833C50.3833 57.5223 49.5111 60.4417 42.0646 64.5723C42.2377 64.839 42.3386 65.1561 42.3602 65.4877C50.6645 64.7885 53.1298 66.6916 53.8507 67.7008C53.9444 67.0304 54.0021 66.3528 54.0021 65.6535C53.9948 62.0853 52.6252 58.8198 50.3833 56.3833ZM38.3666 64.8966C30.0335 61.1554 29.4352 58.1638 29.4857 57.2555C27.6619 59.5767 26.5878 62.489 26.5878 65.6607C26.5878 66.8502 26.7392 68.0035 27.0276 69.0992C27.6475 68.0324 29.947 65.9203 38.2297 65.8842C38.2225 65.8121 38.2153 65.7328 38.2153 65.6607C38.2153 65.394 38.2585 65.1273 38.3666 64.8966ZM39.6498 67.6215C39.3326 67.5278 39.0515 67.3548 38.8208 67.1241C32.6647 72.8549 29.5433 72.8117 28.39 72.4584C30.4084 75.9834 33.9478 78.5281 38.1143 79.1913C37.4151 78.2469 36.3771 75.3707 39.6498 67.6215ZM41.1059 67.535L41.1131 67.571L41.1203 67.5638C41.1131 67.5566 41.1131 67.5422 41.1059 67.535ZM40.2913 51.9572C38.0855 51.9572 36.0022 52.4763 34.164 53.399C35.339 53.8026 37.8693 55.612 39.6426 63.6928C39.8516 63.6207 40.0679 63.5847 40.2913 63.5847C40.4067 63.5847 40.522 63.5919 40.6373 63.6135C42.5548 54.61 45.3806 53.4566 46.2528 53.3197C44.4507 52.4402 42.4323 51.9572 40.2913 51.9572ZM41.8772 66.9943C41.6754 67.2394 41.4087 67.4413 41.1203 67.5638C45.0634 74.585 44.5588 77.6774 43.9605 78.8669C47.9685 77.7567 51.2412 74.8733 52.8703 71.1104C51.9404 71.6006 48.9633 72.2422 41.8772 66.9943ZM50.3833 56.3833C50.3833 57.5223 49.5111 60.4417 42.0646 64.5723C42.2377 64.839 42.3386 65.1561 42.3602 65.4877C50.6645 64.7885 53.1298 66.6916 53.8507 67.7008C53.9444 67.0304 54.0021 66.3528 54.0021 65.6535C53.9948 62.0853 52.6252 58.8198 50.3833 56.3833ZM41.8772 66.9943C41.6754 67.2394 41.4087 67.4413 41.1203 67.5638C45.0634 74.585 44.5588 77.6774 43.9605 78.8669C47.9685 77.7567 51.2412 74.8733 52.8703 71.1104C51.9404 71.6006 48.9633 72.2422 41.8772 66.9943ZM40.2913 51.9572C38.0855 51.9572 36.0022 52.4763 34.164 53.399C35.339 53.8026 37.8693 55.612 39.6426 63.6928C39.8516 63.6207 40.0679 63.5847 40.2913 63.5847C40.4067 63.5847 40.522 63.5919 40.6373 63.6135C42.5548 54.61 45.3806 53.4566 46.2528 53.3197C44.4507 52.4402 42.4323 51.9572 40.2913 51.9572ZM41.1059 67.535L41.1131 67.571L41.1203 67.5638C41.1131 67.5566 41.1131 67.5422 41.1059 67.535ZM39.6498 67.6215C39.3326 67.5278 39.0515 67.3548 38.8208 67.1241C32.6647 72.8549 29.5433 72.8117 28.39 72.4584C30.4084 75.9834 33.9478 78.5281 38.1143 79.1913C37.4151 78.2469 36.3771 75.3707 39.6498 67.6215ZM38.3666 64.8966C30.0335 61.1554 29.4352 58.1638 29.4857 57.2555C27.6619 59.5767 26.5878 62.489 26.5878 65.6607C26.5878 66.8502 26.7392 68.0035 27.0276 69.0992C27.6475 68.0324 29.947 65.9203 38.2297 65.8842C38.2225 65.8121 38.2153 65.7328 38.2153 65.6607C38.2153 65.394 38.2585 65.1273 38.3666 64.8966ZM50.3833 56.3833C50.3833 57.5223 49.5111 60.4417 42.0646 64.5723C42.2377 64.839 42.3386 65.1561 42.3602 65.4877C50.6645 64.7885 53.1298 66.6916 53.8507 67.7008C53.9444 67.0304 54.0021 66.3528 54.0021 65.6535C53.9948 62.0853 52.6252 58.8198 50.3833 56.3833ZM38.3666 64.8966C30.0335 61.1554 29.4352 58.1638 29.4857 57.2555C27.6619 59.5767 26.5878 62.489 26.5878 65.6607C26.5878 66.8502 26.7392 68.0035 27.0276 69.0992C27.6475 68.0324 29.947 65.9203 38.2297 65.8842C38.2225 65.8121 38.2153 65.7328 38.2153 65.6607C38.2153 65.394 38.2585 65.1273 38.3666 64.8966ZM39.6498 67.6215C39.3326 67.5278 39.0515 67.3548 38.8208 67.1241C32.6647 72.8549 29.5433 72.8117 28.39 72.4584C30.4084 75.9834 33.9478 78.5281 38.1143 79.1913C37.4151 78.2469 36.3771 75.3707 39.6498 67.6215ZM41.1059 67.535L41.1131 67.571L41.1203 67.5638C41.1131 67.5566 41.1131 67.5422 41.1059 67.535ZM40.2913 51.9572C38.0855 51.9572 36.0022 52.4763 34.164 53.399C35.339 53.8026 37.8693 55.612 39.6426 63.6928C39.8516 63.6207 40.0679 63.5847 40.2913 63.5847C40.4067 63.5847 40.522 63.5919 40.6373 63.6135C42.5548 54.61 45.3806 53.4566 46.2528 53.3197C44.4507 52.4402 42.4323 51.9572 40.2913 51.9572ZM41.8772 66.9943C41.6754 67.2394 41.4087 67.4413 41.1203 67.5638C45.0634 74.585 44.5588 77.6774 43.9605 78.8669C47.9685 77.7567 51.2412 74.8733 52.8703 71.1104C51.9404 71.6006 48.9633 72.2422 41.8772 66.9943ZM50.3833 56.3833C50.3833 57.5223 49.5111 60.4417 42.0646 64.5723C42.2377 64.839 42.3386 65.1561 42.3602 65.4877C50.6645 64.7885 53.1298 66.6916 53.8507 67.7008C53.9444 67.0304 54.0021 66.3528 54.0021 65.6535C53.9948 62.0853 52.6252 58.8198 50.3833 56.3833ZM41.8772 66.9943C41.6754 67.2394 41.4087 67.4413 41.1203 67.5638C45.0634 74.585 44.5588 77.6774 43.9605 78.8669C47.9685 77.7567 51.2412 74.8733 52.8703 71.1104C51.9404 71.6006 48.9633 72.2422 41.8772 66.9943ZM46.2528 53.3197C44.4507 52.4402 42.4323 51.9572 40.2913 51.9572C38.0855 51.9572 36.0022 52.4763 34.164 53.399C35.339 53.8026 37.8693 55.612 39.6426 63.6928C39.8516 63.6207 40.0679 63.5847 40.2913 63.5847C40.4067 63.5847 40.522 63.5919 40.6373 63.6135C42.5548 54.6028 45.3806 53.4566 46.2528 53.3197ZM41.1131 67.571L41.1203 67.5638C41.1203 67.5566 41.1131 67.5422 41.1059 67.535L41.1131 67.571ZM38.8208 67.1241C32.6647 72.8549 29.5433 72.8117 28.39 72.4584C30.4084 75.9834 33.9478 78.5281 38.1143 79.1913C37.4079 78.2469 36.3771 75.3707 39.6498 67.6287C39.3326 67.5278 39.0515 67.3548 38.8208 67.1241ZM38.2153 65.6607C38.2153 65.394 38.2657 65.1345 38.3666 64.9039C30.0335 61.1626 29.4352 58.171 29.4857 57.2628C27.6619 59.5839 26.5878 62.4962 26.5878 65.668C26.5878 66.8574 26.7392 68.0107 27.0276 69.1065C27.6475 68.0396 29.947 65.9275 38.2297 65.8914C38.2225 65.8121 38.2153 65.7328 38.2153 65.6607ZM50.3833 56.3833C50.3833 57.5223 49.5111 60.4417 42.0646 64.5723C42.2377 64.839 42.3386 65.1561 42.3602 65.4877C50.6645 64.7885 53.1298 66.6916 53.8507 67.7008C53.9444 67.0304 54.0021 66.3528 54.0021 65.6535C53.9948 62.0853 52.6252 58.8198 50.3833 56.3833ZM40.2913 47.6826C30.3651 47.6826 22.3131 55.7273 22.3131 65.6607C22.3131 75.587 30.3579 83.6389 40.2913 83.6389C50.2175 83.6389 58.2695 75.5942 58.2695 65.6607C58.2695 55.7273 50.2175 47.6826 40.2913 47.6826ZM40.2913 80.186C32.2682 80.186 25.7588 73.6839 25.7588 65.6607C25.7588 57.6304 32.2682 51.121 40.2985 51.121C48.3289 51.121 54.831 57.6304 54.831 65.6607C54.8238 73.6839 48.3217 80.186 40.2913 80.186ZM41.8772 66.9943C41.6754 67.2394 41.4087 67.4413 41.1203 67.5638C45.0634 74.585 44.5588 77.6774 43.9605 78.8669C47.9685 77.7567 51.2412 74.8733 52.8703 71.1104C51.9404 71.6006 48.9633 72.2422 41.8772 66.9943ZM46.2528 53.3197C44.4507 52.4402 42.4323 51.9572 40.2913 51.9572C38.0855 51.9572 36.0022 52.4763 34.164 53.399C35.339 53.8026 37.8693 55.612 39.6426 63.6928C39.8516 63.6207 40.0679 63.5847 40.2913 63.5847C40.4067 63.5847 40.522 63.5919 40.6373 63.6135C42.5548 54.6028 45.3806 53.4566 46.2528 53.3197ZM41.1131 67.571L41.1203 67.5638C41.1203 67.5566 41.1131 67.5422 41.1059 67.535L41.1131 67.571ZM38.8208 67.1241C32.6647 72.8549 29.5433 72.8117 28.39 72.4584C30.4084 75.9834 33.9478 78.5281 38.1143 79.1913C37.4079 78.2469 36.3771 75.3707 39.6498 67.6287C39.3326 67.5278 39.0515 67.3548 38.8208 67.1241ZM38.2153 65.6607C38.2153 65.394 38.2657 65.1345 38.3666 64.9039C30.0335 61.1626 29.4352 58.171 29.4857 57.2628C27.6619 59.5839 26.5878 62.4962 26.5878 65.668C26.5878 66.8574 26.7392 68.0107 27.0276 69.1065C27.6475 68.0396 29.947 65.9275 38.2297 65.8914C38.2225 65.8121 38.2153 65.7328 38.2153 65.6607ZM50.3833 56.3833C50.3833 57.5223 49.5111 60.4417 42.0646 64.5723C42.2377 64.839 42.3386 65.1561 42.3602 65.4877C50.6645 64.7885 53.1298 66.6916 53.8507 67.7008C53.9444 67.0304 54.0021 66.3528 54.0021 65.6535C53.9948 62.0853 52.6252 58.8198 50.3833 56.3833ZM38.3666 64.8966C30.0335 61.1554 29.4352 58.1638 29.4857 57.2555C27.6619 59.5767 26.5878 62.489 26.5878 65.6607C26.5878 66.8502 26.7392 68.0035 27.0276 69.0992C27.6475 68.0324 29.947 65.9203 38.2297 65.8842C38.2225 65.8121 38.2153 65.7328 38.2153 65.6607C38.2153 65.394 38.2585 65.1273 38.3666 64.8966ZM39.6498 67.6215C39.3326 67.5278 39.0515 67.3548 38.8208 67.1241C32.6647 72.8549 29.5433 72.8117 28.39 72.4584C30.4084 75.9834 33.9478 78.5281 38.1143 79.1913C37.4151 78.2469 36.3771 75.3707 39.6498 67.6215ZM41.1059 67.535L41.1131 67.571L41.1203 67.5638C41.1131 67.5566 41.1131 67.5422 41.1059 67.535ZM40.2913 51.9572C38.0855 51.9572 36.0022 52.4763 34.164 53.399C35.339 53.8026 37.8693 55.612 39.6426 63.6928C39.8516 63.6207 40.0679 63.5847 40.2913 63.5847C40.4067 63.5847 40.522 63.5919 40.6373 63.6135C42.5548 54.61 45.3806 53.4566 46.2528 53.3197C44.4507 52.4402 42.4323 51.9572 40.2913 51.9572ZM41.8772 66.9943C41.6754 67.2394 41.4087 67.4413 41.1203 67.5638C45.0634 74.585 44.5588 77.6774 43.9605 78.8669C47.9685 77.7567 51.2412 74.8733 52.8703 71.1104C51.9404 71.6006 48.9633 72.2422 41.8772 66.9943ZM50.3833 56.3833C50.3833 57.5223 49.5111 60.4417 42.0646 64.5723C42.2377 64.839 42.3386 65.1561 42.3602 65.4877C50.6645 64.7885 53.1298 66.6916 53.8507 67.7008C53.9444 67.0304 54.0021 66.3528 54.0021 65.6535C53.9948 62.0853 52.6252 58.8198 50.3833 56.3833ZM41.8772 66.9943C41.6754 67.2394 41.4087 67.4413 41.1203 67.5638C45.0634 74.585 44.5588 77.6774 43.9605 78.8669C47.9685 77.7567 51.2412 74.8733 52.8703 71.1104C51.9404 71.6006 48.9633 72.2422 41.8772 66.9943ZM40.2913 51.9572C38.0855 51.9572 36.0022 52.4763 34.164 53.399C35.339 53.8026 37.8693 55.612 39.6426 63.6928C39.8516 63.6207 40.0679 63.5847 40.2913 63.5847C40.4067 63.5847 40.522 63.5919 40.6373 63.6135C42.5548 54.61 45.3806 53.4566 46.2528 53.3197C44.4507 52.4402 42.4323 51.9572 40.2913 51.9572ZM41.1059 67.535L41.1131 67.571L41.1203 67.5638C41.1131 67.5566 41.1131 67.5422 41.1059 67.535ZM39.6498 67.6215C39.3326 67.5278 39.0515 67.3548 38.8208 67.1241C32.6647 72.8549 29.5433 72.8117 28.39 72.4584C30.4084 75.9834 33.9478 78.5281 38.1143 79.1913C37.4151 78.2469 36.3771 75.3707 39.6498 67.6215ZM38.3666 64.8966C30.0335 61.1554 29.4352 58.1638 29.4857 57.2555C27.6619 59.5767 26.5878 62.489 26.5878 65.6607C26.5878 66.8502 26.7392 68.0035 27.0276 69.0992C27.6475 68.0324 29.947 65.9203 38.2297 65.8842C38.2225 65.8121 38.2153 65.7328 38.2153 65.6607C38.2153 65.394 38.2585 65.1273 38.3666 64.8966ZM50.3833 56.3833C50.3833 57.5223 49.5111 60.4417 42.0646 64.5723C42.2377 64.839 42.3386 65.1561 42.3602 65.4877C50.6645 64.7885 53.1298 66.6916 53.8507 67.7008C53.9444 67.0304 54.0021 66.3528 54.0021 65.6535C53.9948 62.0853 52.6252 58.8198 50.3833 56.3833ZM38.3666 64.8966C30.0335 61.1554 29.4352 58.1638 29.4857 57.2555C27.6619 59.5767 26.5878 62.489 26.5878 65.6607C26.5878 66.8502 26.7392 68.0035 27.0276 69.0992C27.6475 68.0324 29.947 65.9203 38.2297 65.8842C38.2225 65.8121 38.2153 65.7328 38.2153 65.6607C38.2153 65.394 38.2585 65.1273 38.3666 64.8966ZM39.6498 67.6215C39.3326 67.5278 39.0515 67.3548 38.8208 67.1241C32.6647 72.8549 29.5433 72.8117 28.39 72.4584C30.4084 75.9834 33.9478 78.5281 38.1143 79.1913C37.4151 78.2469 36.3771 75.3707 39.6498 67.6215ZM41.1059 67.535L41.1131 67.571L41.1203 67.5638C41.1131 67.5566 41.1131 67.5422 41.1059 67.535ZM40.2913 51.9572C38.0855 51.9572 36.0022 52.4763 34.164 53.399C35.339 53.8026 37.8693 55.612 39.6426 63.6928C39.8516 63.6207 40.0679 63.5847 40.2913 63.5847C40.4067 63.5847 40.522 63.5919 40.6373 63.6135C42.5548 54.61 45.3806 53.4566 46.2528 53.3197C44.4507 52.4402 42.4323 51.9572 40.2913 51.9572ZM41.8772 66.9943C41.6754 67.2394 41.4087 67.4413 41.1203 67.5638C45.0634 74.585 44.5588 77.6774 43.9605 78.8669C47.9685 77.7567 51.2412 74.8733 52.8703 71.1104C51.9404 71.6006 48.9633 72.2422 41.8772 66.9943ZM50.3833 56.3833C50.3833 57.5223 49.5111 60.4417 42.0646 64.5723C42.2377 64.839 42.3386 65.1561 42.3602 65.4877C50.6645 64.7885 53.1298 66.6916 53.8507 67.7008C53.9444 67.0304 54.0021 66.3528 54.0021 65.6535C53.9948 62.0853 52.6252 58.8198 50.3833 56.3833ZM41.8772 66.9943C41.6754 67.2394 41.4087 67.4413 41.1203 67.5638C45.0634 74.585 44.5588 77.6774 43.9605 78.8669C47.9685 77.7567 51.2412 74.8733 52.8703 71.1104C51.9404 71.6006 48.9633 72.2422 41.8772 66.9943ZM40.2913 51.9572C38.0855 51.9572 36.0022 52.4763 34.164 53.399C35.339 53.8026 37.8693 55.612 39.6426 63.6928C39.8516 63.6207 40.0679 63.5847 40.2913 63.5847C40.4067 63.5847 40.522 63.5919 40.6373 63.6135C42.5548 54.61 45.3806 53.4566 46.2528 53.3197C44.4507 52.4402 42.4323 51.9572 40.2913 51.9572ZM41.1059 67.535L41.1131 67.571L41.1203 67.5638C41.1131 67.5566 41.1131 67.5422 41.1059 67.535ZM39.6498 67.6215C39.3326 67.5278 39.0515 67.3548 38.8208 67.1241C32.6647 72.8549 29.5433 72.8117 28.39 72.4584C30.4084 75.9834 33.9478 78.5281 38.1143 79.1913C37.4151 78.2469 36.3771 75.3707 39.6498 67.6215ZM38.3666 64.8966C30.0335 61.1554 29.4352 58.1638 29.4857 57.2555C27.6619 59.5767 26.5878 62.489 26.5878 65.6607C26.5878 66.8502 26.7392 68.0035 27.0276 69.0992C27.6475 68.0324 29.947 65.9203 38.2297 65.8842C38.2225 65.8121 38.2153 65.7328 38.2153 65.6607C38.2153 65.394 38.2585 65.1273 38.3666 64.8966ZM50.3833 56.3833C50.3833 57.5223 49.5111 60.4417 42.0646 64.5723C42.2377 64.839 42.3386 65.1561 42.3602 65.4877C50.6645 64.7885 53.1298 66.6916 53.8507 67.7008C53.9444 67.0304 54.0021 66.3528 54.0021 65.6535C53.9948 62.0853 52.6252 58.8198 50.3833 56.3833ZM38.3666 64.8966C30.0335 61.1554 29.4352 58.1638 29.4857 57.2555C27.6619 59.5767 26.5878 62.489 26.5878 65.6607C26.5878 66.8502 26.7392 68.0035 27.0276 69.0992C27.6475 68.0324 29.947 65.9203 38.2297 65.8842C38.2225 65.8121 38.2153 65.7328 38.2153 65.6607C38.2153 65.394 38.2585 65.1273 38.3666 64.8966ZM39.6498 67.6215C39.3326 67.5278 39.0515 67.3548 38.8208 67.1241C32.6647 72.8549 29.5433 72.8117 28.39 72.4584C30.4084 75.9834 33.9478 78.5281 38.1143 79.1913C37.4151 78.2469 36.3771 75.3707 39.6498 67.6215ZM41.1059 67.535L41.1131 67.571L41.1203 67.5638C41.1131 67.5566 41.1131 67.5422 41.1059 67.535ZM40.2913 51.9572C38.0855 51.9572 36.0022 52.4763 34.164 53.399C35.339 53.8026 37.8693 55.612 39.6426 63.6928C39.8516 63.6207 40.0679 63.5847 40.2913 63.5847C40.4067 63.5847 40.522 63.5919 40.6373 63.6135C42.5548 54.61 45.3806 53.4566 46.2528 53.3197C44.4507 52.4402 42.4323 51.9572 40.2913 51.9572ZM41.8772 66.9943C41.6754 67.2394 41.4087 67.4413 41.1203 67.5638C45.0634 74.585 44.5588 77.6774 43.9605 78.8669C47.9685 77.7567 51.2412 74.8733 52.8703 71.1104C51.9404 71.6006 48.9633 72.2422 41.8772 66.9943ZM50.3833 56.3833C50.3833 57.5223 49.5111 60.4417 42.0646 64.5723C42.2377 64.839 42.3386 65.1561 42.3602 65.4877C50.6645 64.7885 53.1298 66.6916 53.8507 67.7008C53.9444 67.0304 54.0021 66.3528 54.0021 65.6535C53.9948 62.0853 52.6252 58.8198 50.3833 56.3833ZM41.8772 66.9943C41.6754 67.2394 41.4087 67.4413 41.1203 67.5638C45.0634 74.585 44.5588 77.6774 43.9605 78.8669C47.9685 77.7567 51.2412 74.8733 52.8703 71.1104C51.9404 71.6006 48.9633 72.2422 41.8772 66.9943ZM40.2913 51.9572C38.0855 51.9572 36.0022 52.4763 34.164 53.399C35.339 53.8026 37.8693 55.612 39.6426 63.6928C39.8516 63.6207 40.0679 63.5847 40.2913 63.5847C40.4067 63.5847 40.522 63.5919 40.6373 63.6135C42.5548 54.61 45.3806 53.4566 46.2528 53.3197C44.4507 52.4402 42.4323 51.9572 40.2913 51.9572ZM41.1059 67.535L41.1131 67.571L41.1203 67.5638C41.1131 67.5566 41.1131 67.5422 41.1059 67.535ZM39.6498 67.6215C39.3326 67.5278 39.0515 67.3548 38.8208 67.1241C32.6647 72.8549 29.5433 72.8117 28.39 72.4584C30.4084 75.9834 33.9478 78.5281 38.1143 79.1913C37.4151 78.2469 36.3771 75.3707 39.6498 67.6215ZM38.3666 64.8966C30.0335 61.1554 29.4352 58.1638 29.4857 57.2555C27.6619 59.5767 26.5878 62.489 26.5878 65.6607C26.5878 66.8502 26.7392 68.0035 27.0276 69.0992C27.6475 68.0324 29.947 65.9203 38.2297 65.8842C38.2225 65.8121 38.2153 65.7328 38.2153 65.6607C38.2153 65.394 38.2585 65.1273 38.3666 64.8966ZM50.3833 56.3833C50.3833 57.5223 49.5111 60.4417 42.0646 64.5723C42.2377 64.839 42.3386 65.1561 42.3602 65.4877C50.6645 64.7885 53.1298 66.6916 53.8507 67.7008C53.9444 67.0304 54.0021 66.3528 54.0021 65.6535C53.9948 62.0853 52.6252 58.8198 50.3833 56.3833ZM38.3666 64.8966C30.0335 61.1554 29.4352 58.1638 29.4857 57.2555C27.6619 59.5767 26.5878 62.489 26.5878 65.6607C26.5878 66.8502 26.7392 68.0035 27.0276 69.0992C27.6475 68.0324 29.947 65.9203 38.2297 65.8842C38.2225 65.8121 38.2153 65.7328 38.2153 65.6607C38.2153 65.394 38.2585 65.1273 38.3666 64.8966ZM39.6498 67.6215C39.3326 67.5278 39.0515 67.3548 38.8208 67.1241C32.6647 72.8549 29.5433 72.8117 28.39 72.4584C30.4084 75.9834 33.9478 78.5281 38.1143 79.1913C37.4151 78.2469 36.3771 75.3707 39.6498 67.6215ZM41.1059 67.535L41.1131 67.571L41.1203 67.5638C41.1131 67.5566 41.1131 67.5422 41.1059 67.535ZM40.2913 51.9572C38.0855 51.9572 36.0022 52.4763 34.164 53.399C35.339 53.8026 37.8693 55.612 39.6426 63.6928C39.8516 63.6207 40.0679 63.5847 40.2913 63.5847C40.4067 63.5847 40.522 63.5919 40.6373 63.6135C42.5548 54.61 45.3806 53.4566 46.2528 53.3197C44.4507 52.4402 42.4323 51.9572 40.2913 51.9572ZM41.8772 66.9943C41.6754 67.2394 41.4087 67.4413 41.1203 67.5638C45.0634 74.585 44.5588 77.6774 43.9605 78.8669C47.9685 77.7567 51.2412 74.8733 52.8703 71.1104C51.9404 71.6006 48.9633 72.2422 41.8772 66.9943ZM50.3833 56.3833C50.3833 57.5223 49.5111 60.4417 42.0646 64.5723C42.2377 64.839 42.3386 65.1561 42.3602 65.4877C50.6645 64.7885 53.1298 66.6916 53.8507 67.7008C53.9444 67.0304 54.0021 66.3528 54.0021 65.6535C53.9948 62.0853 52.6252 58.8198 50.3833 56.3833ZM41.8772 66.9943C41.6754 67.2394 41.4087 67.4413 41.1203 67.5638C45.0634 74.585 44.5588 77.6774 43.9605 78.8669C47.9685 77.7567 51.2412 74.8733 52.8703 71.1104C51.9404 71.6006 48.9633 72.2422 41.8772 66.9943ZM40.2913 51.9572C38.0855 51.9572 36.0022 52.4763 34.164 53.399C35.339 53.8026 37.8693 55.612 39.6426 63.6928C39.8516 63.6207 40.0679 63.5847 40.2913 63.5847C40.4067 63.5847 40.522 63.5919 40.6373 63.6135C42.5548 54.61 45.3806 53.4566 46.2528 53.3197C44.4507 52.4402 42.4323 51.9572 40.2913 51.9572ZM41.1059 67.535L41.1131 67.571L41.1203 67.5638C41.1131 67.5566 41.1131 67.5422 41.1059 67.535ZM39.6498 67.6215C39.3326 67.5278 39.0515 67.3548 38.8208 67.1241C32.6647 72.8549 29.5433 72.8117 28.39 72.4584C30.4084 75.9834 33.9478 78.5281 38.1143 79.1913C37.4151 78.2469 36.3771 75.3707 39.6498 67.6215ZM38.3666 64.8966C30.0335 61.1554 29.4352 58.1638 29.4857 57.2555C27.6619 59.5767 26.5878 62.489 26.5878 65.6607C26.5878 66.8502 26.7392 68.0035 27.0276 69.0992C27.6475 68.0324 29.947 65.9203 38.2297 65.8842C38.2225 65.8121 38.2153 65.7328 38.2153 65.6607C38.2153 65.394 38.2585 65.1273 38.3666 64.8966ZM50.3833 56.3833C50.3833 57.5223 49.5111 60.4417 42.0646 64.5723C42.2377 64.839 42.3386 65.1561 42.3602 65.4877C50.6645 64.7885 53.1298 66.6916 53.8507 67.7008C53.9444 67.0304 54.0021 66.3528 54.0021 65.6535C53.9948 62.0853 52.6252 58.8198 50.3833 56.3833ZM38.3666 64.8966C30.0335 61.1554 29.4352 58.1638 29.4857 57.2555C27.6619 59.5767 26.5878 62.489 26.5878 65.6607C26.5878 66.8502 26.7392 68.0035 27.0276 69.0992C27.6475 68.0324 29.947 65.9203 38.2297 65.8842C38.2225 65.8121 38.2153 65.7328 38.2153 65.6607C38.2153 65.394 38.2585 65.1273 38.3666 64.8966ZM39.6498 67.6215C39.3326 67.5278 39.0515 67.3548 38.8208 67.1241C32.6647 72.8549 29.5433 72.8117 28.39 72.4584C30.4084 75.9834 33.9478 78.5281 38.1143 79.1913C37.4151 78.2469 36.3771 75.3707 39.6498 67.6215ZM41.1059 67.535L41.1131 67.571L41.1203 67.5638C41.1131 67.5566 41.1131 67.5422 41.1059 67.535ZM40.2913 51.9572C38.0855 51.9572 36.0022 52.4763 34.164 53.399C35.339 53.8026 37.8693 55.612 39.6426 63.6928C39.8516 63.6207 40.0679 63.5847 40.2913 63.5847C40.4067 63.5847 40.522 63.5919 40.6373 63.6135C42.5548 54.61 45.3806 53.4566 46.2528 53.3197C44.4507 52.4402 42.4323 51.9572 40.2913 51.9572ZM41.8772 66.9943C41.6754 67.2394 41.4087 67.4413 41.1203 67.5638C45.0634 74.585 44.5588 77.6774 43.9605 78.8669C47.9685 77.7567 51.2412 74.8733 52.8703 71.1104C51.9404 71.6006 48.9633 72.2422 41.8772 66.9943ZM50.3833 56.3833C50.3833 57.5223 49.5111 60.4417 42.0646 64.5723C42.2377 64.839 42.3386 65.1561 42.3602 65.4877C50.6645 64.7885 53.1298 66.6916 53.8507 67.7008C53.9444 67.0304 54.0021 66.3528 54.0021 65.6535C53.9948 62.0853 52.6252 58.8198 50.3833 56.3833ZM41.8772 66.9943C41.6754 67.2394 41.4087 67.4413 41.1203 67.5638C45.0634 74.585 44.5588 77.6774 43.9605 78.8669C47.9685 77.7567 51.2412 74.8733 52.8703 71.1104C51.9404 71.6006 48.9633 72.2422 41.8772 66.9943ZM40.2913 51.9572C38.0855 51.9572 36.0022 52.4763 34.164 53.399C35.339 53.8026 37.8693 55.612 39.6426 63.6928C39.8516 63.6207 40.0679 63.5847 40.2913 63.5847C40.4067 63.5847 40.522 63.5919 40.6373 63.6135C42.5548 54.61 45.3806 53.4566 46.2528 53.3197C44.4507 52.4402 42.4323 51.9572 40.2913 51.9572ZM41.1059 67.535L41.1131 67.571L41.1203 67.5638C41.1131 67.5566 41.1131 67.5422 41.1059 67.535ZM39.6498 67.6215C39.3326 67.5278 39.0515 67.3548 38.8208 67.1241C32.6647 72.8549 29.5433 72.8117 28.39 72.4584C30.4084 75.9834 33.9478 78.5281 38.1143 79.1913C37.4151 78.2469 36.3771 75.3707 39.6498 67.6215ZM38.3666 64.8966C30.0335 61.1554 29.4352 58.1638 29.4857 57.2555C27.6619 59.5767 26.5878 62.489 26.5878 65.6607C26.5878 66.8502 26.7392 68.0035 27.0276 69.0992C27.6475 68.0324 29.947 65.9203 38.2297 65.8842C38.2225 65.8121 38.2153 65.7328 38.2153 65.6607C38.2153 65.394 38.2585 65.1273 38.3666 64.8966ZM50.3833 56.3833C50.3833 57.5223 49.5111 60.4417 42.0646 64.5723C42.2377 64.839 42.3386 65.1561 42.3602 65.4877C50.6645 64.7885 53.1298 66.6916 53.8507 67.7008C53.9444 67.0304 54.0021 66.3528 54.0021 65.6535C53.9948 62.0853 52.6252 58.8198 50.3833 56.3833ZM38.3666 64.8966C30.0335 61.1554 29.4352 58.1638 29.4857 57.2555C27.6619 59.5767 26.5878 62.489 26.5878 65.6607C26.5878 66.8502 26.7392 68.0035 27.0276 69.0992C27.6475 68.0324 29.947 65.9203 38.2297 65.8842C38.2225 65.8121 38.2153 65.7328 38.2153 65.6607C38.2153 65.394 38.2585 65.1273 38.3666 64.8966ZM39.6498 67.6215C39.3326 67.5278 39.0515 67.3548 38.8208 67.1241C32.6647 72.8549 29.5433 72.8117 28.39 72.4584C30.4084 75.9834 33.9478 78.5281 38.1143 79.1913C37.4151 78.2469 36.3771 75.3707 39.6498 67.6215ZM41.1059 67.535L41.1131 67.571L41.1203 67.5638C41.1131 67.5566 41.1131 67.5422 41.1059 67.535ZM40.2913 51.9572C38.0855 51.9572 36.0022 52.4763 34.164 53.399C35.339 53.8026 37.8693 55.612 39.6426 63.6928C39.8516 63.6207 40.0679 63.5847 40.2913 63.5847C40.4067 63.5847 40.522 63.5919 40.6373 63.6135C42.5548 54.61 45.3806 53.4566 46.2528 53.3197C44.4507 52.4402 42.4323 51.9572 40.2913 51.9572ZM41.8772 66.9943C41.6754 67.2394 41.4087 67.4413 41.1203 67.5638C45.0634 74.585 44.5588 77.6774 43.9605 78.8669C47.9685 77.7567 51.2412 74.8733 52.8703 71.1104C51.9404 71.6006 48.9633 72.2422 41.8772 66.9943ZM50.3833 56.3833C50.3833 57.5223 49.5111 60.4417 42.0646 64.5723C42.2377 64.839 42.3386 65.1561 42.3602 65.4877C50.6645 64.7885 53.1298 66.6916 53.8507 67.7008C53.9444 67.0304 54.0021 66.3528 54.0021 65.6535C53.9948 62.0853 52.6252 58.8198 50.3833 56.3833ZM41.8772 66.9943C41.6754 67.2394 41.4087 67.4413 41.1203 67.5638C45.0634 74.585 44.5588 77.6774 43.9605 78.8669C47.9685 77.7567 51.2412 74.8733 52.8703 71.1104C51.9404 71.6006 48.9633 72.2422 41.8772 66.9943ZM40.2913 51.9572C38.0855 51.9572 36.0022 52.4763 34.164 53.399C35.339 53.8026 37.8693 55.612 39.6426 63.6928C39.8516 63.6207 40.0679 63.5847 40.2913 63.5847C40.4067 63.5847 40.522 63.5919 40.6373 63.6135C42.5548 54.61 45.3806 53.4566 46.2528 53.3197C44.4507 52.4402 42.4323 51.9572 40.2913 51.9572ZM41.1059 67.535L41.1131 67.571L41.1203 67.5638C41.1131 67.5566 41.1131 67.5422 41.1059 67.535ZM39.6498 67.6215C39.3326 67.5278 39.0515 67.3548 38.8208 67.1241C32.6647 72.8549 29.5433 72.8117 28.39 72.4584C30.4084 75.9834 33.9478 78.5281 38.1143 79.1913C37.4151 78.2469 36.3771 75.3707 39.6498 67.6215ZM38.3666 64.8966C30.0335 61.1554 29.4352 58.1638 29.4857 57.2555C27.6619 59.5767 26.5878 62.489 26.5878 65.6607C26.5878 66.8502 26.7392 68.0035 27.0276 69.0992C27.6475 68.0324 29.947 65.9203 38.2297 65.8842C38.2225 65.8121 38.2153 65.7328 38.2153 65.6607C38.2153 65.394 38.2585 65.1273 38.3666 64.8966ZM41.1059 67.535L41.1131 67.571L41.1203 67.5638C41.1131 67.5566 41.1131 67.5422 41.1059 67.535ZM41.1059 67.535L41.1131 67.571L41.1203 67.5638C41.1131 67.5566 41.1131 67.5422 41.1059 67.535ZM41.1059 67.535L41.1131 67.571L41.1203 67.5638C41.1131 67.5566 41.1131 67.5422 41.1059 67.535ZM41.1059 67.535L41.1131 67.571L41.1203 67.5638C41.1131 67.5566 41.1131 67.5422 41.1059 67.535ZM41.1059 67.535L41.1131 67.571L41.1203 67.5638C41.1131 67.5566 41.1131 67.5422 41.1059 67.535ZM41.1059 67.535L41.1131 67.571L41.1203 67.5638C41.1131 67.5566 41.1131 67.5422 41.1059 67.535ZM41.1059 67.535L41.1131 67.571L41.1203 67.5638C41.1131 67.5566 41.1131 67.5422 41.1059 67.535ZM41.1059 67.535L41.1131 67.571L41.1203 67.5638C41.1131 67.5566 41.1131 67.5422 41.1059 67.535ZM41.1059 67.535L41.1131 67.571L41.1203 67.5638C41.1131 67.5566 41.1131 67.5422 41.1059 67.535ZM41.1059 67.535L41.1131 67.571L41.1203 67.5638C41.1131 67.5566 41.1131 67.5422 41.1059 67.535Z" fill="#22C55E"/>
<path d="M38.2152 65.6609C38.2152 65.733 38.2224 65.8123 38.2297 65.8843C29.947 65.9204 27.6475 68.0253 27.0275 69.0994C26.7392 68.0037 26.5878 66.8503 26.5878 65.6609C26.5878 62.4891 27.6619 59.5768 29.4856 57.2557C29.4352 58.164 30.0335 61.1555 38.3666 64.8968C38.2585 65.1274 38.2152 65.3942 38.2152 65.6609Z" fill="#22C55E"/>
<path d="M38.1143 79.1915C33.955 78.5283 30.4084 75.9837 28.39 72.4587C29.5433 72.8119 32.6646 72.8551 38.8208 67.1243C39.0514 67.355 39.3326 67.528 39.6498 67.6217C36.3771 75.3709 37.4151 78.2472 38.1143 79.1915Z" fill="#22C55E"/>
<path d="M41.1133 67.5648V67.5722L41.1059 67.535C41.1133 67.5425 41.1133 67.5573 41.1133 67.5648Z" fill="#22C55E"/>
<path d="M46.2528 53.3199C45.3806 53.4568 42.5548 54.603 40.6373 63.6137C40.5292 63.5921 40.4139 63.5849 40.2913 63.5849C40.0679 63.5849 39.8444 63.6209 39.6426 63.693C37.8692 55.6122 35.339 53.8029 34.164 53.3992C36.0022 52.4765 38.0855 51.9575 40.2913 51.9575C42.4323 51.9575 44.4507 52.4404 46.2528 53.3199Z" fill="#22C55E"/>
<path d="M52.8703 71.1105C51.2411 74.8734 47.9684 77.7568 43.9605 78.867C44.5588 77.6776 45.0634 74.5851 41.1203 67.5639C41.4158 67.4414 41.6753 67.2395 41.8772 66.9944C48.9632 72.2423 51.9404 71.6007 52.8703 71.1105Z" fill="#22C55E"/>
<path d="M53.9948 65.6608C53.9948 66.36 53.9371 67.0376 53.8434 67.708C53.1226 66.6988 50.65 64.7958 42.3529 65.495C42.3313 65.1562 42.2304 64.8462 42.0574 64.5795C49.5111 60.449 50.3761 57.5295 50.3761 56.3906C52.6252 58.8199 53.9948 62.0853 53.9948 65.6608Z" fill="#22C55E"/>
<path d="M41.1059 67.5352L41.1131 67.5712L41.1203 67.564C41.1131 67.5568 41.1131 67.5424 41.1059 67.5352ZM41.1059 67.5352L41.1131 67.5712L41.1203 67.564C41.1131 67.5568 41.1131 67.5424 41.1059 67.5352ZM41.1059 67.5352L41.1131 67.5712L41.1203 67.564C41.1131 67.5568 41.1131 67.5424 41.1059 67.5352ZM41.1059 67.5352L41.1131 67.5712L41.1203 67.564C41.1131 67.5568 41.1131 67.5424 41.1059 67.5352ZM41.1059 67.5352L41.1131 67.5712L41.1203 67.564C41.1131 67.5568 41.1131 67.5424 41.1059 67.5352ZM41.1059 67.5352L41.1131 67.5712L41.1203 67.564C41.1131 67.5568 41.1131 67.5424 41.1059 67.5352ZM41.1059 67.5352L41.1131 67.5712L41.1203 67.564C41.1131 67.5568 41.1131 67.5424 41.1059 67.5352ZM41.1059 67.5352L41.1131 67.5712L41.1203 67.564C41.1131 67.5568 41.1131 67.5424 41.1059 67.5352ZM41.1059 67.5352L41.1131 67.5712L41.1203 67.564C41.1131 67.5568 41.1131 67.5424 41.1059 67.5352ZM41.1059 67.5352L41.1131 67.5712L41.1203 67.564C41.1131 67.5568 41.1131 67.5424 41.1059 67.5352ZM50.3833 56.3835C50.3833 57.5225 49.5111 60.442 42.0646 64.5725C42.2376 64.8392 42.3385 65.1564 42.3602 65.488C50.6644 64.7887 53.1298 66.6918 53.8506 67.701C53.9444 67.0306 54.002 66.353 54.002 65.6538C53.9948 62.0855 52.6252 58.82 50.3833 56.3835ZM41.8772 66.9946C41.6754 67.2396 41.4086 67.4415 41.1203 67.564C45.0634 74.5852 44.5588 77.6777 43.9605 78.8671C47.9684 77.757 51.2411 74.8735 52.8703 71.1106C51.9404 71.6008 48.9632 72.2424 41.8772 66.9946ZM40.2913 51.9575C38.0855 51.9575 36.0022 52.4765 34.164 53.3992C35.339 53.8029 37.8692 55.6122 39.6425 63.693C39.8516 63.6209 40.0678 63.5849 40.2913 63.5849C40.4066 63.5849 40.522 63.5921 40.6373 63.6137C42.5548 54.6102 45.3806 53.4568 46.2528 53.3199C44.4507 52.4404 42.4323 51.9575 40.2913 51.9575ZM41.1059 67.5352L41.1131 67.5712L41.1203 67.564C41.1131 67.5568 41.1131 67.5424 41.1059 67.5352ZM39.6497 67.6217C39.3326 67.528 39.0514 67.355 38.8208 67.1243C32.6646 72.8551 29.5433 72.8119 28.3899 72.4587C30.4083 75.9836 33.9478 78.5283 38.1143 79.1915C37.4151 78.2471 36.377 75.3709 39.6497 67.6217ZM38.3666 64.8969C30.0335 61.1556 29.4352 58.164 29.4856 57.2558C27.6619 59.5769 26.5878 62.4892 26.5878 65.661C26.5878 66.8504 26.7392 68.0038 27.0275 69.0995C27.6475 68.0326 29.947 65.9205 38.2297 65.8844C38.2224 65.8123 38.2152 65.733 38.2152 65.661C38.2152 65.3942 38.2585 65.1275 38.3666 64.8969ZM41.1059 67.5352L41.1131 67.5712L41.1203 67.564C41.1131 67.5568 41.1131 67.5424 41.1059 67.5352ZM41.1059 67.5352L41.1131 67.5712L41.1203 67.564C41.1131 67.5568 41.1131 67.5424 41.1059 67.5352ZM41.1059 67.5352L41.1131 67.5712L41.1203 67.564C41.1131 67.5568 41.1131 67.5424 41.1059 67.5352ZM41.1059 67.5352L41.1131 67.5712L41.1203 67.564C41.1131 67.5568 41.1131 67.5424 41.1059 67.5352ZM41.1059 67.5352L41.1131 67.5712L41.1203 67.564C41.1131 67.5568 41.1131 67.5424 41.1059 67.5352ZM41.1059 67.5352L41.1131 67.5712L41.1203 67.564C41.1131 67.5568 41.1131 67.5424 41.1059 67.5352ZM41.1059 67.5352L41.1131 67.5712L41.1203 67.564C41.1131 67.5568 41.1131 67.5424 41.1059 67.5352ZM41.1059 67.5352L41.1131 67.5712L41.1203 67.564C41.1131 67.5568 41.1131 67.5424 41.1059 67.5352ZM41.1059 67.5352L41.1131 67.5712L41.1203 67.564C41.1131 67.5568 41.1131 67.5424 41.1059 67.5352ZM41.1059 67.5352L41.1131 67.5712L41.1203 67.564C41.1131 67.5568 41.1131 67.5424 41.1059 67.5352Z" fill="#22C55E"/>
<path d="M42.3674 65.6608C42.3674 66.151 42.1872 66.6123 41.8988 66.9727C41.8844 66.9872 41.8772 66.9944 41.87 67.0016C41.6681 67.2467 41.4014 67.4485 41.1131 67.571C41.1131 67.5638 41.1059 67.5494 41.0987 67.5422L41.1059 67.5783C40.8608 67.6792 40.5797 67.7441 40.2913 67.7441C40.0751 67.7441 39.8588 67.708 39.6642 67.6431C39.657 67.6503 39.657 67.6431 39.6497 67.6359C39.3326 67.5422 39.0514 67.3692 38.8208 67.1385C38.8136 67.1313 38.8063 67.1169 38.7919 67.1097C38.4892 66.7997 38.2873 66.3888 38.2297 65.9491C38.2224 65.9347 38.2224 65.9131 38.2224 65.8987C38.2152 65.8266 38.208 65.7473 38.208 65.6752C38.208 65.4085 38.2585 65.149 38.3594 64.9183C38.3594 64.8967 38.3738 64.8678 38.381 64.8462C38.6117 64.32 39.0514 63.9091 39.5993 63.7217C39.6137 63.7073 39.6281 63.7073 39.6425 63.7073C39.8516 63.6352 40.0678 63.5991 40.2913 63.5991C40.4066 63.5991 40.522 63.6063 40.6373 63.628C40.6589 63.6352 40.6806 63.6352 40.695 63.6424C41.2645 63.7505 41.7474 64.0965 42.043 64.5651C42.0502 64.5723 42.0574 64.5795 42.0574 64.5939C42.2304 64.8606 42.3313 65.1778 42.353 65.5094C42.3602 65.5166 42.3602 65.531 42.3602 65.5382V65.5454C42.3674 65.5743 42.3674 65.6103 42.3674 65.6608Z" fill="#22C55E"/>
<path d="M41.1133 67.5648V67.5722L41.1059 67.535C41.1133 67.5425 41.1133 67.5573 41.1133 67.5648Z" fill="#22C55E"/>
<path d="M41.1133 67.5648V67.5722L41.1059 67.535C41.1133 67.5425 41.1133 67.5573 41.1133 67.5648Z" fill="#22C55E"/>
<path d="M178.105 68.0758L178.112 68.1118L178.119 68.1046C178.119 68.0974 178.112 68.083 178.105 68.0758ZM178.105 68.0758L178.112 68.1118L178.119 68.1046C178.119 68.0974 178.112 68.083 178.105 68.0758ZM178.105 68.0758L178.112 68.1118L178.119 68.1046C178.119 68.0974 178.112 68.083 178.105 68.0758ZM178.105 68.0758L178.112 68.1118L178.119 68.1046C178.119 68.0974 178.112 68.083 178.105 68.0758ZM178.105 68.0758L178.112 68.1118L178.119 68.1046C178.119 68.0974 178.112 68.083 178.105 68.0758ZM178.105 68.0758L178.112 68.1118L178.119 68.1046C178.119 68.0974 178.112 68.083 178.105 68.0758ZM178.105 68.0758L178.112 68.1118L178.119 68.1046C178.119 68.0974 178.112 68.083 178.105 68.0758ZM178.105 68.0758L178.112 68.1118L178.119 68.1046C178.119 68.0974 178.112 68.083 178.105 68.0758ZM178.105 68.0758L178.112 68.1118L178.119 68.1046C178.119 68.0974 178.112 68.083 178.105 68.0758ZM178.105 68.0758L178.112 68.1118L178.119 68.1046C178.119 68.0974 178.112 68.083 178.105 68.0758ZM187.382 56.9241C187.382 58.063 186.51 60.9825 179.064 65.113C179.237 65.3797 179.338 65.6969 179.359 66.0285C187.663 65.3293 190.129 67.2323 190.85 68.2415C190.943 67.5711 191.001 66.8935 191.001 66.1943C191.001 62.6261 189.631 59.3606 187.382 56.9241ZM175.366 65.4374C167.033 61.6962 166.434 58.7046 166.485 57.7963C164.661 60.1175 163.587 63.0297 163.587 66.2015C163.587 67.3909 163.738 68.5443 164.027 69.64C164.646 68.5731 166.946 66.461 175.229 66.425C175.221 66.3529 175.214 66.2736 175.214 66.2015C175.214 65.9348 175.265 65.6681 175.366 65.4374ZM176.656 68.1623C176.339 68.0685 176.058 67.8955 175.827 67.6649C169.671 73.3957 166.55 73.3524 165.396 72.9992C167.415 76.5242 170.954 79.0688 175.121 79.732C174.414 78.7877 173.376 75.9115 176.656 68.1623ZM178.105 68.0758L178.112 68.1118L178.119 68.1046C178.119 68.0974 178.112 68.083 178.105 68.0758ZM177.298 52.498C175.092 52.498 173.008 53.017 171.17 53.9397C172.345 54.3434 174.875 56.1528 176.649 64.2336C176.851 64.1615 177.074 64.1255 177.298 64.1255C177.413 64.1255 177.528 64.1327 177.644 64.1543C179.561 55.1508 182.387 53.9974 183.259 53.8604C181.45 52.981 179.431 52.498 177.298 52.498ZM178.876 67.5351C178.674 67.7802 178.408 67.982 178.119 68.1046C182.062 75.1257 181.558 78.2182 180.959 79.4076C184.967 78.2975 188.24 75.4141 189.869 71.6512C188.947 72.1414 185.969 72.783 178.876 67.5351ZM187.382 56.9241C187.382 58.063 186.51 60.9825 179.064 65.113C179.237 65.3797 179.338 65.6969 179.359 66.0285C187.663 65.3293 190.129 67.2323 190.85 68.2415C190.943 67.5711 191.001 66.8935 191.001 66.1943C191.001 62.6261 189.631 59.3606 187.382 56.9241ZM178.876 67.5351C178.674 67.7802 178.408 67.982 178.119 68.1046C182.062 75.1257 181.558 78.2182 180.959 79.4076C184.967 78.2975 188.24 75.4141 189.869 71.6512C188.947 72.1414 185.969 72.783 178.876 67.5351ZM177.298 52.498C175.092 52.498 173.008 53.017 171.17 53.9397C172.345 54.3434 174.875 56.1528 176.649 64.2336C176.851 64.1615 177.074 64.1255 177.298 64.1255C177.413 64.1255 177.528 64.1327 177.644 64.1543C179.561 55.1508 182.387 53.9974 183.259 53.8604C181.45 52.981 179.431 52.498 177.298 52.498ZM178.105 68.0758L178.112 68.1118L178.119 68.1046C178.119 68.0974 178.112 68.083 178.105 68.0758ZM176.656 68.1623C176.339 68.0685 176.058 67.8955 175.827 67.6649C169.671 73.3957 166.55 73.3524 165.396 72.9992C167.415 76.5242 170.954 79.0688 175.121 79.732C174.414 78.7877 173.376 75.9115 176.656 68.1623ZM175.366 65.4374C167.033 61.6962 166.434 58.7046 166.485 57.7963C164.661 60.1175 163.587 63.0297 163.587 66.2015C163.587 67.3909 163.738 68.5443 164.027 69.64C164.646 68.5731 166.946 66.461 175.229 66.425C175.221 66.3529 175.214 66.2736 175.214 66.2015C175.214 65.9348 175.265 65.6681 175.366 65.4374ZM187.382 56.9241C187.382 58.063 186.51 60.9825 179.064 65.113C179.237 65.3797 179.338 65.6969 179.359 66.0285C187.663 65.3293 190.129 67.2323 190.85 68.2415C190.943 67.5711 191.001 66.8935 191.001 66.1943C191.001 62.6261 189.631 59.3606 187.382 56.9241ZM175.366 65.4374C167.033 61.6962 166.434 58.7046 166.485 57.7963C164.661 60.1175 163.587 63.0297 163.587 66.2015C163.587 67.3909 163.738 68.5443 164.027 69.64C164.646 68.5731 166.946 66.461 175.229 66.425C175.221 66.3529 175.214 66.2736 175.214 66.2015C175.214 65.9348 175.265 65.6681 175.366 65.4374ZM176.656 68.1623C176.339 68.0685 176.058 67.8955 175.827 67.6649C169.671 73.3957 166.55 73.3524 165.396 72.9992C167.415 76.5242 170.954 79.0688 175.121 79.732C174.414 78.7877 173.376 75.9115 176.656 68.1623ZM178.105 68.0758L178.112 68.1118L178.119 68.1046C178.119 68.0974 178.112 68.083 178.105 68.0758ZM177.298 52.498C175.092 52.498 173.008 53.017 171.17 53.9397C172.345 54.3434 174.875 56.1528 176.649 64.2336C176.851 64.1615 177.074 64.1255 177.298 64.1255C177.413 64.1255 177.528 64.1327 177.644 64.1543C179.561 55.1508 182.387 53.9974 183.259 53.8604C181.45 52.981 179.431 52.498 177.298 52.498ZM178.876 67.5351C178.674 67.7802 178.408 67.982 178.119 68.1046C182.062 75.1257 181.558 78.2182 180.959 79.4076C184.967 78.2975 188.24 75.4141 189.869 71.6512C188.947 72.1414 185.969 72.783 178.876 67.5351ZM187.382 56.9241C187.382 58.063 186.51 60.9825 179.064 65.113C179.237 65.3797 179.338 65.6969 179.359 66.0285C187.663 65.3293 190.129 67.2323 190.85 68.2415C190.943 67.5711 191.001 66.8935 191.001 66.1943C191.001 62.6261 189.631 59.3606 187.382 56.9241ZM178.876 67.5351C178.674 67.7802 178.408 67.982 178.119 68.1046C182.062 75.1257 181.558 78.2182 180.959 79.4076C184.967 78.2975 188.24 75.4141 189.869 71.6512C188.947 72.1414 185.969 72.783 178.876 67.5351ZM177.298 52.498C175.092 52.498 173.008 53.017 171.17 53.9397C172.345 54.3434 174.875 56.1528 176.649 64.2336C176.851 64.1615 177.074 64.1255 177.298 64.1255C177.413 64.1255 177.528 64.1327 177.644 64.1543C179.561 55.1508 182.387 53.9974 183.259 53.8604C181.45 52.981 179.431 52.498 177.298 52.498ZM178.105 68.0758L178.112 68.1118L178.119 68.1046C178.119 68.0974 178.112 68.083 178.105 68.0758ZM176.656 68.1623C176.339 68.0685 176.058 67.8955 175.827 67.6649C169.671 73.3957 166.55 73.3524 165.396 72.9992C167.415 76.5242 170.954 79.0688 175.121 79.732C174.414 78.7877 173.376 75.9115 176.656 68.1623ZM175.366 65.4374C167.033 61.6962 166.434 58.7046 166.485 57.7963C164.661 60.1175 163.587 63.0297 163.587 66.2015C163.587 67.3909 163.738 68.5443 164.027 69.64C164.646 68.5731 166.946 66.461 175.229 66.425C175.221 66.3529 175.214 66.2736 175.214 66.2015C175.214 65.9348 175.265 65.6681 175.366 65.4374ZM187.382 56.9241C187.382 58.063 186.51 60.9825 179.064 65.113C179.237 65.3797 179.338 65.6969 179.359 66.0285C187.663 65.3293 190.129 67.2323 190.85 68.2415C190.943 67.5711 191.001 66.8935 191.001 66.1943C191.001 62.6261 189.631 59.3606 187.382 56.9241ZM175.366 65.4374C167.033 61.6962 166.434 58.7046 166.485 57.7963C164.661 60.1175 163.587 63.0297 163.587 66.2015C163.587 67.3909 163.738 68.5443 164.027 69.64C164.646 68.5731 166.946 66.461 175.229 66.425C175.221 66.3529 175.214 66.2736 175.214 66.2015C175.214 65.9348 175.265 65.6681 175.366 65.4374ZM176.656 68.1623C176.339 68.0685 176.058 67.8955 175.827 67.6649C169.671 73.3957 166.55 73.3524 165.396 72.9992C167.415 76.5242 170.954 79.0688 175.121 79.732C174.414 78.7877 173.376 75.9115 176.656 68.1623ZM178.105 68.0758L178.112 68.1118L178.119 68.1046C178.119 68.0974 178.112 68.083 178.105 68.0758ZM177.298 52.498C175.092 52.498 173.008 53.017 171.17 53.9397C172.345 54.3434 174.875 56.1528 176.649 64.2336C176.851 64.1615 177.074 64.1255 177.298 64.1255C177.413 64.1255 177.528 64.1327 177.644 64.1543C179.561 55.1508 182.387 53.9974 183.259 53.8604C181.45 52.981 179.431 52.498 177.298 52.498ZM178.876 67.5351C178.674 67.7802 178.408 67.982 178.119 68.1046C182.062 75.1257 181.558 78.2182 180.959 79.4076C184.967 78.2975 188.24 75.4141 189.869 71.6512C188.947 72.1414 185.969 72.783 178.876 67.5351ZM187.382 56.9241C187.382 58.063 186.51 60.9825 179.064 65.113C179.237 65.3797 179.338 65.6969 179.359 66.0285C187.663 65.3293 190.129 67.2323 190.85 68.2415C190.943 67.5711 191.001 66.8935 191.001 66.1943C191.001 62.6261 189.631 59.3606 187.382 56.9241ZM178.876 67.5351C178.674 67.7802 178.408 67.982 178.119 68.1046C182.062 75.1257 181.558 78.2182 180.959 79.4076C184.967 78.2975 188.24 75.4141 189.869 71.6512C188.947 72.1414 185.969 72.783 178.876 67.5351ZM177.298 52.498C175.092 52.498 173.008 53.017 171.17 53.9397C172.345 54.3434 174.875 56.1528 176.649 64.2336C176.851 64.1615 177.074 64.1255 177.298 64.1255C177.413 64.1255 177.528 64.1327 177.644 64.1543C179.561 55.1508 182.387 53.9974 183.259 53.8604C181.45 52.981 179.431 52.498 177.298 52.498ZM178.105 68.0758L178.112 68.1118L178.119 68.1046C178.119 68.0974 178.112 68.083 178.105 68.0758ZM176.656 68.1623C176.339 68.0685 176.058 67.8955 175.827 67.6649C169.671 73.3957 166.55 73.3524 165.396 72.9992C167.415 76.5242 170.954 79.0688 175.121 79.732C174.414 78.7877 173.376 75.9115 176.656 68.1623ZM175.366 65.4374C167.033 61.6962 166.434 58.7046 166.485 57.7963C164.661 60.1175 163.587 63.0297 163.587 66.2015C163.587 67.3909 163.738 68.5443 164.027 69.64C164.646 68.5731 166.946 66.461 175.229 66.425C175.221 66.3529 175.214 66.2736 175.214 66.2015C175.214 65.9348 175.265 65.6681 175.366 65.4374ZM187.382 56.9241C187.382 58.063 186.51 60.9825 179.064 65.113C179.237 65.3797 179.338 65.6969 179.359 66.0285C187.663 65.3293 190.129 67.2323 190.85 68.2415C190.943 67.5711 191.001 66.8935 191.001 66.1943C191.001 62.6261 189.631 59.3606 187.382 56.9241ZM175.366 65.4374C167.033 61.6962 166.434 58.7046 166.485 57.7963C164.661 60.1175 163.587 63.0297 163.587 66.2015C163.587 67.3909 163.738 68.5443 164.027 69.64C164.646 68.5731 166.946 66.461 175.229 66.425C175.221 66.3529 175.214 66.2736 175.214 66.2015C175.214 65.9348 175.265 65.6681 175.366 65.4374ZM176.656 68.1623C176.339 68.0685 176.058 67.8955 175.827 67.6649C169.671 73.3957 166.55 73.3524 165.396 72.9992C167.415 76.5242 170.954 79.0688 175.121 79.732C174.414 78.7877 173.376 75.9115 176.656 68.1623ZM178.105 68.0758L178.112 68.1118L178.119 68.1046C178.119 68.0974 178.112 68.083 178.105 68.0758ZM177.298 52.498C175.092 52.498 173.008 53.017 171.17 53.9397C172.345 54.3434 174.875 56.1528 176.649 64.2336C176.851 64.1615 177.074 64.1255 177.298 64.1255C177.413 64.1255 177.528 64.1327 177.644 64.1543C179.561 55.1508 182.387 53.9974 183.259 53.8604C181.45 52.981 179.431 52.498 177.298 52.498ZM178.876 67.5351C178.674 67.7802 178.408 67.982 178.119 68.1046C182.062 75.1257 181.558 78.2182 180.959 79.4076C184.967 78.2975 188.24 75.4141 189.869 71.6512C188.947 72.1414 185.969 72.783 178.876 67.5351ZM187.382 56.9241C187.382 58.063 186.51 60.9825 179.064 65.113C179.237 65.3797 179.338 65.6969 179.359 66.0285C187.663 65.3293 190.129 67.2323 190.85 68.2415C190.943 67.5711 191.001 66.8935 191.001 66.1943C191.001 62.6261 189.631 59.3606 187.382 56.9241ZM178.876 67.5351C178.674 67.7802 178.408 67.982 178.119 68.1046C182.062 75.1257 181.558 78.2182 180.959 79.4076C184.967 78.2975 188.24 75.4141 189.869 71.6512C188.947 72.1414 185.969 72.783 178.876 67.5351ZM177.298 52.498C175.092 52.498 173.008 53.017 171.17 53.9397C172.345 54.3434 174.875 56.1528 176.649 64.2336C176.851 64.1615 177.074 64.1255 177.298 64.1255C177.413 64.1255 177.528 64.1327 177.644 64.1543C179.561 55.1508 182.387 53.9974 183.259 53.8604C181.45 52.981 179.431 52.498 177.298 52.498ZM178.105 68.0758L178.112 68.1118L178.119 68.1046C178.119 68.0974 178.112 68.083 178.105 68.0758ZM176.656 68.1623C176.339 68.0685 176.058 67.8955 175.827 67.6649C169.671 73.3957 166.55 73.3524 165.396 72.9992C167.415 76.5242 170.954 79.0688 175.121 79.732C174.414 78.7877 173.376 75.9115 176.656 68.1623ZM175.366 65.4374C167.033 61.6962 166.434 58.7046 166.485 57.7963C164.661 60.1175 163.587 63.0297 163.587 66.2015C163.587 67.3909 163.738 68.5443 164.027 69.64C164.646 68.5731 166.946 66.461 175.229 66.425C175.221 66.3529 175.214 66.2736 175.214 66.2015C175.214 65.9348 175.265 65.6681 175.366 65.4374ZM187.382 56.9241C187.382 58.063 186.51 60.9825 179.064 65.113C179.237 65.3797 179.338 65.6969 179.359 66.0285C187.663 65.3293 190.129 67.2323 190.85 68.2415C190.943 67.5711 191.001 66.8935 191.001 66.1943C191.001 62.6261 189.631 59.3606 187.382 56.9241ZM175.366 65.4374C167.033 61.6962 166.434 58.7046 166.485 57.7963C164.661 60.1175 163.587 63.0297 163.587 66.2015C163.587 67.3909 163.738 68.5443 164.027 69.64C164.646 68.5731 166.946 66.461 175.229 66.425C175.221 66.3529 175.214 66.2736 175.214 66.2015C175.214 65.9348 175.265 65.6681 175.366 65.4374ZM176.656 68.1623C176.339 68.0685 176.058 67.8955 175.827 67.6649C169.671 73.3957 166.55 73.3524 165.396 72.9992C167.415 76.5242 170.954 79.0688 175.121 79.732C174.414 78.7877 173.376 75.9115 176.656 68.1623ZM178.105 68.0758L178.112 68.1118L178.119 68.1046C178.119 68.0974 178.112 68.083 178.105 68.0758ZM177.298 52.498C175.092 52.498 173.008 53.017 171.17 53.9397C172.345 54.3434 174.875 56.1528 176.649 64.2336C176.851 64.1615 177.074 64.1255 177.298 64.1255C177.413 64.1255 177.528 64.1327 177.644 64.1543C179.561 55.1508 182.387 53.9974 183.259 53.8604C181.45 52.981 179.431 52.498 177.298 52.498ZM178.876 67.5351C178.674 67.7802 178.408 67.982 178.119 68.1046C182.062 75.1257 181.558 78.2182 180.959 79.4076C184.967 78.2975 188.24 75.4141 189.869 71.6512C188.947 72.1414 185.969 72.783 178.876 67.5351ZM187.382 56.9241C187.382 58.063 186.51 60.9825 179.064 65.113C179.237 65.3797 179.338 65.6969 179.359 66.0285C187.663 65.3293 190.129 67.2323 190.85 68.2415C190.943 67.5711 191.001 66.8935 191.001 66.1943C191.001 62.6261 189.631 59.3606 187.382 56.9241ZM178.876 67.5351C178.674 67.7802 178.408 67.982 178.119 68.1046C182.062 75.1257 181.558 78.2182 180.959 79.4076C184.967 78.2975 188.24 75.4141 189.869 71.6512C188.947 72.1414 185.969 72.783 178.876 67.5351ZM177.298 52.498C175.092 52.498 173.008 53.017 171.17 53.9397C172.345 54.3434 174.875 56.1528 176.649 64.2336C176.851 64.1615 177.074 64.1255 177.298 64.1255C177.413 64.1255 177.528 64.1327 177.644 64.1543C179.561 55.1508 182.387 53.9974 183.259 53.8604C181.45 52.981 179.431 52.498 177.298 52.498ZM178.105 68.0758L178.112 68.1118L178.119 68.1046C178.119 68.0974 178.112 68.083 178.105 68.0758ZM176.656 68.1623C176.339 68.0685 176.058 67.8955 175.827 67.6649C169.671 73.3957 166.55 73.3524 165.396 72.9992C167.415 76.5242 170.954 79.0688 175.121 79.732C174.414 78.7877 173.376 75.9115 176.656 68.1623ZM175.366 65.4374C167.033 61.6962 166.434 58.7046 166.485 57.7963C164.661 60.1175 163.587 63.0297 163.587 66.2015C163.587 67.3909 163.738 68.5443 164.027 69.64C164.646 68.5731 166.946 66.461 175.229 66.425C175.221 66.3529 175.214 66.2736 175.214 66.2015C175.214 65.9348 175.265 65.6681 175.366 65.4374ZM187.382 56.9241C187.382 58.063 186.51 60.9825 179.064 65.113C179.237 65.3797 179.338 65.6969 179.359 66.0285C187.663 65.3293 190.129 67.2323 190.85 68.2415C190.943 67.5711 191.001 66.8935 191.001 66.1943C191.001 62.6261 189.631 59.3606 187.382 56.9241ZM175.366 65.4374C167.033 61.6962 166.434 58.7046 166.485 57.7963C164.661 60.1175 163.587 63.0297 163.587 66.2015C163.587 67.3909 163.738 68.5443 164.027 69.64C164.646 68.5731 166.946 66.461 175.229 66.425C175.221 66.3529 175.214 66.2736 175.214 66.2015C175.214 65.9348 175.265 65.6681 175.366 65.4374ZM176.656 68.1623C176.339 68.0685 176.058 67.8955 175.827 67.6649C169.671 73.3957 166.55 73.3524 165.396 72.9992C167.415 76.5242 170.954 79.0688 175.121 79.732C174.414 78.7877 173.376 75.9115 176.656 68.1623ZM178.105 68.0758L178.112 68.1118L178.119 68.1046C178.119 68.0974 178.112 68.083 178.105 68.0758ZM177.298 52.498C175.092 52.498 173.008 53.017 171.17 53.9397C172.345 54.3434 174.875 56.1528 176.649 64.2336C176.851 64.1615 177.074 64.1255 177.298 64.1255C177.413 64.1255 177.528 64.1327 177.644 64.1543C179.561 55.1508 182.387 53.9974 183.259 53.8604C181.45 52.981 179.431 52.498 177.298 52.498ZM178.876 67.5351C178.674 67.7802 178.408 67.982 178.119 68.1046C182.062 75.1257 181.558 78.2182 180.959 79.4076C184.967 78.2975 188.24 75.4141 189.869 71.6512C188.947 72.1414 185.969 72.783 178.876 67.5351ZM187.382 56.9241C187.382 58.063 186.51 60.9825 179.064 65.113C179.237 65.3797 179.338 65.6969 179.359 66.0285C187.663 65.3293 190.129 67.2323 190.85 68.2415C190.943 67.5711 191.001 66.8935 191.001 66.1943C191.001 62.6261 189.631 59.3606 187.382 56.9241ZM178.876 67.5351C178.674 67.7802 178.408 67.982 178.119 68.1046C182.062 75.1257 181.558 78.2182 180.959 79.4076C184.967 78.2975 188.24 75.4141 189.869 71.6512C188.947 72.1414 185.969 72.783 178.876 67.5351ZM183.252 53.8604C181.45 52.981 179.431 52.498 177.29 52.498C175.085 52.498 173.001 53.017 171.163 53.9397C172.338 54.3434 174.868 56.1528 176.642 64.2336C176.843 64.1615 177.067 64.1255 177.29 64.1255C177.406 64.1255 177.521 64.1327 177.636 64.1543C179.554 55.1436 182.387 53.9974 183.252 53.8604ZM178.112 68.1118L178.119 68.1046C178.119 68.0974 178.112 68.083 178.105 68.0758L178.112 68.1118ZM175.827 67.6649C169.671 73.3957 166.55 73.3524 165.396 72.9992C167.415 76.5242 170.954 79.0688 175.121 79.732C174.414 78.7877 173.383 75.9115 176.656 68.1695C176.339 68.0685 176.058 67.8955 175.827 67.6649ZM175.214 66.2015C175.214 65.9348 175.265 65.6753 175.366 65.4446C167.033 61.7034 166.434 58.7118 166.485 57.8035C164.661 60.1247 163.587 63.037 163.587 66.2087C163.587 67.3981 163.738 68.5515 164.027 69.6472C164.646 68.5804 166.946 66.4682 175.229 66.4322C175.221 66.3529 175.214 66.2736 175.214 66.2015ZM187.382 56.9241C187.382 58.063 186.51 60.9825 179.064 65.113C179.237 65.3797 179.338 65.6969 179.359 66.0285C187.663 65.3293 190.129 67.2323 190.85 68.2415C190.943 67.5711 191.001 66.8935 191.001 66.1943C191.001 62.6261 189.631 59.3606 187.382 56.9241ZM177.298 48.2233C167.371 48.2233 159.319 56.2681 159.319 66.2015C159.319 76.1277 167.364 84.1797 177.298 84.1797C187.224 84.1797 195.276 76.1349 195.276 66.2015C195.276 56.2681 187.217 48.2233 177.298 48.2233ZM177.298 80.7268C169.267 80.7268 162.758 74.2247 162.758 66.1943C162.758 58.164 169.267 51.6546 177.298 51.6546C185.328 51.6546 191.83 58.164 191.83 66.1943C191.83 74.2247 185.321 80.7268 177.298 80.7268ZM178.876 67.5351C178.674 67.7802 178.408 67.982 178.119 68.1046C182.062 75.1257 181.558 78.2182 180.959 79.4076C184.967 78.2975 188.24 75.4141 189.869 71.6512C188.947 72.1414 185.969 72.783 178.876 67.5351ZM183.252 53.8604C181.45 52.981 179.431 52.498 177.29 52.498C175.085 52.498 173.001 53.017 171.163 53.9397C172.338 54.3434 174.868 56.1528 176.642 64.2336C176.843 64.1615 177.067 64.1255 177.29 64.1255C177.406 64.1255 177.521 64.1327 177.636 64.1543C179.554 55.1436 182.387 53.9974 183.252 53.8604ZM178.112 68.1118L178.119 68.1046C178.119 68.0974 178.112 68.083 178.105 68.0758L178.112 68.1118ZM175.827 67.6649C169.671 73.3957 166.55 73.3524 165.396 72.9992C167.415 76.5242 170.954 79.0688 175.121 79.732C174.414 78.7877 173.383 75.9115 176.656 68.1695C176.339 68.0685 176.058 67.8955 175.827 67.6649ZM175.214 66.2015C175.214 65.9348 175.265 65.6753 175.366 65.4446C167.033 61.7034 166.434 58.7118 166.485 57.8035C164.661 60.1247 163.587 63.037 163.587 66.2087C163.587 67.3981 163.738 68.5515 164.027 69.6472C164.646 68.5804 166.946 66.4682 175.229 66.4322C175.221 66.3529 175.214 66.2736 175.214 66.2015ZM187.382 56.9241C187.382 58.063 186.51 60.9825 179.064 65.113C179.237 65.3797 179.338 65.6969 179.359 66.0285C187.663 65.3293 190.129 67.2323 190.85 68.2415C190.943 67.5711 191.001 66.8935 191.001 66.1943C191.001 62.6261 189.631 59.3606 187.382 56.9241ZM175.366 65.4374C167.033 61.6962 166.434 58.7046 166.485 57.7963C164.661 60.1175 163.587 63.0297 163.587 66.2015C163.587 67.3909 163.738 68.5443 164.027 69.64C164.646 68.5731 166.946 66.461 175.229 66.425C175.221 66.3529 175.214 66.2736 175.214 66.2015C175.214 65.9348 175.265 65.6681 175.366 65.4374ZM176.656 68.1623C176.339 68.0685 176.058 67.8955 175.827 67.6649C169.671 73.3957 166.55 73.3524 165.396 72.9992C167.415 76.5242 170.954 79.0688 175.121 79.732C174.414 78.7877 173.376 75.9115 176.656 68.1623ZM178.105 68.0758L178.112 68.1118L178.119 68.1046C178.119 68.0974 178.112 68.083 178.105 68.0758ZM177.298 52.498C175.092 52.498 173.008 53.017 171.17 53.9397C172.345 54.3434 174.875 56.1528 176.649 64.2336C176.851 64.1615 177.074 64.1255 177.298 64.1255C177.413 64.1255 177.528 64.1327 177.644 64.1543C179.561 55.1508 182.387 53.9974 183.259 53.8604C181.45 52.981 179.431 52.498 177.298 52.498ZM178.876 67.5351C178.674 67.7802 178.408 67.982 178.119 68.1046C182.062 75.1257 181.558 78.2182 180.959 79.4076C184.967 78.2975 188.24 75.4141 189.869 71.6512C188.947 72.1414 185.969 72.783 178.876 67.5351ZM187.382 56.9241C187.382 58.063 186.51 60.9825 179.064 65.113C179.237 65.3797 179.338 65.6969 179.359 66.0285C187.663 65.3293 190.129 67.2323 190.85 68.2415C190.943 67.5711 191.001 66.8935 191.001 66.1943C191.001 62.6261 189.631 59.3606 187.382 56.9241ZM178.876 67.5351C178.674 67.7802 178.408 67.982 178.119 68.1046C182.062 75.1257 181.558 78.2182 180.959 79.4076C184.967 78.2975 188.24 75.4141 189.869 71.6512C188.947 72.1414 185.969 72.783 178.876 67.5351ZM177.298 52.498C175.092 52.498 173.008 53.017 171.17 53.9397C172.345 54.3434 174.875 56.1528 176.649 64.2336C176.851 64.1615 177.074 64.1255 177.298 64.1255C177.413 64.1255 177.528 64.1327 177.644 64.1543C179.561 55.1508 182.387 53.9974 183.259 53.8604C181.45 52.981 179.431 52.498 177.298 52.498ZM178.105 68.0758L178.112 68.1118L178.119 68.1046C178.119 68.0974 178.112 68.083 178.105 68.0758ZM176.656 68.1623C176.339 68.0685 176.058 67.8955 175.827 67.6649C169.671 73.3957 166.55 73.3524 165.396 72.9992C167.415 76.5242 170.954 79.0688 175.121 79.732C174.414 78.7877 173.376 75.9115 176.656 68.1623ZM175.366 65.4374C167.033 61.6962 166.434 58.7046 166.485 57.7963C164.661 60.1175 163.587 63.0297 163.587 66.2015C163.587 67.3909 163.738 68.5443 164.027 69.64C164.646 68.5731 166.946 66.461 175.229 66.425C175.221 66.3529 175.214 66.2736 175.214 66.2015C175.214 65.9348 175.265 65.6681 175.366 65.4374ZM187.382 56.9241C187.382 58.063 186.51 60.9825 179.064 65.113C179.237 65.3797 179.338 65.6969 179.359 66.0285C187.663 65.3293 190.129 67.2323 190.85 68.2415C190.943 67.5711 191.001 66.8935 191.001 66.1943C191.001 62.6261 189.631 59.3606 187.382 56.9241ZM175.366 65.4374C167.033 61.6962 166.434 58.7046 166.485 57.7963C164.661 60.1175 163.587 63.0297 163.587 66.2015C163.587 67.3909 163.738 68.5443 164.027 69.64C164.646 68.5731 166.946 66.461 175.229 66.425C175.221 66.3529 175.214 66.2736 175.214 66.2015C175.214 65.9348 175.265 65.6681 175.366 65.4374ZM176.656 68.1623C176.339 68.0685 176.058 67.8955 175.827 67.6649C169.671 73.3957 166.55 73.3524 165.396 72.9992C167.415 76.5242 170.954 79.0688 175.121 79.732C174.414 78.7877 173.376 75.9115 176.656 68.1623ZM178.105 68.0758L178.112 68.1118L178.119 68.1046C178.119 68.0974 178.112 68.083 178.105 68.0758ZM177.298 52.498C175.092 52.498 173.008 53.017 171.17 53.9397C172.345 54.3434 174.875 56.1528 176.649 64.2336C176.851 64.1615 177.074 64.1255 177.298 64.1255C177.413 64.1255 177.528 64.1327 177.644 64.1543C179.561 55.1508 182.387 53.9974 183.259 53.8604C181.45 52.981 179.431 52.498 177.298 52.498ZM178.876 67.5351C178.674 67.7802 178.408 67.982 178.119 68.1046C182.062 75.1257 181.558 78.2182 180.959 79.4076C184.967 78.2975 188.24 75.4141 189.869 71.6512C188.947 72.1414 185.969 72.783 178.876 67.5351ZM187.382 56.9241C187.382 58.063 186.51 60.9825 179.064 65.113C179.237 65.3797 179.338 65.6969 179.359 66.0285C187.663 65.3293 190.129 67.2323 190.85 68.2415C190.943 67.5711 191.001 66.8935 191.001 66.1943C191.001 62.6261 189.631 59.3606 187.382 56.9241ZM178.876 67.5351C178.674 67.7802 178.408 67.982 178.119 68.1046C182.062 75.1257 181.558 78.2182 180.959 79.4076C184.967 78.2975 188.24 75.4141 189.869 71.6512C188.947 72.1414 185.969 72.783 178.876 67.5351ZM177.298 52.498C175.092 52.498 173.008 53.017 171.17 53.9397C172.345 54.3434 174.875 56.1528 176.649 64.2336C176.851 64.1615 177.074 64.1255 177.298 64.1255C177.413 64.1255 177.528 64.1327 177.644 64.1543C179.561 55.1508 182.387 53.9974 183.259 53.8604C181.45 52.981 179.431 52.498 177.298 52.498ZM178.105 68.0758L178.112 68.1118L178.119 68.1046C178.119 68.0974 178.112 68.083 178.105 68.0758ZM176.656 68.1623C176.339 68.0685 176.058 67.8955 175.827 67.6649C169.671 73.3957 166.55 73.3524 165.396 72.9992C167.415 76.5242 170.954 79.0688 175.121 79.732C174.414 78.7877 173.376 75.9115 176.656 68.1623ZM175.366 65.4374C167.033 61.6962 166.434 58.7046 166.485 57.7963C164.661 60.1175 163.587 63.0297 163.587 66.2015C163.587 67.3909 163.738 68.5443 164.027 69.64C164.646 68.5731 166.946 66.461 175.229 66.425C175.221 66.3529 175.214 66.2736 175.214 66.2015C175.214 65.9348 175.265 65.6681 175.366 65.4374ZM187.382 56.9241C187.382 58.063 186.51 60.9825 179.064 65.113C179.237 65.3797 179.338 65.6969 179.359 66.0285C187.663 65.3293 190.129 67.2323 190.85 68.2415C190.943 67.5711 191.001 66.8935 191.001 66.1943C191.001 62.6261 189.631 59.3606 187.382 56.9241ZM175.366 65.4374C167.033 61.6962 166.434 58.7046 166.485 57.7963C164.661 60.1175 163.587 63.0297 163.587 66.2015C163.587 67.3909 163.738 68.5443 164.027 69.64C164.646 68.5731 166.946 66.461 175.229 66.425C175.221 66.3529 175.214 66.2736 175.214 66.2015C175.214 65.9348 175.265 65.6681 175.366 65.4374ZM176.656 68.1623C176.339 68.0685 176.058 67.8955 175.827 67.6649C169.671 73.3957 166.55 73.3524 165.396 72.9992C167.415 76.5242 170.954 79.0688 175.121 79.732C174.414 78.7877 173.376 75.9115 176.656 68.1623ZM178.105 68.0758L178.112 68.1118L178.119 68.1046C178.119 68.0974 178.112 68.083 178.105 68.0758ZM177.298 52.498C175.092 52.498 173.008 53.017 171.17 53.9397C172.345 54.3434 174.875 56.1528 176.649 64.2336C176.851 64.1615 177.074 64.1255 177.298 64.1255C177.413 64.1255 177.528 64.1327 177.644 64.1543C179.561 55.1508 182.387 53.9974 183.259 53.8604C181.45 52.981 179.431 52.498 177.298 52.498ZM178.876 67.5351C178.674 67.7802 178.408 67.982 178.119 68.1046C182.062 75.1257 181.558 78.2182 180.959 79.4076C184.967 78.2975 188.24 75.4141 189.869 71.6512C188.947 72.1414 185.969 72.783 178.876 67.5351ZM187.382 56.9241C187.382 58.063 186.51 60.9825 179.064 65.113C179.237 65.3797 179.338 65.6969 179.359 66.0285C187.663 65.3293 190.129 67.2323 190.85 68.2415C190.943 67.5711 191.001 66.8935 191.001 66.1943C191.001 62.6261 189.631 59.3606 187.382 56.9241ZM178.876 67.5351C178.674 67.7802 178.408 67.982 178.119 68.1046C182.062 75.1257 181.558 78.2182 180.959 79.4076C184.967 78.2975 188.24 75.4141 189.869 71.6512C188.947 72.1414 185.969 72.783 178.876 67.5351ZM177.298 52.498C175.092 52.498 173.008 53.017 171.17 53.9397C172.345 54.3434 174.875 56.1528 176.649 64.2336C176.851 64.1615 177.074 64.1255 177.298 64.1255C177.413 64.1255 177.528 64.1327 177.644 64.1543C179.561 55.1508 182.387 53.9974 183.259 53.8604C181.45 52.981 179.431 52.498 177.298 52.498ZM178.105 68.0758L178.112 68.1118L178.119 68.1046C178.119 68.0974 178.112 68.083 178.105 68.0758ZM176.656 68.1623C176.339 68.0685 176.058 67.8955 175.827 67.6649C169.671 73.3957 166.55 73.3524 165.396 72.9992C167.415 76.5242 170.954 79.0688 175.121 79.732C174.414 78.7877 173.376 75.9115 176.656 68.1623ZM175.366 65.4374C167.033 61.6962 166.434 58.7046 166.485 57.7963C164.661 60.1175 163.587 63.0297 163.587 66.2015C163.587 67.3909 163.738 68.5443 164.027 69.64C164.646 68.5731 166.946 66.461 175.229 66.425C175.221 66.3529 175.214 66.2736 175.214 66.2015C175.214 65.9348 175.265 65.6681 175.366 65.4374ZM187.382 56.9241C187.382 58.063 186.51 60.9825 179.064 65.113C179.237 65.3797 179.338 65.6969 179.359 66.0285C187.663 65.3293 190.129 67.2323 190.85 68.2415C190.943 67.5711 191.001 66.8935 191.001 66.1943C191.001 62.6261 189.631 59.3606 187.382 56.9241ZM175.366 65.4374C167.033 61.6962 166.434 58.7046 166.485 57.7963C164.661 60.1175 163.587 63.0297 163.587 66.2015C163.587 67.3909 163.738 68.5443 164.027 69.64C164.646 68.5731 166.946 66.461 175.229 66.425C175.221 66.3529 175.214 66.2736 175.214 66.2015C175.214 65.9348 175.265 65.6681 175.366 65.4374ZM176.656 68.1623C176.339 68.0685 176.058 67.8955 175.827 67.6649C169.671 73.3957 166.55 73.3524 165.396 72.9992C167.415 76.5242 170.954 79.0688 175.121 79.732C174.414 78.7877 173.376 75.9115 176.656 68.1623ZM178.105 68.0758L178.112 68.1118L178.119 68.1046C178.119 68.0974 178.112 68.083 178.105 68.0758ZM177.298 52.498C175.092 52.498 173.008 53.017 171.17 53.9397C172.345 54.3434 174.875 56.1528 176.649 64.2336C176.851 64.1615 177.074 64.1255 177.298 64.1255C177.413 64.1255 177.528 64.1327 177.644 64.1543C179.561 55.1508 182.387 53.9974 183.259 53.8604C181.45 52.981 179.431 52.498 177.298 52.498ZM178.876 67.5351C178.674 67.7802 178.408 67.982 178.119 68.1046C182.062 75.1257 181.558 78.2182 180.959 79.4076C184.967 78.2975 188.24 75.4141 189.869 71.6512C188.947 72.1414 185.969 72.783 178.876 67.5351ZM187.382 56.9241C187.382 58.063 186.51 60.9825 179.064 65.113C179.237 65.3797 179.338 65.6969 179.359 66.0285C187.663 65.3293 190.129 67.2323 190.85 68.2415C190.943 67.5711 191.001 66.8935 191.001 66.1943C191.001 62.6261 189.631 59.3606 187.382 56.9241ZM178.876 67.5351C178.674 67.7802 178.408 67.982 178.119 68.1046C182.062 75.1257 181.558 78.2182 180.959 79.4076C184.967 78.2975 188.24 75.4141 189.869 71.6512C188.947 72.1414 185.969 72.783 178.876 67.5351ZM177.298 52.498C175.092 52.498 173.008 53.017 171.17 53.9397C172.345 54.3434 174.875 56.1528 176.649 64.2336C176.851 64.1615 177.074 64.1255 177.298 64.1255C177.413 64.1255 177.528 64.1327 177.644 64.1543C179.561 55.1508 182.387 53.9974 183.259 53.8604C181.45 52.981 179.431 52.498 177.298 52.498ZM178.105 68.0758L178.112 68.1118L178.119 68.1046C178.119 68.0974 178.112 68.083 178.105 68.0758ZM176.656 68.1623C176.339 68.0685 176.058 67.8955 175.827 67.6649C169.671 73.3957 166.55 73.3524 165.396 72.9992C167.415 76.5242 170.954 79.0688 175.121 79.732C174.414 78.7877 173.376 75.9115 176.656 68.1623ZM175.366 65.4374C167.033 61.6962 166.434 58.7046 166.485 57.7963C164.661 60.1175 163.587 63.0297 163.587 66.2015C163.587 67.3909 163.738 68.5443 164.027 69.64C164.646 68.5731 166.946 66.461 175.229 66.425C175.221 66.3529 175.214 66.2736 175.214 66.2015C175.214 65.9348 175.265 65.6681 175.366 65.4374ZM187.382 56.9241C187.382 58.063 186.51 60.9825 179.064 65.113C179.237 65.3797 179.338 65.6969 179.359 66.0285C187.663 65.3293 190.129 67.2323 190.85 68.2415C190.943 67.5711 191.001 66.8935 191.001 66.1943C191.001 62.6261 189.631 59.3606 187.382 56.9241ZM175.366 65.4374C167.033 61.6962 166.434 58.7046 166.485 57.7963C164.661 60.1175 163.587 63.0297 163.587 66.2015C163.587 67.3909 163.738 68.5443 164.027 69.64C164.646 68.5731 166.946 66.461 175.229 66.425C175.221 66.3529 175.214 66.2736 175.214 66.2015C175.214 65.9348 175.265 65.6681 175.366 65.4374ZM176.656 68.1623C176.339 68.0685 176.058 67.8955 175.827 67.6649C169.671 73.3957 166.55 73.3524 165.396 72.9992C167.415 76.5242 170.954 79.0688 175.121 79.732C174.414 78.7877 173.376 75.9115 176.656 68.1623ZM178.105 68.0758L178.112 68.1118L178.119 68.1046C178.119 68.0974 178.112 68.083 178.105 68.0758ZM177.298 52.498C175.092 52.498 173.008 53.017 171.17 53.9397C172.345 54.3434 174.875 56.1528 176.649 64.2336C176.851 64.1615 177.074 64.1255 177.298 64.1255C177.413 64.1255 177.528 64.1327 177.644 64.1543C179.561 55.1508 182.387 53.9974 183.259 53.8604C181.45 52.981 179.431 52.498 177.298 52.498ZM178.876 67.5351C178.674 67.7802 178.408 67.982 178.119 68.1046C182.062 75.1257 181.558 78.2182 180.959 79.4076C184.967 78.2975 188.24 75.4141 189.869 71.6512C188.947 72.1414 185.969 72.783 178.876 67.5351ZM187.382 56.9241C187.382 58.063 186.51 60.9825 179.064 65.113C179.237 65.3797 179.338 65.6969 179.359 66.0285C187.663 65.3293 190.129 67.2323 190.85 68.2415C190.943 67.5711 191.001 66.8935 191.001 66.1943C191.001 62.6261 189.631 59.3606 187.382 56.9241ZM178.876 67.5351C178.674 67.7802 178.408 67.982 178.119 68.1046C182.062 75.1257 181.558 78.2182 180.959 79.4076C184.967 78.2975 188.24 75.4141 189.869 71.6512C188.947 72.1414 185.969 72.783 178.876 67.5351ZM177.298 52.498C175.092 52.498 173.008 53.017 171.17 53.9397C172.345 54.3434 174.875 56.1528 176.649 64.2336C176.851 64.1615 177.074 64.1255 177.298 64.1255C177.413 64.1255 177.528 64.1327 177.644 64.1543C179.561 55.1508 182.387 53.9974 183.259 53.8604C181.45 52.981 179.431 52.498 177.298 52.498ZM178.105 68.0758L178.112 68.1118L178.119 68.1046C178.119 68.0974 178.112 68.083 178.105 68.0758ZM176.656 68.1623C176.339 68.0685 176.058 67.8955 175.827 67.6649C169.671 73.3957 166.55 73.3524 165.396 72.9992C167.415 76.5242 170.954 79.0688 175.121 79.732C174.414 78.7877 173.376 75.9115 176.656 68.1623ZM175.366 65.4374C167.033 61.6962 166.434 58.7046 166.485 57.7963C164.661 60.1175 163.587 63.0297 163.587 66.2015C163.587 67.3909 163.738 68.5443 164.027 69.64C164.646 68.5731 166.946 66.461 175.229 66.425C175.221 66.3529 175.214 66.2736 175.214 66.2015C175.214 65.9348 175.265 65.6681 175.366 65.4374ZM187.382 56.9241C187.382 58.063 186.51 60.9825 179.064 65.113C179.237 65.3797 179.338 65.6969 179.359 66.0285C187.663 65.3293 190.129 67.2323 190.85 68.2415C190.943 67.5711 191.001 66.8935 191.001 66.1943C191.001 62.6261 189.631 59.3606 187.382 56.9241ZM175.366 65.4374C167.033 61.6962 166.434 58.7046 166.485 57.7963C164.661 60.1175 163.587 63.0297 163.587 66.2015C163.587 67.3909 163.738 68.5443 164.027 69.64C164.646 68.5731 166.946 66.461 175.229 66.425C175.221 66.3529 175.214 66.2736 175.214 66.2015C175.214 65.9348 175.265 65.6681 175.366 65.4374ZM176.656 68.1623C176.339 68.0685 176.058 67.8955 175.827 67.6649C169.671 73.3957 166.55 73.3524 165.396 72.9992C167.415 76.5242 170.954 79.0688 175.121 79.732C174.414 78.7877 173.376 75.9115 176.656 68.1623ZM178.105 68.0758L178.112 68.1118L178.119 68.1046C178.119 68.0974 178.112 68.083 178.105 68.0758ZM177.298 52.498C175.092 52.498 173.008 53.017 171.17 53.9397C172.345 54.3434 174.875 56.1528 176.649 64.2336C176.851 64.1615 177.074 64.1255 177.298 64.1255C177.413 64.1255 177.528 64.1327 177.644 64.1543C179.561 55.1508 182.387 53.9974 183.259 53.8604C181.45 52.981 179.431 52.498 177.298 52.498ZM178.876 67.5351C178.674 67.7802 178.408 67.982 178.119 68.1046C182.062 75.1257 181.558 78.2182 180.959 79.4076C184.967 78.2975 188.24 75.4141 189.869 71.6512C188.947 72.1414 185.969 72.783 178.876 67.5351ZM187.382 56.9241C187.382 58.063 186.51 60.9825 179.064 65.113C179.237 65.3797 179.338 65.6969 179.359 66.0285C187.663 65.3293 190.129 67.2323 190.85 68.2415C190.943 67.5711 191.001 66.8935 191.001 66.1943C191.001 62.6261 189.631 59.3606 187.382 56.9241ZM178.876 67.5351C178.674 67.7802 178.408 67.982 178.119 68.1046C182.062 75.1257 181.558 78.2182 180.959 79.4076C184.967 78.2975 188.24 75.4141 189.869 71.6512C188.947 72.1414 185.969 72.783 178.876 67.5351ZM177.298 52.498C175.092 52.498 173.008 53.017 171.17 53.9397C172.345 54.3434 174.875 56.1528 176.649 64.2336C176.851 64.1615 177.074 64.1255 177.298 64.1255C177.413 64.1255 177.528 64.1327 177.644 64.1543C179.561 55.1508 182.387 53.9974 183.259 53.8604C181.45 52.981 179.431 52.498 177.298 52.498ZM178.105 68.0758L178.112 68.1118L178.119 68.1046C178.119 68.0974 178.112 68.083 178.105 68.0758ZM176.656 68.1623C176.339 68.0685 176.058 67.8955 175.827 67.6649C169.671 73.3957 166.55 73.3524 165.396 72.9992C167.415 76.5242 170.954 79.0688 175.121 79.732C174.414 78.7877 173.376 75.9115 176.656 68.1623ZM175.366 65.4374C167.033 61.6962 166.434 58.7046 166.485 57.7963C164.661 60.1175 163.587 63.0297 163.587 66.2015C163.587 67.3909 163.738 68.5443 164.027 69.64C164.646 68.5731 166.946 66.461 175.229 66.425C175.221 66.3529 175.214 66.2736 175.214 66.2015C175.214 65.9348 175.265 65.6681 175.366 65.4374ZM178.105 68.0758L178.112 68.1118L178.119 68.1046C178.119 68.0974 178.112 68.083 178.105 68.0758ZM178.105 68.0758L178.112 68.1118L178.119 68.1046C178.119 68.0974 178.112 68.083 178.105 68.0758ZM178.105 68.0758L178.112 68.1118L178.119 68.1046C178.119 68.0974 178.112 68.083 178.105 68.0758ZM178.105 68.0758L178.112 68.1118L178.119 68.1046C178.119 68.0974 178.112 68.083 178.105 68.0758ZM178.105 68.0758L178.112 68.1118L178.119 68.1046C178.119 68.0974 178.112 68.083 178.105 68.0758ZM178.105 68.0758L178.112 68.1118L178.119 68.1046C178.119 68.0974 178.112 68.083 178.105 68.0758ZM178.105 68.0758L178.112 68.1118L178.119 68.1046C178.119 68.0974 178.112 68.083 178.105 68.0758ZM178.105 68.0758L178.112 68.1118L178.119 68.1046C178.119 68.0974 178.112 68.083 178.105 68.0758ZM178.105 68.0758L178.112 68.1118L178.119 68.1046C178.119 68.0974 178.112 68.083 178.105 68.0758ZM178.105 68.0758L178.112 68.1118L178.119 68.1046C178.119 68.0974 178.112 68.083 178.105 68.0758Z" fill="#22C55E"/>
<path d="M175.214 66.2014C175.214 66.2735 175.221 66.3528 175.229 66.4249C166.946 66.4609 164.646 68.5658 164.027 69.6399C163.738 68.5442 163.587 67.3908 163.587 66.2014C163.587 63.0296 164.661 60.1174 166.485 57.7962C166.434 58.7045 167.033 61.696 175.366 65.4373C175.265 65.668 175.214 65.9347 175.214 66.2014Z" fill="#22C55E"/>
<path d="M175.121 79.732C170.954 79.0688 167.415 76.5242 165.396 72.9992C166.55 73.3524 169.671 73.3957 175.827 67.6649C176.058 67.8955 176.339 68.0685 176.656 68.1622C173.376 75.9115 174.414 78.7877 175.121 79.732Z" fill="#22C55E"/>
<path d="M178.12 68.1055L178.112 68.1129L178.105 68.0757C178.112 68.0832 178.12 68.098 178.12 68.1055Z" fill="#22C55E"/>
<path d="M183.252 53.8604C182.38 53.9974 179.554 55.1435 177.636 64.1543C177.528 64.1326 177.413 64.1254 177.29 64.1254C177.067 64.1254 176.843 64.1615 176.642 64.2336C174.868 56.1527 172.338 54.3434 171.163 53.9397C173.001 53.017 175.085 52.498 177.29 52.498C179.431 52.498 181.45 52.981 183.252 53.8604Z" fill="#22C55E"/>
<path d="M189.869 71.6511C188.24 75.414 184.967 78.2974 180.959 79.4076C181.558 78.2181 182.062 75.1257 178.119 68.1045C178.415 67.982 178.674 67.7801 178.876 67.535C185.969 72.7829 188.947 72.1413 189.869 71.6511Z" fill="#22C55E"/>
<path d="M191.001 66.2016C191.001 66.9008 190.943 67.5784 190.85 68.2488C190.129 67.2396 187.656 65.3365 179.359 66.0358C179.338 65.697 179.237 65.387 179.064 65.1203C186.517 60.9898 187.382 58.0703 187.382 56.9313C189.631 59.3606 191.001 62.6261 191.001 66.2016Z" fill="#22C55E"/>
<path d="M178.105 68.0757L178.112 68.1118L178.119 68.1046C178.119 68.0973 178.112 68.0829 178.105 68.0757ZM178.105 68.0757L178.112 68.1118L178.119 68.1046C178.119 68.0973 178.112 68.0829 178.105 68.0757ZM178.105 68.0757L178.112 68.1118L178.119 68.1046C178.119 68.0973 178.112 68.0829 178.105 68.0757ZM178.105 68.0757L178.112 68.1118L178.119 68.1046C178.119 68.0973 178.112 68.0829 178.105 68.0757ZM178.105 68.0757L178.112 68.1118L178.119 68.1046C178.119 68.0973 178.112 68.0829 178.105 68.0757ZM178.105 68.0757L178.112 68.1118L178.119 68.1046C178.119 68.0973 178.112 68.0829 178.105 68.0757ZM178.105 68.0757L178.112 68.1118L178.119 68.1046C178.119 68.0973 178.112 68.0829 178.105 68.0757ZM178.105 68.0757L178.112 68.1118L178.119 68.1046C178.119 68.0973 178.112 68.0829 178.105 68.0757ZM178.105 68.0757L178.112 68.1118L178.119 68.1046C178.119 68.0973 178.112 68.0829 178.105 68.0757ZM178.105 68.0757L178.112 68.1118L178.119 68.1046C178.119 68.0973 178.112 68.0829 178.105 68.0757ZM187.382 56.9241C187.382 58.063 186.51 60.9825 179.064 65.113C179.237 65.3797 179.338 65.6969 179.359 66.0285C187.663 65.3293 190.129 67.2323 190.85 68.2415C190.943 67.5711 191.001 66.8935 191.001 66.1943C191.001 62.626 189.631 59.3606 187.382 56.9241ZM178.876 67.5351C178.674 67.7802 178.408 67.982 178.119 68.1046C182.062 75.1257 181.558 78.2182 180.96 79.4076C184.967 78.2975 188.24 75.4141 189.869 71.6512C188.947 72.1414 185.969 72.7829 178.876 67.5351ZM177.298 52.498C175.092 52.498 173.008 53.017 171.17 53.9397C172.345 54.3434 174.875 56.1527 176.649 64.2336C176.851 64.1615 177.074 64.1254 177.298 64.1254C177.413 64.1254 177.528 64.1326 177.644 64.1543C179.561 55.1507 182.387 53.9974 183.259 53.8604C181.45 52.981 179.431 52.498 177.298 52.498ZM178.105 68.0757L178.112 68.1118L178.119 68.1046C178.119 68.0973 178.112 68.0829 178.105 68.0757ZM176.656 68.1622C176.339 68.0685 176.058 67.8955 175.827 67.6648C169.671 73.3957 166.55 73.3524 165.396 72.9992C167.415 76.5242 170.954 79.0688 175.121 79.732C174.414 78.7877 173.376 75.9114 176.656 68.1622ZM175.366 65.4374C167.033 61.6961 166.434 58.7046 166.485 57.7963C164.661 60.1175 163.587 63.0297 163.587 66.2015C163.587 67.3909 163.738 68.5443 164.027 69.64C164.646 68.5731 166.946 66.461 175.229 66.425C175.221 66.3529 175.214 66.2736 175.214 66.2015C175.214 65.9348 175.265 65.6681 175.366 65.4374ZM178.105 68.0757L178.112 68.1118L178.119 68.1046C178.119 68.0973 178.112 68.0829 178.105 68.0757ZM178.105 68.0757L178.112 68.1118L178.119 68.1046C178.119 68.0973 178.112 68.0829 178.105 68.0757ZM178.105 68.0757L178.112 68.1118L178.119 68.1046C178.119 68.0973 178.112 68.0829 178.105 68.0757ZM178.105 68.0757L178.112 68.1118L178.119 68.1046C178.119 68.0973 178.112 68.0829 178.105 68.0757ZM178.105 68.0757L178.112 68.1118L178.119 68.1046C178.119 68.0973 178.112 68.0829 178.105 68.0757ZM178.105 68.0757L178.112 68.1118L178.119 68.1046C178.119 68.0973 178.112 68.0829 178.105 68.0757ZM178.105 68.0757L178.112 68.1118L178.119 68.1046C178.119 68.0973 178.112 68.0829 178.105 68.0757ZM178.105 68.0757L178.112 68.1118L178.119 68.1046C178.119 68.0973 178.112 68.0829 178.105 68.0757ZM178.105 68.0757L178.112 68.1118L178.119 68.1046C178.119 68.0973 178.112 68.0829 178.105 68.0757ZM178.105 68.0757L178.112 68.1118L178.119 68.1046C178.119 68.0973 178.112 68.0829 178.105 68.0757Z" fill="#22C55E"/>
<path d="M179.374 66.2015C179.374 66.6917 179.193 67.1531 178.905 67.5135C178.891 67.5279 178.883 67.5351 178.876 67.5423C178.674 67.7874 178.408 67.9893 178.119 68.1118C178.119 68.1046 178.112 68.0902 178.105 68.083L178.112 68.119C177.867 68.22 177.586 68.2848 177.298 68.2848C177.081 68.2848 176.865 68.2488 176.67 68.1839C176.663 68.1911 176.663 68.1839 176.656 68.1767C176.339 68.083 176.058 67.91 175.827 67.6793C175.82 67.6721 175.813 67.6577 175.798 67.6505C175.495 67.3405 175.294 66.9296 175.236 66.4899C175.229 66.4755 175.229 66.4538 175.229 66.4394C175.221 66.3673 175.214 66.2881 175.214 66.216C175.214 65.9492 175.265 65.6897 175.366 65.4591C175.366 65.4374 175.38 65.4086 175.387 65.387C175.618 64.8608 176.058 64.4499 176.606 64.2624C176.62 64.248 176.634 64.248 176.649 64.248C176.851 64.1759 177.074 64.1399 177.298 64.1399C177.413 64.1399 177.528 64.1471 177.644 64.1687C177.665 64.1759 177.687 64.1759 177.708 64.1831C178.278 64.2913 178.761 64.6373 179.056 65.1058C179.064 65.1131 179.071 65.1203 179.071 65.1347C179.244 65.4014 179.345 65.7186 179.366 66.0502C179.374 66.0574 179.374 66.0718 179.374 66.079V66.0862C179.374 66.115 179.374 66.1511 179.374 66.2015Z" fill="#22C55E"/>
<path d="M178.12 68.1055L178.112 68.1129L178.105 68.0757C178.112 68.0832 178.12 68.098 178.12 68.1055Z" fill="#22C55E"/>
<path d="M178.12 68.1055L178.112 68.1129L178.105 68.0757C178.112 68.0832 178.12 68.098 178.12 68.1055Z" fill="#22C55E"/>
</svg>
