<svg width="21" height="20" viewBox="0 0 21 20" fill="none" xmlns="http://www.w3.org/2000/svg">
<path d="M10.5 0C4.97979 0 0.5 4.48839 0.5 10C0.5 15.5116 4.97979 20 10.5 20C16.0116 20 20.5 15.5202 20.5 10C20.5 4.47979 16.0116 0 10.5 0ZM10.5 18.3921C5.87403 18.3921 2.10791 14.626 2.10791 10C2.10791 5.37403 5.87403 1.60791 10.5 1.60791C15.126 1.60791 18.8921 5.37403 18.8921 10C18.8921 14.626 15.126 18.3921 10.5 18.3921Z" fill="#9CA3AF"/>
<path d="M10.4999 2.7085C6.48445 2.7085 3.21704 5.97591 3.21704 9.99138C3.21704 11.7025 3.81893 13.362 4.91953 14.6689L5.33226 14.325C5.1345 14.0842 4.95393 13.8349 4.79056 13.5683L5.26347 13.2932C5.17749 13.1556 5.1001 13.018 5.02272 12.8805L4.5412 13.1642C4.34344 12.7859 4.17147 12.3904 4.05109 11.9776L4.5756 11.8401C4.5326 11.6853 4.48961 11.5305 4.45522 11.3757L3.93071 11.5219C3.83613 11.1092 3.77594 10.6793 3.75874 10.2493H4.30904C4.30904 10.172 4.30045 10.0946 4.30045 10.0086C4.30045 9.9226 4.30045 9.84521 4.30904 9.76782H3.75014C3.76734 9.3293 3.81893 8.90798 3.91352 8.49525L4.44662 8.64143C4.48101 8.48666 4.52401 8.33188 4.567 8.17711L4.04249 8.02234C4.17147 7.60961 4.33484 7.21408 4.5326 6.83575L5.00552 7.1109C5.0829 6.97333 5.16029 6.83575 5.24628 6.69818L4.77336 6.42303C5.00552 6.06189 5.26347 5.71795 5.55582 5.40841L5.94275 5.79534C6.05453 5.67496 6.16631 5.56318 6.28669 5.4514L5.89976 5.06447C6.2093 4.77212 6.55324 4.51417 6.91438 4.28201L7.18953 4.75493C7.3271 4.66894 7.46468 4.59156 7.60225 4.51417L7.3357 4.04126C7.71403 3.84349 8.10956 3.67152 8.52229 3.55114L8.66846 4.08425C8.82323 4.04126 8.978 3.99826 9.13278 3.96387L8.978 3.42217C9.39073 3.32758 9.82065 3.2674 10.2506 3.2588V3.8091C10.328 3.8091 10.4139 3.8005 10.4913 3.8005C10.5687 3.8005 10.6547 3.8005 10.7321 3.8091V3.2502C11.1706 3.2674 11.5919 3.31899 12.0047 3.41357L11.8671 3.95527C12.0219 3.98967 12.1766 4.03266 12.3314 4.07565L12.469 3.54255C12.8817 3.67152 13.2772 3.83489 13.6556 4.03266L13.3804 4.50557C13.5266 4.58296 13.6642 4.66034 13.8017 4.74633L14.0769 4.26482C14.438 4.49697 14.782 4.75493 15.0915 5.04727L14.7046 5.43421C14.825 5.54599 14.9367 5.65776 15.0485 5.77814L15.4354 5.39121C15.7278 5.70076 15.9943 6.0447 16.2179 6.40583L15.745 6.68098C15.831 6.81856 15.9084 6.95613 15.9857 7.09371L16.4587 6.81856C16.6564 7.19689 16.8284 7.59242 16.9574 8.00514L16.4243 8.15132C16.4673 8.30609 16.5102 8.46086 16.5446 8.61563L17.0777 8.46946C17.1723 8.88218 17.2325 9.30351 17.2411 9.74203H16.6908C16.6908 9.81942 16.6994 9.8968 16.6994 9.98279C16.6994 10.0602 16.6994 10.1462 16.6908 10.2235H17.2411C17.2239 10.6535 17.1637 11.0834 17.0691 11.4961L16.5446 11.3499C16.5102 11.5047 16.4673 11.6595 16.4243 11.8143L16.9488 11.9518C16.8198 12.3646 16.6564 12.7601 16.4587 13.1384L15.9771 12.8891C15.8998 13.0352 15.8224 13.1642 15.7364 13.3018L16.2093 13.5769C16.0459 13.8349 15.8654 14.0928 15.6676 14.3336L16.0803 14.6775C17.1723 13.3706 17.7828 11.7025 17.7828 9.99998C17.7828 5.97591 14.5154 2.7085 10.4999 2.7085Z" fill="#9CA3AF"/>
<path d="M14.0253 6.08777L10.9987 9.12303C10.8525 9.03704 10.6805 8.98545 10.5 8.98545C9.94107 8.98545 9.48535 9.44117 9.48535 10.0001C9.48535 10.1806 9.53694 10.3526 9.62293 10.4988L8.93505 11.1781C8.83187 11.2812 8.83187 11.4532 8.93505 11.5564C8.98664 11.608 9.05543 11.6338 9.12422 11.6338C9.19301 11.6338 9.26179 11.608 9.31338 11.5564L10.0013 10.8685C10.1474 10.9545 10.3194 11.0061 10.5 11.0061C11.0589 11.0061 11.5146 10.5504 11.5146 9.99147C11.5146 9.8109 11.463 9.63893 11.377 9.49276L14.4037 6.45751C14.5068 6.35433 14.5068 6.18236 14.4037 6.07917C14.3005 5.98459 14.1285 5.98459 14.0253 6.08777Z" fill="#9CA3AF"/>
<path d="M7.49048 14.7119V16.0189C7.49048 16.1221 7.57646 16.2081 7.67964 16.2081H9.29615V14.5142H7.67964C7.57646 14.5142 7.49048 14.6087 7.49048 14.7119Z" fill="#9CA3AF"/>
<path d="M11.3081 14.5142H9.7002V16.2081H11.3081V14.5142Z" fill="#9CA3AF"/>
<path d="M13.3204 14.5142H11.7039V16.2081H13.3204C13.4235 16.2081 13.5095 16.1221 13.5095 16.0189V14.7119C13.5095 14.6087 13.4235 14.5142 13.3204 14.5142Z" fill="#9CA3AF"/>
</svg>
