<svg width="214" height="89" viewBox="0 0 214 89" fill="none" xmlns="http://www.w3.org/2000/svg">
<path d="M212.926 62.4385C212.529 61.0473 212.226 54.8911 211.434 53.5936C210.641 52.3033 207.368 47.6321 207.368 47.6321C207.368 47.6321 205.782 45.1524 206.481 41.1804C207.173 37.2085 204.686 29.7548 200.714 26.5758C196.742 23.3969 192.179 15.0493 192.179 15.0493C192.179 15.0493 194.861 12.8723 194.962 11.7766C195.056 10.6809 191.682 9.98891 184.819 9.98891C183.529 9.98891 180.228 9.7294 175.549 9.36176L175.391 8.46069C180.473 2.03785 180.934 0.185242 180.934 0.185242L174.043 8.72741C171.729 8.33094 167.757 8.72741 167.757 8.72741L168.694 8.82833C146.369 7.17035 107.695 5.02941 91.0647 11.9064C68.2783 21.3064 51.3238 33.0996 41.8517 32.6383C41.8517 32.6383 15.6269 37.605 6.88288 47.7402C6.88288 47.7402 3.90574 50.9192 4.7924 53.4062L3.30743 54.2928C3.30743 54.2928 0.229366 58.964 1.21694 64.1325C1.21694 64.1325 7.38748 66.9151 9.76632 73.273C9.76632 73.273 2.91096 73.8641 1.02231 71.9755C1.02231 71.9755 0.719549 74.9526 1.90896 75.1545C3.09838 75.3563 7.66862 77.0359 7.66862 77.0359C7.66862 77.0359 8.56969 79.9193 11.8424 80.6114C15.1151 81.3106 18.1066 80.7123 18.5031 78.5281L19.397 78.629C19.397 78.629 15.425 52.7069 38.5646 52.8007C61.7185 52.9016 58.5396 79.1336 58.5396 79.1336L160.469 77.9442C160.469 77.9442 158.285 53.1106 181.136 53.1106C203.987 53.1106 199.417 75.5653 199.417 75.5653C199.417 75.5653 209.949 76.0699 212.226 73.3811V65.1129C212.226 65.1129 213.322 63.8298 212.926 62.4385ZM194.854 24.6944C195.178 24.9107 202.798 29.9567 203.194 34.7287C203.591 39.5945 204.384 44.0278 204.384 44.0278L205.472 46.4427H200.513C200.513 46.4427 192.569 39.5945 188.986 36.812C185.411 34.0295 193.153 33.4384 195.74 31.9462C198.263 30.4829 195.005 24.9467 194.854 24.6944ZM181.792 14.2924C186.571 15.1935 191.466 12.9516 191.718 12.8363C190.817 15.1647 184.971 16.4045 184.971 16.4045C182.059 16.0081 144.833 10.8395 119.402 11.373C95.1591 11.8848 81.0664 20.5711 79.7977 21.3785C110.398 -0.16077 176.904 13.3625 181.792 14.2924ZM175.765 26.6768C173.776 28.0031 172.586 27.0084 172.586 27.0084L168.809 18.5311C167.295 15.1358 181.986 18.1995 184.769 18.5311C187.551 18.8627 177.755 25.3504 175.765 26.6768ZM122.955 65.2643C122.624 63.3829 119.373 44.2513 121.124 32.8834L87.345 35.082C87.345 35.082 139.139 29.3223 160.721 30.8794L124.037 32.8834C124.044 32.8834 120.497 50.1984 122.955 65.2643ZM119.048 41.4255C119.048 42.0599 118.529 42.5717 117.902 42.5717H107.068C106.441 42.5717 105.929 42.0599 105.929 41.4255C105.929 40.7984 106.441 40.2866 107.068 40.2866H117.902C118.529 40.2866 119.048 40.7984 119.048 41.4255ZM129.076 29.2574V13.0598C129.076 13.0598 145.763 13.5572 150.233 13.759C154.709 13.9608 152.525 28.2627 152.525 28.2627L129.076 29.2574ZM79.3075 23.3897C81.3908 21.4001 105.33 11.5748 119.041 13.8527L116.259 30.245L86.7035 32.8761C86.7035 32.8761 86.7972 23.887 77.909 27.859C77.909 27.8662 77.217 25.3792 79.3075 23.3897ZM78.8605 29.1061C78.8605 29.1061 81.4412 29.6539 80.951 35.2622C80.951 35.2622 73.1009 36.4516 71.1113 35.464C69.1217 34.4692 69.9147 29.5602 78.8605 29.1061ZM8.54086 47.9997C8.54086 47.9997 16.6217 38.8593 29.9359 40.2505C29.9359 40.2505 31.7885 42.0382 18.4094 49.1892C18.4094 49.1892 7.95696 52.1303 6.19086 53.399C6.70267 52.9088 12.0082 47.8123 8.54086 47.9997ZM14.9709 64.2262C14.9709 64.2262 9.47076 66.4753 6.68825 66.4753C6.68825 66.4753 4.50405 63.8947 3.1128 63.6279L5.56371 61.7753C5.56371 61.7753 1.2674 57.5295 3.71111 55.4822C6.16203 53.4278 8.48319 59.3605 16.9244 56.6717C16.9244 56.6717 23.578 46.5941 37.5914 46.7599C51.5977 46.9329 58.3521 54.9488 58.3521 54.9488C58.3521 54.9488 29.0781 36.0119 14.9709 64.2262ZM51.6842 39.0395C50.7903 38.8376 51.2373 38.1961 51.2373 38.1961L71.1041 25.4297C71.1041 25.4297 69.7129 31.1461 68.8695 33.8709C68.026 36.603 64.8471 38.1456 64.8471 38.1456L51.6842 39.0395ZM62.7061 40.3082C62.6052 40.7407 60.8247 48.1583 61.1202 52.3105C61.1202 52.3033 58.8351 46.3562 62.7061 40.3082ZM147.162 73.7632C134.244 74.1597 70.2175 75.5509 70.2175 75.5509C70.2175 75.5509 59.9885 76.5313 62.0573 68.9839C62.0573 68.9839 61.6248 73.756 70.2175 73.756C78.8173 73.756 149.75 72.2999 149.75 72.2999C149.75 72.2999 157.304 71.9466 157.895 68.9767C157.888 68.9911 160.072 73.3667 147.162 73.7632ZM158.083 39.6883C157.42 39.6883 156.893 39.1548 156.893 38.4988C156.893 37.8501 157.427 37.3094 158.083 37.3094H167.923C168.571 37.3094 169.112 37.8501 169.112 38.4988C169.112 39.162 168.571 39.6883 167.923 39.6883H158.083ZM181.071 47.1996C167.202 47.8412 161.658 54.2712 161.283 54.7253C161.665 54.1342 168.254 44.3234 182.462 45.4839C197.096 46.6734 203.987 56.6717 203.987 56.6717C203.987 56.6717 207.498 57.133 210.605 54.8191C210.605 54.8191 210.705 59.6488 203.785 59.8506C203.785 59.8579 195.438 46.5436 181.071 47.1996ZM209.927 64.8678C209.927 64.8678 203.648 63.9235 203.951 62.1934C204.247 60.4562 208.867 61.004 210.251 62.1934C211.643 63.3828 211.484 64.8678 209.927 64.8678Z" fill="#22C55E"/>
<path d="M27.1534 42.3047C26.1947 43.9266 17.912 48.0644 17.912 48.0644C19.4042 47.2714 22.0497 42.6291 22.0497 42.6291C22.0497 42.6291 28.1122 40.6828 27.1534 42.3047Z" fill="#22C55E"/>
<path d="M10.8476 68.1619C10.8476 68.1619 12.4984 70.1443 17.2272 69.6469C17.2272 69.6469 13.9833 64.6874 11.2801 63.6998L10.8476 68.1619Z" fill="#22C55E"/>
<path d="M79.7112 31.7803L72.481 32.6669L79.2354 30.8792L79.7112 31.7803Z" fill="#22C55E"/>
<path d="M39.1917 60.0956C32.6103 60.0956 27.2759 65.4155 27.2759 71.9753C27.2759 78.5423 32.6103 83.8551 39.1917 83.8551C45.7732 83.8551 51.1147 78.5351 51.1147 71.9753C51.1147 65.4227 45.7732 60.0956 39.1917 60.0956ZM43.0555 62.6618L39.1917 69.2361L35.9911 62.6618C38.8457 60.247 43.0555 62.6618 43.0555 62.6618ZM40.5614 71.9753C40.5614 72.8476 39.8405 73.554 38.9538 73.554C38.0672 73.554 37.3463 72.8476 37.3463 71.9753C37.3463 71.1031 38.0672 70.3966 38.9538 70.3966C39.8405 70.3966 40.5614 71.1031 40.5614 71.9753ZM32.1345 64.5289L36.2146 70.9733L28.9051 70.8147C28.0617 67.16 32.1345 64.5289 32.1345 64.5289ZM29.4097 74.1235L37.0292 73.936L33.1293 80.121C29.5683 78.9676 29.4097 74.1235 29.4097 74.1235ZM35.6595 81.815L39.3792 75.1615L42.7239 81.6564C39.9126 84.1362 35.6595 81.815 35.6595 81.815ZM45.5064 80.258L41.4408 73.8063L48.7503 73.9865C49.5793 77.6341 45.5064 80.258 45.5064 80.258ZM41.7724 70.7787L46.4868 65.192C49.8532 66.8284 49.3486 71.6509 49.3486 71.6509L41.7724 70.7787Z" fill="#22C55E"/>
<path d="M38.9539 55.8064C29.8134 55.8064 22.3958 63.1952 22.3958 72.3068C22.3958 81.4257 29.8134 88.8145 38.9539 88.8145C48.0943 88.8145 55.512 81.4257 55.512 72.3068C55.512 63.1952 48.0943 55.8064 38.9539 55.8064ZM39.1917 85.0444C31.9543 85.0444 26.0793 79.191 26.0793 71.9752C26.0793 64.7594 31.9543 58.9061 39.1917 58.9061C46.4292 58.9061 52.3041 64.7594 52.3041 71.9752C52.3041 79.1982 46.4292 85.0444 39.1917 85.0444Z" fill="#22C55E"/>
<path d="M39.1917 60.0956C32.6103 60.0956 27.2759 65.4155 27.2759 71.9753C27.2759 78.5423 32.6103 83.8551 39.1917 83.8551C45.7732 83.8551 51.1147 78.5351 51.1147 71.9753C51.1147 65.4227 45.7732 60.0956 39.1917 60.0956ZM43.0555 62.6618L39.1917 69.2361L35.9911 62.6618C38.8457 60.247 43.0555 62.6618 43.0555 62.6618ZM40.5614 71.9753C40.5614 72.8476 39.8405 73.554 38.9538 73.554C38.0672 73.554 37.3463 72.8476 37.3463 71.9753C37.3463 71.1031 38.0672 70.3966 38.9538 70.3966C39.8405 70.3966 40.5614 71.1031 40.5614 71.9753ZM32.1345 64.5289L36.2146 70.9733L28.9051 70.8147C28.0617 67.16 32.1345 64.5289 32.1345 64.5289ZM29.4097 74.1235L37.0292 73.936L33.1293 80.121C29.5683 78.9676 29.4097 74.1235 29.4097 74.1235ZM35.6595 81.815L39.3792 75.1615L42.7239 81.6564C39.9126 84.1362 35.6595 81.815 35.6595 81.815ZM45.5064 80.258L41.4408 73.8063L48.7503 73.9865C49.5793 77.6341 45.5064 80.258 45.5064 80.258ZM41.7724 70.7787L46.4868 65.192C49.8532 66.8284 49.3486 71.6509 49.3486 71.6509L41.7724 70.7787Z" fill="#22C55E"/>
<path d="M39.1917 60.0956C32.6103 60.0956 27.2759 65.4155 27.2759 71.9753C27.2759 78.5423 32.6103 83.8551 39.1917 83.8551C45.7732 83.8551 51.1147 78.5351 51.1147 71.9753C51.1147 65.4227 45.7732 60.0956 39.1917 60.0956ZM43.0555 62.6618L39.1917 69.2361L35.9911 62.6618C38.8457 60.247 43.0555 62.6618 43.0555 62.6618ZM40.5614 71.9753C40.5614 72.8476 39.8405 73.554 38.9538 73.554C38.0672 73.554 37.3463 72.8476 37.3463 71.9753C37.3463 71.1031 38.0672 70.3966 38.9538 70.3966C39.8405 70.3966 40.5614 71.1031 40.5614 71.9753ZM32.1345 64.5289L36.2146 70.9733L28.9051 70.8147C28.0617 67.16 32.1345 64.5289 32.1345 64.5289ZM29.4097 74.1235L37.0292 73.936L33.1293 80.121C29.5683 78.9676 29.4097 74.1235 29.4097 74.1235ZM35.6595 81.815L39.3792 75.1615L42.7239 81.6564C39.9126 84.1362 35.6595 81.815 35.6595 81.815ZM45.5064 80.258L41.4408 73.8063L48.7503 73.9865C49.5793 77.6341 45.5064 80.258 45.5064 80.258ZM41.7724 70.7787L46.4868 65.192C49.8532 66.8284 49.3486 71.6509 49.3486 71.6509L41.7724 70.7787Z" fill="#22C55E"/>
<path d="M181.251 60.0956C174.67 60.0956 169.335 65.4155 169.335 71.9753C169.335 78.5423 174.67 83.8551 181.251 83.8551C187.833 83.8551 193.174 78.5351 193.174 71.9753C193.174 65.4227 187.833 60.0956 181.251 60.0956ZM185.115 62.6618L181.251 69.2361L178.043 62.6618C180.912 60.247 185.115 62.6618 185.115 62.6618ZM182.628 71.9753C182.628 72.8476 181.907 73.554 181.021 73.554C180.134 73.554 179.413 72.8476 179.413 71.9753C179.413 71.1031 180.134 70.3966 181.021 70.3966C181.907 70.3966 182.628 71.1031 182.628 71.9753ZM174.194 64.5289L178.267 70.9733L170.957 70.8147C170.121 67.16 174.194 64.5289 174.194 64.5289ZM171.469 74.1235L179.089 73.936L175.189 80.121C171.628 78.9676 171.469 74.1235 171.469 74.1235ZM177.719 81.815L181.439 75.1615L184.783 81.6564C181.972 84.1362 177.719 81.815 177.719 81.815ZM187.566 80.258L183.5 73.8063L190.81 73.9865C191.639 77.6341 187.566 80.258 187.566 80.258ZM183.832 70.7787L188.546 65.192C191.913 66.8284 191.408 71.6509 191.408 71.6509L183.832 70.7787Z" fill="#22C55E"/>
<path d="M181.013 55.8064C171.873 55.8064 164.455 63.1952 164.455 72.3068C164.455 81.4257 171.873 88.8145 181.013 88.8145C190.154 88.8145 197.571 81.4257 197.571 72.3068C197.579 63.1952 190.161 55.8064 181.013 55.8064ZM181.251 85.0444C174.014 85.0444 168.139 79.191 168.139 71.9752C168.139 64.7594 174.014 58.9061 181.251 58.9061C188.489 58.9061 194.364 64.7594 194.364 71.9752C194.364 79.1982 188.489 85.0444 181.251 85.0444Z" fill="#22C55E"/>
<path d="M181.251 60.0956C174.67 60.0956 169.335 65.4155 169.335 71.9753C169.335 78.5423 174.67 83.8551 181.251 83.8551C187.833 83.8551 193.174 78.5351 193.174 71.9753C193.174 65.4227 187.833 60.0956 181.251 60.0956ZM185.115 62.6618L181.251 69.2361L178.043 62.6618C180.912 60.247 185.115 62.6618 185.115 62.6618ZM182.628 71.9753C182.628 72.8476 181.907 73.554 181.021 73.554C180.134 73.554 179.413 72.8476 179.413 71.9753C179.413 71.1031 180.134 70.3966 181.021 70.3966C181.907 70.3966 182.628 71.1031 182.628 71.9753ZM174.194 64.5289L178.267 70.9733L170.957 70.8147C170.121 67.16 174.194 64.5289 174.194 64.5289ZM171.469 74.1235L179.089 73.936L175.189 80.121C171.628 78.9676 171.469 74.1235 171.469 74.1235ZM177.719 81.815L181.439 75.1615L184.783 81.6564C181.972 84.1362 177.719 81.815 177.719 81.815ZM187.566 80.258L183.5 73.8063L190.81 73.9865C191.639 77.6341 187.566 80.258 187.566 80.258ZM183.832 70.7787L188.546 65.192C191.913 66.8284 191.408 71.6509 191.408 71.6509L183.832 70.7787Z" fill="#22C55E"/>
<path d="M181.251 60.0956C174.67 60.0956 169.335 65.4155 169.335 71.9753C169.335 78.5423 174.67 83.8551 181.251 83.8551C187.833 83.8551 193.174 78.5351 193.174 71.9753C193.174 65.4227 187.833 60.0956 181.251 60.0956ZM185.115 62.6618L181.251 69.2361L178.043 62.6618C180.912 60.247 185.115 62.6618 185.115 62.6618ZM182.628 71.9753C182.628 72.8476 181.907 73.554 181.021 73.554C180.134 73.554 179.413 72.8476 179.413 71.9753C179.413 71.1031 180.134 70.3966 181.021 70.3966C181.907 70.3966 182.628 71.1031 182.628 71.9753ZM174.194 64.5289L178.267 70.9733L170.957 70.8147C170.121 67.16 174.194 64.5289 174.194 64.5289ZM171.469 74.1235L179.089 73.936L175.189 80.121C171.628 78.9676 171.469 74.1235 171.469 74.1235ZM177.719 81.815L181.439 75.1615L184.783 81.6564C181.972 84.1362 177.719 81.815 177.719 81.815ZM187.566 80.258L183.5 73.8063L190.81 73.9865C191.639 77.6341 187.566 80.258 187.566 80.258ZM183.832 70.7787L188.546 65.192C191.913 66.8284 191.408 71.6509 191.408 71.6509L183.832 70.7787Z" fill="#22C55E"/>
</svg>
