<svg width="10" height="21" viewBox="0 0 10 21" fill="none" xmlns="http://www.w3.org/2000/svg">
<path d="M9.58477 0.38325C9.58477 0.38325 9.58477 0.296148 9.58477 0.191625C9.58477 0.0871023 9.48896 0 9.36702 0H0.726466C0.604523 0 0.5 0.0871023 0.5 0.191625V0.38325V0.452932H9.58477V0.38325Z" fill="#9CA3AF"/>
<path d="M0.5 0.897217V1.14981V1.35015H9.58477V1.14981V0.897217H0.5Z" fill="#9CA3AF"/>
<path d="M0.5 2.90047V8.74503C0.5 8.86698 0.604523 8.9715 0.726466 8.9715H1.64104C1.76298 8.9715 1.87622 8.86698 1.89364 8.74503L1.96332 8.18758C1.98074 8.06564 2.09397 7.96111 2.21592 7.96111H7.87757C7.99951 7.96111 8.11274 8.06564 8.13016 8.18758L8.19985 8.74503C8.21727 8.86698 8.3305 8.9715 8.45244 8.9715H9.36702C9.48896 8.9715 9.59348 8.86698 9.59348 8.74503V2.90047V1.80298H0.5V2.90047ZM5.04674 6.20165C4.27153 6.20165 3.6531 5.57451 3.6531 4.7993C3.6531 4.02409 4.28024 3.40566 5.04674 3.40566C5.82195 3.40566 6.44038 4.0328 6.44038 4.7993C6.44038 5.57451 5.81324 6.20165 5.04674 6.20165Z" fill="#9CA3AF"/>
<path d="M2.48609 17.0374H1.47571V20.0337C1.47571 20.1556 1.58023 20.2601 1.70217 20.2601H8.39163C8.51358 20.2601 8.6181 20.1556 8.6181 20.0337V17.0374H7.60771C7.45964 18.3178 6.37086 19.3107 5.0469 19.3107C3.72295 19.3107 2.63417 18.3178 2.48609 17.0374Z" fill="#9CA3AF"/>
<path d="M6.44048 13.1352V8.43164H3.64449V13.1352C3.64449 13.2571 3.53997 13.3616 3.41803 13.3616H1.70211C1.58017 13.3616 1.47565 13.4662 1.47565 13.5881V16.5844H2.47732C2.55572 15.2256 3.67934 14.1543 5.04684 14.1543C6.42306 14.1543 7.53797 15.2256 7.61636 16.5844H8.61804V13.5881C8.61804 13.4662 8.51351 13.3616 8.39157 13.3616H6.66695C6.545 13.3616 6.44048 13.2658 6.44048 13.1352Z" fill="#9CA3AF"/>
</svg>
