<svg width="104" height="45" viewBox="0 0 104 45" fill="none" xmlns="http://www.w3.org/2000/svg">
<g clip-path="url(#clip0_388_5255)">
<path d="M97.4272 6.46875H31.5811V44.5813H97.4272V6.46875Z" fill="#22C55E"/>
<path d="M103.599 0H37.7529V38.1125H103.599V0Z" fill="#33E26D"/>
<path d="M76.7157 27.8506C81.3474 24.3516 82.3958 17.5798 79.0574 12.7255C75.7189 7.87106 69.2579 6.77227 64.6262 10.2712C59.9945 13.7702 58.9461 20.542 62.2845 25.3963C65.623 30.2507 72.0841 31.3495 76.7157 27.8506Z" fill="#1B7A3B"/>
<path d="M54.7987 3.13745H42.0327V8.21553H54.7987V3.13745Z" fill="#1DA049"/>
<path d="M100.174 29.5088H87.4077V34.5869H100.174V29.5088Z" fill="#1DA049"/>
<path d="M95.4831 13.5092C97.5454 13.5092 99.2173 11.757 99.2173 9.59556C99.2173 7.4341 97.5454 5.68188 95.4831 5.68188C93.4208 5.68188 91.749 7.4341 91.749 9.59556C91.749 11.757 93.4208 13.5092 95.4831 13.5092Z" fill="#1DA049"/>
<path d="M45.7771 32.0426C45.7771 33.1207 44.9336 34.0048 43.9049 34.0048C42.8762 34.0048 42.0327 33.1207 42.0327 32.0426C42.0327 30.9644 42.8762 30.0803 43.9049 30.0803C44.9439 30.0803 45.7771 30.9644 45.7771 32.0426Z" fill="#1DA049"/>
<path d="M50.2932 32.0426C50.2932 33.1207 49.4497 34.0048 48.421 34.0048C47.3923 34.0048 46.5488 33.1207 46.5488 32.0426C46.5488 30.9644 47.3923 30.0803 48.421 30.0803C49.4497 30.0803 50.2932 30.9644 50.2932 32.0426Z" fill="#1DA049"/>
<path d="M54.7986 32.0426C54.7986 33.1207 53.9551 34.0048 52.9264 34.0048C51.8977 34.0048 51.0542 33.1207 51.0542 32.0426C51.0542 30.9644 51.8977 30.0803 52.9264 30.0803C53.9654 30.0803 54.7986 30.9644 54.7986 32.0426Z" fill="#1DA049"/>
<path d="M32.1466 19.1264H10.359C8.99086 19.1264 7.87988 17.962 7.87988 16.528C7.87988 15.0941 8.99086 13.9297 10.359 13.9297H32.1363C33.5044 13.9297 34.6154 15.0941 34.6154 16.528C34.6154 17.962 33.5044 19.1264 32.1466 19.1264Z" fill="#2CE56A"/>
<path d="M24.6578 39.8375H2.8805C1.51235 39.8375 0.401367 38.6731 0.401367 37.2392C0.401367 35.8053 1.51235 34.6409 2.8805 34.6409H24.6578C26.0259 34.6409 27.1369 35.8053 27.1369 37.2392C27.1369 38.6731 26.0259 39.8375 24.6578 39.8375Z" fill="#39EA74"/>
<path d="M32.1465 29.4874H22.7135C21.3454 29.4874 20.2344 28.323 20.2344 26.8891C20.2344 25.4552 21.3454 24.2908 22.7135 24.2908H32.1465C33.5147 24.2908 34.6257 25.4552 34.6257 26.8891C34.6154 28.323 33.5044 29.4874 32.1465 29.4874Z" fill="#22C55E"/>
<path d="M14.8852 29.4874H12.653C11.2848 29.4874 10.1738 28.323 10.1738 26.8891C10.1738 25.4552 11.2848 24.2908 12.653 24.2908H14.8852C16.2534 24.2908 17.3643 25.4552 17.3643 26.8891C17.3643 28.323 16.2534 29.4874 14.8852 29.4874Z" fill="#1DA049"/>
</g>
<defs>
<clipPath id="clip0_388_5255">
<rect width="103.198" height="44.5814" fill="white" transform="translate(0.401367)"/>
</clipPath>
</defs>
</svg>
