<svg width="72" height="70" viewBox="0 0 72 70" fill="none" xmlns="http://www.w3.org/2000/svg">
<g clip-path="url(#clip0_388_5477)">
<path d="M18 46.7055C13.095 46.7055 8.19 45.9375 5.6475 44.4249C4.86 43.9594 4.5 43.5173 4.5 43.4475C5.265 33.2547 7.2225 31.5559 11.1375 28.1117L12.15 27.2274C13.9275 28.0884 15.885 28.5771 17.955 28.5771C18.765 28.5771 19.485 28.484 20.25 28.3444V23.5738C19.5075 23.7832 18.765 23.9229 17.955 23.9229C12.825 23.9229 8.64 19.5944 8.64 14.2886C8.64 8.98271 12.825 4.65426 17.955 4.65426C23.085 4.65426 27.27 8.98271 27.27 14.2886C27.27 15.1031 27.18 15.7081 27 16.4528H31.59C31.7025 15.7314 31.77 15.0332 31.77 14.2886C31.77 6.3996 25.5825 0 17.955 0C10.3275 0 4.14 6.3996 4.14 14.2886C4.14 18.2912 5.7375 21.9215 8.3025 24.5047L8.235 24.5745C3.555 28.6702 0.8775 31.5326 0 43.2846C0 44.7274 0.585 46.7985 3.3975 48.4741C6.5925 50.3823 12.4875 51.3364 18 51.383V46.7055Z" fill="#22C55E"/>
<path d="M18 9.33177C20.6325 9.33177 22.7475 11.5425 22.7475 14.242C22.7475 14.8936 23.2425 15.4056 23.8725 15.4056C24.5025 15.4056 24.9975 14.8936 24.9975 14.242C24.9975 10.2393 21.8475 7.00464 18 7.00464C17.37 7.00464 16.875 7.51661 16.875 8.1682C16.875 8.8198 17.3925 9.33177 18 9.33177Z" fill="#22C55E"/>
<path d="M44.8876 16.4527C44.7301 15.7546 44.6401 15.0332 44.6401 14.2885C44.6401 8.98263 48.8251 4.65418 53.9551 4.65418C59.0851 4.65418 63.2701 8.98263 63.2701 14.2885C63.2701 19.5943 59.0851 23.9228 53.9551 23.9228C53.1901 23.9228 52.4476 23.8297 51.7501 23.6435V28.3909C52.4701 28.5072 53.2126 28.577 53.9551 28.577C56.0476 28.577 58.0501 28.0884 59.8276 27.204L60.8626 28.1116C64.7776 31.5325 66.7351 33.2546 67.5001 43.2612C67.5001 43.4939 67.1401 43.9361 66.3526 44.4248C63.8101 45.9374 58.9051 46.7054 54.0001 46.7054V51.3829C59.5126 51.3364 65.4076 50.3822 68.6026 48.474C71.4151 46.7752 72.0001 44.704 72.0001 43.0983C71.1226 31.5558 68.4451 28.6701 63.7876 24.5744L63.6751 24.4813C66.2176 21.8982 67.7926 18.2911 67.7926 14.3118C67.7926 6.42279 61.6051 0.0231934 53.9776 0.0231934C46.3501 0.0231934 40.1626 6.42279 40.1626 14.3118C40.1626 15.0564 40.2301 15.7778 40.3201 16.476L44.8876 16.4527Z" fill="#22C55E"/>
<path d="M61.02 14.242C61.02 10.2393 57.87 7.00464 54.0225 7.00464C53.3925 7.00464 52.8975 7.51661 52.8975 8.1682C52.8975 8.8198 53.3925 9.33177 54.0225 9.33177C56.6325 9.33177 58.77 11.5425 58.77 14.242C58.77 14.8936 59.265 15.4056 59.895 15.4056C60.525 15.4056 61.02 14.8936 61.02 14.242Z" fill="#22C55E"/>
<path d="M59.3773 33.6968C62.7073 35.4189 62.7073 41.0272 62.7073 42.8657C62.7073 43.5173 63.2023 44.0292 63.8323 44.0292C64.4623 44.0292 64.9573 43.5173 64.9573 42.8657C64.9573 40.6782 64.9573 33.9761 60.3898 31.6257C59.8273 31.3464 59.1523 31.5791 58.8823 32.1376C58.5898 32.7194 58.8148 33.4175 59.3773 33.6968Z" fill="#22C55E"/>
<path d="M36 27.9487C38.61 27.9487 40.7475 30.1595 40.7475 32.8589C40.7475 33.5105 41.2425 34.0225 41.8725 34.0225C42.5025 34.0225 42.9975 33.5105 42.9975 32.8589C42.9975 28.8563 39.8475 25.6216 36 25.6216C35.37 25.6216 34.875 26.1336 34.875 26.7851C34.875 27.4367 35.3925 27.9487 36 27.9487Z" fill="#22C55E"/>
<path d="M42.39 50.2426C41.85 49.9633 41.1525 50.1961 40.8825 50.7546C40.6125 51.3363 40.8375 52.0345 41.3775 52.3137C44.7075 54.0358 44.7075 59.6442 44.7075 61.4826C44.7075 62.1342 45.2025 62.6462 45.8325 62.6462C46.4625 62.6462 46.9575 62.1342 46.9575 61.4826C46.9575 59.2951 46.9575 52.6163 42.39 50.2426Z" fill="#22C55E"/>
<path d="M45.765 43.1916L45.6525 43.0985C48.195 40.5154 49.77 36.9083 49.77 32.9289C49.77 25.04 43.5825 18.6404 35.955 18.6404C28.3275 18.6404 22.14 25.04 22.14 32.9289C22.14 36.9316 23.7375 40.5619 26.3025 43.145L26.235 43.2148C21.5775 47.2873 18.8775 50.1497 18 61.9017C18 63.3445 18.585 65.4156 21.3975 67.0912C24.6825 69.046 30.33 70.0234 36 70.0234C41.67 70.0234 47.34 69.046 50.6025 67.0912C53.415 65.3924 54 63.3212 54 61.7155C53.1225 50.1497 50.445 47.2873 45.765 43.1916ZM45.27 32.9057C45.27 38.2115 41.085 42.54 35.955 42.54C30.825 42.54 26.64 38.2115 26.64 32.9057C26.64 27.5998 30.825 23.2714 35.955 23.2714C41.1075 23.2714 45.27 27.5998 45.27 32.9057ZM23.6475 63.042C22.86 62.5766 22.5 62.1111 22.5 62.0646C23.265 51.8718 25.2225 50.173 29.1375 46.7288L30.15 45.8445C30.3525 45.9376 30.5325 46.0307 30.735 46.1238L33.9975 50.778L30.0375 60.1331L34.11 65.276C29.88 65.1131 25.875 64.3684 23.6475 63.042ZM48.3525 63.042C46.125 64.3684 42.075 65.1131 37.8 65.276L41.8725 60.1098L37.9125 50.7547L41.175 46.1005C41.4 46.0074 41.6025 45.9143 41.805 45.798L42.84 46.7055C46.755 50.1264 48.7125 51.8485 49.4775 61.8551C49.5 62.1344 49.14 62.5766 48.3525 63.042Z" fill="#22C55E"/>
</g>
<defs>
<clipPath id="clip0_388_5477">
<rect width="72" height="70" fill="white"/>
</clipPath>
</defs>
</svg>
