<svg width="65" height="60" viewBox="0 0 65 60" fill="none" xmlns="http://www.w3.org/2000/svg">
<g clip-path="url(#clip0_388_5461)">
<path d="M63.4015 1.39893C46.9681 10.8386 32.5003 1.39893 32.5003 1.39893C32.5003 1.39893 18.0457 10.8386 1.5991 1.39893C1.5991 1.39893 -0.36663 44.7297 32.5003 58.6129C65.3672 44.7297 63.4015 1.39893 63.4015 1.39893Z" fill="#22C55E"/>
<path d="M62.615 0.199708C53.612 4.97244 42.1453 5.80708 33.2733 0.199708C32.867 -0.0589124 32.1201 -0.0589124 31.7138 0.199708C22.8418 5.80708 11.3751 4.97244 2.37207 0.199708C1.33679 -0.3528 0.0918312 0.364285 0.0525167 1.39877C-0.301314 9.87447 1.23195 18.6206 3.70877 26.7671C5.81865 33.7264 9.17349 40.3917 13.8257 46.2812C16.3287 49.4434 19.3428 52.2412 22.6584 54.7099C24.9386 56.4027 29.4467 60.0116 32.5001 60.0116C35.1604 60.0116 39.1836 56.8964 41.2017 55.4975C44.6352 53.1112 47.741 50.3956 50.3489 47.2687C55.2239 41.4144 58.5656 34.8314 60.9376 27.8604C63.7814 19.4787 65.3146 10.2036 64.9477 1.41052C64.8691 -0.376311 61.7763 -0.376311 61.8549 1.41052C62.7199 22.0532 54.4769 46.5398 33.0898 56.8259C30.7703 57.9427 24.1785 52.2648 22.6977 51.0892C19.6967 48.7028 17.1805 45.8463 14.9527 42.8721C10.6674 37.1472 7.96784 30.5524 6.06764 23.9105C3.98397 16.6691 2.83074 8.89877 3.14526 1.39877C2.37207 1.79845 1.59889 2.19814 0.812598 2.59783C10.8116 7.89955 23.2874 8.6519 33.2078 2.64485C32.3559 3.15034 31.1765 2.29219 32.3691 2.98576C33.234 3.49124 34.1644 3.90269 35.0949 4.30237C37.5455 5.38388 40.1664 6.05394 42.8267 6.54767C50.3358 7.93482 57.7138 6.03043 64.1745 2.59783C65.8912 1.69266 64.3449 -0.705464 62.615 0.199708Z" fill="white"/>
<path d="M45.0677 34.4436C45.0677 37.3002 42.4729 39.6278 39.2885 39.6278H25.7119C22.5405 39.6278 19.9326 37.3002 19.9326 34.4436V28.5306C19.9326 25.6858 22.5274 23.3464 25.7119 23.3464H39.2885C42.4729 23.3464 45.0677 25.674 45.0677 28.5306V34.4436Z" fill="white"/>
<path d="M35.226 30.3175C35.226 28.9656 34.0072 27.8723 32.5002 27.8723C30.9931 27.8723 29.7744 28.9656 29.7744 30.3175C29.7744 31.011 30.102 31.6341 30.6262 32.0808L29.5254 35.4311H35.4619L34.3611 32.0808C34.8984 31.6341 35.226 31.011 35.226 30.3175Z" fill="#25AD96"/>
<path d="M40.1536 24.3926H37.8472V18.174C37.8472 15.8817 35.7766 14.0243 33.2212 14.0243H31.7796C29.2242 14.0243 27.1536 15.8817 27.1536 18.174V24.3926H24.8472V18.174C24.8472 14.7414 27.953 11.9553 31.7796 11.9553H33.2212C37.0478 11.9553 40.1536 14.7414 40.1536 18.174V24.3926Z" fill="white"/>
</g>
<defs>
<clipPath id="clip0_388_5461">
<rect width="65" height="60" fill="white"/>
</clipPath>
</defs>
</svg>
