<svg width="70" height="71" viewBox="0 0 70 71" fill="none" xmlns="http://www.w3.org/2000/svg">
<g clip-path="url(#clip0_388_5492)">
<path d="M35 0.177734C15.6342 0.177734 0 15.8119 0 35.0748C0 54.5435 15.6342 70.1777 35 70.1777C54.2629 70.1777 70 54.5435 70 35.0748C70 15.8119 54.25 0.177734 35 0.177734ZM35 67.4112C17.2298 67.4112 2.76654 53.0509 2.76654 35.0748C2.76654 17.4204 17.2426 2.94428 35 2.94428C52.7702 2.94428 67.1305 17.4204 67.1305 35.0748C67.1305 53.0509 52.7702 67.4112 35 67.4112ZM41.6011 29.1171L39.2592 26.8781L45.7445 20.2899H45.8474L52.4485 26.8781L50.1066 29.1171L45.7445 24.8579L41.6011 29.1171ZM21.7077 29.1171L19.3658 26.8781L25.8511 20.2899H25.954L32.5551 26.8781L30.2132 29.1171L25.954 24.8579L21.7077 29.1171ZM54.25 40.3891C51.9081 48.47 44.5735 54.3248 35.7335 54.3248C27.1121 54.3248 19.6746 48.3671 17.2298 40.3891C21.3732 46.2439 28.0772 50.1685 35.7335 50.1685C43.4026 50.1814 50.3254 46.3469 54.25 40.3891Z" fill="#22C55E"/>
</g>
<defs>
<clipPath id="clip0_388_5492">
<rect width="70" height="70" fill="white" transform="translate(0 0.177734)"/>
</clipPath>
</defs>
</svg>
