<svg width="184" height="104" viewBox="0 0 184 104" fill="none" xmlns="http://www.w3.org/2000/svg">
<g clip-path="url(#clip0_373_4683)">
<path d="M72.3138 33.2462L63.6981 33.2606C63.1768 33.2606 62.6411 32.8556 62.5252 32.3348L61.1206 26.1431C61.0048 25.6368 61.3378 25.2028 61.8736 25.2028L72.2994 25.1738C72.8351 25.1738 73.2551 25.6078 73.2551 26.1286L73.2695 32.2769C73.284 32.8122 72.8496 33.2462 72.3138 33.2462Z" fill="#EF4645"/>
<path d="M76.5428 34.2147C76.8758 34.5474 76.8758 35.0972 76.5428 35.4444C76.2098 35.7771 75.6595 35.7771 75.312 35.4444L71.5037 31.6541C71.1706 31.3214 71.1706 30.7717 71.5037 30.4245C71.8367 30.0773 72.387 30.0773 72.72 30.4245L76.5428 34.2147Z" fill="#CC2327"/>
<path d="M172.821 32.9993L181.436 32.9848C181.958 32.9848 182.479 32.5653 182.595 32.0445L183.97 25.8383C184.086 25.332 183.753 24.898 183.217 24.9125L172.792 24.9414C172.27 24.9414 171.836 25.3754 171.836 25.8962L171.85 32.0445C171.865 32.5653 172.299 32.9993 172.821 32.9993Z" fill="#26262F"/>
<path d="M168.607 33.9839C168.274 34.3167 168.274 34.8664 168.607 35.2136C168.94 35.5463 169.49 35.5463 169.838 35.2136L173.632 31.4089C173.965 31.0762 173.965 30.5264 173.632 30.1792C173.299 29.8465 172.749 29.8465 172.401 30.1792L168.607 33.9839Z" fill="#26262F"/>
<path d="M91.1963 60.1082L91.2253 76.9473C91.1963 80.6218 88.2423 83.6164 84.5644 83.6742L78.9605 83.6887C75.2101 83.7032 72.1693 80.6652 72.1548 76.9184L72.1114 60.1516C72.0969 56.4048 75.1377 53.3668 78.8881 53.3524L84.3906 53.3379C88.1554 53.3379 91.1963 56.3614 91.1963 60.1082Z" fill="#26262F"/>
<path d="M83.693 69.726L82.6504 69.7285L82.684 83.7032L83.7265 83.7007L83.693 69.726Z" fill="#26262F"/>
<path d="M80.7242 69.7415L79.6816 69.7441L79.7166 83.7188L80.7592 83.7162L80.7242 69.7415Z" fill="#26262F"/>
<path d="M91.2239 70.8281V72.3471L83.7087 79.942L83.2598 80.376V78.8715L83.7087 78.4231L91.2239 70.8281Z" fill="#26262F"/>
<path d="M91.2395 75.4297V76.9487L84.5786 83.6901H83.2754V83.4731L83.7243 83.0246L91.2395 75.4297Z" fill="#26262F"/>
<path d="M91.2102 66.2285L91.2247 67.7475L83.695 75.3424L83.2606 75.7764L83.2461 74.2719L83.695 73.8235L91.2102 66.2285Z" fill="#26262F"/>
<path d="M72.1387 70.8711L72.1532 72.3901L79.7118 79.9561L80.1462 80.3901V78.8711L79.7118 78.4371L72.1387 70.8711Z" fill="#26262F"/>
<path d="M72.1543 75.4727V76.9916L78.8586 83.6897H80.1474V83.4727L79.713 83.0387L72.1543 75.4727Z" fill="#26262F"/>
<path d="M72.125 66.2715L72.1395 67.7905L79.6981 75.3565L80.1326 75.7905V74.2715L79.6981 73.8375L72.125 66.2715Z" fill="#26262F"/>
<path d="M173.183 59.9208L173.226 76.7598C173.197 80.4343 170.243 83.4289 166.551 83.4868L160.947 83.5013C157.196 83.5157 154.156 80.4777 154.141 76.7309L154.098 59.9642C154.083 56.2173 157.11 53.1794 160.86 53.1649L166.362 53.1504C170.127 53.136 173.168 56.1739 173.183 59.9208Z" fill="#1C1C1F"/>
<path d="M165.666 69.5249L164.609 69.5273L164.642 83.502L165.699 83.4996L165.666 69.5249Z" fill="#26262F"/>
<path d="M162.697 69.5405L161.654 69.543L161.688 83.5177L162.73 83.5152L162.697 69.5405Z" fill="#26262F"/>
<path d="M173.197 70.625V72.144L165.681 79.7389L165.247 80.1874L165.232 78.6684L165.681 78.2344L173.197 70.625Z" fill="#26262F"/>
<path d="M173.21 75.2266V76.7455L166.535 83.487H165.246V83.27L165.68 82.836L173.21 75.2266Z" fill="#26262F"/>
<path d="M173.182 66.0254L173.197 67.5444L165.667 75.1393L165.232 75.5878V74.0688L165.667 73.6203L173.182 66.0254Z" fill="#26262F"/>
<path d="M154.111 70.668L154.126 72.187L161.684 79.753L162.119 80.187V78.6824L161.67 78.234L154.111 70.668Z" fill="#26262F"/>
<path d="M154.127 75.2695V76.7885L160.831 83.501H162.135V83.284L161.686 82.8355L154.127 75.2695Z" fill="#26262F"/>
<path d="M154.098 66.0684L154.112 67.5874L161.671 75.1534L162.105 75.5873V74.0684L161.671 73.6344L154.098 66.0684Z" fill="#26262F"/>
<path d="M174.95 48.0304L174.979 59.9364C174.993 65.0141 174.993 64.1751 174.993 67.9942C174.979 71.6543 172.025 74.8948 168.376 75.242C140.762 77.5132 113.105 77.7736 85.4768 76.0521C82.6532 75.8785 79.8296 75.676 77.0059 75.459C74.9063 75.2709 73.0239 74.1136 71.8075 72.4789C70.9098 71.2637 70.3595 69.8026 70.345 68.2402C70.3306 64.421 70.3306 65.2601 70.3161 60.1823L70.2871 48.2763C70.3016 46.3523 71.127 44.544 72.4302 43.2131C72.6619 42.9671 72.908 42.7501 73.1832 42.5331C73.9506 41.94 74.8484 41.4771 75.8041 41.2311C76.1661 41.1443 76.5281 41.072 76.9046 41.0286C107.327 38.5259 137.837 38.4536 168.275 40.8116C170.07 40.9707 171.706 41.8387 172.908 43.1263C174.154 44.4427 174.921 46.1787 174.95 48.0304Z" fill="#26262F"/>
<path d="M176.716 42.8066L176.745 55.1176C176.76 60.369 176.76 59.501 176.774 63.4504C176.745 67.2406 173.69 70.5824 169.925 70.944C141.37 73.2876 112.757 73.577 84.1879 71.7831C81.2629 71.6095 78.3524 71.3925 75.4274 71.1755C73.2554 70.973 71.315 69.7867 70.0552 68.0797C69.1285 66.8355 68.5638 65.3021 68.5493 63.7108C68.5348 59.7614 68.5348 60.6294 68.5348 55.378L68.5059 43.067C68.5203 41.0706 69.3747 39.2044 70.7213 37.8301C70.9675 37.5842 71.2281 37.3527 71.5033 37.1357C72.2997 36.5137 73.2119 36.0507 74.2111 35.7903C74.5731 35.6891 74.964 35.6312 75.355 35.5878C106.82 32.9983 138.358 32.926 169.853 35.3563C171.721 35.5299 173.415 36.4269 174.646 37.7433C175.906 39.0887 176.702 40.8826 176.716 42.8066Z" fill="#399F52"/>
<path d="M171.504 34.1852C168.709 27.0243 166.306 19.7332 164.018 12.3986C162.208 7.81273 157.835 3.09664 152.825 2.15631C132.523 -0.780394 112.251 -0.722528 91.9788 2.34438C86.9831 3.29917 82.6535 8.05866 80.8869 12.6446C78.6859 19.9791 76.3691 27.2702 73.6758 34.4312C106.01 42.3588 139.199 42.272 171.504 34.1852Z" fill="#22793D"/>
<path d="M75.2539 33.2305C75.2539 33.2305 80.0034 19.1979 81.8134 13.1943C83.3339 9.27387 87.1711 4.87604 91.6021 4.02251C101.637 2.50353 111.816 1.72233 121.851 1.70787C131.799 1.67893 141.921 2.40226 151.883 3.84892C156.314 4.68797 160.195 9.05687 161.759 12.9773C163.641 18.9954 168.579 33.0135 168.579 33.0135L75.2539 33.2305Z" fill="#26262F"/>
<path d="M128.221 7.27727C128.221 8.40566 127.309 9.31705 126.194 9.31705L117.506 9.33152C116.391 9.33152 115.479 8.43459 115.479 7.3062C115.479 6.19228 116.376 5.26642 117.506 5.26642L126.194 5.25195C127.309 5.25195 128.221 6.14888 128.221 7.27727Z" fill="#1C1C1F"/>
<path d="M110.816 33.1153L110.787 20.0086C110.787 17.2021 108.499 14.9453 105.69 14.9453L92.8318 14.9742C90.0227 14.9742 87.7493 17.26 87.7637 20.052L87.7927 33.1587L110.816 33.1153Z" fill="#1C1C1F"/>
<path d="M156.023 33.0137L155.994 19.907C155.98 17.1005 153.706 14.8438 150.897 14.8438L138.039 14.8727C135.23 14.8727 132.956 17.1584 132.971 19.9504L133 33.0571L156.023 33.0137Z" fill="#1C1C1F"/>
<path d="M175.094 38.3374L171.503 34.1855L73.8191 34.4315L70.0977 38.5834L175.094 38.3374Z" fill="#006B32"/>
<path d="M135.708 75.8205L109.658 75.8784C108.963 75.8784 108.384 75.3142 108.384 74.6053L108.369 71.0321C108.369 70.3232 108.934 69.759 109.629 69.759L135.679 69.7012C136.374 69.7012 136.953 70.2654 136.953 70.9742L136.968 74.5475C136.968 75.2563 136.403 75.8205 135.708 75.8205Z" fill="white"/>
<path d="M169.751 36.3704L158.935 45.383C158.022 46.3523 156.198 47.148 154.866 47.148L90.3999 47.3071C89.0677 47.3071 87.2432 46.5259 86.3164 45.5566L75.4273 36.6019C74.5151 35.6326 74.8626 34.8369 76.1948 34.8369L168.984 34.6055C170.316 34.6055 170.664 35.3867 169.751 36.3704Z" fill="#44B75E"/>
<path d="M85.317 54.4969V56.609C85.3315 58.8368 83.5215 60.6452 81.2915 60.6596L70.9382 60.6886C68.7082 60.6886 66.8837 58.8947 66.8837 56.6668L66.8692 49.3034C66.8547 47.0755 68.6648 45.2527 70.9092 45.2527L74.4134 45.2383C75.6298 45.2383 77.3674 45.8603 78.3086 46.6271L83.6228 50.996C84.5496 51.7627 85.3025 53.3395 85.317 54.4969Z" fill="#CC2327"/>
<path d="M70.9385 59.4738C69.3747 59.4738 68.1004 58.2152 68.1004 56.6528L68.0859 49.2894C68.0859 47.727 69.3457 46.4539 70.9096 46.4539L74.4138 46.4395C75.355 46.4395 76.8175 46.9602 77.5415 47.5534L82.8558 51.9223C83.5074 52.472 84.1155 53.6872 84.1155 54.4973V56.6094C84.1155 58.1718 82.8413 59.4449 81.2919 59.4449L70.9385 59.4738Z" fill="#E0E1E0"/>
<path d="M159.963 54.3232V56.4353C159.963 58.6632 161.788 60.4715 164.018 60.457L174.371 60.4281C176.601 60.4281 178.411 58.6053 178.396 56.3774L178.382 49.014C178.382 46.7861 176.557 44.9778 174.327 44.9923L170.823 45.0067C169.607 45.0067 167.869 45.6433 166.943 46.41L161.643 50.8078C160.716 51.589 159.949 53.1514 159.963 54.3232Z" fill="#44B75E"/>
<path d="M164.002 59.2422C162.453 59.2422 161.179 57.9836 161.164 56.4212V54.3091C161.164 53.499 161.758 52.2838 162.409 51.734L167.709 47.3362C168.433 46.7431 169.881 46.2078 170.822 46.2078L174.327 46.1934C175.89 46.1934 177.165 47.4519 177.165 49.0143L177.179 56.3778C177.179 57.9402 175.919 59.2133 174.356 59.2133L164.002 59.2422Z" fill="#E0E1E0"/>
<path d="M92.58 64.9372L77.6074 64.9746L77.62 69.9945L92.5925 69.9571L92.58 64.9372Z" fill="#CC2327"/>
<path d="M167.719 67.4556L152.746 67.49L152.758 72.5099L167.73 72.4755L167.719 67.4556Z" fill="#26262F"/>
<g opacity="0.3">
<path d="M122.503 1.69336C121.083 1.69336 119.664 1.72229 118.231 1.75123L79.7859 21.5993C79.4384 22.6554 79.0909 23.7114 78.7578 24.7241L123.371 1.69336C123.082 1.69336 122.792 1.69336 122.503 1.69336Z" fill="#252130"/>
<path d="M125.79 1.72266L78.2512 26.2435C76.9625 30.135 75.9199 33.2308 75.9199 33.2308C75.9199 33.2308 77.2811 33.2308 79.6848 33.2163L139.459 2.35918C134.898 1.99752 130.322 1.78052 125.79 1.72266Z" fill="#252130"/>
<path d="M164.815 20.1953L139.865 33.0705C142.008 33.0705 144.079 33.0561 146.077 33.0561L165.741 22.9006C165.423 22.0036 165.104 21.0922 164.815 20.1953Z" fill="#252130"/>
</g>
<path d="M150.71 61.006C150.638 63.8559 148.48 66.3442 145.671 66.8216C130.307 68.7022 115.031 68.7456 99.6529 66.9373C96.8437 66.4599 94.6717 64.0006 94.5848 61.1507C94.5848 59.4436 94.5848 58.5901 94.5703 56.883C94.6427 54.0331 96.8003 51.5593 99.6094 51.082C114.973 49.1868 130.25 49.1579 145.613 50.9662C148.437 51.4291 150.594 53.9029 150.681 56.7528C150.71 58.4454 150.71 59.2989 150.71 61.006Z" fill="#CCCCCC"/>
<path d="M122.792 66.5751C115.262 66.5895 107.602 66.1555 100.029 65.2586C98.0308 64.8969 96.4814 63.132 96.409 61.1067L96.3945 56.8969C96.4669 54.8861 98.0018 53.1067 100 52.7306C107.559 51.8047 115.219 51.3273 122.749 51.3128C130.278 51.2984 137.938 51.7324 145.511 52.6293C147.51 52.991 149.059 54.7559 149.131 56.7667L149.146 60.9765C149.088 62.9874 147.539 64.7667 145.555 65.1429C137.982 66.0687 130.322 66.5461 122.792 66.5751Z" fill="#26262F"/>
<path d="M147.785 55.2623C147.785 55.841 147.321 56.3039 146.757 56.3039L98.523 56.4196C97.9583 56.4196 97.4805 55.9567 97.4805 55.378C97.4805 54.7994 97.9438 54.3364 98.5086 54.3364L146.742 54.2207C147.321 54.2207 147.785 54.6836 147.785 55.2623Z" fill="#1C1C1F"/>
<path d="M147.798 58.8072C147.798 59.3859 147.335 59.8488 146.77 59.8488L98.5367 59.9645C97.972 59.9645 97.4941 59.5016 97.4941 58.9229C97.4941 58.3443 97.9575 57.8814 98.5367 57.8814L146.77 57.7656C147.335 57.7656 147.798 58.2286 147.798 58.8072Z" fill="#1C1C1F"/>
<path d="M147.798 62.5103C147.798 63.089 147.335 63.5519 146.77 63.5519L98.5367 63.6677C97.972 63.6677 97.4941 63.2047 97.4941 62.6261C97.4941 62.0474 97.9575 61.5845 98.5367 61.5845L146.77 61.4688C147.335 61.4688 147.798 61.9317 147.798 62.5103Z" fill="#1C1C1F"/>
<path d="M74.8474 51.1111C74.8474 52.6301 73.6166 53.8598 72.1106 53.8598C70.5902 53.8598 69.3594 52.6446 69.3594 51.1256C69.3594 49.6066 70.5902 48.377 72.0961 48.377C73.6021 48.377 74.8329 49.5921 74.8474 51.1111Z" fill="white"/>
<path d="M173.039 50.8795C173.039 52.3985 171.808 53.6281 170.302 53.6281C168.782 53.6281 167.551 52.413 167.551 50.894C167.551 49.375 168.767 48.1453 170.288 48.1309C171.808 48.1309 173.039 49.3605 173.039 50.8795Z" fill="white"/>
<path d="M123.018 1.69039L120.672 1.69531L120.684 7.46746L123.03 7.46254L123.018 1.69039Z" fill="#1C1C1F"/>
<path d="M89.7851 61.6018L78.9395 61.6289L78.9521 66.6633L89.7977 66.6362L89.7851 61.6018Z" fill="#E0E1E0"/>
<path d="M166.371 61.4438L155.525 61.4688L155.537 66.5031L166.383 66.4782L166.371 61.4438Z" fill="#E0E1E0"/>
<path d="M77.6133 66.2568C77.6133 64.7523 76.3825 63.5371 74.8766 63.5371C73.3706 63.5371 72.1543 64.7668 72.1543 66.2713C72.1543 67.7758 73.3851 69.0055 74.8911 68.991C76.397 68.991 77.6133 67.7613 77.6133 66.2568Z" fill="#E0E1E0"/>
<path d="M173.067 66.0261C173.067 64.5216 171.836 63.3064 170.331 63.3064C168.825 63.3064 167.594 64.5361 167.594 66.0406C167.594 67.5451 168.825 68.7603 170.331 68.7603C171.851 68.7603 173.067 67.5306 173.067 66.0261Z" fill="#E0E1E0"/>
<path d="M124.935 46.3233C124.935 45.6145 123.603 45.0503 121.938 45.0647C120.302 45.0647 118.955 45.6434 118.955 46.3378C118.955 47.0466 120.302 47.6108 121.938 47.5964C123.603 47.5964 124.935 47.0177 124.935 46.3233Z" fill="white"/>
<path d="M12.4238 67.4871L25.847 93.5124L37.3153 87.3352L47.5383 87.1906L58.6302 81.4908L38.8212 50.6191L24.2107 59.4437L19.3309 62.1779L12.4238 67.4871Z" fill="#FCC8A1"/>
<path d="M38.0401 51.082L24.197 59.4437L19.3172 62.1634L12.4102 67.4726L25.8333 93.4979L37.3016 87.3063L46.1925 87.1905C45.1354 85.1218 44.1797 83.0242 43.3399 80.8252C39.8936 71.3352 37.736 61.2375 38.0401 51.082Z" fill="#FCC8A1"/>
<path d="M58.631 81.4908L38.8221 50.6191L38.0402 51.0965C37.7361 61.2376 39.8936 71.3497 43.3544 80.8542C44.1943 83.0531 45.1644 85.1508 46.207 87.2195L47.5247 87.205L58.631 81.4908Z" fill="#F0B990"/>
<path d="M96.6122 74.3596L71.6917 3.69051C70.7071 0.927398 67.5504 -0.490323 64.6543 0.522335L47.5677 6.54042L30.4811 12.5585C27.5995 13.5712 26.0211 16.667 26.9913 19.4301L51.9262 90.0992C52.8964 92.8623 56.0676 94.28 58.9636 93.2529L76.0358 87.2348L93.1224 81.2167C96.0185 80.2041 97.5823 77.1082 96.6122 74.3596Z" fill="#26262F"/>
<path d="M91.1682 65.622L71.3448 9.44841C70.9539 8.34895 69.6941 7.78476 68.5357 8.18982L50.4064 14.5696L32.2627 20.9638C31.1043 21.3688 30.4817 22.613 30.8726 23.7124L50.6816 79.8716C51.0725 80.971 52.3468 81.5497 53.4907 81.1446L71.6199 74.7649L89.7492 68.3706C90.9221 67.9656 91.5592 66.7215 91.1682 65.622Z" fill="#979C9F"/>
<path d="M52.2871 46.9587L54.0392 51.6458C54.4157 52.673 53.9089 53.8158 52.8808 54.2209L51.3169 54.7995C50.2743 55.1901 49.1159 54.6549 48.725 53.6133L46.9873 48.9406C46.5964 47.899 47.1321 46.7417 48.1747 46.3511L49.7096 45.7724C50.7377 45.3963 51.9106 45.9171 52.2871 46.9587Z" fill="#26262F"/>
<path d="M51.188 50.416L52.6361 54.3075L52.3465 54.4232L50.8984 50.5318L51.188 50.416Z" fill="#26262F"/>
<path d="M50.3619 50.7207L51.8099 54.6122L51.5203 54.7279L50.0723 50.8364L50.3619 50.7207Z" fill="#26262F"/>
<path d="M53.4018 49.9531L53.5611 50.3727L52.2434 53.266L52.171 53.4396L52.0117 53.02L52.0841 52.8464L53.4018 49.9531Z" fill="#26262F"/>
<path d="M53.8784 51.2402L54.0377 51.6598L52.8792 54.2203L52.5172 54.3505L52.4883 54.2927L52.5752 54.1335L53.8784 51.2402Z" fill="#26262F"/>
<path d="M52.9233 48.666L53.0826 49.1L51.7649 51.9789L51.6925 52.1525L51.5332 51.7329L51.6201 51.5593L52.9233 48.666Z" fill="#26262F"/>
<path d="M48.0879 51.9355L48.2472 52.3551L51.1432 53.686L51.3025 53.7583L51.1432 53.3388L50.9839 53.2665L48.0879 51.9355Z" fill="#26262F"/>
<path d="M48.5645 53.209L48.7237 53.643L51.2867 54.8148L51.6487 54.6846L51.6198 54.6267L51.4605 54.5399L48.5645 53.209Z" fill="#26262F"/>
<path d="M47.6094 50.6484L47.7687 51.068L50.6502 52.3989L50.824 52.4712L50.6647 52.0517L50.5054 51.9794L47.6094 50.6484Z" fill="#26262F"/>
<path d="M75.123 38.4671L76.8751 43.1543C77.2516 44.1814 76.7303 45.3243 75.7167 45.7293L74.1529 46.2935C73.1103 46.6841 71.9519 46.1489 71.5609 45.1073L69.8233 40.4346C69.4323 39.393 69.9681 38.2357 71.0106 37.8451L72.5455 37.2664C73.5881 36.8903 74.7465 37.4111 75.123 38.4671Z" fill="#26262F"/>
<path d="M74.0387 41.9189L73.7539 42.0254L75.2105 45.9141L75.4953 45.8076L74.0387 41.9189Z" fill="#26262F"/>
<path d="M73.1978 42.2285L74.6603 46.1056L74.3707 46.2213L72.9082 42.3298L73.1978 42.2285Z" fill="#26262F"/>
<path d="M76.2389 41.4473L76.3982 41.8668L75.095 44.7601L75.0226 44.9337L74.8633 44.5142L74.9357 44.3406L76.2389 41.4473Z" fill="#26262F"/>
<path d="M76.7299 42.7207L76.8892 43.1547L75.7163 45.7153L75.3543 45.8599L75.3398 45.7876L75.4122 45.614L76.7299 42.7207Z" fill="#26262F"/>
<path d="M75.7749 40.1602L75.9197 40.5797L74.6164 43.4875L74.544 43.6466L74.3848 43.2271L74.4572 43.0679L75.7749 40.1602Z" fill="#26262F"/>
<path d="M70.9238 43.4297L71.0831 43.8492L73.9647 45.1801L74.1384 45.2525L73.9792 44.8329L73.8199 44.7606L70.9238 43.4297Z" fill="#26262F"/>
<path d="M71.416 44.7031L71.5608 45.1371L74.1238 46.3089L74.4858 46.1787L74.4569 46.1208L74.2976 46.034L71.416 44.7031Z" fill="#26262F"/>
<path d="M70.4453 42.1426L70.6046 42.5621L73.5006 43.893L73.6599 43.9798L73.5006 43.5458L73.3414 43.4735L70.4453 42.1426Z" fill="#26262F"/>
<path d="M70.7494 26.6638L68.7801 27.3872C68.2009 27.6042 67.8968 28.2552 68.114 28.8483C68.1285 28.8772 68.1285 28.8917 68.143 28.9062L67.0859 30.5843L67.4479 30.8157L68.4181 29.2823C68.7222 29.5572 69.1711 29.6729 69.5765 29.5138L71.5458 28.776C72.1395 28.559 72.4291 27.908 72.2119 27.3148C72.0092 26.7362 71.3431 26.4468 70.7494 26.6638Z" fill="#26262F"/>
<path d="M42.4702 37.1947L44.425 36.4569C45.0042 36.2399 45.6703 36.5437 45.8875 37.1224C45.902 37.1513 45.902 37.1658 45.902 37.1947L47.7989 37.7589L47.6686 38.164L45.931 37.6432C45.873 38.0483 45.6124 38.4244 45.207 38.5835L43.2377 39.3068C42.644 39.5238 41.9924 39.22 41.7751 38.6414C41.5724 38.0627 41.862 37.4117 42.4702 37.1947Z" fill="#26262F"/>
<path d="M77.4826 40.4204C77.4392 40.2323 77.4102 40.1021 77.3523 39.8851C76.8455 37.7441 76.1504 35.6609 75.2671 33.65C75.1078 33.2884 74.6734 32.811 74.3114 32.6084C73.0661 31.914 71.8208 31.2341 70.5611 30.5687C70.1846 30.3661 69.5764 30.3227 69.1999 30.4529C65.3192 31.8996 61.4385 33.3462 57.5434 34.7929C53.764 36.1961 49.9847 37.5994 46.2198 39.0027C45.8433 39.1473 45.4234 39.5813 45.2641 39.9719C44.7429 41.3028 44.236 42.6338 43.7437 43.9647C43.5989 44.3553 43.5844 44.9918 43.7003 45.3679C43.8306 45.7875 43.903 45.99 44.0333 46.3951C44.7428 48.3046 45.5537 50.1274 46.4805 51.9502L77.4826 40.4204Z" fill="#44B75E"/>
<path d="M64.5388 23.6685C64.5388 23.654 64.5388 23.6395 64.5243 23.6395C64.2636 22.9451 59.7024 24.0156 54.3447 26.012C54.3157 26.0265 54.2868 26.0265 54.2578 26.041L57.6751 35.1983L70.2295 30.5256L64.5388 23.6685Z" fill="#22793D"/>
<path d="M45.1055 30.8584C45.1055 30.8728 45.12 30.8728 45.12 30.8873L45.3806 39.7698L57.6888 35.1983L54.2715 26.041C48.9428 28.0085 44.8449 30.164 45.1055 30.8584Z" fill="#22793D"/>
<path d="M64.0304 24.116C63.1471 24.0147 59.5995 24.8104 54.6472 26.6476C54.6038 26.6621 54.5604 26.6766 54.5169 26.691C49.6226 28.5138 46.4804 30.2209 45.8867 30.8574L46.2198 38.2209L57.2971 34.0979L68.6206 29.8881L64.0304 24.116Z" fill="#26262F"/>
<path d="M66.637 41.592C66.7673 41.9247 66.5935 42.2864 66.2605 42.4021L56.2692 46.1345C55.9361 46.2502 55.5741 46.0911 55.4583 45.7584L54.4302 42.9953C54.3143 42.6625 54.4736 42.3009 54.8066 42.1851L64.798 38.4672C65.131 38.337 65.493 38.5106 65.6234 38.8434L66.637 41.592Z" fill="#26262F"/>
<path d="M47.3786 40.9862C47.3786 40.9862 47.3641 41.0007 47.3496 41.0007L48.6528 44.4726L48.3487 44.5884L48.899 46.0784L52.6059 44.6896L52.0557 43.1996C51.3461 41.2755 49.2465 40.2918 47.3786 40.9862Z" fill="#3EA44C"/>
<path d="M48.465 48.1475C47.3066 48.5815 46.0179 47.9883 45.5834 46.831L45.5545 46.7731C45.1201 45.6158 45.7138 44.3283 46.8722 43.8943L46.9011 43.8798H46.9301C48.2768 43.793 52.6643 43.576 52.838 44.7189C52.9973 45.8907 52.6208 46.5995 51.6072 46.9757L48.465 48.1475Z" fill="#338F38"/>
<path d="M52.635 44.7472C52.7798 45.7454 52.5191 46.4254 51.5489 46.7726L48.3923 47.9443C47.3497 48.3349 46.1768 47.7997 45.7858 46.7581L45.7569 46.6858C45.3659 45.6442 45.9017 44.4724 46.9442 44.0818C46.9442 44.0818 52.4757 43.7056 52.635 44.7472Z" fill="white"/>
<path d="M69.6205 32.6961C69.6349 32.6961 69.6349 32.6816 69.6494 32.6816L70.9382 36.1536L71.2422 36.0379L71.7925 37.5279L68.0856 38.9167L67.5353 37.4267C66.8113 35.5171 67.7525 33.3905 69.6205 32.6961Z" fill="#3EA44C"/>
<path d="M73.4863 38.8161C74.6448 38.3821 75.2384 37.0946 74.804 35.9373L74.7751 35.865C74.3551 34.7076 73.0519 34.1145 71.8935 34.5485L71.8646 34.563L71.8356 34.5774C70.7641 35.3876 67.3033 38.1073 67.9259 39.0765C68.5631 40.0747 69.3305 40.3496 70.3296 39.9879L73.4863 38.8161Z" fill="#338F38"/>
<path d="M68.1142 38.9754C68.65 39.8289 69.2871 40.1616 70.2717 39.8L73.4139 38.6282C74.471 38.2376 75.0068 37.0658 74.6013 36.0097L74.5724 35.9374C74.1814 34.8958 73.0085 34.3605 71.9659 34.7511C71.9804 34.7656 67.5495 38.0929 68.1142 38.9754Z" fill="white"/>
<path d="M46.1191 36.2096L46.206 38.2349L57.2834 34.1264L68.6069 29.9166L65.0882 25.4609L46.1191 36.2096Z" fill="#26262F"/>
<path opacity="0.2" d="M64.0304 24.116C63.1471 24.0147 59.5995 24.8104 54.6472 26.6476C54.6038 26.6621 54.5604 26.6766 54.5169 26.691C49.6226 28.5138 46.4804 30.2209 45.8867 30.8574L46.1329 36.1811L65.102 25.4324L64.0304 24.116Z" fill="#252130"/>
<path d="M71.8077 40.7975L71.5905 41.7234L51.7961 49.0869L51.0141 48.5371L45.7578 50.4901C46.004 51.0109 46.2646 51.5317 46.5253 52.0525C47.0031 52.935 48.3208 53.2966 49.3923 52.906C53.7654 51.2858 58.1239 49.6655 62.4825 48.0453L75.8911 43.0543C76.9627 42.6492 77.7156 41.5209 77.5129 40.5371C77.455 40.2767 77.426 40.1465 77.3536 39.8717C77.2667 39.5245 77.1799 39.1628 77.0785 38.8301L71.8077 40.7975Z" fill="#26262F"/>
<path d="M67.289 45.194C67.3903 45.4688 67.26 45.7726 66.9849 45.8884L58.0216 49.2301C57.7465 49.3459 57.4424 49.1867 57.3266 48.9119L57.0225 48.0873C56.9211 47.8124 57.0515 47.5086 57.3266 47.4073L66.2898 44.0656C66.565 43.9643 66.8835 44.109 66.9849 44.3838L67.289 45.194Z" fill="white"/>
<path opacity="0.4" d="M50.4058 14.5694L47.5821 15.5676L33.1309 30.0775L35.0278 35.5025L58.8477 11.6038L50.4058 14.5694Z" fill="white"/>
<path opacity="0.4" d="M73.8204 17.4193C73.4294 16.3199 72.1697 15.7412 71.0112 16.1607L65.8563 17.969L38.2715 45.658L43.4844 60.4573L77.0929 26.7213L73.8204 17.4193Z" fill="white"/>
<path d="M79.5683 78.7001C79.3077 77.9478 78.7429 77.3403 77.99 76.9931C77.237 76.6459 76.3827 76.6169 75.5863 76.9063L73.1681 77.7598L70.7354 78.6133C70.3444 78.758 69.9824 78.9605 69.6783 79.2354C68.7082 80.0744 68.3462 81.362 68.7516 82.5193C69.3019 84.0817 71.0974 84.8918 72.7337 84.3131L75.1519 83.4596L77.57 82.6061C77.961 82.4614 78.323 82.2589 78.6271 81.984C79.6118 81.145 79.9738 79.8574 79.5683 78.7001Z" fill="#1C1C1F"/>
<path d="M78.9461 78.5107C78.6854 77.7439 78.1062 77.1508 77.3533 76.8036C76.6003 76.4564 75.7459 76.4419 74.9495 76.7168L72.5313 77.5703L70.0987 78.4239C69.7077 78.5541 69.3457 78.7711 69.0416 79.0315C68.0714 79.8705 67.7094 81.158 68.1149 82.3154C68.6796 83.8778 70.4607 84.6879 72.1114 84.1092L74.5296 83.2557L76.9478 82.4022C77.3388 82.2575 77.7008 82.055 78.0049 81.7946C78.9895 80.9555 79.3515 79.668 78.9461 78.5107Z" fill="white"/>
<path d="M54.4745 7.89994L49.5078 9.6504L44.5266 11.4008C43.875 11.6323 43.5419 12.3122 43.7446 12.9343C43.9618 13.5419 44.6714 13.8602 45.3085 13.6432L50.2752 11.8927L55.2564 10.1278C55.908 9.89633 56.2555 9.2164 56.0383 8.59434C55.8067 7.98674 55.1116 7.66848 54.4745 7.89994Z" fill="#1C1C1F"/>
<path d="M53.7359 8.17534L48.7692 9.92579L43.788 11.6762C43.1364 11.9077 42.7888 12.5876 43.0061 13.1952C43.2088 13.8173 43.9183 14.1211 44.5699 13.9041L49.5366 12.1536L54.5033 10.4032C55.1549 10.1717 55.488 9.49179 55.2853 8.86973C55.0825 8.26213 54.373 7.94387 53.7359 8.17534Z" fill="white"/>
<path d="M29.3668 34.4608L45.2081 23.2347C45.2081 23.2347 47.4526 21.1805 48.5675 22.9309C49.2192 23.9581 51.0292 29.629 45.3385 33.7809C43.6443 35.025 38.6196 39.5241 38.6196 39.5241C38.6196 39.5241 40.0387 50.6778 37.7364 56.6669L21.8516 60.761L23.8643 49.7809C23.8643 49.7953 28.6573 36.327 29.3668 34.4608Z" fill="#FCC8A1"/>
<path d="M84.4124 56.5612L50.3066 68.4277L51.4782 71.7886L85.5839 59.9221L84.4124 56.5612Z" fill="white"/>
<path d="M86.2659 62.4116L52.1738 74.2734L53.3454 77.6343L87.4375 65.7725L86.2659 62.4116Z" fill="white"/>
<path d="M18.6038 59.4117L6.85742 66.5918L26.4079 98.5153L38.1543 91.3351L18.6038 59.4117Z" fill="#009C45"/>
<path d="M20.3659 62.2614L8.625 69.4512L9.91902 71.5603L21.6599 64.3705L20.3659 62.2614Z" fill="#44B75E"/>
<path d="M23.2897 67.0948L11.5488 74.2832L12.8426 76.3923L24.5835 69.204L23.2897 67.0948Z" fill="#44B75E"/>
<path d="M26.2355 71.9211L14.4863 79.0957L15.7776 81.2063L27.5268 74.0317L26.2355 71.9211Z" fill="#44B75E"/>
<path d="M29.1942 76.7326L17.4492 83.9141L18.7418 86.0239L30.4868 78.8424L29.1942 76.7326Z" fill="#44B75E"/>
<path d="M32.1505 81.5395L20.4082 88.7266L21.7017 90.836L33.444 83.6489L32.1505 81.5395Z" fill="#44B75E"/>
<path d="M35.133 86.3623L23.377 93.5273L24.6665 95.6392L36.4225 88.4742L35.133 86.3623Z" fill="#44B75E"/>
<path d="M24.0082 104L0 66.7345L6.86362 66.5898L26.4119 98.5175L24.0082 104Z" fill="#44B75E"/>
<path d="M96.6113 74.3593L71.6909 3.69022C71.0682 1.93977 69.5623 0.724581 67.7957 0.333984C68.0563 0.695648 68.259 1.10071 68.4183 1.53471L93.3532 72.2038C94.3234 74.9669 92.7596 78.0483 89.8635 79.0754L72.7769 85.0935L55.7047 91.1116C54.6477 91.4877 53.5616 91.5311 52.5625 91.3141C53.9092 93.2526 56.5446 94.1351 58.9772 93.2671L76.0494 87.249L93.136 81.2309C96.0176 80.2038 97.5815 77.1079 96.6113 74.3593Z" fill="#1C1C1F"/>
</g>
<defs>
<clipPath id="clip0_373_4683">
<rect width="184" height="104" fill="white"/>
</clipPath>
</defs>
</svg>
