<svg width="128" height="95" viewBox="0 0 128 95" fill="none" xmlns="http://www.w3.org/2000/svg">
<path d="M12.8931 51.0079L12.9491 50.9741L12.8873 51.0061C12.6072 51.1489 12.3425 51.3067 12.0895 51.4927L12.8931 51.0136V51.0079Z" fill="#82BFAB"/>
<path d="M52.6234 65.3431C51.0528 64.0992 49.5711 62.7181 48.2053 61.1998L32.2019 70.8374L37.8506 74.2404L39.398 73.3084C39.7419 73.0416 40.1167 72.8048 40.5281 72.6263L52.6234 65.3431Z" fill="#22C55E"/>
<path d="M42.3711 52.391C41.5192 50.5683 40.8295 48.708 40.3156 46.8234L18.6268 59.8846L17.9719 60.2754L17.7903 60.3882L17.9855 60.2848C19.2276 61.8125 20.6359 63.2349 22.2123 64.5277L23.0701 64.011L24.6503 63.0621L42.3711 52.391Z" fill="#22C55E"/>
<path d="M39.1874 35.1733L56.0331 25.0302L56.0408 25.0433L63.2968 20.6783L63.5673 20.513L64.0039 20.0676C63.5673 19.5528 63.3567 18.8989 63.461 18.2449L63.4861 18.1378C63.5421 17.8748 63.6329 17.6173 63.7836 17.3749L64.0039 17.1495C64.7515 16.2682 66.0362 16.0014 67.0716 16.597L67.147 16.6421L87.8718 29.2317L92.033 31.7609C93.2094 32.5595 94.7066 32.8921 96.2096 32.552C99.0339 31.915 100.792 29.1735 100.141 26.4319C99.8067 25.0264 98.9045 23.9046 97.7319 23.2188L97.5851 23.1305L71.6211 7.35776L71.6076 7.37092L71.5438 7.32958C69.1232 5.86956 66.5867 4.75529 64.0058 3.90408C57.623 1.79391 50.8905 1.45756 44.5232 2.79356C43.0299 3.10173 41.5636 3.50009 40.1244 3.98864C38.832 4.42833 37.5666 4.94131 36.3264 5.52006C33.7261 6.03492 30.9327 5.6328 28.4985 4.16902L22.7049 0.681519L0 36.3552L5.26041 39.5214L8.53295 41.4906C10.2214 42.9713 11.3476 44.8973 11.8267 46.9661L11.9214 47.4566C12.0644 48.2063 12.2633 48.9429 12.47 49.6795C12.5956 50.1248 12.7444 50.5645 12.8892 51.0023L12.9511 50.9704L39.1874 35.1733Z" fill="#22C55E"/>
<path d="M105.301 0.681519L99.5091 4.1709C97.0731 5.63468 94.2796 6.03492 91.6794 5.52194C90.443 4.94319 89.1757 4.42833 87.8814 3.99052C86.4441 3.50196 84.974 3.10361 83.4884 2.79544C77.1172 1.45944 70.3847 1.79391 64 3.90596C66.5828 4.75904 69.1193 5.87332 71.538 7.33146L71.6018 7.3728L71.6153 7.35964L97.5792 23.1323L97.7261 23.2207C98.8987 23.9065 99.8008 25.0302 100.135 26.4338C100.788 29.1753 99.03 31.9169 96.2038 32.5539C94.7008 32.8921 93.2017 32.5595 92.0271 31.7628L87.8659 29.2336L67.1411 16.644L67.0658 16.5989C66.0303 16.0032 64.7456 16.2701 63.998 17.1513L64.2202 17.3768C64.7727 18.2543 64.6355 19.3198 63.998 20.0695L63.5614 20.5148L63.291 20.6802L56.035 25.0452L56.0272 25.0321L39.1816 35.1751L12.9491 50.9723L12.8931 51.0098L12.0894 51.489C10.7854 52.4548 9.92963 53.9618 9.92963 55.683C9.92963 58.6012 12.3599 60.9669 15.362 60.9669C16.239 60.9669 17.0581 60.7433 17.7884 60.3881L17.97 60.2754L18.6248 59.8846L40.3117 46.8233C40.8256 48.708 41.5152 50.5683 42.3672 52.3909L24.6464 63.0602L23.0662 64.0091C21.9341 64.9787 21.2 66.3804 21.2 67.9626C21.2 70.8807 23.6341 73.2464 26.6362 73.2464C28.0658 73.2464 29.362 72.6978 30.3318 71.8146L30.4091 71.918L32.1999 70.8375L48.2033 61.1999C49.5691 62.7182 51.0489 64.0993 52.6195 65.3432L40.5261 72.6282C40.1147 72.8068 39.7399 73.0435 39.396 73.3103C38.1403 74.2686 37.3212 75.7399 37.3212 77.4085C37.3212 80.3079 39.736 82.6511 42.7188 82.6511C44.2816 82.6511 45.6803 81.9972 46.6655 80.9618L46.8278 81.1647L48.1125 80.3906L58.3493 74.2235L61.4229 72.3727V72.1829V69.712L61.3978 69.2084L61.4229 68.7048C61.6856 66.0384 63.9942 63.9527 66.805 63.9527C69.7665 63.9565 72.1716 66.279 72.2026 69.1576V69.2121V69.2629L72.1987 75.7606L72.1968 85.0149L78.143 81.4353V80.7363L78.1352 80.6837L78.143 80.633V75.0372L78.1507 67.0118V62.8798L78.1526 61.4742L78.1352 61.2243L78.1526 60.9707C78.2125 59.6685 78.767 58.4903 79.6324 57.609C80.6157 56.6094 81.9912 55.9855 83.527 55.9818C85.0609 55.9855 86.4402 56.6094 87.4216 57.609C88.347 58.5523 88.9149 59.8226 88.9149 61.2281L88.9053 61.4818L88.9304 61.478V66.6999L88.9284 74.9789L94.8727 71.3975V65.4052L94.8766 57.9567V57.9398L94.8689 57.75L94.9036 57.2614V56.6169H95.0079C95.375 55.0235 96.4839 53.7006 97.9714 53.0185C98.6688 52.6953 99.4454 52.5018 100.266 52.5018C102.847 52.5056 104.994 54.2662 105.525 56.6169H105.627V57.4324L105.65 57.6447L105.664 57.7575L105.65 57.998V64.6461C109.692 61.3671 112.698 57.2276 114.529 52.6728C115.209 50.9835 115.727 49.236 116.082 47.4584L116.173 46.968C116.656 44.8973 117.78 42.9732 119.471 41.4925L122.741 39.5232L128 36.3571L105.301 0.681519Z" fill="#6B8970"/>
<path d="M88.9343 61.478L88.9091 61.4818L88.9188 61.2281C88.9188 59.8226 88.3508 58.5523 87.4255 57.6091C86.4441 56.6094 85.0648 55.9856 83.5309 55.9818C81.9951 55.9856 80.6177 56.6094 79.6363 57.6091C78.7708 58.4903 78.2164 59.6685 78.1565 60.9707L78.1391 61.2243L78.1565 61.4743L78.1546 62.8798V67.0118L78.1469 75.0372V80.633L78.1391 80.6837L78.1469 80.7363V81.4354L78.2125 81.394C78.5757 83.9495 80.7993 85.9244 83.5251 85.9244C86.2664 85.9244 88.5073 83.9194 88.8415 81.3395H88.8879V80.9149L88.913 80.6856L88.8879 80.4564V75.0034L88.9323 74.9808L88.9343 66.7018V61.478Z" fill="#22C55E"/>
<path d="M72.2084 69.2628V69.2121V69.1576C72.1794 66.2789 69.7723 63.9564 66.8108 63.9526C64 63.9526 61.6914 66.0403 61.4287 68.7047L61.4036 69.2083L61.4287 69.7119V72.1828V72.3726V76.0725L58.3551 74.2216L48.1183 80.3886L53.7651 83.7878L55.3125 82.8558L55.4284 82.7863L61.4229 79.1748V82.869V85.3286L61.421 91.4938V91.5069L61.7011 91.3378C62.3888 93.4555 64.4037 94.9982 66.8108 94.9982C69.5521 94.9982 71.7911 92.997 72.1272 90.4171H72.1736V89.9924L72.1987 89.7632L72.1736 89.5339V85.0336L72.2026 85.013L72.2045 75.7587L72.2084 69.2628Z" fill="#22C55E"/>
<path d="M105.668 57.7575L105.654 57.6448L105.631 57.4324V56.6169H105.529C104.998 54.2663 102.851 52.5056 100.27 52.5018C99.4493 52.5018 98.6747 52.6973 97.9753 53.0186C96.4878 53.7007 95.3809 55.0235 95.0119 56.6169H94.9076V57.2614L94.8728 57.75L94.8805 57.9398V57.9567L94.8767 65.4052V71.3975L94.9095 71.3768V72.2224L94.8863 72.4422L94.9095 72.6659V73.098H94.9559C95.2881 75.678 97.5271 77.6829 100.27 77.6829C103.012 77.6829 105.256 75.678 105.585 73.098H105.631V72.6734L105.654 72.4441L105.631 72.2168V64.6611L105.654 64.6442V57.9962L105.668 57.7575Z" fill="#22C55E"/>
<path d="M61.4229 82.871V79.1768L55.4284 82.7883L55.3125 82.8578C53.8945 83.803 52.9653 85.3851 52.9653 87.1777C52.9653 90.0752 55.3782 92.4221 58.3571 92.4221C59.4949 92.4221 60.5478 92.0764 61.421 91.4939L61.4229 85.3288V82.871Z" fill="#616E7D"/>
</svg>
