<svg width="144" height="124" viewBox="0 0 144 124" fill="none" xmlns="http://www.w3.org/2000/svg">
<g clip-path="url(#clip0_184_2209)">
<path fill-rule="evenodd" clip-rule="evenodd" d="M20.9721 68.2667L144 0V124L20.9721 68.2667Z" fill="#8FE2AA" fill-opacity="0.5"/>
<path opacity="0.4" fill-rule="evenodd" clip-rule="evenodd" d="M111.764 50.0088L144 38.3613V94.9751L111.764 85V50.0088Z" fill="#22C55E"/>
<path fill-rule="evenodd" clip-rule="evenodd" d="M115.919 85.5196C125.833 85.5196 133.919 77.4155 133.919 67.4801C133.919 57.5447 125.833 49.4406 115.919 49.4406C106.005 49.4406 97.919 57.5447 97.919 67.4801C97.919 77.4173 106.005 85.5196 115.919 85.5196Z" fill="#679959"/>
<path fill-rule="evenodd" clip-rule="evenodd" d="M115.919 49.4423C116.556 49.4423 117.185 49.4765 117.804 49.5397C125.915 52.0835 129.336 58.997 129.336 67.48C129.336 75.963 125.167 83.1273 117.804 85.4221C117.185 85.4871 116.556 85.5196 115.919 85.5196C105.978 85.5196 97.919 77.4424 97.919 67.48C97.919 57.5176 105.978 49.4423 115.919 49.4423Z" fill="#A5D198"/>
<path fill-rule="evenodd" clip-rule="evenodd" d="M128.765 80.1811C128.103 79.9358 127.413 79.712 126.706 79.51C125.068 81.7886 122.97 83.5458 120.596 84.5561V84.1466C122.405 83.0371 123.993 81.3033 125.24 79.1293C123.753 78.7775 122.193 78.5159 120.596 78.3427V76.737C122.403 77.004 124.16 77.4388 125.816 78.0432C127.152 75.3154 127.984 72.012 128.11 68.4326H121.316C121.269 71.3733 121.014 74.1246 120.594 76.5259V58.4341C121.012 60.8354 121.269 63.5903 121.316 66.5292H128.11C127.984 62.9751 127.163 59.6934 125.843 56.9763C124.18 57.5861 122.412 58.0227 120.594 58.2915V56.6859C122.203 56.5109 123.775 56.2457 125.273 55.8902C124.022 53.6874 122.419 51.932 120.594 50.8134V50.4039C122.988 51.4214 125.098 53.1985 126.743 55.506C127.438 55.3075 128.113 55.0874 128.763 54.8475C128.936 55.0243 129.107 55.2047 129.273 55.3869C128.648 55.7459 127.996 56.0761 127.325 56.3756C129.1 59.2044 130.214 62.7081 130.374 66.5292H133.892C133.908 66.845 133.917 67.1625 133.917 67.4818C133.917 67.8011 133.908 68.1187 133.892 68.4344H130.374C130.214 72.2772 129.087 75.8025 127.293 78.6404C127.975 78.9435 128.637 79.2772 129.273 79.6435C129.109 79.8257 128.938 80.0043 128.765 80.1811ZM120.598 84.5579C119.131 85.1822 117.557 85.5214 115.921 85.5214C117.107 85.5214 118.158 82.6347 118.812 78.1875C117.854 78.1244 116.887 78.0901 115.921 78.0901V76.4249C116.961 76.4141 118 76.4574 119.026 76.5512C119.305 74.1445 119.478 71.3842 119.507 68.4344H115.919V66.531H119.507C119.476 63.6101 119.309 60.8715 119.033 58.481C118.004 58.5766 116.963 58.6199 115.921 58.6073V56.9421C116.891 56.9402 117.86 56.9078 118.821 56.8428C118.167 52.3577 117.113 49.4423 115.921 49.4423C117.557 49.4423 119.131 49.7814 120.598 50.4057V50.8152C119.158 49.9312 117.577 49.4441 115.921 49.4441C117.698 49.4441 119.275 52.3054 120.259 56.7238C120.373 56.7129 120.486 56.7003 120.598 56.6877V58.2933L120.572 58.297L120.598 58.4359V76.5295C120.585 76.5981 120.574 76.6667 120.562 76.7352L120.598 76.7406V78.3463C120.481 78.3337 120.362 78.3211 120.245 78.3102C119.258 82.6907 117.689 85.525 115.921 85.525C117.579 85.525 119.158 85.036 120.598 84.152V84.5579ZM115.919 85.5196C114.733 85.5196 113.681 82.6311 113.026 78.1785C113.986 78.1172 114.952 78.0865 115.919 78.0883V76.4231C114.886 76.4339 113.849 76.4971 112.821 76.6107C112.538 74.1896 112.364 71.4058 112.333 68.4326H115.921V66.5292H112.333C112.364 63.5831 112.535 60.8227 112.814 58.4178C113.845 58.5333 114.884 58.5964 115.919 58.6073V56.9421C114.949 56.9439 113.98 56.9132 113.017 56.8518C113.671 52.3614 114.727 49.4441 115.919 49.4441C114.281 49.4441 112.706 49.7832 111.237 50.4093V50.8188C112.679 49.933 114.261 49.4441 115.919 49.4441C114.14 49.4441 112.562 52.3108 111.577 56.7346C111.464 56.7238 111.348 56.7111 111.235 56.7003V58.2031L111.28 58.2104C111.264 58.2952 111.249 58.3817 111.235 58.4683V76.5007C111.253 76.6089 111.273 76.7172 111.293 76.8236L111.235 76.8326V78.3355C111.354 78.3229 111.473 78.3102 111.591 78.2994C112.578 82.6816 114.149 85.5196 115.919 85.5196C114.259 85.5196 112.679 85.0288 111.237 84.1448V84.5543C112.706 85.1804 114.281 85.5196 115.919 85.5196ZM111.237 84.1448C109.426 83.0316 107.834 81.2943 106.587 79.1113C108.077 78.7613 109.64 78.5015 111.237 78.3301V76.8272C109.469 77.1195 107.737 77.5687 106.086 78.1731C104.713 75.42 103.854 72.0679 103.726 68.4308H110.52C110.565 71.3589 110.821 74.1012 111.237 76.4953V58.4629C110.821 60.857 110.567 63.5993 110.52 66.5274H103.726C103.854 62.9155 104.7 59.5851 106.058 56.8428C107.717 57.4526 109.458 57.9055 111.235 58.1995V56.6967C109.626 56.5253 108.052 56.2637 106.551 55.9083C107.802 53.6982 109.406 51.9392 111.235 50.817V50.4075C108.837 51.4286 106.724 53.2111 105.078 55.5258C104.383 55.3273 103.707 55.1072 103.055 54.8655C102.916 55.008 102.779 55.1524 102.644 55.2985C103.273 55.6449 103.921 55.9624 104.587 56.2547C102.767 59.1034 101.622 62.6557 101.462 66.531H97.9442C97.928 66.8468 97.919 67.1643 97.919 67.4836C97.919 67.8029 97.928 68.1205 97.9442 68.4362H101.462C101.624 72.3349 102.781 75.9071 104.621 78.7649C103.944 79.0607 103.284 79.3837 102.644 79.7355C102.779 79.8816 102.916 80.026 103.055 80.1685C103.719 79.9231 104.409 79.6976 105.118 79.4955C106.756 81.7814 108.857 83.544 111.235 84.5579L111.237 84.1448Z" fill="#72A664"/>
<path fill-rule="evenodd" clip-rule="evenodd" d="M115.919 85.5196C117.687 85.5196 119.256 82.6853 120.243 78.3049C121.962 78.4781 123.643 78.7523 125.24 79.1294C125.413 78.8407 125.739 78.2056 125.818 78.0505C124.182 77.4623 122.342 76.9915 120.56 76.7317C120.999 74.2817 121.269 71.4564 121.317 68.4326H128.111C128.124 67.7958 128.126 67.1607 128.108 66.5311L121.317 66.5275C121.271 63.5308 121.004 60.729 120.572 58.2934C122.378 58.0282 124.135 57.5952 125.789 56.9944C125.793 56.9926 125.82 56.98 125.85 56.971C125.753 56.7328 125.366 56.0671 125.272 55.8885C123.67 56.2674 121.982 56.5452 120.255 56.7184C119.271 52.3019 117.699 49.381 115.922 49.381C117.114 49.381 118.164 52.3542 118.817 56.8393C117.856 56.9042 116.885 56.9367 115.915 56.9385V58.6037C116.957 58.6145 118 58.5731 119.029 58.4774C119.305 60.8697 119.472 63.6066 119.503 66.5275H115.915V68.4308H119.503C119.472 71.3788 119.301 74.1409 119.022 76.5476C117.994 76.452 116.956 76.4105 115.915 76.4214V78.0866C116.882 78.0884 117.849 78.1208 118.806 78.184C118.156 82.6348 117.105 85.5196 115.919 85.5196ZM115.919 85.5196C114.732 85.5178 113.681 82.6294 113.028 78.1786C113.987 78.1172 114.954 78.0866 115.919 78.0884V76.4232C114.885 76.434 113.85 76.4971 112.821 76.6108C112.538 74.1896 112.363 71.4059 112.333 68.4326H115.919V66.5293H112.331C112.362 63.5831 112.533 60.8228 112.812 58.4179C113.843 58.5334 114.88 58.5965 115.917 58.6073V56.9421C114.947 56.9439 113.978 56.9132 113.015 56.8519C113.669 52.3614 114.711 49.5596 115.904 49.5596C114.126 49.5596 112.561 52.3109 111.577 56.7346C110.187 56.5975 108.821 56.3937 107.503 56.1212V57.3318C108.732 57.7071 109.998 57.9993 111.28 58.2104C110.837 60.6658 110.565 63.5001 110.518 66.5329H107.501V68.4363H110.518C110.567 71.4961 110.842 74.3538 111.29 76.8237C110.003 77.0348 108.734 77.327 107.501 77.7041V78.9147C108.824 78.6422 110.194 78.4366 111.589 78.2995C112.578 82.6817 114.149 85.5196 115.919 85.5196ZM107.503 82.1603V80.5492C109.649 83.5675 112.538 85.4438 115.723 85.5178L115.651 85.516C112.615 85.4474 109.807 84.2152 107.503 82.1603ZM107.503 54.4127V52.8034C109.807 50.7485 112.615 49.5145 115.652 49.4459L115.721 49.4441C112.538 49.5181 109.651 51.3944 107.503 54.4127ZM107.503 52.8016V54.4109C107.168 54.8836 106.849 55.3833 106.552 55.9083C106.866 55.9823 107.184 56.0527 107.503 56.1194V57.33C107.015 57.1803 106.533 57.0197 106.057 56.8447C104.7 59.587 103.852 62.9174 103.726 66.5293H107.503V68.4326H103.726C103.854 72.0698 104.711 75.4201 106.086 78.175C106.552 78.0036 107.026 77.8466 107.505 77.7005V78.9111C107.197 78.9742 106.891 79.0428 106.588 79.1131C106.876 79.6165 107.182 80.0964 107.505 80.551V82.1621C106.633 81.3845 105.832 80.4897 105.119 79.4956C104.426 79.6923 103.753 79.9106 103.105 80.1505C102.963 80.0062 102.824 79.86 102.687 79.7121C103.314 79.3693 103.96 79.0536 104.623 78.7649C102.783 75.9072 101.625 72.335 101.463 68.4363H97.9458V68.4345L97.944 68.3911C97.9368 68.2486 97.9314 68.1061 97.9278 67.9618V67.9401C97.9242 67.7886 97.9224 67.637 97.9224 67.4855C97.9224 67.3339 97.9242 67.1824 97.9278 67.0308V67.0074C97.9314 66.8649 97.9368 66.7205 97.944 66.578L97.9458 66.5347V66.5329H101.463C101.625 62.6576 102.768 59.1053 104.588 56.2565C103.924 55.9643 103.274 55.6467 102.646 55.3003C102.704 55.2372 102.761 55.1759 102.821 55.1127C102.884 55.046 102.948 54.9792 103.011 54.9125L103.017 54.9052L103.024 54.898L103.029 54.8908L103.037 54.8836L103.044 54.8764L103.051 54.8692L103.058 54.8619C103.71 55.1037 104.387 55.3238 105.082 55.5223C105.802 54.5083 106.615 53.5936 107.503 52.8016Z" fill="#BBE3AE"/>
<path fill-rule="evenodd" clip-rule="evenodd" d="M37.4023 55.3113C43.6148 55.3113 54.7003 50.9272 58.5851 46.7164C61.2763 43.8009 61.1845 89.9091 58.4932 86.9937C54.6067 82.7828 43.6148 78.5539 37.4023 78.5539L25.8344 66.9606L26.0504 66.9317L25.8344 66.9028L37.4023 55.3113Z" fill="#DAE5F0"/>
<path fill-rule="evenodd" clip-rule="evenodd" d="M37.4023 55.3113C43.6148 55.3113 54.7003 50.9272 58.5851 46.7164C60.6139 44.5171 61.0603 70.1881 60.0036 81.7021C59.4833 81.6913 58.9793 81.4008 58.5022 80.8686C58.4986 80.865 58.495 80.865 58.4914 80.8596C54.6049 76.6488 43.613 72.4199 37.4005 72.4199L37.2907 72.3098H31.1701L25.8308 66.9588L26.0468 66.9299L25.8308 66.901L37.4023 55.3113Z" fill="#EDF6FF"/>
<path d="M60.0342 87.8362C63.0506 87.8362 65.4959 78.4648 65.4959 66.9046C65.4959 55.3444 63.0506 45.973 60.0342 45.973C57.0178 45.973 54.5724 55.3444 54.5724 66.9046C54.5724 78.4648 57.0178 87.8362 60.0342 87.8362Z" fill="#1DA34A"/>
<path fill-rule="evenodd" clip-rule="evenodd" d="M12.7183 97.1148C13.1917 90.5225 13.2277 86.4795 12.5545 83.9735L6.31863 90.7102L12.7183 97.1148Z" fill="#B3B3B3"/>
<path d="M22.036 85.0383L6.77556 85.2295L6.90668 95.7411L22.1671 95.5499L22.036 85.0383Z" fill="#FFD7B7"/>
<path fill-rule="evenodd" clip-rule="evenodd" d="M6.77228 94.322L22.0324 94.2949L22.1638 95.7184L6.90369 95.7455L6.77228 94.322Z" fill="#F0AD82"/>
<path fill-rule="evenodd" clip-rule="evenodd" d="M23.6256 80.6953C27.6238 80.1288 32.2016 84.042 32.4482 88.7165C32.6949 93.391 29.4077 97.1689 24.5184 97.6253C19.6274 98.08 14.4176 94.8668 14.8353 90.0552C15.2529 85.2454 19.6274 81.26 23.6256 80.6953Z" fill="#F0AD82"/>
<path fill-rule="evenodd" clip-rule="evenodd" d="M23.6418 80.8631C27.4816 80.6593 32.0252 84.134 32.2664 88.7039C32.5077 93.2738 29.0369 97.1725 24.5149 97.4107C19.9928 97.6506 15.2979 94.1831 15.8902 89.5699C16.4825 84.9585 19.8002 81.067 23.6418 80.8631Z" fill="#FFD7B7"/>
<path d="M31.9791 74.0142L25.1388 74.4427L26.6976 99.4312L33.5379 99.0026L31.9791 74.0142Z" fill="#22C55E"/>
<path fill-rule="evenodd" clip-rule="evenodd" d="M26.7237 100.609L33.6526 100.176C34.3942 100.13 34.9613 99.4837 34.9163 98.7422C34.8695 98.0007 34.225 97.4305 33.4851 97.4756L26.5563 97.9104C25.8146 97.9574 25.2475 98.6032 25.2925 99.3447C25.3375 100.088 25.982 100.656 26.7237 100.609Z" fill="#21A54D"/>
<path fill-rule="evenodd" clip-rule="evenodd" d="M26.9325 78.4456C26.5707 78.4799 26.2052 78.4979 25.8344 78.4979C19.4455 78.4979 14.2664 73.3074 14.2664 66.9045C14.2664 60.5017 19.4455 55.3112 25.8344 55.3112H37.4023V66.9045V78.4456H26.9325Z" fill="#1D9645"/>
<path fill-rule="evenodd" clip-rule="evenodd" d="M14.6769 63.8375C16.018 58.923 20.5058 55.3112 25.8344 55.3112H37.4023V66.9045V72.4216L37.2925 72.3115H26.9325C26.5707 72.3458 26.2052 72.3638 25.8344 72.3638C20.504 72.3638 16.018 68.752 14.6769 63.8375Z" fill="#22C55E"/>
<path fill-rule="evenodd" clip-rule="evenodd" d="M37.4023 55.3112C39.0729 55.3112 40.4284 60.5017 40.4284 66.9045C40.4284 73.3074 39.0747 78.4979 37.4023 78.4979C35.73 78.4979 34.3762 73.3074 34.3762 66.9045C34.3762 60.5017 35.7318 55.3112 37.4023 55.3112Z" fill="#DAE5F0"/>
<path fill-rule="evenodd" clip-rule="evenodd" d="M37.4239 55.3112C39.0855 55.3545 40.4284 60.527 40.4284 66.9046C40.4284 68.9848 40.2862 70.9387 40.0342 72.6255C39.0927 72.492 38.207 72.4199 37.4005 72.4199L37.2907 72.3098H34.7255C34.5022 70.6951 34.3762 68.8549 34.3762 66.9028C34.3762 62.5639 34.9991 58.7824 35.919 56.7942L37.4005 55.3094L37.4239 55.3112Z" fill="#EDF6FF"/>
<path fill-rule="evenodd" clip-rule="evenodd" d="M56.0288 61.0627C59.2241 61.0916 61.8038 63.695 61.8038 66.9045C61.8038 70.1123 59.2223 72.7175 56.0288 72.7463C55.9118 70.8935 55.847 68.9324 55.847 66.9045C55.847 64.8767 55.9118 62.9174 56.0288 61.0627Z" fill="#EDF6FF"/>
<path fill-rule="evenodd" clip-rule="evenodd" d="M60.288 47.4705C62.6283 47.4705 64.5274 56.1718 64.5274 66.9046C64.5274 77.6374 62.6283 86.3387 60.288 86.3387V87.8127C63.1863 87.304 65.4959 78.1389 65.4959 66.9046C65.4959 55.6702 63.1863 46.5034 60.288 45.9965V47.4705ZM60.288 86.3387C57.9478 86.3387 56.0486 77.6374 56.0486 66.9046C56.0486 56.1718 57.946 47.4705 60.288 47.4705V45.9965C60.2034 45.982 60.1188 45.973 60.0342 45.973C57.0171 45.973 54.5724 55.3437 54.5724 66.9046C54.5724 78.4655 57.0171 87.8362 60.0342 87.8362C60.1188 87.8362 60.2034 87.8272 60.288 87.8127V86.3387Z" fill="#22C55E"/>
<path fill-rule="evenodd" clip-rule="evenodd" d="M30.9109 80.3183L23.6274 80.6954C17.1233 84.0042 17.0243 87.6269 19.4654 91.3741C22.4068 90.4918 24.3402 87.8163 24.6877 84.0637L28.6967 83.8616C32.0396 83.6957 32.7021 80.2263 30.9109 80.3183Z" fill="#F0AD82"/>
<path fill-rule="evenodd" clip-rule="evenodd" d="M28.027 83.8852L34.0774 83.5009C36.1926 83.3674 36.396 86.5715 34.2808 86.7068L28.2304 87.0911C26.1152 87.2246 25.9118 84.0205 28.027 83.8852Z" fill="#F0AD82"/>
<path fill-rule="evenodd" clip-rule="evenodd" d="M28.3096 86.8854L34.9811 86.5589C37.1053 86.4543 37.3105 89.671 35.1845 89.7757L28.513 90.1022C26.3888 90.2069 26.1854 86.9901 28.3096 86.8854Z" fill="#F0AD82"/>
<path fill-rule="evenodd" clip-rule="evenodd" d="M28.5581 89.9831L34.3114 89.7034C36.4032 89.6024 36.6031 92.7686 34.5113 92.8697L28.7579 93.1493C26.6679 93.2522 26.4663 90.0859 28.5581 89.9831Z" fill="#F0AD82"/>
<path fill-rule="evenodd" clip-rule="evenodd" d="M29.7804 92.9563L34.054 92.7434C36.1404 92.6406 36.3402 95.7978 34.2538 95.9025L29.9802 96.1154C27.8956 96.2182 27.694 93.0591 29.7804 92.9563Z" fill="#F0AD82"/>
<path fill-rule="evenodd" clip-rule="evenodd" d="M28.1188 84.0384L34.036 83.6613C35.9424 83.5405 36.0738 86.2936 34.1674 86.4144L28.3006 86.925C26.396 87.0477 26.2124 84.1611 28.1188 84.0384Z" fill="#FFD7B7"/>
<path fill-rule="evenodd" clip-rule="evenodd" d="M28.3762 87.0478L34.9271 86.8042C36.8353 86.7339 37.0621 89.404 35.1539 89.496L28.5581 89.9344C26.6553 90.0607 26.4699 87.1398 28.3762 87.0478Z" fill="#FFD7B7"/>
<path fill-rule="evenodd" clip-rule="evenodd" d="M28.6571 90.1184L34.2862 90.0101C36.1944 89.9741 36.2268 92.5648 34.3204 92.6586L28.8407 93.0068C26.9343 93.1277 26.7489 90.1563 28.6571 90.1184Z" fill="#FFD7B7"/>
<path fill-rule="evenodd" clip-rule="evenodd" d="M29.883 93.088L34.054 92.9834C35.9622 92.9365 36.0936 95.6427 34.1854 95.7365L30.0666 95.9746C28.1602 96.0847 27.9748 93.1349 29.883 93.088Z" fill="#FFD7B7"/>
<path fill-rule="evenodd" clip-rule="evenodd" d="M30.7795 80.5059L23.6418 80.8631L21.2079 83.9338L28.477 83.7281C31.748 83.6379 32.531 80.4121 30.7795 80.5059Z" fill="#FFD7B7"/>
<path fill-rule="evenodd" clip-rule="evenodd" d="M15.8902 89.5717C16.45 85.5323 19.8038 81.5577 23.6418 80.8631C25.1359 80.5925 26.2934 83.0931 24.6247 83.9031C23.964 88.2096 21.1899 90.6271 19.4581 91.3325C19.4959 92.0831 16.7741 92.4385 15.8902 89.5717Z" fill="#FFD7B7"/>
<path fill-rule="evenodd" clip-rule="evenodd" d="M9.68496 98.3795C10.4896 90.7535 10.0972 85.2039 9.42394 82.698L3.28532 91.9767L9.68496 98.3795Z" fill="#193F63"/>
<path fill-rule="evenodd" clip-rule="evenodd" d="M0 84.1286L12.5545 83.9717C10.2232 89.4472 10.7003 93.6346 12.7183 97.113L0 97.2736V84.1286Z" fill="#EDF6FF"/>
<path fill-rule="evenodd" clip-rule="evenodd" d="M0 82.8243L9.45274 82.707C7.34293 87.838 7.0135 93.0429 9.64716 98.3687L0 98.4878V82.8243Z" fill="#295B8A"/>
<path fill-rule="evenodd" clip-rule="evenodd" d="M8.59406 95.7816C8.87129 96.6404 9.22052 97.5028 9.64716 98.3669L0 98.4878V95.7816H8.59406Z" fill="#1C4770"/>
<path fill-rule="evenodd" clip-rule="evenodd" d="M8.34744 94.9481H11.7066C11.9766 95.7022 12.3168 96.4221 12.7183 97.1149L9.09992 97.16C8.79389 96.4203 8.54546 95.6824 8.34744 94.9481Z" fill="#E6E6E6"/>
<path fill-rule="evenodd" clip-rule="evenodd" d="M27.7912 84.3812C30.0396 84.2242 30.2628 86.5281 27.9928 86.649C26.7597 86.6977 26.5257 84.4335 27.7912 84.3812Z" fill="#FFF0E3"/>
<path fill-rule="evenodd" clip-rule="evenodd" d="M28.0396 87.4428C30.288 87.2859 30.5112 89.5916 28.2394 89.7106C27.0081 89.7594 26.7723 87.4934 28.0396 87.4428Z" fill="#FFF0E3"/>
<path fill-rule="evenodd" clip-rule="evenodd" d="M28.3618 90.4973C30.6103 90.3403 30.8335 92.646 28.5617 92.7633C27.3303 92.812 27.0963 90.5478 28.3618 90.4973Z" fill="#FFF0E3"/>
<path fill-rule="evenodd" clip-rule="evenodd" d="M29.55 93.4704C31.7984 93.3135 32.0216 95.6191 29.7498 95.7382C28.5185 95.7851 28.2826 93.5209 29.55 93.4704Z" fill="#FFF0E3"/>
<path fill-rule="evenodd" clip-rule="evenodd" d="M28.7687 80.607C28.8281 80.8487 28.9667 81.0201 29.2421 80.9642C29.6472 80.883 30.9685 80.8289 31.1575 80.5583C31.1593 80.5547 31.1611 80.5511 31.1629 80.5475C31.0531 80.5132 30.9253 80.4987 30.7813 80.506L28.7687 80.607Z" fill="#FFF0E3"/>
</g>
<defs>
<clipPath id="clip0_184_2209">
<rect width="144" height="124" fill="white"/>
</clipPath>
</defs>
</svg>
