<svg width="127" height="104" viewBox="0 0 127 104" fill="none" xmlns="http://www.w3.org/2000/svg">
<g clip-path="url(#clip0_373_4853)">
<path d="M99.8797 72.17C99.7997 72.6586 99.6197 73.958 99.6997 74.4361C99.7697 74.8519 100.31 75.9538 100.61 76.1409C101.16 76.4943 101.96 76.4215 102.53 76.1513C102.98 75.933 103.97 74.644 104.16 74.0723C104.3 73.6253 104.31 72.8769 104.35 72.17H99.8797Z" fill="#CCCCCC"/>
<path d="M99.9403 71.6191C99.8603 72.1077 99.6803 73.407 99.7603 73.8956C99.8303 74.3114 100.37 75.4029 100.67 75.6004C101.22 75.9538 102.02 75.8914 102.59 75.6107C103.04 75.3925 104.03 74.1035 104.22 73.5318C104.36 73.0848 104.37 72.3364 104.4 71.6295H99.9403V71.6191Z" fill="white"/>
<path d="M110.848 72.17C110.928 72.6586 111.108 73.958 111.028 74.4361C110.958 74.8519 110.428 75.9538 110.128 76.1409C109.578 76.4943 108.778 76.4215 108.208 76.1513C107.758 75.933 106.768 74.644 106.578 74.0723C106.438 73.6253 106.428 72.8769 106.398 72.17H110.848Z" fill="#CCCCCC"/>
<path d="M110.788 71.6191C110.868 72.1077 111.048 73.407 110.968 73.8956C110.898 74.3114 110.368 75.4029 110.058 75.6004C109.508 75.9538 108.708 75.8914 108.138 75.6107C107.688 75.3925 106.698 74.1035 106.498 73.5318C106.358 73.0848 106.348 72.3364 106.318 71.6295H110.788V71.6191Z" fill="white"/>
<path d="M98.2794 21.6615C97.6694 21.3705 97.0294 21.121 96.4394 20.778C96.1894 20.6324 95.8994 20.4765 95.7094 20.2582C95.5994 20.1231 95.4894 19.9776 95.3794 19.832C95.3494 20.279 95.3394 20.7156 95.3394 21.1626C95.3394 21.7655 95.2794 24.6032 95.2094 25.1438C95.1494 25.5492 95.1094 25.9546 95.0594 26.36C94.7394 27.1812 94.3994 29.0314 94.3894 29.0834C94.2894 29.4992 94.2294 29.9358 94.2394 30.362C94.2394 30.5595 94.3894 37.0666 94.3894 37.0666L96.1294 37.025L97.3794 30.2476C97.5894 29.5304 97.9294 28.3662 97.9194 27.9504C97.9194 27.7841 98.0594 26.2352 98.1194 25.6427C98.1894 24.8839 98.3194 24.1355 98.4694 23.3871C98.5094 23.1688 98.6094 22.6074 98.7394 21.911C98.5894 21.8174 98.4294 21.7447 98.2794 21.6615Z" fill="#FCC8A1"/>
<path d="M95.5283 39.9037L95.5983 39.1865C95.5983 39.1865 95.6183 39.1345 95.6483 39.0514C95.6483 38.9474 95.6683 38.8435 95.6883 38.7291C95.5983 38.7083 95.4983 38.6564 95.4083 38.5836C95.2283 38.4173 95.1183 38.199 94.9883 38.0327C94.9583 37.9911 94.9283 37.9391 94.8883 37.8872C94.8483 37.856 94.8183 37.8248 94.7883 37.7832C94.6383 37.9599 94.4983 38.1366 94.3583 38.3237C94.3183 38.3757 94.2783 38.4277 94.2383 38.4797L94.4683 38.8954C94.4583 39.3944 94.4183 40.5274 94.4183 40.5274L94.8683 41.6085C94.8683 41.6085 94.9683 42.5544 95.1483 42.6584C95.1883 42.6792 95.2883 42.6584 95.3783 42.544C95.5183 42.3777 95.6483 42.0763 95.5983 41.858C95.5483 41.6293 95.4083 41.068 95.4083 41.068L95.5283 39.9037Z" fill="#D5A57E"/>
<path d="M96.249 41.0693C96.399 41.1005 96.569 40.9757 96.619 40.7055C96.659 40.5184 96.709 40.1753 96.709 40.1753L96.839 39.3853C96.769 39.2398 96.399 37.192 96.399 37.192L96.109 36.2565L94.849 36.2461C94.859 36.2773 94.519 37.982 94.939 38.3147C95.379 38.6681 96.069 39.6244 96.069 39.6244C96.069 39.6244 96.039 40.1649 96.019 40.3209C95.929 40.8614 96.079 41.0381 96.249 41.0693Z" fill="#FCC8A1"/>
<path d="M95.379 36.3281L94.949 36.5984L94.399 37.0558L93.459 39.405L94.089 41.4424L95.019 42.565C95.089 42.669 95.219 42.6897 95.309 42.617C95.399 42.5546 95.419 42.4091 95.349 42.3155L94.529 40.5692C94.529 40.5692 94.519 38.3239 95.289 38.667C95.769 38.8749 95.359 36.3593 95.379 36.3281Z" fill="#FCC8A1"/>
<path d="M20.7899 76.5156C20.7099 77.0042 20.5299 78.3035 20.6099 78.7817C20.6799 79.2079 21.2199 80.2889 21.5099 80.4864C22.0599 80.8399 22.8599 80.7775 23.4299 80.4968C23.8799 80.2785 24.8699 79 25.0599 78.4179C25.1999 77.9813 25.2099 77.2225 25.2499 76.5156H20.7899Z" fill="#CCCCCC"/>
<path d="M20.8504 75.9746C20.7704 76.4632 20.5904 77.7625 20.6704 78.2407C20.7404 78.6669 21.2704 79.7479 21.5804 79.9454C22.1304 80.2989 22.9304 80.2365 23.5004 79.9558C23.9504 79.7375 24.9404 78.4486 25.1304 77.8769C25.2804 77.4299 25.2804 76.6815 25.3204 75.9746H20.8504Z" fill="white"/>
<path d="M31.7608 76.5156C31.8408 77.0042 32.0208 78.3035 31.9408 78.7817C31.8708 79.2079 31.3408 80.2889 31.0408 80.4864C30.4908 80.8399 29.6908 80.7775 29.1208 80.4968C28.6708 80.2785 27.6808 79 27.4908 78.4179C27.3408 77.9813 27.3408 77.2225 27.3008 76.5156H31.7608Z" fill="#CCCCCC"/>
<path d="M31.7007 75.9746C31.7807 76.4632 31.9607 77.7625 31.8807 78.2407C31.8107 78.6669 31.2807 79.7479 30.9707 79.9454C30.4207 80.2989 29.6207 80.2365 29.0507 79.9558C28.5907 79.7375 27.6007 78.4486 27.4107 77.8769C27.2707 77.4299 27.2607 76.6815 27.2207 75.9746H31.7007Z" fill="white"/>
<path d="M56.4804 26.3926L56.6704 31.0598L56.5604 40.6646L54.3004 39.8642L53.5104 31.0079L52.4004 26.9123L56.4804 26.3926Z" fill="#FCC8A1"/>
<path d="M54.9 42.7739L54.87 41.9943C54.87 41.9943 54.85 41.9424 54.83 41.8488C54.83 41.7345 54.82 41.6201 54.8 41.4954C54.9 41.4746 55.01 41.433 55.11 41.3499C55.31 41.1939 55.44 40.9549 55.6 40.7885C55.64 40.747 55.68 40.6846 55.71 40.643C55.75 40.6118 55.79 40.5806 55.82 40.5391C55.97 40.7366 56.11 40.9341 56.25 41.142C56.29 41.2043 56.33 41.2667 56.37 41.3291L56.1 41.7656C56.08 42.3062 56.06 43.5224 56.06 43.5224L55.51 44.6554C55.51 44.6554 55.34 45.6741 55.14 45.7676C55.1 45.7884 54.99 45.7573 54.9 45.6325C54.76 45.4454 54.64 45.1128 54.71 44.8737C54.78 44.6242 54.96 44.0421 54.96 44.0421L54.9 42.7739Z" fill="#D5A57E"/>
<path d="M54.0398 43.9813C53.8798 44.0021 53.6998 43.8566 53.6598 43.5655C53.6298 43.3576 53.5998 42.9938 53.5998 42.9938L53.5098 42.131C53.5898 41.9751 54.1298 39.7922 54.1298 39.7922L54.4998 38.8047L55.8598 38.8775C55.8398 38.9086 56.1098 40.7693 55.6298 41.1019C55.1298 41.4554 54.3298 42.4429 54.3298 42.4429C54.3298 42.4429 54.3298 43.025 54.3398 43.2017C54.3998 43.7942 54.2198 43.9605 54.0398 43.9813Z" fill="#FCC8A1"/>
<path d="M55.289 38.918L55.739 39.2402L56.309 39.7703L57.179 42.3794L56.359 44.5416L55.279 45.6954C55.199 45.7993 55.049 45.8201 54.959 45.737C54.869 45.6538 54.849 45.5083 54.929 45.4043L55.919 43.5748C55.919 43.5748 56.069 41.1425 55.209 41.4647C54.699 41.6414 55.299 38.9595 55.289 38.918Z" fill="#FCC8A1"/>
<path d="M37.3099 72.6178C37.2299 73.1583 37.0199 74.6032 37.1099 75.1438C37.1899 75.6115 37.7799 76.8277 38.1199 77.0356C38.7299 77.4202 39.6199 77.3579 40.2599 77.046C40.7599 76.7965 41.8699 75.3724 42.0799 74.728C42.2399 74.229 42.2399 73.3974 42.2799 72.6074L37.3099 72.6178Z" fill="#CCCCCC"/>
<path d="M37.3802 72.0045C37.3002 72.5451 37.0902 73.9899 37.1802 74.5305C37.2602 74.9982 37.8502 76.2144 38.1902 76.4223C38.8002 76.8173 39.6902 76.7446 40.3302 76.4327C40.8302 76.1832 41.9402 74.7592 42.1502 74.1147C42.3102 73.6157 42.3202 72.7841 42.3602 71.9941H37.3802V72.0045Z" fill="#1C1C1F"/>
<path d="M51.2105 72.6178C51.2905 73.1583 51.5005 74.6032 51.4105 75.1438C51.3305 75.6115 50.7405 76.8277 50.4005 77.0356C49.7905 77.4202 48.9005 77.3579 48.2605 77.046C47.7505 76.7965 46.6505 75.3724 46.4405 74.728C46.2805 74.229 46.2705 73.3974 46.2305 72.6074L51.2105 72.6178Z" fill="#CCCCCC"/>
<path d="M51.1499 72.0045C51.2299 72.5451 51.4399 73.9899 51.3499 74.5305C51.2699 74.9982 50.6799 76.2144 50.3399 76.4223C49.7299 76.8173 48.8399 76.7446 48.1999 76.4327C47.6999 76.1832 46.5899 74.7592 46.3799 74.1147C46.2199 73.6157 46.2099 72.7841 46.1699 71.9941H51.1499V72.0045Z" fill="#1C1C1F"/>
<path d="M87.371 21.0801L87.561 25.7473L87.451 35.3521L85.191 34.5517L84.401 25.7058L83.291 21.5998L87.371 21.0801Z" fill="#FCC8A1"/>
<path d="M85.7906 37.4732L85.7606 36.6936C85.7606 36.6936 85.7406 36.6416 85.7206 36.548C85.7306 36.4337 85.7106 36.3193 85.6906 36.1946C85.8006 36.1738 85.9006 36.1322 86.0006 36.0491C86.2006 35.8932 86.3306 35.6541 86.4906 35.4878C86.5306 35.4462 86.5706 35.3942 86.6106 35.3422C86.6506 35.311 86.6906 35.2799 86.7206 35.2383C86.8706 35.4358 87.0106 35.6333 87.1506 35.8516C87.1906 35.9035 87.2306 35.9763 87.2706 36.0283L87.0006 36.4649C86.9806 37.0054 86.9606 38.232 86.9606 38.232L86.4006 39.365C86.4006 39.365 86.2306 40.3837 86.0306 40.4773C85.9906 40.498 85.8806 40.4669 85.7906 40.3421C85.6506 40.155 85.5306 39.8224 85.6006 39.5833C85.6806 39.3338 85.8506 38.7517 85.8506 38.7517L85.7906 37.4732Z" fill="#D5A57E"/>
<path d="M84.9304 38.6786C84.7704 38.6994 84.5904 38.5538 84.5504 38.2628C84.5204 38.0549 84.4904 37.6911 84.4904 37.6911L84.4004 36.8283C84.4804 36.6724 85.0104 34.4895 85.0104 34.4895L85.3804 33.502L86.7404 33.5747C86.7204 33.6059 86.9904 35.4666 86.5104 35.7992C86.0104 36.1526 85.2104 37.1401 85.2104 37.1401C85.2104 37.1401 85.2104 37.7222 85.2204 37.899C85.2904 38.4811 85.1104 38.6578 84.9304 38.6786Z" fill="#FCC8A1"/>
<path d="M86.1807 33.6152L86.6307 33.9375L87.2007 34.4676L88.0707 37.0767L87.2607 39.2388L86.1807 40.3926C86.1007 40.4966 85.9607 40.5174 85.8607 40.4342C85.7607 40.3511 85.7507 40.2055 85.8307 40.1016L86.8207 38.2721C86.8207 38.2721 86.9707 35.8397 86.1107 36.162C85.5907 36.3283 86.1907 33.6464 86.1807 33.6152Z" fill="#FCC8A1"/>
<path d="M68.2005 67.3151C68.1205 67.8556 67.9105 69.3005 68.0005 69.841C68.0805 70.3088 68.6705 71.525 69.0105 71.7329C69.6205 72.1279 70.5105 72.0551 71.1505 71.7433C71.6605 71.4938 72.7605 70.0697 72.9705 69.4252C73.1305 68.9367 73.1405 68.0947 73.1805 67.3047L68.2005 67.3151Z" fill="#CCCCCC"/>
<path d="M68.2696 66.7018C68.1796 67.2423 67.9796 68.6872 68.0696 69.2277C68.1496 69.6955 68.7496 70.9117 69.0796 71.1196C69.6896 71.5146 70.5796 71.4418 71.2196 71.13C71.7196 70.8805 72.8296 69.4564 73.0396 68.8119C73.1996 68.313 73.2096 67.4814 73.2496 66.6914L68.2696 66.7018Z" fill="#1C1C1F"/>
<path d="M82.1009 67.3151C82.1809 67.8556 82.3909 69.3005 82.3009 69.841C82.2209 70.3088 81.6209 71.525 81.2909 71.7329C80.6809 72.1279 79.7909 72.0551 79.1509 71.7433C78.6509 71.4938 77.5409 70.0697 77.3309 69.4252C77.1709 68.9367 77.1709 68.0947 77.1309 67.3047L82.1009 67.3151Z" fill="#CCCCCC"/>
<path d="M82.0406 66.7018C82.1206 67.2423 82.3305 68.6872 82.2405 69.2277C82.1605 69.6955 81.5606 70.9117 81.2306 71.1196C80.6206 71.5146 79.7305 71.4418 79.0905 71.13C78.5905 70.8805 77.4805 69.4564 77.2705 68.8119C77.1105 68.313 77.1005 67.4814 77.0605 66.6914L82.0406 66.7018Z" fill="#1C1C1F"/>
<path d="M62.3499 21.0798L62.1699 25.7471L62.2799 35.3519L64.5399 34.5515L65.3199 25.7055L66.4399 21.5996L62.3499 21.0798Z" fill="#FCC8A1"/>
<path d="M63.9407 37.4732L63.9707 36.6936C63.9707 36.6936 63.9807 36.6416 64.0107 36.548C64.0107 36.4337 64.0207 36.3193 64.0407 36.1946C63.9407 36.1738 63.8307 36.1322 63.7307 36.0491C63.5207 35.8932 63.3907 35.6541 63.2407 35.4878C63.2007 35.4462 63.1607 35.3942 63.1307 35.3422C63.0907 35.311 63.0507 35.2799 63.0207 35.2383C62.8807 35.4358 62.7307 35.6333 62.5907 35.8516C62.5507 35.9035 62.5107 35.9763 62.4707 36.0283L62.7407 36.4649C62.7607 37.0054 62.7807 38.232 62.7807 38.232L63.3407 39.365C63.3407 39.365 63.5107 40.3837 63.7107 40.4773C63.7507 40.498 63.8607 40.4669 63.9507 40.3421C64.0907 40.155 64.2107 39.8224 64.1407 39.5833C64.0707 39.3338 63.8807 38.7517 63.8807 38.7517L63.9407 37.4732Z" fill="#D5A57E"/>
<path d="M63.9407 37.4732L63.9707 36.6936C63.9707 36.6936 63.9807 36.6416 64.0107 36.548C64.0107 36.4337 64.0207 36.3193 64.0407 36.1946C63.9407 36.1738 63.8307 36.1322 63.7307 36.0491C63.5207 35.8932 63.3907 35.6541 63.2407 35.4878C63.2007 35.4462 63.1607 35.3942 63.1307 35.3422C63.0907 35.311 63.0507 35.2799 63.0207 35.2383C62.8807 35.4358 62.7307 35.6333 62.5907 35.8516C62.5507 35.9035 62.5107 35.9763 62.4707 36.0283L62.7407 36.4649C62.7607 37.0054 62.7807 38.232 62.7807 38.232L63.3407 39.365C63.3407 39.365 63.5107 40.3837 63.7107 40.4773C63.7507 40.498 63.8607 40.4669 63.9507 40.3421C64.0907 40.155 64.2107 39.8224 64.1407 39.5833C64.0707 39.3338 63.8807 38.7517 63.8807 38.7517L63.9407 37.4732Z" fill="#D5A57E"/>
<path d="M70.161 27.9508C70.081 24.4685 69.181 21.1526 67.551 18.1797C67.551 19.5622 67.801 22.4104 67.541 25.4145C68.401 26.3188 69.301 27.1816 70.161 27.9508Z" fill="#2579BA"/>
<path d="M64.7899 38.6786C64.9499 38.6994 65.1299 38.5538 65.1699 38.2628C65.1999 38.0549 65.2299 37.6911 65.2299 37.6911L65.3199 36.8283C65.2399 36.6724 64.6999 34.4895 64.6999 34.4895L64.3299 33.502L62.9699 33.5747C62.9899 33.6059 62.7199 35.4666 63.1999 35.7992C63.6999 36.1526 64.4999 37.1401 64.4999 37.1401C64.4999 37.1401 64.4999 37.7222 64.4899 37.899C64.4399 38.4811 64.6099 38.6578 64.7899 38.6786Z" fill="#FCC8A1"/>
<path d="M63.5502 33.6152L63.1002 33.9375L62.5302 34.4676L61.6602 37.0767L62.4702 39.2388L63.5502 40.3926C63.6302 40.4966 63.7702 40.5174 63.8702 40.4342C63.9702 40.3511 63.9802 40.2055 63.9002 40.1016L62.9102 38.2721C62.9102 38.2721 62.7602 35.8397 63.6202 36.162C64.1402 36.3283 63.5302 33.6464 63.5502 33.6152Z" fill="#FCC8A1"/>
<path d="M93.2783 8.78178C93.2783 6.02716 91.0283 3.79227 88.2383 3.77148V13.8025C91.0283 13.7713 93.2783 11.5364 93.2783 8.78178Z" fill="#B15326"/>
<path d="M88.1894 3.76172C85.3794 3.76172 83.1094 6.007 83.1094 8.78241C83.1094 11.5474 85.3894 13.8031 88.1894 13.8031C88.2094 13.8031 88.2194 13.8031 88.2394 13.8031V3.76172C88.2194 3.76172 88.2094 3.76172 88.1894 3.76172Z" fill="#B15326"/>
<path d="M83.6695 24.0742C83.6195 24.2821 83.5695 24.49 83.5195 24.6979C83.5995 24.5004 83.6395 24.2925 83.6695 24.0742Z" fill="#FCC8A1"/>
<path d="M82.7287 25.5612C82.7687 25.4677 82.7987 25.3637 82.8187 25.2598C82.7687 25.3221 82.7087 25.3533 82.6387 25.3637C82.6687 25.4261 82.6987 25.4988 82.7287 25.5612Z" fill="#FCC8A1"/>
<path d="M83.6391 17.4629C82.5191 17.3277 81.2991 17.8475 80.4491 18.5647C80.0091 18.9285 79.6691 19.3859 79.3991 19.9056C79.3791 19.9368 79.3691 19.968 79.3491 19.9992C79.0791 20.4773 78.8791 21.0179 78.7291 21.5272C78.4191 22.5251 78.2791 24.6872 78.2791 24.7184C78.0691 25.7787 78.009 26.8598 78.019 27.9408C78.019 28.5437 77.9591 31.3815 77.8891 31.922C77.8291 32.3274 77.7891 32.7328 77.7391 33.1382C77.4191 33.9594 77.0791 35.8097 77.0691 35.8617C76.9691 36.2774 76.9091 36.714 76.9191 37.1402C76.9191 37.3377 77.0691 43.8449 77.0691 43.8449L78.8091 43.7929L80.0591 37.0155C80.2691 36.3086 80.6091 35.134 80.6091 34.7182C80.6091 34.5519 80.7491 33.0031 80.8091 32.4106C80.8791 31.6518 81.0091 30.8929 81.1591 30.1549C81.2991 29.4481 82.0591 25.103 82.2091 24.3962C82.2091 24.3962 82.2391 24.5833 82.2791 24.8328C82.3191 24.8224 82.3791 24.8224 82.3991 24.8536C82.6391 24.4066 82.8891 23.97 83.1191 23.523C83.2391 23.2112 83.3391 22.8889 83.4391 22.5667C83.3491 22.286 83.2291 22.0158 83.0991 21.7559C83.0891 21.7559 83.0791 21.7455 83.0691 21.7455C82.3091 21.5064 81.9391 20.6541 81.7391 19.916C81.6791 19.6769 81.6391 19.3339 81.4591 19.1572C81.4491 19.1468 81.4391 19.1364 81.4291 19.126C81.6691 18.9909 81.929 18.8869 82.199 18.8142C82.689 18.679 83.1591 18.679 83.6491 18.6479C84.2991 18.6063 84.2691 17.546 83.6391 17.4629Z" fill="#FCC8A1"/>
<path d="M78.1984 46.6726L78.2684 45.9554C78.2684 45.9554 78.2884 45.9034 78.3184 45.8203C78.3184 45.7163 78.3384 45.6124 78.3584 45.498C78.2684 45.4772 78.1684 45.4357 78.0784 45.3525C77.8984 45.1966 77.7884 44.9679 77.6484 44.8016C77.6084 44.76 77.5884 44.708 77.5484 44.6665C77.5084 44.6353 77.4784 44.6041 77.4484 44.5625C77.3084 44.7392 77.1584 44.9159 77.0184 45.103C76.9784 45.155 76.9384 45.207 76.8984 45.259L77.1284 45.6747C77.1184 46.1737 77.0784 47.3067 77.0784 47.3067L77.5284 48.3878C77.5284 48.3878 77.6384 49.3337 77.8084 49.4377C77.8484 49.4585 77.9484 49.4377 78.0384 49.3233C78.1784 49.157 78.3084 48.8556 78.2584 48.6373C78.1984 48.4086 78.0684 47.8473 78.0684 47.8473L78.1984 46.6726Z" fill="#D5A57E"/>
<path d="M78.9186 47.8251C79.0686 47.8459 79.2386 47.7316 79.2886 47.4613C79.3286 47.2742 79.3786 46.9312 79.3786 46.9312L79.5086 46.1412C79.4486 45.9957 79.0686 43.9479 79.0686 43.9479L78.7786 43.0124L77.5186 43.002C77.5286 43.0331 77.1886 44.7275 77.6186 45.0705C78.0586 45.4239 78.7486 46.3803 78.7486 46.3803C78.7486 46.3803 78.7186 46.9104 78.6986 47.0767C78.6086 47.6276 78.7586 47.794 78.9186 47.8251Z" fill="#FCC8A1"/>
<path d="M78.0489 43.0957L77.6189 43.366L77.0689 43.8129L76.1289 46.1622L76.7589 48.1996L77.6889 49.3222C77.7589 49.4157 77.8889 49.4469 77.9789 49.3742C78.0689 49.3014 78.0889 49.1663 78.0189 49.0727L77.1989 47.3264C77.1989 47.3264 77.1889 45.0811 77.9589 45.4241C78.4389 45.632 78.0289 43.1269 78.0489 43.0957Z" fill="#FCC8A1"/>
<path d="M99.6283 35.8499C99.6183 35.798 99.2783 33.9477 98.9583 33.1265C98.9083 32.7211 98.8583 32.3157 98.8083 31.9103C98.7383 31.3698 98.6783 28.532 98.6783 27.9291C98.6783 26.8584 98.6283 25.767 98.4083 24.7067C98.4083 24.6651 98.2683 22.5134 97.9583 21.5155C97.8083 21.0062 97.5983 20.4656 97.3383 19.9875C97.3183 19.9563 97.3083 19.9251 97.2883 19.8939C97.0183 19.3846 96.6783 18.9272 96.2383 18.553C95.3783 17.8357 94.1683 17.316 93.0483 17.4511C92.4183 17.5343 92.3883 18.5946 93.0483 18.6257C93.5483 18.6465 94.0183 18.6569 94.4983 18.7921C94.7583 18.8648 95.0183 18.9688 95.2683 19.1039C95.2583 19.1143 95.2483 19.1247 95.2383 19.1351C95.0583 19.3222 95.0183 19.6548 94.9583 19.8939C94.7583 20.6319 94.3883 21.4843 93.6283 21.7234C93.6183 21.7234 93.6083 21.7338 93.5983 21.7338C93.3683 22.212 93.1783 22.7213 93.0583 23.2618C92.8383 24.3117 94.4983 24.3637 94.4983 24.3741C94.6483 25.0809 95.4083 29.4259 95.5483 30.1328C95.6983 30.8812 95.8283 31.6296 95.8983 32.3885C95.9583 32.981 96.0983 34.5298 96.0983 34.6961C96.0983 35.1119 96.4383 36.2761 96.6383 36.9934L97.8983 43.7708L99.6383 43.8227C99.6383 43.8227 99.7883 37.3156 99.7883 37.1181C99.7983 36.6919 99.7383 36.2657 99.6283 35.8499Z" fill="#FCC8A1"/>
<path d="M98.4981 46.6709L98.4281 45.9537C98.4281 45.9537 98.4081 45.9017 98.3781 45.8186C98.3781 45.7146 98.3581 45.6107 98.3281 45.4963C98.4281 45.4755 98.5181 45.434 98.6081 45.3508C98.7881 45.1949 98.8981 44.9662 99.0281 44.7999C99.0681 44.7583 99.0981 44.7063 99.1281 44.6647C99.1681 44.6336 99.1981 44.6024 99.2281 44.5608C99.3681 44.7375 99.5181 44.9142 99.6581 45.1013C99.6981 45.1533 99.7381 45.2053 99.7781 45.2572L99.5481 45.673C99.5581 46.172 99.6081 47.305 99.6081 47.305L99.1581 48.3861C99.1581 48.3861 99.0581 49.332 98.8781 49.436C98.8381 49.4567 98.7481 49.436 98.6481 49.3216C98.5081 49.1553 98.3781 48.8538 98.4281 48.6356C98.4881 48.4069 98.6181 47.8455 98.6181 47.8455L98.4981 46.6709Z" fill="#D5A57E"/>
<path d="M97.7775 47.8251C97.6375 47.8459 97.4575 47.7316 97.4075 47.4613C97.3675 47.2742 97.3175 46.9312 97.3175 46.9312L97.1875 46.1412C97.2475 45.9957 97.6275 43.9479 97.6275 43.9479L97.9175 43.0124L99.1775 43.002C99.1675 43.0331 99.5075 44.7275 99.0775 45.0705C98.6375 45.4239 97.9575 46.3803 97.9575 46.3803C97.9575 46.3803 97.9875 46.9104 98.0175 47.0767C98.0875 47.6276 97.9375 47.794 97.7775 47.8251Z" fill="#FCC8A1"/>
<path d="M98.6478 43.0957L99.0778 43.366L99.6278 43.8129L100.568 46.1622L99.9278 48.1996L98.9978 49.3222C98.9278 49.4157 98.7978 49.4469 98.7078 49.3742C98.6178 49.3014 98.5978 49.1663 98.6678 49.0727L99.4778 47.3264C99.4778 47.3264 99.4878 45.0811 98.7178 45.4241C98.2478 45.632 98.6678 43.1269 98.6478 43.0957Z" fill="#FCC8A1"/>
<path d="M92.7793 76.4634C92.7793 75.5486 93.3393 71.7545 93.7993 67.0977H89.2793C89.7693 71.5882 90.3293 75.2576 90.3093 76.2555C90.2893 77.1702 90.1193 77.2326 90.0493 77.5548C89.9593 77.9914 90.2793 79.3323 90.2793 79.3323L92.0193 80.8396C92.0193 80.8396 93.1093 78.4904 93.0193 77.981C92.8993 77.3677 92.7793 76.6401 92.7793 76.4634Z" fill="#FCC8A1"/>
<path d="M94.0302 54.291C94.1902 52.3783 94.5402 50.6424 94.1802 49.1975C92.8402 49.6445 89.7902 49.447 88.4602 49C88.0902 50.4865 88.6502 52.3159 88.9402 54.2806L94.0302 54.291Z" fill="#17283D"/>
<path d="M88.8496 61.733C88.8696 62.5958 88.9196 63.4482 88.9996 64.311C89.1096 65.5064 89.2296 66.6706 89.3496 67.7828H93.7296C93.8496 66.6186 93.9696 65.392 94.0696 64.1342C94.1296 63.3442 94.1596 62.5335 94.1696 61.7227H88.8496V61.733Z" fill="#17283D"/>
<path d="M89.2891 81.4113L89.3191 81.9726L90.4791 82.9082L91.9991 82.9705C91.9991 82.9705 92.9791 82.3469 93.3091 82.0558L93.3391 81.6504L93.0891 80.3615L89.2891 81.4113Z" fill="#E0E1E0"/>
<path d="M92.9493 78.324C92.3593 77.5964 91.7593 78.719 91.1393 78.5527C90.7993 78.4592 90.3893 77.981 90.1193 78.1785C89.8993 78.3344 89.8093 78.7814 89.8093 78.7814L89.2793 81.4113C89.2793 81.4113 90.2793 82.2844 90.2893 82.2844C90.2993 82.2844 91.8193 82.3676 91.8193 82.3676C91.8193 82.3676 93.1093 81.8167 93.3193 81.6608L93.2193 78.8957L92.9493 78.324Z" fill="#EF4645"/>
<path d="M92.591 79.7695C92.591 80.5699 92.081 81.2247 91.441 81.2247C90.801 81.2247 90.291 80.5803 90.291 79.7695V79.0314C90.291 78.231 90.811 77.5762 91.441 77.5762C92.081 77.5762 92.591 78.231 92.591 79.0314V79.7695Z" fill="#CC2327"/>
<path d="M93.0193 77.2844C92.6593 77.1389 92.2593 77.6171 92.0593 77.8562C91.9293 78.0121 91.6993 78.3031 91.5993 78.5838C91.4793 78.3343 91.2793 78.0952 91.1393 77.9289C90.8693 77.6171 90.4393 77.1597 89.9993 77.1701C89.4693 77.1909 89.5293 77.9393 89.6293 78.3031C89.7193 78.615 89.9693 78.8333 90.2393 78.9788C90.6193 79.1659 91.1493 79.3114 91.5693 79.3322C91.6393 79.3322 91.6793 79.301 91.7093 79.2491C92.2493 79.2179 92.7493 78.906 93.0793 78.4591C93.3093 78.1576 93.4693 77.4612 93.0193 77.2844ZM89.8993 78.2616C89.7793 77.9913 89.7393 77.3156 90.1893 77.4923C90.5393 77.6275 90.8193 77.9601 91.0493 78.2408C91.2293 78.4591 91.4293 78.7293 91.5093 79.0204C91.1893 78.9892 90.8893 78.8852 90.5693 78.7917C90.2693 78.7085 90.0293 78.563 89.8993 78.2616ZM92.9193 78.3239C92.6793 78.6566 92.1493 79.0412 91.7193 78.958C91.7193 78.9476 91.7193 78.9476 91.7193 78.9476C91.9593 78.3967 92.2293 77.7834 92.7893 77.5131C92.9293 77.4508 93.0293 77.5027 93.0893 77.6379C93.1793 77.8769 93.0493 78.1368 92.9193 78.3239Z" fill="#E0E1E0"/>
<path d="M85.9587 76.2555C85.9387 75.2576 86.4987 71.5882 86.9887 67.0977H82.4688C82.9288 71.7545 83.4887 75.5486 83.4887 76.4634C83.4887 76.6401 83.3687 77.3677 83.2487 77.981C83.1587 78.4904 84.2487 80.8396 84.2487 80.8396L85.9887 79.3323C85.9887 79.3323 86.3187 77.9914 86.2188 77.5548C86.1388 77.2326 85.9687 77.1702 85.9587 76.2555Z" fill="#FCC8A1"/>
<path d="M87.2596 64.3122C87.1496 65.5076 87.0296 66.6718 86.9096 67.784H82.5296C82.4096 66.6198 82.2896 65.3932 82.1896 64.1355C81.9896 61.6927 82.1196 59.1564 82.2796 56.6928C82.4696 53.8342 81.5796 51.2147 82.0896 49.1877C83.4196 49.6347 86.4796 49.4372 87.8096 48.9902C88.3496 51.1316 86.9196 54.0109 87.2096 56.963C87.4796 59.7073 87.4796 61.9422 87.2596 64.3122Z" fill="#17283D"/>
<path d="M88.9992 64.3122C89.1092 65.5076 89.2292 66.6718 89.3492 67.784H93.7292C93.8492 66.6198 93.9692 65.3932 94.0692 64.1355C94.2692 61.6927 94.1392 59.1564 93.9792 56.6928C93.7892 53.8342 94.6892 51.2147 94.1692 49.1877C92.8292 49.6347 89.7792 49.4372 88.4492 48.9902C87.9092 51.1316 89.3392 54.0109 89.0492 56.963C88.7792 59.7073 88.7792 61.9422 88.9992 64.3122Z" fill="#24292D"/>
<path d="M87.2596 64.3122C87.1496 65.5076 87.0296 66.6718 86.9096 67.784H82.5296C82.4096 66.6198 82.2896 65.3932 82.1896 64.1355C81.9896 61.6927 82.1196 59.1564 82.2796 56.6928C82.4696 53.8342 81.5796 51.2147 82.0896 49.1877C83.4196 49.6347 86.4796 49.4372 87.8096 48.9902C88.3496 51.1316 86.9196 54.0109 87.2096 56.963C87.4796 59.7073 87.4796 61.9422 87.2596 64.3122Z" fill="#17283D"/>
<path d="M94.0302 54.291C94.2002 52.3783 94.5402 50.6424 94.1802 49.1975C92.8402 49.6445 89.7902 49.447 88.4602 49C88.0902 50.4865 88.6502 52.3159 88.9402 54.2806L94.0302 54.291Z" fill="#16202E"/>
<path d="M94.0302 54.291C94.2002 52.3783 94.5402 50.6424 94.1802 49.1975C92.8402 49.6445 89.7902 49.447 88.4602 49C88.0902 50.4865 88.6502 52.3159 88.9402 54.2806L94.0302 54.291Z" fill="#16202E"/>
<path d="M87.3291 54.2923C87.6191 52.3277 88.1891 50.4982 87.8091 49.0117C86.4791 49.4587 83.4191 49.6562 82.0891 49.2092C81.7291 50.6437 82.0691 52.3796 82.2291 54.3027L87.3291 54.2923Z" fill="#16202E"/>
<path d="M86.9795 81.4113L86.9494 81.9726L85.7895 82.9082L84.2794 82.9705C84.2794 82.9705 83.2995 82.3469 82.9695 82.0558L82.9395 81.6504L83.1895 80.3615L86.9795 81.4113Z" fill="#E0E1E0"/>
<path d="M83.3097 78.324C83.8997 77.5964 84.4997 78.719 85.1197 78.5527C85.4697 78.4592 85.8697 77.981 86.1497 78.1785C86.3697 78.3344 86.4497 78.7814 86.4497 78.7814L86.9797 81.4113C86.9797 81.4113 85.9797 82.2844 85.9597 82.2844C85.9497 82.2844 84.4297 82.3676 84.4297 82.3676C84.4297 82.3676 83.1397 81.8167 82.9297 81.6608L83.0297 78.8957L83.3097 78.324Z" fill="#EF4645"/>
<path d="M83.6699 79.7695C83.6699 80.5699 84.1899 81.2247 84.8299 81.2247C85.4699 81.2247 85.9799 80.5803 85.9799 79.7695V79.0314C85.9799 78.231 85.4599 77.5762 84.8299 77.5762C84.1899 77.5762 83.6699 78.231 83.6699 79.0314V79.7695Z" fill="#CC2327"/>
<path d="M83.169 78.4591C83.499 78.906 83.989 79.2179 84.539 79.2491C84.569 79.301 84.609 79.3322 84.679 79.3322C85.109 79.3114 85.629 79.1763 86.009 78.9788C86.279 78.8437 86.529 78.6254 86.619 78.3031C86.719 77.9497 86.779 77.1909 86.249 77.1701C85.809 77.1597 85.379 77.6067 85.109 77.9289C84.969 78.0952 84.779 78.3343 84.649 78.5838C84.539 78.3031 84.309 78.0121 84.189 77.8562C83.989 77.6171 83.589 77.1389 83.239 77.2844C82.789 77.4612 82.959 78.1576 83.169 78.4591ZM85.689 78.7917C85.379 78.8852 85.069 78.9892 84.759 79.0204C84.839 78.7293 85.039 78.4591 85.219 78.2408C85.449 77.9497 85.729 77.6171 86.079 77.4923C86.519 77.3156 86.479 78.0017 86.359 78.2616C86.229 78.563 85.989 78.7085 85.689 78.7917ZM83.179 77.6379C83.239 77.4923 83.339 77.4404 83.479 77.5131C84.029 77.7834 84.309 78.3967 84.549 78.9476C84.549 78.958 84.549 78.958 84.549 78.958C84.119 79.0412 83.589 78.6566 83.349 78.3239C83.219 78.1368 83.079 77.877 83.179 77.6379Z" fill="#E0E1E0"/>
<path d="M93.1784 9.32293H90.7084L90.7484 9.02148L83.1984 9.32293C80.7084 22.6803 83.5284 22.8362 87.3784 22.8362C87.4984 22.8362 88.5384 22.8258 88.6584 22.8154C88.7684 22.8154 88.8784 22.8362 89.0084 22.8362C92.8484 22.8466 95.6784 22.6803 93.1784 9.32293Z" fill="#3C2D23"/>
<path d="M90.4096 16.1009C90.4396 16.34 90.4796 16.5895 90.5396 16.8701H85.8496C85.9096 16.5999 85.9496 16.34 85.9796 16.1009C86.0496 15.602 86.0796 15.1758 86.0796 14.7392C86.0796 14.7288 86.0796 14.7184 86.0796 14.708C86.0796 14.0947 85.9996 13.4814 85.8496 12.6914H90.5396C90.4596 13.1176 90.3996 13.4918 90.3696 13.8348C90.2796 14.6248 90.2896 15.2797 90.4096 16.1009Z" fill="#D5A57E"/>
<path d="M93.2894 18.1593C93.2894 19.417 91.0094 20.4357 88.1994 20.4357C85.3894 20.4357 83.1094 19.417 83.1094 18.1593C83.1094 17.2549 84.2794 16.4753 85.9894 16.1115C86.4194 16.0179 86.8894 15.9452 87.3794 15.914C87.6494 15.8932 87.9194 15.8828 88.1994 15.8828C88.9994 15.8828 89.7494 15.9556 90.4194 16.1115C90.8194 16.1947 91.1994 16.309 91.5294 16.4441C92.6094 16.8495 93.2894 17.4732 93.2894 18.1593Z" fill="#D5A57E"/>
<path opacity="0.3" d="M91.5588 18.7709C91.0588 18.8125 89.7388 17.8665 88.5188 16.879C88.1088 16.5568 87.7188 16.2138 87.3688 15.9123C86.6988 15.3302 86.1888 14.8624 86.0788 14.7481C86.0588 14.7377 86.0488 14.7273 86.0488 14.7169C86.0488 14.7169 86.0588 14.7169 86.0788 14.7169C86.3788 14.6442 89.4088 13.9269 90.3688 13.8438C90.2788 14.6338 90.2988 15.2782 90.4188 16.1098C90.8188 16.193 91.1988 16.3073 91.5288 16.4425C91.8588 17.5963 92.0588 18.7189 91.5588 18.7709Z" fill="#A88F7C"/>
<path d="M91.628 10.8831C91.628 13.4506 90.088 15.54 88.188 15.54C86.288 15.54 84.748 13.461 84.748 10.8831C84.748 8.30517 84.948 5.42581 88.188 5.42581C91.628 5.41541 91.628 8.30517 91.628 10.8831Z" fill="#FCC8A1"/>
<path d="M88.188 5.41406C87.428 5.41406 86.838 5.56998 86.368 5.85064C86.428 7.01486 86.898 8.12711 87.808 8.69882C88.738 9.29132 89.658 9.55119 90.278 10.4867C90.818 11.2559 90.588 12.3578 90.128 13.127C90.118 13.1374 90.108 13.1478 90.098 13.1686C89.858 13.7819 89.368 14.364 88.968 14.6758C88.088 15.3515 87.158 15.0604 86.258 14.6862C86.228 14.6758 86.198 14.6654 86.168 14.655C86.738 15.2164 87.428 15.5386 88.188 15.5386C90.088 15.5386 91.628 13.4596 91.628 10.8817C91.628 8.30382 91.628 5.41406 88.188 5.41406Z" fill="#F0B990"/>
<path d="M85.1298 10.3528C85.2498 10.8829 85.1098 11.3715 84.8298 11.4442C84.5398 11.5066 84.2198 11.1324 84.0998 10.6023C83.9798 10.0721 84.1198 9.57317 84.3998 9.5108C84.6798 9.43804 85.0098 9.82264 85.1298 10.3528Z" fill="#FCC8A1"/>
<path d="M88.4584 4.83188C86.8084 6.56781 85.8184 6.69255 86.8784 7.32663C87.7384 7.84637 90.0284 8.87546 91.6584 10.9232C91.8684 11.1935 92.2384 7.60729 91.3084 6.07925C90.3684 4.56161 88.9184 4.35372 88.4584 4.83188Z" fill="#B15326"/>
<path d="M95.4492 37.0143C94.8592 34.2285 93.5492 32.503 93.6392 29.5821C93.6792 28.2411 93.6792 26.7651 93.9592 25.9647C94.0892 25.6009 94.3392 25.3514 94.3392 25.3514C94.3392 25.3514 95.5792 19.9669 95.3892 18.1582C95.2492 16.89 91.3092 16.2871 91.3092 16.2871C91.3092 16.2871 91.2292 18.9586 90.6192 19.5511C90.1192 20.0188 89.2392 20.2579 88.3392 20.2683C87.4392 20.2579 86.5492 20.0188 86.0592 19.5511C85.4392 18.969 85.3592 16.2871 85.3592 16.2871C85.3592 16.2871 81.4092 16.89 81.2792 18.1582C81.0892 19.9669 82.3192 25.3514 82.3192 25.3514C82.3192 25.3514 82.5692 25.6009 82.6992 25.9647C82.9792 26.7547 82.9692 28.2411 83.0092 29.5821C83.1092 32.503 81.7992 34.2285 81.1992 37.0143C79.4092 41.8583 80.8992 51.0369 80.8392 52.908H88.3192H95.7992C95.7492 51.0369 97.2392 41.8583 95.4492 37.0143Z" fill="#44B75E"/>
<path d="M95.4487 37.0139C94.8587 34.2281 93.5487 32.5025 93.6387 29.5816C93.6787 28.2406 93.6787 26.7646 93.9587 25.9642C94.0887 25.6004 94.3387 25.3509 94.3387 25.3509C94.3387 25.3509 95.5787 19.9664 95.3887 18.1577C95.3487 17.8251 95.0587 17.534 94.6387 17.2949C94.4887 20.3094 94.2987 23.3655 92.9587 26.0681C92.2187 27.6066 90.3387 27.4299 88.7787 27.856C88.2087 28.0224 86.3787 28.1471 86.7887 28.3966C87.8487 29.2489 89.5987 28.3654 90.6687 29.4672C94.8487 33.9786 93.6188 40.8703 91.9788 46.3172C91.4888 48.1883 89.8487 49.6332 88.1287 50.3192C85.7987 51.3275 83.2687 51.0572 80.7188 50.8182C80.7987 51.7641 80.8587 52.5021 80.8487 52.8971H88.3288H95.8087C95.7487 51.0365 97.2387 41.8578 95.4487 37.0139Z" fill="#369B4F"/>
<path d="M88.5887 6.00623C88.5487 5.4553 87.9487 5.24741 87.5387 5.03951C87.1687 4.84201 86.7287 4.75885 86.3087 4.74846C85.6587 4.73806 85.0287 4.92517 84.5187 5.36175C83.6087 6.15175 83.3087 7.4615 82.9787 8.58414C82.4387 10.4448 82.2387 12.4198 82.0987 14.3429C82.0687 14.821 82.0187 15.2992 81.9387 15.7669C81.8587 16.2243 81.7587 16.6817 81.7487 17.1495C81.7387 17.4405 81.7587 17.7524 81.7887 18.0538C81.7687 18.376 81.7787 18.6983 81.8087 18.9893C81.8587 19.5922 81.9787 20.2055 82.1987 20.7668C82.6787 22.0558 83.9087 22.3469 85.0187 22.7938C85.3187 22.9186 86.0387 22.2845 85.9987 22.0558C85.9087 21.5569 85.7287 21.0891 85.6087 20.5901C85.4887 20.0496 85.3787 19.4987 85.2887 18.9478C85.0887 17.8563 84.9587 16.7441 84.8187 15.6422C84.6787 14.5508 84.5787 13.4385 84.6787 12.3367C84.7287 11.7857 84.8587 11.2556 85.0187 10.7359C85.0987 10.4864 85.1887 10.2473 85.2787 10.0082C85.2987 9.96665 85.3187 9.91467 85.3387 9.87309C85.3487 9.91467 85.3687 9.95625 85.3787 9.99783C85.4387 10.1849 85.6987 10.1953 85.7987 10.0498C86.2287 9.42612 86.2787 8.62572 86.7587 8.02282C87.0687 7.63821 87.4587 7.14966 87.9087 6.869C87.9687 6.8586 88.0287 6.83781 88.0887 6.80663C88.1087 6.79623 88.1287 6.78584 88.1487 6.77544C88.1887 6.75465 88.2287 6.72347 88.2687 6.70268C88.2887 6.69228 88.3087 6.69228 88.3287 6.68189C88.4087 6.6611 88.4487 6.58834 88.4387 6.52597C88.5487 6.38044 88.5987 6.21412 88.5887 6.00623Z" fill="#B15326"/>
<path d="M94.6388 17.1398C94.6288 16.672 94.5388 16.2147 94.4488 15.7573C94.3588 15.2895 94.3188 14.8114 94.2888 14.3332C94.1588 12.4102 93.9588 10.4352 93.4088 8.57449C93.0788 7.45186 92.7788 6.14211 91.8688 5.35211C91.3688 4.91552 90.7288 4.72842 90.0788 4.73881C89.6588 4.74921 89.2288 4.83237 88.8488 5.02987C88.4388 5.24816 87.8388 5.44566 87.7988 5.99658C87.7988 6.05895 87.7988 6.11093 87.7988 6.1629C87.8988 6.23566 87.9888 6.29803 88.0688 6.3604C88.3488 6.5683 88.6388 6.72422 88.9388 6.88014C89.5688 7.21278 90.2188 7.61817 90.7188 8.1587C91.1288 8.59528 91.4888 9.17739 91.5788 9.79069C91.6388 10.2065 91.6788 11.9736 91.7088 12.3478C91.7988 13.4497 91.7088 14.5619 91.5688 15.6534C91.4288 16.7552 91.2988 17.8674 91.0988 18.9589C90.9988 19.5098 90.8888 20.0504 90.7688 20.6013C90.6588 21.1002 90.4788 21.568 90.3888 22.0669C90.3488 22.2956 91.0688 22.9297 91.3688 22.805C92.4788 22.358 93.6988 22.0669 94.1888 20.778C94.3988 20.2167 94.5288 19.593 94.5788 19.0005C94.5988 18.699 94.6188 18.3768 94.5988 18.0649C94.6288 17.7427 94.6388 17.4309 94.6388 17.1398Z" fill="#B15326"/>
<path d="M74.5099 29.8125L74.6899 34.4798L74.5799 44.0846L72.3199 43.2842L71.5399 34.4278L70.4199 30.3322L74.5099 29.8125Z" fill="#FCC8A1"/>
<path d="M72.9217 46.1939L72.8917 45.4143C72.8917 45.4143 72.8817 45.3623 72.8517 45.2687C72.8517 45.1544 72.8417 45.04 72.8217 44.9153C72.9217 44.9049 73.0317 44.8529 73.1317 44.7698C73.3317 44.6139 73.4717 44.3748 73.6217 44.2085C73.6617 44.1669 73.6917 44.1149 73.7317 44.0629C73.7717 44.0317 73.8117 44.0006 73.8417 43.959C73.9917 44.1565 74.1317 44.354 74.2717 44.5723C74.3117 44.6243 74.3517 44.697 74.3917 44.749L74.1217 45.1856C74.1017 45.7261 74.0817 46.9527 74.0817 46.9527L73.5217 48.0857C73.5217 48.0857 73.3517 49.1044 73.1517 49.198C73.1117 49.2188 73.0117 49.1876 72.9117 49.0628C72.7717 48.8757 72.6517 48.5431 72.7217 48.304C72.7917 48.0545 72.9717 47.4724 72.9717 47.4724L72.9217 46.1939Z" fill="#D5A57E"/>
<path d="M72.071 47.4012C71.911 47.422 71.731 47.2765 71.691 46.9854C71.661 46.7775 71.631 46.4137 71.631 46.4137L71.541 45.5509C71.621 45.395 72.161 43.2121 72.161 43.2121L72.531 42.2246L73.891 42.2974C73.881 42.3286 74.141 44.1892 73.661 44.5219C73.161 44.8753 72.361 45.8628 72.361 45.8628C72.361 45.8628 72.361 46.4449 72.371 46.6216C72.431 47.2141 72.251 47.3804 72.071 47.4012Z" fill="#FCC8A1"/>
<path d="M73.31 42.3379L73.7501 42.6601L74.32 43.1903L75.1901 45.7994L74.3701 47.9615L73.2901 49.1153C73.2101 49.2193 73.0701 49.24 72.9701 49.1569C72.8701 49.0841 72.8601 48.9282 72.9401 48.8242L73.9301 46.9948C73.9301 46.9948 74.0801 44.5624 73.2201 44.8846C72.7201 45.0613 73.33 42.3795 73.31 42.3379Z" fill="#FCC8A1"/>
<path d="M55.1517 76.0377C55.0717 76.5783 54.8617 78.0231 54.9517 78.5637C55.0317 79.0314 55.6317 80.2476 55.9617 80.4555C56.5717 80.8505 57.4617 80.7778 58.1017 80.4659C58.6017 80.2165 59.7117 78.7924 59.9217 78.1479C60.0817 77.6489 60.0917 76.8173 60.1317 76.0273L55.1517 76.0377Z" fill="#CCCCCC"/>
<path d="M55.2217 75.4245C55.1417 75.965 54.9217 77.4099 55.0217 77.9504C55.1017 78.4182 55.7017 79.6343 56.0317 79.8422C56.6417 80.2269 57.5317 80.1645 58.1717 79.8526C58.6817 79.6136 59.7817 78.1791 59.9917 77.5346C60.1517 77.0356 60.1517 76.2041 60.1917 75.4141H55.2217V75.4245Z" fill="#26262F"/>
<path d="M53.791 43.6484C53.811 44.0434 53.861 44.4488 53.891 44.8438C54.011 46.7253 54.051 48.6068 54.171 50.4778C54.291 52.3177 54.361 54.1576 54.591 55.9871C54.621 56.2573 54.661 56.5276 54.701 56.7979L54.861 59.3862L54.871 60.5712C54.831 60.7167 54.801 60.8622 54.771 60.9974C54.531 62.0161 54.501 63.1387 54.461 64.1782C54.351 66.7873 54.391 69.4172 54.561 72.0262C54.601 72.7019 54.661 73.3776 54.741 74.0532C54.791 74.4794 54.981 75.9867 54.981 75.9867C54.981 75.9867 60.601 76.2777 60.761 76.0386C61.011 75.654 61.011 74.8017 61.041 74.3547C61.081 73.6582 61.111 72.9722 61.121 72.2757C61.131 70.8308 61.261 69.386 61.271 67.9411C61.281 66.5378 61.241 65.1345 61.211 63.7312C61.201 63.0451 61.131 62.3487 61.101 61.6626C61.091 61.3196 61.101 60.9142 61.051 60.54L61.101 59.6564L61.361 54.854C61.591 53.3676 61.711 47.1099 62.071 45.5299C62.221 44.8958 62.441 44.2721 62.611 43.6484H53.791Z" fill="#17283D"/>
<path d="M69.4312 76.0394C69.5112 76.58 69.7212 78.0249 69.6312 78.5654C69.5512 79.0332 68.9612 80.2493 68.6212 80.4572C68.0112 80.8522 67.1212 80.7795 66.4812 80.4676C65.9712 80.2182 64.8712 78.7941 64.6612 78.1496C64.5012 77.6506 64.5012 76.8191 64.4512 76.0291L69.4312 76.0394Z" fill="#CCCCCC"/>
<path d="M69.3706 75.4264C69.4506 75.9669 69.6606 77.4118 69.5706 77.9523C69.4906 78.4201 68.8906 79.6363 68.5606 79.8442C67.9506 80.2288 67.0606 80.1664 66.4206 79.8546C65.9206 79.6155 64.8106 78.181 64.6006 77.5365C64.4406 77.0376 64.4306 76.206 64.3906 75.416H69.3706V75.4264Z" fill="#26262F"/>
<path d="M62.0312 43.7324C62.2013 44.3353 62.4013 44.9174 62.5513 45.5307C62.9113 47.1107 63.0312 53.3684 63.2612 54.8549L63.5213 59.6573L63.5713 60.5408C63.5213 60.915 63.5413 61.3204 63.5213 61.6635C63.4913 62.3495 63.4213 63.046 63.4113 63.732C63.3813 65.1353 63.3412 66.5386 63.3512 67.9419C63.3612 69.3868 63.4913 70.8317 63.5013 72.2765C63.5013 72.9834 63.5313 73.6591 63.5813 74.3555C63.6113 74.8025 63.6013 75.6549 63.8613 76.0395C64.0213 76.2785 69.6312 75.9875 69.6312 75.9875C69.6312 75.9875 69.8213 74.4699 69.8713 74.0541C69.9513 73.3784 70.0113 72.7027 70.0513 72.0271C70.2113 69.418 70.2513 66.7881 70.1513 64.179C70.1113 63.1291 70.0812 62.0169 69.8412 60.9982C69.8112 60.8631 69.7712 60.7175 69.7412 60.572L69.7513 59.387L69.9113 56.7987C69.9513 56.5284 69.9912 56.2582 70.0212 55.9879C70.2412 54.1584 70.3213 52.3185 70.4313 50.4787C70.5513 48.5972 70.5913 46.7157 70.7113 44.8447C70.7413 44.4808 70.7813 44.1066 70.8013 43.7428L62.0312 43.7324Z" fill="#17283D"/>
<path d="M64.9709 44.5625H60.1309V46.8286H64.9709V44.5625Z" fill="#17283D"/>
<path d="M64.5908 9.32446H59.5508V13.9294H64.5908V9.32446Z" fill="#D5A57E"/>
<path d="M65.4216 13.8354L62.5916 18.6378L56.6016 15.2595L58.6516 13.877L59.5516 13.5235V12.3281H64.5916V13.5339L65.4216 13.8354Z" fill="#D5A57E"/>
<path d="M62.0706 0.447266C58.1306 0.447266 57.8906 3.75281 57.8906 6.70494C57.8906 8.64876 59.1106 10.6965 59.1106 10.6965C59.1106 10.6965 60.7706 12.3597 61.2406 12.4844H62.9206C63.2806 12.3909 64.7406 10.9876 64.7406 10.9876C64.7406 10.9876 66.2606 8.79429 66.2606 6.69454C66.2506 3.75281 66.2506 0.447266 62.0706 0.447266Z" fill="#FCC8A1"/>
<path d="M58.7413 7.59965C58.8813 8.23374 58.7213 8.80545 58.3813 8.88861C58.0513 8.97177 57.6613 8.52479 57.5213 7.89071C57.3813 7.25663 57.5413 6.68491 57.8813 6.60175C58.2113 6.51859 58.6013 6.96557 58.7413 7.59965Z" fill="#FCC8A1"/>
<path d="M65.371 7.59965C65.231 8.23374 65.391 8.80545 65.731 8.88861C66.071 8.97177 66.4509 8.52479 66.5909 7.89071C66.7309 7.25663 66.571 6.68491 66.231 6.60175C65.901 6.51859 65.511 6.96557 65.371 7.59965Z" fill="#FCC8A1"/>
<path d="M49.4905 29.8126L49.3105 34.4799L49.4205 44.0847L51.6805 43.2843L52.4605 34.4279L53.5805 30.3324L49.4905 29.8126Z" fill="#FCC8A1"/>
<path d="M51.0816 46.1939L51.1116 45.4143C51.1116 45.4143 51.1316 45.3623 51.1516 45.2687C51.1516 45.1544 51.1616 45.04 51.1816 44.9153C51.0716 44.9049 50.9716 44.8529 50.8716 44.7698C50.6716 44.6139 50.5416 44.3748 50.3816 44.2085C50.3416 44.1669 50.3016 44.1149 50.2716 44.0629C50.2316 44.0317 50.1916 44.0006 50.1516 43.959C50.0016 44.1565 49.8616 44.354 49.7216 44.5723C49.6816 44.6243 49.6416 44.697 49.6016 44.749L49.8716 45.1856C49.8916 45.7261 49.9116 46.9527 49.9116 46.9527L50.4616 48.0857C50.4616 48.0857 50.6316 49.1044 50.8316 49.198C50.8716 49.2188 50.9716 49.1876 51.0716 49.0628C51.2116 48.8757 51.3316 48.5431 51.2616 48.304C51.1816 48.0545 51.0016 47.4724 51.0016 47.4724L51.0816 46.1939Z" fill="#D5A57E"/>
<path d="M51.9302 47.4012C52.0902 47.422 52.2702 47.2765 52.3102 46.9854C52.3402 46.7775 52.3702 46.4137 52.3702 46.4137L52.4602 45.5509C52.3802 45.395 51.8402 43.2121 51.8402 43.2121L51.4702 42.2246L50.1102 42.2974C50.1202 42.3286 49.8502 44.1892 50.3402 44.5219C50.8402 44.8753 51.6402 45.8628 51.6402 45.8628C51.6402 45.8628 51.6402 46.4449 51.6302 46.6216C51.5702 47.2141 51.7502 47.3804 51.9302 47.4012Z" fill="#FCC8A1"/>
<path d="M50.6908 42.3379L50.2408 42.6601L49.6708 43.1903L48.8008 45.7994L49.6108 47.9615L50.6908 49.1153C50.7708 49.2193 50.9108 49.24 51.0108 49.1569C51.1108 49.0841 51.1208 48.9282 51.0408 48.8242L50.0508 46.9948C50.0508 46.9948 49.9008 44.5624 50.7608 44.8846C51.2808 45.0613 50.6708 42.3795 50.6908 42.3379Z" fill="#FCC8A1"/>
<path d="M69.4903 27.1829L70.1903 31.1433L74.8703 29.8335L72.1003 18.1082C72.0503 17.9211 70.8603 16.0916 70.6403 15.8941C70.6303 15.8837 70.6203 15.8733 70.6103 15.8629C70.2303 15.5303 67.0403 14.5116 65.4203 13.8359C65.3603 13.9399 64.2803 16.102 62.7303 16.3307C61.9403 16.445 61.0203 16.2891 60.3303 15.8006C59.9403 15.5199 58.7803 14.0958 58.6403 13.8775C57.0103 14.522 54.0403 15.4263 53.5403 15.8941C53.2903 16.1228 52.2803 17.5781 52.2803 17.5781L49.3203 29.8439L53.9503 30.9042L54.7103 26.7775C54.6803 28.0768 54.9703 31.0705 54.7003 34.2409C54.2903 38.9394 53.6003 44.1472 53.6003 44.1472L70.9003 43.9705C70.9003 43.9705 70.0003 38.7003 69.5803 33.8771C69.3503 31.0913 69.5103 28.3367 69.4903 27.1829Z" fill="#292B2A"/>
<path d="M57.3309 36.736C57.2509 33.2537 56.3509 29.9378 54.7209 26.9648C54.7209 28.3474 54.9709 31.1955 54.7109 34.1996C55.5709 35.0936 56.4609 35.9563 57.3309 36.736Z" fill="#292B2A"/>
<path d="M69.4796 28.1605C69.4096 28.5659 69.3496 29.0025 69.4396 29.3247C69.3496 29.0025 69.4196 28.5659 69.4796 28.1605C69.4796 27.7655 69.4896 27.4329 69.4796 27.1834L69.5596 27.62C69.5996 27.225 69.5596 26.9547 69.1996 27.0275C68.4596 27.1106 68.0496 28.4724 67.8896 29.5014C67.2296 32.7342 67.1496 35.967 64.7796 38.2643C63.7196 39.2829 62.6496 40.3952 61.2596 40.9045C58.8796 41.7569 56.3696 42.7444 53.7796 42.734C53.6696 43.6072 53.5996 44.1373 53.5996 44.1373L70.8996 43.9606C70.8996 43.9606 69.9996 38.6904 69.5796 33.8673C69.3996 31.7051 69.4596 29.5534 69.4796 28.1605Z" fill="#292B2A"/>
<path d="M66.4704 3.05541C66.4204 2.8683 66.4104 2.74356 66.3504 2.63961C66.3104 2.54606 66.2404 2.45251 66.0904 2.32777C66.0804 2.31738 66.0704 2.31738 66.0604 2.30698C66.0004 2.23422 65.9504 2.16145 65.9104 2.0783C65.8504 1.95356 65.8104 1.83922 65.7704 1.71448C65.6704 1.44421 65.5604 1.20513 65.2604 1.03882C64.6704 0.695787 63.9104 0.383943 63.1204 0.228021C62.6104 0.0409143 62.0704 -0.0214545 61.5304 0.0201247C60.9804 0.061704 59.7304 0.2696 59.5804 0.986841C59.1504 0.966052 58.6304 1.29869 58.3804 1.64171C58.2404 1.76645 57.7704 2.55646 57.7304 2.65001C57.6804 2.75396 57.6604 2.8787 57.6204 3.0658C57.4704 3.65831 57.7504 6.39214 57.7504 6.39214C57.8604 6.79754 58.0304 6.63122 58.2004 7.01583C58.3904 7.34846 58.5504 8.14886 58.6404 7.92017C58.6604 7.58754 58.5104 6.19464 58.5104 5.862C58.5104 5.85161 58.2904 4.84331 58.2404 4.55226C58.2004 4.09489 58.2404 3.63752 58.4004 3.20093C58.7704 2.22382 59.7004 1.90158 60.6004 1.70408C61.0604 1.79764 61.4704 2.08869 61.9004 2.31738C62.4704 2.62922 63.0904 2.68119 63.7304 2.6708C64.0904 2.75396 64.4804 2.79554 64.8504 2.85791C65.1204 2.90988 65.4504 2.89948 65.6604 3.11778C65.7504 3.21133 65.8104 3.33607 65.8504 3.4712C65.8704 3.54396 65.8804 3.62712 65.8904 3.68949C65.9504 4.23002 65.7204 4.91608 65.6304 5.34226C65.5104 5.92437 65.0904 8.22162 65.4404 8.73097C65.4404 8.74136 65.9204 6.79754 65.9204 6.80793C65.9304 6.8703 66.3804 6.72477 66.4904 6.32977C66.4804 6.31938 66.6304 3.64791 66.4704 3.05541Z" fill="#3C2D23"/>
<path d="M27.64 52.4835C27.16 51.6831 26.06 50.8931 25.17 50.7164C20.67 49.8328 8.02 47.3484 3.52 46.4753C2.63 46.2986 1.83 46.9223 1.73 47.8474L0 63.6995L1.67 79.406C1.77 80.3415 2.56 81.2771 3.44 81.4954L37.06 89.8216L35.85 66.2982C35.86 66.2982 29.9 56.2984 27.64 52.4835Z" fill="#2A8644"/>
<path d="M27.74 76.4429C28.72 73.7194 31.1 71.9315 32.57 69.468C33.56 67.7736 34.16 65.9441 34.51 64.0523C32.62 60.8715 29.22 55.1647 27.63 52.4932C27.15 51.6928 26.05 50.9028 25.16 50.7261C20.66 49.8426 8.01 47.3582 3.51 46.485C2.62 46.3083 1.82 46.932 1.72 47.8572L0 63.6988L1.67 79.4054C1.77 80.3409 2.56 81.2765 3.44 81.4947L27.92 87.5653C26.65 83.9687 26.41 80.0395 27.74 76.4429Z" fill="#44B75E"/>
<path d="M35.8602 66.2988C35.8602 66.2988 35.5802 65.8206 35.1102 65.041C34.7902 66.4443 34.3302 67.7956 33.6602 69.1054C33.1702 70.0617 32.6302 70.9868 32.0502 71.8912C31.4402 72.8475 30.7102 73.7726 30.2202 74.8017C29.1302 77.0886 29.2602 79.7393 29.2902 82.2236C29.3102 84.1259 29.3802 86.0177 29.3902 87.92L37.0602 89.8222L35.8602 66.2988Z" fill="#2A8644"/>
<path d="M1.73 47.8585C1.82 47.0061 2.5 46.4136 3.3 46.4552L1.68 61.3405L3.35 77.0471C3.45 77.9826 4.24 78.9181 5.12 79.1364L36.91 87.0157L37.06 89.8223L3.45 81.4961C2.57 81.2778 1.77 80.3422 1.68 79.4067L0 63.7002L1.73 47.8585Z" fill="#399F52"/>
<path d="M2.0293 62.9831L28.2593 67.0786L34.9193 68.1181C34.5893 67.5568 33.8293 66.2367 32.8893 64.5839C32.3293 63.6068 31.6993 62.5049 31.0693 61.3823C30.6093 60.5819 30.1493 59.7711 29.6993 58.9707C27.7393 55.5196 25.9993 52.4428 25.9993 52.4428L12.7293 49.9064L7.8293 48.9709L3.4193 48.1289L3.3593 48.7838L2.9093 53.5342L2.0293 62.9831Z" fill="#464656"/>
<path opacity="0.3" d="M7.83008 48.9902L31.0701 61.3912C30.6101 60.5908 30.1501 59.78 29.7001 58.9796L12.7301 49.9258L7.83008 48.9902Z" fill="#252130"/>
<path opacity="0.3" d="M2.91016 53.5545L28.2502 67.0885L34.9102 68.128C34.5802 67.5667 33.8202 66.2465 32.8802 64.5938L3.36016 48.8145L2.91016 53.5545Z" fill="#252130"/>
<path d="M2.76953 66.6208C2.66953 67.3068 3.12953 67.9409 3.77953 68.0345L8.32953 68.7101C8.98953 68.8037 9.59953 68.3359 9.68953 67.6499C9.77953 66.9742 9.32953 66.3401 8.66953 66.2362L4.11953 65.5605C3.46953 65.467 2.85953 65.9451 2.76953 66.6208Z" fill="#399F52"/>
<path d="M3.43918 66.2249C3.34918 66.9005 3.79918 67.5346 4.45918 67.6386L9.00918 68.3142C9.66918 68.4182 10.2692 67.94 10.3692 67.2539C10.4592 66.5783 10.0092 65.9442 9.34918 65.8403L4.79918 65.1646C4.13918 65.0606 3.52918 65.5388 3.43918 66.2249Z" fill="#E0E1E0"/>
<path d="M99.3592 52.4835C99.8392 51.6831 100.939 50.8931 101.829 50.7164C106.329 49.8328 118.979 47.3484 123.479 46.4753C124.369 46.2986 125.169 46.9223 125.269 47.8474L126.999 63.6995L125.329 79.406C125.229 80.3415 124.439 81.2771 123.559 81.4954L89.9492 89.8216L91.1592 66.2982C91.1492 66.2982 97.0992 56.2984 99.3592 52.4835Z" fill="#44B75E"/>
<path d="M125.279 47.8585C125.189 47.0061 124.499 46.4136 123.709 46.4552L125.329 61.3405L123.649 77.0471C123.549 77.9826 122.759 78.9181 121.879 79.1364L90.0892 87.0157L89.9492 89.8223L123.559 81.4961C124.439 81.2778 125.239 80.3422 125.329 79.4067L126.999 63.7002L125.279 47.8585Z" fill="#399F52"/>
<path d="M100.59 86.6204C100.57 85.2483 100.56 83.8762 100.56 82.5041C100.56 81.3918 100.52 80.3004 100.32 79.2297C99.9297 77.13 99.1997 75.1757 98.2497 73.3047C97.2697 71.3712 96.1197 69.5522 95.0397 67.6811C94.4997 66.7456 93.9297 65.8204 93.4397 64.8537C93.1997 64.3755 92.9397 63.8974 92.7097 63.3984C91.6397 65.1967 90.8897 66.4649 90.8897 66.4649L89.6797 89.9883L100.59 87.0882C100.59 86.9323 100.59 86.7763 100.59 86.6204Z" fill="#2A8644"/>
<path d="M124.97 62.9831L98.7401 67.0786L92.0801 68.1181C92.4101 67.5568 93.1701 66.2367 94.1101 64.5839C94.6701 63.6068 95.2901 62.5049 95.9301 61.3823C96.3901 60.5819 96.8501 59.7711 97.3001 58.9707C99.2601 55.5196 101 52.4428 101 52.4428L114.27 49.9064L119.17 48.9709L123.58 48.1289L123.64 48.7838L124.08 53.5342L124.97 62.9831Z" fill="#464656"/>
<path opacity="0.3" d="M119.169 48.9902L95.9395 61.3912C96.3995 60.5908 96.8594 59.78 97.3094 58.9796L114.279 49.9258L119.169 48.9902Z" fill="#252130"/>
<path opacity="0.3" d="M124.09 53.5545L98.7498 67.0885L92.0898 68.128C92.4198 67.5667 93.1799 66.2465 94.1199 64.5938L123.64 48.8145L124.09 53.5545Z" fill="#252130"/>
<path d="M33.1102 71.2886H27.7502C27.4202 71.2886 27.1002 71.0184 27.0202 70.6857L26.1502 66.6733C26.0802 66.3407 26.2902 66.0704 26.6202 66.0704H33.1102C33.4402 66.0704 33.7102 66.3511 33.7102 66.6941V70.6857C33.7102 71.0184 33.4402 71.2886 33.1102 71.2886Z" fill="#26262F"/>
<path d="M35.7406 71.934C35.9506 72.1523 35.9506 72.5058 35.7406 72.7241C35.5306 72.9423 35.1906 72.9423 34.9806 72.7241L32.6106 70.2605C32.4006 70.0422 32.4006 69.6888 32.6106 69.4705C32.8206 69.2522 33.1606 69.2522 33.3706 69.4705L35.7406 71.934Z" fill="#26262F"/>
<path d="M95.7094 71.2886H101.079C101.409 71.2886 101.729 71.0184 101.799 70.6857L102.669 66.6733C102.739 66.3407 102.529 66.0704 102.199 66.0704H95.7094C95.3794 66.0704 95.1094 66.3511 95.1094 66.6941V70.6857C95.1094 71.0184 95.3794 71.2886 95.7094 71.2886Z" fill="#26262F"/>
<path d="M93.0696 71.934C92.8596 72.1523 92.8596 72.5058 93.0696 72.7241C93.2796 72.9423 93.6196 72.9423 93.8296 72.7241L96.1996 70.2605C96.4096 70.0422 96.4096 69.6888 96.1996 69.4705C95.9896 69.2522 95.6496 69.2522 95.4396 69.4705L93.0696 71.934Z" fill="#26262F"/>
<path d="M44.8295 88.7311V99.6457C44.8095 102.036 42.9595 103.959 40.6595 104.001H37.1695C34.8295 104.001 32.9395 102.036 32.9395 99.6041V88.7311C32.9395 86.3091 34.8295 84.3341 37.1695 84.3341H40.5995C42.9395 84.3341 44.8295 86.3091 44.8295 88.7311Z" fill="#26262F"/>
<path d="M40.1285 94.9474H39.4785V104.001H40.1285V94.9474Z" fill="#26262F"/>
<path d="M38.2887 94.9474H37.6387V104.001H38.2887V94.9474Z" fill="#26262F"/>
<path d="M44.8294 95.6837V96.6608L40.1294 101.567L39.8594 101.858V100.881L40.1294 100.59L44.8294 95.6837Z" fill="#26262F"/>
<path d="M44.8294 98.6583V99.6458L40.6694 104.001H39.8594V103.866L40.1294 103.575L44.8294 98.6583Z" fill="#26262F"/>
<path d="M44.8294 92.7013V93.6784L40.1294 98.5951L39.8594 98.8758V97.8987L40.1294 97.6076L44.8294 92.7013Z" fill="#26262F"/>
<path d="M32.9395 95.6837V96.6608L37.6395 101.567L37.9195 101.858V100.881L37.6395 100.59L32.9395 95.6837Z" fill="#26262F"/>
<path d="M32.9395 98.6583V99.6458L37.1095 104.001H37.9195V103.866L37.6395 103.575L32.9395 98.6583Z" fill="#26262F"/>
<path d="M32.9395 92.7013V93.6784L37.6395 98.5951L37.9195 98.8758V97.8987L37.6395 97.6076L32.9395 92.7013Z" fill="#26262F"/>
<path d="M95.8802 88.7311V99.6457C95.8602 102.036 94.0102 103.959 91.7102 104.001H88.2202C85.8802 104.001 83.9902 102.036 83.9902 99.6041V88.7311C83.9902 86.3091 85.8802 84.3341 88.2202 84.3341H91.6502C93.9902 84.3341 95.8802 86.3091 95.8802 88.7311Z" fill="#26262F"/>
<path d="M91.1793 94.9474H90.5293V104.001H91.1793V94.9474Z" fill="#26262F"/>
<path d="M89.3394 94.9474H88.6895V104.001H89.3394V94.9474Z" fill="#26262F"/>
<path d="M95.8801 95.6837V96.6608L91.1902 101.567L90.9102 101.858V100.881L91.1902 100.59L95.8801 95.6837Z" fill="#26262F"/>
<path d="M95.8801 98.6583V99.6458L91.7202 104.001H90.9102V103.866L91.1902 103.575L95.8801 98.6583Z" fill="#26262F"/>
<path d="M95.8801 92.7013V93.6784L91.1902 98.5951L90.9102 98.8758V97.8987L91.1902 97.6076L95.8801 92.7013Z" fill="#26262F"/>
<path d="M84 95.6837V96.6608L88.69 101.567L88.97 101.858V100.881L88.69 100.59L84 95.6837Z" fill="#26262F"/>
<path d="M84 98.6583V99.6458L88.16 104.001H88.97V103.866L88.69 103.575L84 98.6583Z" fill="#26262F"/>
<path d="M84 92.7013V93.6784L88.69 98.5951L88.97 98.8758V97.8987L88.69 97.6076L84 92.7013Z" fill="#26262F"/>
<path d="M97.0003 81.0373V88.7502C97.0003 92.0454 97.0003 91.4944 97.0003 93.9684C96.9803 96.3488 95.1403 98.4382 92.8603 98.6565C75.6703 100.081 58.4303 100.216 41.2303 99.0515C39.4703 98.9371 37.7103 98.802 35.9603 98.6565C34.6503 98.5317 33.4803 97.7729 32.7203 96.7126C32.1603 95.933 31.8303 94.9767 31.8203 93.9684C31.8203 91.4944 31.8203 92.0454 31.8203 88.7502V81.0373C31.8303 79.7899 32.3503 78.6153 33.1603 77.7525C33.3103 77.5966 33.4703 77.4511 33.6303 77.3159C34.1103 76.9313 34.6703 76.6403 35.2703 76.4739C35.4903 76.4116 35.7203 76.37 35.9503 76.3492C54.9103 74.7796 73.9003 74.7796 92.8503 76.3492C93.9703 76.4532 94.9903 77.0249 95.7303 77.8565C96.5203 78.7088 96.9903 79.8419 97.0003 81.0373Z" fill="#26262F"/>
<path d="M98.1192 77.6495V85.6223C98.1192 89.0318 98.1192 88.4601 98.1192 91.0276C98.0992 93.4808 96.1992 95.6429 93.8392 95.8716C76.0592 97.3477 58.2392 97.4828 40.4392 96.277C38.6192 96.1626 36.7992 96.0171 34.9792 95.8716C33.6292 95.7469 32.4192 94.9672 31.6292 93.8654C31.0492 93.0546 30.7092 92.0671 30.6992 91.0276C30.6992 88.4705 30.6992 89.0318 30.6992 85.6223V77.6495C30.7092 76.3605 31.2392 75.1444 32.0892 74.2608C32.2392 74.0945 32.3992 73.949 32.5792 73.8138C33.0792 73.4084 33.6492 73.107 34.2692 72.9407C34.4992 72.8783 34.7292 72.8367 34.9692 72.8159C54.5692 71.1943 74.2192 71.1943 93.8192 72.8159C94.9792 72.9303 96.0292 73.5124 96.7992 74.3751C97.6092 75.2379 98.0992 76.4125 98.1192 77.6495Z" fill="#399F52"/>
<path d="M94.8792 72.0673C93.1492 67.4208 91.6692 62.6912 90.2492 57.9304C89.1292 54.9678 86.4192 51.891 83.2992 51.2777C70.6592 49.3443 58.0392 49.3443 45.3992 51.2985C42.2792 51.9014 39.5692 54.9782 38.4692 57.9511C37.0892 62.7016 35.6392 67.4208 33.9492 72.0569C54.0792 77.2543 74.7492 77.2543 94.8792 72.0673Z" fill="#399F52"/>
<path d="M34.9395 71.2874C34.9395 71.2874 37.9195 62.2023 39.0595 58.3147C40.0195 55.7783 42.4195 52.9301 45.1695 52.3792C51.4195 51.4125 57.7595 50.924 64.0095 50.924C70.2095 50.924 76.5095 51.4021 82.7195 52.3584C85.4695 52.9094 87.8795 55.7471 88.8495 58.2939C90.0195 62.2023 93.0595 71.2874 93.0595 71.2874H34.9395Z" fill="#26262F"/>
<path d="M67.9693 54.5521C67.9693 55.2797 67.3993 55.8722 66.7093 55.8722H61.2993C60.5993 55.8722 60.0293 55.2797 60.0293 54.5521C60.0293 53.8244 60.5993 53.2423 61.2993 53.2423H66.7093C67.3993 53.2423 67.9693 53.8244 67.9693 54.5521Z" fill="#1C1C1F"/>
<path d="M57.0898 71.2774V62.7849C57.0898 60.9658 55.6798 59.5001 53.9298 59.5001H45.9198C44.1698 59.5001 42.7598 60.9762 42.7598 62.7849V71.2774H57.0898Z" fill="#1C1C1F"/>
<path d="M85.2502 71.2774V62.7849C85.2502 60.9658 83.8302 59.5001 82.0802 59.5001H74.0702C72.3202 59.5001 70.9102 60.9762 70.9102 62.7849V71.2774H85.2502Z" fill="#1C1C1F"/>
<path d="M97.1107 74.7588L94.8807 72.0665H34.0507L31.7207 74.7588H97.1107Z" fill="#399F52"/>
<path d="M72.5198 98.9801H56.2998C55.8598 98.9801 55.5098 98.6163 55.5098 98.1589V95.8408C55.5098 95.3835 55.8598 95.0197 56.2998 95.0197H72.5198C72.9598 95.0197 73.3098 95.3939 73.3098 95.8408V98.1589C73.3098 98.6163 72.9598 98.9801 72.5198 98.9801Z" fill="white"/>
<path d="M93.7901 73.4697L87.0401 79.2908C86.4701 79.9249 85.3401 80.4342 84.5001 80.4342H44.3501C43.5201 80.4342 42.3801 79.9249 41.8101 79.2908L35.0401 73.4697C34.4701 72.8356 34.6901 72.3263 35.5201 72.3263H93.3101C94.1401 72.3263 94.3501 72.8356 93.7901 73.4697Z" fill="#44B75E"/>
<path d="M41.1695 85.0916V86.4533C41.1695 87.8982 40.0395 89.0728 38.6495 89.0728H32.2095C30.8195 89.0728 29.6895 87.8982 29.6895 86.4533V81.6821C29.6895 80.2372 30.8195 79.0626 32.2095 79.0626H34.3895C35.1495 79.0626 36.2295 79.468 36.8095 79.967L40.1195 82.8151C40.6995 83.3141 41.1695 84.3328 41.1695 85.0916Z" fill="#44B75E"/>
<path d="M32.2092 88.2936C31.2392 88.2936 30.4492 87.4724 30.4492 86.4641V81.6929C30.4492 80.6742 31.2392 79.8634 32.2092 79.8634H34.3892C34.9692 79.8634 35.8792 80.2064 36.3292 80.591L39.6392 83.4288C40.0492 83.7822 40.4192 84.5722 40.4192 85.1024V86.4641C40.4192 87.4724 39.6292 88.2936 38.6592 88.2936H32.2092Z" fill="#E0E1E0"/>
<path d="M87.6602 85.0916V86.4533C87.6602 87.8982 88.7802 89.0728 90.1702 89.0728H96.6202C98.0102 89.0728 99.1301 87.8982 99.1301 86.4533V81.6821C99.1301 80.2372 98.0102 79.0626 96.6202 79.0626H94.4402C93.6902 79.0626 92.6001 79.468 92.0201 79.967L88.7102 82.8151C88.1302 83.3141 87.6602 84.3328 87.6602 85.0916Z" fill="#44B75E"/>
<path d="M90.1702 88.2936C89.2002 88.2936 88.4102 87.4724 88.4102 86.4641V85.1024C88.4102 84.5722 88.7802 83.7822 89.1902 83.4288L92.5002 80.591C92.9502 80.2064 93.8602 79.8634 94.4402 79.8634H96.6202C97.5902 79.8634 98.3801 80.6846 98.3801 81.6929V86.4641C98.3801 87.4724 97.5902 88.2936 96.6202 88.2936H90.1702Z" fill="#E0E1E0"/>
<path d="M45.6794 91.8693H36.3594V95.1228H45.6794V91.8693Z" fill="#26262F"/>
<path d="M92.4704 91.8694H83.1504V95.123H92.4704V91.8694Z" fill="#26262F"/>
<g opacity="0.3">
<path d="M64.4189 50.9337C63.5289 50.9337 62.6489 50.9441 61.7589 50.9649L37.7789 63.7609C37.5589 64.4366 37.3389 65.1226 37.1289 65.7879L64.9489 50.9337C64.7789 50.9337 64.5989 50.9337 64.4189 50.9337Z" fill="#252130"/>
<path d="M66.4596 50.9435L36.8196 66.7748C36.0096 69.3007 35.3496 71.2965 35.3496 71.2965C35.3496 71.2965 36.1996 71.2965 37.6996 71.2965L74.9796 51.3905C72.1296 51.141 69.2896 50.9955 66.4596 50.9435Z" fill="#252130"/>
<path d="M90.7299 62.9806L75.1699 71.286C76.4999 71.286 77.7899 71.286 79.0399 71.286L91.2999 64.7477C91.1099 64.1552 90.9199 63.5731 90.7299 62.9806Z" fill="#252130"/>
</g>
<path d="M81.8897 89.4051C81.8397 91.2554 80.4897 92.8561 78.7397 93.168C69.1697 94.3634 59.6497 94.3634 50.0797 93.168C48.3297 92.8561 46.9797 91.2554 46.9297 89.4051C46.9297 88.3032 46.9297 87.7523 46.9297 86.6401C46.9797 84.8002 48.3297 83.189 50.0797 82.8771C59.6497 81.6817 69.1697 81.6817 78.7397 82.8771C80.4897 83.189 81.8397 84.7898 81.8897 86.6401C81.8897 87.7523 81.8897 88.3032 81.8897 89.4051Z" fill="#CCCCCC"/>
<path d="M64.4903 92.9709C59.8003 92.9709 55.0303 92.6798 50.3203 92.0873C49.0803 91.8482 48.1103 90.7048 48.0703 89.3951V86.6716C48.1103 85.3619 49.0803 84.2081 50.3203 83.9794C55.0303 83.3869 59.8003 83.0958 64.4903 83.0958C69.1803 83.0958 73.9603 83.3869 78.6703 83.9794C79.9103 84.2081 80.8803 85.3619 80.9203 86.6716V89.3951C80.8803 90.7048 79.9203 91.8482 78.6703 92.0873C73.9603 92.6694 69.1903 92.9709 64.4903 92.9709Z" fill="#26262F"/>
<path d="M80.08 85.6732C80.08 86.0474 79.79 86.3489 79.43 86.3489H49.4C49.04 86.3489 48.75 86.0474 48.75 85.6732C48.75 85.299 49.04 85.0079 49.4 85.0079H79.43C79.79 85.0079 80.08 85.3094 80.08 85.6732Z" fill="#1C1C1F"/>
<path d="M80.08 87.9809C80.08 88.3551 79.79 88.6565 79.43 88.6565H49.4C49.04 88.6565 48.75 88.3551 48.75 87.9809C48.75 87.6066 49.04 87.3052 49.4 87.3052H79.43C79.79 87.2948 80.08 87.5962 80.08 87.9809Z" fill="#1C1C1F"/>
<path d="M80.08 90.3711C80.08 90.7453 79.79 91.0468 79.43 91.0468H49.4C49.04 91.0468 48.75 90.7453 48.75 90.3711C48.75 89.9969 49.04 89.6954 49.4 89.6954H79.43C79.79 89.7058 80.08 90.0073 80.08 90.3711Z" fill="#1C1C1F"/>
<path d="M34.6602 82.8772C34.6602 83.8648 33.8902 84.6548 32.9502 84.6548C32.0002 84.6548 31.2402 83.8544 31.2402 82.8772C31.2402 81.8897 32.0002 81.0997 32.9502 81.0997C33.8902 81.0997 34.6602 81.9001 34.6602 82.8772Z" fill="white"/>
<path d="M95.8106 82.8772C95.8106 83.8648 95.0506 84.6548 94.1006 84.6548C93.1606 84.6548 92.3906 83.8544 92.3906 82.8772C92.3906 81.8897 93.1606 81.0997 94.1006 81.0997C95.0506 81.0997 95.8106 81.9001 95.8106 82.8772Z" fill="white"/>
<path d="M64.7295 50.9337H63.2695V54.6758H64.7295V50.9337Z" fill="#1C1C1F"/>
<path d="M43.9395 89.7072H37.1895V92.9711H43.9395V89.7072Z" fill="#E0E1E0"/>
<path d="M91.6387 89.7072H84.8887V92.9711H91.6387V89.7072Z" fill="#E0E1E0"/>
<path d="M36.3609 92.7008C36.3609 91.7237 35.6009 90.9337 34.6609 90.9337C33.7209 90.9337 32.9609 91.7237 32.9609 92.7008C32.9609 93.6779 33.7209 94.4679 34.6609 94.4679C35.6009 94.4679 36.3609 93.6779 36.3609 92.7008Z" fill="#E0E1E0"/>
<path d="M95.8102 92.701C95.8102 91.7238 95.0502 90.9338 94.1102 90.9338C93.1702 90.9338 92.4102 91.7238 92.4102 92.701C92.4102 93.6781 93.1702 94.4681 94.1102 94.4681C95.0502 94.4681 95.8102 93.6781 95.8102 92.701Z" fill="#E0E1E0"/>
<path d="M65.8606 79.8526C65.8606 79.3952 65.0306 79.0314 64.0006 79.0314C62.9706 79.0314 62.1406 79.3952 62.1406 79.8526C62.1406 80.3099 62.9706 80.6738 64.0006 80.6738C65.0306 80.6738 65.8606 80.3099 65.8606 79.8526Z" fill="white"/>
<path d="M124.231 66.6208C124.331 67.3068 123.871 67.9409 123.221 68.0345L118.671 68.7101C118.011 68.8037 117.401 68.3359 117.311 67.6499C117.211 66.9742 117.671 66.3401 118.331 66.2362L122.881 65.5605C123.531 65.467 124.141 65.9451 124.231 66.6208Z" fill="#399F52"/>
<path d="M123.561 66.2249C123.661 66.9006 123.201 67.5347 122.541 67.6386L118.001 68.3039C117.341 68.4078 116.741 67.9297 116.641 67.2436C116.541 66.568 117.001 65.9339 117.661 65.8299L122.211 65.1543C122.861 65.0607 123.471 65.5389 123.561 66.2249Z" fill="#E0E1E0"/>
</g>
<defs>
<clipPath id="clip0_373_4853">
<rect width="127" height="104" fill="white"/>
</clipPath>
</defs>
</svg>
