<svg width="87" height="146" viewBox="0 0 87 146" fill="none" xmlns="http://www.w3.org/2000/svg">
<path d="M81.5697 128.897H5.43028L0 139.795H87L81.5697 128.897Z" fill="#BCBEC0"/>
<path d="M10.819 133.676C7.63474 133.676 5.04207 131.369 5.04207 128.536V94.7167C5.04207 91.8834 7.63474 89.5764 10.819 89.5764H75.8852C79.0695 89.5764 81.6621 91.8834 81.6621 94.7167V128.536C81.6621 131.369 79.0695 133.676 75.8852 133.676H10.819Z" fill="#D1D3D4"/>
<path d="M77.4104 127.96C77.4104 128.708 76.731 129.313 75.8899 129.313H10.819C9.97784 129.313 9.29848 128.708 9.29848 127.96V94.141C9.29848 93.3926 9.97784 92.7881 10.819 92.7881H75.8853C76.7264 92.7881 77.4057 93.3926 77.4057 94.141V127.96H77.4104Z" fill="#292533"/>
<path d="M43.3544 100.836L13.9523 112.745V129.317H72.7565V112.745L43.3544 100.836Z" fill="#767B81"/>
<path d="M66.633 88.7539C66.633 100.194 56.2115 109.463 43.3544 109.463C30.4974 109.463 20.0759 100.19 20.0759 88.7539C20.0759 77.3137 30.4974 68.0406 43.3544 68.0406C56.2115 68.0448 66.633 77.3178 66.633 88.7539Z" fill="#FDD29F"/>
<path d="M67.072 92.496C67.072 92.496 73.8749 76.1829 57.3437 68.6411C42.5318 61.8847 30.7885 66.0339 26.412 70.8905C26.412 70.8905 13.9986 78.1403 20.4641 93.0388L24.2445 80.6981C24.2445 80.6981 46.8437 82.3389 55.7678 89.7614C55.7678 89.7614 52.7592 82.857 48.1053 80.2704C48.1053 80.2663 64.5071 87.2077 67.072 92.496Z" fill="#292533"/>
<mask id="mask0_189_2196" style="mask-type:luminance" maskUnits="userSpaceOnUse" x="13" y="100" width="60" height="30">
<path d="M43.3544 100.836L13.9523 112.745V129.317H72.7565V112.745L43.3544 100.836Z" fill="white"/>
</mask>
<g mask="url(#mask0_189_2196)">
<path d="M50.9753 111.297L49.5334 108.336C47.7449 108.912 45.5958 109.245 43.2805 109.245C41.1453 109.245 39.1535 108.961 37.4527 108.468L36.0755 111.297L41.2562 114.558L35.6226 138.915L43.5254 146.004L51.4282 138.586L45.8639 114.517L50.9753 111.297Z" fill="#22C55E"/>
</g>
<path d="M46.6264 109.019L50.3884 114.328L56.1976 106.033L46.6264 109.019Z" fill="white"/>
<path d="M40.1841 109.019L36.4268 114.328L30.4928 106.037L40.1841 109.019Z" fill="white"/>
<path d="M65.6856 117.979H56.0959V119.727H65.6856V117.979Z" fill="white"/>
<path d="M87 139.795H0V143.294H87V139.795Z" fill="#BCBEC0"/>
<path d="M81.5697 128.897H5.43028L0 139.795H87L81.5697 128.897Z" fill="#D1D3D4"/>
<path d="M80.8857 135.185L79.3006 132.006H7.69944L6.11888 135.185H80.8857Z" fill="#BCBEC0"/>
<path d="M35.9924 135.802L34.3933 138.981H43.2528V135.802H35.9924Z" fill="#939598"/>
<path d="M50.7119 135.802H43.4561V138.981H52.3063L50.7119 135.802Z" fill="#939598"/>
<path d="M27.7152 50.8722L30.2062 53.1586C33.9358 50.7201 38.5296 49.2767 43.5023 49.2767C48.4751 49.2767 53.0689 50.7201 56.7984 53.1586L59.2894 50.8722C54.9036 47.8909 49.4317 46.1144 43.5023 46.1144C37.5683 46.1144 32.0964 47.8909 27.7152 50.8722Z" fill="#D1D3D4"/>
<path d="M38.1044 60.4207L40.7248 62.8263C41.589 62.5303 42.5226 62.3658 43.5023 62.3658C44.4821 62.3658 45.4156 62.5344 46.2798 62.8263L48.9002 60.4207C47.292 59.6435 45.4572 59.2035 43.5023 59.2035C41.5474 59.2035 39.7081 59.6435 38.1044 60.4207Z" fill="#292533"/>
<path d="M32.8405 55.5807L35.3546 57.8918C37.7116 56.5553 40.5076 55.774 43.5023 55.774C46.4971 55.774 49.2931 56.5512 51.65 57.8918L54.1642 55.5807C51.1371 53.7138 47.463 52.6117 43.5069 52.6117C39.5417 52.6158 35.8722 53.7138 32.8405 55.5807Z" fill="#767B81"/>
<path d="M43.4977 36.7303C54.8967 36.7303 64.1374 28.5079 64.1374 18.3651C64.1374 8.22235 54.8967 0 43.4977 0C32.0987 0 22.858 8.22235 22.858 18.3651C22.858 28.5079 32.0987 36.7303 43.4977 36.7303Z" fill="#22C55E"/>
<path d="M43.4977 33.0294C52.5995 33.0294 59.978 26.464 59.978 18.3652C59.978 10.2664 52.5995 3.70105 43.4977 3.70105C34.3959 3.70105 27.0174 10.2664 27.0174 18.3652C27.0174 26.464 34.3959 33.0294 43.4977 33.0294Z" fill="#767B81"/>
<path d="M39.1858 35.5295L43.2666 42.8452L47.5045 35.5295H39.1858Z" fill="#22B252"/>
<path d="M43.4977 30.9526C41.1361 30.9526 39.2829 25.3764 39.2829 18.2582C39.2829 11.14 41.1361 5.55969 43.4977 5.55969C45.8593 5.55969 47.7125 11.1359 47.7125 18.2582C47.7125 25.3806 45.8639 30.9526 43.4977 30.9526ZM43.4977 5.86811C41.3995 5.86811 39.6249 11.5388 39.6249 18.2541C39.6249 24.9693 41.3995 30.6401 43.4977 30.6401C45.5959 30.6401 47.3705 24.9652 47.3705 18.2541C47.3705 11.543 45.5959 5.86811 43.4977 5.86811Z" fill="white"/>
<path d="M43.4977 22.0085C35.4979 22.0085 29.2265 20.3595 29.2265 18.2582C29.2265 16.1568 35.4932 14.5078 43.4977 14.5078C51.4975 14.5078 57.7689 16.1568 57.7689 18.2582C57.7689 20.3595 51.5022 22.0085 43.4977 22.0085ZM43.4977 14.8121C35.9508 14.8121 29.5777 16.3912 29.5777 18.2582C29.5777 20.1251 35.9508 21.7042 43.4977 21.7042C51.0446 21.7042 57.4177 20.1251 57.4177 18.2582C57.4223 16.3912 51.0446 14.8121 43.4977 14.8121Z" fill="white"/>
<path d="M34.7076 27.6381C34.1484 27.6381 33.7139 27.5024 33.4089 27.231C32.5863 26.4991 32.8959 24.8706 34.2778 22.65C35.6272 20.4829 37.8456 17.9785 40.5168 15.5976C45.0413 11.5717 49.7737 8.87 52.2924 8.87C52.8516 8.87 53.2861 9.0057 53.5911 9.2771C54.4137 10.0091 54.1041 11.6375 52.7222 13.8581C51.3727 16.0252 49.1544 18.5296 46.4832 20.9106C41.9587 24.9364 37.2263 27.6381 34.7076 27.6381ZM52.2924 9.18252C49.8985 9.18252 45.1568 11.913 40.7617 15.8237C38.109 18.1842 35.9138 20.6638 34.5782 22.8063C33.298 24.8665 32.956 26.4004 33.6539 27.0172C33.8896 27.2269 34.2408 27.3338 34.7076 27.3338C37.1015 27.3338 41.8432 24.6033 46.2382 20.6926C48.891 18.3322 51.0862 15.8525 52.4218 13.7101C53.702 11.6499 54.044 10.116 53.3508 9.49916C53.1104 9.28944 52.7546 9.18252 52.2924 9.18252Z" fill="white"/>
<path d="M52.2924 27.6382C49.7737 27.6382 45.0413 24.9324 40.5168 20.9065C37.841 18.5256 35.6272 16.0253 34.2778 13.8541C32.8959 11.6335 32.5863 10.005 33.4089 9.27308C33.7093 9.00578 34.1484 8.86597 34.7076 8.86597C37.2263 8.86597 41.9587 11.5718 46.4832 15.5935C49.1544 17.9745 51.3727 20.4747 52.7222 22.646C54.1041 24.8666 54.4137 26.495 53.5911 27.227C53.2861 27.5025 52.8516 27.6382 52.2924 27.6382ZM34.7076 9.18261C34.2454 9.18261 33.8896 9.28953 33.6539 9.49925C32.9606 10.1161 33.298 11.654 34.5782 13.7102C35.9138 15.8526 38.109 18.3323 40.7617 20.6927C45.1568 24.6034 49.8939 27.3339 52.2924 27.3339C52.7546 27.3339 53.1104 27.227 53.3461 27.0173C54.0394 26.4004 53.702 24.8625 52.4218 22.8064C51.0862 20.6639 48.891 18.1842 46.2382 15.8238C41.8432 11.9131 37.1015 9.18261 34.7076 9.18261Z" fill="white"/>
<path d="M43.4977 27.889C49.7919 27.889 54.8944 23.3488 54.8944 17.7483C54.8944 12.1477 49.7919 7.60754 43.4977 7.60754C37.2035 7.60754 32.101 12.1477 32.101 17.7483C32.101 23.3488 37.2035 27.889 43.4977 27.889Z" fill="#27AAE1"/>
<path d="M54.5755 15.3632L52.3156 15.5934C52.3156 15.5934 51.3866 17.0697 51.3219 17.4234C51.2572 17.777 52.579 19.9606 52.6483 20.1374C52.713 20.3143 52.5143 20.6103 51.9874 20.964C51.4559 21.3176 51.0585 21.6713 51.0585 22.3786C51.0585 23.0859 51.1925 23.2051 50.7258 23.7356C50.259 24.2661 49.7321 24.5005 50.0649 24.9734C50.1897 25.1502 50.6102 25.253 51.1047 25.3065C53.434 23.4478 54.9036 20.7543 54.9036 17.7565C54.899 16.9258 54.7834 16.128 54.5755 15.3632Z" fill="white"/>
<path d="M45.3556 27.6793C45.619 27.56 46.2845 26.7376 46.2845 26.7376C46.2845 26.7376 46.4185 25.6149 45.753 25.4422C45.0921 25.2654 44.1632 25.1461 43.8952 25.1461C43.6317 25.1461 42.0419 25.1461 42.0419 25.1461C42.0419 25.1461 41.1777 24.8501 41.113 24.6157C41.0483 24.3813 40.7156 23.674 40.3828 23.4354C40.0501 23.2011 38.5296 22.9625 38.5296 22.9625C38.5296 22.9625 37.536 22.8433 37.1385 23.0201C36.7411 23.1969 36.1449 23.785 36.1449 24.0811C36.1449 24.3525 35.5256 24.6239 35.276 24.7555C36.4638 25.8575 37.9195 26.7211 39.5556 27.2598C40.3736 27.2434 41.0252 27.157 41.5105 27.2639C42.0419 27.3832 43.6964 27.2639 44.1632 27.4983C44.6254 27.7409 45.0921 27.7985 45.3556 27.6793Z" fill="white"/>
<path d="M41.6445 19.6028C41.6445 19.6028 41.381 20.6638 41.381 21.0791C41.381 21.4904 43.1049 21.7289 43.0402 22.2018C42.9755 22.6747 42.1112 23.3244 42.9061 23.1435C43.701 22.9666 44.7594 22.7898 44.8934 22.0825C45.0274 21.3752 44.6947 21.3176 45.2261 20.7872C45.7576 20.2567 46.2891 20.0223 45.7576 19.7262C45.2261 19.4301 44.8287 19.2533 44.8287 19.2533C44.8287 19.2533 44.0985 19.1341 43.7704 19.1341C43.4376 19.1341 42.9061 18.8997 42.9061 18.8997L41.6445 19.6028Z" fill="white"/>
<path d="M46.6819 16.9464C47.5415 16.9464 47.6109 16.712 47.6109 16.5352C47.6109 16.3584 47.9436 14.0596 48.1423 13.998C48.3411 13.9404 49.136 13.6443 49.136 13.6443L49.8662 13.2331C49.8662 13.2331 50.1296 12.645 50.3283 12.5834C50.527 12.5258 51.3219 11.9953 51.6547 11.6992C51.8257 11.5471 52.0152 11.3332 52.1584 11.1605C50.6148 9.56088 48.5259 8.3889 46.1505 7.88721L44.898 9.22368C44.898 9.22368 44.3018 9.34293 44.3018 9.6349C44.3018 9.93098 45.1661 11.6417 45.1661 11.9336C45.1661 12.2256 45.2308 12.5217 44.9673 12.7602C44.7039 12.9946 44.5699 13.4675 44.5699 13.9404C44.5699 14.4133 45.961 16.3008 46.0257 16.5352C46.0858 16.7696 45.8177 16.9464 46.6819 16.9464Z" fill="white"/>
<path d="M33.2287 20.7214H33.8249L34.421 20.6638L34.9525 20.6062L35.6134 20.4294C35.6134 20.4294 37.1385 20.6638 37.5359 20.6638C37.9334 20.6638 38.5943 20.6638 38.6636 20.487C38.7283 20.3102 39.2598 20.1909 39.3245 20.0141C39.3892 19.8373 39.3245 19.5412 39.1904 19.0107C39.0564 18.4802 38.9917 18.3034 38.9917 18.3034L38.4602 18.4227C38.4602 18.4227 37.3326 18.3034 37.0692 18.1883C36.8057 18.069 36.2096 17.9539 36.2096 17.777C36.2096 17.6002 35.4147 16.5968 35.4147 16.42C35.4147 16.2432 35.6781 15.8895 36.1449 15.5935C36.6116 15.2974 36.6763 14.8862 36.8057 14.7093C36.9398 14.5325 37.4019 14.2364 37.4666 14.0596C37.5313 13.8828 38.0628 13.5867 38.2615 13.5867C38.4602 13.5867 39.7173 14.3516 39.7173 14.3516L39.6526 15.1781C39.6526 15.1781 39.916 15.8279 39.916 16.0047C39.916 16.1815 40.5122 16.5927 40.5122 16.5927L41.0437 16.2391C41.0437 16.2391 41.4411 15.651 41.6398 15.4742C41.8386 15.2974 41.5058 14.1172 41.2424 13.7635C40.979 13.4099 40.7802 12.8794 40.7802 12.4682C40.7802 12.057 40.4475 11.1728 40.4475 10.9343C40.4475 10.6999 39.3198 10.5807 39.3198 10.5807L38.2615 9.99263L36.8242 9.54028C33.9635 11.3867 32.101 14.3804 32.101 17.7565C32.101 18.4885 32.1935 19.204 32.3598 19.8948C32.3598 19.8989 32.3645 19.8989 32.3645 19.9031C32.4985 20.0758 33.2287 20.7214 33.2287 20.7214Z" fill="white"/>
<path opacity="0.1" d="M35.6642 25.0763C35.6504 25.0763 35.6411 25.0763 35.6273 25.0763C37.6746 26.8198 40.4475 27.8931 43.4977 27.8931C49.783 27.8931 54.8944 23.345 54.8944 17.7524C54.8944 14.5655 53.2352 11.7198 50.6426 9.86108C50.7304 10.4409 50.7766 11.029 50.7766 11.6293C50.7812 19.056 44.0153 25.0763 35.6642 25.0763Z" fill="#292533"/>
</svg>
