<svg width="119" height="111" viewBox="0 0 119 111" fill="none" xmlns="http://www.w3.org/2000/svg">
<path d="M101.466 38.9723C102.687 37.915 103.242 36.5717 102.988 35.2811C102.731 33.9905 101.706 32.9554 100.175 32.4429L92.9496 30.0252C92.3929 29.8413 91.957 29.4565 91.7186 28.9458C91.482 28.435 91.4684 27.8561 91.6812 27.3079L94.4683 20.2183C95.0251 18.8051 94.9485 17.4652 94.2521 16.4487C93.4655 15.2893 92.0864 14.7461 90.2953 15.0356L82.7698 16.2546C81.5644 16.4487 80.5156 15.6264 80.3845 14.4363L79.5553 6.86315C79.2863 4.36374 77.6144 3.24344 76.0803 3.24344C75.2052 3.24344 74.2994 3.57885 73.4498 4.21562L67.3579 8.78878C66.4147 9.49706 65.0543 9.2621 64.4023 8.28822L60.1492 1.96309C59.2945 0.698063 58.1418 0 56.9023 0C55.4858 0 54.2497 0.895563 53.5091 2.46025L50.2384 9.34212C49.7378 10.3994 48.4336 10.837 47.3899 10.2734L40.6834 6.64862C38.974 5.72411 37.1744 5.89437 36.0762 7.03681C35.5672 7.56632 34.9729 8.5385 35.0376 10.173L35.3407 17.7853C35.3628 18.3642 35.1602 18.9056 34.7754 19.3108C34.3907 19.7126 33.856 19.9356 33.2465 19.9356L25.5491 19.8403C23.9657 19.8403 22.6853 20.4856 22.0332 21.611C21.3795 22.7432 21.4629 24.1904 22.2682 25.5831L26.0735 32.1858C26.3646 32.6932 26.4379 33.2687 26.2778 33.8101C26.1161 34.3498 25.7415 34.7942 25.2205 35.0615L18.4306 38.5194C16.9919 39.2533 16.1304 40.4298 16.0708 41.7425C16.0078 43.0534 16.7535 44.3049 18.119 45.1664L24.5599 49.2441C25.0536 49.5574 25.3857 50.0341 25.4963 50.5874C25.6036 51.1408 25.4793 51.7094 25.1422 52.1879L20.7342 58.404C19.8011 59.7252 19.5849 61.1639 20.14 62.3557C20.6967 63.5475 21.9396 64.3052 23.5486 64.4329L31.1455 65.0526C31.7278 65.0986 32.2454 65.3659 32.5978 65.8069C32.952 66.2445 33.1035 66.8046 33.0269 67.3869L32.0155 74.9379C31.8402 76.2693 32.1364 77.4509 32.8532 78.2716C33.8629 79.4242 35.5757 79.7137 37.3123 78.973L44.3236 75.9901C45.4183 75.5253 46.6715 76.0786 47.075 77.1819L49.6867 84.3413C50.3235 86.0814 51.6107 87.1216 53.1345 87.1216C54.2667 87.1216 55.3734 86.5257 56.2502 85.4531L61.0754 79.5519C61.4755 79.0582 62.0595 78.7789 62.6707 78.7789C63.03 78.7789 63.5629 78.8743 64.0634 79.3289L69.7058 84.4486C70.5878 85.2488 71.5719 85.6727 72.5492 85.6727C73.9044 85.6727 75.5338 84.8078 76.0327 82.3799L77.5599 74.9141C77.7982 73.758 78.939 73.0259 80.1053 73.3306L87.4809 75.2444C87.9321 75.3584 88.3747 75.418 88.797 75.418C89.9905 75.418 91.0035 74.9464 91.6505 74.0883C92.3588 73.1468 92.524 71.8579 92.1205 70.4686L90.0041 63.1474C89.8407 62.5873 89.9088 62.0118 90.1948 61.5249C90.4809 61.0379 90.9525 60.694 91.5211 60.5629L98.941 58.828C100.516 58.4585 101.633 57.5272 102.007 56.2656C102.382 55.0039 101.953 53.6146 100.834 52.4483L95.558 46.949C95.1511 46.5284 94.9433 45.9836 94.9723 45.4218C94.9978 44.8582 95.2549 44.3372 95.6976 43.9558L101.466 38.9723ZM93.2203 49.1947L98.5018 54.6907C98.8525 55.0601 98.9087 55.307 98.9053 55.3428C98.8848 55.3819 98.7027 55.5624 98.2072 55.6782L90.7839 57.4148C89.3418 57.7502 88.1415 58.6305 87.4026 59.8904C86.6619 61.152 86.4849 62.6298 86.8952 64.0532L89.0115 71.3744C89.1545 71.8647 89.0881 72.1082 89.0694 72.1388C89.0371 72.161 88.6897 72.2154 88.2896 72.1116L80.9174 70.1979C80.4696 70.0838 80.0099 70.0242 79.5553 70.0242C77.0219 70.0242 74.9004 71.7694 74.3897 74.2688L72.8641 81.7346C72.7603 82.2352 72.5849 82.4191 72.5492 82.4429C72.4589 82.4429 72.2154 82.3612 71.8817 82.0547L66.2376 76.9316C65.2501 76.0361 63.9851 75.5423 62.6707 75.5423C61.0822 75.5423 59.5856 76.2574 58.5675 77.5054L53.7423 83.4066C53.4307 83.788 53.2009 83.8782 53.1413 83.8833C53.0902 83.8612 52.8978 83.696 52.7293 83.2312L50.1158 76.0752C49.3394 73.9538 47.3951 72.5815 45.1579 72.5815C44.4343 72.5815 43.7294 72.7296 43.0552 73.0157L36.0439 75.9952C35.7204 76.1331 35.5076 76.1569 35.4088 76.1569L35.2879 76.1433C35.2556 76.1042 35.1568 75.8726 35.2215 75.372L36.2329 67.8211C36.4304 66.3534 36.0354 64.9164 35.1177 63.7774C34.2 62.6418 32.8822 61.9471 31.406 61.8279L23.809 61.2116C23.2983 61.169 23.094 61.0175 23.0684 60.992C23.0582 60.9494 23.0769 60.6957 23.3698 60.2786L27.7795 54.0607C28.6342 52.8485 28.9475 51.3927 28.6648 49.9609C28.3822 48.529 27.536 47.3031 26.2846 46.5131L19.8454 42.432C19.4113 42.1613 19.304 41.9348 19.2955 41.8974C19.3074 41.8548 19.4402 41.6386 19.8948 41.407L26.683 37.9457C28.0042 37.2748 28.9594 36.1324 29.3765 34.7312C29.792 33.3282 29.6115 31.8538 28.8726 30.5683L25.0656 23.9657C24.8102 23.5213 24.817 23.271 24.8272 23.2353C24.8561 23.2029 25.0622 23.0769 25.5832 23.0769H25.5849L33.2721 23.1723C34.7414 23.1723 36.1035 22.5951 37.1046 21.5514C38.1074 20.5043 38.6301 19.1218 38.5705 17.6559L38.2675 10.0419C38.2487 9.52771 38.373 9.30637 38.4684 9.27402C38.5501 9.27402 38.7731 9.29786 39.1409 9.49536L45.8474 13.1185C46.6306 13.5424 47.5108 13.7672 48.3877 13.7672C50.4427 13.7672 52.2713 12.6009 53.1566 10.7314L56.429 3.84445C56.6486 3.38475 56.8615 3.24514 56.8955 3.23493C56.9415 3.23833 57.1713 3.34389 57.4574 3.76954L61.7088 10.0947C62.7048 11.5708 64.3427 12.4494 66.0997 12.4494C67.2524 12.4494 68.3557 12.0799 69.2938 11.375L75.3874 6.80186C75.796 6.49539 76.031 6.48007 76.0837 6.47496C76.1195 6.5022 76.2744 6.7014 76.3306 7.21048L77.1581 14.787C77.485 17.77 80.221 19.9442 83.2806 19.447L90.8044 18.228C91.2232 18.1598 91.5467 18.2467 91.5688 18.2637C91.5909 18.3063 91.6352 18.5566 91.4496 19.0316L88.6608 26.1212C88.1194 27.4986 88.1568 28.9866 88.7748 30.3112C89.3912 31.6376 90.5047 32.6268 91.9127 33.0967L99.1419 35.5144C99.6255 35.6761 99.7889 35.8685 99.8042 35.8992C99.8042 35.9451 99.7259 36.1886 99.3411 36.5223L93.5762 41.5075C92.4542 42.4763 91.8004 43.8094 91.7323 45.2668C91.6676 46.731 92.1954 48.1204 93.2203 49.1947Z" fill="#22C55E"/>
<path d="M93.2833 78.939L85.906 77.0236C83.8424 76.4856 81.7993 77.7608 81.372 79.8533L80.0576 86.267L101.635 110.19L103.346 95.6125L118.357 95.1085L93.7004 67.7666C93.6936 68.1258 93.7413 68.4953 93.8451 68.8631L95.9632 76.1842C96.5557 78.2341 95.3502 79.4736 93.2833 78.939Z" fill="#22C55E"/>
<path d="M30.6705 73.0412C30.9548 70.9265 29.4446 69.0537 27.3147 68.8817L26.2199 68.7898L0 92.4405L14.5776 94.1499L15.0782 109.163L44.7543 82.4037L44.6334 82.0666C43.903 80.061 41.6965 79.1024 39.73 79.9401L32.7153 82.923C30.7539 83.759 29.3765 82.7119 29.6609 80.599L30.6705 73.0412Z" fill="#22C55E"/>
<path d="M71.0849 37.7448C71.0849 41.6165 74.2262 44.7595 78.1013 44.7595C81.9764 44.7595 85.116 41.6182 85.116 37.7448C85.116 33.868 81.9747 30.7301 78.1013 30.7301C74.2279 30.7301 71.0849 33.868 71.0849 37.7448Z" fill="#1D9144"/>
<path d="M74.0423 45.42C72.5117 45.42 71.1071 45.9478 69.9885 46.8196C72.8148 48.5715 74.7183 51.6703 74.7864 55.2168H88.7561V52.0159C88.7561 48.374 85.8055 45.42 82.1637 45.42H74.0423ZM80.7131 54.0845H79.7409L78.9271 48.7435H78.8998L79.6949 47.2776H76.506L77.3011 48.7435H77.2739L76.4634 54.0845H75.4895L73.9759 46.1402L74.4237 46.1181H81.7772C81.9304 46.1181 82.0786 46.1266 82.2267 46.1402L80.7131 54.0845Z" fill="#1D9144"/>
<path d="M78.9288 48.7434L79.7426 54.0845H80.7148L82.2284 46.1419C82.0803 46.1283 81.9321 46.1198 81.7789 46.1198H74.4254L73.9776 46.1419L75.4912 54.0845H76.4651L77.2756 48.7434H77.3028L76.5077 47.2775H79.6966L78.9015 48.7434H78.9288Z" fill="white"/>
<path d="M33.2397 37.7448C33.2397 41.6165 36.381 44.7595 40.2527 44.7595C44.1295 44.7595 47.2708 41.6182 47.2708 37.7448C47.2708 33.868 44.1295 30.7301 40.2527 30.7301C36.3793 30.7301 33.2397 33.868 33.2397 37.7448Z" fill="#1D9144"/>
<path d="M29.5995 52.0159V55.2168H43.5949C43.6647 51.6737 45.5596 48.5818 48.3808 46.8298C47.2571 45.9513 45.8491 45.42 44.3151 45.42H36.1937C32.5501 45.42 29.5995 48.374 29.5995 52.0159ZM43.9303 46.1181L44.378 46.1402L42.8661 54.0828H41.8906L41.0767 48.7418H41.0495L41.848 47.2759H38.6539L39.4541 48.7418H39.4252L38.6131 54.0828H37.6426L36.1273 46.1402L36.5751 46.1181H43.9303Z" fill="#1D9144"/>
<path d="M41.0784 48.7434L41.8923 54.0845H42.8678L44.3798 46.1402L43.9303 46.118H36.5751L36.1273 46.1402L37.6409 54.0845H38.6114L39.4252 48.7434H39.4542L38.6556 47.2775H41.8497L41.0512 48.7434H41.0784Z" fill="white"/>
<path d="M49.6169 35.7357C49.6169 41.0172 53.8956 45.2958 59.177 45.2958C64.4584 45.2958 68.7353 41.0189 68.7353 35.7357C68.7353 30.4577 64.4584 26.1757 59.177 26.1757C53.8973 26.1757 49.6169 30.4577 49.6169 35.7357Z" fill="#1D9144"/>
<path d="M53.6436 46.1981C48.6822 46.1981 44.659 50.2213 44.659 55.1844V59.5447H73.6984V55.1844C73.6984 50.223 69.6752 46.1981 64.7121 46.1981H53.6436ZM62.7388 58.0022H61.4125H56.9466L58.0516 50.7253L56.9432 58.0022H55.6169L53.5584 47.1788C53.7577 47.1618 53.9637 47.1465 54.168 47.1465H64.1877C64.3954 47.1465 64.5981 47.1635 64.8007 47.1788L62.7388 58.0022Z" fill="#1D9144"/>
<path d="M60.3041 50.7253L61.4125 58.0022H62.7388L64.8007 47.1788C64.5981 47.1618 64.3938 47.1465 64.1877 47.1465H54.1663C53.962 47.1465 53.7577 47.1635 53.5568 47.1788L55.6152 58.0022H56.9415L58.0499 50.7253H58.0874L57.0028 48.7265H61.3512L60.2633 50.7253H60.3041Z" fill="white"/>
<path d="M56.9466 58.0022H61.4125L60.3041 50.7253H60.2649L61.3529 48.7264H57.0045L58.089 50.7253H58.0516L56.9466 58.0022Z" fill="#22C55E"/>
</svg>
