<svg width="44" height="43" viewBox="0 0 44 43" fill="none" xmlns="http://www.w3.org/2000/svg">
<path fill-rule="evenodd" clip-rule="evenodd" d="M5.2536 4.75564C4.08203 5.92721 4.08203 7.81283 4.08203 11.5841V31.4174C4.08203 35.1886 4.08203 37.0743 5.2536 38.2458C6.42518 39.4174 8.31079 39.4174 12.082 39.4174H31.9154C35.6866 39.4174 37.5722 39.4174 38.7438 38.2458C39.9154 37.0743 39.9154 35.1886 39.9154 31.4174V11.5841C39.9154 7.81283 39.9154 5.92721 38.7438 4.75564C38.5572 4.56906 38.3525 4.4122 38.125 4.28032V30.4591C37.1106 30.4591 36.6034 30.4591 36.1269 30.3403C35.7422 30.2444 35.3738 30.0918 35.034 29.8876C34.6131 29.6347 34.2545 29.276 33.5371 28.5587L31.0993 26.1208C29.7659 24.7875 29.0993 24.1208 28.2708 24.1208C27.4424 24.1208 26.7757 24.7875 25.4424 26.1208L23.193 28.3702C22.2466 29.3166 21.7734 29.7898 21.2524 29.6895C20.7313 29.5892 20.4677 28.9741 19.9405 27.7439L18.0565 23.3478C17.002 20.8874 16.4748 19.6572 15.4328 19.4565C14.3907 19.2559 13.4443 20.2023 11.5515 22.0951L5.875 27.7716V4.27881C5.64643 4.411 5.44089 4.56835 5.2536 4.75564Z" fill="#22C55E"/>
<path d="M4.58203 11.584C4.58203 9.68423 4.58309 8.30971 4.72402 7.26152C4.86301 6.22771 5.12976 5.58651 5.60716 5.10911C6.08456 4.63171 6.72576 4.36496 7.75957 4.22597C8.80776 4.08505 10.1823 4.08398 12.082 4.08398H31.9154C33.8151 4.08398 35.1896 4.08505 36.2378 4.22597C37.2716 4.36496 37.9128 4.63171 38.3902 5.10911C38.8676 5.58651 39.1344 6.22771 39.2734 7.26152C39.4143 8.30972 39.4154 9.68423 39.4154 11.584V31.4173C39.4154 33.3171 39.4143 34.6916 39.2734 35.7398C39.1344 36.7736 38.8676 37.4148 38.3902 37.8922C37.9128 38.3696 37.2716 38.6363 36.2378 38.7753C35.1896 38.9163 33.8151 38.9173 31.9154 38.9173H12.082C10.1823 38.9173 8.80776 38.9163 7.75957 38.7753C6.72576 38.6363 6.08456 38.3696 5.60716 37.8922C5.12976 37.4148 4.86301 36.7736 4.72402 35.7398C4.58309 34.6916 4.58203 33.3171 4.58203 31.4173V11.584Z" stroke="#22C55E"/>
<circle cx="27.3763" cy="16.1243" r="3.08333" stroke="#22C55E" stroke-linecap="round"/>
</svg>
