<svg width="127" height="192" viewBox="0 0 127 192" fill="none" xmlns="http://www.w3.org/2000/svg">
<g opacity="0.85">
<mask id="mask0_396_5415" style="mask-type:luminance" maskUnits="userSpaceOnUse" x="0" y="0" width="127" height="193">
<path d="M126.466 0H0V192H126.466V0Z" fill="white"/>
</mask>
<g mask="url(#mask0_396_5415)">
<path d="M86.6319 151.612L78.4336 145.809L107.929 127.992L107.791 166.594L86.6319 151.612Z" fill="#71C98E"/>
<path d="M123.533 158.949L128.183 155.657L111.451 145.551L111.53 167.447L123.533 158.949Z" fill="#41AB8A"/>
</g>
<mask id="mask1_396_5415" style="mask-type:luminance" maskUnits="userSpaceOnUse" x="0" y="0" width="127" height="193">
<path d="M126.466 0H0V192H126.466V0Z" fill="white"/>
</mask>
<g mask="url(#mask1_396_5415)">
<path d="M8.35925 151.02L8.20898 193.19L8.21164 193.192L40.4346 173.729V173.725L40.4372 173.726L72.6601 154.264V154.259V154.264L40.4372 173.726L40.4346 173.725V173.729L8.21164 193.192L8.20898 193.19L8.35925 151.02Z" fill="#86EFAC"/>
<path opacity="0.5" d="M8.36204 151.017L8.35938 151.016L8.51097 108.845L8.51363 108.844L40.5849 131.551V131.553L8.36204 151.017Z" fill="#86EFAC"/>
<path d="M72.5069 196.433L40.4355 173.726L72.6585 154.264L72.5069 196.433Z" fill="#86EFAC"/>
<path opacity="0.3" d="M40.4328 173.729L40.4355 173.727L72.5068 196.433V196.438L40.2839 215.902L40.2812 215.899L40.4328 173.729Z" fill="#86EFAC"/>
<path d="M8.51003 108.845L8.35843 151.016L-23.7129 128.309L8.51003 108.845Z" fill="#86EFAC"/>
<path d="M8.21164 193.19L8.20898 193.189L8.35925 151.018V151.015L8.36192 151.017L40.5848 131.553L40.4346 173.724V173.728L8.21164 193.19Z" fill="#75CC92"/>
<path d="M40.2823 215.898L8.21094 193.191L40.4339 173.729L40.2823 215.898Z" fill="#86EFAC"/>
<path opacity="0.5" d="M72.6594 154.263L72.6621 154.26L104.733 176.967V176.971L72.5105 196.435L72.5078 196.432L72.6594 154.263Z" fill="#86EFAC"/>
<path d="M8.51318 108.845L8.50977 108.847V108.842L8.51318 108.845Z" fill="#86EFAC"/>
<path d="M104.736 176.97L104.732 176.972V176.967L104.736 176.97Z" fill="#86EFAC"/>
<path d="M40.437 173.726L40.4336 173.73V173.725L40.437 173.726Z" fill="#86EFAC"/>
<path d="M72.6602 154.26L72.6636 154.261L72.6602 154.265V154.26Z" fill="#86EFAC"/>
<path d="M83.6455 107.351V107.355L51.4226 126.818L51.4199 126.816L51.5702 84.6529L83.6388 107.357L83.7891 65.1874L51.5702 84.6485V84.6471L51.5742 84.6442L83.7958 65.1816L83.6455 107.351Z" fill="#86EFAC"/>
<path d="M83.6397 107.357L51.571 84.653L51.5684 84.6501L51.571 84.6486L83.7899 65.1875L83.6397 107.357Z" fill="#86EFAC"/>
</g>
<mask id="mask2_396_5415" style="mask-type:luminance" maskUnits="userSpaceOnUse" x="0" y="0" width="127" height="193">
<path d="M126.466 0H0V192H126.466V0Z" fill="white"/>
</mask>
<g mask="url(#mask2_396_5415)">
<path d="M107.068 -3.3384L107.072 -3.33984L142.524 21.7587V21.7659L142.528 21.7688L106.904 43.287L106.9 43.2841L107.068 -3.3384Z" fill="#9FF4BC"/>
</g>
</g>
</svg>
