<svg width="105" height="67" viewBox="0 0 105 67" fill="none" xmlns="http://www.w3.org/2000/svg">
<path d="M97.2845 16.4109C97.1656 12.4265 94.6855 9.00133 91.7561 7.23764C90.2188 6.31279 88.5713 5.76432 86.8841 5.39868C88.4215 9.24867 89.5668 13.3514 90.2672 17.5401C90.7518 17.4702 91.2363 17.3949 91.7209 17.325C91.0954 14.2225 90.232 11.1898 89.1439 8.28617C89.1439 8.28617 91.3288 12.3082 92.8662 17.1476C94.3551 16.911 95.8308 16.669 97.2845 16.4109Z" fill="#22C55E"/>
<path d="M82.2368 4.72683C80.7215 4.5709 79.1533 4.43647 77.6247 4.5225C79.1136 9.11453 80.2149 13.8786 80.9109 18.7449C81.4395 18.6857 81.9725 18.6158 82.5011 18.5567C81.8844 14.7551 80.9109 11.0234 79.6026 7.49065C79.6026 7.49065 82.4042 12.7064 83.8623 18.3954C85.6639 18.1749 87.4612 17.9437 89.2409 17.691C88.5052 13.3517 87.285 9.10915 85.6375 5.16238C84.5054 4.97418 83.3645 4.84513 82.2368 4.72683Z" fill="#22C55E"/>
<path d="M72.2108 6.28596C70.321 7.67325 68.9423 9.93162 68.0084 12.3728C67.6692 13.2547 67.3873 14.1634 67.1362 15.0882C67.863 15.341 68.4929 16.0292 68.8101 16.9057C69.3651 16.1206 70.1669 15.6421 70.995 15.4216C71.8232 15.2012 72.6822 15.2173 73.5279 15.2818C74.246 15.3356 74.9992 15.4431 75.5719 15.9755C76.03 16.4056 76.3119 17.0616 76.4441 17.7553C76.4881 18.4005 76.4617 19.0565 76.1489 19.5566C75.8802 19.9868 75.4485 20.2126 75.0256 20.3685C74.1711 20.6804 73.2592 20.7718 72.3738 20.632C73.4398 20.9493 74.5587 21.3472 75.6159 21.003C76.4397 20.7342 77.2062 20.0298 77.5409 19.1049C78.2017 19.0404 78.8669 18.9705 79.5276 18.9006C78.8228 14.0343 77.7039 9.26487 76.1842 4.68359C74.7834 4.90943 73.4354 5.38799 72.2108 6.28596Z" fill="#22C55E"/>
<path d="M103.83 26.7458C103.606 24.0573 103.289 21.2881 102.134 18.9867C101.372 17.465 100.28 16.2229 99.5443 14.6851C98.5443 12.5987 98.258 10.1253 97.5003 7.8938C96.7426 5.66232 95.1436 3.9524 93.1877 3.56525C76.1357 0.177693 58.6829 -0.187948 41.5471 2.48984C51.6612 1.90374 62.6166 2.48984 72.9509 2.7802C77.8625 2.92 82.7786 3.26414 87.633 4.19975C90.3465 4.72133 93.1878 5.52251 95.1744 7.83466C97.1787 10.1683 98.2624 13.7494 98.954 17.0187C101.394 19.632 102.258 23.8153 102.478 27.7675C102.694 31.7197 102.35 36.4246 103.029 40.2961C104.372 36.0321 104.209 31.2949 103.83 26.7458Z" fill="#22C55E"/>
<path d="M38.6751 49.2972C41.5208 50.6899 44.9303 51.0125 47.9654 50.4694C48.2385 47.996 47.2165 45.4741 45.6439 43.8771C44.0713 42.2801 42.0185 41.522 39.9834 41.3015C37.9482 41.0811 35.8999 41.3714 33.8647 41.6564C34.1819 41.8339 34.596 42.3124 34.9176 42.4899C34.9088 42.5114 34.9087 42.5382 34.8999 42.5598C37.7764 42.7049 40.6618 42.92 43.5295 42.963C40.6662 43.3771 37.7764 43.8718 34.8955 44.3449C37.4108 44.4848 39.9305 44.6568 42.4414 44.6945C40.0098 45.044 37.5562 45.458 35.1026 45.8613C35.1422 45.9634 35.1907 46.0602 35.2347 46.157C37.2743 46.2753 39.3138 46.3936 41.349 46.4205C39.5517 46.6786 37.7456 46.9743 35.9395 47.2701C36.1686 47.5443 36.4153 47.7917 36.6796 48.0175C37.8734 48.0766 39.0715 48.1304 40.2609 48.1465C39.3182 48.281 38.3711 48.4315 37.424 48.5821C37.8337 48.8617 38.2522 49.0929 38.6751 49.2972Z" fill="#22C55E"/>
<path d="M57.7314 18.0244C56.5288 18.132 53.2074 18.2718 49.1327 18.4331H62.7135L68.4445 4.49567C68.4445 4.49567 59.8458 4.19993 51.67 4.2322C48.2649 4.43115 44.666 4.6301 41.1419 4.83443C40.675 5.17319 40.1684 5.57109 39.6354 6.01739C49.9168 5.89909 60.9912 5.77004 65.6033 5.68939C60.7929 6.11955 48.7671 6.74867 38.0848 7.3509C37.6663 7.72192 37.239 8.10907 36.8073 8.50698C47.3266 8.3833 59.4406 8.2435 64.0307 8.15747C59.3172 8.57688 46.1769 9.21137 35.4153 9.80823C35.0057 10.2008 34.5916 10.5933 34.1819 10.9912C44.6924 10.8675 58.0133 10.7062 62.458 10.6255C57.9825 11.0234 43.4237 11.6472 32.9309 12.2172C32.4992 12.642 32.0763 13.0667 31.6666 13.4754C41.741 13.3571 56.7226 13.1689 60.8854 13.0936C56.683 13.47 40.3094 14.0884 30.5345 14.6207C30.0676 15.0939 29.6271 15.5456 29.2262 15.9596C38.1949 15.8574 55.454 15.6316 59.3128 15.5617C55.3923 15.9112 36.3889 16.535 28.2042 17.0189C27.3673 17.89 26.8563 18.4384 26.8563 18.4384H27.2968C33.944 18.3578 54.2294 18.0889 57.7314 18.0244Z" fill="#22C55E"/>
<path d="M58.586 49.8887C58.26 49.8565 57.9516 50.0339 57.7093 50.3834C57.4803 50.7168 57.3349 51.1685 57.3041 51.6578C57.2732 52.1471 57.3613 52.6203 57.5464 52.9913C57.7446 53.3839 58.0309 53.6151 58.3525 53.642C58.3745 53.642 58.4009 53.6473 58.423 53.6473C58.7181 53.6473 59.0044 53.4753 59.2291 53.1473C59.4582 52.8139 59.6035 52.3622 59.6344 51.8729C59.6652 51.3836 59.5771 50.9104 59.3921 50.5394C59.1938 50.1522 58.9075 49.921 58.586 49.8887Z" fill="#22C55E"/>
<path d="M58.2424 59.8521C53.8197 58.3681 53.5598 50.4154 55.7359 46.4524C56.5112 45.0168 57.7094 43.8177 59.2555 43.6779C57.6873 43.2477 56.0531 44.3769 55.0883 45.8663C53.0928 48.9367 52.8109 53.5179 54.3967 56.9162C55.1632 58.567 56.6389 59.9866 58.2424 59.8521Z" fill="#22C55E"/>
<path d="M98.1435 33.0584H95.289C95.5004 32.1712 95.8837 31.3485 96.4475 30.7355C97.3638 29.7354 98.9232 29.0525 101.112 31.5152L99.628 28.8589C98.9893 27.719 97.7911 27.2404 96.7427 27.7566C94.5534 28.8374 93.8001 32.6175 93.8001 32.6175L91.2011 43.9524L91.1615 43.9631C91.8354 40.7261 92.4257 37.4461 92.9191 34.1822C93.2671 31.8324 93.6812 29.2729 95.3066 27.7243C92.9235 29.4773 92.4213 33.3165 91.5403 36.2793C90.8619 38.7205 90.1351 41.1294 89.3598 43.5168C89.9985 40.624 90.5756 37.7042 91.0778 34.7952C91.483 32.3486 91.994 29.687 93.734 28.1276C91.1967 29.8805 90.602 33.8865 89.6373 36.9622C88.8047 39.7905 87.8973 42.5812 86.9326 45.3343L86.8048 45.3773C88.3334 38.4301 89.6241 31.2248 92.4389 27.6975C92.3332 24.9229 91.8663 22.1053 90.9456 19.5619C81.717 20.9546 72.4047 22.5516 63.1761 23.9389C71.8849 23.2829 80.7347 22.9764 89.4479 22.3257C81.413 23.5732 73.3297 24.9336 65.3081 26.1381C73.5632 25.5197 81.9416 25.2025 90.2144 24.6218C90.2276 24.6809 90.2408 24.7454 90.2496 24.8046C82.5495 26.009 74.8142 27.2995 67.1318 28.4556C74.8231 27.8803 82.6156 27.563 90.3333 27.0522C90.276 27.1759 90.2188 27.2995 90.1659 27.4232C83.0958 28.5417 76.0036 29.7139 68.9555 30.7731C75.7041 30.2677 82.5363 29.9558 89.3201 29.5472C89.2408 29.7623 89.1616 29.9827 89.0867 30.1978C82.9812 31.171 76.8626 32.1712 70.7792 33.0907C76.6512 32.6497 82.5892 32.354 88.5052 32.0152C88.4127 32.3217 88.3246 32.6336 88.2409 32.9401C83.0209 33.7789 77.8009 34.6231 72.6073 35.4028C77.6599 35.021 82.7566 34.7522 87.8488 34.4726C87.7563 34.8651 87.6638 35.2576 87.5801 35.6555C83.1927 36.3599 78.8008 37.0643 74.431 37.7257C78.7083 37.4031 83.0165 37.1665 87.3246 36.9245C87.2365 37.3977 87.1528 37.8709 87.0824 38.3441C83.4702 38.9248 79.858 39.4948 76.2591 40.0379C79.8008 39.7744 83.3645 39.5647 86.9326 39.3657C86.8577 39.9142 86.7916 40.4626 86.7344 41.0057C83.849 41.4628 80.9593 41.9198 78.0828 42.3554C80.9285 42.1403 83.7874 41.9682 86.6507 41.8015C86.5405 43.0329 86.4745 44.2642 86.4524 45.4848L67.1318 51.733C67.1318 51.733 67.1318 47.3507 67.1318 43.6459C67.1318 39.9411 66.5503 31.1764 59.8635 31.1764C53.1766 31.1764 52.0004 38.5807 52.0004 38.5807L49.3397 51.733C49.3397 51.733 38.6266 51.733 36.2743 51.733C35.0894 51.733 34.2832 52.1524 33.7722 52.5718L31.0367 49.0929C30.0147 47.7916 28.6139 47.0334 27.1382 46.9797L9.07303 46.3075C8.05987 46.2699 7.08635 46.7915 6.42559 47.7325L4.16138 50.9372C3.5667 50.792 3.00285 50.3188 2.71652 49.6897C4.06007 48.5767 5.25384 47.1087 6.11723 45.4096C5.52255 45.2751 4.92786 45.1407 4.33758 45.017C5.01156 45.0009 5.68554 44.9633 6.35511 44.9149C6.48726 44.6299 6.60619 44.3395 6.71632 44.0438C5.61946 43.7857 4.51819 43.5383 3.43014 43.3125C4.63272 43.2856 5.8309 43.1942 7.02468 43.092C7.06873 42.9469 7.10837 42.8017 7.14361 42.6511C5.59743 42.2855 4.05566 41.9252 2.5227 41.608C4.05566 41.5757 5.57981 41.4359 7.10397 41.3015C5.75161 40.1239 4.10412 39.2958 2.45662 39.2636C2.82224 37.4515 3.03368 35.5749 3.39931 33.7628C3.97637 33.7628 4.59308 33.5746 5.17014 33.5746C5.36837 33.2143 5.55779 32.8433 5.72959 32.4562C6.02913 35.0641 6.56655 37.6827 8.11713 39.4356C9.79106 41.323 12.2359 41.7101 14.5089 41.8822C18.5307 42.1833 22.5702 42.0973 26.5788 41.5972C28.2483 41.3875 29.9971 41.0649 31.3098 39.7959C32.6357 38.5108 33.2965 36.4567 33.693 34.4511C33.9088 33.3757 34.063 32.2626 33.9176 31.171C33.8427 30.6226 33.6885 29.9558 33.4375 29.4235C33.7238 29.4342 34.0057 29.4504 34.292 29.4504C35.6136 29.4504 36.9307 29.3536 38.239 29.1654C37.2126 29.8214 35.662 31.2087 35.3845 32.6121C35.2479 33.3004 35.4197 33.994 36.1113 34.6016C36.5562 34.9942 37.1333 35.0587 37.6795 35.1017C39.7587 35.2523 41.8467 35.2092 43.9215 34.978C45.7232 34.7737 47.5689 34.4027 49.0975 33.2197C50.626 32.0368 51.6832 29.9021 51.4145 27.719C51.3969 27.7082 51.3749 27.7028 51.3573 27.6921L60.6035 23.0301L48.2385 26.7188C47.1592 26.5736 46.058 26.5951 44.9787 26.7511C43.8598 26.9124 42.7586 27.2189 41.6749 27.6114C38.7412 28.4126 35.7457 28.7299 32.7459 28.5632C32.6401 28.504 32.5256 28.4664 32.4067 28.4556C30.4112 28.2782 28.4069 28.1384 26.4026 28.0255C26.7241 28.0147 27.0457 27.9986 27.3629 27.9878C20.6011 27.7028 13.7865 27.3211 6.99825 26.9823C6.99825 26.8963 6.99825 26.8049 6.99825 26.7188L7.46959 26.493C14.6543 26.1757 21.883 25.7187 29.0368 25.4875C23.156 25.2401 17.2356 24.9229 11.324 24.6164L12.9979 23.8044C18.9051 23.5141 24.83 23.1699 30.7063 22.9818C25.8696 22.7774 21.0108 22.5247 16.152 22.272L18.5571 21.1051C23.1737 20.8632 27.7946 20.6266 32.3802 20.4814C28.5919 20.3201 24.7859 20.1319 20.9799 19.9329L25.6537 17.6638C19.2135 19.863 12.8614 22.4333 6.62381 25.3584C5.51374 25.88 4.54022 26.7941 3.9147 28.0255C3.11298 29.5956 2.73414 31.4345 2.54472 33.2627C2.54472 33.2627 0.980924 36.8976 0.910443 39.726C0.839962 42.5597 1.19237 48.3938 1.19237 49.679C1.19237 50.9641 1.75622 52.1686 2.1747 52.3406C2.59318 52.5127 3.88386 52.5557 3.88386 52.5557C3.88386 52.5557 3.83981 52.7977 4.00721 53.088C4.97191 58.0027 7.26695 61.3849 10.0686 61.8581C10.5003 61.9333 10.9452 61.9333 11.3725 61.8581H16.337C16.5616 61.8957 16.7907 61.9172 17.0154 61.9172C19.632 61.9172 22.112 59.3685 23.667 55.1959C27.4157 55.4808 30.8473 55.7551 32.7943 55.9164C33.8339 55.997 34.8295 55.4163 35.4241 54.3732L42.2828 54.4377V54.4592C42.741 61.0945 45.9478 66.1328 50.0798 66.7136C50.3353 66.7512 50.5996 66.7673 50.8595 66.7673C51.1194 66.7673 51.3793 66.7512 51.6348 66.7136H57.6257C57.8944 66.7512 58.1587 66.7673 58.423 66.7673C63.0439 66.7673 67.2067 61.2397 68.0965 53.6849L68.1053 53.6042L87.818 47.8185C88.4171 52.1578 89.9413 54.9593 91.6989 54.9593H98.1479C100.465 54.9593 102.284 50.1521 102.284 44.0115C102.28 37.8655 100.465 33.0584 98.1435 33.0584ZM31.9838 30.5097C32.0146 30.5796 32.0499 30.6817 32.0807 30.7947C24.3146 31.0312 16.5308 31.3055 8.80432 31.4722C16.5616 31.8808 24.3895 32.5207 32.1864 33.0638C32.1424 33.3649 32.0895 33.6606 32.0322 33.9456C32.0278 33.9725 32.019 33.9994 32.0146 34.0263C24.9401 34.2467 17.8567 34.4833 10.8174 34.6393C17.6717 35.0049 24.5789 35.5426 31.4728 36.0373C31.301 36.5212 31.1072 36.9353 30.8957 37.2955C24.8652 37.4837 18.8303 37.6773 12.8306 37.8064C18.2312 38.0914 23.667 38.4893 29.1029 38.8872C28.2879 39.242 27.3364 39.3926 26.407 39.5109C22.5393 39.9948 18.5704 40.0863 14.6146 39.7851C12.5795 39.6292 10.5267 39.2958 9.28007 37.8924C7.9145 36.3546 7.54888 33.6338 7.28017 30.7301C7.31541 30.5634 7.42994 30.2408 7.51804 29.9988C15.6542 29.6493 23.8741 29.8214 31.9838 30.5097ZM6.99384 27.3103C7.10837 27.5093 7.2185 27.7136 7.32863 27.9125C7.20528 27.9179 7.08194 27.9233 6.9586 27.9287C6.97622 27.7243 6.98503 27.52 6.99384 27.3103ZM66.3521 47.9314V48.2325C66.3345 48.1357 66.3125 48.0336 66.2949 47.9368L66.3521 47.9314ZM53.1325 45.0708L53.3704 44.5922C55.0575 41.2101 57.5948 39.4087 60.141 39.7636C62.5682 40.1024 64.6165 42.393 65.6693 45.786C65.568 45.5171 65.4579 45.2482 65.3389 44.9901C64.3478 42.8071 62.4624 40.9358 60.3568 41.0219C66.3125 42.6888 66.8191 53.6903 63.7884 58.9007C62.7047 60.8633 61.0308 62.3958 59.0133 62.4872C61.0748 62.9604 63.1584 61.4763 64.4139 59.519C62.7884 62.5141 60.37 64.2455 57.868 63.896C54.6567 63.4443 52.1634 59.6696 51.6656 54.4968L51.6568 54.4269L53.1325 45.0708ZM98.1435 54.5291C96.0511 54.5291 94.3507 49.808 94.3507 44.0008C94.3507 38.1935 96.0511 33.4724 98.1435 33.4724C100.236 33.4724 101.936 38.1935 101.936 44.0008C101.936 49.808 100.236 54.5291 98.1435 54.5291Z" fill="#22C55E"/>
<path d="M98.3593 34.8596C99.6985 35.193 100.086 37.5589 100.377 38.9516C100.905 42.2639 100.905 45.7428 100.377 49.0551C100.086 50.437 99.694 52.8191 98.3593 53.1471C99.117 53.217 99.6896 52.3674 100.055 51.6576C101.742 47.899 101.764 42.8661 100.892 38.7956C100.531 37.3761 99.8262 34.865 98.3593 34.8596Z" fill="#22C55E"/>
<path d="M99.0774 44.0008C99.0774 42.9953 98.8307 41.979 98.3593 41.979C97.888 41.979 97.6413 42.9953 97.6413 44.0008C97.6413 45.0063 97.888 46.0226 98.3593 46.0226C98.8307 46.0226 99.0774 45.0063 99.0774 44.0008Z" fill="#22C55E"/>
<path d="M97.5841 37.1935C97.3153 37.1451 97.0378 37.3064 96.8264 37.5161C94.9102 39.8013 94.9322 44.9365 95.6326 47.8992C95.9277 48.9854 96.4652 50.819 97.5885 50.8082C95.3022 50.0716 95.5533 39.4895 96.9629 37.6828C97.1171 37.4516 97.3197 37.2418 97.5841 37.1935Z" fill="#22C55E"/>
</svg>
