<svg width="105" height="45" viewBox="0 0 105 45" fill="none" xmlns="http://www.w3.org/2000/svg">
<g clip-path="url(#clip0_149_136)">
<path d="M97.9268 6.65479H32.0806V44.7673H97.9268V6.65479Z" fill="#22C55E"/>
<path d="M104.099 0.186035H38.2527V38.2985H104.099V0.186035Z" fill="#33E26D"/>
<path d="M77.2153 28.0366C81.847 24.5376 82.8954 17.7659 79.5569 12.9115C76.2185 8.0571 69.7574 6.95831 65.1257 10.4573C60.494 13.9562 59.4457 20.728 62.7841 25.5824C66.1226 30.4368 72.5836 31.5356 77.2153 28.0366Z" fill="#1B7A3B"/>
<path d="M55.2981 3.32349H42.5321V8.40156H55.2981V3.32349Z" fill="#1DA049"/>
<path d="M100.673 29.6948H87.9074V34.7729H100.673V29.6948Z" fill="#1DA049"/>
<path d="M95.9825 13.6953C98.0448 13.6953 99.7167 11.9431 99.7167 9.78159C99.7167 7.62013 98.0448 5.86792 95.9825 5.86792C93.9202 5.86792 92.2484 7.62013 92.2484 9.78159C92.2484 11.9431 93.9202 13.6953 95.9825 13.6953Z" fill="#1DA049"/>
<path d="M46.2765 32.2286C46.2765 33.3067 45.433 34.1908 44.4043 34.1908C43.3756 34.1908 42.5321 33.3067 42.5321 32.2286C42.5321 31.1504 43.3756 30.2664 44.4043 30.2664C45.4433 30.2664 46.2765 31.1504 46.2765 32.2286Z" fill="#1DA049"/>
<path d="M50.7924 32.2286C50.7924 33.3067 49.9489 34.1908 48.9202 34.1908C47.8915 34.1908 47.048 33.3067 47.048 32.2286C47.048 31.1504 47.8915 30.2664 48.9202 30.2664C49.9489 30.2664 50.7924 31.1504 50.7924 32.2286Z" fill="#1DA049"/>
<path d="M55.298 32.2286C55.298 33.3067 54.4545 34.1908 53.4258 34.1908C52.3971 34.1908 51.5536 33.3067 51.5536 32.2286C51.5536 31.1504 52.3971 30.2664 53.4258 30.2664C54.4648 30.2664 55.298 31.1504 55.298 32.2286Z" fill="#1DA049"/>
<path d="M32.6463 19.3124H10.8588C9.49065 19.3124 8.37967 18.148 8.37967 16.7141C8.37967 15.2801 9.49065 14.1157 10.8588 14.1157H32.6361C34.0042 14.1157 35.1152 15.2801 35.1152 16.7141C35.1152 18.148 34.0042 19.3124 32.6463 19.3124Z" fill="#2CE56A"/>
<path d="M25.1575 40.0236H3.38028C2.01213 40.0236 0.901154 38.8592 0.901154 37.4252C0.901154 35.9913 2.01213 34.8269 3.38028 34.8269H25.1575C26.5257 34.8269 27.6367 35.9913 27.6367 37.4252C27.6367 38.8592 26.5257 40.0236 25.1575 40.0236Z" fill="#39EA74"/>
<path d="M32.6464 29.6735H23.2133C21.8452 29.6735 20.7342 28.5091 20.7342 27.0751C20.7342 25.6412 21.8452 24.4768 23.2133 24.4768H32.6464C34.0145 24.4768 35.1255 25.6412 35.1255 27.0751C35.1152 28.5091 34.0042 29.6735 32.6464 29.6735Z" fill="#22C55E"/>
<path d="M15.385 29.6735H13.1528C11.7846 29.6735 10.6736 28.5091 10.6736 27.0751C10.6736 25.6412 11.7846 24.4768 13.1528 24.4768H15.385C16.7532 24.4768 17.8642 25.6412 17.8642 27.0751C17.8642 28.5091 16.7532 29.6735 15.385 29.6735Z" fill="#1DA049"/>
</g>
<defs>
<clipPath id="clip0_149_136">
<rect width="103.198" height="44.5814" fill="white" transform="translate(0.901154 0.186035)"/>
</clipPath>
</defs>
</svg>
