<svg width="86" height="86" viewBox="0 0 86 86" fill="none" xmlns="http://www.w3.org/2000/svg">
<path d="M85.5872 30.729V44.8957C85.5872 48.6731 82.2813 51.979 78.5039 51.979C74.7265 51.979 71.4205 48.6731 71.4205 44.8957V30.729C71.4205 28.8397 72.3646 26.9516 73.3098 26.0064C67.6431 13.729 57.2539 4.7564 43.5598 4.7564H43.0872C28.9205 4.7564 18.5313 13.729 12.8646 26.0064C13.8087 26.9505 14.7539 28.8397 14.7539 30.729V44.8957C14.7539 48.6731 11.4479 51.979 7.67054 51.979C3.89313 51.979 0.587204 48.6731 0.587204 44.8957V30.729C0.587204 26.9516 3.89313 23.6457 7.67054 23.6457H8.14313C13.8098 9.95158 27.5039 0.0349121 43.0872 0.0349121C58.6705 0.0349121 72.3646 9.95158 78.0313 23.6457H78.5039C82.2813 23.6457 85.5872 26.9516 85.5872 30.729ZM85.5872 85.0349H0.587204C0.587204 74.1742 19.4765 61.4242 43.0872 61.4242C66.6979 61.4242 85.5872 74.1742 85.5872 85.0349ZM78.9765 80.3123C74.2539 73.7016 60.0872 66.1457 43.0872 66.1457C26.0872 66.1457 11.9205 73.7016 7.19795 80.3123H78.9765ZM43.0872 61.4242C29.8646 61.4242 19.4765 51.0349 19.4765 37.8134C19.4765 24.5919 29.8646 14.2016 43.0872 14.2016C56.3098 14.2016 66.6979 24.5908 66.6979 37.8123C66.6979 51.0338 56.3098 61.4242 43.0872 61.4242ZM61.9765 37.8123C61.9765 27.4231 53.4765 18.9231 43.0872 18.9231C32.6979 18.9231 24.1979 27.4231 24.1979 37.8123C24.1979 48.2016 32.6979 56.7016 43.0872 56.7016C53.4765 56.7016 61.9765 48.2016 61.9765 37.8123Z" fill="#22C55E"/>
</svg>
